<svg xmlns="http://www.w3.org/2000/svg" width="50" height="50.419" viewBox="0 0 50 50.419">
  <g id="Grupo_1177077" data-name="Grupo 1177077" transform="translate(-2.145 0.001)">
    <g id="Grupo_1177076" data-name="Grupo 1177076" transform="translate(2.145 -0.001)">
      <path id="Trazado_993935" data-name="Trazado 993935" d="M48.79,212.463a4.7,4.7,0,0,0,.536-2.184V208.4a4.743,4.743,0,0,0-3.12-4.451,7.518,7.518,0,0,0-3.231-4.917,4.7,4.7,0,0,0,.536-2.183v-1.879a4.735,4.735,0,0,0-9.469,0v1.879a4.7,4.7,0,0,0,.536,2.184,7.582,7.582,0,0,0-1.619,1.459,7.561,7.561,0,0,0-1.614-1.458,4.7,4.7,0,0,0,.536-2.185v-1.879a4.735,4.735,0,0,0-9.469,0v1.879a4.7,4.7,0,0,0,.537,2.185,7.562,7.562,0,0,0-1.622,1.468,7.638,7.638,0,0,0-1.613-1.467,4.7,4.7,0,0,0,.537-2.186v-1.879a4.735,4.735,0,0,0-9.47,0v1.879a4.7,4.7,0,0,0,.536,2.184,7.523,7.523,0,0,0-3.231,4.917,4.743,4.743,0,0,0-3.12,4.451v1.879a4.7,4.7,0,0,0,.536,2.184,7.51,7.51,0,0,0-3.355,6.272V221.1a.977.977,0,0,0,.977.977H51.168a.977.977,0,0,0,.977-.977v-2.364a7.51,7.51,0,0,0-3.355-6.272ZM47.373,208.4v1.879a2.782,2.782,0,0,1-5.563,0V208.4a2.782,2.782,0,0,1,5.563,0Zm-3.239-4.712a4.741,4.741,0,0,0-4.278,4.712v1.879a4.7,4.7,0,0,0,.537,2.185,7.576,7.576,0,0,0-1.612,1.457,7.586,7.586,0,0,0-1.622-1.458,4.7,4.7,0,0,0,.536-2.184V208.4a4.741,4.741,0,0,0-4.278-4.712,5.7,5.7,0,0,1,2.411-3.138,4.72,4.72,0,0,0,5.895,0A5.7,5.7,0,0,1,44.134,203.687Zm-13.956,6.591V208.4a2.782,2.782,0,0,1,5.563,0v1.879a2.782,2.782,0,0,1-5.563,0Zm5.816-15.31a2.782,2.782,0,0,1,5.563,0v1.879a2.782,2.782,0,1,1-5.563,0Zm-11.631,0a2.782,2.782,0,0,1,5.563,0v1.879a2.782,2.782,0,0,1-5.563,0v-1.879Zm-.166,5.581a4.72,4.72,0,0,0,5.894,0,5.631,5.631,0,0,1,1.761,1.733,7.529,7.529,0,0,0-.507,1.666,4.743,4.743,0,0,0-3.12,4.451v1.879a4.7,4.7,0,0,0,.536,2.184,7.583,7.583,0,0,0-1.621,1.457,7.562,7.562,0,0,0-1.612-1.456,4.7,4.7,0,0,0,.537-2.185V208.4a4.743,4.743,0,0,0-3.121-4.451,7.476,7.476,0,0,0-.512-1.656A5.631,5.631,0,0,1,24.2,200.549Zm-5.65,9.729V208.4a2.782,2.782,0,0,1,5.563,0v1.879a2.782,2.782,0,0,1-5.563,0Zm-5.816-15.31a2.782,2.782,0,0,1,5.563,0v1.879a2.782,2.782,0,0,1-5.563,0Zm-.166,5.581a4.72,4.72,0,0,0,5.895,0,5.7,5.7,0,0,1,2.411,3.138,4.741,4.741,0,0,0-4.278,4.712v1.879a4.7,4.7,0,0,0,.536,2.184,7.587,7.587,0,0,0-1.621,1.456,7.555,7.555,0,0,0-1.613-1.455,4.7,4.7,0,0,0,.536-2.185V208.4a4.741,4.741,0,0,0-4.278-4.712A5.7,5.7,0,0,1,12.567,200.549Zm-5.65,7.85a2.782,2.782,0,0,1,5.563,0v1.879a2.782,2.782,0,0,1-5.563,0ZM4.1,218.735a5.573,5.573,0,0,1,2.653-4.755,4.72,4.72,0,0,0,5.895,0,5.625,5.625,0,0,1,1.759,1.731,7.542,7.542,0,0,0-.629,3.023v1.387H4.1Zm11.631,0a5.573,5.573,0,0,1,2.653-4.755,4.72,4.72,0,0,0,5.895,0,5.629,5.629,0,0,1,1.759,1.731,7.542,7.542,0,0,0-.629,3.023v1.387H15.729v-1.388Zm11.631,0a5.573,5.573,0,0,1,2.653-4.755,4.72,4.72,0,0,0,5.9,0,5.574,5.574,0,0,1,2.653,4.755v1.387H27.36Zm22.832,1.387H40.514v-1.387a7.541,7.541,0,0,0-.629-3.023,5.639,5.639,0,0,1,1.759-1.732,4.72,4.72,0,0,0,5.895,0,5.572,5.572,0,0,1,2.653,4.755v1.388Z" transform="translate(-2.145 -171.656)" fill="#ffd600"/>
      <path id="Trazado_993936" data-name="Trazado 993936" d="M161.647,8.3a.977.977,0,0,0,.587-1.25,3.6,3.6,0,0,1,.678-4.113,3.4,3.4,0,0,1,4.79,0,2.569,2.569,0,0,0,3.664,0,3.4,3.4,0,0,1,4.79,0A3.436,3.436,0,0,1,177,6.528c-.979,3.658-5.517,7.393-7.465,8.129a9.81,9.81,0,0,1-2.146-1.287.977.977,0,1,0-1.174,1.561,9.976,9.976,0,0,0,3.067,1.7.976.976,0,0,0,.5,0,13.961,13.961,0,0,0,5.041-3.389,14.987,14.987,0,0,0,4.059-6.2,5.382,5.382,0,0,0-8.9-5.477.622.622,0,0,1-.906,0,5.355,5.355,0,0,0-7.547,0A5.519,5.519,0,0,0,160.4,7.714.977.977,0,0,0,161.647,8.3Z" transform="translate(-144.534 0.001)" fill="#ffd600"/>
      <path id="Trazado_993937" data-name="Trazado 993937" d="M188.439,104a.977.977,0,1,0,.977.977.976.976,0,0,0-.977-.977Z" transform="translate(-169.366 -93.848)" fill="#ffd600"/>
    </g>
  </g>
</svg>
