<svg xmlns="http://www.w3.org/2000/svg" width="50" height="49.899" viewBox="0 0 50 49.899">
  <g id="Grupo_1177078" data-name="Grupo 1177078" transform="translate(0 -0.517)">
    <path id="Trazado_993939" data-name="Trazado 993939" d="M171.458,11.573a.733.733,0,0,0,.733-.733V4.681a1.427,1.427,0,1,1,2.853,0V17.4a.733.733,0,1,0,1.466,0V3.41a1.427,1.427,0,0,1,2.853,0V17.4a.733.733,0,0,0,1.466,0V6.44a1.427,1.427,0,1,1,2.853,0V17.4a.733.733,0,0,0,1.466,0V8.005h0A1.427,1.427,0,1,1,188,8v2.214a.733.733,0,1,0,1.466,0V8a2.891,2.891,0,0,0-4.453-2.434,2.89,2.89,0,0,0-4.185-1.645V3.41A2.893,2.893,0,0,0,175.264,2.3a2.891,2.891,0,0,0-4.539,2.377V10.84a.733.733,0,0,0,.733.733Z" transform="translate(-154.036)" fill="#ffd600"/>
    <path id="Trazado_993940" data-name="Trazado 993940" d="M318.814,124.955a.733.733,0,0,0-1.466,0v16.15a4.83,4.83,0,0,1-2.166,4.035l-.571.379a1.173,1.173,0,0,0-.526.98v14.8a.733.733,0,1,0,1.466,0v-14.64l.441-.293a6.293,6.293,0,0,0,2.822-5.257Z" transform="translate(-283.381 -111.612)" fill="#ffd600"/>
    <path id="Trazado_993941" data-name="Trazado 993941" d="M163.9,140.272a3.642,3.642,0,0,0-4.91-.553l-.353.262-.353-.262a3.646,3.646,0,0,0-4.258-.04v-3.11a2.946,2.946,0,0,0-2.208-2.848v-2.41a.733.733,0,1,0-1.466,0v2.41a2.946,2.946,0,0,0-2.208,2.848v9.157a7.732,7.732,0,0,0,3.212,6.264l.884.635v14.4a.733.733,0,0,0,1.466,0V152.25a.733.733,0,0,0-.305-.6l-1.189-.854a6.263,6.263,0,0,1-2.6-5.074V136.57a1.475,1.475,0,1,1,2.949,0v5.436a3.639,3.639,0,0,0,1,3.19l3.389,3.4a2.389,2.389,0,0,0,3.385,0l3.389-3.4a3.646,3.646,0,0,0,.182-4.923Zm-1.221,3.889-3.389,3.4a.922.922,0,0,1-1.307,0l-3.389-3.4a2.159,2.159,0,0,1,1.535-3.684,2.149,2.149,0,0,1,1.282.421l.673.5a.926.926,0,0,0,1.107,0l.672-.5a2.161,2.161,0,0,1,2.817,3.263Z" transform="translate(-133.659 -117.347)" fill="#ffd600"/>
    <path id="Trazado_993942" data-name="Trazado 993942" d="M347.194,419.714l-1-.719a5.155,5.155,0,0,1-.829-.748.733.733,0,1,0-1.093.978,6.622,6.622,0,0,0,1.066.961l.695.5v5.671a.733.733,0,0,0,1.466,0v-6.046A.733.733,0,0,0,347.194,419.714Z" transform="translate(-310.449 -376.674)" fill="#ffd600"/>
    <path id="Trazado_993943" data-name="Trazado 993943" d="M388.019,148.294a2.548,2.548,0,0,1-3.635-1.316,2.535,2.535,0,0,0-1.084.243v-.242a2.55,2.55,0,0,0-4.861-1.078.733.733,0,0,0-.677,1.28,1.075,1.075,0,0,1,.437.867v10.7a.733.733,0,1,0,1.466,0V146.978a1.084,1.084,0,1,1,2.168,0v11.771a.733.733,0,0,0,1.466,0v-9.221a1.084,1.084,0,0,1,2.168,0v9.221a.733.733,0,1,0,1.466,0v-7.9a1.084,1.084,0,1,1,2.168,0v18.037a4.9,4.9,0,0,1-1.68,3.695l-.156.136a.733.733,0,0,0-.251.553v6.261a.733.733,0,1,0,1.466,0V173.6a6.367,6.367,0,0,0,2.088-4.716V150.845A2.553,2.553,0,0,0,388.019,148.294Z" transform="translate(-340.569 -129.843)" fill="#ffd600"/>
    <path id="Trazado_993944" data-name="Trazado 993944" d="M371.8,327.091l-.228.169-.228-.169a3.169,3.169,0,0,0-4.13,4.783l2.852,2.864a2.126,2.126,0,0,0,3.013,0l2.852-2.864a3.169,3.169,0,0,0-4.13-4.783Zm3.091,3.749-2.852,2.864a.66.66,0,0,1-.935,0h0l-2.852-2.864a1.7,1.7,0,0,1,1.209-2.9,1.693,1.693,0,0,1,1.01.332l.566.418a.9.9,0,0,0,1.07,0l.566-.418a1.7,1.7,0,0,1,2.219,2.57Z" transform="translate(-330.487 -294.092)" fill="#ffd600"/>
    <path id="Trazado_993945" data-name="Trazado 993945" d="M4.607,371.377l-1-.719a5.153,5.153,0,0,1-2.141-4.175v-1.322a.733.733,0,0,0-1.466,0v1.322a6.623,6.623,0,0,0,2.751,5.366l.695.5v5.672a.733.733,0,0,0,1.466,0v-6.048A.733.733,0,0,0,4.607,371.377Z" transform="translate(0 -328.337)" fill="#ffd600"/>
    <path id="Trazado_993946" data-name="Trazado 993946" d="M148.433,360.153a.733.733,0,0,0-.733.733v5.238a4.881,4.881,0,0,1-.929,1.089l-.156.136a.733.733,0,0,0-.252.553v6.261a.733.733,0,0,0,1.466,0v-5.929a6.357,6.357,0,0,0,1.239-1.541.733.733,0,0,0,.1-.366v-5.441A.733.733,0,0,0,148.433,360.153Z" transform="translate(-132.055 -324.48)" fill="#ffd600"/>
    <path id="Trazado_993947" data-name="Trazado 993947" d="M9.174,162.841l-.228.169-.228-.169a3.183,3.183,0,0,0-3.536-.155v-2.4A2.6,2.6,0,0,0,3.324,157.8v-9.752a1.084,1.084,0,1,1,2.168,0v10.7a.733.733,0,1,0,1.466,0V146.978a1.084,1.084,0,0,1,2.168,0v11.771a.733.733,0,1,0,1.466,0v-9.221a1.085,1.085,0,0,1,1.084-1.084,1.074,1.074,0,0,1,.444.1.733.733,0,0,0,.6-1.337,2.541,2.541,0,0,0-2.132.016v-.242a2.55,2.55,0,0,0-4.85-1.1,2.549,2.549,0,0,0-3.885,2.172V157.8A2.6,2.6,0,0,0,0,160.284v3.259a.733.733,0,1,0,1.466,0v-3.259a1.124,1.124,0,1,1,2.249,0v4.566a3.178,3.178,0,0,0,.872,2.775l2.852,2.864a2.126,2.126,0,0,0,3.013,0l2.852-2.864a3.169,3.169,0,0,0-4.13-4.783Zm3.091,3.749-2.852,2.864a.66.66,0,0,1-.935,0h0L5.626,166.59a1.7,1.7,0,0,1,1.209-2.9,1.693,1.693,0,0,1,1.01.332l.566.418a.9.9,0,0,0,1.07,0l.566-.418a1.7,1.7,0,0,1,2.219,2.57Z" transform="translate(0 -129.843)" fill="#ffd600"/>
  </g>
</svg>
