<svg xmlns="http://www.w3.org/2000/svg" width="123" height="123" viewBox="0 0 123 123">
  <g id="Grupo_1181567" data-name="Grupo 1181567" transform="translate(-209 -3088)">
    <rect id="Rectángulo_455518" data-name="Rectángulo 455518" width="123" height="123" rx="10" transform="translate(209 3088)" fill="#c8bf57"/>
    <g id="Grupo_1181566" data-name="Grupo 1181566" transform="translate(217.868 3106.58)">
      <g id="Grupo_1181564" data-name="Grupo 1181564" transform="translate(12.924 1.257)">
        <g id="Grupo_1181559" data-name="Grupo 1181559" transform="translate(0 7.22)">
          <path id="Trazado_1014141" data-name="Trazado 1014141" d="M78.211,126.672h-57.3a1.751,1.751,0,0,1-1.629-2.394l28.649-72.6a1.751,1.751,0,0,1,3.258,0l28.649,72.6A1.751,1.751,0,0,1,78.211,126.672Z" transform="translate(-19.16 -50.567)" fill="#fc5a95"/>
          <path id="Trazado_1014142" data-name="Trazado 1014142" d="M213.68,126.67h-6.23a1.751,1.751,0,0,0,1.628-2.394l-9.462-23.98-17.7-44.855,1.485-3.767a1.752,1.752,0,0,1,3.259,0l28.649,72.6A1.752,1.752,0,0,1,213.68,126.67Z" transform="translate(-154.629 -50.565)" fill="#fb3a82"/>
          <g id="Grupo_1181558" data-name="Grupo 1181558">
            <g id="Grupo_1181557" data-name="Grupo 1181557" transform="translate(19.995 0)">
              <path id="Trazado_1014143" data-name="Trazado 1014143" d="M159.234,73.923H138.419L147.2,51.676a1.751,1.751,0,0,1,3.258,0Z" transform="translate(-138.419 -50.568)" fill="#64b9fc"/>
            </g>
            <path id="Trazado_1014144" data-name="Trazado 1014144" d="M186.661,51.674l8.778,22.246h-6.232l-7.291-18.479,1.485-3.767a1.752,1.752,0,0,1,3.259,0Z" transform="translate(-154.629 -50.565)" fill="#31a7fb"/>
            <path id="Trazado_1014145" data-name="Trazado 1014145" d="M78.211,373.56h-57.3a1.751,1.751,0,0,1-1.629-2.394l9.463-23.981h41.63l9.463,23.981A1.751,1.751,0,0,1,78.211,373.56Z" transform="translate(-19.16 -297.455)" fill="#fcc16d"/>
            <path id="Trazado_1014146" data-name="Trazado 1014146" d="M301.551,373.564h-6.23a1.751,1.751,0,0,0,1.628-2.394l-9.462-23.98h6.232l9.462,23.98A1.752,1.752,0,0,1,301.551,373.564Z" transform="translate(-242.5 -297.459)" fill="#fca62f"/>
          </g>
        </g>
        <g id="Grupo_1181563" data-name="Grupo 1181563" transform="translate(46.129)">
          <g id="Grupo_1181560" data-name="Grupo 1181560">
            <circle id="Elipse_13856" data-name="Elipse 13856" cx="4.642" cy="4.642" r="4.642" transform="translate(2.903)" fill="#ffcec0"/>
            <path id="Trazado_1014147" data-name="Trazado 1014147" d="M334.034,12.145a4.644,4.644,0,0,1-6.639,4.192,4.645,4.645,0,0,0,0-8.384,4.644,4.644,0,0,1,6.639,4.192Z" transform="translate(-321.846 -7.502)" fill="#fdb0a0"/>
            <path id="Trazado_1014148" data-name="Trazado 1014148" d="M309.386,74.214l-.638-7.167a4.575,4.575,0,0,0-4.557-4.169H299.5a4.575,4.575,0,0,0-4.557,4.169l-.638,7.167a.915.915,0,0,0,.911,1h2.172v8.564a1.83,1.83,0,0,0,1.83,1.83h5.256a1.83,1.83,0,0,0,1.83-1.83V75.21h2.172A.915.915,0,0,0,309.386,74.214Z" transform="translate(-294.3 -53.594)" fill="#64b9fc"/>
            <path id="Trazado_1014149" data-name="Trazado 1014149" d="M334.531,75.214h-2.172v8.564a1.83,1.83,0,0,1-1.83,1.83h-4.642a1.829,1.829,0,0,0,1.83-1.83V75.214h2.172a.914.914,0,0,0,.911-1l-.637-7.168a4.575,4.575,0,0,0-4.558-4.168h4.642a4.575,4.575,0,0,1,4.558,4.168l.637,7.168A.914.914,0,0,1,334.531,75.214Z" transform="translate(-320.357 -53.598)" fill="#31a7fb"/>
          </g>
          <g id="Grupo_1181561" data-name="Grupo 1181561" transform="translate(9.099 25.657)">
            <circle id="Elipse_13857" data-name="Elipse 13857" cx="4.642" cy="4.642" r="4.642" transform="translate(2.903)" fill="#ffcec0"/>
            <path id="Trazado_1014150" data-name="Trazado 1014150" d="M388.306,165.181a4.644,4.644,0,0,1-6.639,4.192,4.645,4.645,0,0,0,0-8.384,4.644,4.644,0,0,1,6.639,4.192Z" transform="translate(-376.118 -160.538)" fill="#fdb0a0"/>
            <path id="Trazado_1014151" data-name="Trazado 1014151" d="M363.658,227.25l-.638-7.167a4.575,4.575,0,0,0-4.557-4.169H353.77a4.575,4.575,0,0,0-4.557,4.169l-.638,7.167a.915.915,0,0,0,.911,1h2.172v8.564a1.83,1.83,0,0,0,1.83,1.83h5.256a1.83,1.83,0,0,0,1.83-1.83v-8.564h2.172A.915.915,0,0,0,363.658,227.25Z" transform="translate(-348.572 -206.63)" fill="#fc5a95"/>
            <path id="Trazado_1014152" data-name="Trazado 1014152" d="M388.8,228.25h-2.172v8.564a1.83,1.83,0,0,1-1.83,1.83h-4.642a1.829,1.829,0,0,0,1.83-1.83V228.25h2.172a.914.914,0,0,0,.911-1l-.637-7.168a4.575,4.575,0,0,0-4.558-4.168h4.642a4.575,4.575,0,0,1,4.558,4.168l.637,7.168A.914.914,0,0,1,388.8,228.25Z" transform="translate(-374.629 -206.634)" fill="#fb3a82"/>
          </g>
          <g id="Grupo_1181562" data-name="Grupo 1181562" transform="translate(18.195 51.314)">
            <circle id="Elipse_13858" data-name="Elipse 13858" cx="4.642" cy="4.642" r="4.642" transform="translate(2.903)" fill="#ffcec0"/>
            <path id="Trazado_1014153" data-name="Trazado 1014153" d="M442.56,318.212a4.644,4.644,0,0,1-6.639,4.192,4.645,4.645,0,0,0,0-8.384,4.644,4.644,0,0,1,6.639,4.192Z" transform="translate(-430.372 -313.57)" fill="#fdb0a0"/>
            <path id="Trazado_1014154" data-name="Trazado 1014154" d="M417.912,380.282l-.638-7.167a4.575,4.575,0,0,0-4.557-4.169h-4.693a4.575,4.575,0,0,0-4.557,4.169l-.638,7.167a.915.915,0,0,0,.911,1h2.172v8.564a1.83,1.83,0,0,0,1.83,1.83H413a1.83,1.83,0,0,0,1.83-1.83v-8.564H417A.915.915,0,0,0,417.912,380.282Z" transform="translate(-402.826 -359.662)" fill="#fcc16d"/>
            <path id="Trazado_1014155" data-name="Trazado 1014155" d="M443.057,381.282h-2.172v8.564a1.83,1.83,0,0,1-1.83,1.83h-4.642a1.829,1.829,0,0,0,1.83-1.83v-8.564h2.172a.914.914,0,0,0,.911-1l-.637-7.168a4.575,4.575,0,0,0-4.558-4.168h4.642a4.575,4.575,0,0,1,4.558,4.168l.637,7.168A.914.914,0,0,1,443.057,381.282Z" transform="translate(-428.883 -359.666)" fill="#fca62f"/>
          </g>
        </g>
      </g>
      <g id="Grupo_1181565" data-name="Grupo 1181565" transform="translate(11.668 0)">
        <path id="Trazado_1014156" data-name="Trazado 1014156" d="M60.136,80.479A1.257,1.257,0,1,0,57.8,81.4l4.5,11.4H35.123a1.257,1.257,0,1,0,0,2.515H63.286L72.435,118.5a.494.494,0,0,1-.459.675h-57.3a.494.494,0,0,1-.46-.675l9.149-23.185H29.16a1.257,1.257,0,0,0,0-2.515h-4.8l9.415-23.86h19.1l2.736,6.933a1.257,1.257,0,0,0,2.339-.923l-3.061-7.756h0L46.125,44.972a3.009,3.009,0,0,0-5.6,0l-28.649,72.6a3.009,3.009,0,0,0,2.8,4.113h57.3a3.009,3.009,0,0,0,2.8-4.113ZM42.867,45.9a.494.494,0,0,1,.919,0l8.1,20.527H34.767Z" transform="translate(-11.668 -35.847)"/>
        <path id="Trazado_1014157" data-name="Trazado 1014157" d="M322.592,73.08l-.638-7.167a5.8,5.8,0,0,0-3.643-4.905,5.9,5.9,0,0,0-7.893-8.625V49.789h.915a2.172,2.172,0,0,0,2.164-2.365l-.638-7.167a5.8,5.8,0,0,0-3.643-4.905,5.9,5.9,0,0,0-7.9-8.623v-2.6h.915a2.172,2.172,0,0,0,2.164-2.365l-.638-7.167a5.8,5.8,0,0,0-3.643-4.905,5.9,5.9,0,1,0-9.025,0,5.8,5.8,0,0,0-3.643,4.905l-.638,7.167a2.172,2.172,0,0,0,2.164,2.365h.915v7.307a3.091,3.091,0,0,0,3.087,3.087h5.256a3.069,3.069,0,0,0,1.233-.259,5.918,5.918,0,0,0,.725,1.085,5.8,5.8,0,0,0-3.643,4.905l-.638,7.167a2.172,2.172,0,0,0,2.164,2.365h.915V57.1a3.091,3.091,0,0,0,3.087,3.087h5.256a3.065,3.065,0,0,0,1.231-.258,5.905,5.905,0,0,0,.724,1.083,5.8,5.8,0,0,0-3.643,4.905L305,73.081a2.172,2.172,0,0,0,2.164,2.365h.915v7.306a3.091,3.091,0,0,0,3.087,3.087h5.256a3.091,3.091,0,0,0,3.087-3.087V81.6a1.257,1.257,0,0,0-2.515,0v1.148a.573.573,0,0,1-.573.572h-1.371V74.1a1.257,1.257,0,0,0-2.515,0v9.222H311.17a.573.573,0,0,1-.573-.572V74.188a1.257,1.257,0,0,0-1.257-1.257h-1.8l.6-6.794a3.3,3.3,0,0,1,3.3-3.023h4.693a3.3,3.3,0,0,1,3.3,3.023l.6,6.794h-1.8A1.257,1.257,0,0,0,317,74.188v1.453a1.257,1.257,0,0,0,2.515,0v-.2h.915a2.172,2.172,0,0,0,2.163-2.365ZM313.8,53.829a3.385,3.385,0,1,1-3.385,3.385A3.389,3.389,0,0,1,313.8,53.829Zm-9.1-25.657a3.385,3.385,0,1,1-3.385,3.385A3.389,3.389,0,0,1,304.7,28.172ZM295.6,2.515A3.385,3.385,0,1,1,292.218,5.9,3.389,3.389,0,0,1,295.6,2.515Zm2.628,29.5H296.86V22.788a1.257,1.257,0,1,0-2.515,0v9.222h-1.371a.573.573,0,0,1-.573-.572V22.874a1.257,1.257,0,0,0-1.257-1.257h-1.8l.6-6.794a3.3,3.3,0,0,1,3.3-3.023h4.694a3.3,3.3,0,0,1,3.3,3.023l.6,6.794h-1.8a1.257,1.257,0,0,0-1.257,1.257v8.564A.573.573,0,0,1,298.231,32.011Zm9.1,25.657h-1.371V48.446a1.257,1.257,0,1,0-2.515,0v9.222h-1.371a.573.573,0,0,1-.572-.572V48.532a1.257,1.257,0,0,0-1.257-1.257h-1.8l.6-6.794a3.3,3.3,0,0,1,3.3-3.023h4.693a3.3,3.3,0,0,1,3.3,3.023l.6,6.794h-1.8a1.257,1.257,0,0,0-1.257,1.257v8.521c0,.019,0,.038,0,.058a.572.572,0,0,1-.571.558Z" transform="translate(-240.673 0)"/>
        <path id="Trazado_1014158" data-name="Trazado 1014158" d="M153.6,465.637a1.257,1.257,0,0,0,1.257,1.257h13.133a1.257,1.257,0,1,0,0-2.515H154.858A1.257,1.257,0,0,0,153.6,465.637Z" transform="translate(-129.805 -386.524)"/>
        <path id="Trazado_1014159" data-name="Trazado 1014159" d="M180.117,441.142a1.257,1.257,0,0,0,0-2.515H173.1a1.257,1.257,0,1,0,0,2.515Z" transform="translate(-144.99 -365.089)"/>
        <path id="Trazado_1014160" data-name="Trazado 1014160" d="M168.845,308.316a1.257,1.257,0,0,0,1.257,1.257h8.022a1.257,1.257,0,0,0,0-2.515H170.1A1.257,1.257,0,0,0,168.845,308.316Z" transform="translate(-142.493 -255.579)"/>
        <path id="Trazado_1014161" data-name="Trazado 1014161" d="M185.53,283.821a1.257,1.257,0,1,0,0-2.515h-4.286a1.257,1.257,0,1,0,0,2.515Z" transform="translate(-151.767 -234.143)"/>
        <path id="Trazado_1014162" data-name="Trazado 1014162" d="M185.867,152.252H188.6a1.257,1.257,0,1,0,0-2.515h-2.736a1.257,1.257,0,1,0,0,2.515Z" transform="translate(-155.615 -124.633)"/>
        <path id="Trazado_1014163" data-name="Trazado 1014163" d="M189.667,126.5h1.461a1.257,1.257,0,1,0,0-2.515h-1.461a1.257,1.257,0,0,0,0,2.515Z" transform="translate(-158.778 -103.197)"/>
      </g>
    </g>
  </g>
</svg>
