<svg xmlns="http://www.w3.org/2000/svg" width="92" height="92" viewBox="0 0 92 92">
  <g id="Grupo_1181022" data-name="Grupo 1181022" transform="translate(-199.75 -536)">
    <rect id="Rectángulo_454494" data-name="Rectángulo 454494" width="92" height="92" rx="5" transform="translate(199.75 536)" fill="#c8bf57"/>
    <g id="Page-1" transform="translate(218.25 552.007)">
      <g id="_057---Seeding-Idea" data-name="057---Seeding-Idea" transform="translate(0 -1)">
        <path id="Path" d="M38.14,44.36v-.01a21.37,21.37,0,0,1,4.59-11.37,19,19,0,1,0-29.7-.31,22.746,22.746,0,0,1,4.86,11.66v.01" fill="#ffdf00" fill-rule="evenodd"/>
        <path id="Path-2" data-name="Path" d="M26.5,2.064A18.98,18.98,0,0,1,39.73,32.98a21.37,21.37,0,0,0-4.59,11.37v.007h3v-.01a21.37,21.37,0,0,1,4.59-11.37A18.982,18.982,0,0,0,26.5,2.064Z" fill="#fec108" fill-rule="evenodd"/>
        <path id="Path-3" data-name="Path" d="M20,56c.762,2.28,4.054,4,8,4s7.238-1.72,8-4" fill="#37474f" fill-rule="evenodd"/>
        <path id="Path-4" data-name="Path" d="M29.781,13.6c-2.233,2.233-1.733,6.354-1.733,6.354s4.121.5,6.354-1.733S37,11,37,11,32.014,11.365,29.781,13.6Z" fill="#60a917" fill-rule="evenodd"/>
        <path id="Path-5" data-name="Path" d="M33.944,11.536c-.164,1.342-.752,4.894-2.542,6.683a6.323,6.323,0,0,1-3.367,1.6c.007.077.013.129.013.129s4.121.5,6.354-1.733S37,11,37,11A19.316,19.316,0,0,0,33.944,11.536Z" fill="#549414" fill-rule="evenodd"/>
        <path id="Path-6" data-name="Path" d="M26.231,17.6c2.237,2.233,1.736,6.354,1.736,6.354s-4.128.5-6.365-1.733S19,15,19,15s4.994.365,7.231,2.6Z" fill="#60a917" fill-rule="evenodd"/>
        <path id="Path-7" data-name="Path" d="M26.231,17.6C23.994,15.365,19,15,19,15s.015.2.056.534A9.367,9.367,0,0,1,23.231,17.6c2.013,2.009,1.81,5.536,1.748,6.226a11.183,11.183,0,0,0,2.988.128s.5-4.123-1.736-6.354Z" fill="#549414" fill-rule="evenodd"/>
        <path id="Path-8" data-name="Path" d="M39,50a2,2,0,0,0-2-2,2,2,0,0,0,0-4H19a2,2,0,0,0,0,4,2,2,0,0,0,0,4,2,2,0,0,0,0,4H37a2,2,0,0,0,0-4A2,2,0,0,0,39,50Z" fill="#9e9e9e" fill-rule="evenodd"/>
        <path id="Path-9" data-name="Path" d="M39,50a2,2,0,0,0-2-2,2,2,0,0,0,0-4H34a2,2,0,0,1,0,4,2,2,0,0,1,0,4,2,2,0,0,1,0,4h3a2,2,0,0,0,0-4A2,2,0,0,0,39,50Z" fill="#707070" fill-rule="evenodd"/>
        <path id="Path-10" data-name="Path" d="M32.545,33.455a4.545,4.545,0,0,1-9.09,0A6.761,6.761,0,0,1,28,27.091,6.761,6.761,0,0,1,32.545,33.455Z" fill="sienna" fill-rule="evenodd"/>
        <path id="Path-11" data-name="Path" d="M28,27.091a6.845,6.845,0,0,0-1.5.755,6.462,6.462,0,0,1,3.045,5.609A4.531,4.531,0,0,1,26.5,37.726a4.526,4.526,0,0,0,6.045-4.271A6.761,6.761,0,0,0,28,27.091Z" fill="#783e22" fill-rule="evenodd"/>
        <path id="Path-12" data-name="Path" d="M13.062,20.633a.883.883,0,0,1-.089,0,1,1,0,0,1-.909-1.084A16.174,16.174,0,0,1,26.161,5.1a1,1,0,0,1,.221,1.988A14.142,14.142,0,0,0,14.057,19.721a1,1,0,0,1-.995.912Z" fill="#fff" fill-rule="evenodd"/>
        <g id="Grupo_1181232" data-name="Grupo 1181232">
          <path id="Shape" d="M41.337,6.094A19.989,19.989,0,0,0,12.243,33.286a21.882,21.882,0,0,1,4.589,10.652A2.963,2.963,0,0,0,16.78,48a2.954,2.954,0,0,0,0,4A2.987,2.987,0,0,0,19,57h.353c1.258,2.386,4.67,4,8.647,4s7.389-1.614,8.647-4H37a2.987,2.987,0,0,0,2.22-5,2.954,2.954,0,0,0,0-4,2.957,2.957,0,0,0-.021-4.025,20.226,20.226,0,0,1,4.306-10.362A19.735,19.735,0,0,0,48,21,20.033,20.033,0,0,0,41.337,6.094ZM38,46a1,1,0,0,1-1,1H19a1,1,0,0,1,0-2H37A1,1,0,0,1,38,46Zm0,4a1,1,0,0,1-1,1H19a1,1,0,0,1,0-2H37A1,1,0,0,1,38,50ZM21.841,57H34.159A9.346,9.346,0,0,1,28,59,9.346,9.346,0,0,1,21.841,57ZM37,55H19a1,1,0,0,1,0-2H37a1,1,0,0,1,0,2Zm4.955-22.651a22.1,22.1,0,0,0-4.644,10.682A2.95,2.95,0,0,0,37,43H19c-.1,0-.19.02-.285.029a24.029,24.029,0,0,0-4.9-10.976A17.992,17.992,0,1,1,46,21a17.749,17.749,0,0,1-4.045,11.349Z"/>
          <path id="Shape-2" data-name="Shape" d="M36.927,10c-.219.016-5.386.42-7.853,2.888a7.511,7.511,0,0,0-1.935,4.224c-.067-.075-.128-.153-.2-.225-2.472-2.468-7.646-2.871-7.866-2.887a1.006,1.006,0,0,0-.779.29.994.994,0,0,0-.29.78c.016.219.421,5.386,2.893,7.854,1.8,1.8,4.54,2.074,6.068,2.074H27v1.411a7.687,7.687,0,0,0-4.546,7.043,5.546,5.546,0,1,0,11.092,0A7.687,7.687,0,0,0,29,26.411V23.565c.016-.3.024-.727,0-1.223V21h.049c1.526,0,4.264-.279,6.06-2.075,2.468-2.467,2.872-7.634,2.888-7.853A1,1,0,0,0,36.927,10ZM22.309,21.511c-1.24-1.237-1.882-3.7-2.158-5.362,1.661.274,4.129.914,5.374,2.157A6.331,6.331,0,0,1,27,22.432V23A6.66,6.66,0,0,1,22.309,21.511Zm9.237,11.943a3.546,3.546,0,1,1-7.092,0A5.667,5.667,0,0,1,28,28.16,5.666,5.666,0,0,1,31.546,33.454ZM33.7,17.512C32.388,18.819,30.151,19,29,19c-.006-1.193.18-3.387,1.487-4.694,1.238-1.238,3.7-1.879,5.361-2.154C35.574,13.811,34.933,16.275,33.7,17.512Z"/>
          <path id="Path-13" data-name="Path" d="M0,21a1,1,0,0,0,1,1H4a1,1,0,0,0,0-2H1A1,1,0,0,0,0,21Z" fill-rule="evenodd"/>
          <path id="Path-14" data-name="Path" d="M55,21a1,1,0,0,0-1-1H51a1,1,0,0,0,0,2h3A1,1,0,0,0,55,21Z" fill-rule="evenodd"/>
          <path id="Path-15" data-name="Path" d="M6.648,31.884l-2.6,1.5a1,1,0,1,0,1,1.732l2.6-1.5a1,1,0,1,0-1-1.732Z" fill-rule="evenodd"/>
          <path id="Path-16" data-name="Path" d="M51.315,7.25a1,1,0,0,0-1.366-.366l-2.6,1.5a1,1,0,1,0,1,1.732l2.6-1.5a1,1,0,0,0,.366-1.366Z" fill-rule="evenodd"/>
          <path id="Path-17" data-name="Path" d="M46.985,32.25a1,1,0,0,0,.367,1.366l2.6,1.5a1,1,0,0,0,1-1.732l-2.6-1.5a1,1,0,0,0-1.367.366Z" fill-rule="evenodd"/>
          <path id="Path-18" data-name="Path" d="M7.648,8.384l-2.6-1.5a1,1,0,1,0-1,1.732l2.6,1.5a1,1,0,1,0,1-1.732Z" fill-rule="evenodd"/>
        </g>
      </g>
    </g>
  </g>
</svg>
