<svg xmlns="http://www.w3.org/2000/svg" xmlns:xlink="http://www.w3.org/1999/xlink" width="295" height="276" viewBox="0 0 295 276">
  <defs>
    <clipPath id="clip-path">
      <ellipse id="Elipse_13648" data-name="Elipse 13648" cx="118.205" cy="124.705" rx="118.205" ry="124.705"/>
    </clipPath>
  </defs>
  <g id="Grupo_1181021" data-name="Grupo 1181021" transform="translate(-1124.75 -389)">
    <path id="Rectángulo_454493" data-name="Rectángulo 454493" d="M20,0H275a20,20,0,0,1,20,20V230a0,0,0,0,1,0,0H0a0,0,0,0,1,0,0V20A20,20,0,0,1,20,0Z" transform="translate(1124.75 435)" fill="#eeeccc"/>
    <g id="_181908750_d546340d-732b-4b07-b7c2-912d8a28a99f" data-name="181908750_d546340d-732b-4b07-b7c2-912d8a28a99f" transform="translate(1150.283 389)">
      <g id="Objects" transform="translate(0 0)">
        <g id="Grupo_1178512" data-name="Grupo 1178512" transform="translate(0 0)">
          <g id="Grupo_1178497" data-name="Grupo 1178497" transform="translate(3.761)">
            <g id="Grupo_1178496" data-name="Grupo 1178496">
              <ellipse id="Elipse_13641" data-name="Elipse 13641" cx="118.205" cy="124.705" rx="118.205" ry="124.705" fill="#f9d8ad"/>
              <g id="Grupo_1178495" data-name="Grupo 1178495" clip-path="url(#clip-path)">
                <g id="Grupo_1178483" data-name="Grupo 1178483" transform="translate(-11.573 -12.877)">
                  <rect id="Rectángulo_455086" data-name="Rectángulo 455086" width="102.069" height="284.97" transform="translate(0 0.001)" fill="#e8c395"/>
                  <rect id="Rectángulo_455087" data-name="Rectángulo 455087" width="4.399" height="284.97" transform="translate(106.468 284.97) rotate(180)" fill="#ffe9d2"/>
                  <rect id="Rectángulo_455088" data-name="Rectángulo 455088" width="88.96" height="7.42" transform="translate(102.128 70.804) rotate(180)" fill="#f9d8ad"/>
                  <rect id="Rectángulo_455089" data-name="Rectángulo 455089" width="88.96" height="7.42" transform="translate(102.128 139.318) rotate(180)" fill="#f9d8ad"/>
                  <rect id="Rectángulo_455090" data-name="Rectángulo 455090" width="88.96" height="7.42" transform="translate(102.128 207.832) rotate(180)" fill="#f9d8ad"/>
                  <path id="Trazado_996353" data-name="Trazado 996353" d="M722.476,449.048h9.093l2.283-16.343H720.193Z" transform="translate(-636.673 -385.664)" fill="#f9d8ad"/>
                  <path id="Trazado_996354" data-name="Trazado 996354" d="M629,449.048h9.093l2.282-16.343H626.719Z" transform="translate(-558.653 -385.664)" fill="#f9d8ad"/>
                  <path id="Trazado_996355" data-name="Trazado 996355" d="M549.707,251h-6.265l-3.7,48.035H553.4Z" transform="translate(-486.058 -235.651)" fill="#f9d8ad"/>
                  <path id="Trazado_996356" data-name="Trazado 996356" d="M506.766,720.2v-5.058a1.02,1.02,0,0,0-.992-1.047h-.5a1.048,1.048,0,0,1,0-2.093h8.718a1.048,1.048,0,0,1,0,2.093h-.5a1.02,1.02,0,0,0-.992,1.047V720.2c.861,10.027,8.081,17.883,7.834,27.948h-21.4C498.685,738.08,505.906,730.224,506.766,720.2Z" transform="translate(-451.986 -616.247)" fill="#f9d8ad"/>
                  <path id="Trazado_996357" data-name="Trazado 996357" d="M365,748.145l5.29-27.6h0a1.36,1.36,0,0,1-1.323-1.4V713.4a1.36,1.36,0,0,1,1.323-1.4h8.266a1.36,1.36,0,0,1,1.323,1.4v5.756a1.36,1.36,0,0,1-1.323,1.4h0l5.29,27.6H365Z" transform="translate(-340.202 -616.247)" fill="#f9d8ad"/>
                  <path id="Trazado_996358" data-name="Trazado 996358" d="M691.317,733.281c.627-3.754,1.873-7.373,2.434-11.138A62.565,62.565,0,0,0,694.177,708h3.353a62.555,62.555,0,0,0,.426,14.143c.561,3.765,1.807,7.384,2.434,11.138s.685,8.3-1.183,11.562H692.5C690.631,741.581,690.689,737.034,691.317,733.281Z" transform="translate(-612.242 -612.944)" fill="#f9d8ad"/>
                  <path id="Trazado_996359" data-name="Trazado 996359" d="M259,781h15.54l-3.968,24.111h-7.6Z" transform="translate(-251.726 -673.212)" fill="#f9d8ad"/>
                  <path id="Trazado_996360" data-name="Trazado 996360" d="M550.466,1173.56H509.872l10.257,24.158h20.08Z" transform="translate(-461.123 -997.304)" fill="#f9d8ad"/>
                  <path id="Trazado_996361" data-name="Trazado 996361" d="M270.823,1173.56H230.229l10.257,24.158h20.08Z" transform="translate(-227.711 -997.304)" fill="#f9d8ad"/>
                </g>
                <g id="Grupo_1178493" data-name="Grupo 1178493" transform="translate(158.471 17.82)">
                  <g id="Grupo_1178492" data-name="Grupo 1178492">
                    <rect id="Rectángulo_455091" data-name="Rectángulo 455091" width="90.09" height="7.42" transform="translate(0 78.993)" fill="#e8c395"/>
                    <rect id="Rectángulo_455092" data-name="Rectángulo 455092" width="90.09" height="7.42" transform="translate(0 32.687)" fill="#e8c395"/>
                    <g id="Grupo_1178485" data-name="Grupo 1178485" transform="translate(5.69 44.828)">
                      <ellipse id="Elipse_13642" data-name="Elipse 13642" cx="15.956" cy="16.833" rx="15.956" ry="16.833" fill="#e8c395"/>
                      <g id="Grupo_1178484" data-name="Grupo 1178484" transform="translate(9.337 9.85)">
                        <ellipse id="Elipse_13643" data-name="Elipse 13643" cx="6.619" cy="6.983" rx="6.619" ry="6.983" fill="#ffe9d2"/>
                      </g>
                    </g>
                    <g id="Grupo_1178487" data-name="Grupo 1178487" transform="translate(30.131 44.828)">
                      <g id="Grupo_1178486" data-name="Grupo 1178486">
                        <ellipse id="Elipse_13644" data-name="Elipse 13644" cx="15.956" cy="16.833" rx="15.956" ry="16.833" fill="#ffe9d2"/>
                      </g>
                      <ellipse id="Elipse_13645" data-name="Elipse 13645" cx="6.619" cy="6.983" rx="6.619" ry="6.983" transform="translate(9.337 9.85)" fill="#e8c395"/>
                    </g>
                    <g id="Grupo_1178489" data-name="Grupo 1178489" transform="translate(54.574 44.828)">
                      <ellipse id="Elipse_13646" data-name="Elipse 13646" cx="15.956" cy="16.833" rx="15.956" ry="16.833" fill="#e8c395"/>
                      <g id="Grupo_1178488" data-name="Grupo 1178488" transform="translate(9.337 9.85)">
                        <ellipse id="Elipse_13647" data-name="Elipse 13647" cx="6.619" cy="6.983" rx="6.619" ry="6.983" fill="#ffe9d2"/>
                      </g>
                    </g>
                    <path id="Trazado_996362" data-name="Trazado 996362" d="M1267.736,353.364c.466-2.394,1.284-4.7,1.837-7.07s.318-4.271.466-7.294h5.069c.148,3.023-.087,4.92.466,7.294s1.371,4.676,1.837,7.07c1.166,6,.207,12.332-.98,18.322h-7.715C1267.528,365.7,1266.569,359.36,1267.736,353.364Z" transform="translate(-1263.298 -339)" fill="#e8c395"/>
                    <g id="Grupo_1178491" data-name="Grupo 1178491" transform="translate(21.234 11.279)">
                      <path id="Trazado_996363" data-name="Trazado 996363" d="M1407.952,465.8h-6.147c-6.7,0-12.136-5.732-12.136-12.8h30.419C1420.088,460.071,1414.654,465.8,1407.952,465.8Z" transform="translate(-1386.748 -444.396)" fill="#e8c395"/>
                      <g id="Grupo_1178490" data-name="Grupo 1178490" transform="translate(0 6.279)">
                        <path id="Trazado_996364" data-name="Trazado 996364" d="M1407.162,439.667h-34.056a1.134,1.134,0,0,0-1.1,1.163h0a1.134,1.134,0,0,0,1.1,1.163h34.056a1.134,1.134,0,0,0,1.1-1.163h0A1.135,1.135,0,0,0,1407.162,439.667Z" transform="translate(-1372.003 -439.667)" fill="#ffe9d2"/>
                      </g>
                      <path id="Trazado_996365" data-name="Trazado 996365" d="M1413.694,403.667h-18.075a6.122,6.122,0,0,0-5.952,6.279h29.978A6.122,6.122,0,0,0,1413.694,403.667Z" transform="translate(-1386.747 -403.667)" fill="#e8c395"/>
                    </g>
                  </g>
                </g>
                <g id="Grupo_1178494" data-name="Grupo 1178494" transform="translate(145.852 120.984)">
                  <path id="Trazado_996366" data-name="Trazado 996366" d="M1529.131,982.477c1.231-5.109,4.084-9.451,6.492-13.972s4.664-10.033,4.023-15.282V935.735a2.024,2.024,0,0,0-.583-1.446l-.468-.456a2.023,2.023,0,0,1-.583-1.446,1.785,1.785,0,0,1,1.649-1.9h6.208a1.785,1.785,0,0,1,1.649,1.9,2.024,2.024,0,0,1-.583,1.446l-.468.456a2.023,2.023,0,0,0-.583,1.446v17.489c-.641,5.25,1.615,10.762,4.023,15.282s5.261,8.863,6.492,13.972c1.084,4.5.824,9.278.275,13.9-.459,3.868-5.407,76.368-7.816,85.936h-12.185c-2.41-9.568-7.358-82.069-7.817-85.936C1528.306,991.756,1528.047,986.977,1529.131,982.477Z" transform="translate(-1468.674 -930.49)" fill="#e8c395"/>
                  <path id="Trazado_996367" data-name="Trazado 996367" d="M1348.557,982.477c1.231-5.109,4.084-9.451,6.492-13.972s4.664-10.033,4.023-15.282V935.735a2.024,2.024,0,0,0-.583-1.446l-.468-.456a2.023,2.023,0,0,1-.583-1.446,1.785,1.785,0,0,1,1.649-1.9h6.208a1.785,1.785,0,0,1,1.649,1.9,2.023,2.023,0,0,1-.583,1.446l-.468.456a2.023,2.023,0,0,0-.583,1.446v17.489c-.641,5.25,1.615,10.762,4.023,15.282s5.261,8.863,6.492,13.972c1.084,4.5.824,9.278.275,13.9-.459,3.868-5.407,76.368-7.816,85.936H1356.1c-2.409-9.568-7.358-82.069-7.816-85.936C1347.734,991.756,1347.474,986.977,1348.557,982.477Z" transform="translate(-1317.955 -930.49)" fill="#e8c395"/>
                  <path id="Trazado_996368" data-name="Trazado 996368" d="M1167.981,982.477c1.231-5.109,4.084-9.451,6.492-13.972s4.664-10.033,4.023-15.282V935.735a2.024,2.024,0,0,0-.583-1.446l-.468-.456a2.023,2.023,0,0,1-.583-1.446,1.785,1.785,0,0,1,1.649-1.9h6.208a1.785,1.785,0,0,1,1.649,1.9,2.023,2.023,0,0,1-.583,1.446l-.468.456a2.023,2.023,0,0,0-.583,1.446v17.489c-.641,5.25,1.615,10.762,4.023,15.282s5.261,8.863,6.492,13.972c1.084,4.5.824,9.278.275,13.9-.459,3.868-5.407,76.368-7.816,85.936h-12.185c-2.41-9.568-7.358-82.069-7.816-85.936C1167.156,991.756,1166.9,986.977,1167.981,982.477Z" transform="translate(-1167.231 -930.49)" fill="#e8c395"/>
                </g>
              </g>
            </g>
          </g>
          <g id="Grupo_1178511" data-name="Grupo 1178511" transform="translate(0 54.171)">
            <g id="Grupo_1178498" data-name="Grupo 1178498" transform="translate(0 147.524)">
              <path id="Trazado_996369" data-name="Trazado 996369" d="M381.182,1664.16H351.065l3.844,22.429h22.43Z" transform="translate(-336.382 -1616.885)" fill="#99583f"/>
              <path id="Trazado_996370" data-name="Trazado 996370" d="M294.63,1430.18q-3.134-.191-6.275-.227c-1.591-3.616-2.538-7.8-4.975-10.908-2.214-2.825-7.447-4.905-10.028-7.4s-4.2-5.808-5.767-9.045c-2.548-5.271-5.148-10.739-5.335-16.59a45.959,45.959,0,0,1,13.226,9.4,29.281,29.281,0,0,1,7.641,14.172c.561,2.809.629,5.705,1.291,8.492a40.831,40.831,0,0,0,4.473,10.145c-3.475-16.457-5.305-33.669-1.346-50.017a27.881,27.881,0,0,1,3.535,6.494c3.988,9.331,7.361,19.651,4.857,29.485-1.086,4.266-3.266,8.384-3.015,12.779,1.087-4.2,2.65-8.829,5.245-12.307a27.065,27.065,0,0,1,4.414-4.452c5.737-4.8,12.2-8.645,18.64-12.462-.814,6.261-4.524,11.842-9.1,16.187s-10.033,7.637-15.333,11.067a6.311,6.311,0,0,0-2.386,2.232C293.888,1428.211,293.65,1429.676,294.63,1430.18Z" transform="translate(-262.249 -1378.205)" fill="#8bc3c0"/>
              <rect id="Rectángulo_455093" data-name="Rectángulo 455093" width="30.117" height="5.454" transform="translate(14.683 47.275)" fill="#99583f"/>
              <path id="Trazado_996371" data-name="Trazado 996371" d="M356.719,1697.15l28.02,1.329.228-1.329Z" transform="translate(-341.101 -1644.422)" fill="#5f130d"/>
            </g>
            <g id="Grupo_1178500" data-name="Grupo 1178500" transform="translate(155.219 80.616)">
              <path id="Trazado_996372" data-name="Trazado 996372" d="M1332.459,1225.457a518.879,518.879,0,0,0-12.55-63.186,10.609,10.609,0,0,0-1.512-3.713c-1.465-1.967-4.042-2.677-6.424-3.263.142.571.252,1.047.395,1.618a5,5,0,0,1,4.359,1.562,10.349,10.349,0,0,1,2.42,4.188,43.316,43.316,0,0,1,1.355,5.511l3.837,19.2c2.541,12.71,5.086,25.455,6.132,38.375C1331.013,1225.674,1331.915,1225.526,1332.459,1225.457Z" transform="translate(-1293.649 -1125.239)" fill="#357092"/>
              <path id="Trazado_996373" data-name="Trazado 996373" d="M1448,1151.729a1.713,1.713,0,0,0,1.379-.253q-1.228-43.4-1.056-86.829c-.233-.274-.528-.674-.843-.5C1447.264,1093.489,1447.224,1122.394,1448,1151.729Z" transform="translate(-1406.642 -1049.123)" fill="#357092"/>
              <path id="Trazado_996374" data-name="Trazado 996374" d="M1473.014,1284.337l7.351-55.294a8.853,8.853,0,0,1,1.285-4.167c.871-1.184,2.618-1.864,3.856-1.072a2.239,2.239,0,0,1,1.164.235l.289-1.663c-2.035-1.3-4.9-.171-6.322,1.781s-1.766,4.459-2.068,6.854l-6.8,53.782C1472.3,1284.976,1472.579,1284.682,1473.014,1284.337Z" transform="translate(-1427.029 -1180.764)" fill="#357092"/>
              <path id="Trazado_996375" data-name="Trazado 996375" d="M1361.062,1140.011a6.931,6.931,0,0,0-3.107,4.376,18.372,18.372,0,0,0-.352,5.483c.069,1.553.219,3.231,1.25,4.394.577-2.351,2.412-4.159,4.226-5.762a10.5,10.5,0,0,1,3.169-2.143,3.836,3.836,0,0,1,3.663.369c-.613,1.026-2.109.844-3.277,1.1-1.828.394-3.07,2.044-4.141,3.576s-2.177,3.166-2.274,5.029a7.383,7.383,0,0,0,.408,2.6,13.9,13.9,0,0,0,2.826,4.986c.42-3.832,2.657-6.682,5.837-8.861l-3.321,8.566a8.491,8.491,0,0,0-.831,3.821c.214,2.176,2.018,3.8,3.7,5.206a24.676,24.676,0,0,1,2.776-9.7,6.448,6.448,0,0,1-.284,8.223c-.6.641-1.416,1.4-1.128,2.229a2.057,2.057,0,0,0,.933.945l1.981,1.271a1.719,1.719,0,0,0,2.137.1q2.986-1.392,5.958-2.814a1.828,1.828,0,0,0,.721-.5,1.37,1.37,0,0,0-.166-1.577c-.34-.454-.824-.776-1.207-1.194a3.61,3.61,0,0,1,.69-5.245.644.644,0,0,1,.549-.13.688.688,0,0,1,.29.271,20.938,20.938,0,0,1,2.4,4.389,7.647,7.647,0,0,0,2.626-1.729,1.891,1.891,0,0,0,.6-.972,1.931,1.931,0,0,0-.154-.954c-1.414-3.913-5.257-6.517-6.866-10.354a10.173,10.173,0,0,1,5.38,2.317c2,1.937,2.415,4.95,2.712,7.722a15.823,15.823,0,0,0,3.577-6.858,2.444,2.444,0,0,0,.042-1.34,2.65,2.65,0,0,0-.974-1.128l-10.625-8.364c.191-.456.6-.948,1.068-.791l5.6,1.882a8.454,8.454,0,0,1,2.1.925c1.443.981,2.122,2.717,3,4.226a.632.632,0,0,0,.259.285c.328.146.605-.281.714-.623a10.606,10.606,0,0,0,.733-4.689,10.18,10.18,0,0,0-1.26-3.225q-2.206-4.126-4.695-8.091a5.865,5.865,0,0,0-1.462-1.756,4.546,4.546,0,0,0-1.948-.7c-3.268-.509-7.041,1.184-7.968,4.359a15.889,15.889,0,0,0-1.584-3.551,2.545,2.545,0,0,0-1.305-1.248,2.793,2.793,0,0,0-.938-.064l-2.922.132c-2,.09-4.223.276-5.592,1.741C1363.705,1137.111,1362.206,1139.376,1361.062,1140.011Z" transform="translate(-1331.695 -1107.693)" fill="#8bc3c0"/>
              <path id="Trazado_996376" data-name="Trazado 996376" d="M1409.777,985.175a10.322,10.322,0,0,0,11.934,10.312,20.235,20.235,0,0,1-3.763-3.991c1.859.325,3.114,2.034,4.737,3a1.831,1.831,0,0,0,1,.322,2.32,2.32,0,0,0,1.141-.536,13.712,13.712,0,0,1,7.326-2.436,25.763,25.763,0,0,1-7.2-5.539,3.159,3.159,0,0,1,2.7.463c.8.5,1.469,1.188,2.231,1.747a8.44,8.44,0,0,0,5.416,1.613,5.916,5.916,0,0,0,4.048-2.717,16.341,16.341,0,0,0,1.823-4.339,8.865,8.865,0,0,1-7.375-.706c1.563-.809,3.421.464,5.175.323a4.386,4.386,0,0,0,3.438-2.817,12.922,12.922,0,0,0,.735-4.588q.034-.895.068-1.79a70.6,70.6,0,0,0-8.127.62,3,3,0,0,0-1.151.319,3.085,3.085,0,0,0-1.073,1.475l-1.657,3.637a2.3,2.3,0,0,1-1.269,1.031l-.263-1.952a2.977,2.977,0,0,1,.282-2.219c.333-.437.951-.807.833-1.345a17.88,17.88,0,0,0-5.387,1.415,2.739,2.739,0,0,0-2.2,2.245l-.766,2.541a1.885,1.885,0,0,1-.739,1.2,6.137,6.137,0,0,1-.593-4.719,32.6,32.6,0,0,0-7.034,2.6,9.24,9.24,0,0,0-2.29,1.51C1410.822,982.77,1409.792,983.849,1409.777,985.175Z" transform="translate(-1375.283 -973.492)" fill="#8bc3c0"/>
              <path id="Trazado_996377" data-name="Trazado 996377" d="M1520.241,1229.705c1.455-1.7,3.028-3.471,5.167-4.115a10.93,10.93,0,0,1,5.166.078,70,70,0,0,1,8.225,2.084,2.464,2.464,0,0,0-2.006,2.2,1.629,1.629,0,0,0,2.194,1.511c.7-.386.923-1.318,1.559-1.809.8-.618,1.942-.35,2.908-.055,2.45.751,5.223,1.8,6.073,4.215a26.839,26.839,0,0,0-5.819.135c-.781.1-1.742.43-1.807,1.215-.068.829.968,1.309,1.8,1.26,1.941-.114,3.636-1.677,5.576-1.54a1.414,1.414,0,0,1,.908.338,1.777,1.777,0,0,1,.395,1.047q.56,3.889.741,7.821c.012.251-.066.524-.317.54a22.877,22.877,0,0,1-3.392-.4,3.117,3.117,0,0,0-3.026,1.164.907.907,0,0,0-.15.587,1.07,1.07,0,0,0,.583.673,5.346,5.346,0,0,0,4.789.3,11.952,11.952,0,0,1,1.9-.843.642.642,0,0,1,.552.056.731.731,0,0,1,.2.513,29.627,29.627,0,0,0,1.781,7.369c.154.4.287.931-.048,1.2-5.235,4.239-13.4,4.023-19.1.434a83.778,83.778,0,0,1,4.014-11.981c-1.9.211-3.374,1.682-4.686,3.067a8.3,8.3,0,0,0-1.535,1.99c-.819,1.679-.423,3.668-.011,5.49-1.258-1.235-3.163-1.764-4.151-3.225a6.515,6.515,0,0,1-.7-4.2,35.4,35.4,0,0,1,1.75-8.512c-1.037-.317-1.886.858-2.26,1.875a18.053,18.053,0,0,0-1.01,8.007,23.626,23.626,0,0,1-6.973-6.842,7.4,7.4,0,0,1-.991-7.166C1518.885,1232.843,1519.338,1230.757,1520.241,1229.705Z" transform="translate(-1465.676 -1183.677)" fill="#8bc3c0"/>
              <path id="Trazado_996378" data-name="Trazado 996378" d="M1302.032,1311.437a2.726,2.726,0,0,1,1.687-.645,2.6,2.6,0,0,1,1.328.625,11.693,11.693,0,0,1,2.269,16.27c-2.159,2.9-5.5,4.619-8.357,6.83a28.349,28.349,0,0,0-6.393,6.936,1.443,1.443,0,0,1-.677.662,1.294,1.294,0,0,1-1.2-.469,13.768,13.768,0,0,1-2.8-4.588l-2.951-6.682a11.844,11.844,0,0,1-1.4-5.222,11.112,11.112,0,0,1,1.062-3.744c1.911-4.506,4.254-8.965,7.893-12.239a2.352,2.352,0,0,1,1.135-.667c1.02-.164,1.773.907,2.2,1.847.474,1.04,1.095,4.45,2.312,4.366C1299.157,1314.646,1301.127,1312.065,1302.032,1311.437Z" transform="translate(-1269.912 -1253.105)" fill="#8bc3c0"/>
              <path id="Trazado_996379" data-name="Trazado 996379" d="M1217.946,1122.728c1.672,2.965,4.934,4.859,6.295,7.979a15.356,15.356,0,0,1,.935,5.374c.073,1.374.048,2.976-1.035,3.824-.961-1.32-.9-3.091-.933-4.723s-.327-3.476-1.671-4.4a8.422,8.422,0,0,0,.425,5.145,18.035,18.035,0,0,1,1.3,5.066,4.444,4.444,0,0,1-2.368,4.327,51.534,51.534,0,0,0-1.545-7.461,3.468,3.468,0,0,0-.683-1.452,1.241,1.241,0,0,0-1.463-.333,13.133,13.133,0,0,0,.8,3.383c.76,2,2.008,3.809,2.485,5.89s-.128,4.671-2.091,5.51l-1.005-4.775c-.919,1.588-.465,3.567-.339,5.4s-.432,4.085-2.2,4.561a21.456,21.456,0,0,0-.933-8.212,9.33,9.33,0,0,0-.732,7.477,7.155,7.155,0,0,1,.678,2.527c-.048,1.727-1.68,2.923-3.143,3.841-.728-.963-1.69-1.729-2.436-2.678a3.871,3.871,0,0,1-.938-3.356c.181-.613.587-1.136.8-1.74a6.386,6.386,0,0,0,.139-2.473,28.741,28.741,0,0,1,.527-7.456,20.265,20.265,0,0,0-1.837,3.4,4.775,4.775,0,0,0-.49,2.8c.1.483.34.93.45,1.412a5.687,5.687,0,0,1-.886,3.686,21.865,21.865,0,0,1-2.991-7.617,5.9,5.9,0,0,1,1.167-4.086l5.563-7.892a5.239,5.239,0,0,0-5.168,4.043c-.109.53-.134,1.078-.279,1.6a7.136,7.136,0,0,1-2.13,2.974c-.754-2.45-1.511-5.086-.737-7.53a8.573,8.573,0,0,1,4.379-4.765,25.447,25.447,0,0,1,6.316-1.989c-1.566-1.324-3.993-.862-5.757.185s-3.224,2.587-5.091,3.435a37.284,37.284,0,0,1,2.963-7.225,1.658,1.658,0,0,1,.733-.823,1.686,1.686,0,0,1,.893-.024l6.834,1.05a3.057,3.057,0,0,0-2.662-2.374,6.846,6.846,0,0,0-3.7.737,5.507,5.507,0,0,1,3.038-3.008,16.331,16.331,0,0,1,4.254-1.049c.546-.084,1.364.1,1.235.639a7.5,7.5,0,0,1,1.13,4.249c-.084.733-.29,1.452-.308,2.19a2.408,2.408,0,0,0,.775,1.987,19.03,19.03,0,0,0,.415-3.792,11.226,11.226,0,0,1,0-1.825A2.527,2.527,0,0,1,1217.946,1122.728Z" transform="translate(-1201.137 -1096.524)" fill="#8bc3c0"/>
              <g id="Grupo_1178499" data-name="Grupo 1178499" transform="translate(14.418 95.806)">
                <rect id="Rectángulo_455094" data-name="Rectángulo 455094" width="48.221" height="9.928" transform="translate(48.221 9.928) rotate(180)" fill="#99583f"/>
                <path id="Trazado_996380" data-name="Trazado 996380" d="M1305.16,1613.05h42.661l-5.532,30.18h-31.6Z" transform="translate(-1302.381 -1603.123)" fill="#99583f"/>
                <path id="Trazado_996381" data-name="Trazado 996381" d="M1347.821,1613.05l-42.218,2.41-.443-2.41Z" transform="translate(-1302.381 -1603.123)" fill="#5f130d"/>
              </g>
            </g>
            <g id="Grupo_1178508" data-name="Grupo 1178508" transform="translate(0 0)">
              <path id="Trazado_996382" data-name="Trazado 996382" d="M770.873,937.616a19.534,19.534,0,0,1-9.416-8.352,23.373,23.373,0,0,1-2.987-12.3c.088-3.089,1-6.54,3.7-8.043a6.184,6.184,0,0,1,5.448-.131,8.127,8.127,0,0,1,3.891,3.936,2.779,2.779,0,0,1-1.572,3.454,2.715,2.715,0,0,1-2.087-.482,1.72,1.72,0,0,1-.748-.726,3.909,3.909,0,0,1-.031-1.446c-.036-1.328-1.455-2.214-2.774-2.38a2.448,2.448,0,0,0-1.958.438,3.021,3.021,0,0,0-.728,2.056c-.387,4.51-.282,9.2,1.515,13.352s5.583,7.681,10.09,8.094Z" transform="translate(-676.425 -847.279)" fill="#357092"/>
              <rect id="Rectángulo_455095" data-name="Rectángulo 455095" width="15.871" height="57.746" transform="translate(152.44 153.503)" fill="#5f130d"/>
              <path id="Trazado_996383" data-name="Trazado 996383" d="M1168.618,1701.552a46.461,46.461,0,0,1-.113,9.191,24.734,24.734,0,0,0,9.859-1.047c.126-2.88.151-5.742.052-8.6A22.863,22.863,0,0,1,1168.618,1701.552Z" transform="translate(-1018.681 -1500.191)" fill="#fff"/>
              <path id="Trazado_996384" data-name="Trazado 996384" d="M1184.33,1769.947h28.986a6.283,6.283,0,0,0-6.283-6.283h-22.7Z" transform="translate(-1031.89 -1552.415)" fill="#99583f"/>
              <path id="Trazado_996385" data-name="Trazado 996385" d="M1173.6,1658.721c-.1-2.8-.316-5.592-.679-8.392l-10.184,2.189a46.361,46.361,0,0,1,1.066,6.659A22.834,22.834,0,0,0,1173.6,1658.721Z" transform="translate(-1013.871 -1457.817)" fill="#ff966c"/>
              <path id="Trazado_996386" data-name="Trazado 996386" d="M1105.5,1375.387h41.245a2.538,2.538,0,0,0,2.538-2.538v-5.183H1105.5Z" transform="translate(-966.092 -1226.301)" fill="#99583f"/>
              <path id="Trazado_996387" data-name="Trazado 996387" d="M1184.475,1317.589h-36.812v-9.919h28.6a8.211,8.211,0,0,1,8.211,8.211Z" transform="translate(-1001.285 -1176.777)" fill="#f83b4f"/>
              <path id="Trazado_996388" data-name="Trazado 996388" d="M1051.61,1183.194c2.511,18.9,8.941,36.921,13.786,55.364a144.769,144.769,0,0,0,14.872-.58,2.654,2.654,0,0,0,1.453-.418c-2.147-18.242-4.9-36.292-8.405-54.322a155.018,155.018,0,0,0,17.15-3.646c2.5-.683,5.276-1.663,6.368-4.018a8.611,8.611,0,0,0,.615-3.072,62.382,62.382,0,0,0-1.972-20.23,180.03,180.03,0,0,0-31.637.311Z" transform="translate(-921.111 -1041.645)" fill="#357092"/>
              <path id="Trazado_996389" data-name="Trazado 996389" d="M1212.137,980.85a242.687,242.687,0,0,0-.969,27.425,19.522,19.522,0,0,1-5.166-.353,118.156,118.156,0,0,0-17.427-1.321c2.861-10.172,3.885-20.838,7.409-30.8Z" transform="translate(-1035.432 -902.789)" fill="#c67a58"/>
              <path id="Trazado_996390" data-name="Trazado 996390" d="M837.3,806.853c-1.875-2.331-4.657-3.7-7.2-5.272a42.466,42.466,0,0,1-5.106-3.715.9.9,0,0,1-.263-.3,1.056,1.056,0,0,1,.005-.6,3.374,3.374,0,0,0-.43-2.3,7.756,7.756,0,0,1-.539-.879,4.723,4.723,0,0,1-.253-1.182,7.5,7.5,0,0,0-.679-2.162,17.333,17.333,0,0,0-6.042-.275.985.985,0,0,0-.654.277.865.865,0,0,0-.149.507c-.055,1.157.559,2.315.283,3.441-.171.7-.67,1.292-.77,2-.157,1.108.673,2.087,1.446,2.9a84.357,84.357,0,0,0,8.906,8.449Z" transform="translate(-724.02 -750.188)" fill="#ff966c"/>
              <path id="Trazado_996391" data-name="Trazado 996391" d="M1033.106,805.273l-8.572,6.964a.365.365,0,0,1-.628-.057,105.709,105.709,0,0,1-10.418-15.074c5.862-4.891,11.764-9.823,16.578-15.749a11.957,11.957,0,0,1,2.461-2.532,10.859,10.859,0,0,1,2.65-1.16c1.39-.466,2.857-.812,4.247-1.278a20.449,20.449,0,0,0,1.96,4.5,6.064,6.064,0,0,0,2.7,2.728,6.479,6.479,0,0,0,4.459-.3,35.392,35.392,0,0,0,10.928-6.005c1.894,1.032,3.967,1.419,5.846,2.479-2.583,11.658-4.676,24.1-6.066,35.963Z" transform="translate(-889.293 -738.669)" fill="#ffba55"/>
              <path id="Trazado_996392" data-name="Trazado 996392" d="M1165.443,698.594a22.336,22.336,0,0,1-.672,5.6,57.981,57.981,0,0,1-6.687.833,13.688,13.688,0,0,0,2.072,6.779,7.1,7.1,0,0,0,2.458,2.526,6.441,6.441,0,0,0,4.853.34,19.125,19.125,0,0,0,4.476-2.178l10.1-6.055a34.137,34.137,0,0,0-6.793-1.7,95.486,95.486,0,0,1,.452-14.447,15.608,15.608,0,0,0-4.279,2.8Z" transform="translate(-1009.983 -669.497)" fill="#ff966c"/>
              <path id="Trazado_996393" data-name="Trazado 996393" d="M1209.669,695.264a15.6,15.6,0,0,0-2.675,1.975l-5.977,5.5a22.357,22.357,0,0,1-.313,3.874C1205.84,705.664,1209.26,700.686,1209.669,695.264Z" transform="translate(-1045.557 -673.645)" fill="#c67a58"/>
              <path id="Trazado_996394" data-name="Trazado 996394" d="M1164.086,589.7a23.862,23.862,0,0,1-2.935-15.565,9.843,9.843,0,0,1,1.271-4.1,9.367,9.367,0,0,1,3.038-2.74,17.566,17.566,0,0,1,8.166-2.779,11.83,11.83,0,0,1,8.151,2.465,5.091,5.091,0,0,1,1.835,6.019,31,31,0,0,1-1.351,3.322,25.994,25.994,0,0,0-1.847,6.775,5.469,5.469,0,0,1-1.646,3.232.534.534,0,0,1-.231.142.888.888,0,0,1-.353-.049,3.542,3.542,0,0,0-.941.1,7.468,7.468,0,0,1-1.391-.229c-.468-.054-1.047.147-1.122.612Z" transform="translate(-1012.345 -564.496)" fill="#5f130d"/>
              <path id="Trazado_996395" data-name="Trazado 996395" d="M1177.37,631.39c-2.242,3.526-5.2,7.338-9.337,7.885a4.773,4.773,0,0,1-3.265-.832,6.443,6.443,0,0,1-2.16-2.63,12.464,12.464,0,0,1-.647-1.819,31.083,31.083,0,0,1-.028-16.946c1.75,1.743,4.874,1.72,7.31,1.312s4.831-1.267,7.3-1.151a4.251,4.251,0,0,0-.942,1.4c-.605,1.123.013,2.554.322,3.792a7.963,7.963,0,0,0,1.7,3.386c0,1.2-.069,2.173-.067,3.375l1.536-2.88a3.587,3.587,0,0,1,.749-1.067,1.219,1.219,0,0,1,1.214-.279,1.587,1.587,0,0,1,.762,1.456,8.491,8.491,0,0,1-1.713,5.154,1.911,1.911,0,0,1-.547.59,1.349,1.349,0,0,1-1.159.054A4.269,4.269,0,0,1,1177.37,631.39Z" transform="translate(-1012.224 -608.361)" fill="#ff966c"/>
              <path id="Trazado_996396" data-name="Trazado 996396" d="M1272.865,673.321a1.974,1.974,0,0,1,.808-.985.219.219,0,0,1,.151-.03.228.228,0,0,1,.122.118,1.659,1.659,0,0,1,.113,1.4,4.9,4.9,0,0,0-.418-.876,11.519,11.519,0,0,1-.769,1.365c.058.06.156.037.239.04a.443.443,0,0,1,.375.324,1.031,1.031,0,0,1-.006.523,3.305,3.305,0,0,1-.329.89.875.875,0,0,1-.363.4.365.365,0,0,1-.478-.13.546.546,0,0,1-.022-.291A6.781,6.781,0,0,1,1272.865,673.321Z" transform="translate(-1105.299 -654.479)" fill="#fc571e"/>
              <path id="Trazado_996397" data-name="Trazado 996397" d="M1215.271,660.882c0,.487-.21.882-.468.882s-.468-.395-.468-.882.21-.882.468-.882S1215.271,660.395,1215.271,660.882Z" transform="translate(-1056.933 -644.211)" fill="#5f130d"/>
              <path id="Trazado_996398" data-name="Trazado 996398" d="M1178.271,660.882c0,.487-.21.882-.468.882s-.468-.395-.468-.882.21-.882.468-.882S1178.271,660.395,1178.271,660.882Z" transform="translate(-1026.05 -644.211)" fill="#5f130d"/>
              <path id="Trazado_996399" data-name="Trazado 996399" d="M1214.492,641.741a4.946,4.946,0,0,0-1.928-.226.34.34,0,0,1,.068-.351.575.575,0,0,1,.3-.072,5.15,5.15,0,0,1,.624.033,1.508,1.508,0,0,1,.533.116A.767.767,0,0,1,1214.492,641.741Z" transform="translate(-1055.438 -628.428)" fill="#5f130d"/>
              <path id="Trazado_996400" data-name="Trazado 996400" d="M1172.11,641.86a3.307,3.307,0,0,1,1.849-.3.286.286,0,0,0-.134-.4.842.842,0,0,0-.486-.031q-.418.06-.83.157a.84.84,0,0,0-.31.121C1172.109,641.478,1172.089,641.75,1172.11,641.86Z" transform="translate(-1021.683 -628.447)" fill="#5f130d"/>
              <path id="Trazado_996401" data-name="Trazado 996401" d="M1183.526,672.862a1.183,1.183,0,0,1-1.386-.335,1.458,1.458,0,0,1-.051-1.085,10.734,10.734,0,0,1,1.278-3.14A16.625,16.625,0,0,0,1183.526,672.862Z" transform="translate(-1029.953 -651.14)" fill="#fc571e"/>
              <path id="Trazado_996402" data-name="Trazado 996402" d="M1188.029,703.157a24.769,24.769,0,0,1-5.869.769,4.93,4.93,0,0,0,1.1,1.7,2.066,2.066,0,0,0,1.285.7,2,2,0,0,0,.809-.145A4.926,4.926,0,0,0,1188.029,703.157Z" transform="translate(-1030.078 -680.233)" fill="#b62c43"/>
              <path id="Trazado_996403" data-name="Trazado 996403" d="M1116.832,845.9l-2.17-7.233a51.252,51.252,0,0,0,.95,13.466Z" transform="translate(-973.658 -790.323)" fill="#c67a58"/>
              <path id="Trazado_996404" data-name="Trazado 996404" d="M963.017,820.432a120.564,120.564,0,0,1,7.576-43.221,6.334,6.334,0,0,1,3.03-.434,109.654,109.654,0,0,0-2.737,16.955c5.024.457,10.211,1.114,15.221,1.708,2.558-6.024,5.109-12.1,7.549-18.178a15.649,15.649,0,0,1,3.795,1.039,192.213,192.213,0,0,0-7.416,30.126,12.712,12.712,0,0,0,3.323,2.222,130.389,130.389,0,0,1-15.957,43.09,3.5,3.5,0,0,1-.894,1.123,3.369,3.369,0,0,1-1.766.476,58.773,58.773,0,0,1-9.118-.286q-15.157-1.315-30.2-3.639c8.486-9.993,19.341-17.8,27.6-27.981Z" transform="translate(-824.129 -738.15)" fill="#f83b4f"/>
              <rect id="Rectángulo_455096" data-name="Rectángulo 455096" width="102.338" height="4.188" transform="translate(58.097 115.899)" fill="#ff966c"/>
              <path id="Trazado_996405" data-name="Trazado 996405" d="M613.667,1249H716.005c-8.643,0-21.4,8.407-26.361,15.651H640.028c-4.957-7.244-17.718-15.651-26.361-15.651Z" transform="translate(-555.57 -1128.221)" fill="#c67a58"/>
              <path id="Trazado_996406" data-name="Trazado 996406" d="M851.421,909.885a16.412,16.412,0,0,1-3.292,2.827,15.988,15.988,0,0,1-4.531,1.82,32.554,32.554,0,0,1-16.734,0,16.007,16.007,0,0,1-4.532-1.82,16.447,16.447,0,0,1-3.29-2.827c-3.581-4.1-4.322-9.943-4.224-15.385a58.7,58.7,0,0,1,3.077-16.833q.233-.727.481-1.448.317-.935.656-1.858.258-.712.529-1.418.332-.878.681-1.746l-.552-3.526h31.081l-.551,3.526q.347.868.681,1.746.27.707.529,1.419.337.925.656,1.858c.164.481.326.966.479,1.45a58.685,58.685,0,0,1,3.078,16.831C855.743,899.943,855,905.785,851.421,909.885Z" transform="translate(-723.46 -813.498)" fill="#8bc3c0"/>
              <path id="Trazado_996407" data-name="Trazado 996407" d="M889.661,1154.755a13.786,13.786,0,0,1-3.468-9.756H874.73a13.786,13.786,0,0,1-3.469,9.756c-.955,1.078-2.107,1.818-2.263,3.25h22.925C891.767,1156.573,890.616,1155.833,889.661,1154.755Z" transform="translate(-768.69 -1042.658)" fill="#8bc3c0"/>
              <path id="Trazado_996408" data-name="Trazado 996408" d="M914.512,1145H903.049a12.759,12.759,0,0,1-.122,2.592c3.988.259,8.217.484,12.055,1.627A13.067,13.067,0,0,1,914.512,1145Z" transform="translate(-797.009 -1042.932)" fill="#357092"/>
              <path id="Trazado_996409" data-name="Trazado 996409" d="M860.109,1087.67H821.47a17.431,17.431,0,0,0,1.37,3.307h35.9A17.32,17.32,0,0,0,860.109,1087.67Z" transform="translate(-729.019 -995.707)" fill="#fff"/>
              <path id="Trazado_996410" data-name="Trazado 996410" d="M829.763,1107.67a14.173,14.173,0,0,0,1.76,2.538,16.361,16.361,0,0,0,3.291,2.827,16,16,0,0,0,4.532,1.821,32.54,32.54,0,0,0,16.734,0,16,16,0,0,0,4.532-1.821,16.357,16.357,0,0,0,3.291-2.827,14.178,14.178,0,0,0,1.76-2.538Z" transform="translate(-735.94 -1012.05)" fill="#ffba55"/>
              <g id="Grupo_1178501" data-name="Grupo 1178501" transform="translate(95.573 57.459)">
                <path id="Trazado_996411" data-name="Trazado 996411" d="M872.748,893.984l-4.234,2.574-5.983-3.637-5.983,3.637-5.983-3.637-5.983,3.637-4.232-2.574q.258-.712.529-1.419l3.7,2.252,5.983-3.637,5.983,3.637,5.983-3.637,5.983,3.637,3.7-2.252Q872.489,893.272,872.748,893.984Z" transform="translate(-840.35 -891.18)" fill="#fff"/>
              </g>
              <g id="Grupo_1178502" data-name="Grupo 1178502" transform="translate(94.435 61.712)">
                <path id="Trazado_996412" data-name="Trazado 996412" d="M868.141,917.474l-5.37,3.263-5.983-3.637-5.983,3.637-5.983-3.637-5.983,3.637-5.37-3.265q.233-.727.481-1.448L838.84,919l5.983-3.637L850.806,919l5.983-3.637L862.772,919l4.89-2.972C867.826,916.506,867.988,916.99,868.141,917.474Z" transform="translate(-833.47 -915.36)" fill="#fff"/>
              </g>
              <path id="Trazado_996413" data-name="Trazado 996413" d="M863.014,770.323a.4.4,0,0,0-.22.005.411.411,0,0,0-.2.248,3.355,3.355,0,0,0-.18,1.048l-.113,1.768a1.065,1.065,0,0,0,1.18,1.388.936.936,0,0,0,.424-.022c.312-.117.4-.51.424-.843C864.391,772.862,864.348,770.58,863.014,770.323Z" transform="translate(-763.087 -736.285)" fill="#ff966c"/>
              <path id="Trazado_996414" data-name="Trazado 996414" d="M899.968,812.212l-4.606-3.061a15.053,15.053,0,0,0-.946,1.757l4.34,2.792Z" transform="translate(-789.905 -766.13)" fill="#fff"/>
              <path id="Trazado_996415" data-name="Trazado 996415" d="M766.544,725.51a1.177,1.177,0,1,0-1.288,1.97l20.9,13.45a15,15,0,0,1,.946-1.757Z" transform="translate(-681.647 -698.726)" fill="#99583f"/>
              <g id="Grupo_1178503" data-name="Grupo 1178503" transform="translate(108.851 45.887)">
                <path id="Trazado_996416" data-name="Trazado 996416" d="M934.8,836.545l-1.822-4.645a3.774,3.774,0,0,0-1.045-.853,2.377,2.377,0,0,1,.109,1.655,1.965,1.965,0,0,0-.134.556c0,.395.329.72.384,1.111a4.786,4.786,0,0,1-1.574-2.076,2.044,2.044,0,0,0,.374,1.986c.089.1.191.26.094.356a.254.254,0,0,1-.2.044,7.178,7.178,0,0,1-1.211-.2c-.464-.117-.987-.36-1.065-.832a2.932,2.932,0,0,0-.038,1.172,4.614,4.614,0,0,0,1.4.963A13.009,13.009,0,0,0,934.8,836.545Z" transform="translate(-927.311 -830.098)" fill="#8bc3c0"/>
                <path id="Trazado_996417" data-name="Trazado 996417" d="M922.068,828.856c.078.472.6.715,1.065.832a7.143,7.143,0,0,0,1.211.2.254.254,0,0,0,.2-.044c.1-.1,0-.253-.094-.356a2.044,2.044,0,0,1-.374-1.986,4.787,4.787,0,0,0,1.574,2.076c-.055-.391-.384-.716-.384-1.111a1.957,1.957,0,0,1,.134-.556,2.378,2.378,0,0,0-.109-1.655,3.78,3.78,0,0,1,1.045.853l-.182-.463c-.209-.534-.486-1.132-1.036-1.295a1.906,1.906,0,0,0-.8,0,18.08,18.08,0,0,1-2.436.348l-1.212,1.488a4.428,4.428,0,0,0,1.362,2.846A2.925,2.925,0,0,1,922.068,828.856Z" transform="translate(-920.668 -825.305)" fill="#357092"/>
              </g>
              <path id="Trazado_996418" data-name="Trazado 996418" d="M828.018,800.205q-1.565-1.1-3.027-2.34a.9.9,0,0,1-.263-.3,1.056,1.056,0,0,1,.005-.6,3.374,3.374,0,0,0-.43-2.3,7.766,7.766,0,0,1-.539-.879,4.726,4.726,0,0,1-.253-1.182,7.508,7.508,0,0,0-.679-2.162,17.333,17.333,0,0,0-6.042-.275.985.985,0,0,0-.653.277.864.864,0,0,0-.149.507c-.055,1.157.559,2.315.283,3.441-.171.7-.67,1.292-.77,2a3.089,3.089,0,0,0,.955,2.357A23.264,23.264,0,0,0,828.018,800.205Z" transform="translate(-724.021 -750.282)" fill="#c67a58"/>
              <path id="Trazado_996419" data-name="Trazado 996419" d="M1003.341,919.614c-1.51,3.7-3.453,7.98-5.242,11.552-10.914-1.652-21.859-4.516-31.142-10.489-2.023-1.3-2-4.2-2.574-6.534a8.7,8.7,0,0,0-.626-1.95,6.408,6.408,0,0,0-.848-1.188,20.235,20.235,0,0,0-2.856-2.741,6.859,6.859,0,0,0-2.341-1.053,9.983,9.983,0,0,0-1.224-.223l-2.971-.414c-.195-.027-.451-.02-.517.165a.4.4,0,0,0,.115.364,3.447,3.447,0,0,0,2.145,1,5.576,5.576,0,0,1,2.29.707,4.79,4.79,0,0,1,1.26,1.583c-1.016-.385-2.2-.788-3.22-1.172a5.241,5.241,0,0,0-2.39-.5,5.169,5.169,0,0,0-1.088.286c-.336.115-1.655.318-1.806.659-.22.5.688.921,1.053.974a6.544,6.544,0,0,0,1.6-.116c1.933-.2,3.795.684,5.538,1.545a57.458,57.458,0,0,0-6.878-1.549,1.955,1.955,0,0,0-.953-.03.686.686,0,0,0-.517.713.945.945,0,0,0,.366.507c2.36,2,5.753,2.429,8.125,4.419a31.172,31.172,0,0,1-5.7-2.6,1.753,1.753,0,0,0-.786-.332.581.581,0,0,0-.636.449.841.841,0,0,0,.354.631c1.713,1.605,3.623,3.005,5.2,4.747,1.165,1.29,1.231,3.051,2.184,4.5,1.378,2.105,3.76,3.289,6.029,4.378,16.078,14.688,29.159,16.575,31.831,17a11.546,11.546,0,0,0,7.862-1.2c6.252-3.886,10.874-17.344,11.446-22.517Z" transform="translate(-836.417 -845.695)" fill="#ff966c"/>
              <path id="Trazado_996420" data-name="Trazado 996420" d="M1266.058,985.506c-.366.9-.757,1.825-1.165,2.771a144.076,144.076,0,0,1,11.209,9.249,43.581,43.581,0,0,0,3.039-10.455Z" transform="translate(-1099.134 -911.306)" fill="#c67a58"/>
              <path id="Trazado_996421" data-name="Trazado 996421" d="M652.016,1092.382a9.481,9.481,0,0,0-5.484-5.368,14.482,14.482,0,0,0-1.939-.642,1.052,1.052,0,0,1-.8-1.016h0a1.046,1.046,0,0,1,1.046-1.046h.827v-2.645H631.783v2.645h.827a1.046,1.046,0,0,1,1.046,1.046h0a1.052,1.052,0,0,1-.8,1.016,14.48,14.48,0,0,0-1.939.642,9.483,9.483,0,0,0-5.484,5.368,8.217,8.217,0,0,0-.245,4.8c.323,1.167,2.383,5.589,2.679,7.956h21.712c.3-2.366,2.356-6.789,2.679-7.956A8.217,8.217,0,0,0,652.016,1092.382Z" transform="translate(-564.979 -990.169)" fill="#c27d56"/>
              <g id="Grupo_1178504" data-name="Grupo 1178504" transform="translate(78.321 107.75)">
                <rect id="Rectángulo_455097" data-name="Rectángulo 455097" width="6.833" height="1.598" fill="#fff"/>
                <rect id="Rectángulo_455098" data-name="Rectángulo 455098" width="4.849" height="6.172" transform="translate(0.992 1.597)" fill="#f83b4f"/>
                <rect id="Rectángulo_455099" data-name="Rectángulo 455099" width="3.306" height="3.306" transform="translate(2.535 2.589)" fill="#ffba55"/>
              </g>
              <g id="Grupo_1178505" data-name="Grupo 1178505" transform="translate(89.035 104.79)">
                <rect id="Rectángulo_455100" data-name="Rectángulo 455100" width="9.353" height="2.188" fill="#fff"/>
                <rect id="Rectángulo_455101" data-name="Rectángulo 455101" width="6.638" height="8.448" transform="translate(1.358 2.187)" fill="#ffba55"/>
                <rect id="Rectángulo_455102" data-name="Rectángulo 455102" width="4.526" height="4.526" transform="translate(3.47 3.546)" fill="#f83b4f"/>
              </g>
              <g id="Grupo_1178506" data-name="Grupo 1178506" transform="translate(125.822 104.79)">
                <rect id="Rectángulo_455103" data-name="Rectángulo 455103" width="9.353" height="2.188" fill="#fff"/>
                <rect id="Rectángulo_455104" data-name="Rectángulo 455104" width="6.638" height="8.448" transform="translate(1.357 2.187)" fill="#8bc3c0"/>
                <rect id="Rectángulo_455105" data-name="Rectángulo 455105" width="4.526" height="4.526" transform="translate(3.47 3.546)" fill="#fff"/>
              </g>
              <path id="Trazado_996422" data-name="Trazado 996422" d="M1100.658,1147.748h-9.344l-1.724-15.038h12.791Z" transform="translate(-952.812 -1032.47)" fill="#ffba55"/>
              <path id="Trazado_996423" data-name="Trazado 996423" d="M1270.485,832.6a83.7,83.7,0,0,1-18.437-6.974,195.141,195.141,0,0,1,11.229-32.064c1.362.4,6.727,2.454,7.708,3.443a8.409,8.409,0,0,1,2.121,4.28,23.055,23.055,0,0,1,.313,4.826C1273.334,815.086,1271.842,823.735,1270.485,832.6Z" transform="translate(-1088.412 -752.796)" fill="#ffba55"/>
              <path id="Trazado_996424" data-name="Trazado 996424" d="M1276.69,892.033q4.93-3.767,10.16-7.116c.2-.129.272-.732.057-.835a.818.818,0,0,0-.683.1A28.865,28.865,0,0,0,1276.69,892.033Z" transform="translate(-1108.98 -827.791)" fill="#c67a58"/>
              <path id="Trazado_996425" data-name="Trazado 996425" d="M819.06,790.893l-3.285.119a7.022,7.022,0,0,0-1.669.195c-.54.153-1.039.434-1.585.561a4.256,4.256,0,0,1-2.151-.151,2.783,2.783,0,0,1-1.827-1.3,8.543,8.543,0,0,1-.339-1.422,6.95,6.95,0,0,0-.473-1.123,4.913,4.913,0,0,1-.587-2.61,16.186,16.186,0,0,0,.338-1.857,3.6,3.6,0,0,1,.024-1.276c.253-.677,1.113-.859,1.835-.89a15.612,15.612,0,0,1,3.764.3,7.6,7.6,0,0,1,4.326,2.284c.14.162.274.408.137.573a.443.443,0,0,1-.328.118,8.869,8.869,0,0,1-2.546-.545,6.966,6.966,0,0,0-3.677.081,2.74,2.74,0,0,0,1.813.457q2.117.162,4.219.473c.661.1,1.438.3,1.653.935a.6.6,0,0,1-.029.5c-.162.263-.532.277-.84.263q-2.91-.131-5.825-.024a6.979,6.979,0,0,0,2.15.507q1.958.207,3.889.607a2.566,2.566,0,0,1,1.316.557c.193.188.321.508.155.721a.716.716,0,0,1-.591.18l-6.423-.053c2.036.611,4.153.461,6.251.8a1.057,1.057,0,0,1,.694.31C819.607,790.39,819.319,790.883,819.06,790.893Z" transform="translate(-717.043 -742.961)" fill="#ff966c"/>
              <rect id="Rectángulo_455106" data-name="Rectángulo 455106" width="49.616" height="75.719" transform="translate(84.458 141.815)" fill="#99583f"/>
              <path id="Trazado_996426" data-name="Trazado 996426" d="M822.737,1349.291v-5.621H773.12v1.984Z" transform="translate(-688.662 -1206.615)" fill="#5f130d"/>
              <rect id="Rectángulo_455107" data-name="Rectángulo 455107" width="243.933" height="1.505" transform="translate(0 216.529)" fill="#f9d8ad"/>
              <g id="Grupo_1178507" data-name="Grupo 1178507" transform="translate(133.94 204.454)">
                <path id="Trazado_996427" data-name="Trazado 996427" d="M1086.906,1738.816c4.707-.8,8.262-4.469,12.006-7.47q.046-2.923-.19-5.842c-.712.156-2.065,1.982-5.208,1.973.117-1.47.146-3.172-.958-4.15-.938-.831-2.334-.8-3.585-.727a1.976,1.976,0,0,0-.921.208,2.053,2.053,0,0,0-.538.558,26.783,26.783,0,0,1-9.749,8.007,15.5,15.5,0,0,0-3.883,2.21,4.218,4.218,0,0,0-1.454,3.115,40,40,0,0,0,10.213,2.2A17.211,17.211,0,0,0,1086.906,1738.816Z" transform="translate(-1072.425 -1722.564)" fill="#c27d56"/>
                <path id="Trazado_996428" data-name="Trazado 996428" d="M1086.916,1783.154a17.191,17.191,0,0,1-4.267.085,40,40,0,0,1-10.213-2.2,2.726,2.726,0,0,0,.185.905,24.528,24.528,0,0,0,5.264,1.7c4.2.751,8.766,1.2,12.541-.793,2.273-1.2,4.241-3.268,6.585-4.062a2.769,2.769,0,0,0,1.9-2.542c0-.186.007-.372.01-.559C1095.177,1778.685,1091.622,1782.356,1086.916,1783.154Z" transform="translate(-1072.434 -1766.902)" fill="#fff"/>
              </g>
            </g>
            <g id="Grupo_1178509" data-name="Grupo 1178509" transform="translate(63.577 135.361)">
              <path id="Trazado_996429" data-name="Trazado 996429" d="M652.529,1416.242l-4.067-18.432a50.22,50.22,0,0,1-1.642-11.889c.053-2.329.777-5.086,2.988-5.82,1.846-.613,3.8.529,5.267,1.807a22.815,22.815,0,0,1,6.187,8.734c-.523,1.347-1.071,2.863-1.594,4.211a22.293,22.293,0,0,0-6.059-11.6,3.665,3.665,0,0,0-1.535-1.057,2.658,2.658,0,0,0-2.844,1.409,6.471,6.471,0,0,0-.615,3.323c.081,4.885,1.563,9.626,3.032,14.286l2.646,8.4Z" transform="translate(-646.814 -1367.482)" fill="#ff966c"/>
              <path id="Trazado_996430" data-name="Trazado 996430" d="M765.242,1416.242l4.067-18.432a50.21,50.21,0,0,0,1.642-11.889c-.053-2.329-.777-5.086-2.988-5.82-1.846-.613-3.8.529-5.267,1.807a22.814,22.814,0,0,0-6.187,8.734c.523,1.347,1.071,2.863,1.594,4.211a22.294,22.294,0,0,1,6.059-11.6,3.665,3.665,0,0,1,1.535-1.057,2.658,2.658,0,0,1,2.844,1.409,6.473,6.473,0,0,1,.614,3.323c-.081,4.885-1.563,9.626-3.032,14.286l-2.646,8.4Z" transform="translate(-738.374 -1367.482)" fill="#ff966c"/>
              <path id="Trazado_996431" data-name="Trazado 996431" d="M715.452,1422.434a22.705,22.705,0,0,0-2.354-4.414l-1.361,2.441a22.16,22.16,0,0,1,2.121,6.184C714.381,1425.3,714.929,1423.781,715.452,1422.434Z" transform="translate(-701.004 -1399.275)" fill="#c27d56"/>
              <path id="Trazado_996432" data-name="Trazado 996432" d="M667.731,1523.9l1.765-6.635-2.632-8.353-1.838,2.731Q666.378,1517.772,667.731,1523.9Z" transform="translate(-662.015 -1475.139)" fill="#c27d56"/>
              <path id="Trazado_996433" data-name="Trazado 996433" d="M756.509,1422.56c.523,1.347,1.071,2.864,1.594,4.211a22.147,22.147,0,0,1,2.079-6.1l-1.336-2.5A22.667,22.667,0,0,0,756.509,1422.56Z" transform="translate(-738.374 -1399.401)" fill="#c27d56"/>
              <path id="Trazado_996434" data-name="Trazado 996434" d="M798.656,1517.9l1.765,6.635,2.61-11.831-1.783-3.031Z" transform="translate(-773.553 -1475.78)" fill="#c27d56"/>
              <path id="Trazado_996435" data-name="Trazado 996435" d="M692.41,1345.214c-1.1-3.988-3.666-7.378-5.827-10.906s-4.186-7.831-3.611-11.929v-13.651a1.48,1.48,0,0,1,.523-1.129l.42-.356a1.48,1.48,0,0,0-.957-2.609h-5.572a1.48,1.48,0,0,0-.957,2.609l.42.356a1.48,1.48,0,0,1,.523,1.129v13.651c.575,4.1-1.45,8.4-3.611,11.929s-4.723,6.919-5.828,10.906a27.049,27.049,0,0,0-.247,10.853c.412,3.019,1,6.011,1.629,8.992,1.607,7.608,3.224,14.165,5.387,21.634h10.938c2.163-7.469,3.78-14.026,5.387-21.634.63-2.981,1.217-5.973,1.629-8.992A27.046,27.046,0,0,0,692.41,1345.214Z" transform="translate(-663.881 -1304.633)" fill="#ff966c"/>
            </g>
            <g id="Grupo_1178510" data-name="Grupo 1178510" transform="translate(102.239 135.361)">
              <path id="Trazado_996436" data-name="Trazado 996436" d="M886.384,1416.242l-4.067-18.432a50.21,50.21,0,0,1-1.642-11.889c.053-2.329.777-5.086,2.988-5.82,1.846-.613,3.8.529,5.267,1.807a22.815,22.815,0,0,1,6.187,8.734c-.523,1.347-1.071,2.863-1.594,4.211a22.294,22.294,0,0,0-6.059-11.6,3.665,3.665,0,0,0-1.535-1.057,2.658,2.658,0,0,0-2.844,1.409,6.471,6.471,0,0,0-.615,3.323c.081,4.885,1.563,9.626,3.032,14.286l2.646,8.4Z" transform="translate(-880.669 -1367.482)" fill="#ff966c"/>
              <path id="Trazado_996437" data-name="Trazado 996437" d="M999.1,1416.242l4.067-18.432a50.223,50.223,0,0,0,1.642-11.889c-.053-2.329-.777-5.086-2.988-5.82-1.846-.613-3.8.529-5.267,1.807a22.815,22.815,0,0,0-6.187,8.734c.523,1.347,1.071,2.863,1.594,4.211a22.294,22.294,0,0,1,6.059-11.6,3.664,3.664,0,0,1,1.535-1.057,2.658,2.658,0,0,1,2.844,1.409,6.471,6.471,0,0,1,.615,3.323c-.081,4.885-1.563,9.626-3.032,14.286l-2.646,8.4Z" transform="translate(-972.231 -1367.482)" fill="#ff966c"/>
              <path id="Trazado_996438" data-name="Trazado 996438" d="M949.307,1422.434a22.705,22.705,0,0,0-2.354-4.414l-1.361,2.441a22.162,22.162,0,0,1,2.121,6.184C948.236,1425.3,948.784,1423.781,949.307,1422.434Z" transform="translate(-934.859 -1399.275)" fill="#c27d56"/>
              <path id="Trazado_996439" data-name="Trazado 996439" d="M901.585,1523.9l1.765-6.635-2.632-8.353-1.838,2.731Z" transform="translate(-895.87 -1475.139)" fill="#c27d56"/>
              <path id="Trazado_996440" data-name="Trazado 996440" d="M990.364,1422.56c.523,1.347,1.071,2.864,1.594,4.211a22.147,22.147,0,0,1,2.079-6.1l-1.336-2.5A22.667,22.667,0,0,0,990.364,1422.56Z" transform="translate(-972.229 -1399.401)" fill="#c27d56"/>
              <path id="Trazado_996441" data-name="Trazado 996441" d="M1032.51,1517.9l1.765,6.635,2.61-11.831-1.783-3.031Q1033.805,1513.79,1032.51,1517.9Z" transform="translate(-1007.407 -1475.78)" fill="#c27d56"/>
              <path id="Trazado_996442" data-name="Trazado 996442" d="M926.266,1345.214c-1.1-3.988-3.666-7.378-5.827-10.906s-4.186-7.831-3.611-11.929v-13.651a1.48,1.48,0,0,1,.523-1.129l.42-.356a1.48,1.48,0,0,0-.957-2.609h-5.572a1.48,1.48,0,0,0-.957,2.609l.42.356a1.48,1.48,0,0,1,.523,1.129v13.651c.575,4.1-1.45,8.4-3.611,11.929s-4.723,6.919-5.827,10.906a27.051,27.051,0,0,0-.247,10.853c.412,3.019,1,6.011,1.629,8.992,1.607,7.608,3.224,14.165,5.387,21.634H919.5c2.163-7.469,3.78-14.026,5.387-21.634.63-2.981,1.217-5.973,1.629-8.992A27.077,27.077,0,0,0,926.266,1345.214Z" transform="translate(-897.736 -1304.633)" fill="#ff966c"/>
            </g>
            <path id="Trazado_996443" data-name="Trazado 996443" d="M495.495,1516.877a26.9,26.9,0,0,0-3.847-4.835,6.383,6.383,0,0,1-1.841-3.624c-.144-2.527,2.453-5.042,1.593-7.423H468.916c-.86,2.38,1.737,4.9,1.593,7.423a6.384,6.384,0,0,1-1.841,3.624,26.9,26.9,0,0,0-3.847,4.835c-1.326,2.539-1.38,5.541-1.182,8.4.6,8.726,3.911,17.821,8.418,25.317h16.2c4.508-7.5,7.815-16.591,8.418-25.317C496.875,1522.418,496.821,1519.416,495.495,1516.877Z" transform="translate(-430.274 -1333.171)" fill="#ff966c"/>
            <path id="Trazado_996444" data-name="Trazado 996444" d="M1407.326,1664a5.4,5.4,0,0,0-4.7-2.309,5.338,5.338,0,0,0-1.764.415v-1.774h-37.8v1.774a5.344,5.344,0,0,0-1.763-.415,5.4,5.4,0,0,0-4.7,2.309,6.622,6.622,0,0,0-.157,6.574,9.133,9.133,0,0,0,10.041,4.952,18.878,18.878,0,0,0,15.485,8.062h0a18.879,18.879,0,0,0,15.485-8.062,9.274,9.274,0,0,0,1.826.185,9.119,9.119,0,0,0,8.215-5.137A6.619,6.619,0,0,0,1407.326,1664Zm-44.986,9.172a7.047,7.047,0,0,1-3.977-3.54,4.55,4.55,0,0,1,0-4.427,3.254,3.254,0,0,1,2.8-1.369,3.324,3.324,0,0,1,1.888.755v.094a18.817,18.817,0,0,0,2.2,8.849A6.987,6.987,0,0,1,1362.34,1673.176Zm43.21-3.54a6.973,6.973,0,0,1-6.888,3.9,18.817,18.817,0,0,0,2.2-8.849v-.094a3.32,3.32,0,0,1,1.888-.755,3.254,3.254,0,0,1,2.8,1.369A4.546,4.546,0,0,1,1405.551,1669.636Z" transform="translate(-1174.878 -1466.17)" fill="#ff966c"/>
          </g>
        </g>
      </g>
    </g>
  </g>
</svg>
