<svg xmlns="http://www.w3.org/2000/svg" width="73" height="73" viewBox="0 0 73 73">
  <g id="Grupo_1180931" data-name="Grupo 1180931" transform="translate(-716.711 -529)">
    <rect id="Rectángulo_454495" data-name="Rectángulo 454495" width="73" height="73" rx="5" transform="translate(716.711 529)" fill="#c8bf57"/>
    <g id="XMLID_2058_" transform="translate(726.711 539)">
      <path id="XMLID_1994_" d="M98.427,67.719V50.365a12.585,12.585,0,1,1,25.169,0V67.719Z" transform="translate(-88.238 -33.869)" fill="#9ea6bf"/>
      <g id="XMLID_1472_" transform="translate(1.035 31.262)">
        <path id="XMLID_1998_" d="M35.84,302h.9a16.735,16.735,0,0,1,16.735,16.735V322.7H10v-3.968A16.735,16.735,0,0,1,26.735,302h9.1Z" transform="translate(-10 -302)" fill="#ffcd69"/>
      </g>
      <path id="XMLID_2025_" d="M85.927,304.588l2.588,2.588-2.588,2.588,2.588,2.588-2.588,2.588,2.588,2.588-2.588,2.588,2.588,2.588h6.15l-2.588-2.588,2.588-2.588-2.588-2.588,2.588-2.588-2.588-2.588,2.588-2.588-2.588-2.588L94.664,302Z" transform="translate(-77.032 -270.738)" fill="#ff7b79"/>
      <path id="XMLID_2089_" d="M273.526,311.047a9.406,9.406,0,0,1,5.94-2.529l.693-.813-1.755-3.117L269.667,302l2.588,2.588-2.588,2.588Z" transform="translate(-241.752 -270.738)" fill="#ff7b79"/>
      <path id="XMLID_1458_" d="M291.747,364.835h-4.3A9.441,9.441,0,0,0,278,374.276v4.757h23.188v-4.757A9.442,9.442,0,0,0,291.747,364.835Z" transform="translate(-249.224 -327.069)" fill="#d5ea79"/>
      <path id="XMLID_1995_" d="M155.453,172.064A7.453,7.453,0,0,1,148,164.611v-2.717a2.542,2.542,0,0,1,2.542-2.542h9.823a2.542,2.542,0,0,1,2.542,2.542v2.717A7.453,7.453,0,0,1,155.453,172.064Z" transform="translate(-132.68 -142.858)" fill="#efb789"/>
      <path id="XMLID_1453_" d="M355.894,371.49a4.452,4.452,0,0,1-8.9,0Z" transform="translate(-311.071 -333.035)" fill="#f3c9a6"/>
      <path id="XMLID_1996_" d="M196.211,276.088v2.786a3.105,3.105,0,0,1-6.211,0v-2.786h6.211Z" transform="translate(-170.332 -247.509)" fill="#efb789"/>
      <circle id="XMLID_1457_" cx="6.021" cy="6.021" r="6.021" transform="translate(34.35 25.724)" fill="#f3c9a6"/>
      <path id="XMLID_1452_" d="M122.6,115.354H99.426a1,1,0,0,0-1,1v3.556H123.6v-3.556A1,1,0,0,0,122.6,115.354Z" transform="translate(-88.238 -103.413)" fill="#ff7b79"/>
      <ellipse id="XMLID_1447_" cx="2.446" cy="5.453" rx="2.446" ry="5.453" transform="translate(29.718 1.035)" fill="#d5ea79"/>
      <ellipse id="XMLID_1444_" cx="5.453" cy="2.446" rx="5.453" ry="2.446" transform="translate(31.944 10.213) rotate(-45)" fill="#d5ea79"/>
      <g id="XMLID_472_" transform="translate(0 0)">
        <path id="XMLID_474_" d="M202.969,222.952a2.345,2.345,0,0,0,1.663-.688,1.035,1.035,0,0,0-1.464-1.464.282.282,0,0,1-.4,0,1.035,1.035,0,0,0-1.464,1.464A2.345,2.345,0,0,0,202.969,222.952Z" transform="translate(-180.195 -197.672)"/>
        <path id="XMLID_493_" d="M45.033,37.035A7.052,7.052,0,0,0,36.394,25.92V12.626a8.2,8.2,0,0,0,3.6-2.081,8.664,8.664,0,0,0,2.43-6.331A1.035,1.035,0,0,0,41.4,3.193a8.793,8.793,0,0,0-5.866,2,8.906,8.906,0,0,0-2.652-4.9,1.035,1.035,0,0,0-1.444,0,9.089,9.089,0,0,0-2.468,4.073,13.625,13.625,0,0,0-18.724,6.771,2.035,2.035,0,0,0-1.1,1.8V32.46A17.783,17.783,0,0,0,0,48v3.968A1.035,1.035,0,0,0,1.035,53h50.93A1.035,1.035,0,0,0,53,51.965V47.207a10.5,10.5,0,0,0-7.967-10.172ZM8.163,39.757l1.856,1.856L8.163,43.469a1.035,1.035,0,0,0,0,1.464l1.856,1.856L8.163,48.645a1.035,1.035,0,0,0,0,1.464l.821.821H2.07V48A15.692,15.692,0,0,1,8.741,35.16l1.277,1.277L8.163,38.293A1.035,1.035,0,0,0,8.163,39.757Zm32.208-13a4.986,4.986,0,1,1-4.986,4.986A4.992,4.992,0,0,1,40.371,26.759Zm3.388,12.134a3.416,3.416,0,0,1-6.776,0,8.433,8.433,0,0,1,1.236-.092h4.3a8.448,8.448,0,0,1,1.236.092ZM31.235,33.117l-.553-.552a15.529,15.529,0,0,1,2.825.811,7.062,7.062,0,0,0,2.2,3.66A10.443,10.443,0,0,0,31.842,38.9l-2.464-2.464,1.856-1.856a1.035,1.035,0,0,0,0-1.464Zm5.3-26.031A6.268,6.268,0,0,1,40.3,5.319a6.268,6.268,0,0,1-1.768,3.763,6.268,6.268,0,0,1-3.763,1.768A6.268,6.268,0,0,1,36.536,7.087Zm-3.192,24.03a17.687,17.687,0,0,0-5.567-.891h-.863V29.159a8.493,8.493,0,0,0,4.348-7.406V19.037a3.555,3.555,0,0,0-.334-1.506h3.4V28.053c0,.019,0,.038,0,.056A7.006,7.006,0,0,0,33.344,31.117ZM22.773,28.172a6.425,6.425,0,0,1-6.418-6.418V19.037a1.508,1.508,0,0,1,1.506-1.506h9.823a1.508,1.508,0,0,1,1.506,1.506v2.717A6.425,6.425,0,0,1,22.773,28.172Zm2.07,1.814v1.38a2.07,2.07,0,1,1-4.141,0v-1.38a8.483,8.483,0,0,0,4.141,0ZM32.163,2.577a6.268,6.268,0,0,1,1.41,3.911,6.268,6.268,0,0,1-1.41,3.911,6.268,6.268,0,0,1-1.41-3.911A6.268,6.268,0,0,1,32.163,2.577Zm-20.939,10.4h6.891a1.035,1.035,0,0,0,0-2.07H12.663A11.555,11.555,0,0,1,28.685,6.573,8.275,8.275,0,0,0,30,10.906H27.432a1.035,1.035,0,0,0,0,2.07h6.891V15.46h-23.1Zm0,4.555h3.4a3.555,3.555,0,0,0-.334,1.506v2.717a8.493,8.493,0,0,0,4.348,7.406v1.067H17.77a17.676,17.676,0,0,0-6.546,1.25V17.531Zm3.088,22.227,1.856,1.856-1.856,1.856a1.035,1.035,0,0,0,0,1.464l1.856,1.856-1.856,1.856a1.035,1.035,0,0,0,0,1.464l.821.821H11.912l-1.553-1.553,1.856-1.856a1.035,1.035,0,0,0,0-1.464L10.359,44.2l1.856-1.856a1.035,1.035,0,0,0,0-1.464l-1.856-1.856,1.856-1.856a1.035,1.035,0,0,0,0-1.464l-1.653-1.653a15.578,15.578,0,0,1,4.3-1.485l-.55.55a1.035,1.035,0,0,0,0,1.464l1.856,1.856-1.856,1.856a1.035,1.035,0,0,0,0,1.464Zm13.43,11.172H18.061l-1.553-1.553,1.856-1.856a1.035,1.035,0,0,0,0-1.464L16.508,44.2l1.856-1.856a1.035,1.035,0,0,0,0-1.464l-1.856-1.856,1.856-1.856a1.035,1.035,0,0,0,0-1.464l-1.856-1.856L18.061,32.3h.679a4.14,4.14,0,0,0,8.067,0h.679l1.553,1.553-1.856,1.856a1.035,1.035,0,0,0,0,1.464l3.149,3.149a10.433,10.433,0,0,0-2.59,6.889Zm23.187,0H29.813V47.207a8.419,8.419,0,0,1,5.164-7.755,5.486,5.486,0,0,0,10.79,0,8.419,8.419,0,0,1,5.164,7.755Z" transform="translate(0 0)"/>
        <path id="XMLID_680_" d="M211.035,107.42a1.036,1.036,0,1,0-.732-.3A1.039,1.039,0,0,0,211.035,107.42Z" transform="translate(-188.262 -94.445)"/>
      </g>
    </g>
  </g>
</svg>
