<svg xmlns="http://www.w3.org/2000/svg" width="73" height="73" viewBox="0 0 73 73">
  <g id="Grupo_1177075" data-name="Grupo 1177075" transform="translate(-716.711 -529)">
    <rect id="Rectángulo_454495" data-name="Rectángulo 454495" width="73" height="73" rx="5" transform="translate(716.711 529)" fill="#c8bf57"/>
    <g id="Grupo_1181127" data-name="Grupo 1181127" transform="translate(698.081 537.034)">
      <g id="Grupo_1181125" data-name="Grupo 1181125" transform="translate(30.834 0.834)">
        <path id="Trazado_1013021" data-name="Trazado 1013021" d="M103.17,322.661h33.988v14.455H103.17Z" transform="translate(-95.868 -287.617)" fill="#ab7b64"/>
        <path id="Trazado_1013022" data-name="Trazado 1013022" d="M137.16,322.66v2.6H128.2a.33.33,0,0,0-.3.185,5.008,5.008,0,0,1-4.51,2.84h-6.449a5.01,5.01,0,0,1-4.511-2.84.33.33,0,0,0-.3-.185h-8.96v-2.6Z" transform="translate(-95.87 -287.616)" fill="#9a6a53"/>
        <path id="Trazado_1013023" data-name="Trazado 1013023" d="M105,168h33.581v12.39H105Z" transform="translate(-97.494 -150.154)" fill="#ab7b64"/>
        <g id="Grupo_1181115" data-name="Grupo 1181115" transform="translate(40.252 16.735)">
          <path id="Trazado_1013024" data-name="Trazado 1013024" d="M399.5,320.255l.415,7.98-.415,7.011h6.672V323.118l-.2-.958.2-1.9Z" transform="translate(-399.5 -302.213)" fill="#ffe07d"/>
          <path id="Trazado_1013025" data-name="Trazado 1013025" d="M407.06,170.565l-3.654.445-2.906-.445V159.223a1.112,1.112,0,0,1,1.112-1.112l.445-.111h3.892a1.112,1.112,0,0,1,1.112,1.112Z" transform="translate(-400.389 -158)" fill="#ffe07d"/>
          <g id="Grupo_1181114" data-name="Grupo 1181114" transform="translate(0)">
            <path id="Trazado_1013026" data-name="Trazado 1013026" d="M401.168,158v12.565l-.9.445-.765-.445V159.112A1.112,1.112,0,0,1,400.612,158Z" transform="translate(-399.5 -158)" fill="#ffd064"/>
            <path id="Trazado_1013027" data-name="Trazado 1013027" d="M399.5,320.26v14.99h1.668V323.567a.445.445,0,0,1,.445-.445h4.559V320.26H399.5Z" transform="translate(-399.5 -302.218)" fill="#ffd064"/>
          </g>
        </g>
        <g id="Grupo_1181116" data-name="Grupo 1181116" transform="translate(19.57)">
          <path id="Trazado_1013028" data-name="Trazado 1013028" d="M215.723,12.61l.946.481a7.015,7.015,0,0,1,2.581,2.581l.369.834a.439.439,0,0,0,.766,0l.481-.834a6.118,6.118,0,0,1,1.1-1.424,1.436,1.436,0,0,1,.239-.145,6.434,6.434,0,0,1,1.237-.9l1.057-.592a.439.439,0,0,0,0-.766l-1.057-.592a6.434,6.434,0,0,1-2.47-2.47l-.592-1.057a.439.439,0,0,0-.766,0l-.592,1.057a6.435,6.435,0,0,1-1.075,1.417.249.249,0,0,1-.032.053,6.573,6.573,0,0,1-1.361,1.035l-.837.558a.439.439,0,0,0,0,.766Z" transform="translate(-215.276 -7.501)" fill="#c3ddff"/>
          <path id="Trazado_1013029" data-name="Trazado 1013029" d="M220.434,35.667a6.464,6.464,0,0,0-1.232,1.568l-.593,1.057a.438.438,0,0,1-.764,0l-.593-1.057a6.421,6.421,0,0,0-2.47-2.47l-1.057-.593a.438.438,0,0,1,0-.764l1.057-.593a6.38,6.38,0,0,0,1.395-1.053A6.3,6.3,0,0,0,220.434,35.667Z" transform="translate(-213.501 -29.065)" fill="#a4ccff"/>
        </g>
        <g id="Grupo_1181117" data-name="Grupo 1181117" transform="translate(30.134 7.672)">
          <path id="Trazado_1013030" data-name="Trazado 1013030" d="M309.647,79.8l.573.272a4.752,4.752,0,0,1,1.71,1.709l.272.573a.284.284,0,0,0,.5,0l.272-.573a4.768,4.768,0,0,1,.966-1.187,1.825,1.825,0,0,1,.425-.214q.154-.105.318-.2l.684-.383a.284.284,0,0,0,0-.5l-.684-.383a4.163,4.163,0,0,1-1.6-1.6l-.383-.684a.284.284,0,0,0-.5,0l-.383.684a4.162,4.162,0,0,1-.771.99,1.73,1.73,0,0,1-.245.308,4.9,4.9,0,0,1-.582.412l-.573.272A.284.284,0,0,0,309.647,79.8Z" transform="translate(-309.391 -76.497)" fill="#c3ddff"/>
          <path id="Trazado_1013031" data-name="Trazado 1013031" d="M313.469,94.921a4.16,4.16,0,0,0-1.281,1.4l-.383.683a.284.284,0,0,1-.5,0l-.383-.683a4.168,4.168,0,0,0-1.6-1.6l-.683-.383a.284.284,0,0,1,0-.5l.683-.383a4.139,4.139,0,0,0,.828-.609,3.391,3.391,0,0,0,3.125,2.073C313.345,94.927,313.406,94.924,313.469,94.921Z" transform="translate(-308.499 -91.035)" fill="#a4ccff"/>
        </g>
        <g id="Grupo_1181118" data-name="Grupo 1181118" transform="translate(12.342 7.672)">
          <path id="Trazado_1013032" data-name="Trazado 1013032" d="M149.647,79.8l.573.272a4.752,4.752,0,0,1,1.71,1.709l.272.573a.284.284,0,0,0,.5,0l.272-.573a4.769,4.769,0,0,1,.966-1.187,1.825,1.825,0,0,1,.425-.214q.154-.105.318-.2l.684-.383a.284.284,0,0,0,0-.5l-.684-.383a4.163,4.163,0,0,1-1.6-1.6l-.383-.684a.284.284,0,0,0-.5,0l-.383.684a4.163,4.163,0,0,1-.771.99,1.731,1.731,0,0,1-.245.308,4.9,4.9,0,0,1-.582.412l-.573.272A.284.284,0,0,0,149.647,79.8Z" transform="translate(-149.391 -76.497)" fill="#c3ddff"/>
          <path id="Trazado_1013033" data-name="Trazado 1013033" d="M153.469,94.921a4.161,4.161,0,0,0-1.281,1.4l-.383.683a.284.284,0,0,1-.5,0l-.383-.683a4.168,4.168,0,0,0-1.6-1.6l-.683-.383a.284.284,0,0,1,0-.5l.683-.383a4.14,4.14,0,0,0,.828-.609,3.391,3.391,0,0,0,3.125,2.073C153.345,94.927,153.406,94.924,153.469,94.921Z" transform="translate(-148.499 -91.035)" fill="#a4ccff"/>
        </g>
        <g id="Grupo_1181119" data-name="Grupo 1181119" transform="translate(21.016 16.735)">
          <path id="Trazado_1013034" data-name="Trazado 1013034" d="M233.838,170.565H227.5V159.223a1.112,1.112,0,0,1,1.112-1.112l.445-.111h3.892a1.112,1.112,0,0,1,1.112,1.112V166.6Z" transform="translate(-227.389 -158)" fill="#ffe07d"/>
          <path id="Trazado_1013035" data-name="Trazado 1013035" d="M228.17,166.156V158h-.556a1.112,1.112,0,0,0-1.112,1.112v11.453h6.672V166.6h-4.559A.445.445,0,0,1,228.17,166.156Z" transform="translate(-226.502 -158)" fill="#ffd064"/>
        </g>
        <g id="Grupo_1181121" data-name="Grupo 1181121" transform="translate(1.668 16.735)">
          <path id="Trazado_1013036" data-name="Trazado 1013036" d="M52.5,320.255l.415,7.98-.415,7.011h6.672V323.118l-.2-.958.2-1.9Z" transform="translate(-52.5 -302.213)" fill="#ffe07d"/>
          <path id="Trazado_1013037" data-name="Trazado 1013037" d="M60.06,170.565l-3.654.445-2.906-.445V159.223a1.112,1.112,0,0,1,1.112-1.112l.445-.111h3.892a1.112,1.112,0,0,1,1.112,1.112Z" transform="translate(-53.389 -158)" fill="#ffe07d"/>
          <g id="Grupo_1181120" data-name="Grupo 1181120">
            <path id="Trazado_1013038" data-name="Trazado 1013038" d="M54.168,158v12.565l-.9.445-.765-.445V159.112A1.112,1.112,0,0,1,53.612,158Z" transform="translate(-52.5 -158)" fill="#ffd064"/>
            <path id="Trazado_1013039" data-name="Trazado 1013039" d="M52.5,320.26v14.99h1.668V323.567a.445.445,0,0,1,.445-.445h4.559V320.26H52.5Z" transform="translate(-52.5 -302.218)" fill="#ffd064"/>
          </g>
        </g>
        <g id="Grupo_1181122" data-name="Grupo 1181122" transform="translate(0 29.299)">
          <path id="Trazado_1013040" data-name="Trazado 1013040" d="M85.757,277.56H39.612a1.112,1.112,0,0,1-1.112-1.112v-4.225a1.112,1.112,0,0,1,1.112-1.112l.445-.111H85.869a1.112,1.112,0,0,1,1.112,1.112V276l-.111.445A1.112,1.112,0,0,1,85.757,277.56Z" transform="translate(-38.389 -271)" fill="#ffd064"/>
          <path id="Trazado_1013041" data-name="Trazado 1013041" d="M86.092,276v.556a1.112,1.112,0,0,1-1.112,1.112H38.612A1.112,1.112,0,0,1,37.5,276.56v-4.448A1.112,1.112,0,0,1,38.612,271h.556v4.559a.445.445,0,0,0,.445.445Z" transform="translate(-37.5 -271)" fill="#ffc250"/>
        </g>
        <path id="Trazado_1013042" data-name="Trazado 1013042" d="M207.345,262.269l-6.366-.046a3.336,3.336,0,0,1-3.336-3.336l0-6.773a1.691,1.691,0,0,1,1.6-1.761h9.785a1.668,1.668,0,0,1,1.668,1.668v6.989a3.321,3.321,0,0,1-.447,1.668s-.167.2-.235.291A3.2,3.2,0,0,1,207.345,262.269Z" transform="translate(-179.832 -223.348)" fill="#ffe07d"/>
        <path id="Trazado_1013043" data-name="Trazado 1013043" d="M209.674,260.677a3.332,3.332,0,0,1-2.889,1.667h-6.449A3.336,3.336,0,0,1,197,259.008V252.02a1.668,1.668,0,0,1,1.668-1.668v8.656a1.67,1.67,0,0,0,1.668,1.668Z" transform="translate(-179.265 -223.348)" fill="#ffd064"/>
        <g id="Grupo_1181123" data-name="Grupo 1181123" transform="translate(22.126 29.846)">
          <path id="Trazado_1013044" data-name="Trazado 1013044" d="M238.652,280.252a2.168,2.168,0,1,1,2.17-2.168A2.172,2.172,0,0,1,238.652,280.252Z" transform="translate(-236.482 -275.915)" fill="#ffd064"/>
        </g>
        <g id="Grupo_1181124" data-name="Grupo 1181124" transform="translate(0 48.592)">
          <path id="Trazado_1013045" data-name="Trazado 1013045" d="M85.757,451.06H39.612a1.112,1.112,0,0,1-1.112-1.112v-4.225a1.112,1.112,0,0,1,1.112-1.112l.445-.111H85.869a1.112,1.112,0,0,1,1.112,1.112V449.5l-.111.445A1.112,1.112,0,0,1,85.757,451.06Z" transform="translate(-38.389 -444.5)" fill="#ffd064"/>
          <path id="Trazado_1013046" data-name="Trazado 1013046" d="M86.092,449.5v.556a1.112,1.112,0,0,1-1.112,1.112H38.612A1.112,1.112,0,0,1,37.5,450.06v-4.448a1.112,1.112,0,0,1,1.112-1.112h.556v4.559a.445.445,0,0,0,.445.445Z" transform="translate(-37.5 -444.5)" fill="#ffc250"/>
        </g>
      </g>
      <g id="Grupo_1181126" data-name="Grupo 1181126" transform="translate(30 0)">
        <path id="Trazado_1013047" data-name="Trazado 1013047" d="M80.26,169.459v-4.448a1.947,1.947,0,0,0-1.668-1.924V160.4a.834.834,0,0,0-1.668,0v2.67h-5V152.446a.278.278,0,0,1,.278-.278h4.448a.278.278,0,0,1,.278.278V156.5a.834.834,0,0,0,1.668,0v-4.057a1.948,1.948,0,0,0-1.946-1.946H72.2a1.946,1.946,0,0,0-1.755,1.112H59.165a1.946,1.946,0,0,0-1.755-1.112H52.962a1.946,1.946,0,0,0-1.755,1.112H47.453a.834.834,0,1,0,0,1.668h3.563v4.048H40.007V153.28h3.556a.834.834,0,1,0,0-1.668H39.817a1.946,1.946,0,0,0-1.755-1.112H33.614a1.948,1.948,0,0,0-1.946,1.946v10.641A1.947,1.947,0,0,0,30,165.011v4.448a1.947,1.947,0,0,0,1.668,1.924v3.209a.834.834,0,0,0,1.668,0V171.4h5v10.953h-5v-3.874a.834.834,0,0,0-1.668,0v3.9A1.947,1.947,0,0,0,30,184.3v4.448a1.948,1.948,0,0,0,1.946,1.946H78.314a1.948,1.948,0,0,0,1.946-1.946V184.3a1.947,1.947,0,0,0-1.668-1.924v-11A1.947,1.947,0,0,0,80.26,169.459Zm-20.9-16.179h10.9v4.048h-10.9Zm0,5.716h10.9v4.069H62.515a2.5,2.5,0,0,0-2.493-2.3h-.667Zm3.109,18.71h7.788v4.652H40.007v-4.652H58.572a.834.834,0,0,0,0-1.668H40.007V171.4H47.9a4.176,4.176,0,0,0,4.009,3.025h6.449a4.176,4.176,0,0,0,4.009-3.025h7.889v4.633H62.464a.834.834,0,0,0,0,1.668Zm-9.78-25.259a.278.278,0,0,1,.278-.278h4.448a.278.278,0,0,1,.278.278v8.323h-5Zm7.339,9.991a.835.835,0,0,1,.834.834v6.989a2.5,2.5,0,0,1-2.5,2.5H51.905a2.5,2.5,0,0,1-2.5-2.5v-6.989a.835.835,0,0,1,.834-.834ZM40.007,159H51.016v1.774h-.778a2.5,2.5,0,0,0-2.493,2.3H40.007Zm-6.672-6.55a.278.278,0,0,1,.278-.278h4.448a.278.278,0,0,1,.278.278v10.619h-5Zm-1.39,17.291a.278.278,0,0,1-.278-.278v-4.448a.278.278,0,0,1,.278-.278h15.79V166.4H39.174a.834.834,0,1,0,0,1.668h8.562v1.668Zm46.646,19.014a.278.278,0,0,1-.278.278H31.946a.278.278,0,0,1-.278-.278V184.3a.278.278,0,0,1,.278-.278H78.314a.278.278,0,0,1,.278.278Zm-6.672-6.394V171.4h5v10.953Zm6.394-12.621H62.524v-1.668h8.562a.834.834,0,0,0,0-1.668H62.524v-1.668h15.79a.278.278,0,0,1,.278.278v4.448A.278.278,0,0,1,78.314,169.737Z" transform="translate(-30 -133.765)"/>
        <path id="Trazado_1013048" data-name="Trazado 1013048" d="M319.063,467h-9.229a.834.834,0,1,0,0,1.668h9.229a.834.834,0,1,0,0-1.668Z" transform="translate(-277.977 -415.072)"/>
        <path id="Trazado_1013049" data-name="Trazado 1013049" d="M115.174,467h-9.34a.834.834,0,1,0,0,1.668h9.34a.834.834,0,1,0,0-1.668Z" transform="translate(-96.66 -415.072)"/>
        <path id="Trazado_1013050" data-name="Trazado 1013050" d="M235.057,277.7v1.391a.834.834,0,1,0,1.668,0V277.7a2.516,2.516,0,1,0-1.668,0Zm.834-3.216a.846.846,0,1,1-.848.846A.848.848,0,0,1,235.891,274.479Z" transform="translate(-210.761 -242.476)"/>
        <path id="Trazado_1013051" data-name="Trazado 1013051" d="M206.651,6.67l1.057.592a5.6,5.6,0,0,1,2.15,2.15l.592,1.057a1.274,1.274,0,0,0,1.11.651h0a1.274,1.274,0,0,0,1.11-.651l.592-1.057a5.6,5.6,0,0,1,2.15-2.15l1.057-.592a1.273,1.273,0,0,0,0-2.221l-1.057-.592a5.6,5.6,0,0,1-2.15-2.15L212.67.651a1.273,1.273,0,0,0-2.221,0l-.592,1.057a5.6,5.6,0,0,1-2.15,2.15l-1.057.592a1.273,1.273,0,0,0,0,2.221Zm1.872-1.357a7.265,7.265,0,0,0,2.79-2.79l.247-.441.247.441a7.265,7.265,0,0,0,2.79,2.79l.441.247-.441.247a7.266,7.266,0,0,0-2.79,2.79l-.247.441-.247-.441a7.265,7.265,0,0,0-2.79-2.79l-.441-.247Z" transform="translate(-186.43 0)"/>
        <path id="Trazado_1013052" data-name="Trazado 1013052" d="M301,72.892a1.119,1.119,0,0,0,.572.975l.684.383a3.327,3.327,0,0,1,1.278,1.278l.383.684a1.118,1.118,0,0,0,1.951,0l.383-.684a3.327,3.327,0,0,1,1.278-1.278l.684-.383a1.118,1.118,0,0,0,0-1.951l-.684-.383a3.328,3.328,0,0,1-1.278-1.278l-.383-.684a1.118,1.118,0,0,0-1.951,0l-.383.684a3.327,3.327,0,0,1-1.278,1.278l-.684.383A1.119,1.119,0,0,0,301,72.892Zm3.892-1.656a4.993,4.993,0,0,0,1.656,1.656,4.993,4.993,0,0,0-1.656,1.656,4.994,4.994,0,0,0-1.656-1.656A4.993,4.993,0,0,0,304.892,71.236Z" transform="translate(-270.866 -61.328)"/>
        <path id="Trazado_1013053" data-name="Trazado 1013053" d="M141.572,73.867h0l.684.383a3.328,3.328,0,0,1,1.278,1.278l.383.684a1.118,1.118,0,0,0,1.951,0l.383-.684a3.327,3.327,0,0,1,1.278-1.278l.684-.383a1.118,1.118,0,0,0,0-1.951l-.684-.383a3.327,3.327,0,0,1-1.278-1.278l-.383-.684a1.118,1.118,0,0,0-1.95,0l-.383.684a3.327,3.327,0,0,1-1.278,1.278l-.684.383a1.118,1.118,0,0,0,0,1.951Zm3.32-2.631a5,5,0,0,0,1.656,1.656,5,5,0,0,0-1.656,1.656,5,5,0,0,0-1.656-1.656A5,5,0,0,0,144.893,71.236Z" transform="translate(-128.658 -61.328)"/>
        <circle id="Elipse_13790" data-name="Elipse 13790" cx="0.834" cy="0.834" r="0.834" transform="translate(5.004 20.839)"/>
        <circle id="Elipse_13791" data-name="Elipse 13791" cx="0.834" cy="0.834" r="0.834" transform="translate(5.004 25.064)"/>
        <circle id="Elipse_13792" data-name="Elipse 13792" cx="0.834" cy="0.834" r="0.834" transform="translate(43.588 20.839)"/>
        <circle id="Elipse_13793" data-name="Elipse 13793" cx="0.834" cy="0.834" r="0.834" transform="translate(43.588 25.064)"/>
        <circle id="Elipse_13794" data-name="Elipse 13794" cx="0.834" cy="0.834" r="0.834" transform="translate(5.004 32.635)"/>
        <circle id="Elipse_13795" data-name="Elipse 13795" cx="0.834" cy="0.834" r="0.834" transform="translate(43.588 32.635)"/>
        <circle id="Elipse_13796" data-name="Elipse 13796" cx="0.834" cy="0.834" r="0.834" transform="translate(5.004 40.104)"/>
        <circle id="Elipse_13797" data-name="Elipse 13797" cx="0.834" cy="0.834" r="0.834" transform="translate(43.588 40.104)"/>
        <circle id="Elipse_13798" data-name="Elipse 13798" cx="0.834" cy="0.834" r="0.834" transform="translate(5.004 44.329)"/>
        <circle id="Elipse_13799" data-name="Elipse 13799" cx="0.834" cy="0.834" r="0.834" transform="translate(43.588 44.329)"/>
        <ellipse id="Elipse_13800" data-name="Elipse 13800" cx="1.118" cy="0.745" rx="1.118" ry="0.745" transform="translate(4.79 52.179)"/>
        <circle id="Elipse_13801" data-name="Elipse 13801" cx="0.745" cy="0.745" r="0.745" transform="translate(43.551 52.179)"/>
        <circle id="Elipse_13802" data-name="Elipse 13802" cx="0.834" cy="0.834" r="0.834" transform="translate(27.632 51.928)"/>
        <circle id="Elipse_13803" data-name="Elipse 13803" cx="0.834" cy="0.834" r="0.834" transform="translate(24.296 51.928)"/>
        <circle id="Elipse_13804" data-name="Elipse 13804" cx="0.834" cy="0.834" r="0.834" transform="translate(20.96 51.928)"/>
      </g>
    </g>
  </g>
</svg>
