<svg xmlns="http://www.w3.org/2000/svg" width="100" height="100" viewBox="0 0 100 100">
  <g id="Grupo_1180939" data-name="Grupo 1180939" transform="translate(-637 -6992)">
    <g id="Grupo_1098742" data-name="Grupo 1098742" transform="translate(637.242 6992)">
      <rect id="Rectángulo_400898" data-name="Rectángulo 400898" width="100" height="100" rx="50" transform="translate(-0.242)" fill="#fff" opacity="0.859"/>
      <g id="Rectángulo_400907" data-name="Rectángulo 400907" transform="translate(-0.242)" fill="none" stroke="#c8bf57" stroke-linecap="round" stroke-width="3" stroke-dasharray="0 7">
        <rect width="100" height="100" rx="50" stroke="none"/>
        <rect x="1.5" y="1.5" width="97" height="97" rx="48.5" fill="none"/>
      </g>
    </g>
    <g id="Grupo_1107006" data-name="Grupo 1107006" transform="translate(645.398 7000.157)">
      <rect id="Rectángulo_400898-2" data-name="Rectángulo 400898" width="84" height="84" rx="42" transform="translate(-0.399 -0.157)" fill="#405425"/>
      <rect id="Rectángulo_400907-2" data-name="Rectángulo 400907" width="84" height="84" rx="42" transform="translate(-0.398 -0.157)" fill="none"/>
    </g>
    <g id="Grupo_1181128" data-name="Grupo 1181128" transform="translate(660.997 7015.999)">
      <path id="Trazado_1013054" data-name="Trazado 1013054" d="M5.93,35H47.98c0,12.025-9.412,21.775-21.025,21.775S5.93,47.025,5.93,35Z" transform="translate(-0.954 -6.58)" fill="#4dd7ff"/>
      <path id="Trazado_1013055" data-name="Trazado 1013055" d="M39.631,24.11l3.718-7.428a.806.806,0,0,1,1.444,0L52.14,31.369H36.01l3.629-7.258Z" transform="translate(-6.774 -2.948)" fill="#2e9972"/>
      <path id="Trazado_1013056" data-name="Trazado 1013056" d="M29,32.143H41.9l-5.734-11.46a.806.806,0,0,0-1.444,0L28.99,32.143Z" transform="translate(-5.416 -3.722)" fill="#36b385"/>
      <path id="Trazado_1013057" data-name="Trazado 1013057" d="M23.594,14.678A3.053,3.053,0,0,0,24.1,8.613V8.565a3.573,3.573,0,0,0-7.145,0v.048a3.053,3.053,0,0,0,.508,6.065Z" transform="translate(-2.593 -0.774)" fill="#36b385"/>
      <ellipse id="Elipse_13805" data-name="Elipse 13805" cx="2.419" cy="4.032" rx="2.419" ry="4.032" transform="translate(9.872 16.323)" fill="#ffda73"/>
      <path id="Trazado_1013058" data-name="Trazado 1013058" d="M11.436,26.266c-.436,1.081-1.177,1.8-2.016,1.8C8.081,28.065,7,26.258,7,24.032S8.081,20,9.419,20c.839,0,1.581.718,2.016,1.8Z" transform="translate(-1.161 -3.677)" fill="#e66d67"/>
      <path id="Trazado_1013059" data-name="Trazado 1013059" d="M38.708,56.041a3.735,3.735,0,0,1,.315-.476,8.8,8.8,0,0,1,2.178-2.1,3.438,3.438,0,0,0-.177-5.653l-.887-.5a3.345,3.345,0,0,1-1.524-3.4l.153-1.065a2.91,2.91,0,0,1,3.081-2.678l5.081.6A2.716,2.716,0,0,0,49.4,39.645a3.592,3.592,0,0,0,.661-2.153A3.518,3.518,0,0,1,50.974,35H54.3A21.665,21.665,0,0,1,38.716,56.033a.008.008,0,0,0-.008.008Z" transform="translate(-7.27 -6.58)" fill="#36b385"/>
      <path id="Trazado_1013060" data-name="Trazado 1013060" d="M16.019,53.608a13.175,13.175,0,0,0,5.186-.548l2.46-.766a3.366,3.366,0,0,0,1.452-.944,4.017,4.017,0,0,0,.75-3.742,3.142,3.142,0,0,0-4.024-2.3l-1.274.468c-2.048.75-4.137-.952-4.194-3.4l-.048-1.484a4.647,4.647,0,0,0-2.355-4.113L10.632,35.01H5.93A21.953,21.953,0,0,0,16.019,53.616Z" transform="translate(-0.954 -6.582)" fill="#36b385"/>
      <path id="Trazado_1013061" data-name="Trazado 1013061" d="M58.693,7.775a2.783,2.783,0,0,0-.976-.79,2.817,2.817,0,0,0-3.524-4.4,2.858,2.858,0,0,0-.952,1.331,3.622,3.622,0,1,0,.46,6.153,2.77,2.77,0,0,0,.516,1.145,2.824,2.824,0,0,0,4.476-3.444Z" transform="translate(-9.086 -0.194)" fill="#40d4ff"/>
      <path id="Trazado_1013062" data-name="Trazado 1013062" d="M5.637,6.607a2.559,2.559,0,1,0-.589-3.444c-.016,0-.024-.016-.04-.024a2.139,2.139,0,1,0,.629,3.476Z" transform="translate(-0.192 -0.195)" fill="#40d4ff"/>
      <path id="Trazado_1013063" data-name="Trazado 1013063" d="M53.08,11.041a3.678,3.678,0,0,0,.306.476,3.632,3.632,0,0,0,6.476-1.742,3.584,3.584,0,0,0-.726-2.686,3.511,3.511,0,0,0-.4-.444,3.624,3.624,0,0,0-5.226-4.887,3.555,3.555,0,0,0-.863.944,4.471,4.471,0,0,0-3.96.726,4.432,4.432,0,0,0,4.387,7.613ZM48.6,6.581a2.818,2.818,0,0,1,4.089-2.137.809.809,0,0,0,.669.032.794.794,0,0,0,.46-.492A2.013,2.013,0,0,1,57.322,3.4a2,2,0,0,1-.315,2.766.8.8,0,0,0-.282.71.813.813,0,0,0,.436.629,2,2,0,0,1,.694.565,2.024,2.024,0,0,1,.4,1.492,2.052,2.052,0,0,1-.766,1.339A2,2,0,0,1,54.3,9.718a.8.8,0,0,0-.5-.589.744.744,0,0,0-.29-.056.757.757,0,0,0-.468.153A2.82,2.82,0,0,1,48.6,6.573Z" transform="translate(-8.892 0)"/>
      <path id="Trazado_1013064" data-name="Trazado 1013064" d="M2.751,7.593a2.974,2.974,0,0,0,1.194.258A2.911,2.911,0,0,0,5.5,7.4c.04.016.081.04.113.056a3.361,3.361,0,1,0-1.04-5.42,2.941,2.941,0,0,0-1.686.129A2.938,2.938,0,0,0,1.2,5.964,2.887,2.887,0,0,0,2.759,7.593ZM2.726,4.367a1.325,1.325,0,0,1,1.218-.79,1.275,1.275,0,0,1,.508.1.286.286,0,0,0,.073.032.8.8,0,0,0,1-.3,1.737,1.737,0,0,1,2.169-.637,1.751,1.751,0,1,1-1.419,3.2,1.7,1.7,0,0,1-.339-.2.8.8,0,0,0-1.048.073,1.33,1.33,0,0,1-2.178-.46,1.307,1.307,0,0,1,.024-1.016Z" transform="translate(0 -0.004)"/>
      <path id="Trazado_1013065" data-name="Trazado 1013065" d="M15.632,15.291H17.89v12.9H13.858V25.622c1.4-.524,2.419-2.4,2.419-4.686,0-2.71-1.419-4.839-3.226-4.839a2.634,2.634,0,0,0-2.016,1.04A2.646,2.646,0,0,0,9.019,16.1c-1.807,0-3.226,2.129-3.226,4.839,0,2.29,1.016,4.161,2.419,4.686v2.573H5.736A.809.809,0,0,0,4.93,29c0,12.452,9.791,22.582,21.832,22.582S48.593,41.453,48.593,29a.809.809,0,0,0-.806-.806H46.617L39.5,13.952a1.612,1.612,0,0,0-2.887,0l-2.992,5.984-1.379-2.758a1.612,1.612,0,0,0-2.887,0L23.842,28.195H22.729V23.686l2.992-2.992-1.137-1.137L22.737,21.4v-2.9H21.124v9.678H19.511v-12.9h2.258a3.861,3.861,0,0,0,1.274-7.508,4.38,4.38,0,0,0-8.678,0,3.861,3.861,0,0,0,1.274,7.508ZM13.051,17.71c.758,0,1.613,1.379,1.613,3.226s-.855,3.226-1.613,3.226-1.613-1.379-1.613-3.226.855-3.226,1.613-3.226Zm-2.016,7.024a2.963,2.963,0,0,0,1.21.887v2.573H9.825V25.63a3,3,0,0,0,1.21-.887Zm-3.629-3.8c0-1.847.855-3.226,1.613-3.226.4,0,.839.4,1.153,1.032a6.988,6.988,0,0,0-.347,2.194,6.764,6.764,0,0,0,.347,2.194c-.315.637-.75,1.032-1.153,1.032C8.261,24.162,7.406,22.783,7.406,20.936Zm8.7,25.872a21.111,21.111,0,0,1-9.549-17h3.686l3.161,1.669A3.886,3.886,0,0,1,15.334,34.9l.048,1.476a4.567,4.567,0,0,0,1.911,3.7,3.681,3.681,0,0,0,3.363.436l1.266-.468a2.06,2.06,0,0,1,1.661.1,2.718,2.718,0,0,1,1.323,1.661,3.2,3.2,0,0,1-.565,2.968,2.522,2.522,0,0,1-1.1.718l-2.46.766a12.207,12.207,0,0,1-4.661.524Zm30.009-17h.847A21.048,21.048,0,0,1,35.318,48a4.13,4.13,0,0,0,1.573-3.476,4.033,4.033,0,0,0-1.976-3.4l-.887-.492A2.557,2.557,0,0,1,32.9,38.05l.153-1.073a2.115,2.115,0,0,1,2.186-1.984l5.081.6a3.532,3.532,0,0,0,3.226-1.468,4.349,4.349,0,0,0,.806-2.645,2.736,2.736,0,0,1,.5-1.661h1.258Zm-8.065-15.13,6.758,13.517H37.746L34.52,21.743ZM30.794,17.9l5.145,10.291H25.649Zm12.242,11.9a4.474,4.474,0,0,0-.29,1.7,2.692,2.692,0,0,1-.5,1.653,1.871,1.871,0,0,1-1.734.815l-5.081-.6a3.709,3.709,0,0,0-3.976,3.363L31.3,37.808a4.147,4.147,0,0,0,1.927,4.218l.887.5a2.436,2.436,0,0,1,1.161,2.065,2.536,2.536,0,0,1-1.032,2.218,9.617,9.617,0,0,0-2.387,2.3c-.056.081-.1.161-.153.242a19.572,19.572,0,0,1-4.936.629,19.347,19.347,0,0,1-7.815-1.637,14.384,14.384,0,0,0,2.307-.508l2.46-.766a4.226,4.226,0,0,0,1.823-1.186,4.849,4.849,0,0,0,.911-4.5,4.34,4.34,0,0,0-2.137-2.645,3.685,3.685,0,0,0-2.936-.185l-1.266.468a2.065,2.065,0,0,1-1.9-.25A2.954,2.954,0,0,1,17,36.348l-.048-1.468a5.421,5.421,0,0,0-2.79-4.823l-.46-.242H43.036ZM15.253,9.218a.85.85,0,0,0,.669-.839,2.766,2.766,0,1,1,5.532.048.806.806,0,0,0,.677.8,2.249,2.249,0,0,1-.379,4.468H19.5V12.218l1.984-1.032-.742-1.427L19.5,10.4V8.863H17.882V10.4L16.64,9.758,15.9,11.186l1.984,1.032v1.476H15.624a2.249,2.249,0,0,1-.379-4.468Z" transform="translate(-0.76 -0.581)"/>
    </g>
  </g>
</svg>
