<svg xmlns="http://www.w3.org/2000/svg" width="50" height="50" viewBox="0 0 50 50">
  <g id="Grupo_1181206" data-name="Grupo 1181206" transform="translate(0)">
    <g id="Grupo_1181205" data-name="Grupo 1181205" transform="translate(0 0)">
      <path id="Trazado_1013123" data-name="Trazado 1013123" d="M49.118,23.56l-.811-.414A23.145,23.145,0,0,0,42.791,9.833l.281-.866a1.617,1.617,0,0,0-2.037-2.039l-.868.282A23.456,23.456,0,0,0,35.62,4.166a.732.732,0,1,0-.666,1.3A21.98,21.98,0,0,1,38.51,7.747l-1.295.42-.026-.021a20.809,20.809,0,0,0-8.925-3.689l-.618-1.212a21.852,21.852,0,0,1,4.133.909.732.732,0,0,0,.453-1.393,23.338,23.338,0,0,0-5.376-1.067L26.441.883a1.617,1.617,0,0,0-2.881,0l-.414.811A23.15,23.15,0,0,0,9.833,7.209l-.868-.282A1.618,1.618,0,0,0,6.928,8.966l.282.867A23.142,23.142,0,0,0,1.694,23.146l-.812.414a1.617,1.617,0,0,0,0,2.881l.812.414A23.146,23.146,0,0,0,7.209,40.168l-.282.868a1.616,1.616,0,0,0,2.038,2.037l.867-.281a23.138,23.138,0,0,0,13.314,5.516l.414.811a1.617,1.617,0,0,0,2.881,0l.414-.811a23.142,23.142,0,0,0,13.314-5.515l.866.281a1.616,1.616,0,0,0,2.038-2.037l-.281-.867a23.143,23.143,0,0,0,5.515-13.314l.811-.414a1.617,1.617,0,0,0,0-2.881Zm-2.361-1.2-1.215-.62a20.8,20.8,0,0,0-3.687-8.924l-.022-.027.421-1.3a21.653,21.653,0,0,1,4.5,10.868Zm-5.692-2.9a16.882,16.882,0,0,0-.787-1.894c.01-.023.986-3.018.986-3.018A19.37,19.37,0,0,1,43.9,20.9s-2.808-1.431-2.831-1.44ZM43.9,29.105a19.362,19.362,0,0,1-2.633,6.353s-.973-2.995-.983-3.017a16.916,16.916,0,0,0,.786-1.9c.023-.009,2.83-1.439,2.83-1.439ZM35.458,41.263A19.357,19.357,0,0,1,29.105,43.9s1.43-2.806,1.438-2.828a16.919,16.919,0,0,0,1.9-.787c.021.009,3.016.982,3.016.982ZM20.9,43.9a19.355,19.355,0,0,1-6.352-2.633s2.994-.973,3.015-.982a16.9,16.9,0,0,0,1.9.786c.009.023,1.439,2.829,1.439,2.829Zm-6.352-7.4,2.8-2.8a11.576,11.576,0,0,0,1.847,1.333.613.613,0,0,1,.294.641l-.67,3.58a15.455,15.455,0,0,1-4.267-2.758ZM6.105,20.9a19.368,19.368,0,0,1,2.633-6.352s.976,3,.986,3.018a16.888,16.888,0,0,0-.787,1.894c-.023.009-2.831,1.44-2.831,1.44ZM14.543,8.738A19.368,19.368,0,0,1,20.9,6.105s-1.431,2.808-1.44,2.831a16.876,16.876,0,0,0-1.892.786c-.023-.01-3.021-.985-3.021-.985Zm9.725.751V13.43a11.5,11.5,0,0,0-6.921,2.88l-2.791-2.791A15.469,15.469,0,0,1,24.268,9.489Zm11.178,4.03L32.663,16.3a11.484,11.484,0,0,0-6.931-2.871V9.489A15.469,15.469,0,0,1,35.446,13.519Zm5.066,10.749H36.57a11.481,11.481,0,0,0-2.87-6.931l2.782-2.782A15.469,15.469,0,0,1,40.511,24.268ZM24.853,14.873a10.085,10.085,0,0,1,5.817,1.733h-11.3A10.016,10.016,0,0,1,24.853,14.873Zm-11.334-.318,2.791,2.791a11.5,11.5,0,0,0-2.88,6.921H9.489A15.469,15.469,0,0,1,13.519,14.555ZM9.489,25.733h3.944A11.623,11.623,0,0,0,16.3,32.661l-2.8,2.8a15.5,15.5,0,0,1-4.02-9.724Zm8.727,6.784a10.161,10.161,0,0,1-1.82-2.183h1.254a.567.567,0,0,1,.567.567Zm-.567-14.446H32.386a10.223,10.223,0,0,1,.928,1.141H29.257a2.533,2.533,0,0,0-1.8.747l-1.687,1.687a1.085,1.085,0,0,1-1.534,0l-1.687-1.687a2.533,2.533,0,0,0-1.8-.747H16.717a10.325,10.325,0,0,1,.932-1.141ZM31.785,32.516V30.9a.567.567,0,0,1,.567-.567H33.6A10.188,10.188,0,0,1,31.785,32.516Zm-.594,6.739-.67-3.583a.618.618,0,0,1,.3-.645,11.537,11.537,0,0,0,1.841-1.33l2.8,2.8a15.44,15.44,0,0,1-4.27,2.758ZM36.5,35.461l-2.8-2.8a11.643,11.643,0,0,0,2.874-6.927h3.943A15.489,15.489,0,0,1,36.5,35.461Zm4.99-27.14a.152.152,0,0,1,.192.192L39.3,15.834A17.131,17.131,0,0,0,34.167,10.7Zm-6.029.417s-3,.975-3.021.985a16.88,16.88,0,0,0-1.891-.786C30.536,8.913,29.1,6.1,29.1,6.1a19.375,19.375,0,0,1,6.353,2.634ZM25,1.465a.143.143,0,0,1,.136.083L28.63,8.4a17.02,17.02,0,0,0-7.26,0l3.494-6.851A.142.142,0,0,1,25,1.465ZM22.356,3.243l-.62,1.215a20.8,20.8,0,0,0-8.925,3.688l-.026.021-1.3-.421A21.657,21.657,0,0,1,22.356,3.243Zm-14,5.115a.143.143,0,0,1,.155-.038l7.32,2.376A17.129,17.129,0,0,0,10.7,15.834L8.321,8.514a.143.143,0,0,1,.037-.155Zm-.612,3.13.421,1.3-.022.027a20.806,20.806,0,0,0-3.687,8.923l-1.215.62A21.65,21.65,0,0,1,7.746,11.488ZM1.465,25a.143.143,0,0,1,.083-.136L8.4,21.37a17.019,17.019,0,0,0,0,7.26L1.548,25.136A.143.143,0,0,1,1.465,25Zm1.779,2.645,1.215.62a20.8,20.8,0,0,0,.578,2.58.732.732,0,1,0,1.406-.411c-.128-.437-.239-.881-.336-1.328,0,0,2.806,1.429,2.829,1.438a16.952,16.952,0,0,0,.786,1.9c-.009.022-.983,3.016-.983,3.016A19.351,19.351,0,0,1,7.684,33.6a.732.732,0,0,0-1.311.653,20.866,20.866,0,0,0,1.8,2.956l-.421,1.3a21.655,21.655,0,0,1-4.5-10.867ZM8.513,41.679a.152.152,0,0,1-.192-.192l2.374-7.313a17.051,17.051,0,0,0,5.133,5.132Zm2.975.575,1.3-.421a20.8,20.8,0,0,0,8.95,3.709l.62,1.215A21.645,21.645,0,0,1,11.488,42.254ZM25,48.535a.143.143,0,0,1-.136-.083L21.371,41.6a16.905,16.905,0,0,0,1.732.285.732.732,0,1,0,.162-1.456,15.572,15.572,0,0,1-3.062-.657l.717-3.834a2.08,2.08,0,0,0-1-2.177c-.081-.047-.161-.1-.241-.145V30.9a2.034,2.034,0,0,0-2.031-2.031h-2q-.106-.255-.2-.516h.769a.732.732,0,1,0,0-1.465H15.051a10.1,10.1,0,0,1-.15-1.155h.874a.732.732,0,0,0,0-1.465H14.9a9.966,9.966,0,0,1,.152-1.155h1.165a.732.732,0,0,0,0-1.465h-.765a10.062,10.062,0,0,1,.405-.971h4.887a1.078,1.078,0,0,1,.767.318L23.2,22.681a2.55,2.55,0,0,0,3.606,0l1.687-1.687a1.078,1.078,0,0,1,.767-.318h4.908a9.969,9.969,0,0,1,.4.971h-.779a.732.732,0,0,0,0,1.465h1.17a10.187,10.187,0,0,1,.149,1.155h-.876a.732.732,0,0,0,0,1.465H35.1a10.038,10.038,0,0,1-.153,1.155H33.784a.732.732,0,0,0,0,1.465h.768c-.061.174-.126.346-.2.516h-2A2.034,2.034,0,0,0,30.32,30.9v2.719c-.078.048-.156.1-.236.142a2.085,2.085,0,0,0-1,2.18l.718,3.836a15.621,15.621,0,0,1-3.148.664.733.733,0,0,0,.076,1.461.777.777,0,0,0,.078,0,16.938,16.938,0,0,0,1.826-.3l-3.494,6.849a.143.143,0,0,1-.136.083Zm2.645-1.778.62-1.215a20.8,20.8,0,0,0,8.95-3.709l1.3.421A21.651,21.651,0,0,1,27.645,46.757Zm14-5.115a.142.142,0,0,1-.155.037l-7.313-2.373a17.046,17.046,0,0,0,5.132-5.132l2.373,7.314a.142.142,0,0,1-.037.154Zm.612-3.129-.421-1.3a20.8,20.8,0,0,0,3.709-8.95l1.215-.62A21.649,21.649,0,0,1,42.254,38.513Zm6.2-13.377L41.6,28.631a17.025,17.025,0,0,0,0-7.26l6.85,3.494a.152.152,0,0,1,0,.271Z" transform="translate(0 0)" fill="#ffd600"/>
      <path id="Trazado_1013124" data-name="Trazado 1013124" d="M179.426,227.444a3.271,3.271,0,1,0-3.271,3.271A3.274,3.274,0,0,0,179.426,227.444Zm-3.271,1.806a1.806,1.806,0,1,1,1.806-1.806A1.808,1.808,0,0,1,176.156,229.249Z" transform="translate(-156.002 -202.281)" fill="#ffd600"/>
      <path id="Trazado_1013125" data-name="Trazado 1013125" d="M275.407,230.714a3.271,3.271,0,1,0-3.271-3.271A3.274,3.274,0,0,0,275.407,230.714Zm0-5.076a1.806,1.806,0,1,1-1.806,1.806A1.808,1.808,0,0,1,275.407,225.638Z" transform="translate(-245.56 -202.281)" fill="#ffd600"/>
      <path id="Trazado_1013126" data-name="Trazado 1013126" d="M238.743,361.041a.732.732,0,0,0,0-1.036l-.818-.818.818-.818a.732.732,0,1,0-1.036-1.036l-.818.818-.818-.818a.732.732,0,1,0-1.036,1.036l.818.818-.818.818a.732.732,0,0,0,1.036,1.036l.818-.818.818.818a.733.733,0,0,0,1.036,0Z" transform="translate(-211.889 -322.244)" fill="#ffd600"/>
      <path id="Trazado_1013127" data-name="Trazado 1013127" d="M223.034,284.179v-.639a1.619,1.619,0,0,0-1.617-1.617h-.435v-1.775a.732.732,0,0,0-1.465,0v2.507a.732.732,0,0,0,.732.732h1.167a.152.152,0,0,1,.152.152v.639a.152.152,0,0,1-.152.152h-4.768a.152.152,0,0,1-.152-.152v-.639a.152.152,0,0,1,.152-.152h1.167a.732.732,0,0,0,.732-.732v-2.507a.732.732,0,0,0-1.465,0v1.775h-.435a1.619,1.619,0,0,0-1.617,1.617v.639a1.619,1.619,0,0,0,1.617,1.617h4.768A1.619,1.619,0,0,0,223.034,284.179Z" transform="translate(-194.033 -252.128)" fill="#ffd600"/>
      <path id="Trazado_1013128" data-name="Trazado 1013128" d="M298.809,251.628h.008a.732.732,0,0,0,.007-1.465h-.017a.729.729,0,0,0-.728.725A.736.736,0,0,0,298.809,251.628Z" transform="translate(-268.97 -225.733)" fill="#ffd600"/>
      <path id="Trazado_1013129" data-name="Trazado 1013129" d="M199.666,250.163h-.017a.729.729,0,0,0-.728.725.736.736,0,0,0,.729.74h.008a.732.732,0,0,0,.007-1.465Z" transform="translate(-179.495 -225.733)" fill="#ffd600"/>
      <path id="Trazado_1013130" data-name="Trazado 1013130" d="M194.516,119.052l.175.424a.732.732,0,1,0,1.353-.561l-.175-.424a.732.732,0,1,0-1.353.561Z" transform="translate(-175.47 -106.512)" fill="#ffd600"/>
      <path id="Trazado_1013131" data-name="Trazado 1013131" d="M376.059,300.973l-.424-.176a.732.732,0,0,0-.561,1.353l.424.176a.732.732,0,1,0,.561-1.353Z" transform="translate(-338.037 -271.372)" fill="#ffd600"/>
      <path id="Trazado_1013132" data-name="Trazado 1013132" d="M118.491,195.871l.424.176a.732.732,0,0,0,.561-1.353l-.424-.176a.732.732,0,0,0-.561,1.353Z" transform="translate(-106.512 -175.471)" fill="#ffd600"/>
      <path id="Trazado_1013133" data-name="Trazado 1013133" d="M301.193,119.872a.732.732,0,0,0,.957-.4l.176-.424a.732.732,0,1,0-1.353-.561l-.175.424A.732.732,0,0,0,301.193,119.872Z" transform="translate(-271.371 -106.511)" fill="#ffd600"/>
      <path id="Trazado_1013134" data-name="Trazado 1013134" d="M119.873,301.193a.733.733,0,0,0-.957-.4l-.424.176a.732.732,0,1,0,.561,1.353l.424-.176A.733.733,0,0,0,119.873,301.193Z" transform="translate(-106.512 -271.372)" fill="#ffd600"/>
      <path id="Trazado_1013135" data-name="Trazado 1013135" d="M374.677,195.65a.732.732,0,0,0,.957.4l.424-.176a.732.732,0,0,0-.561-1.353l-.424.176A.732.732,0,0,0,374.677,195.65Z" transform="translate(-338.036 -175.471)" fill="#ffd600"/>
    </g>
  </g>
</svg>
