<svg xmlns="http://www.w3.org/2000/svg" width="50" height="49.167" viewBox="0 0 50 49.167">
  <g id="Grupo_1181207" data-name="Grupo 1181207" transform="translate(0)">
    <path id="Trazado_1013136" data-name="Trazado 1013136" d="M2.5,15.833h.833v3.333A.833.833,0,0,0,4.167,20h6.667a.833.833,0,0,0,.833-.833V15.833H12.5a2.5,2.5,0,0,0,2.5-2.5V11.667a5,5,0,0,0-4.241-4.936A4.159,4.159,0,1,0,3.333,4.167a4.129,4.129,0,0,0,.907,2.564A5,5,0,0,0,0,11.667v1.667a2.5,2.5,0,0,0,2.5,2.5Zm5-14.167A2.5,2.5,0,1,1,5,4.167,2.5,2.5,0,0,1,7.5,1.667Zm-5.833,10A3.333,3.333,0,0,1,5,8.333H6.667v2.5H8.333v-2.5H10a3.333,3.333,0,0,1,3.333,3.333v1.667a.833.833,0,0,1-.833.833h-.833v-2.5H10v6.667H5V11.667H3.333v2.5H2.5a.833.833,0,0,1-.833-.833Zm0,0" fill="#ffd600"/>
    <path id="Trazado_1013137" data-name="Trazado 1013137" d="M339.333,4.167a4.129,4.129,0,0,0,.907,2.564A5,5,0,0,0,336,11.667v1.667a2.5,2.5,0,0,0,2.5,2.5h.833v3.333a.833.833,0,0,0,.833.833h6.667a.833.833,0,0,0,.833-.833V15.833h.833a2.5,2.5,0,0,0,2.5-2.5V11.667a5,5,0,0,0-4.241-4.936,4.159,4.159,0,1,0-7.426-2.564Zm10,7.5v1.667a.833.833,0,0,1-.833.833h-.833v-2.5H346v6.667h-5V11.667h-1.667v2.5H338.5a.833.833,0,0,1-.833-.833V11.667A3.334,3.334,0,0,1,341,8.333h1.667v2.5h1.667v-2.5H346A3.334,3.334,0,0,1,349.333,11.667Zm-5.833-10a2.5,2.5,0,1,1-2.5,2.5A2.5,2.5,0,0,1,343.5,1.667Zm0,0" transform="translate(-301)" fill="#ffd600"/>
    <path id="Trazado_1013138" data-name="Trazado 1013138" d="M2.5,295.833h.833v3.333a.833.833,0,0,0,.833.833h6.667a.833.833,0,0,0,.833-.833v-3.333H12.5a2.5,2.5,0,0,0,2.5-2.5v-1.667a5,5,0,0,0-4.241-4.936,4.159,4.159,0,1,0-7.426-2.564,4.129,4.129,0,0,0,.907,2.564A5,5,0,0,0,0,291.667v1.667a2.5,2.5,0,0,0,2.5,2.5Zm5-14.167a2.5,2.5,0,1,1-2.5,2.5A2.5,2.5,0,0,1,7.5,281.667Zm-5.833,10A3.334,3.334,0,0,1,5,288.333H6.667v2.5H8.333v-2.5H10a3.334,3.334,0,0,1,3.333,3.333v1.667a.833.833,0,0,1-.833.833h-.833v-2.5H10v6.667H5v-6.667H3.333v2.5H2.5a.833.833,0,0,1-.833-.833Zm0,0" transform="translate(0 -250.833)" fill="#ffd600"/>
    <path id="Trazado_1013139" data-name="Trazado 1013139" d="M351,291.667a5,5,0,0,0-4.241-4.936,4.167,4.167,0,1,0-6.519,0A5,5,0,0,0,336,291.667v1.667a2.5,2.5,0,0,0,2.5,2.5h.833v3.333a.833.833,0,0,0,.833.833h6.667a.833.833,0,0,0,.833-.833v-3.333h.833a2.5,2.5,0,0,0,2.5-2.5Zm-7.5-10a2.5,2.5,0,1,1-2.5,2.5A2.5,2.5,0,0,1,343.5,281.667Zm5.833,11.667a.833.833,0,0,1-.833.833h-.833v-2.5H346v6.667h-5v-6.667h-1.667v2.5H338.5a.833.833,0,0,1-.833-.833v-1.667A3.334,3.334,0,0,1,341,288.333h1.667v2.5h1.667v-2.5H346a3.334,3.334,0,0,1,3.333,3.333Zm0,0" transform="translate(-301 -250.833)" fill="#ffd600"/>
    <path id="Trazado_1013140" data-name="Trazado 1013140" d="M40.289,206.672a21.04,21.04,0,0,0,0,6.943l1.643-.277a19.4,19.4,0,0,1,0-6.39Zm0,0" transform="translate(-35.834 -185.144)" fill="#ffd600"/>
    <path id="Trazado_1013141" data-name="Trazado 1013141" d="M423.1,213.615a21.04,21.04,0,0,0,0-6.943l-1.643.277a19.4,19.4,0,0,1,0,6.39Zm0,0" transform="translate(-377.555 -185.143)" fill="#ffd600"/>
    <path id="Trazado_1013142" data-name="Trazado 1013142" d="M166.661,43.794l.765-1.481a20.874,20.874,0,0,0-19.1,0l.765,1.481a19.206,19.206,0,0,1,17.568,0Zm0,0" transform="translate(-132.877 -35.834)" fill="#ffd600"/>
    <path id="Trazado_1013143" data-name="Trazado 1013143" d="M176.644,410.2l-.667-1.528a19.225,19.225,0,0,1-15.342,0l-.667,1.528a20.9,20.9,0,0,0,16.676,0Zm0,0" transform="translate(-143.306 -366.102)" fill="#ffd600"/>
    <path id="Trazado_1013144" data-name="Trazado 1013144" d="M139.667,151.333A11.667,11.667,0,1,0,128,139.667,11.667,11.667,0,0,0,139.667,151.333Zm1.667-1.818v-1.1l3-2.25a.833.833,0,0,0,.25-1.039l-.629-1.258,2.117-3.537,1.87-.75,1.7.667a10,10,0,0,1-8.3,9.266Zm8.25-11.073-1.342-.527a.836.836,0,0,0-.613,0l-2.439.976a.833.833,0,0,0-.4.344l-2.5,4.167a.833.833,0,0,0-.032.8l.522,1.045L140,147.333a.833.833,0,0,0-.333.667v1.667a10,10,0,0,1-9.537-13l2.121,1.056.763,4.583a.832.832,0,0,0,.321.529l3.333,2.5a.832.832,0,0,0,1.178-.182l4.167-5.833a.828.828,0,0,0,.154-.486V135.5a.833.833,0,0,0-.4-.714L137.8,132.41l-1.138-2.281a9.989,9.989,0,0,1,12.917,8.313Zm-14.462-7.671,1.3,2.6a.83.83,0,0,0,.317.342l3.763,2.257v2.6l-3.516,4.921L134.6,141.7l-.779-4.667a.833.833,0,0,0-.449-.608l-2.6-1.3a10.056,10.056,0,0,1,4.35-4.353Zm0,0" transform="translate(-114.667 -114.667)" fill="#ffd600"/>
    <path id="Trazado_1013145" data-name="Trazado 1013145" d="M64,120h1.667v1.667H64Zm0,0" transform="translate(-57.333 -107.5)" fill="#ffd600"/>
    <path id="Trazado_1013146" data-name="Trazado 1013146" d="M64,400h1.667v1.667H64Zm0,0" transform="translate(-57.333 -358.333)" fill="#ffd600"/>
    <path id="Trazado_1013147" data-name="Trazado 1013147" d="M400,400h1.667v1.667H400Zm0,0" transform="translate(-358.333 -358.333)" fill="#ffd600"/>
    <path id="Trazado_1013148" data-name="Trazado 1013148" d="M400,120h1.667v1.667H400Zm0,0" transform="translate(-358.333 -107.5)" fill="#ffd600"/>
  </g>
</svg>
