<svg xmlns="http://www.w3.org/2000/svg" width="50" height="44.784" viewBox="0 0 50 44.784">
  <path id="Trazado_1013151" data-name="Trazado 1013151" d="M48.654,38.75A22.4,22.4,0,0,1,5.617,30.736H3.649a.649.649,0,0,1-.5-1.067l4.319-5.137a.649.649,0,0,1,.994,0l4.319,5.137a.649.649,0,0,1-.5,1.067H10.34a17.674,17.674,0,0,0,34.553,4.55.649.649,0,0,1,1.242.382,19.124,19.124,0,0,1-6.761,9.6A18.971,18.971,0,0,1,9.03,30.086a.65.65,0,0,1,.649-.649h1.214L7.969,25.958,5.044,29.437H6.258a.65.65,0,0,1,.649.649,21.1,21.1,0,0,0,40.55,8.161.649.649,0,1,1,1.2.5Zm4.285-8.938a.649.649,0,0,0-.589-.375H50.382A22.4,22.4,0,0,0,7.345,21.422a.649.649,0,0,0,1.2.5,21.1,21.1,0,0,1,40.55,8.161.65.65,0,0,0,.649.649h1.213l-2.924,3.479-2.924-3.479H46.32a.65.65,0,0,0,.649-.649A18.973,18.973,0,0,0,9.864,24.505a.649.649,0,0,0,1.242.382,17.674,17.674,0,0,1,34.553,4.55H43.713a.649.649,0,0,0-.5,1.067l4.319,5.137a.649.649,0,0,0,.994,0L52.847,30.5a.65.65,0,0,0,.092-.692Zm-24.29,2.354v3.254a6.172,6.172,0,0,1,4.362,2.564,3.557,3.557,0,0,1,2.572,6.393.648.648,0,0,1-.384.126H20.8a.65.65,0,0,1-.384-.126,3.557,3.557,0,0,1,2.572-6.393,6.171,6.171,0,0,1,4.362-2.564V32.183c-.179.012-.357.018-.536.018a8.444,8.444,0,0,1-7.888-11.491.649.649,0,0,1,.923-.333,15.094,15.094,0,0,0,2.695,1,16.449,16.449,0,0,1,4.484,1.886c1.507-2.6,4.682-3.7,7.507-4.676a19.257,19.257,0,0,0,3.41-1.4.649.649,0,0,1,.934.3,10.549,10.549,0,0,1-9.715,14.695c-.171,0-.343,0-.516-.013Zm-.737-7.781a7.2,7.2,0,0,0,.051,5.106,16.264,16.264,0,0,1,4.909-7.231.649.649,0,0,1,.82,1.007,15.089,15.089,0,0,0-4.563,6.817q-.1.386-.232.792A9.249,9.249,0,0,0,37.94,18.662a27.884,27.884,0,0,1-2.979,1.154c-2.782.963-5.934,2.054-7.049,4.569Zm-.9,6.514A11.964,11.964,0,0,0,22.6,25.8a.649.649,0,1,1,.674-1.11,11.662,11.662,0,0,1,2.918,2.54,7.23,7.23,0,0,1,.294-2.758,14.44,14.44,0,0,0-4.327-1.856c-.8-.248-1.577-.486-2.246-.769a7.144,7.144,0,0,0,7.1,9.049ZM28,36.682a4.858,4.858,0,0,0-4.15,2.358.65.65,0,0,1-.729.293,2.258,2.258,0,0,0-2.092,3.872H34.971a2.259,2.259,0,0,0-2.092-3.872.65.65,0,0,1-.729-.293A4.856,4.856,0,0,0,28,36.682Zm-1.764,2.154a.65.65,0,0,0,.649.649h2.23a.649.649,0,0,0,0-1.3h-2.23A.649.649,0,0,0,26.235,38.836ZM24.9,40.648h-2.23a.649.649,0,0,0,0,1.3H24.9a.649.649,0,1,0,0-1.3Zm6.191,1.3h2.23a.649.649,0,0,0,0-1.3H31.1a.649.649,0,0,0,0,1.3Z" transform="translate(-3 -7.694)" fill="#ffd600"/>
</svg>
