<svg xmlns="http://www.w3.org/2000/svg" width="100" height="100" viewBox="0 0 100 100">
  <g id="Grupo_1181018" data-name="Grupo 1181018" transform="translate(-637 -6992)">
    <g id="Grupo_1098742" data-name="Grupo 1098742" transform="translate(637.242 6992)">
      <rect id="Rectángulo_400898" data-name="Rectángulo 400898" width="100" height="100" rx="50" transform="translate(-0.242)" fill="#fff" opacity="0.859"/>
      <g id="Rectángulo_400907" data-name="Rectángulo 400907" transform="translate(-0.242)" fill="none" stroke="#c8bf57" stroke-linecap="round" stroke-width="3" stroke-dasharray="0 7">
        <rect width="100" height="100" rx="50" stroke="none"/>
        <rect x="1.5" y="1.5" width="97" height="97" rx="48.5" fill="none"/>
      </g>
    </g>
    <g id="Grupo_1107006" data-name="Grupo 1107006" transform="translate(645.398 7000.157)">
      <rect id="Rectángulo_400898-2" data-name="Rectángulo 400898" width="84" height="84" rx="42" transform="translate(-0.399 -0.157)" fill="#405425"/>
      <rect id="Rectángulo_400907-2" data-name="Rectángulo 400907" width="84" height="84" rx="42" transform="translate(-0.398 -0.157)" fill="none"/>
    </g>
    <g id="Grupo_1181217" data-name="Grupo 1181217" transform="translate(659.16 7014.453)">
      <circle id="Elipse_13832" data-name="Elipse 13832" cx="11" cy="11" r="11" transform="translate(16.428 2.428)" fill="#ffe38f"/>
      <path id="Trazado_1013200" data-name="Trazado 1013200" d="M30.933,8l1.833,3.907,4.1.626L33.9,15.573l.7,4.293L30.933,17.84l-3.667,2.027.7-4.293L25,12.533l4.1-.626Z" transform="translate(-3.505 -0.914)" fill="#ff8088"/>
      <path id="Trazado_1013201" data-name="Trazado 1013201" d="M24,45H37.561V58.561H24Z" transform="translate(-3.353 -6.554)" fill="#759acc"/>
      <path id="Trazado_1013202" data-name="Trazado 1013202" d="M3,45H16.561V58.561H3Z" transform="translate(-0.152 -6.554)" fill="#fcc84d"/>
      <path id="Trazado_1013203" data-name="Trazado 1013203" d="M45,45H58.561V58.561H45Z" transform="translate(-6.554 -6.554)" fill="#fcc84d"/>
      <path id="Trazado_1013204" data-name="Trazado 1013204" d="M9,45h3.39v5.086H9Z" transform="translate(-1.067 -6.554)" fill="#c8a25f"/>
      <path id="Trazado_1013205" data-name="Trazado 1013205" d="M51,45h3.39v5.086H51Z" transform="translate(-7.468 -6.554)" fill="#c8a25f"/>
      <path id="Trazado_1013206" data-name="Trazado 1013206" d="M2.848,59.257H16.409a.847.847,0,0,0,.848-.848V44.848A.847.847,0,0,0,16.409,44H2.848A.847.847,0,0,0,2,44.848V58.409A.847.847,0,0,0,2.848,59.257ZM8.781,45.7h1.7v3.39h-1.7ZM3.7,45.7h3.39v4.238a.847.847,0,0,0,.848.848h3.39a.847.847,0,0,0,.848-.848V45.7h3.39V57.561H3.7Z" transform="translate(0 -6.401)"/>
      <path id="Trazado_1013207" data-name="Trazado 1013207" d="M23,44.848V58.409a.847.847,0,0,0,.848.848H37.409a.847.847,0,0,0,.848-.848V44.848A.847.847,0,0,0,37.409,44H23.848A.847.847,0,0,0,23,44.848Zm13.561.848v2.543h-3.39v1.7h3.39v7.628H24.7V49.933h3.39v-1.7H24.7V45.7Z" transform="translate(-3.201 -6.401)"/>
      <path id="Trazado_1013208" data-name="Trazado 1013208" d="M44,44.848V58.409a.847.847,0,0,0,.848.848H58.409a.847.847,0,0,0,.848-.848V44.848A.847.847,0,0,0,58.409,44H44.848A.847.847,0,0,0,44,44.848Zm6.781.848h1.7v3.39h-1.7Zm-5.086,0h3.39v4.238a.847.847,0,0,0,.848.848h3.39a.847.847,0,0,0,.848-.848V45.7h3.39V57.561H45.7Z" transform="translate(-6.401 -6.401)"/>
      <path id="Trazado_1013209" data-name="Trazado 1013209" d="M31,49h1.7v1.7H31Z" transform="translate(-4.42 -7.163)"/>
      <path id="Trazado_1013210" data-name="Trazado 1013210" d="M24.72,11.542a.848.848,0,0,0-.479,1.43l2.667,2.734-.631,3.871a.848.848,0,0,0,1.247.879l3.257-1.8,3.257,1.8a.848.848,0,0,0,1.246-.879l-.631-3.871,2.667-2.734a.848.848,0,0,0-.479-1.43l-3.653-.559-1.642-3.5a.846.846,0,0,0-1.532,0l-1.642,3.5Zm4.995.571,1.066-2.271,1.066,2.272a.847.847,0,0,0,.639.477l2.469.377-1.815,1.86a.846.846,0,0,0-.23.728l.42,2.571-2.139-1.182a.844.844,0,0,0-.819,0l-2.139,1.182.42-2.571a.849.849,0,0,0-.23-.728l-1.815-1.86,2.469-.377a.849.849,0,0,0,.637-.478Z" transform="translate(-3.353 -0.762)"/>
      <path id="Trazado_1013211" data-name="Trazado 1013211" d="M26.427,26.7l-.768,1.511a11.968,11.968,0,0,0,1.721.711l.521-1.613a10.273,10.273,0,0,1-1.475-.609Z" transform="translate(-3.606 -3.765)"/>
      <path id="Trazado_1013212" data-name="Trazado 1013212" d="M33.89,27.786l.264,1.675a11.877,11.877,0,0,0,1.81-.435l-.525-1.611a10.342,10.342,0,0,1-1.55.371Z" transform="translate(-4.86 -3.873)"/>
      <path id="Trazado_1013213" data-name="Trazado 1013213" d="M30.088,27.856l-.262,1.676a12.154,12.154,0,0,0,1.843.142h.012l-.012-1.7A10.237,10.237,0,0,1,30.088,27.856Z" transform="translate(-4.241 -3.941)"/>
      <path id="Trazado_1013214" data-name="Trazado 1013214" d="M39.812,27.076l-1-1.37a10.179,10.179,0,0,1-1.359.835l.771,1.51a11.672,11.672,0,0,0,1.586-.975Z" transform="translate(-5.404 -3.613)"/>
      <path id="Trazado_1013215" data-name="Trazado 1013215" d="M21.88,22.824a10.27,10.27,0,0,1-.837-1.358l-1.508.774a11.985,11.985,0,0,0,.976,1.583Z" transform="translate(-2.673 -2.967)"/>
      <path id="Trazado_1013216" data-name="Trazado 1013216" d="M44.919,20.23l-1.612-.524a10.124,10.124,0,0,1-.611,1.475l1.511.769A11.834,11.834,0,0,0,44.919,20.23Z" transform="translate(-6.202 -2.699)"/>
      <path id="Trazado_1013217" data-name="Trazado 1013217" d="M37.914,3.376a11.638,11.638,0,0,0-1.724-.709l-.518,1.614a9.916,9.916,0,0,1,1.474.606Z" transform="translate(-5.132 -0.102)"/>
      <path id="Trazado_1013218" data-name="Trazado 1013218" d="M33.554,3.814l.259-1.676A12.042,12.042,0,0,0,31.994,2H31.96l.034,1.7A10.283,10.283,0,0,1,33.554,3.814Z" transform="translate(-4.566)"/>
      <path id="Trazado_1013219" data-name="Trazado 1013219" d="M43.978,15.993a10.231,10.231,0,0,1-.124,1.591l1.676.264a12.068,12.068,0,0,0,.143-1.889l-.272,0Z" transform="translate(-6.379 -2.127)"/>
      <path id="Trazado_1013220" data-name="Trazado 1013220" d="M29.713,3.85l-.266-1.674a11.74,11.74,0,0,0-1.81.438l.528,1.61A10.253,10.253,0,0,1,29.713,3.85Z" transform="translate(-3.907 -0.027)"/>
      <path id="Trazado_1013221" data-name="Trazado 1013221" d="M43.779,13.7l1.674-.271a11.881,11.881,0,0,0-.442-1.809l-1.609.531a10.353,10.353,0,0,1,.376,1.549Z" transform="translate(-6.31 -1.466)"/>
      <path id="Trazado_1013222" data-name="Trazado 1013222" d="M42.524,10.088l1.506-.776a11.916,11.916,0,0,0-.978-1.582l-1.367,1a10.148,10.148,0,0,1,.839,1.356Z" transform="translate(-6.048 -0.873)"/>
      <path id="Trazado_1013223" data-name="Trazado 1013223" d="M26.1,5.049l-.773-1.508a11.815,11.815,0,0,0-1.584.978l1,1.367A10.16,10.16,0,0,1,26.1,5.049Z" transform="translate(-3.313 -0.235)"/>
      <path id="Trazado_1013224" data-name="Trazado 1013224" d="M20.894,10.437l-1.513-.765a11.948,11.948,0,0,0-.709,1.722l1.614.519A10.161,10.161,0,0,1,20.894,10.437Z" transform="translate(-2.541 -1.169)"/>
      <path id="Trazado_1013225" data-name="Trazado 1013225" d="M40.489,24.263l1.2,1.2a12,12,0,0,0,1.21-1.415l-1.372-1a10.074,10.074,0,0,1-1.036,1.213Z" transform="translate(-5.866 -3.208)"/>
      <path id="Trazado_1013226" data-name="Trazado 1013226" d="M19.816,14.1l-1.676-.26A12,12,0,0,0,18,15.671v.022l1.7-.022a10.219,10.219,0,0,1,.121-1.571Z" transform="translate(-2.439 -1.805)"/>
      <path id="Trazado_1013227" data-name="Trazado 1013227" d="M23.061,7.321l-1.2-1.2a11.924,11.924,0,0,0-1.205,1.417l1.372.994a10.18,10.18,0,0,1,1.035-1.215Z" transform="translate(-2.843 -0.629)"/>
      <path id="Trazado_1013228" data-name="Trazado 1013228" d="M18.174,18.169a11.764,11.764,0,0,0,.437,1.809l1.61-.526a10.123,10.123,0,0,1-.374-1.55Z" transform="translate(-2.465 -2.423)"/>
      <path id="Trazado_1013229" data-name="Trazado 1013229" d="M23.531,26.905l1-1.372A10.3,10.3,0,0,1,23.312,24.5l-1.2,1.2a12.009,12.009,0,0,0,1.416,1.207Z" transform="translate(-3.066 -3.429)"/>
      <path id="Trazado_1013230" data-name="Trazado 1013230" d="M41.432,5.849a11.921,11.921,0,0,0-1.419-1.2L39.021,6.02a10.211,10.211,0,0,1,1.216,1.032Z" transform="translate(-5.642 -0.403)"/>
      <path id="Trazado_1013231" data-name="Trazado 1013231" d="M36,31h1.7v7.628H36Z" transform="translate(-5.182 -4.42)"/>
      <path id="Trazado_1013232" data-name="Trazado 1013232" d="M31,33h1.7v7.628H31Z" transform="translate(-4.42 -4.725)"/>
      <path id="Trazado_1013233" data-name="Trazado 1013233" d="M26,31h1.7v7.628H26Z" transform="translate(-3.658 -4.42)"/>
    </g>
  </g>
</svg>
