<svg xmlns="http://www.w3.org/2000/svg" width="110" height="110" viewBox="0 0 110 110">
  <g id="Grupo_1180981" data-name="Grupo 1180981" transform="translate(-1291.064 -633)">
    <rect id="Rectángulo_454564" data-name="Rectángulo 454564" width="110" height="110" rx="10" transform="translate(1291.064 633)" fill="#c8bf57"/>
    <circle id="Elipse_13649" data-name="Elipse 13649" cx="42" cy="42" r="42" transform="translate(1304.064 646)" fill="#eeeccc"/>
    <g id="Grupo_1178519" data-name="Grupo 1178519" transform="translate(1320.071 653.007)">
      <g id="Grupo_1178519-2" data-name="Grupo 1178519" transform="translate(1.365 1.358)">
        <path id="Trazado_998103" data-name="Trazado 998103" d="M112.025,43.548h40.659a2,2,0,0,1,.261-1.569c2.7-4.033.813-5.9-1.887-6.179-2.147-.224-4.595-.08-5.1-.868-1.8-2.813-3.314-3.368-5.013-3.544-11.428-1.183-5.27-5.456-8.79-7.268-4.279-2.2,2.173-9.761,6.824-9.958,3.048-.129-.589-8.368-8.1-1.466-1.272,1.169-5.336,2.3-7.559,2.951-2.562.752-1.221,1.743-3.345,4.927-2.049,3.07-1.779.316-2.742,2.215-1.209,2.385-2.324,2.672-3.218,2.741-2.508.194-4.827,4.616-3.114,7.049,1.878,2.668.607,9.442.863,10.066A4.5,4.5,0,0,1,112.025,43.548Z" transform="translate(-105.624 -9.943)" fill="#ffc144" fill-rule="evenodd"/>
        <path id="Trazado_998104" data-name="Trazado 998104" d="M123.033,255.943H82.374c.495,2.725-1.037,6.536-3.313,6.671-4.335.258-1.3,2.166-2.732,3.032-1.346.816,1.508,3.359,2,3.34,3.058-.121,6.052,5.935,7.793,2.945.217-.374,1.935.082,3.793.815H113.9c.676-1.555,2.293-.872,2.9-2.039,1.052-2.028-1.314-3.775.172-4.666,2.947-1.765,4.667,3.03,7.439,1.386,2.384-1.414-1.881-5.733-.549-7.218C124.82,259.141,123.339,257.5,123.033,255.943Z" transform="translate(-75.972 -222.338)" fill="#60a4ff" fill-rule="evenodd"/>
        <path id="Trazado_998105" data-name="Trazado 998105" d="M202.012,378.943H178.025c2.338.922,4.9,2.28,4.986,2.977.326,2.669,2.022,1.1,1.987,2.276-.083,2.8,2.013,1.785,2.124,2.59.524,3.8,5.378,1.892,6.568,1.753,5.613-.656,3.015,7.751,6.383,7.179s1.568-4.659,2.072-8.072c.349-2.362,1.41-2.586.684-5.239-.464-1.7-1.347-2.171-.837-3.416Z" transform="translate(-164.084 -328.536)" fill="#ff5a58" fill-rule="evenodd"/>
      </g>
      <path id="Trazado_998106" data-name="Trazado 998106" d="M113.666,203.677a1.366,1.366,0,0,0,1.366-1.366h0a1.366,1.366,0,1,0-1.366,1.367Z" transform="translate(-105.972 -173.494)"/>
      <path id="Trazado_998107" data-name="Trazado 998107" d="M117.849,44.549a10.841,10.841,0,0,0-.879-2.669,8.108,8.108,0,0,1-.635-1.834c1.1-1.344.382-2.959-.1-4.036-.393-.879-.654-1.527-.435-1.853,1.531-2.283,1.93-4.246,1.187-5.834a4.74,4.74,0,0,0-4.066-2.465c-.613-.064-1.231-.1-1.828-.132a12.554,12.554,0,0,1-2.359-.26c-1.983-3.028-3.808-3.8-5.928-4.02-3.679-.381-5.139-1.071-5.715-1.583-.48-.427-.514-.869-.54-1.75a3.81,3.81,0,0,0-2.05-3.791c-.5-.259-.8-.611-.6-1.49.514-2.334,4.148-5.774,6.86-5.889a2.384,2.384,0,0,0,2.3-1.827,4.287,4.287,0,0,0-2.2-4.4c-1.2-.715-4.5-1.914-9.178,2.39-.952.875-4.732,1.978-6.549,2.508l-.47.137a3.6,3.6,0,0,0-2.889,2.879,8.736,8.736,0,0,1-1.207,2.6,6.8,6.8,0,0,1-.681.894c-1.3-.194-1.906.993-2.143,1.461-.968,1.909-1.652,1.961-2.105,2a4.927,4.927,0,0,0-3.407,2.059A6.989,6.989,0,0,0,70.746,22.9a1.366,1.366,0,0,0,2.693-.46,4.315,4.315,0,0,1,.942-3.117,2.373,2.373,0,0,1,1.463-1.015c1.23-.1,2.824-.569,4.285-3.394,1.048-.032,1.859-.9,2.707-2.166a11.424,11.424,0,0,0,1.549-3.322c.249-.819.249-.819,1.045-1.053l.465-.136c3.273-.955,6.32-1.912,7.633-3.12,2.322-2.135,4.472-2.891,5.9-2.074a2.017,2.017,0,0,1,.962,1.185,10.421,10.421,0,0,0-5.64,2.726,10.594,10.594,0,0,0-3.518,5.289A3.82,3.82,0,0,0,93.25,16.75c.48.247.538.4.57,1.442a4.665,4.665,0,0,0,1.457,3.712c1.311,1.164,3.614,1.882,7.248,2.258,1.248.129,2.41.438,4,2.923.746,1.163,2.363,1.253,4.411,1.367.565.032,1.149.064,1.7.122a2.277,2.277,0,0,1,1.876.906c.3.632-.062,1.782-.982,3.154a3.161,3.161,0,0,0-.439.964H73.746a1.366,1.366,0,0,0-1.344,1.61,6.063,6.063,0,0,1-1.044,4.375,1.638,1.638,0,0,1-1.006.688c-1.737.1-2.723.464-3.3,1.207a2.543,2.543,0,0,0-.347,2.179l.008.039a2.108,2.108,0,0,0-.628,2.31c.384,1.275,2.337,3.425,3.663,3.367h.038c.805,0,1.969.994,2.907,1.8,1.271,1.085,2.475,2.111,3.868,1.966h.046a1.357,1.357,0,0,0,.709-.2,2.731,2.731,0,0,0,.931-.7,18.9,18.9,0,0,1,3.381,1.16A14.726,14.726,0,0,1,84.957,55.2a2.739,2.739,0,0,0,1.959,2.522,2.875,2.875,0,0,0,2.25,2.743A3.715,3.715,0,0,0,90.641,62.6c1.784,1.22,4.3.622,5.8.264.261-.062.556-.132.668-.145,1.679-.2,2.108.551,2.709,3.222a9.2,9.2,0,0,0,.828,2.554,2.651,2.651,0,0,0,2.368,1.44,3.275,3.275,0,0,0,.548-.048,3.549,3.549,0,0,0,3.03-2.639,11.065,11.065,0,0,0,.152-3.582,15.085,15.085,0,0,1,.013-3,7.123,7.123,0,0,1,.463-1.647,5.68,5.68,0,0,0,.187-4.152,9.113,9.113,0,0,0-.681-1.712c-.3-.605-.294-.617-.209-.824.1-.238.151-.284.75-.46a3.1,3.1,0,0,0,2.118-1.517,4.551,4.551,0,0,0,.008-3.815c-.044-.129-.1-.286-.136-.417.555-.238,1.028-.013,2.165.755,1.175.794,2.951,1.993,5.059.744a2.882,2.882,0,0,0,1.369-3.075Zm-13.183,13.5a9.78,9.78,0,0,0-.612,2.219,17.35,17.35,0,0,0-.037,3.562c.173,2.864-.032,3.213-.912,3.363l-.051.007a7.3,7.3,0,0,1-.571-1.859,9.875,9.875,0,0,0-1.313-3.572,4.22,4.22,0,0,0-3.632-1.81,6.408,6.408,0,0,0-.746.045,9.139,9.139,0,0,0-.983.2c-.922.219-2.839.676-3.625.139a1.186,1.186,0,0,1-.448-.922,1.946,1.946,0,0,0-1.709-1.56,2.378,2.378,0,0,1-.323-.086,1.732,1.732,0,0,1-.08-.716,1.8,1.8,0,0,0-1.806-1.941l-.076-.009a2.342,2.342,0,0,1-.115-.532,2.207,2.207,0,0,0-.893-1.445H103.8a5.247,5.247,0,0,0,.477,1.235,6.463,6.463,0,0,1,.5,1.224A3.065,3.065,0,0,1,104.666,58.05ZM115.147,45.23a.251.251,0,0,1-.06.044c-.52.309-.86.2-2.136-.658-1.22-.824-3.064-2.07-5.308-.726-1.7,1.016-1.114,2.718-.835,3.536.249.727.39,1.2.156,1.664a2.979,2.979,0,0,1-.466.161,3.753,3.753,0,0,0-1.976,1.149H81.543a18.283,18.283,0,0,0-2.673-.834c-.526-.108-1.923-.4-2.559.7a1.332,1.332,0,0,1-.083.127,9.352,9.352,0,0,1-1.756-1.3c-1.3-1.112-2.766-2.363-4.5-2.446A5.419,5.419,0,0,1,68.853,45.5a2.45,2.45,0,0,0,.542-2.352A6.212,6.212,0,0,1,70.515,43a4.13,4.13,0,0,0,2.992-1.727A8.786,8.786,0,0,0,75.2,36.33h38.2c.111.286.23.553.338.794a5.329,5.329,0,0,1,.447,1.229c-1.135,1.309-.389,3.056.269,4.6a6.3,6.3,0,0,1,.69,2.278Z" transform="translate(-65.98 -0.001)"/>
    </g>
  </g>
</svg>
