<svg xmlns="http://www.w3.org/2000/svg" width="100" height="100" viewBox="0 0 100 100">
  <g id="Grupo_1181668" data-name="Grupo 1181668" transform="translate(-209 -3362)">
    <rect id="Rectángulo_455529" data-name="Rectángulo 455529" width="100" height="100" rx="10" transform="translate(209 3362)" fill="#c8bf57"/>
    <g id="Grupo_1181667" data-name="Grupo 1181667" transform="translate(221.834 3336.715)">
      <g id="Grupo_1181665" data-name="Grupo 1181665" transform="translate(1.089 46.269)">
        <path id="Trazado_1014424" data-name="Trazado 1014424" d="M452.955,413.04a3.279,3.279,0,0,1-3.28,3.335h-3.287a2.178,2.178,0,0,1-2.178-2.178V409.09h5.39c1.8,0,3.355,1.527,3.355,3.95Z" transform="translate(-380.801 -357.341)" fill="#e8ecf9"/>
        <path id="Trazado_1014425" data-name="Trazado 1014425" d="M79.654,102.206v44.841a3.279,3.279,0,0,0-3.28-3.28H10.767A3.266,3.266,0,0,1,7.5,140.5l.29-42.65H75.3a4.356,4.356,0,0,1,4.356,4.356Z" transform="translate(-7.5 -91.291)" fill="#f3f5fc"/>
        <path id="Trazado_1014426" data-name="Trazado 1014426" d="M34.312,143.767H10.767A3.266,3.266,0,0,1,7.5,140.5l.29-42.65H34.312a6.529,6.529,0,0,0-2.737,5.319v35.28a6.529,6.529,0,0,0,2.737,5.319Z" transform="translate(-7.5 -91.291)" fill="#e8ecf9"/>
        <path id="Trazado_1014427" data-name="Trazado 1014427" d="M16.245,54.858v41.56A2.178,2.178,0,0,1,14.067,98.6H10.78a3.279,3.279,0,0,0-3.28,3.28V55.959a3.277,3.277,0,0,1,3.28-3.279h3.287A2.178,2.178,0,0,1,16.245,54.858Z" transform="translate(-7.5 -52.68)" fill="#d7ddf5"/>
        <ellipse id="Elipse_13874" data-name="Elipse 13874" cx="7.653" cy="3.28" rx="7.653" ry="3.28" transform="translate(50.289 20.771)" fill="#fad989"/>
        <path id="Trazado_1014428" data-name="Trazado 1014428" d="M374.5,89.432c0,6.638-5.248,11.948-6.559,11.948s-6.559-5.31-6.559-11.948a6.56,6.56,0,1,1,13.119,0Z" transform="translate(-310 -78.422)" fill="#fd7a6e"/>
        <circle id="Elipse_13875" data-name="Elipse 13875" cx="2.187" cy="2.187" r="2.187" transform="translate(55.755 8.745)" fill="#f3f5fc"/>
        <g id="Grupo_1181664" data-name="Grupo 1181664" transform="translate(25.145 10.932)">
          <circle id="Elipse_13876" data-name="Elipse 13876" cx="2.187" cy="2.187" r="2.187" transform="translate(30.611 24.051)" fill="#00c9df"/>
          <circle id="Elipse_13877" data-name="Elipse 13877" cx="2.187" cy="2.187" r="2.187" transform="translate(22.958 32.797)" fill="#00c9df"/>
          <circle id="Elipse_13878" data-name="Elipse 13878" cx="2.187" cy="2.187" r="2.187" transform="translate(15.305 24.051)" fill="#00c9df"/>
          <circle id="Elipse_13879" data-name="Elipse 13879" cx="2.187" cy="2.187" r="2.187" transform="translate(15.305 10.932)" fill="#00c9df"/>
          <circle id="Elipse_13880" data-name="Elipse 13880" cx="2.187" cy="2.187" r="2.187" transform="translate(7.653)" fill="#00c9df"/>
          <circle id="Elipse_13881" data-name="Elipse 13881" cx="2.187" cy="2.187" r="2.187" transform="translate(0 10.932)" fill="#00c9df"/>
        </g>
        <circle id="Elipse_13882" data-name="Elipse 13882" cx="4.373" cy="4.373" r="4.373" transform="translate(13.119 30.61)" fill="#8dd470"/>
      </g>
      <g id="Grupo_1181666" data-name="Grupo 1181666" transform="translate(0 45.18)">
        <path id="Trazado_1014429" data-name="Trazado 1014429" d="M74.332,57.183a5.451,5.451,0,0,0-5.445-5.445H64.354a7.573,7.573,0,0,0-10.647,0H10.923V48.447A3.271,3.271,0,0,0,7.656,45.18H4.369A4.373,4.373,0,0,0,0,49.548v45.93a4.361,4.361,0,0,0,4.356,4.356H48.837a1.089,1.089,0,0,0,0-2.178H4.356a2.191,2.191,0,0,1,.013-4.382H7.656a3.271,3.271,0,0,0,3.267-3.267V67.948a1.089,1.089,0,1,0-2.178,0V90.007A1.09,1.09,0,0,1,7.656,91.1H4.369a4.341,4.341,0,0,0-2.191.59V49.548a2.193,2.193,0,0,1,2.191-2.19H7.656a1.09,1.09,0,0,1,1.089,1.089V62.866a1.089,1.089,0,1,0,2.178,0v-8.95H52.146a7.746,7.746,0,0,0-.763,3.363,16.452,16.452,0,0,0,3.107,9.263c-2.627.753-4.2,2.136-4.2,3.777,0,.776.377,2.239,2.9,3.321a14.421,14.421,0,0,0,4.752,1.017V80.35a3.274,3.274,0,0,0-.275,6.065,6.612,6.612,0,0,1-3.5,4.058,3.274,3.274,0,0,0-5.583,0,6.618,6.618,0,0,1-3.5-4.059,3.274,3.274,0,0,0-.276-6.065V73.408a3.275,3.275,0,0,0,0-6.177v-.192a8.7,8.7,0,0,0-5.5-8.119,3.275,3.275,0,0,0-6.483,0,8.7,8.7,0,0,0-5.5,8.119v.192a3.275,3.275,0,0,0,0,6.177V76.9a3.271,3.271,0,0,1-3.267,3.267h-.13a5.463,5.463,0,1,0,0,2.178A5.451,5.451,0,0,0,29.508,76.9V73.409a3.275,3.275,0,0,0,0-6.178V67.04A6.534,6.534,0,0,1,33.281,61.1a3.274,3.274,0,0,0,5.584,0,6.533,6.533,0,0,1,3.772,5.942v.192a3.275,3.275,0,0,0,0,6.178V80.35a3.275,3.275,0,0,0,.25,6.255,8.8,8.8,0,0,0,5.25,6.047,3.275,3.275,0,0,0,6.483,0A8.8,8.8,0,0,0,59.87,86.6a3.275,3.275,0,0,0,.25-6.254V74.656a14.416,14.416,0,0,0,4.751-1.017c2.524-1.082,2.9-2.545,2.9-3.32,0-1.643-1.578-3.028-4.212-3.78a18.26,18.26,0,0,0,1.842-3.28,1.089,1.089,0,0,0-2-.855,12.945,12.945,0,0,1-4.37,5.7c-1.1-.512-5.469-4.956-5.469-10.829a5.471,5.471,0,1,1,10.941,0c0,.2,0,.378-.013.554a1.089,1.089,0,0,0,2.175.109,7.944,7.944,0,0,0-.747-4.026h2.972a3.271,3.271,0,0,1,3.267,3.267V98.246a4.342,4.342,0,0,0-2.191-.59H53.919a1.089,1.089,0,0,0,0,2.178h9.49v3.292a3.271,3.271,0,0,0,3.267,3.267h3.287a4.365,4.365,0,0,0,4.369-4.368V57.183ZM18.581,84.536a3.284,3.284,0,1,1,3.284-3.284A3.288,3.288,0,0,1,18.581,84.536ZM28.42,71.417a1.1,1.1,0,1,1,1.1-1.1A1.1,1.1,0,0,1,28.42,71.417Zm7.653-10.933a1.1,1.1,0,1,1,1.1-1.1,1.1,1.1,0,0,1-1.1,1.1Zm7.653,8.737a1.1,1.1,0,1,1-1.1,1.1A1.1,1.1,0,0,1,43.725,69.222Zm0,13.119a1.1,1.1,0,1,1-1.1,1.1A1.1,1.1,0,0,1,43.725,82.341Zm7.653,10.941a1.1,1.1,0,1,1,1.1-1.1A1.1,1.1,0,0,1,51.378,93.282Zm7.653-8.746a1.1,1.1,0,1,1,1.1-1.1A1.1,1.1,0,0,1,59.031,84.536Zm0-14.221c.8,0,1.9-.743,3.006-1.9,2.322.464,3.557,1.386,3.557,1.906,0,.772-2.492,2.191-6.563,2.191s-6.564-1.419-6.564-2.191c0-.52,1.232-1.44,3.549-1.9,1.041,1.094,2.152,1.9,3.015,1.9Zm10.932,33.9H66.676a1.09,1.09,0,0,1-1.089-1.089V99.833h4.376a2.19,2.19,0,0,1,0,4.381Z" transform="translate(0 -45.18)"/>
        <path id="Trazado_1014430" data-name="Trazado 1014430" d="M384,108.686a3.275,3.275,0,1,0,3.275-3.275A3.279,3.279,0,0,0,384,108.686Zm4.373,0a1.1,1.1,0,1,1-1.1-1.1A1.1,1.1,0,0,1,388.373,108.686Z" transform="translate(-328.245 -96.666)"/>
      </g>
    </g>
  </g>
</svg>
