<svg xmlns="http://www.w3.org/2000/svg" width="169.706" height="169.706" viewBox="0 0 169.706 169.706">
  <g id="Grupo_1181057" data-name="Grupo 1181057" transform="translate(-714.98 -3369.146)">
    <rect id="Rect치ngulo_402033" data-name="Rect치ngulo 402033" width="120" height="120" rx="30" transform="translate(714.98 3453.999) rotate(-45)" fill="#ffd600"/>
    <rect id="Rect치ngulo_454167" data-name="Rect치ngulo 454167" width="100" height="100" rx="50" transform="translate(749.833 3403.999)" fill="#c8bf57"/>
    <g id="Grupo_1181683" data-name="Grupo 1181683" transform="translate(761.45 3414.674)">
      <g id="Grupo_1181681" data-name="Grupo 1181681" transform="translate(2.225 2.225)">
        <g id="Grupo_1181669" data-name="Grupo 1181669" transform="translate(31.859 66.169)">
          <path id="Trazado_1014431" data-name="Trazado 1014431" d="M37.8,56v2.451a4.9,4.9,0,1,1-9.8,0V56Z" transform="translate(-28 -56)" fill="#aab2bd"/>
        </g>
        <g id="Grupo_1181670" data-name="Grupo 1181670" transform="translate(29.408 61.267)">
          <path id="Trazado_1014432" data-name="Trazado 1014432" d="M38.253,52A2.458,2.458,0,0,1,40.7,54.451,2.469,2.469,0,0,1,38.253,56.9h-9.8A2.458,2.458,0,0,1,26,54.451,2.469,2.469,0,0,1,28.451,52Z" transform="translate(-26 -52)" fill="#ccd1d9"/>
        </g>
        <g id="Grupo_1181671" data-name="Grupo 1181671" transform="translate(26.958 56.366)">
          <path id="Trazado_1014433" data-name="Trazado 1014433" d="M38.7,52.9H26.451A2.458,2.458,0,0,1,24,50.451,2.469,2.469,0,0,1,26.451,48h14.7a2.458,2.458,0,0,1,2.451,2.451A2.469,2.469,0,0,1,41.155,52.9Z" transform="translate(-24 -48)" fill="#ccd1d9"/>
        </g>
        <g id="Grupo_1181672" data-name="Grupo 1181672" transform="translate(15.93 11.028)">
          <path id="Trazado_1014434" data-name="Trazado 1014434" d="M56.662,31.831a20.827,20.827,0,0,1-11.028,18.38v1.225a2.469,2.469,0,0,1,2.451,2.451,2.458,2.458,0,0,1-2.451,2.451H26.028a2.451,2.451,0,0,1,0-4.9V50.211a20.959,20.959,0,0,1-8.577-8.577A20.649,20.649,0,0,1,15,31.831a20.775,20.775,0,0,1,18.429-20.7,20.848,20.848,0,0,1,23.233,20.7Z" transform="translate(-15 -11)" fill="#ffeaa7"/>
        </g>
        <g id="Grupo_1181673" data-name="Grupo 1181673" transform="translate(22.056 17.155)">
          <path id="Trazado_1014435" data-name="Trazado 1014435" d="M49.408,27.028V34.38l-1.961.7a14.187,14.187,0,0,1-.649,1.544l.907,1.875L42.5,43.705,40.623,42.8a14.186,14.186,0,0,1-1.544.649l-.7,1.961H31.028l-.7-1.961a14.188,14.188,0,0,1-1.544-.649l-1.875.907L21.7,38.5l.907-1.875a14.187,14.187,0,0,1-.649-1.544L20,34.38V27.028l1.961-.7a14.186,14.186,0,0,1,.649-1.544L21.7,22.911,26.911,17.7l1.875.907a14.187,14.187,0,0,1,1.544-.649l.7-1.961H38.38l.7,1.961a14.186,14.186,0,0,1,1.544.649L42.5,17.7l5.208,5.208L46.8,24.786a14.186,14.186,0,0,1,.649,1.544ZM43.282,30.7A8.577,8.577,0,1,0,34.7,39.282,8.571,8.571,0,0,0,43.282,30.7Z" transform="translate(-20 -16)" fill="#ffc729"/>
        </g>
        <g id="Grupo_1181674" data-name="Grupo 1181674" transform="translate(28.183 23.282)">
          <path id="Trazado_1014436" data-name="Trazado 1014436" d="M33.577,21A8.577,8.577,0,1,1,25,29.577,8.571,8.571,0,0,1,33.577,21Zm3.676,8.577a3.676,3.676,0,1,0-3.676,3.676A3.671,3.671,0,0,0,37.253,29.577Z" transform="translate(-25 -21)" fill="#fcd770"/>
        </g>
        <g id="Grupo_1181675" data-name="Grupo 1181675" transform="translate(68.62 0)">
          <path id="Trazado_1014437" data-name="Trazado 1014437" d="M62.9,2V16.7H58V2Z" transform="translate(-58 -2)" fill="#b4dd7f"/>
        </g>
        <g id="Grupo_1181676" data-name="Grupo 1181676" transform="translate(58.817 4.901)">
          <path id="Trazado_1014438" data-name="Trazado 1014438" d="M54.9,6v9.8H50V6Z" transform="translate(-50 -6)" fill="#b4dd7f"/>
        </g>
        <g id="Grupo_1181677" data-name="Grupo 1181677" transform="translate(63.718 2.451)">
          <path id="Trazado_1014439" data-name="Trazado 1014439" d="M58.9,4V16.253H54V4Z" transform="translate(-54 -4)" fill="#b4dd7f"/>
        </g>
        <g id="Grupo_1181678" data-name="Grupo 1181678" transform="translate(0 53.915)">
          <path id="Trazado_1014440" data-name="Trazado 1014440" d="M24.056,53.352v9.8a2.458,2.458,0,0,1-2.451,2.451H4.451A2.458,2.458,0,0,1,2,63.155v-9.8A2.458,2.458,0,0,1,4.451,50.9H15.479l2.034-4.068a1.515,1.515,0,0,1,2.867.686V50.9h1.225A2.458,2.458,0,0,1,24.056,53.352Z" transform="translate(-2 -46)" fill="#b4dd7f"/>
        </g>
        <g id="Grupo_1181679" data-name="Grupo 1181679" transform="translate(0 0)">
          <circle id="Elipse_13883" data-name="Elipse 13883" cx="10" cy="10" r="10" transform="translate(-0.24 -0.24)" fill="#ff826e"/>
        </g>
        <g id="Grupo_1181680" data-name="Grupo 1181680" transform="translate(53.915 53.915)">
          <circle id="Elipse_13884" data-name="Elipse 13884" cx="10" cy="10" r="10" transform="translate(-0.155 -0.155)" fill="#ff826e"/>
        </g>
      </g>
      <g id="Grupo_1181682" data-name="Grupo 1181682" transform="translate(1 1)">
        <path id="Trazado_1014441" data-name="Trazado 1014441" d="M51.026,55.194l-1.733,1.733,3.317,3.317,8.218-8.218L59.1,50.293,52.61,56.779Z" transform="translate(9.883 10.108)"/>
        <path id="Trazado_1014442" data-name="Trazado 1014442" d="M15.1,6.293,8.61,12.779,7.026,11.194,5.293,12.927,8.61,16.244l8.218-8.218Z" transform="translate(-0.033 0.193)"/>
        <path id="Trazado_1014443" data-name="Trazado 1014443" d="M33.8,20a9.8,9.8,0,1,0,9.8,9.8A9.814,9.814,0,0,0,33.8,20Zm0,17.155A7.352,7.352,0,1,1,41.155,29.8,7.359,7.359,0,0,1,33.8,37.155Z" transform="translate(4.183 3.282)"/>
        <path id="Trazado_1014444" data-name="Trazado 1014444" d="M32.9,24a4.9,4.9,0,1,0,4.9,4.9A4.906,4.906,0,0,0,32.9,24Zm0,7.352A2.451,2.451,0,1,1,35.352,28.9,2.453,2.453,0,0,1,32.9,31.352Z" transform="translate(5.084 4.183)"/>
        <path id="Trazado_1014445" data-name="Trazado 1014445" d="M48.381,25.02l1.024-2.142-6.423-6.426-2.143,1.024c-.19-.085-.384-.164-.577-.24L39.473,15H30.386L29.6,17.237q-.29.114-.577.24l-2.143-1.024-6.423,6.426,1.024,2.142c-.085.192-.165.385-.24.577L19,26.386v9.086l2.237.79q.114.289.24.577l-1.024,2.143,6.423,6.423,2.143-1.024c.191.085.384.165.577.24l.789,2.237h9.087l.789-2.237q.289-.114.577-.24l2.143,1.024,6.423-6.423-1.024-2.143c.085-.192.165-.385.24-.577l2.237-.789V26.387l-2.237-.79q-.114-.289-.24-.577Zm.027,8.718-1.707.6-.191.561a12.059,12.059,0,0,1-.584,1.4l-.262.533.783,1.635-3.973,3.973-1.636-.783-.534.262a11.817,11.817,0,0,1-1.4.584l-.562.191-.6,1.708H32.121l-.6-1.707-.562-.191a11.817,11.817,0,0,1-1.4-.584l-.534-.262-1.636.783-3.973-3.973.783-1.635-.262-.533a12.057,12.057,0,0,1-.584-1.4l-.191-.561-1.706-.6V28.12l1.707-.6.191-.561a12.058,12.058,0,0,1,.584-1.4l.262-.533-.783-1.635,3.973-3.973,1.636.782.534-.262a11.937,11.937,0,0,1,1.4-.584l.561-.192.6-1.7h5.617l.6,1.706.561.192a11.938,11.938,0,0,1,1.4.584l.534.262,1.636-.782,3.973,3.973-.783,1.635.262.533a12.058,12.058,0,0,1,.584,1.4l.191.561,1.706.6Z" transform="translate(3.056 2.155)"/>
        <path id="Trazado_1014446" data-name="Trazado 1014446" d="M5,53H19.7v2.451H5Z" transform="translate(-0.099 10.718)"/>
        <path id="Trazado_1014447" data-name="Trazado 1014447" d="M15,57h2.451v2.451H15Z" transform="translate(2.155 11.62)"/>
        <path id="Trazado_1014448" data-name="Trazado 1014448" d="M5,57h9.8v2.451H5Z" transform="translate(-0.099 11.62)"/>
        <path id="Trazado_1014449" data-name="Trazado 1014449" d="M61.549,18.155H76.972V1H69.62V3.451h-4.9V5.9h-4.9V16.422l-3.754,3.753A22.028,22.028,0,0,0,17.1,31.314c-.064.517-.105,1.032-.134,1.545H14.479a1.227,1.227,0,0,1-1.225-1.225v-8.65a11.028,11.028,0,1,0-2.451,0v8.65a3.681,3.681,0,0,0,3.676,3.676h2.5a22.068,22.068,0,0,0,1.686,7.352H13.254a3.681,3.681,0,0,0-3.676,3.676V59.817h-4.9A3.681,3.681,0,0,0,1,63.493v9.8a3.681,3.681,0,0,0,3.676,3.676H21.831A3.681,3.681,0,0,0,25.507,73.3v-9.8a3.681,3.681,0,0,0-3.676-3.676V57.655A2.74,2.74,0,0,0,16.64,56.43l-1.693,3.387H12.028V46.338a1.226,1.226,0,0,1,1.225-1.225H19.87a21.987,21.987,0,0,0,7.595,7.779,3.664,3.664,0,0,0,.762,6.784,3.645,3.645,0,0,0,2.451,4.9,3.643,3.643,0,0,0,2.181,4.818v1.451a6.127,6.127,0,0,0,12.253,0V69.394a3.643,3.643,0,0,0,2.181-4.818,3.645,3.645,0,0,0,2.451-4.9,3.663,3.663,0,0,0,.76-6.784A22.024,22.024,0,0,0,61,35.31h2.491a1.227,1.227,0,0,1,1.225,1.225V54.988a11.028,11.028,0,1,0,2.451,0V36.535a3.681,3.681,0,0,0-3.676-3.676H60.977a22.051,22.051,0,0,0-3.458-10.674ZM72.07,3.451h2.451V15.7H72.07ZM69.62,5.9v9.8H67.169V5.9ZM62.267,8.352h2.451V15.7H62.267ZM3.451,12.028a8.577,8.577,0,1,1,8.577,8.577A8.588,8.588,0,0,1,3.451,12.028ZM16.461,62.267l2.37-4.74a.3.3,0,0,1,.549.127v4.612h2.451a1.226,1.226,0,0,1,1.225,1.225v9.8a1.226,1.226,0,0,1-1.225,1.225H4.676A1.226,1.226,0,0,1,3.451,73.3v-9.8a1.226,1.226,0,0,1,1.225-1.225Zm58.06,3.676a8.577,8.577,0,1,1-8.577-8.577A8.588,8.588,0,0,1,74.521,65.944ZM38.986,74.521a3.681,3.681,0,0,1-3.676-3.676V69.62h7.352v1.225A3.681,3.681,0,0,1,38.986,74.521Zm4.9-7.352h-9.8a1.225,1.225,0,1,1,0-2.451h9.8a1.225,1.225,0,0,1,0,2.451Zm2.451-4.9h-14.7a1.225,1.225,0,1,1,0-2.451h14.7a1.225,1.225,0,0,1,0,2.451ZM48.21,51.381l-.647.346v3.188h1.225a1.225,1.225,0,1,1,0,2.451H29.183a1.225,1.225,0,0,1,0-2.451h1.225V51.727l-.647-.346a19.606,19.606,0,1,1,18.449,0Z" transform="translate(-1 -1)"/>
      </g>
    </g>
  </g>
</svg>
