<svg xmlns="http://www.w3.org/2000/svg" width="169.706" height="169.706" viewBox="0 0 169.706 169.706">
  <g id="Grupo_1181059" data-name="Grupo 1181059" transform="translate(-1065.98 -3369.146)">
    <rect id="Rectángulo_402033" data-name="Rectángulo 402033" width="120" height="120" rx="30" transform="translate(1065.98 3453.999) rotate(-45)" fill="#ffd600"/>
    <rect id="Rectángulo_454167" data-name="Rectángulo 454167" width="100" height="100" rx="50" transform="translate(1100.833 3403.999)" fill="#c8bf57"/>
    <g id="Grupo_1181691" data-name="Grupo 1181691" transform="translate(1108.358 3411.524)">
      <circle id="Elipse_13885" data-name="Elipse 13885" cx="9.854" cy="9.854" r="9.854" transform="translate(59.321 36.899)" fill="#f9ac00"/>
      <path id="Trazado_1014476" data-name="Trazado 1014476" d="M378.381,238.384a9.854,9.854,0,1,1,9.546-9.849A9.854,9.854,0,0,1,378.381,238.384Z" transform="translate(-309.514 -181.783)" fill="#fcdb35" fill-rule="evenodd"/>
      <circle id="Elipse_13886" data-name="Elipse 13886" cx="7.862" cy="7.862" r="7.862" transform="translate(58.66 43.073) rotate(-25.668)" fill="#f19a00"/>
      <path id="Trazado_1014477" data-name="Trazado 1014477" d="M396.306,232.1a7.862,7.862,0,1,1-7.356,7.845A7.862,7.862,0,0,1,396.306,232.1Z" transform="translate(-326.625 -193.198)" fill="#f9ac00" fill-rule="evenodd"/>
      <rect id="Rectángulo_455764" data-name="Rectángulo 455764" width="19.668" height="5.524" rx="2.762" transform="translate(59.321 68.007)" fill="#f19a00"/>
      <rect id="Rectángulo_455765" data-name="Rectángulo 455765" width="19.668" height="5.524" rx="2.762" transform="translate(59.321 73.53)" fill="#fdc72e"/>
      <rect id="Rectángulo_455766" data-name="Rectángulo 455766" width="19.668" height="5.524" rx="2.762" transform="translate(59.321 62.483)" fill="#fdc72e"/>
      <rect id="Rectángulo_455767" data-name="Rectángulo 455767" width="19.668" height="5.524" rx="2.762" transform="translate(59.321 56.959)" fill="#f19a00"/>
      <g id="Grupo_1181686" data-name="Grupo 1181686" transform="translate(12.082 46.705)">
        <path id="Trazado_1014478" data-name="Trazado 1014478" d="M370.173,353.012h15.068a.376.376,0,0,1,.376.376v2.824a1.343,1.343,0,0,1-1.339,1.339H369.21a.376.376,0,0,1-.376-.376v-2.824a1.343,1.343,0,0,1,1.339-1.339Z" transform="translate(-321.595 -342.758)" fill="#f9ac00" fill-rule="evenodd"/>
        <path id="Trazado_1014479" data-name="Trazado 1014479" d="M370.173,390.008h15.068a.376.376,0,0,1,.376.376v2.824a1.343,1.343,0,0,1-1.339,1.339H369.21a.376.376,0,0,1-.376-.376v-2.824a1.343,1.343,0,0,1,1.339-1.339Z" transform="translate(-321.595 -374.23)" fill="#fcdb35" fill-rule="evenodd"/>
        <path id="Trazado_1014480" data-name="Trazado 1014480" d="M370.173,427.007h15.068a.376.376,0,0,1,.376.376v2.824a1.343,1.343,0,0,1-1.339,1.339H369.21a.376.376,0,0,1-.376-.376v-2.824a1.343,1.343,0,0,1,1.339-1.339Z" transform="translate(-321.595 -405.705)" fill="#f9ac00" fill-rule="evenodd"/>
        <path id="Trazado_1014481" data-name="Trazado 1014481" d="M370.173,464h15.068a.376.376,0,0,1,.376.376V467.2a1.343,1.343,0,0,1-1.339,1.339H369.21a.376.376,0,0,1-.376-.376v-2.824A1.343,1.343,0,0,1,370.173,464Z" transform="translate(-321.595 -437.178)" fill="#fcdb35" fill-rule="evenodd"/>
        <path id="Trazado_1014482" data-name="Trazado 1014482" d="M71.693,311.244l.034-2.1a8.455,8.455,0,0,1,2.947-6.361c2.2-1.963,2.918-4.732,2.816-7.75l-.307-9.045c-.046-1.361-1.032-1.654-2.207-1.654H52.436v10.93c.221,2.605.834,5.093,2.794,7.053,2.449,2.449,2.107,5.81,1.824,8.93H71.693Z" transform="translate(-52.436 -284.331)" fill="#fdd7ad" fill-rule="evenodd"/>
      </g>
      <path id="Trazado_1014483" data-name="Trazado 1014483" d="M11,247.038H48.652v16.5H11Z" transform="translate(-5.102 -205.901)" fill="#2dd62d"/>
      <path id="Trazado_1014484" data-name="Trazado 1014484" d="M57.99,258.33a1.672,1.672,0,0,0,1.476,2.066v2.75H26.321V260.4A1.672,1.672,0,0,0,27.8,258.33Z" transform="translate(-18.138 -215.507)" fill="#29b933" fill-rule="evenodd"/>
      <path id="Trazado_1014485" data-name="Trazado 1014485" d="M28.383,274.284a2.062,2.062,0,0,0-2.062-2.062v-7.8a2.062,2.062,0,0,0,2.062-2.062H57.338a2.062,2.062,0,0,0,2.062,2.062v7.8a2.062,2.062,0,0,0-2.062,2.062Z" transform="translate(-18.138 -218.937)" fill="#96ff96" fill-rule="evenodd"/>
      <rect id="Rectángulo_455768" data-name="Rectángulo 455768" width="4.727" height="8.124" rx="2.363" transform="translate(12.469 35.926)" fill="#fdd7ad"/>
      <path id="Trazado_1014486" data-name="Trazado 1014486" d="M70.852,212.134a2.37,2.37,0,0,1,2.363,2.363v3.4a2.37,2.37,0,0,1-2.363,2.363Z" transform="translate(-56.02 -176.208)" fill="#e6b17c" fill-rule="evenodd"/>
      <rect id="Rectángulo_455769" data-name="Rectángulo 455769" width="4.727" height="9.271" rx="2.364" transform="translate(17.195 34.779)" fill="#fdd7ad"/>
      <rect id="Rectángulo_455770" data-name="Rectángulo 455770" width="4.727" height="10.234" rx="2.363" transform="translate(21.923 33.816)" fill="#fdd7ad"/>
      <g id="Grupo_1181689" data-name="Grupo 1181689" transform="translate(19.559 33.816)">
        <path id="Trazado_1014487" data-name="Trazado 1014487" d="M152.367,212.134a2.37,2.37,0,0,1,2.363,2.364v3.4a2.363,2.363,0,1,1-4.727,0v-3.4A2.37,2.37,0,0,1,152.367,212.134Z" transform="translate(-142.914 -210.024)" fill="#fdd7ad" fill-rule="evenodd"/>
        <g id="Grupo_1181687" data-name="Grupo 1181687">
          <path id="Trazado_1014488" data-name="Trazado 1014488" d="M102.514,204.452a2.37,2.37,0,0,1,2.363,2.363v4.544a2.37,2.37,0,0,1-2.363,2.363v-9.271Z" transform="translate(-102.514 -203.489)" fill="#e6b17c" fill-rule="evenodd"/>
          <path id="Trazado_1014489" data-name="Trazado 1014489" d="M134.174,198a2.37,2.37,0,0,1,2.363,2.363v5.507a2.37,2.37,0,0,1-2.363,2.363Z" transform="translate(-129.447 -198.002)" fill="#e6b17c" fill-rule="evenodd"/>
          <path id="Trazado_1014490" data-name="Trazado 1014490" d="M165.834,212.134A2.37,2.37,0,0,1,168.2,214.5v3.4a2.37,2.37,0,0,1-2.363,2.363Z" transform="translate(-156.38 -210.024)" fill="#e6b17c" fill-rule="evenodd"/>
        </g>
        <path id="Trazado_1014491" data-name="Trazado 1014491" d="M147.453,297.544V311h5.071l.034-2.1a8.455,8.455,0,0,1,2.947-6.361c2.2-1.963,2.918-4.732,2.816-7.75l-.307-9.045a1.784,1.784,0,0,0-2.586-1.548c-4.407,1.636-1.905,6.415-4.033,10.15a6.121,6.121,0,0,1-3.942,3.2Z" transform="translate(-140.743 -271.203)" fill="#fdd7ad" fill-rule="evenodd"/>
        <g id="Grupo_1181688" data-name="Grupo 1181688" transform="translate(4.06 12.847)">
          <path id="Trazado_1014492" data-name="Trazado 1014492" d="M135.88,357.534a8.278,8.278,0,0,1-2.112,2.52,7.044,7.044,0,0,1-2.562,1.24,1.192,1.192,0,0,1-.607-2.3,4.712,4.712,0,0,0,1.713-.82,4.856,4.856,0,0,0,.672-.635h2.9Z" transform="translate(-129.71 -346.563)" fill="#e6b17c" fill-rule="evenodd"/>
          <path id="Trazado_1014493" data-name="Trazado 1014493" d="M165.085,311.005l.026-2.507a9.7,9.7,0,0,1,.881-3.96,10.026,10.026,0,0,1,2.463-3.269,6.818,6.818,0,0,0,1.935-2.971c.884-2.629.685-8.752.682-12.455a2.721,2.721,0,0,0-.624-1.651,1.78,1.78,0,0,1,2.566,1.555l.307,9.045c.1,3.017-.617,5.786-2.816,7.75a8.455,8.455,0,0,0-2.947,6.361l-.034,2.1h-2.438Z" transform="translate(-159.803 -284.051)" fill="#e6b17c" fill-rule="evenodd"/>
        </g>
      </g>
      <path id="Trazado_1014494" data-name="Trazado 1014494" d="M67.2,451.932H84.17a1.241,1.241,0,0,1,1.241,1.241v4.845a1.241,1.241,0,0,1-1.241,1.241H67.2a1.241,1.241,0,0,1-1.241-1.241v-4.845A1.241,1.241,0,0,1,67.2,451.932Z" transform="translate(-51.856 -380.204)" fill="#2a92fa"/>
      <path id="Trazado_1014495" data-name="Trazado 1014495" d="M85.411,468.354v3.276a1.244,1.244,0,0,1-1.241,1.241H67.2a1.244,1.244,0,0,1-1.241-1.241v-3.276a1.3,1.3,0,0,1,.96-.421H84.451a1.3,1.3,0,0,1,.96.421Z" transform="translate(-51.856 -393.816)" fill="#5caeff" fill-rule="evenodd"/>
      <circle id="Elipse_13887" data-name="Elipse 13887" cx="1.869" cy="1.869" r="1.869" transform="matrix(0.987, -0.16, 0.16, 0.987, 15.574, 73.842)" fill="#0062d9"/>
      <path id="Trazado_1014496" data-name="Trazado 1014496" d="M258.208,247.038h.746v16.5h-.746Z" transform="translate(-215.403 -205.901)" fill="#29b933"/>
      <path id="Trazado_1014497" data-name="Trazado 1014497" d="M54.742,11H15.121L11,15.125V37.446H54.742Z" transform="translate(-5.102 -5.105)" fill="#cfe8ff" fill-rule="evenodd"/>
      <path id="Trazado_1014498" data-name="Trazado 1014498" d="M295.719,11h1.235V37.446h-1.235Z" transform="translate(-247.314 -5.105)" fill="#b6dbff"/>
      <g id="Grupo_1181690" data-name="Grupo 1181690" transform="translate(5.895 5.896)">
        <path id="Trazado_1014499" data-name="Trazado 1014499" d="M11,15.125h4.124V11Z" transform="translate(-10.997 -11.001)" fill="#4eb1fc" fill-rule="evenodd"/>
        <path id="Trazado_1014500" data-name="Trazado 1014500" d="M270.947,150.536l-4.914,10.375,3.834-1.193,1.863,3.557,3.876-10.806Z" transform="translate(-227.955 -129.703)" fill="#e8333c" fill-rule="evenodd"/>
        <path id="Trazado_1014501" data-name="Trazado 1014501" d="M274.252,150.536l-4.334,9.151,2.784-.866L274.369,162l3.565-9.941Z" transform="translate(-231.26 -129.703)" fill="#fb545c" fill-rule="evenodd"/>
        <path id="Trazado_1014502" data-name="Trazado 1014502" d="M335.492,152.543l3.862,10.811,1.867-3.554,3.832,1.2-4.9-10.382Z" transform="translate(-287.044 -129.771)" fill="#e8333c" fill-rule="evenodd"/>
        <path id="Trazado_1014503" data-name="Trazado 1014503" d="M335.492,154.867l3.367,9.426,1.312-2.5,3.5,1.094-4.5-9.542Z" transform="translate(-287.044 -132.095)" fill="#fb545c" fill-rule="evenodd"/>
        <path id="Trazado_1014504" data-name="Trazado 1014504" d="M266.593,38.779a2.816,2.816,0,0,1-2.823,1.169,2.883,2.883,0,0,0-3.439,3.439,2.816,2.816,0,0,1-1.169,2.823,2.882,2.882,0,0,0,0,4.863,2.816,2.816,0,0,1,1.169,2.823,2.883,2.883,0,0,0,3.439,3.439,2.816,2.816,0,0,1,2.823,1.169,2.882,2.882,0,0,0,4.863,0,2.816,2.816,0,0,1,2.823-1.169,2.883,2.883,0,0,0,3.439-3.439,2.816,2.816,0,0,1,1.169-2.823,2.882,2.882,0,0,0,0-4.863,2.816,2.816,0,0,1-1.169-2.823,2.883,2.883,0,0,0-3.439-3.439,2.816,2.816,0,0,1-2.823-1.169,2.882,2.882,0,0,0-4.863,0Z" transform="translate(-220.975 -33.496)" fill="#f9ac00" fill-rule="evenodd"/>
        <path id="Trazado_1014505" data-name="Trazado 1014505" d="M266.593,39.125a2.816,2.816,0,0,1-2.823,1.169,2.883,2.883,0,0,0-3.439,3.439,2.816,2.816,0,0,1-1.169,2.823,2.882,2.882,0,0,0,0,4.863,2.816,2.816,0,0,1,1.169,2.823,2.883,2.883,0,0,0,3.439,3.439,2.816,2.816,0,0,1,2.823,1.169,1.912,1.912,0,0,0,3.605,0,2.816,2.816,0,0,1,2.823-1.169l.142.022a2.928,2.928,0,0,1,1.116-.022l.014,0a2.7,2.7,0,0,0,1.391-.778,2.81,2.81,0,0,0,.776-2.663,2.816,2.816,0,0,1,1.169-2.823,2.882,2.882,0,0,0,0-4.863,2.816,2.816,0,0,1-1.169-2.823,2.809,2.809,0,0,0-.776-2.663,2.7,2.7,0,0,0-1.391-.778l-.014,0a2.927,2.927,0,0,1-1.116-.022l-.142.022a2.816,2.816,0,0,1-2.823-1.169,1.912,1.912,0,0,0-3.605,0Z" transform="translate(-220.975 -33.842)" fill="#fdc72e" fill-rule="evenodd"/>
      </g>
      <circle id="Elipse_13888" data-name="Elipse 13888" cx="5.408" cy="5.408" r="5.408" transform="translate(47.605 15.643)" fill="#f9ac00"/>
      <circle id="Elipse_13889" data-name="Elipse 13889" cx="5.408" cy="5.408" r="5.408" transform="translate(48.537 15.633)" fill="#f3f3ff"/>
      <path id="Trazado_1014506" data-name="Trazado 1014506" d="M16.8,49.385a.9.9,0,0,1-.9.9H13.088a.9.9,0,1,1,0-1.792H15.9A.9.9,0,0,1,16.8,49.385Zm52.376,4.723a.9.9,0,0,1-.9-.9v-.866A3.912,3.912,0,0,1,64.845,49.6.9.9,0,0,1,66.59,49.2a2.07,2.07,0,0,0,1.69,1.32V47.535a5.8,5.8,0,0,1-2.1-.909,2.963,2.963,0,0,1-1.2-2.115,2.823,2.823,0,0,1,.821-2.173,4.258,4.258,0,0,1,2.48-1.151v-.846a.9.9,0,1,1,1.792,0v.841a5.769,5.769,0,0,1,.75.151,3.473,3.473,0,0,1,2.667,2.447.9.9,0,0,1-1.747.4c-.16-.7-1.032-1.016-1.4-1.118-.089-.025-.179-.045-.271-.064v3.136c.073.019.149.038.22.058a4.569,4.569,0,0,1,2.921,1.917,2.671,2.671,0,0,1,.19,2.083c-.394,1.35-1.842,2.042-3.331,2.206v.815a.9.9,0,0,1-.9.9h0Zm.9-6.112v2.6c.833-.126,1.485-.472,1.612-.9a.867.867,0,0,0-.039-.714A2.763,2.763,0,0,0,70.071,48ZM68.28,45.674V43a2.342,2.342,0,0,0-1.187.577,1.058,1.058,0,0,0-.326.8,1.188,1.188,0,0,0,.513.83,3.228,3.228,0,0,0,1,.463ZM79.95,58.2a2.244,2.244,0,0,0-2.241-2.241H74.8A10.77,10.77,0,0,0,64.793,36.938a.888.888,0,0,0-.078-.275l-3.032-6.4a3.926,3.926,0,0,0,.807-.626,3.685,3.685,0,0,0,1.025-3.443,1.911,1.911,0,0,1,.8-1.94,3.773,3.773,0,0,0,0-6.319,1.911,1.911,0,0,1-.8-1.94,3.773,3.773,0,0,0-4.468-4.468,1.912,1.912,0,0,1-1.94-.8,3.773,3.773,0,0,0-6.319,0,2.154,2.154,0,0,1-.25.292V5.9a.9.9,0,0,0-.9-.9H10.02a.9.9,0,0,0-.633.262L5.262,9.386A.9.9,0,0,0,5,10.02V32.341a.9.9,0,0,0,.9.9H22.888a3.282,3.282,0,0,0-1.4,1.277,3.256,3.256,0,0,0-4.8,1.094,3.258,3.258,0,0,0-5.111,2.681v1.952H5.9a.9.9,0,0,0-.9.9v16.5a.9.9,0,0,0,.9.9h5.377a11.066,11.066,0,0,0,2.97,6.791c1.528,1.528,1.8,3.515,1.754,5.512h-.655a2.139,2.139,0,0,0-2.137,2.137v4.845a2.139,2.139,0,0,0,2.137,2.137H32.314a2.139,2.139,0,0,0,2.137-2.137V72.969a2.139,2.139,0,0,0-2.137-2.137h0a7.551,7.551,0,0,1,2.607-5.011,9.827,9.827,0,0,0,3.111-7.291h5.523a.9.9,0,0,0,.9-.9v-16.5a.9.9,0,0,0-.9-.9H32.273V38.289a3.258,3.258,0,0,0-4.815-2.863,3.271,3.271,0,0,0-1.774-2.189H44.837l-1.626,3.446a.9.9,0,0,0,1.077,1.237l3.11-.972,1.515,2.885a.9.9,0,0,0,.793.479l.063,0a.9.9,0,0,0,.781-.592l2.383-6.671a4.069,4.069,0,0,0,2.054-.008l2.392,6.669a.9.9,0,0,0,.781.591l.062,0a.9.9,0,0,0,.793-.48l1.512-2.887,2.727.848a10.764,10.764,0,0,0,.3,18.181H60.642A2.243,2.243,0,0,0,58.4,58.2v2.859a2.227,2.227,0,0,0,.453,1.345,2.226,2.226,0,0,0-.453,1.345v2.859a2.227,2.227,0,0,0,.453,1.345A2.227,2.227,0,0,0,58.4,69.3V72.16a2.227,2.227,0,0,0,.453,1.345A2.226,2.226,0,0,0,58.4,74.85v2.859a2.244,2.244,0,0,0,2.241,2.241H77.709a2.243,2.243,0,0,0,2.241-2.241V74.85a2.227,2.227,0,0,0-.453-1.345,2.226,2.226,0,0,0,.453-1.345V69.3a2.226,2.226,0,0,0-.453-1.345,2.227,2.227,0,0,0,.453-1.345V63.753a2.227,2.227,0,0,0-.453-1.345,2.226,2.226,0,0,0,.453-1.345ZM23.828,46.736v1.51a1.782,1.782,0,0,1-.443-.232.743.743,0,0,1-.318-.495.618.618,0,0,1,.2-.463,1.372,1.372,0,0,1,.566-.321Zm1.792,5.35V50.615a1.545,1.545,0,0,1,.832.565.464.464,0,0,1,.013.4c-.058.2-.379.4-.845.51Zm-1.834-7.18a3.256,3.256,0,0,1-1.862-.978,3.254,3.254,0,0,1-4.729,0l-.06.062a3.248,3.248,0,0,1-4.218.332H11a2.971,2.971,0,0,1-1.924,1.924v6.283A2.972,2.972,0,0,1,11,54.45h12.83a.914.914,0,0,1-.005-.1v-.5a3.164,3.164,0,0,1-2.647-2.241.9.9,0,1,1,1.745-.407,1.256,1.256,0,0,0,.9.792V50.126a4.4,4.4,0,0,1-1.542-.7,2.489,2.489,0,0,1-1.007-1.78,2.381,2.381,0,0,1,.69-1.834,3.384,3.384,0,0,1,1.815-.91Zm-5.693-3.221h0V37.142a1.468,1.468,0,0,1,2.935,0v4.544a1.468,1.468,0,1,1-2.935,0Zm-4.727-3.4a1.468,1.468,0,1,1,2.935,0v3.4a1.468,1.468,0,1,1-2.935,0ZM6.792,56.738H29.3c.044-.072.087-.145.131-.221s.1-.183.145-.276H10.246a.9.9,0,0,1-.9-.9A1.168,1.168,0,0,0,8.184,54.18a.9.9,0,0,1-.9-.9v-7.8a.9.9,0,0,1,.9-.9A1.168,1.168,0,0,0,9.35,43.424a.9.9,0,0,1,.9-.9h1.438a3.218,3.218,0,0,1-.092-.5h-4.8V56.738h0ZM32.314,72.623a.35.35,0,0,1,.345.345v4.845a.35.35,0,0,1-.345.345H15.342A.35.35,0,0,1,15,77.813V72.968a.35.35,0,0,1,.345-.345Zm3.927-15.19-.307-9.045a.787.787,0,0,0-.312-.68,1.243,1.243,0,0,0-1.067-.058c-2.015.748-2.211,2.195-2.383,4.687A11.429,11.429,0,0,1,30.989,57.4a7.044,7.044,0,0,1-4.49,3.617.9.9,0,1,1-.459-1.732,5.1,5.1,0,0,0,1.669-.76H13.081a8.935,8.935,0,0,0,2.429,5.524,8.786,8.786,0,0,1,2.279,6.778H30.511a9.274,9.274,0,0,1,3.212-6.347c1.8-1.607,2.624-3.914,2.517-7.051h0ZM36.62,46.22h0a3.016,3.016,0,0,0-2.689-.249c-3.2,1.187-3.383,3.873-3.547,6.242a20.056,20.056,0,0,1-.24,2.237H25.614a.915.915,0,0,0,.005-.1V53.9a2.92,2.92,0,0,0,2.564-1.825,2.262,2.262,0,0,0-.164-1.764,3.716,3.716,0,0,0-2.379-1.578l-.022-.006v-2c.269.081.794.289.887.7a.9.9,0,1,0,1.747-.4,2.879,2.879,0,0,0-2.2-2.041c-.137-.038-.282-.069-.43-.095v-.231a3.274,3.274,0,0,0,1.031-.731,3.252,3.252,0,0,0,4.28.392h7.514a2.972,2.972,0,0,0,1.924,1.924v6.283a2.971,2.971,0,0,0-1.924,1.924h-.511l-.208-6.122A2.554,2.554,0,0,0,36.62,46.22Zm6.035-4.188V56.738H38.01l-.017-.5H39.2a.9.9,0,0,0,.9-.9,1.168,1.168,0,0,1,1.166-1.166.9.9,0,0,0,.9-.9v-7.8a.9.9,0,0,0-.9-.9A1.168,1.168,0,0,1,40.1,43.424a.9.9,0,0,0-.9-.9H32.162a3.259,3.259,0,0,0,.092-.5ZM27.546,38.289a1.468,1.468,0,0,1,2.935,0v3.4a1.468,1.468,0,1,1-2.935,0Zm-1.792-2.11v5.507a1.468,1.468,0,1,1-2.935,0V36.179a1.468,1.468,0,0,1,2.935,0ZM8.058,9.124,9.124,8.058V9.124ZM45.683,31.445H6.792V10.916H10.02a.9.9,0,0,0,.9-.9V6.792H48.745V11.51a3.767,3.767,0,0,0-4.366,4.483,1.912,1.912,0,0,1-.8,1.94,3.773,3.773,0,0,0,0,6.319,1.911,1.911,0,0,1,.8,1.94A3.685,3.685,0,0,0,45.4,29.635a3.914,3.914,0,0,0,.831.64l-.552,1.17Zm5.674.688h0L49.55,37.191l-.913-1.738a.9.9,0,0,0-1.06-.438L45.7,35.6,48,30.73a4.914,4.914,0,0,0,.846-.071,1.912,1.912,0,0,1,1.94.8A4.893,4.893,0,0,0,51.356,32.133Zm2.589-.751h0a1.913,1.913,0,0,1-1.7-.956,3.678,3.678,0,0,0-3.035-1.589,3.981,3.981,0,0,0-.665.057,1.987,1.987,0,0,1-2.4-2.4,3.691,3.691,0,0,0-1.533-3.7,1.987,1.987,0,0,1,0-3.4,3.692,3.692,0,0,0,1.533-3.7,1.987,1.987,0,0,1,2.4-2.4,3.691,3.691,0,0,0,3.7-1.532,1.987,1.987,0,0,1,3.4,0,3.692,3.692,0,0,0,3.7,1.532,1.987,1.987,0,0,1,2.4,2.4,3.692,3.692,0,0,0,1.532,3.7,1.987,1.987,0,0,1,0,3.4,3.692,3.692,0,0,0-1.532,3.7,1.987,1.987,0,0,1-2.4,2.4,3.691,3.691,0,0,0-3.7,1.532A1.913,1.913,0,0,1,53.946,31.382Zm8.275,4.2L60.346,35a.9.9,0,0,0-1.06.44l-.911,1.739-1.818-5.069a4.93,4.93,0,0,0,.548-.648,1.911,1.911,0,0,1,1.94-.8,4.881,4.881,0,0,0,.877.071l2.3,4.854Zm6.955,20.175a8.982,8.982,0,1,0-8.982-8.982A8.993,8.993,0,0,0,69.176,55.759Zm-8.982,5.3V58.2a.455.455,0,0,1,.449-.449H77.709a.455.455,0,0,1,.449.449v2.859a.455.455,0,0,1-.449.449H60.642a.455.455,0,0,1-.449-.449ZM77.709,63.3a.455.455,0,0,1,.449.449v2.859a.455.455,0,0,1-.449.449H60.642a.455.455,0,0,1-.449-.449V63.753a.455.455,0,0,1,.449-.449Zm0,5.549a.455.455,0,0,1,.449.449V72.16a.455.455,0,0,1-.449.449H60.642a.455.455,0,0,1-.449-.449V69.3a.455.455,0,0,1,.449-.449Zm.449,6v2.859a.455.455,0,0,1-.449.449H60.642a.455.455,0,0,1-.449-.449V74.85a.455.455,0,0,1,.449-.449H77.709A.455.455,0,0,1,78.158,74.85ZM53.946,27.373a6.281,6.281,0,1,1,6.281-6.281A6.288,6.288,0,0,1,53.946,27.373Zm4.49-6.281a4.49,4.49,0,1,1-4.49-4.49A4.495,4.495,0,0,1,58.435,21.092ZM11.052,15.722a.9.9,0,0,1,0-1.792H41.019a.9.9,0,1,1,0,1.792Zm0,8.585a.9.9,0,0,1,0-1.792H38.48a.9.9,0,1,1,0,1.792Zm29.967,2.5a.9.9,0,1,1,0,1.792H11.052a.9.9,0,0,1,0-1.792ZM15.676,11.429a.9.9,0,0,1,0-1.792H43.105a.9.9,0,1,1,0,1.792Zm-4.625,8.585a.9.9,0,0,1,0-1.792H38.48a.9.9,0,1,1,0,1.792Zm4.4,55.377a2.277,2.277,0,1,1,2.277,2.277A2.279,2.279,0,0,1,15.455,75.391Zm1.792,0a.485.485,0,1,1,.485.485A.486.486,0,0,1,17.247,75.391Z" transform="translate(0)" fill-rule="evenodd"/>
    </g>
  </g>
</svg>
