<svg xmlns="http://www.w3.org/2000/svg" width="169.706" height="169.706" viewBox="0 0 169.706 169.706">
  <g id="Grupo_1181061" data-name="Grupo 1181061" transform="translate(-1065.98 -3369.146)">
    <rect id="Rect치ngulo_402033" data-name="Rect치ngulo 402033" width="120" height="120" rx="30" transform="translate(1065.98 3453.999) rotate(-45)" fill="#ffd600"/>
    <rect id="Rect치ngulo_454167" data-name="Rect치ngulo 454167" width="100" height="100" rx="50" transform="translate(1100.833 3403.999)" fill="#c8bf57"/>
    <g id="Grupo_1181693" data-name="Grupo 1181693" transform="translate(1114.75 3417.974)">
      <path id="Trazado_1014507" data-name="Trazado 1014507" d="M23,1V23.3h1.115a3.341,3.341,0,0,0,3.346-3.346,2.23,2.23,0,0,1,4.461,0,7.8,7.8,0,0,1-7.806,7.806H23v6.691H67.608V1Z" transform="translate(2.649 0.115)" fill="#ccd1d9"/>
      <path id="Trazado_1014508" data-name="Trazado 1014508" d="M19.461,9.086v1.528C17.543,8.116,16.383,7.659,15,7.949V7.938L17.219,3.41A8.275,8.275,0,0,1,19.461,9.086Z" transform="translate(1.728 0.393)" fill="#f6bb42"/>
      <path id="Trazado_1014509" data-name="Trazado 1014509" d="M18.486,3.688,16.267,8.215v.011c-2.085.424-4.673,2.6-11.152,1.84-.357-.045-.736-.1-1.115-.156V9.364A8.35,8.35,0,0,1,18.486,3.688Z" transform="translate(0.461 0.115)" fill="#ffce54"/>
      <path id="Trazado_1014510" data-name="Trazado 1014510" d="M15.691,18.321V21.3l-1.115,1.115L12.346,21.3l-2.23,1.115L9,21.31v-3a7.749,7.749,0,0,0,6.691,0Z" transform="translate(1.037 2.109)" fill="#f5f7fa"/>
      <path id="Trazado_1014511" data-name="Trazado 1014511" d="M5,12.517V9.328c6.479.758,9.066-1.416,11.152-1.839,1.383-.291,2.543.166,4.461,2.665v2.374a7.776,7.776,0,0,1-4.461,7.037,7.749,7.749,0,0,1-6.691,0A7.776,7.776,0,0,1,5,12.529Z" transform="translate(0.576 0.854)" fill="#eac6bb"/>
      <path id="Trazado_1014512" data-name="Trazado 1014512" d="M17.689,7.855v4.622a7.776,7.776,0,0,1-4.461,7.037,7.6,7.6,0,0,1-2.229.67,7.561,7.561,0,0,0,4.462-.67,7.775,7.775,0,0,0,4.461-7.037V10.1a9.379,9.379,0,0,0-2.233-2.247Z" transform="translate(1.267 0.905)" fill="#d3b1a9"/>
      <g id="Grupo_1181692" data-name="Grupo 1181692" transform="translate(1.115 5.576)">
        <path id="Trazado_1014513" data-name="Trazado 1014513" d="M5.461,32.728H1V26.037a4.46,4.46,0,0,1,4.461-4.461H9.922l1.115,1.1,2.23-1.115L15.5,22.68l1.115-1.115,8.922.011h1.115a3.341,3.341,0,0,0,3.346-3.346,2.23,2.23,0,1,1,4.461,0,7.8,7.8,0,0,1-7.806,7.806H21.073v6.691Z" transform="translate(-1 -3.733)" fill="#e6e9ed"/>
        <path id="Trazado_1014514" data-name="Trazado 1014514" d="M43.922,23a2.23,2.23,0,0,1,0,4.461H37.23a2.23,2.23,0,0,1,0-4.461h6.691Z" transform="translate(2.916 -2.927)" fill="#e6e9ed"/>
        <path id="Trazado_1014515" data-name="Trazado 1014515" d="M43.922,5a2.23,2.23,0,0,1,0,4.461H37.23A2.23,2.23,0,1,1,37.23,5Z" transform="translate(2.916 -5)" fill="#e6e9ed"/>
      </g>
      <path id="Trazado_1014516" data-name="Trazado 1014516" d="M46.152,16.346l-5.576,3.346L35,16.346,40.576,13Z" transform="translate(4.032 1.497)" fill="#48cfad"/>
      <path id="Trazado_1014517" data-name="Trazado 1014517" d="M54.576,18.461H49V14H60.152v4.461Z" transform="translate(5.644 1.613)" fill="#e6e9ed"/>
      <path id="Trazado_1014518" data-name="Trazado 1014518" d="M54.806,51.461A8.858,8.858,0,0,0,62.613,47a7.776,7.776,0,0,1-4.461,7.037,7.749,7.749,0,0,1-6.691,0A7.775,7.775,0,0,1,47,47,8.858,8.858,0,0,0,54.806,51.461Z" transform="translate(5.414 5.414)" fill="#eac6bb"/>
      <path id="Trazado_1014519" data-name="Trazado 1014519" d="M59.267,36v3.346a3.339,3.339,0,0,1,3.346,3.334v5.587a9.061,9.061,0,0,1-15.613,0V42.68A6.68,6.68,0,0,1,53.691,36Z" transform="translate(5.414 4.147)" fill="#965353"/>
      <path id="Trazado_1014520" data-name="Trazado 1014520" d="M59.062,50.031a7.785,7.785,0,0,1-3.834,4.006,7.539,7.539,0,0,1-2.227.67,7.554,7.554,0,0,0,4.46-.67A7.775,7.775,0,0,0,61.921,47,8.746,8.746,0,0,1,59.062,50.031Z" transform="translate(6.105 5.414)" fill="#d3b1a9"/>
      <path id="Trazado_1014521" data-name="Trazado 1014521" d="M58.231,39.346V36H56v3.346h0a2.233,2.233,0,0,0,2.231,2.23,1.106,1.106,0,0,1,1.113,1.1v5.587a7.739,7.739,0,0,1-.628,3.031,8.743,8.743,0,0,0,2.86-3.031V42.68A3.339,3.339,0,0,0,58.231,39.346Z" transform="translate(6.45 4.147)" fill="#844747"/>
      <path id="Trazado_1014522" data-name="Trazado 1014522" d="M54.346,54.068a7.618,7.618,0,0,0,3.346-.759v4.105H51v-4.1a7.668,7.668,0,0,0,3.346.758Z" transform="translate(5.875 6.141)" fill="#87bcf4"/>
      <path id="Trazado_1014523" data-name="Trazado 1014523" d="M65.073,60.336v3.357H45V60.336a3.348,3.348,0,0,1,3.346-3.346V57h3.346V56.99h6.691V57h3.346V56.99A3.348,3.348,0,0,1,65.073,60.336Z" transform="translate(5.183 6.565)" fill="#5d9cec"/>
      <path id="Trazado_1014524" data-name="Trazado 1014524" d="M55,56.99h2.233V57H55Z" transform="translate(6.335 6.565)" fill="#4a89dc"/>
      <path id="Trazado_1014525" data-name="Trazado 1014525" d="M60.219,56.99V57H58.095a3.343,3.343,0,0,1,3.237,3.334v3.357h2.233V60.336A3.348,3.348,0,0,0,60.219,56.99Z" transform="translate(6.692 6.565)" fill="#4a89dc"/>
      <path id="Trazado_1014526" data-name="Trazado 1014526" d="M48.011,57V56.99c-.037,0-.07.01-.108.011Z" transform="translate(5.518 6.565)" fill="#4a89dc"/>
      <path id="Trazado_1014527" data-name="Trazado 1014527" d="M29,57.334V54h6.691v3.334L32.346,58.45Z" transform="translate(3.34 6.22)" fill="#eac6bb"/>
      <path id="Trazado_1014528" data-name="Trazado 1014528" d="M43.073,45.077V56.184H23V45.077a10.037,10.037,0,1,1,20.073,0Z" transform="translate(2.649 4.036)" fill="#ffce54"/>
      <path id="Trazado_1014529" data-name="Trazado 1014529" d="M32.115,35.04A9.969,9.969,0,0,0,31,35.106a10.038,10.038,0,0,1,8.92,9.971V56.184h2.233V45.077A10.038,10.038,0,0,0,32.115,35.04Z" transform="translate(3.571 4.036)" fill="#f6bb42"/>
      <path id="Trazado_1014530" data-name="Trazado 1014530" d="M26.346,57h3.346V56.99l3.346,1.115,3.346-1.115V57h3.346V56.99a3.348,3.348,0,0,1,3.346,3.346v3.357H23V60.336a3.348,3.348,0,0,1,3.346-3.346Z" transform="translate(2.649 6.565)" fill="#48cfad"/>
      <path id="Trazado_1014531" data-name="Trazado 1014531" d="M38.219,56.99V57H36.1a3.343,3.343,0,0,1,3.237,3.334v3.357h2.233V60.336A3.348,3.348,0,0,0,38.219,56.99Z" transform="translate(4.158 6.565)" fill="#37bc9b"/>
      <path id="Trazado_1014532" data-name="Trazado 1014532" d="M13.691,57.414H7v-4.1a7.749,7.749,0,0,0,6.691,0v4.1Z" transform="translate(0.806 6.141)" fill="#f5f7fa"/>
      <path id="Trazado_1014533" data-name="Trazado 1014533" d="M21.073,60.336v3.357H1V60.336A3.348,3.348,0,0,1,4.346,56.99V57H7.691V56.99h6.691V57h3.346V56.99A3.348,3.348,0,0,1,21.073,60.336Z" transform="translate(0.115 6.565)" fill="#e6e9ed"/>
      <path id="Trazado_1014534" data-name="Trazado 1014534" d="M4.011,57V56.99c-.037,0-.07.01-.108.011Z" transform="translate(0.45 6.565)" fill="#ccd1d9"/>
      <path id="Trazado_1014535" data-name="Trazado 1014535" d="M16.219,56.99V57H14.1a3.343,3.343,0,0,1,3.237,3.334v3.357h2.233V60.336a3.348,3.348,0,0,0-3.346-3.346Z" transform="translate(1.624 6.565)" fill="#ccd1d9"/>
      <path id="Trazado_1014536" data-name="Trazado 1014536" d="M10.806,54.8a7.654,7.654,0,0,1-3.346-.759A7.773,7.773,0,0,1,3,47a8.858,8.858,0,0,0,7.806,4.461A8.858,8.858,0,0,0,18.613,47a7.776,7.776,0,0,1-4.461,7.037A7.633,7.633,0,0,1,10.806,54.8Z" transform="translate(0.346 5.414)" fill="#eac6bb"/>
      <path id="Trazado_1014537" data-name="Trazado 1014537" d="M18.613,48.256v.011a8.858,8.858,0,0,1-7.806,4.461A8.858,8.858,0,0,1,3,48.267V43.8a7.806,7.806,0,0,1,15.613,0Z" transform="translate(0.346 4.147)" fill="#656d78"/>
      <path id="Trazado_1014538" data-name="Trazado 1014538" d="M15.062,50.031a7.785,7.785,0,0,1-3.834,4.006A7.539,7.539,0,0,1,9,54.707a7.807,7.807,0,0,0,1.114.088,7.618,7.618,0,0,0,3.346-.759A7.775,7.775,0,0,0,17.921,47,8.734,8.734,0,0,1,15.062,50.031Z" transform="translate(1.037 5.414)" fill="#d3b1a9"/>
      <path id="Trazado_1014539" data-name="Trazado 1014539" d="M10.115,36A7.76,7.76,0,0,0,9,36.088H9A7.791,7.791,0,0,1,15.689,43.8v4.472a7.739,7.739,0,0,1-.628,3.031,8.743,8.743,0,0,0,2.86-3.031V43.8A7.8,7.8,0,0,0,10.115,36Z" transform="translate(1.037 4.147)" fill="#545c66"/>
      <path id="Trazado_1014540" data-name="Trazado 1014540" d="M67.723,35.686H23.115A1.114,1.114,0,0,1,22,34.571V27.88a1.115,1.115,0,0,1,2.23,0v5.576H66.608V2.23H24.23V23.419a1.115,1.115,0,0,1-2.23,0V1.115A1.114,1.114,0,0,1,23.115,0H67.723a1.114,1.114,0,0,1,1.115,1.115V34.571A1.114,1.114,0,0,1,67.723,35.686Z" transform="translate(2.534)"/>
      <path id="Trazado_1014541" data-name="Trazado 1014541" d="M5.115,32.806A1.114,1.114,0,0,1,4,31.691V26.115a1.115,1.115,0,0,1,2.23,0v5.576A1.114,1.114,0,0,1,5.115,32.806Z" transform="translate(0.461 2.88)"/>
      <path id="Trazado_1014542" data-name="Trazado 1014542" d="M9.576,22.232H5.115a1.115,1.115,0,1,1,0-2.23H9.576a1.115,1.115,0,1,1,0,2.23Z" transform="translate(0.461 2.304)"/>
      <path id="Trazado_1014543" data-name="Trazado 1014543" d="M1.115,26.691A1.114,1.114,0,0,1,0,25.576,5.582,5.582,0,0,1,5.576,20a1.115,1.115,0,1,1,0,2.23A3.35,3.35,0,0,0,2.23,25.576,1.114,1.114,0,0,1,1.115,26.691Z" transform="translate(0 2.304)"/>
      <path id="Trazado_1014544" data-name="Trazado 1014544" d="M1.115,32.922A1.114,1.114,0,0,1,0,31.806V25.115a1.115,1.115,0,0,1,2.23,0v6.691A1.114,1.114,0,0,1,1.115,32.922Z" transform="translate(0 2.765)"/>
      <path id="Trazado_1014545" data-name="Trazado 1014545" d="M19.115,32.922A1.114,1.114,0,0,1,18,31.806V25.115a1.115,1.115,0,0,1,2.23,0v6.691A1.114,1.114,0,0,1,19.115,32.922Z" transform="translate(2.073 2.765)"/>
      <path id="Trazado_1014546" data-name="Trazado 1014546" d="M24.691,26.23H19.115a1.115,1.115,0,1,1,0-2.23h5.576a1.115,1.115,0,1,1,0,2.23Z" transform="translate(2.073 2.765)"/>
      <path id="Trazado_1014547" data-name="Trazado 1014547" d="M31.576,19.461a1.114,1.114,0,0,1-1.115-1.115,1.115,1.115,0,1,0-2.23,0,1.115,1.115,0,1,1-2.23,0,3.346,3.346,0,0,1,6.691,0A1.114,1.114,0,0,1,31.576,19.461Z" transform="translate(2.995 1.728)"/>
      <path id="Trazado_1014548" data-name="Trazado 1014548" d="M24.115,27.037a1.115,1.115,0,0,1,0-2.23,6.7,6.7,0,0,0,6.691-6.691,1.115,1.115,0,0,1,2.23,0A8.932,8.932,0,0,1,24.115,27.037Z" transform="translate(2.649 1.958)"/>
      <path id="Trazado_1014549" data-name="Trazado 1014549" d="M24.115,22.576a1.115,1.115,0,0,1,0-2.23,2.233,2.233,0,0,0,2.23-2.23,1.115,1.115,0,0,1,2.23,0A4.465,4.465,0,0,1,24.115,22.576Z" transform="translate(2.649 1.958)"/>
      <path id="Trazado_1014550" data-name="Trazado 1014550" d="M61.463,43.577a1.114,1.114,0,0,1-1.115-1.115,2.234,2.234,0,0,0-2.233-2.231,1.115,1.115,0,0,1,0-2.23,4.467,4.467,0,0,1,4.463,4.462A1.114,1.114,0,0,1,61.463,43.577Z" transform="translate(6.566 4.377)"/>
      <path id="Trazado_1014551" data-name="Trazado 1014551" d="M58.115,40.576A1.114,1.114,0,0,1,57,39.461V36.115a1.115,1.115,0,1,1,2.23,0v3.346A1.114,1.114,0,0,1,58.115,40.576Z" transform="translate(6.566 4.032)"/>
      <path id="Trazado_1014552" data-name="Trazado 1014552" d="M47.115,43.922A1.114,1.114,0,0,1,46,42.806,7.816,7.816,0,0,1,53.806,35a1.115,1.115,0,0,1,0,2.23,5.582,5.582,0,0,0-5.576,5.576A1.114,1.114,0,0,1,47.115,43.922Z" transform="translate(5.299 4.032)"/>
      <path id="Trazado_1014553" data-name="Trazado 1014553" d="M58.691,37.23H53.115a1.115,1.115,0,0,1,0-2.23h5.576a1.115,1.115,0,0,1,0,2.23Z" transform="translate(5.99 4.032)"/>
      <path id="Trazado_1014554" data-name="Trazado 1014554" d="M54.922,52.691a9.925,9.925,0,0,1-8.8-5.077,1.115,1.115,0,0,1,1.993-1,7.951,7.951,0,0,0,13.62.006,1.115,1.115,0,0,1,2,1,9.923,9.923,0,0,1-8.8,5.076Z" transform="translate(5.299 5.299)"/>
      <path id="Trazado_1014555" data-name="Trazado 1014555" d="M47.115,48.807A1.114,1.114,0,0,1,46,47.692v-5.58a1.115,1.115,0,1,1,2.23,0v5.58A1.114,1.114,0,0,1,47.115,48.807Z" transform="translate(5.299 4.722)"/>
      <path id="Trazado_1014556" data-name="Trazado 1014556" d="M61.115,48.807A1.114,1.114,0,0,1,60,47.692v-5.58a1.115,1.115,0,1,1,2.23,0v5.58A1.114,1.114,0,0,1,61.115,48.807Z" transform="translate(6.911 4.722)"/>
      <path id="Trazado_1014557" data-name="Trazado 1014557" d="M45.115,61.571A1.114,1.114,0,0,1,44,60.456,4.465,4.465,0,0,1,48.461,56a1.115,1.115,0,0,1,0,2.23,2.232,2.232,0,0,0-2.23,2.229A1.114,1.114,0,0,1,45.115,61.571Z" transform="translate(5.068 6.45)"/>
      <path id="Trazado_1014558" data-name="Trazado 1014558" d="M51.461,58.232H48.115a1.115,1.115,0,0,1,0-2.23h3.346a1.115,1.115,0,0,1,0,2.23Z" transform="translate(5.414 6.451)"/>
      <path id="Trazado_1014559" data-name="Trazado 1014559" d="M45.115,64.577A1.114,1.114,0,0,1,44,63.461V60.11a1.115,1.115,0,0,1,2.23,0v3.351A1.114,1.114,0,0,1,45.115,64.577Z" transform="translate(5.068 6.796)"/>
      <path id="Trazado_1014560" data-name="Trazado 1014560" d="M63.461,61.571a1.114,1.114,0,0,1-1.115-1.115,2.232,2.232,0,0,0-2.23-2.229,1.115,1.115,0,0,1,0-2.23,4.465,4.465,0,0,1,4.461,4.46A1.114,1.114,0,0,1,63.461,61.571Z" transform="translate(6.796 6.45)"/>
      <path id="Trazado_1014561" data-name="Trazado 1014561" d="M60.461,58.232H57.115a1.115,1.115,0,0,1,0-2.23h3.346a1.115,1.115,0,0,1,0,2.23Z" transform="translate(6.451 6.451)"/>
      <path id="Trazado_1014562" data-name="Trazado 1014562" d="M63.115,64.577A1.114,1.114,0,0,1,62,63.461V60.11a1.115,1.115,0,0,1,2.23,0v3.351A1.114,1.114,0,0,1,63.115,64.577Z" transform="translate(7.142 6.796)"/>
      <path id="Trazado_1014563" data-name="Trazado 1014563" d="M65.189,64.23H45.115a1.115,1.115,0,0,1,0-2.23H65.189a1.115,1.115,0,0,1,0,2.23Z" transform="translate(5.068 7.142)"/>
      <path id="Trazado_1014564" data-name="Trazado 1014564" d="M51.115,58.657A1.114,1.114,0,0,1,50,57.542V53.433a1.115,1.115,0,0,1,2.23,0v4.108A1.114,1.114,0,0,1,51.115,58.657Z" transform="translate(5.759 6.026)"/>
      <path id="Trazado_1014565" data-name="Trazado 1014565" d="M57.115,58.649A1.114,1.114,0,0,1,56,57.534v-4.1a1.115,1.115,0,0,1,2.23,0v4.1a1.114,1.114,0,0,1-1.115,1.115Z" transform="translate(6.451 6.026)"/>
      <path id="Trazado_1014566" data-name="Trazado 1014566" d="M54.922,56.028A8.93,8.93,0,0,1,46,47.11a1.115,1.115,0,0,1,2.23,0,6.691,6.691,0,0,0,13.382,0,1.115,1.115,0,0,1,2.23,0A8.93,8.93,0,0,1,54.922,56.028Z" transform="translate(5.299 5.298)"/>
      <path id="Trazado_1014567" data-name="Trazado 1014567" d="M57.806,58.225H51.115a1.115,1.115,0,0,1,0-2.23h6.691a1.115,1.115,0,1,1,0,2.23Z" transform="translate(5.759 6.45)"/>
      <path id="Trazado_1014568" data-name="Trazado 1014568" d="M10.922,52.691a9.925,9.925,0,0,1-8.8-5.077,1.115,1.115,0,0,1,1.993-1,7.7,7.7,0,0,0,6.812,3.85,7.743,7.743,0,0,0,6.808-3.844,1.115,1.115,0,0,1,2,1,9.923,9.923,0,0,1-8.8,5.076Z" transform="translate(0.23 5.299)"/>
      <path id="Trazado_1014569" data-name="Trazado 1014569" d="M3.115,48.692A1.114,1.114,0,0,1,2,47.576V43.111a1.115,1.115,0,0,1,2.23,0v4.465A1.114,1.114,0,0,1,3.115,48.692Z" transform="translate(0.23 4.837)"/>
      <path id="Trazado_1014570" data-name="Trazado 1014570" d="M17.115,48.692A1.114,1.114,0,0,1,16,47.576V43.111a1.115,1.115,0,0,1,2.23,0v4.465A1.114,1.114,0,0,1,17.115,48.692Z" transform="translate(1.843 4.837)"/>
      <path id="Trazado_1014571" data-name="Trazado 1014571" d="M1.115,61.571A1.114,1.114,0,0,1,0,60.456,4.465,4.465,0,0,1,4.461,56a1.115,1.115,0,0,1,0,2.23,2.232,2.232,0,0,0-2.23,2.229A1.114,1.114,0,0,1,1.115,61.571Z" transform="translate(0 6.45)"/>
      <path id="Trazado_1014572" data-name="Trazado 1014572" d="M7.461,58.232H4.115a1.115,1.115,0,0,1,0-2.23H7.461a1.115,1.115,0,0,1,0,2.23Z" transform="translate(0.346 6.451)"/>
      <path id="Trazado_1014573" data-name="Trazado 1014573" d="M1.115,64.577A1.114,1.114,0,0,1,0,63.461V60.11a1.115,1.115,0,0,1,2.23,0v3.351A1.114,1.114,0,0,1,1.115,64.577Z" transform="translate(0 6.796)"/>
      <path id="Trazado_1014574" data-name="Trazado 1014574" d="M19.461,61.571a1.114,1.114,0,0,1-1.115-1.115,2.232,2.232,0,0,0-2.23-2.229,1.115,1.115,0,0,1,0-2.23,4.465,4.465,0,0,1,4.461,4.46A1.114,1.114,0,0,1,19.461,61.571Z" transform="translate(1.728 6.45)"/>
      <path id="Trazado_1014575" data-name="Trazado 1014575" d="M16.461,58.232H13.115a1.115,1.115,0,1,1,0-2.23h3.346a1.115,1.115,0,0,1,0,2.23Z" transform="translate(1.382 6.451)"/>
      <path id="Trazado_1014576" data-name="Trazado 1014576" d="M19.115,64.577A1.114,1.114,0,0,1,18,63.461V60.11a1.115,1.115,0,0,1,2.23,0v3.351A1.114,1.114,0,0,1,19.115,64.577Z" transform="translate(2.073 6.796)"/>
      <path id="Trazado_1014577" data-name="Trazado 1014577" d="M21.189,64.23H1.115a1.115,1.115,0,0,1,0-2.23H21.189a1.115,1.115,0,0,1,0,2.23Z" transform="translate(0 7.142)"/>
      <path id="Trazado_1014578" data-name="Trazado 1014578" d="M7.115,58.657A1.114,1.114,0,0,1,6,57.542V53.433a1.115,1.115,0,0,1,2.23,0v4.108A1.114,1.114,0,0,1,7.115,58.657Z" transform="translate(0.691 6.026)"/>
      <path id="Trazado_1014579" data-name="Trazado 1014579" d="M13.115,58.649A1.114,1.114,0,0,1,12,57.534v-4.1a1.115,1.115,0,0,1,2.23,0v4.1a1.114,1.114,0,0,1-1.115,1.115Z" transform="translate(1.382 6.026)"/>
      <path id="Trazado_1014580" data-name="Trazado 1014580" d="M10.922,56.028A8.93,8.93,0,0,1,2,47.11a1.115,1.115,0,0,1,2.23,0,6.691,6.691,0,0,0,13.382,0,1.115,1.115,0,0,1,2.23,0A8.93,8.93,0,0,1,10.922,56.028Z" transform="translate(0.23 5.298)"/>
      <path id="Trazado_1014581" data-name="Trazado 1014581" d="M18.728,45.032a1.114,1.114,0,0,1-1.115-1.115,6.691,6.691,0,0,0-13.382,0,1.115,1.115,0,0,1-2.23,0,8.922,8.922,0,0,1,17.843,0A1.114,1.114,0,0,1,18.728,45.032Z" transform="translate(0.23 4.032)"/>
      <path id="Trazado_1014582" data-name="Trazado 1014582" d="M13.806,58.225H7.115a1.115,1.115,0,1,1,0-2.23h6.691a1.115,1.115,0,1,1,0,2.23Z" transform="translate(0.691 6.45)"/>
      <path id="Trazado_1014583" data-name="Trazado 1014583" d="M41.115,56.377A1.114,1.114,0,0,1,40,55.262V44.157a1.115,1.115,0,0,1,2.23,0V55.262A1.114,1.114,0,0,1,41.115,56.377Z" transform="translate(4.608 4.958)"/>
      <path id="Trazado_1014584" data-name="Trazado 1014584" d="M43.189,55.23H23.115a1.115,1.115,0,0,1,0-2.23H43.189a1.115,1.115,0,0,1,0,2.23Z" transform="translate(2.534 6.105)"/>
      <path id="Trazado_1014585" data-name="Trazado 1014585" d="M23.115,56.377A1.114,1.114,0,0,1,22,55.262V44.157a1.115,1.115,0,0,1,2.23,0V55.262A1.114,1.114,0,0,1,23.115,56.377Z" transform="translate(2.534 4.958)"/>
      <path id="Trazado_1014586" data-name="Trazado 1014586" d="M43.189,46.309a1.114,1.114,0,0,1-1.115-1.115,8.922,8.922,0,0,0-17.843,0,1.115,1.115,0,1,1-2.23,0,11.152,11.152,0,1,1,22.3,0A1.114,1.114,0,0,1,43.189,46.309Z" transform="translate(2.534 3.921)"/>
      <path id="Trazado_1014587" data-name="Trazado 1014587" d="M23.115,61.571A1.114,1.114,0,0,1,22,60.456,4.465,4.465,0,0,1,26.461,56a1.115,1.115,0,0,1,0,2.23,2.232,2.232,0,0,0-2.23,2.229A1.114,1.114,0,0,1,23.115,61.571Z" transform="translate(2.534 6.45)"/>
      <path id="Trazado_1014588" data-name="Trazado 1014588" d="M29.461,58.232H26.115a1.115,1.115,0,1,1,0-2.23h3.346a1.115,1.115,0,0,1,0,2.23Z" transform="translate(2.88 6.451)"/>
      <path id="Trazado_1014589" data-name="Trazado 1014589" d="M23.115,64.577A1.114,1.114,0,0,1,22,63.461V60.11a1.115,1.115,0,0,1,2.23,0v3.351A1.114,1.114,0,0,1,23.115,64.577Z" transform="translate(2.534 6.796)"/>
      <path id="Trazado_1014590" data-name="Trazado 1014590" d="M41.461,61.571a1.114,1.114,0,0,1-1.115-1.115,2.232,2.232,0,0,0-2.23-2.229,1.115,1.115,0,0,1,0-2.23,4.465,4.465,0,0,1,4.461,4.46A1.114,1.114,0,0,1,41.461,61.571Z" transform="translate(4.262 6.45)"/>
      <path id="Trazado_1014591" data-name="Trazado 1014591" d="M38.461,58.232H35.115a1.115,1.115,0,0,1,0-2.23h3.346a1.115,1.115,0,0,1,0,2.23Z" transform="translate(3.916 6.451)"/>
      <path id="Trazado_1014592" data-name="Trazado 1014592" d="M41.115,64.577A1.114,1.114,0,0,1,40,63.461V60.11a1.115,1.115,0,0,1,2.23,0v3.351A1.114,1.114,0,0,1,41.115,64.577Z" transform="translate(4.608 6.796)"/>
      <path id="Trazado_1014593" data-name="Trazado 1014593" d="M43.189,64.23H23.115a1.115,1.115,0,1,1,0-2.23H43.189a1.115,1.115,0,0,1,0,2.23Z" transform="translate(2.534 7.142)"/>
      <path id="Trazado_1014594" data-name="Trazado 1014594" d="M29.115,58.426A1.114,1.114,0,0,1,28,57.311V55.433a1.115,1.115,0,0,1,2.23,0v1.878A1.114,1.114,0,0,1,29.115,58.426Z" transform="translate(3.225 6.257)"/>
      <path id="Trazado_1014595" data-name="Trazado 1014595" d="M35.115,58.419A1.114,1.114,0,0,1,34,57.3v-1.87a1.115,1.115,0,0,1,2.23,0V57.3a1.114,1.114,0,0,1-1.115,1.115Z" transform="translate(3.916 6.257)"/>
      <path id="Trazado_1014596" data-name="Trazado 1014596" d="M32.461,59.341a1.116,1.116,0,0,1-.352-.058l-3.346-1.115a1.115,1.115,0,1,1,.706-2.116l3.346,1.115a1.115,1.115,0,0,1-.354,2.174Z" transform="translate(3.225 6.45)"/>
      <path id="Trazado_1014597" data-name="Trazado 1014597" d="M32.115,59.341a1.115,1.115,0,0,1-.352-2.174l3.346-1.115a1.115,1.115,0,0,1,.706,2.116l-3.346,1.115a1.1,1.1,0,0,1-.354.058Z" transform="translate(3.571 6.45)"/>
      <path id="Trazado_1014598" data-name="Trazado 1014598" d="M5.115,13.561A1.114,1.114,0,0,1,4,12.446v-3.2a1.115,1.115,0,1,1,2.23,0v3.2A1.114,1.114,0,0,1,5.115,13.561Z" transform="translate(0.461 0.937)"/>
      <path id="Trazado_1014599" data-name="Trazado 1014599" d="M19.115,13.634A1.114,1.114,0,0,1,18,12.518v-3.9a1.115,1.115,0,1,1,2.23,0v3.9A1.114,1.114,0,0,1,19.115,13.634Z" transform="translate(2.073 0.864)"/>
      <path id="Trazado_1014600" data-name="Trazado 1014600" d="M20.843,10.593a1.114,1.114,0,0,1-1.115-1.115,7.249,7.249,0,0,0-14.5,0,1.115,1.115,0,0,1-2.23,0,9.479,9.479,0,0,1,18.958,0A1.114,1.114,0,0,1,20.843,10.593Z" transform="translate(0.346)"/>
      <path id="Trazado_1014601" data-name="Trazado 1014601" d="M20.844,11.383a1.114,1.114,0,0,1-.887-.437c-2.152-2.813-2.738-2.581-4.922-1.715A18.777,18.777,0,0,1,3.941,10.393a1.114,1.114,0,1,1,.349-2.2,16.631,16.631,0,0,0,9.924-1.034C16.9,6.091,18.705,5.642,21.728,9.59a1.115,1.115,0,0,1-.884,1.793Z" transform="translate(0.346 0.739)"/>
      <path id="Trazado_1014602" data-name="Trazado 1014602" d="M15.114,9.175a1.116,1.116,0,0,1-1-1.607l2.23-4.54a1.115,1.115,0,1,1,2,.982l-2.23,4.54a1.115,1.115,0,0,1-1,.625Z" transform="translate(1.613 0.277)"/>
      <path id="Trazado_1014603" data-name="Trazado 1014603" d="M25.152,22.231l-10.038-.006a1.115,1.115,0,0,1,0-2.23h0L25.153,20a1.115,1.115,0,0,1,0,2.23Z" transform="translate(1.613 2.303)"/>
      <path id="Trazado_1014604" data-name="Trazado 1014604" d="M9.115,22.542A1.114,1.114,0,0,1,8,21.426V18.433a1.115,1.115,0,0,1,2.23,0v2.993A1.114,1.114,0,0,1,9.115,22.542Z" transform="translate(0.922 1.995)"/>
      <path id="Trazado_1014605" data-name="Trazado 1014605" d="M15.115,22.534A1.114,1.114,0,0,1,14,21.419V18.433a1.115,1.115,0,0,1,2.23,0v2.985A1.114,1.114,0,0,1,15.115,22.534Z" transform="translate(1.613 1.995)"/>
      <path id="Trazado_1014606" data-name="Trazado 1014606" d="M12.922,21.028A8.93,8.93,0,0,1,4,12.11a1.115,1.115,0,0,1,2.23,0,6.691,6.691,0,0,0,13.382,0,1.115,1.115,0,0,1,2.23,0A8.93,8.93,0,0,1,12.922,21.028Z" transform="translate(0.461 1.266)"/>
      <path id="Trazado_1014607" data-name="Trazado 1014607" d="M10.116,23.341a1.116,1.116,0,0,1-.5-2.113l2.23-1.115a1.115,1.115,0,0,1,1,2l-2.23,1.115a1.1,1.1,0,0,1-.5.118Z" transform="translate(1.037 2.303)"/>
      <path id="Trazado_1014608" data-name="Trazado 1014608" d="M14.115,23.341a1.115,1.115,0,0,1-.788-1.9l1.115-1.115A1.115,1.115,0,0,1,16.019,21.9L14.9,23.014a1.112,1.112,0,0,1-.788.327Z" transform="translate(1.497 2.303)"/>
      <path id="Trazado_1014609" data-name="Trazado 1014609" d="M10.23,23.341a1.112,1.112,0,0,1-.788-.327L8.327,21.9A1.115,1.115,0,0,1,9.9,20.322l1.115,1.115a1.115,1.115,0,0,1-.788,1.9Z" transform="translate(0.921 2.303)"/>
      <path id="Trazado_1014610" data-name="Trazado 1014610" d="M14.344,23.34a1.118,1.118,0,0,1-.5-.117l-2.23-1.115a1.115,1.115,0,0,1,1-2l2.23,1.115a1.115,1.115,0,0,1-.5,2.112Z" transform="translate(1.267 2.303)"/>
      <path id="Trazado_1014611" data-name="Trazado 1014611" d="M4.115,10.283A1.114,1.114,0,0,1,3,9.167V8.614a1.115,1.115,0,0,1,2.23,0v.553A1.114,1.114,0,0,1,4.115,10.283Z" transform="translate(0.346 0.864)"/>
      <path id="Trazado_1014612" data-name="Trazado 1014612" d="M37.344,10.691a3.346,3.346,0,1,1,0-6.691,1.115,1.115,0,0,1,0,2.23,1.115,1.115,0,0,0,0,2.23,1.115,1.115,0,0,1,0,2.23Z" transform="translate(3.916 0.461)"/>
      <path id="Trazado_1014613" data-name="Trazado 1014613" d="M43.111,10.691a1.115,1.115,0,0,1,0-2.23,1.115,1.115,0,1,0,0-2.23,1.115,1.115,0,0,1,0-2.23,3.346,3.346,0,0,1,0,6.691Z" transform="translate(4.837 0.461)"/>
      <path id="Trazado_1014614" data-name="Trazado 1014614" d="M43.8,6.23H37.113a1.115,1.115,0,0,1,0-2.23H43.8a1.115,1.115,0,0,1,0,2.23Z" transform="translate(4.147 0.461)"/>
      <path id="Trazado_1014615" data-name="Trazado 1014615" d="M43.8,10.23H37.113a1.115,1.115,0,0,1,0-2.23H43.8a1.115,1.115,0,1,1,0,2.23Z" transform="translate(4.147 0.922)"/>
      <path id="Trazado_1014616" data-name="Trazado 1014616" d="M37.344,28.69a3.346,3.346,0,1,1,0-6.691,1.115,1.115,0,1,1,0,2.23,1.115,1.115,0,0,0,0,2.23,1.115,1.115,0,1,1,0,2.23Z" transform="translate(3.916 2.534)"/>
      <path id="Trazado_1014617" data-name="Trazado 1014617" d="M43.111,28.69a1.115,1.115,0,1,1,0-2.23,1.115,1.115,0,0,0,0-2.23,1.115,1.115,0,1,1,0-2.23,3.346,3.346,0,1,1,0,6.691Z" transform="translate(4.837 2.534)"/>
      <path id="Trazado_1014618" data-name="Trazado 1014618" d="M43.8,24.229H37.113a1.115,1.115,0,0,1,0-2.23H43.8a1.115,1.115,0,1,1,0,2.23Z" transform="translate(4.147 2.534)"/>
      <path id="Trazado_1014619" data-name="Trazado 1014619" d="M43.8,28.229H37.113a1.115,1.115,0,0,1,0-2.23H43.8a1.115,1.115,0,1,1,0,2.23Z" transform="translate(4.147 2.995)"/>
      <path id="Trazado_1014620" data-name="Trazado 1014620" d="M40.112,14.687A1.114,1.114,0,0,1,39,13.571V9.115a1.115,1.115,0,0,1,2.23,0v4.456A1.114,1.114,0,0,1,40.112,14.687Z" transform="translate(4.492 0.922)"/>
      <path id="Trazado_1014621" data-name="Trazado 1014621" d="M40.688,20.922a1.119,1.119,0,0,1-.574-.159l-5.575-3.346a1.115,1.115,0,0,1,0-1.911l5.575-3.346a1.12,1.12,0,0,1,1.148,0l5.575,3.346a1.115,1.115,0,0,1,0,1.911l-5.575,3.346A1.109,1.109,0,0,1,40.688,20.922ZM37.28,16.462l3.408,2.045L44.1,16.462l-3.408-2.045Z" transform="translate(3.916 1.383)"/>
      <path id="Trazado_1014622" data-name="Trazado 1014622" d="M60.267,19.692H49.115A1.114,1.114,0,0,1,48,18.577V14.115A1.114,1.114,0,0,1,49.115,13H60.267a1.114,1.114,0,0,1,1.115,1.115v4.462A1.114,1.114,0,0,1,60.267,19.692ZM50.23,17.462h8.922V15.23H50.23Z" transform="translate(5.529 1.497)"/>
      <path id="Trazado_1014623" data-name="Trazado 1014623" d="M40.112,24.69A1.114,1.114,0,0,1,39,23.575V19.116a1.115,1.115,0,0,1,2.23,0v4.459A1.114,1.114,0,0,1,40.112,24.69Z" transform="translate(4.492 2.074)"/>
      <path id="Trazado_1014624" data-name="Trazado 1014624" d="M49.576,17.231H45.111a1.115,1.115,0,0,1,0-2.23h4.465a1.115,1.115,0,0,1,0,2.23Z" transform="translate(5.068 1.728)"/>
      <path id="Trazado_1014625" data-name="Trazado 1014625" d="M54.115,27.037A1.114,1.114,0,0,1,53,25.921V18.116a1.115,1.115,0,0,1,2.23,0v7.805A1.114,1.114,0,0,1,54.115,27.037Z" transform="translate(6.105 1.958)"/>
      <path id="Trazado_1014626" data-name="Trazado 1014626" d="M55.152,26.23H45.111a1.115,1.115,0,0,1,0-2.23H55.152a1.115,1.115,0,0,1,0,2.23Z" transform="translate(5.068 2.765)"/>
    </g>
  </g>
</svg>
