<svg xmlns="http://www.w3.org/2000/svg" width="50" height="49.479" viewBox="0 0 50 49.479">
  <g id="Grupo_1181726" data-name="Grupo 1181726" transform="translate(0 -2.698)">
    <path id="Trazado_1014660" data-name="Trazado 1014660" d="M38.385,17.552h1.167v4.607a.725.725,0,0,0,1.45,0V17.552h1.167a.725.725,0,0,0,0-1.45H41V14a.735.735,0,0,1,.734-.734h1.717a.725.725,0,0,0,0-1.45H41.736A2.186,2.186,0,0,0,39.552,14V16.1H38.385a.725.725,0,0,0,0,1.45ZM25.261,6.637a.725.725,0,1,0-.725-.725A.725.725,0,0,0,25.261,6.637ZM9.6,19.23a2.174,2.174,0,1,0-2.174-2.174A2.177,2.177,0,0,0,9.6,19.23Zm0-2.9a.725.725,0,1,1-.725.725A.726.726,0,0,1,9.6,16.331Zm2.9,5.8a2.177,2.177,0,0,0,2.174-2.174v-5.8A2.177,2.177,0,0,0,12.5,11.982H6.7a2.177,2.177,0,0,0-2.174,2.174v5.8A2.177,2.177,0,0,0,6.7,22.129ZM5.978,19.955v-5.8a.726.726,0,0,1,.725-.725h5.8a.726.726,0,0,1,.725.725v5.8a.726.726,0,0,1-.725.725H6.7A.726.726,0,0,1,5.978,19.955Zm8.017,12.911a1.167,1.167,0,0,0-1.216-.116,1.407,1.407,0,0,1-.3.106,1.39,1.39,0,0,1-.389.031A2.572,2.572,0,0,0,7.8,34.45a3.652,3.652,0,0,1-2.186-1.222.971.971,0,0,0-1.668.357,4.648,4.648,0,0,0,1.383,5.057c-.409.125-.875.115-1.113.529A1.247,1.247,0,0,0,4.2,40.214a1.772,1.772,0,0,0,1.328.956,5.881,5.881,0,0,0,1.464.169A6.859,6.859,0,0,0,11.308,39.9a6.228,6.228,0,0,0,2.073-3.681,4.524,4.524,0,0,0,1.06-2.222,1.159,1.159,0,0,0-.447-1.127Zm-1.81,2.509a.725.725,0,0,0-.195.386,4.887,4.887,0,0,1-1.6,3.015,5.7,5.7,0,0,1-4.11,1.065,5.522,5.522,0,0,0,.984-.53.725.725,0,0,0-.113-1.262A2.987,2.987,0,0,1,5.171,34.81a5.085,5.085,0,0,0,3.35,1.134.725.725,0,0,0,.706-.724v-.412s0-.006,0-.01a1.122,1.122,0,0,1,1.968-.751.725.725,0,0,0,.405.235,2.861,2.861,0,0,0,1.282-.034,3.084,3.084,0,0,1-.7,1.126ZM40.919,27.7h-.051v-1.56h.051a9.081,9.081,0,1,0-.051-18.161V7.288a4.6,4.6,0,0,0-4.59-4.59H14.244a4.6,4.6,0,0,0-4.59,4.59v.687A9.042,9.042,0,0,0,4.671,9.429a.725.725,0,0,0,.788,1.217A7.63,7.63,0,1,1,3.268,12.8a.725.725,0,1,0-1.2-.81A9.082,9.082,0,0,0,9.6,26.137h.051v1.578c-.19-.012-.38-.019-.573-.019a9.081,9.081,0,0,0,0,18.162c.192,0,.383-.007.573-.019v1.748a4.6,4.6,0,0,0,4.59,4.59H36.277a4.6,4.6,0,0,0,4.59-4.59v-1.73h.051a9.081,9.081,0,0,0,0-18.162Zm0-18.271a7.631,7.631,0,1,1-7.631,7.631A7.64,7.64,0,0,1,40.919,9.424Zm-1.5,16.587v1.806a9.038,9.038,0,0,0-1.45.364V25.644a8.988,8.988,0,0,0,1.45.368ZM12.553,7.771v.7A9,9,0,0,0,11.1,8.1V7.288a3.144,3.144,0,0,1,3.141-3.141H36.277a3.144,3.144,0,0,1,3.141,3.141V8.1a9,9,0,0,0-1.45.368v-.7A2.177,2.177,0,0,0,35.794,5.6H33.132a1.5,1.5,0,0,0-1.5,1.5.582.582,0,0,1-.582.582H19.469a.582.582,0,0,1-.582-.582,1.5,1.5,0,0,0-1.5-1.5H14.727A2.177,2.177,0,0,0,12.553,7.771ZM11.1,26.012a9,9,0,0,0,1.45-.368v2.741a9,9,0,0,0-1.45-.463Zm-2.022,18.4a7.631,7.631,0,1,1,7.631-7.631A7.543,7.543,0,0,1,9.081,44.407Zm30.337,3.179a3.144,3.144,0,0,1-3.141,3.141H14.244A3.144,3.144,0,0,1,11.1,47.586V45.63a9,9,0,0,0,1.45-.463V47.1a2.177,2.177,0,0,0,2.174,2.174H35.794A2.177,2.177,0,0,0,37.969,47.1V45.365a9,9,0,0,0,1.45.368Zm1.5-3.179a7.638,7.638,0,0,1-7.385-9.561.725.725,0,1,0-1.4-.365,9.089,9.089,0,0,0,4.388,10.236V47.1a.726.726,0,0,1-.725.725H14.727A.726.726,0,0,1,14,47.1V44.4a9.075,9.075,0,0,0,0-15.256V25A9.077,9.077,0,0,0,14,9.115V7.771a.726.726,0,0,1,.725-.725H17.39a.048.048,0,0,1,.034.014.046.046,0,0,1,.014.034,2.034,2.034,0,0,0,2.031,2.031H31.052a2.034,2.034,0,0,0,2.031-2.031.048.048,0,0,1,.048-.048h2.662a.726.726,0,0,1,.725.725V9.115A9.077,9.077,0,0,0,36.524,25a.74.74,0,0,0-.005.083v3.743a9.1,9.1,0,0,0-2.8,2.41.725.725,0,0,0,1.148.885,7.538,7.538,0,0,1,6.048-2.976,7.631,7.631,0,1,1,0,15.263Zm-13-17.21a.725.725,0,0,0-1,.243,1.741,1.741,0,0,1-.541.551.658.658,0,0,1-.7.01L24.6,27.344a.672.672,0,0,1-.31-.639,1.7,1.7,0,0,1,.238-.717.725.725,0,1,0-1.239-.753,3.163,3.163,0,0,0-.442,1.334v.015a2.116,2.116,0,0,0,1,2l1.085.658a2.115,2.115,0,0,0,2.236-.032,3.2,3.2,0,0,0,.992-1.016A.725.725,0,0,0,27.917,27.2ZM44.733,36l-5.082-2.936a1.013,1.013,0,0,0-1.508.871v5.871a1.015,1.015,0,0,0,1.508.871l5.082-2.935A1.017,1.017,0,0,0,44.733,36Zm-5.141,3.037V34.7l3.75,2.166ZM25.085,20.874a6.566,6.566,0,0,0-6.046,8.658l-.772,2.2a1.111,1.111,0,0,0,1.417,1.417l1.531-.538a6.565,6.565,0,1,0,3.871-11.733ZM25.4,32.551A5.133,5.133,0,0,1,22.1,31.457a1.412,1.412,0,0,0-.875-.307,1.4,1.4,0,0,0-.463.079l-.891.313L20.411,30a1.4,1.4,0,0,0,.006-.91A5.116,5.116,0,1,1,25.4,32.551Z" fill="#405425"/>
  </g>
</svg>
