<svg id="Grupo_1181780" data-name="Grupo 1181780" xmlns="http://www.w3.org/2000/svg" xmlns:xlink="http://www.w3.org/1999/xlink" width="163.559" height="153.216" viewBox="0 0 163.559 153.216">
  <defs>
    <clipPath id="clip-path">
      <rect id="Rectángulo_455790" data-name="Rectángulo 455790" width="163.559" height="153.216" fill="none"/>
    </clipPath>
    <clipPath id="clip-path-3">
      <rect id="Rectángulo_455771" data-name="Rectángulo 455771" width="6.923" height="7.1" fill="none"/>
    </clipPath>
    <clipPath id="clip-path-4">
      <rect id="Rectángulo_455772" data-name="Rectángulo 455772" width="9.441" height="13.655" fill="none"/>
    </clipPath>
    <clipPath id="clip-path-5">
      <rect id="Rectángulo_455773" data-name="Rectángulo 455773" width="5.362" height="5.361" fill="none"/>
    </clipPath>
    <clipPath id="clip-path-6">
      <rect id="Rectángulo_455774" data-name="Rectángulo 455774" width="9.741" height="9.741" fill="none"/>
    </clipPath>
    <clipPath id="clip-path-7">
      <rect id="Rectángulo_455775" data-name="Rectángulo 455775" width="4.767" height="4.767" fill="none"/>
    </clipPath>
    <clipPath id="clip-path-8">
      <rect id="Rectángulo_455776" data-name="Rectángulo 455776" width="4.38" height="4.38" fill="none"/>
    </clipPath>
    <clipPath id="clip-path-9">
      <rect id="Rectángulo_455777" data-name="Rectángulo 455777" width="6.699" height="6.699" fill="none"/>
    </clipPath>
    <clipPath id="clip-path-10">
      <rect id="Rectángulo_455778" data-name="Rectángulo 455778" width="5.49" height="5.49" fill="none"/>
    </clipPath>
    <clipPath id="clip-path-11">
      <rect id="Rectángulo_455779" data-name="Rectángulo 455779" width="2.641" height="2.641" fill="none"/>
    </clipPath>
    <clipPath id="clip-path-12">
      <rect id="Rectángulo_455780" data-name="Rectángulo 455780" width="3.221" height="3.221" fill="none"/>
    </clipPath>
    <clipPath id="clip-path-13">
      <rect id="Rectángulo_455781" data-name="Rectángulo 455781" width="3.105" height="3.105" fill="none"/>
    </clipPath>
    <clipPath id="clip-path-14">
      <rect id="Rectángulo_455782" data-name="Rectángulo 455782" width="10.251" height="10.251" fill="none"/>
    </clipPath>
    <clipPath id="clip-path-15">
      <rect id="Rectángulo_455783" data-name="Rectángulo 455783" width="4.449" height="4.448" fill="none"/>
    </clipPath>
    <clipPath id="clip-path-16">
      <rect id="Rectángulo_455784" data-name="Rectángulo 455784" width="10.244" height="8.035" fill="none"/>
    </clipPath>
    <clipPath id="clip-path-17">
      <rect id="Rectángulo_455785" data-name="Rectángulo 455785" width="5.014" height="5.014" fill="none"/>
    </clipPath>
    <clipPath id="clip-path-18">
      <rect id="Rectángulo_455786" data-name="Rectángulo 455786" width="5.137" height="5.137" fill="none"/>
    </clipPath>
  </defs>
  <g id="Grupo_1181779" data-name="Grupo 1181779" clip-path="url(#clip-path)">
    <g id="Grupo_1181778" data-name="Grupo 1181778">
      <g id="Grupo_1181777" data-name="Grupo 1181777" clip-path="url(#clip-path)">
        <path id="Trazado_1014688" data-name="Trazado 1014688" d="M164.7,650.994a7.87,7.87,0,0,0,1.66,1.892c2.669,2.246,9.3,8.106,9.3,8.106l18.658,21.741a15.215,15.215,0,0,0,21.521.757l15.25-14.911-15.068-12.836L205.029,665.5l-17.05-16.955-.939-1.06-17.717-19.5a2.838,2.838,0,0,0-4.516,3.4l4.955,8.023a3.352,3.352,0,0,0-2.558,2.952.522.522,0,0,0-.055.005c-.343.035-2.1.353-2.245,3.108-.55.187-1.877,2.76-.207,5.52" transform="translate(-146.424 -560.257)" fill="#fff"/>
        <path id="Trazado_1014689" data-name="Trazado 1014689" d="M202.757,685.215a15.51,15.51,0,0,1-11.37-4.949l-18.652-21.734c-.371-.328-6.7-5.923-9.274-8.086a8.249,8.249,0,0,1-1.728-1.971h0a5.439,5.439,0,0,1-.563-4.708,2.743,2.743,0,0,1,.735-1.169c.193-2.5,1.682-3.073,2.312-3.2a3.572,3.572,0,0,1,2.372-2.846l-4.743-7.679a3.16,3.16,0,0,1,5.026-3.786l17.717,19.5.941,1.063,16.823,16.727,10.76-9.553a.321.321,0,0,1,.421,0L228.6,665.648a.321.321,0,0,1,.016.474l-15.25,14.911A15.506,15.506,0,0,1,203.4,685.2c-.214.009-.427.013-.64.013m-40.475-37.074a7.6,7.6,0,0,0,1.594,1.814c2.641,2.221,9.235,8.052,9.3,8.111a.275.275,0,0,1,.031.031l18.658,21.741a14.895,14.895,0,0,0,21.059.731l14.993-14.66L213.33,653.481l-10.776,9.568a.321.321,0,0,1-.439-.012l-17.05-16.954-.953-1.075L166.4,625.513a2.518,2.518,0,0,0-4.006,3.016l4.956,8.024a.321.321,0,0,1-.2.481,3,3,0,0,0-2.311,2.655.321.321,0,0,1-.321.306c-.327.035-1.853.316-1.981,2.808a.321.321,0,0,1-.217.287,2.145,2.145,0,0,0-.606,1.078,4.81,4.81,0,0,0,.571,3.972" transform="translate(-143.735 -557.571)" fill="#030047"/>
        <path id="Trazado_1014690" data-name="Trazado 1014690" d="M171.989,804.8s1.748,5.129-3.229,3.164a14.885,14.885,0,0,1-4.062-2.484c-1.673-2.76-.343-5.334.2-5.52Z" transform="translate(-146.425 -714.742)" fill="#fff"/>
        <path id="Trazado_1014691" data-name="Trazado 1014691" d="M167.989,806.039a5.715,5.715,0,0,1-2.034-.469,15.113,15.113,0,0,1-4.143-2.531.312.312,0,0,1-.076-.086,5.434,5.434,0,0,1-.565-4.706c.194-.532.543-1.149.941-1.284a.322.322,0,0,1,.284.039l7.087,4.841a.32.32,0,0,1,.123.161c.035.1.837,2.505-.274,3.565a1.866,1.866,0,0,1-1.342.47m-5.734-3.468a14.8,14.8,0,0,0,3.915,2.4c1.331.525,2.264.571,2.717.138.642-.611.344-2.137.142-2.794l-6.811-4.653a2.739,2.739,0,0,0-.508,1,4.8,4.8,0,0,0,.545,3.914" transform="translate(-143.737 -712.051)" fill="#030047"/>
        <path id="Trazado_1014692" data-name="Trazado 1014692" d="M202.713,750.809c-.024,0-.046,0-.065,0-2.244-.06-7.57-4.847-7.57-4.847a3.354,3.354,0,0,1,2.556-2.954l6.148,4.337a1.906,1.906,0,0,1-1.069,3.466" transform="translate(-174.297 -663.857)" fill="#fff"/>
        <path id="Trazado_1014693" data-name="Trazado 1014693" d="M200.028,748.44h-.022l-.091,0c-2.3-.06-7.522-4.728-7.743-4.927a.322.322,0,0,1-.106-.254,3.7,3.7,0,0,1,2.8-3.252.325.325,0,0,1,.258.05l6.148,4.337a2.2,2.2,0,0,1,.837,2.513,2.158,2.158,0,0,1-2.085,1.536m-7.31-5.3c1.551,1.377,5.548,4.615,7.247,4.661h.063a1.512,1.512,0,0,0,1.473-1.088,1.577,1.577,0,0,0-.6-1.794l-6.024-4.249a2.968,2.968,0,0,0-2.165,2.469" transform="translate(-171.606 -661.167)" fill="#030047"/>
        <path id="Trazado_1014694" data-name="Trazado 1014694" d="M182.349,778.359c-2.353,1.946-8.89-4.459-8.89-4.459.14-2.757,1.9-3.075,2.245-3.107,0,0,8.977,5.636,6.645,7.566" transform="translate(-154.981 -688.684)" fill="#fff"/>
        <path id="Trazado_1014695" data-name="Trazado 1014695" d="M178.534,776.354c-2.878,0-7.4-4.341-7.992-4.917a.321.321,0,0,1-.1-.246c.157-3.1,2.292-3.387,2.535-3.41a.321.321,0,0,1,.2.048c.718.451,7.018,4.474,7.178,6.938a1.326,1.326,0,0,1-.5,1.147,2.018,2.018,0,0,1-1.327.44M171.1,771.08c1.845,1.78,6.642,5.755,8.356,4.339a.681.681,0,0,0,.269-.61c-.116-1.78-4.842-5.144-6.782-6.375-.442.076-1.681.481-1.843,2.646m8.56,4.586h0Z" transform="translate(-152.289 -685.991)" fill="#030047"/>
        <path id="Trazado_1014696" data-name="Trazado 1014696" d="M263.012,725.719l-2.364-8.364a3.73,3.73,0,0,0-4.466-2.611l-6.429,1.554a1.113,1.113,0,0,0-.772,1.494,3.576,3.576,0,0,0,3.824,2.215l3.243-.461-.377,1.858a10.423,10.423,0,0,0,1.115,7.153l.341.611" transform="translate(-222.387 -638.511)" fill="#fff"/>
        <path id="Trazado_1014697" data-name="Trazado 1014697" d="M254.441,726.788a.32.32,0,0,1-.28-.165l-.341-.611a10.75,10.75,0,0,1-1.149-7.373l.287-1.413-2.793.4A3.887,3.887,0,0,1,246,715.21a1.434,1.434,0,0,1,.995-1.925l6.429-1.554a4.038,4.038,0,0,1,4.85,2.835l2.364,8.364a.321.321,0,0,1-.618.175l-2.364-8.364a3.4,3.4,0,0,0-4.082-2.386l-6.429,1.554a.792.792,0,0,0-.549,1.063,3.249,3.249,0,0,0,3.481,2.016l3.243-.461a.321.321,0,0,1,.36.381l-.377,1.859a10.108,10.108,0,0,0,1.081,6.933l.341.611a.321.321,0,0,1-.28.477" transform="translate(-219.7 -635.809)" fill="#030047"/>
        <path id="Trazado_1014698" data-name="Trazado 1014698" d="M614.8,764.907l4.1,4.769,4.213,4.9,8.664,10.082,16.1-32.819-8.916-1.287a13.378,13.378,0,0,0-9.84,2.473Z" transform="translate(-549.311 -670.481)" fill="#ffcc3d"/>
        <g id="Grupo_1181731" data-name="Grupo 1181731" transform="translate(69.59 97)" opacity="0.4">
          <g id="Grupo_1181730" data-name="Grupo 1181730">
            <g id="Grupo_1181729" data-name="Grupo 1181729" clip-path="url(#clip-path-3)">
              <path id="Trazado_1014699" data-name="Trazado 1014699" d="M653.268,912.768l4.213,4.9a3.606,3.606,0,1,0-4.213-4.9" transform="translate(-653.268 -910.573)" fill="#fff"/>
            </g>
          </g>
        </g>
        <path id="Trazado_1014700" data-name="Trazado 1014700" d="M629.106,804.157a.321.321,0,0,1-.243-.112l-16.971-19.756a.321.321,0,0,1,.039-.456l14.316-11.88a.321.321,0,0,1,.41.494l-14.065,11.671,16.441,19.139,8-16.295a.321.321,0,0,1,.576.283l-8.21,16.732a.322.322,0,0,1-.248.177l-.041,0" transform="translate(-546.64 -689.654)" fill="#030047"/>
        <line id="Línea_27163" data-name="Línea 27163" x2="1.393" y2="4.587" transform="translate(58.607 105.24)" fill="#fff"/>
        <path id="Trazado_1014701" data-name="Trazado 1014701" d="M548.866,990.147a.321.321,0,0,1-.307-.228l-1.393-4.587a.321.321,0,1,1,.614-.186l1.393,4.587a.321.321,0,0,1-.214.4.332.332,0,0,1-.093.014" transform="translate(-488.866 -880)" fill="#030047"/>
        <path id="Trazado_1014702" data-name="Trazado 1014702" d="M636.12,831h56.727l4.844-54.815a11.13,11.13,0,0,0-8.613-11.833s-10.541-2.76-14.134-3.224c-2.8-.358-11.3-1.474-11.3-1.474a11.141,11.141,0,0,0-11.061,8.1l-9.486,36.447-3.421,13.15Z" transform="translate(-568.357 -678.731)" fill="#ffcc3d"/>
        <g id="Grupo_1181734" data-name="Grupo 1181734" transform="translate(71.316 125.474)" opacity="0.4">
          <g id="Grupo_1181733" data-name="Grupo 1181733">
            <g id="Grupo_1181732" data-name="Grupo 1181732" clip-path="url(#clip-path-4)">
              <path id="Trazado_1014703" data-name="Trazado 1014703" d="M669.468,1191.025a6.774,6.774,0,0,0,2.584.5,6.853,6.853,0,0,0,.838-13.655Z" transform="translate(-669.468 -1177.875)" fill="#fff"/>
            </g>
          </g>
        </g>
        <g id="Grupo_1181737" data-name="Grupo 1181737" transform="translate(101.492 101.534)" opacity="0.4">
          <g id="Grupo_1181736" data-name="Grupo 1181736">
            <g id="Grupo_1181735" data-name="Grupo 1181735" clip-path="url(#clip-path-5)">
              <path id="Trazado_1014704" data-name="Trazado 1014704" d="M952.747,955.815a2.681,2.681,0,1,0,2.681-2.681,2.681,2.681,0,0,0-2.681,2.681" transform="translate(-952.747 -953.134)" fill="#fff"/>
            </g>
          </g>
        </g>
        <g id="Grupo_1181740" data-name="Grupo 1181740" transform="translate(88.559 92.131)" opacity="0.4">
          <g id="Grupo_1181739" data-name="Grupo 1181739">
            <g id="Grupo_1181738" data-name="Grupo 1181738" clip-path="url(#clip-path-6)">
              <path id="Trazado_1014705" data-name="Trazado 1014705" d="M841.079,869.741a4.871,4.871,0,1,1-4.871-4.87,4.871,4.871,0,0,1,4.871,4.87" transform="translate(-831.338 -864.871)" fill="#fff"/>
            </g>
          </g>
        </g>
        <g id="Grupo_1181743" data-name="Grupo 1181743" transform="translate(90.685 119.268)" opacity="0.4">
          <g id="Grupo_1181742" data-name="Grupo 1181742">
            <g id="Grupo_1181741" data-name="Grupo 1181741" clip-path="url(#clip-path-7)">
              <path id="Trazado_1014706" data-name="Trazado 1014706" d="M851.294,1121.995a2.383,2.383,0,1,0,2.383-2.384,2.383,2.383,0,0,0-2.383,2.384" transform="translate(-851.294 -1119.611)" fill="#fff"/>
            </g>
          </g>
        </g>
        <g id="Grupo_1181746" data-name="Grupo 1181746" transform="translate(86.305 108.947)" opacity="0.4">
          <g id="Grupo_1181745" data-name="Grupo 1181745">
            <g id="Grupo_1181744" data-name="Grupo 1181744" clip-path="url(#clip-path-8)">
              <path id="Trazado_1014707" data-name="Trazado 1014707" d="M814.554,1024.92a2.19,2.19,0,1,1-2.19-2.19,2.19,2.19,0,0,1,2.19,2.19" transform="translate(-810.174 -1022.73)" fill="#fff"/>
            </g>
          </g>
        </g>
        <g id="Grupo_1181749" data-name="Grupo 1181749" transform="translate(95.71 136.196)" opacity="0.4">
          <g id="Grupo_1181748" data-name="Grupo 1181748">
            <g id="Grupo_1181747" data-name="Grupo 1181747" clip-path="url(#clip-path-9)">
              <path id="Trazado_1014708" data-name="Trazado 1014708" d="M905.16,1281.871a3.35,3.35,0,1,1-3.35-3.35,3.35,3.35,0,0,1,3.35,3.35" transform="translate(-898.461 -1278.521)" fill="#fff"/>
            </g>
          </g>
        </g>
        <g id="Grupo_1181752" data-name="Grupo 1181752" transform="translate(82.412 139.545)" opacity="0.4">
          <g id="Grupo_1181751" data-name="Grupo 1181751">
            <g id="Grupo_1181750" data-name="Grupo 1181750" clip-path="url(#clip-path-10)">
              <path id="Trazado_1014709" data-name="Trazado 1014709" d="M779.09,1313.132A2.744,2.744,0,1,1,776.8,1310a2.744,2.744,0,0,1,2.287,3.136" transform="translate(-773.634 -1309.963)" fill="#fff"/>
            </g>
          </g>
        </g>
        <g id="Grupo_1181755" data-name="Grupo 1181755" transform="translate(109.495 131.558)" opacity="0.4">
          <g id="Grupo_1181754" data-name="Grupo 1181754">
            <g id="Grupo_1181753" data-name="Grupo 1181753" clip-path="url(#clip-path-11)">
              <path id="Trazado_1014710" data-name="Trazado 1014710" d="M1030.509,1236.3a1.32,1.32,0,1,1-1.32-1.321,1.32,1.32,0,0,1,1.32,1.321" transform="translate(-1027.868 -1234.983)" fill="#fff"/>
            </g>
          </g>
        </g>
        <path id="Trazado_1014711" data-name="Trazado 1014711" d="M633.45,896.609a.315.315,0,0,1-.081-.01.321.321,0,0,1-.23-.391L649.6,832.96a.321.321,0,0,1,.621.161l-16.46,63.248a.321.321,0,0,1-.31.24" transform="translate(-565.684 -744.013)" fill="#030047"/>
        <path id="Trazado_1014712" data-name="Trazado 1014712" d="M197.484,1427.1H38.65a.321.321,0,0,1,0-.642H197.484a.321.321,0,1,1,0,.642" transform="translate(-34.246 -1274.499)" fill="#030047"/>
        <path id="Trazado_1014713" data-name="Trazado 1014713" d="M932.3,677.357c4.408,1.3,12.043-1.185,14.17-5.412l2.458-15.386-14.384-1.172-4.909,11.737s-4.728,6.937,2.665,10.233" transform="translate(-829.277 -585.572)" fill="#fff"/>
        <path id="Trazado_1014714" data-name="Trazado 1014714" d="M932.224,675.324a9.7,9.7,0,0,1-2.719-.353l-.04-.015a6.766,6.766,0,0,1-4.124-4.213c-.867-3.055,1.077-6.119,1.306-6.465l4.9-11.708a.316.316,0,0,1,.322-.2l14.384,1.172a.321.321,0,0,1,.291.37L944.083,669.3a.32.32,0,0,1-.03.094c-1.822,3.62-7.411,5.929-11.829,5.929m-2.517-.963c4.139,1.2,11.658-1.143,13.75-5.211l2.395-14.993-13.806-1.124-4.819,11.521a.318.318,0,0,1-.031.057c-.021.031-2.058,3.077-1.238,5.96a6.153,6.153,0,0,0,3.748,3.79" transform="translate(-826.569 -582.878)" fill="#030047"/>
        <path id="Trazado_1014715" data-name="Trazado 1014715" d="M905.283,449.848c6.074-6.223,7.547-15.269,7.547-15.269L897.59,422.067a22.536,22.536,0,0,0-16.684,14.419c-3.821,10.314,2.767,17.939,15.735,17.845" transform="translate(-786.103 -377.106)" fill="#fff"/>
        <path id="Trazado_1014716" data-name="Trazado 1014716" d="M893.636,451.993c-6.87,0-12.158-2.152-14.908-6.073-2.317-3.3-2.624-7.523-.89-12.2a22.629,22.629,0,0,1,16.552-14.527c.157-.037.263-.06.309-.076a.346.346,0,0,1,.327.048l15.241,12.513a.321.321,0,0,1,.113.3c-.015.091-1.56,9.218-7.634,15.441a.321.321,0,1,1-.459-.448c5.463-5.6,7.18-13.618,7.427-14.916l-14.965-12.286-.213.051a22,22,0,0,0-16.1,14.125c-1.658,4.475-1.376,8.491.814,11.613,2.657,3.789,7.842,5.845,14.617,5.8a.337.337,0,0,1,.323.318.321.321,0,0,1-.319.323h-.239" transform="translate(-783.336 -374.447)" fill="#030047"/>
        <path id="Trazado_1014717" data-name="Trazado 1014717" d="M981.608,384.221s4.721-.006,6.17,5.624-8.082,11.532-8.082,11.532l-5.4-2.877a1.36,1.36,0,0,1-2.247-.247c-1.129-1.508,3.482-5.58,2.092-6.961,1.121-2.948-17.148-4.611-16.23-13.3.915-8.651,12.2-4.844,16.61-2.661,9.082,4.493,7.091,8.888,7.091,8.888" transform="translate(-855.834 -332.899)" fill="#030047"/>
        <path id="Trazado_1014718" data-name="Trazado 1014718" d="M1012.525,557.716a2.7,2.7,0,0,1,2.3,1.935" transform="translate(-904.665 -498.305)" fill="#fff"/>
        <path id="Trazado_1014719" data-name="Trazado 1014719" d="M1012.132,557.282a.32.32,0,0,1-.305-.222,2.375,2.375,0,0,0-2.018-1.714.321.321,0,0,1,.049-.64,3.012,3.012,0,0,1,2.579,2.156.321.321,0,0,1-.206.4.328.328,0,0,1-.1.015" transform="translate(-901.973 -495.615)" fill="#030047"/>
        <path id="Trazado_1014720" data-name="Trazado 1014720" d="M933.4,533.6c-.414.688-1.13,1.021-1.6.74s-.5-1.068-.08-1.758,1.135-1.024,1.6-.744.5,1.072.078,1.762" transform="translate(-832.209 -475.098)" fill="#030047"/>
        <path id="Trazado_1014721" data-name="Trazado 1014721" d="M999.024,574.941c-.42.69-1.134,1.019-1.6.738s-.5-1.066-.08-1.758,1.135-1.023,1.6-.738.5,1.066.08,1.758" transform="translate(-890.841 -512.033)" fill="#030047"/>
        <path id="Trazado_1014722" data-name="Trazado 1014722" d="M946.911,516.392a2.7,2.7,0,0,1,2.3,1.935" transform="translate(-846.04 -461.383)" fill="#fff"/>
        <path id="Trazado_1014723" data-name="Trazado 1014723" d="M946.519,515.961a.321.321,0,0,1-.305-.222,2.375,2.375,0,0,0-2.018-1.714.321.321,0,0,1-.3-.344.325.325,0,0,1,.344-.3,3.012,3.012,0,0,1,2.579,2.157.321.321,0,0,1-.206.4.326.326,0,0,1-.1.015" transform="translate(-843.349 -458.695)" fill="#030047"/>
        <path id="Trazado_1014724" data-name="Trazado 1014724" d="M1094.067,603.177s5.788-2.643,7.838-.928-1.944,9.706-5.039,9.441a8.217,8.217,0,0,1-4.938-2.217" transform="translate(-975.61 -537.577)" fill="#fff"/>
        <path id="Trazado_1014725" data-name="Trazado 1014725" d="M1094.328,609.373c-.06,0-.12,0-.18-.008a8.473,8.473,0,0,1-5.144-2.317.321.321,0,0,1,.466-.441,7.975,7.975,0,0,0,4.732,2.118c1.584.13,3.579-2.329,4.594-4.79.794-1.925.876-3.528.211-4.084-1.554-1.3-5.94.262-7.5.974a.321.321,0,0,1-.267-.584c.244-.111,6-2.706,8.177-.882.912.763.9,2.565-.03,4.822-1.081,2.622-3.143,5.193-5.062,5.193" transform="translate(-972.919 -534.932)" fill="#030047"/>
        <path id="Trazado_1014726" data-name="Trazado 1014726" d="M1136.118,631.541a.321.321,0,0,1-.227-.548,4.141,4.141,0,0,0,.914-1.386.833.833,0,0,0,.063-.679.48.48,0,0,0-.339-.211,1.143,1.143,0,0,0-.539.059,2.385,2.385,0,0,0-.852.472.321.321,0,0,1-.42-.485,3.041,3.041,0,0,1,1.082-.6,1.8,1.8,0,0,1,.837-.078,1.117,1.117,0,0,1,.791.529,1.387,1.387,0,0,1-.026,1.23,4.793,4.793,0,0,1-1.057,1.6.32.32,0,0,1-.227.094" transform="translate(-1013.742 -561.16)" fill="#030047"/>
        <path id="Trazado_1014727" data-name="Trazado 1014727" d="M941.96,573.727l-1.973,2.891a4.027,4.027,0,0,0-.854,1.869,1.692,1.692,0,0,0,1.142,1.717" transform="translate(-839.087 -512.61)" fill="#fff"/>
        <path id="Trazado_1014728" data-name="Trazado 1014728" d="M937.586,577.83a.326.326,0,0,1-.1-.015,2.01,2.01,0,0,1-1.363-2.046,4.289,4.289,0,0,1,.909-2.026l1.973-2.891a.321.321,0,0,1,.53.362l-1.973,2.891a3.819,3.819,0,0,0-.8,1.712,1.379,1.379,0,0,0,.921,1.387.321.321,0,0,1-.1.626" transform="translate(-836.398 -509.916)" fill="#030047"/>
        <g id="Grupo_1181758" data-name="Grupo 1181758" transform="translate(75.096 91.362)" opacity="0.4">
          <g id="Grupo_1181757" data-name="Grupo 1181757">
            <g id="Grupo_1181756" data-name="Grupo 1181756" clip-path="url(#clip-path-12)">
              <path id="Trazado_1014729" data-name="Trazado 1014729" d="M708.176,859.254a1.61,1.61,0,1,1-1.61-1.61,1.61,1.61,0,0,1,1.61,1.61" transform="translate(-704.955 -857.644)" fill="#fff"/>
            </g>
          </g>
        </g>
        <path id="Trazado_1014730" data-name="Trazado 1014730" d="M931.407,349.833c-2.765-1.01-10.289-2.722-12-5.117s-2.254-5.779-.758-8.314a3.628,3.628,0,0,1,2.688-1.932c.878-.062,1.732.339,2.612.327,1.446-.021,2.62-1.117,3.657-2.125s2.271-2.065,3.715-1.979a4.348,4.348,0,0,1,3.194,2.424,22.355,22.355,0,0,0,2.1,3.6,9.066,9.066,0,0,0,3.457,2.224,27.21,27.21,0,0,1,3.786,1.683,5.487,5.487,0,0,1,2.588,3.111,3.109,3.109,0,0,1-1.406,3.559" transform="translate(-820.009 -295.461)" fill="#030047"/>
        <g id="Grupo_1181761" data-name="Grupo 1181761" transform="translate(127.446 96.523)" opacity="0.4">
          <g id="Grupo_1181760" data-name="Grupo 1181760">
            <g id="Grupo_1181759" data-name="Grupo 1181759" clip-path="url(#clip-path-13)">
              <path id="Trazado_1014731" data-name="Trazado 1014731" d="M1199.373,908.22a1.552,1.552,0,1,1-.874-2.014,1.552,1.552,0,0,1,.874,2.014" transform="translate(-1196.376 -906.097)" fill="#fff"/>
            </g>
          </g>
        </g>
        <path id="Trazado_1014732" data-name="Trazado 1014732" d="M713.637,780.132c-.141-2.584-.073-5.126.689-5.537,4.2-2.272,10.518,13.457,10.518,13.457" transform="translate(-637.564 -691.88)" fill="#fff"/>
        <path id="Trazado_1014733" data-name="Trazado 1014733" d="M722.154,785.678a.321.321,0,0,1-.3-.2c-.048-.12-4.844-11.966-8.691-13.356a1.606,1.606,0,0,0-1.376.062c-.184.1-.765.77-.521,5.237a.321.321,0,0,1-.3.338.325.325,0,0,1-.338-.3c-.256-4.68.367-5.572.857-5.837a2.244,2.244,0,0,1,1.9-.1c4.116,1.487,8.869,13.222,9.069,13.721a.321.321,0,0,1-.178.417.326.326,0,0,1-.12.023" transform="translate(-634.874 -689.186)" fill="#030047"/>
        <path id="Trazado_1014734" data-name="Trazado 1014734" d="M624.282,692.344l-9.42,34.058a5.418,5.418,0,1,1-10.409-2.925l9.808-31.632,9.033.423Z" transform="translate(-539.783 -618.145)" fill="#605efd"/>
        <path id="Trazado_1014735" data-name="Trazado 1014735" d="M674.282,700.39l2.649-8.546,9.031.421c.115.848,1.015.247,1.011.255-.131.246-8.174,1-12.692,7.869" transform="translate(-602.453 -618.145)"/>
        <path id="Trazado_1014736" data-name="Trazado 1014736" d="M484.8,395.612s10.645-2.74,15.523-2.624c5.723.13,10.682,1.151,16.738,2.538.42.093.852.189,1.281.29a9.446,9.446,0,0,0,6.092-17.775c-.76-.352-1.545-.718-2.344-1.1a127.493,127.493,0,0,1-11.638-6.063c-6.1-3.854-13.863-13.531-13.863-13.531Z" transform="translate(-433.155 -319.281)" fill="#605efd"/>
        <path id="Trazado_1014737" data-name="Trazado 1014737" d="M787.647,559.871c.42.093.852.189,1.281.29a9.446,9.446,0,0,0,6.092-17.775c-.76-.352-1.545-.718-2.344-1.1.84,2.495,2.81,10.859-5.03,18.585" transform="translate(-703.742 -483.625)" fill="#030047"/>
        <path id="Trazado_1014738" data-name="Trazado 1014738" d="M365.206,345.306c-3.226,11.1.177,21.995,7.6,24.339s16.056-4.753,19.282-15.851-.177-21.995-7.6-24.339-16.057,4.753-19.282,15.852" transform="translate(-325.214 -293.959)" fill="#030047"/>
        <path id="Trazado_1014739" data-name="Trazado 1014739" d="M417.505,371.374a25.492,25.492,0,0,1-.336,3.7,29.023,29.023,0,0,1-.791,3.5,27.434,27.434,0,0,1-1.92,4.823,23.932,23.932,0,0,1-1.943,3.2c-3.47,4.817-8.18,7.352-12.356,6.068-6.108-1.885-8.764-11.238-5.923-20.9s10.107-15.969,16.215-14.084c4.553,1.395,7.19,6.953,7.053,13.692" transform="translate(-351.222 -319.282)" fill="#605efd"/>
        <path id="Trazado_1014740" data-name="Trazado 1014740" d="M522.715,491.965a27.134,27.134,0,0,1-.834,3.7,32.331,32.331,0,0,1-1.261,3.5,31.987,31.987,0,0,1-2.568,4.823L514,502.253a6.335,6.335,0,0,1-3.768-6.382,6.866,6.866,0,0,1,.1-.735,6.11,6.11,0,0,1,7.968-4.723Z" transform="translate(-455.862 -437.87)" fill="#030047"/>
        <g id="Grupo_1181764" data-name="Grupo 1181764" transform="translate(110.007 138.335)" opacity="0.4">
          <g id="Grupo_1181763" data-name="Grupo 1181763">
            <g id="Grupo_1181762" data-name="Grupo 1181762" clip-path="url(#clip-path-14)">
              <path id="Trazado_1014741" data-name="Trazado 1014741" d="M1032.682,1303.729a5.126,5.126,0,1,0,5.126-5.126,5.126,5.126,0,0,0-5.126,5.126" transform="translate(-1032.682 -1298.603)" fill="#fff"/>
            </g>
          </g>
        </g>
        <g id="Grupo_1181767" data-name="Grupo 1181767" transform="translate(112.909 117.946)" opacity="0.4">
          <g id="Grupo_1181766" data-name="Grupo 1181766">
            <g id="Grupo_1181765" data-name="Grupo 1181765" clip-path="url(#clip-path-15)">
              <path id="Trazado_1014742" data-name="Trazado 1014742" d="M1064.366,1109.423a2.224,2.224,0,1,1-2.224-2.224,2.224,2.224,0,0,1,2.224,2.224" transform="translate(-1059.917 -1107.199)" fill="#fff"/>
            </g>
          </g>
        </g>
        <path id="Trazado_1014743" data-name="Trazado 1014743" d="M582.036,793.121l22.395,27.444,4.339-11.681,21.993,5.447-10.877,26.982a13.624,13.624,0,0,1-23.371,3.3l-28.608-39.3.1-.3-.2.167.1.133-.1.282s-8.673-4.613-11.1-7.39-3.479-4.818-2.725-6.435,2.909-.723,2.909-.723-1.3-3.063-.017-4.535c1.232-1.412,2.982-.077,3.128.038-.09-.167-1.446-2.623-.064-3.937a2.523,2.523,0,0,1,3.149-.1c0-.039-.017-.077-.021-.111a2.043,2.043,0,0,1,3.68-1.506l4.082,4.3" transform="translate(-494.756 -696.95)" fill="#fff"/>
        <path id="Trazado_1014744" data-name="Trazado 1014744" d="M604.515,847.493a13.941,13.941,0,0,1-10.988-5.356L565.2,803.222l-.006,0a.323.323,0,0,1-.268-.015c-.356-.189-8.753-4.672-11.19-7.462-2.717-3.094-3.547-5.123-2.775-6.782a2.232,2.232,0,0,1,2.681-1.081c-.326-1.022-.783-3.06.261-4.254a2.223,2.223,0,0,1,2.679-.521c-.346-.972-.608-2.435.405-3.4a2.65,2.65,0,0,1,2.994-.444,2.308,2.308,0,0,1,1.434-2.021,2.345,2.345,0,0,1,2.847.776l4.067,4.285a.321.321,0,1,1-.465.442l-4.082-4.3a.3.3,0,0,1-.028-.033,1.7,1.7,0,0,0-2.09-.578,1.643,1.643,0,0,0-1.013,1.841c.014.066.021.1.024.131a.321.321,0,0,1-.508.295,2.189,2.189,0,0,0-2.739.072c-1.129,1.073-.1,3.14.121,3.543a.326.326,0,0,1-.074.4.318.318,0,0,1-.4.01c-.167-.133-1.658-1.256-2.687-.079-1.14,1.3.058,4.17.071,4.2a.321.321,0,0,1-.419.422c-.076-.031-1.882-.762-2.495.562-.64,1.374.185,3.252,2.676,6.089,2.046,2.342,8.751,6.087,10.557,7.074a.316.316,0,0,1,.1-.135l.2-.167a.321.321,0,0,1,.508.351l-.049.142,28.51,39.161a13.3,13.3,0,0,0,22.814-3.23l10.739-26.64-21.356-5.289L602,818a.321.321,0,0,1-.248.205.317.317,0,0,1-.3-.114l-22.395-27.444a.321.321,0,0,1,.5-.406l22.04,27.01,4.144-11.155a.32.32,0,0,1,.378-.2l21.993,5.447a.321.321,0,0,1,.221.431L617.448,838.76a13.877,13.877,0,0,1-12.933,8.733" transform="translate(-492.02 -694.276)" fill="#030047"/>
        <path id="Trazado_1014745" data-name="Trazado 1014745" d="M685.977,1014.463l-.1.3-.1-.133Z" transform="translate(-612.723 -906.396)" fill="#fff"/>
        <path id="Trazado_1014746" data-name="Trazado 1014746" d="M683.182,1012.395a.322.322,0,0,1-.258-.13l-.1-.133a.321.321,0,0,1,.053-.438l.2-.167a.321.321,0,0,1,.508.351l-.1.3a.321.321,0,0,1-.254.213.335.335,0,0,1-.049,0" transform="translate(-610.031 -903.708)" fill="#030047"/>
        <path id="Trazado_1014747" data-name="Trazado 1014747" d="M1052.675,834.607l8.4,3.914,9.439,4.4,5.851,2.727,4.15-13.123q.1-.345.186-.694a19.5,19.5,0,0,0-12.3-22.8l-6.023-2.24Z" transform="translate(-940.538 -720.847)" fill="#ffcc3d"/>
        <g id="Grupo_1181770" data-name="Grupo 1181770" transform="translate(120.542 114.037)" opacity="0.4">
          <g id="Grupo_1181769" data-name="Grupo 1181769">
            <g id="Grupo_1181768" data-name="Grupo 1181768" clip-path="url(#clip-path-16)">
              <path id="Trazado_1014748" data-name="Trazado 1014748" d="M1131.681,1073.834c-.041.1-.077.208-.113.314l9.439,4.4a5.016,5.016,0,0,0,.437-.858,5.248,5.248,0,0,0-9.763-3.854" transform="translate(-1131.568 -1070.511)" fill="#fff"/>
            </g>
          </g>
        </g>
        <g id="Grupo_1181773" data-name="Grupo 1181773" transform="translate(120.425 102.251)" opacity="0.4">
          <g id="Grupo_1181772" data-name="Grupo 1181772">
            <g id="Grupo_1181771" data-name="Grupo 1181771" clip-path="url(#clip-path-17)">
              <path id="Trazado_1014749" data-name="Trazado 1014749" d="M1130.648,961.455a2.506,2.506,0,1,0,3.252-1.411,2.507,2.507,0,0,0-3.252,1.411" transform="translate(-1130.472 -959.868)" fill="#fff"/>
            </g>
          </g>
        </g>
        <g id="Grupo_1181776" data-name="Grupo 1181776" transform="translate(132.62 104.333)" opacity="0.4">
          <g id="Grupo_1181775" data-name="Grupo 1181775">
            <g id="Grupo_1181774" data-name="Grupo 1181774" clip-path="url(#clip-path-18)">
              <path id="Trazado_1014750" data-name="Trazado 1014750" d="M1249.9,982.923a2.568,2.568,0,1,1-1.446-3.331,2.568,2.568,0,0,1,1.446,3.331" transform="translate(-1244.946 -979.412)" fill="#fff"/>
            </g>
          </g>
        </g>
        <path id="Trazado_1014751" data-name="Trazado 1014751" d="M1073.664,923.3a.321.321,0,0,1-.135-.03l-23.694-11.041a.321.321,0,0,1-.166-.4l6.717-18.273a.321.321,0,1,1,.6.221l-6.615,18,23.1,10.761,4.042-12.776a.321.321,0,0,1,.612.194l-4.152,13.124a.321.321,0,0,1-.306.224" transform="translate(-937.833 -798.179)" fill="#030047"/>
        <line id="Línea_27164" data-name="Línea 27164" x2="3.234" y2="2.841" transform="translate(109.675 123.616)" fill="#fff"/>
        <path id="Trazado_1014752" data-name="Trazado 1014752" d="M1030.1,1160.9a.321.321,0,0,1-.212-.08l-3.234-2.841a.321.321,0,0,1,.424-.482l3.234,2.841a.321.321,0,0,1-.212.562" transform="translate(-917.194 -1034.122)" fill="#030047"/>
        <path id="Trazado_1014753" data-name="Trazado 1014753" d="M685.977,1014.463l-.1.3-.1-.133Z" transform="translate(-612.723 -906.396)" fill="#fff"/>
        <path id="Trazado_1014754" data-name="Trazado 1014754" d="M683.182,1012.395a.322.322,0,0,1-.258-.13l-.1-.133a.321.321,0,0,1,.053-.438l.2-.167a.321.321,0,0,1,.508.351l-.1.3a.321.321,0,0,1-.254.213.335.335,0,0,1-.049,0" transform="translate(-610.031 -903.708)" fill="#030047"/>
        <path id="Trazado_1014755" data-name="Trazado 1014755" d="M641.455,803.28a22.032,22.032,0,0,0,4.125,5.1" transform="translate(-573.123 -717.71)" fill="#fff"/>
        <path id="Trazado_1014756" data-name="Trazado 1014756" d="M642.888,806.008a.32.32,0,0,1-.217-.084,22.144,22.144,0,0,1-4.191-5.18.321.321,0,1,1,.564-.307,21.922,21.922,0,0,0,4.06,5.014.321.321,0,0,1-.217.557" transform="translate(-570.431 -715.02)" fill="#030047"/>
        <path id="Trazado_1014757" data-name="Trazado 1014757" d="M612.609,841.235a19.876,19.876,0,0,0,4.459,4.813" transform="translate(-547.35 -751.622)" fill="#fff"/>
        <path id="Trazado_1014758" data-name="Trazado 1014758" d="M614.376,843.675a.32.32,0,0,1-.192-.064,20,20,0,0,1-4.54-4.9.321.321,0,0,1,.546-.339,19.7,19.7,0,0,0,4.379,4.726.321.321,0,0,1-.193.578" transform="translate(-544.658 -748.927)" fill="#030047"/>
        <path id="Trazado_1014759" data-name="Trazado 1014759" d="M583.3,883.378s.512,1.53,3.967,4.138" transform="translate(-521.163 -789.275)" fill="#fff"/>
        <path id="Trazado_1014760" data-name="Trazado 1014760" d="M584.574,885.149a.318.318,0,0,1-.193-.065c-3.494-2.638-4.056-4.225-4.078-4.292a.321.321,0,0,1,.608-.206c.011.029.578,1.511,3.857,3.986a.321.321,0,0,1-.194.577" transform="translate(-518.47 -786.587)" fill="#030047"/>
        <path id="Trazado_1014761" data-name="Trazado 1014761" d="M955.558,653.66c0,.855,1.166,1.548,2.6,1.548s2.6-.693,2.6-1.548-1.166-1.548-2.6-1.548-2.6.693-2.6,1.548" transform="translate(-853.766 -582.645)" fill="#030047"/>
        <path id="Trazado_1014762" data-name="Trazado 1014762" d="M70.5,975.994l-40.576,8.6a1.92,1.92,0,0,1-2.276-1.48L21.03,951.891a1.92,1.92,0,0,1,1.48-2.276l40.576-8.6a1.92,1.92,0,0,1,2.276,1.48l6.621,31.226a1.92,1.92,0,0,1-1.48,2.276" transform="translate(-18.752 -840.731)" fill="#605efd"/>
        <path id="Trazado_1014763" data-name="Trazado 1014763" d="M217.238,1069.48l-4.275,4.959a2.441,2.441,0,0,1-4.237-1.088l-1.645-7.758a2.441,2.441,0,0,1,3.431-2.713l5.92,2.8a2.441,2.441,0,0,1,.805,3.8" transform="translate(-184.972 -949.442)" fill="#fff"/>
        <rect id="Rectángulo_455787" data-name="Rectángulo 455787" width="32.482" height="1.748" transform="matrix(0.978, -0.207, 0.207, 0.978, 13.641, 133.813)" fill="#fff"/>
        <path id="Trazado_1014764" data-name="Trazado 1014764" d="M304.523,1206.3a2.048,2.048,0,1,0,1.579-2.429,2.048,2.048,0,0,0-1.579,2.429" transform="translate(-272.043 -1075.583)" fill="#030047"/>
        <path id="Trazado_1014765" data-name="Trazado 1014765" d="M1254.988,654.57l-19.221-6.017a3.569,3.569,0,0,1-2.339-4.472l3.954-12.63a3.569,3.569,0,0,1,4.472-2.339l19.22,6.018a3.569,3.569,0,0,1,2.34,4.472l-3.954,12.63a3.569,3.569,0,0,1-4.472,2.339" transform="translate(-1101.889 -561.948)" fill="#030047"/>
        <path id="Trazado_1014766" data-name="Trazado 1014766" d="M1310.788,676a2.319,2.319,0,0,1-1.977-1.1l-5.765-9.413a.428.428,0,0,1,.73-.447l5.765,9.413a1.459,1.459,0,0,0,1.826.572l10.1-4.446a.428.428,0,1,1,.345.783l-10.1,4.446a2.288,2.288,0,0,1-.924.194" transform="translate(-1164.181 -594.008)" fill="#fff"/>
        <path id="Trazado_1014767" data-name="Trazado 1014767" d="M1394.6,764.445a.428.428,0,0,1-.347-.177l-5.472-7.573a.428.428,0,0,1,.694-.5l5.472,7.573a.428.428,0,0,1-.347.679" transform="translate(-1240.768 -675.481)" fill="#fff"/>
        <path id="Trazado_1014768" data-name="Trazado 1014768" d="M1269.376,748.392a.428.428,0,0,1-.142-.832l8.818-3.1a.428.428,0,1,1,.284.807l-8.817,3.1a.422.422,0,0,1-.142.024" transform="translate(-1133.772 -665.135)" fill="#fff"/>
        <path id="Trazado_1014769" data-name="Trazado 1014769" d="M33.814,236.28,19.928,250.82a3.979,3.979,0,0,1-5.624.133L1.232,238.465a3.979,3.979,0,0,1-.133-5.624L14.985,218.3a3.981,3.981,0,0,1,5.627-.129l13.074,12.48a3.984,3.984,0,0,1,.129,5.627" transform="translate(0 -193.947)" fill="#ffcc3d"/>
        <path id="Trazado_1014770" data-name="Trazado 1014770" d="M129.2,343.6l-15,15.714s-6.5-10.287-4.257-12.641c1.429-1.5,7.576,2.554,9.115,1.169.938-.844-1.643-4.4-.772-5.315,1.779-1.864,10.919,1.073,10.919,1.073" transform="translate(-97.801 -305.489)" fill="#fff"/>
        <path id="Trazado_1014771" data-name="Trazado 1014771" d="M131.306,317.184a2.077,2.077,0,1,1-3.086-.091,2.19,2.19,0,0,1,3.086.091" transform="translate(-114.088 -282.785)" fill="#fff"/>
        <path id="Trazado_1014772" data-name="Trazado 1014772" d="M696.628,32.547a16.394,16.394,0,1,1,13.339-18.962,16.394,16.394,0,0,1-13.339,18.962" transform="translate(-605.258 0)" fill="#605efd"/>
        <path id="Trazado_1014773" data-name="Trazado 1014773" d="M715.615,236.914l-6.329,1.513a1.518,1.518,0,0,1-1.861-1.65l.745-6.465Z" transform="translate(-632.056 -205.778)" fill="#605efd"/>
        <path id="Trazado_1014774" data-name="Trazado 1014774" d="M784.191,59.907l2.419-.381c2.256-.578,2.387-2.113,2.13-4.429-.04-.357-.087-.723-.141-1.095a1.274,1.274,0,0,1,2.338-.865l.033.056c1.091,1.9.983,5.891.983,5.891l5.406-.848a1.387,1.387,0,0,1,1.186,2.368l-.042.037a1.17,1.17,0,0,1,.336,2.277s1.12.092,1.208.936c.115,1.1-1.4,1.368-1.4,1.368s1.488-.1,1.427,1.208c-.084,1.793-4.743,2.274-7.552,2.458s-7.288.048-7.288.048Z" transform="translate(-700.654 -46.937)" fill="#fff"/>
        <path id="Trazado_1014775" data-name="Trazado 1014775" d="M826.684,66.53a.321.321,0,0,1-.021-.641c6.242-.409,7.224-1.525,7.253-2.153a.749.749,0,0,0-.193-.6,1.339,1.339,0,0,0-.893-.271.321.321,0,0,1-.077-.636c.012,0,1.22-.231,1.138-1.018-.059-.567-.908-.649-.917-.65a.321.321,0,0,1-.091-.618.849.849,0,0,0-.247-1.659.322.322,0,0,1-.182-.561l.039-.034a.99.99,0,0,0,.226-1.2,1.07,1.07,0,0,0-1.148-.617l-5.406.848a.321.321,0,0,1-.371-.326c0-.039.092-3.921-.941-5.722l-.03-.052a.9.9,0,0,0-1.1-.389.938.938,0,0,0-.642,1.044.321.321,0,0,1-.635.091,1.577,1.577,0,0,1,1.064-1.74,1.532,1.532,0,0,1,1.868.666l.036.061c.931,1.624,1.026,4.61,1.029,5.674l5.032-.789a1.72,1.72,0,0,1,1.826.975,1.635,1.635,0,0,1-.064,1.575,1.446,1.446,0,0,1,.5,2.314,1.28,1.28,0,0,1,.8,1.037,1.371,1.371,0,0,1-.661,1.31,1.319,1.319,0,0,1,.689,1.314c-.072,1.538-2.567,2.417-7.852,2.763h-.021" transform="translate(-734.815 -44.258)" fill="#030047"/>
        <rect id="Rectángulo_455788" data-name="Rectángulo 455788" width="5.608" height="10.852" transform="matrix(0.982, -0.189, 0.189, 0.982, 79.493, 12.95)" fill="#030047"/>
        <path id="Trazado_1014776" data-name="Trazado 1014776" d="M880.974,127.153a.321.321,0,0,1-.073-.634l3.716-.872a.321.321,0,0,1,.147.625l-3.716.872a.316.316,0,0,1-.074.008" transform="translate(-786.841 -112.255)" fill="#030047"/>
        <path id="Trazado_1014777" data-name="Trazado 1014777" d="M887.331,148.226a.321.321,0,0,1-.053-.637l3.375-.573a.321.321,0,1,1,.107.633l-3.375.573a.3.3,0,0,1-.054,0" transform="translate(-792.521 -131.351)" fill="#030047"/>
        <path id="Trazado_1014778" data-name="Trazado 1014778" d="M889.29,169.82a.321.321,0,0,1-.058-.636l2.975-.546a.321.321,0,1,1,.116.631l-2.975.546a.313.313,0,0,1-.058.005" transform="translate(-794.271 -150.668)" fill="#030047"/>
        <path id="Trazado_1014779" data-name="Trazado 1014779" d="M1359.528,1126.586l-2.19,1.378a2.2,2.2,0,0,1-3.021-.687l-1.378-2.19a2.187,2.187,0,0,1,.686-3.014l2.191-1.385a2.2,2.2,0,0,1,3.021.687l1.377,2.2a2.187,2.187,0,0,1-.686,3.014" transform="translate(-1208.516 -1001.006)" fill="#ffcc3d"/>
        <path id="Trazado_1014780" data-name="Trazado 1014780" d="M1347.528,438.236l-1.661,1.045a1.665,1.665,0,0,1-2.291-.521l-1.045-1.66a1.658,1.658,0,0,1,.52-2.286l1.662-1.051a1.665,1.665,0,0,1,2.291.521l1.044,1.666a1.658,1.658,0,0,1-.52,2.286" transform="translate(-1199.29 -387.329)" fill="#ffcc3d"/>
        <path id="Trazado_1014781" data-name="Trazado 1014781" d="M461.769,193.514l-1.661,1.045a1.665,1.665,0,0,1-2.291-.521l-1.045-1.66a1.658,1.658,0,0,1,.52-2.286l1.662-1.051a1.665,1.665,0,0,1,2.291.521l1.044,1.666a1.658,1.658,0,0,1-.52,2.286" transform="translate(-407.887 -168.677)" fill="#ffcc3d"/>
        <path id="Trazado_1014782" data-name="Trazado 1014782" d="M29.4,726.865l-1.661,1.045a1.665,1.665,0,0,1-2.291-.521l-1.045-1.66a1.658,1.658,0,0,1,.52-2.286l1.662-1.051a1.665,1.665,0,0,1,2.291.521l1.044,1.666a1.658,1.658,0,0,1-.52,2.286" transform="translate(-21.577 -645.212)" fill="#ffcc3d"/>
        <path id="Trazado_1014783" data-name="Trazado 1014783" d="M1135.4,235.436l-1.22.768a1.224,1.224,0,0,1-1.684-.383l-.768-1.22a1.219,1.219,0,0,1,.382-1.68l1.221-.772a1.224,1.224,0,0,1,1.684.383l.767,1.224a1.219,1.219,0,0,1-.382,1.68" transform="translate(-1011.004 -207.252)" fill="#ffcc3d"/>
      </g>
    </g>
  </g>
</svg>
