<svg xmlns="http://www.w3.org/2000/svg" width="50.5" height="48.882" viewBox="0 0 50.5 48.882">
  <g id="Grupo_1181727" data-name="Grupo 1181727" transform="translate(0.25 -8.032)">
    <path id="Trazado_1014661" data-name="Trazado 1014661" d="M44.38,215.367a11.261,11.261,0,0,0-11.248,11.248,11.147,11.147,0,0,0,2.295,6.81.732.732,0,1,0,1.165-.888,9.7,9.7,0,0,1-2-5.922,9.782,9.782,0,1,1,3.932,7.842.732.732,0,0,0-.877,1.173,11.249,11.249,0,1,0,6.728-20.263Z" transform="translate(-29.896 -186.862)" fill="#405425" stroke="#405425" stroke-width="0.5"/>
    <path id="Trazado_1014662" data-name="Trazado 1014662" d="M108.953,286.411a4.777,4.777,0,1,0-4.777,4.777A4.782,4.782,0,0,0,108.953,286.411Zm-8.089,0a3.312,3.312,0,1,1,3.312,3.312A3.316,3.316,0,0,1,100.864,286.411Z" transform="translate(-89.692 -246.657)" fill="#405425" stroke="#405425" stroke-width="0.5"/>
    <path id="Trazado_1014663" data-name="Trazado 1014663" d="M49.268,32.7A.732.732,0,0,0,50,31.97V26.811a3.973,3.973,0,0,0-3.968-3.968h-.885V21.121a1.515,1.515,0,0,0-1.514-1.514H38.724a1.515,1.515,0,0,0-1.514,1.514v1.722H35.439V21.121a1.515,1.515,0,0,0-1.514-1.514H29.017A1.515,1.515,0,0,0,27.5,21.121v1.722H12.79v-1.5l26.524-9.283a2.349,2.349,0,1,0-.486-1.429c0,.016,0,.031,0,.046l-26.565,9.3a1.506,1.506,0,0,0-.988-.369H6.367A1.515,1.515,0,0,0,4.853,21.12v1.722H3.968A3.973,3.973,0,0,0,0,26.811V52.7a3.973,3.973,0,0,0,3.968,3.968H46.032A3.973,3.973,0,0,0,50,52.7V34.9a.732.732,0,1,0-1.465,0V52.7a2.506,2.506,0,0,1-2.5,2.5H28.968V24.307H46.032a2.506,2.506,0,0,1,2.5,2.5V31.97A.732.732,0,0,0,49.268,32.7ZM41.179,9.747a.885.885,0,1,1-.885.885A.886.886,0,0,1,41.179,9.747ZM6.318,21.121a.049.049,0,0,1,.049-.049h4.909a.048.048,0,0,1,.029.011v0c0,.014.012.027.018.041v1.715H6.318ZM3.968,55.2a2.506,2.506,0,0,1-2.5-2.5V26.811a2.506,2.506,0,0,1,2.5-2.5H27.5V55.2Zm25-32.357V21.121a.049.049,0,0,1,.049-.049h4.909a.049.049,0,0,1,.049.049v1.722Zm9.707,0V21.121a.049.049,0,0,1,.049-.049h4.909a.049.049,0,0,1,.049.049v1.722Z" fill="#405425" stroke="#405425" stroke-width="0.5"/>
    <path id="Trazado_1014664" data-name="Trazado 1014664" d="M330.793,192.03a1.515,1.515,0,0,0-1.514-1.514h-13a1.515,1.515,0,0,0-1.514,1.514v3.291a1.515,1.515,0,0,0,1.514,1.514h13a1.515,1.515,0,0,0,1.514-1.514Zm-1.465,3.291a.049.049,0,0,1-.049.049h-13a.049.049,0,0,1-.049-.049V192.03a.049.049,0,0,1,.049-.049h13a.049.049,0,0,1,.049.049Z" transform="translate(-284.028 -164.438)" fill="#405425" stroke="#405425" stroke-width="0.5"/>
    <path id="Trazado_1014665" data-name="Trazado 1014665" d="M317.926,279.667a3.159,3.159,0,1,0-3.159-3.159A3.163,3.163,0,0,0,317.926,279.667Zm0-4.854a1.694,1.694,0,1,1-1.694,1.694A1.7,1.7,0,0,1,317.926,274.814Z" transform="translate(-284.028 -239.182)" fill="#405425" stroke="#405425" stroke-width="0.5"/>
    <path id="Trazado_1014666" data-name="Trazado 1014666" d="M417.327,273.35a3.159,3.159,0,1,0,3.159,3.159A3.163,3.163,0,0,0,417.327,273.35Zm0,4.854a1.694,1.694,0,1,1,1.694-1.694A1.7,1.7,0,0,1,417.327,278.2Z" transform="translate(-373.722 -239.182)" fill="#405425" stroke="#405425" stroke-width="0.5"/>
    <path id="Trazado_1014667" data-name="Trazado 1014667" d="M330.06,356.184H315.5a.732.732,0,1,0,0,1.465H330.06a.732.732,0,0,0,0-1.465Z" transform="translate(-284.028 -313.927)" fill="#405425" stroke="#405425" stroke-width="0.5"/>
    <path id="Trazado_1014668" data-name="Trazado 1014668" d="M330.06,389.316H315.5a.732.732,0,1,0,0,1.465H330.06a.732.732,0,1,0,0-1.465Z" transform="translate(-284.028 -343.824)" fill="#405425" stroke="#405425" stroke-width="0.5"/>
    <path id="Trazado_1014669" data-name="Trazado 1014669" d="M330.06,422.45H315.5a.732.732,0,0,0,0,1.465H330.06a.732.732,0,0,0,0-1.465Z" transform="translate(-284.028 -373.722)" fill="#405425" stroke="#405425" stroke-width="0.5"/>
  </g>
</svg>
