<svg xmlns="http://www.w3.org/2000/svg" width="169.706" height="169.706" viewBox="0 0 169.706 169.706">
  <g id="Grupo_1181040" data-name="Grupo 1181040" transform="translate(-363.98 -3369.146)">
    <rect id="Rect치ngulo_402033" data-name="Rect치ngulo 402033" width="120" height="120" rx="30" transform="translate(363.98 3453.999) rotate(-45)" fill="#ffd600"/>
    <rect id="Rect치ngulo_454167" data-name="Rect치ngulo 454167" width="100" height="100" rx="50" transform="translate(398.833 3403.999)" fill="#c8bf57"/>
    <g id="Grupo_1181598" data-name="Grupo 1181598" transform="translate(411.033 3387.785)">
      <path id="Trazado_1014201" data-name="Trazado 1014201" d="M34.9,265.48a6.729,6.729,0,0,0-2.369-.429H28.035a8.628,8.628,0,0,1-2.779.46H21.6a8.629,8.629,0,0,1-2.779-.46H14.329a6.858,6.858,0,0,0-6.7,5.593v0a2.31,2.31,0,0,0-.125.747v14.693a2.33,2.33,0,0,0,2.318,2.328H25.757v-4.97a.74.74,0,0,1,.738-.738H28.1a16.406,16.406,0,0,1,6.8-17.221Z" transform="translate(-6.393 -197.5)" fill="#ffdc48"/>
      <path id="Trazado_1014202" data-name="Trazado 1014202" d="M25.756,306.743h-11.5c-1.275,0-1.932-.549-1.932-1.829V294.541a2.33,2.33,0,0,0-2.318-2.328H9.818A2.33,2.33,0,0,0,7.5,294.541v14.693a2.33,2.33,0,0,0,2.318,2.328H25.756v-4.818Z" transform="translate(-6.393 -220.652)" fill="#fea613"/>
      <path id="Trazado_1014203" data-name="Trazado 1014203" d="M25.756,309.376H12.033a2.33,2.33,0,0,1-2.318-2.328V292.356c0-.036,0-.072.005-.108a2.329,2.329,0,0,0-2.22,2.323v14.693a2.33,2.33,0,0,0,2.318,2.328H25.756v-2.215Z" transform="translate(-6.393 -220.681)" fill="#fe9901"/>
      <path id="Trazado_1014204" data-name="Trazado 1014204" d="M131.139,390.706a.74.74,0,0,0,.738.738H135.4a.74.74,0,0,0,.738-.738v-5.38a.74.74,0,0,0-.738-.738h-3.523a.74.74,0,0,0-.738.738Z" transform="translate(-111.775 -299.387)" fill="#fed2a4"/>
      <path id="Trazado_1014205" data-name="Trazado 1014205" d="M23.081,57.873h2.383V55.188a1.233,1.233,0,0,1,1.227-1.24h7.022a7.164,7.164,0,0,0,4.534-1.624,1.217,1.217,0,0,1,1.546,0,7.165,7.165,0,0,0,4.534,1.624H45.4a1.233,1.233,0,0,1,1.226,1.24v2.685H49.01a2.68,2.68,0,0,1,.778.116V47.883a7.029,7.029,0,0,0-6.969-7.047H29.272A7.029,7.029,0,0,0,22.3,47.883V57.989A2.682,2.682,0,0,1,23.081,57.873Z" transform="translate(-19.01 -6.393)" fill="#d78878"/>
      <path id="Trazado_1014206" data-name="Trazado 1014206" d="M23.082,57.873h2.383V55.188a1.233,1.233,0,0,1,1.227-1.24h.781V47.883a7.029,7.029,0,0,1,6.969-7.047H29.273A7.029,7.029,0,0,0,22.3,47.883V57.989A2.68,2.68,0,0,1,23.082,57.873Z" transform="translate(-19.011 -6.393)" fill="#ca6e59"/>
      <g id="Grupo_1181597" data-name="Grupo 1181597" transform="translate(1.337 45.654)">
        <path id="Trazado_1014207" data-name="Trazado 1014207" d="M98.358,267.466H94.7a8.684,8.684,0,0,1-1.437-.121v1.978a2.694,2.694,0,0,0,2.671,2.7h1.187a2.693,2.693,0,0,0,2.671-2.7v-1.978A8.682,8.682,0,0,1,98.358,267.466Z" transform="translate(-80.832 -245.11)" fill="#fed2a4"/>
        <path id="Trazado_1014208" data-name="Trazado 1014208" d="M14.172,163.9v-7.679H11.789a2.757,2.757,0,0,0-2.734,2.764v2.677a2.758,2.758,0,0,0,2.734,2.765h2.4C14.179,164.248,14.172,164.073,14.172,163.9Z" transform="translate(-9.055 -150.391)" fill="#fed2a4"/>
        <path id="Trazado_1014209" data-name="Trazado 1014209" d="M189.32,156.217h-2.383V163.9c0,.177-.007.352-.017.526h2.4a2.758,2.758,0,0,0,2.734-2.765v-2.677A2.758,2.758,0,0,0,189.32,156.217Z" transform="translate(-160.657 -150.391)" fill="#fed2a4"/>
        <path id="Trazado_1014210" data-name="Trazado 1014210" d="M52.465,139.116a8.813,8.813,0,0,1-8.755-8.851V119.9a1.233,1.233,0,0,1,1.227-1.24h7.022a7.164,7.164,0,0,0,4.534-1.624,1.217,1.217,0,0,1,1.546,0,7.165,7.165,0,0,0,4.534,1.624h1.075a1.233,1.233,0,0,1,1.226,1.24v10.364a8.813,8.813,0,0,1-8.754,8.851Z" transform="translate(-38.593 -116.759)" fill="#fed2a4"/>
      </g>
      <path id="Trazado_1014211" data-name="Trazado 1014211" d="M47.4,141.271a1.107,1.107,0,1,1,0-2.166v-8.23a1.233,1.233,0,0,1,1.227-1.24H44.936a1.233,1.233,0,0,0-1.227,1.24v10.364a8.813,8.813,0,0,0,8.755,8.851h3.673A8.812,8.812,0,0,1,47.4,141.271Z" transform="translate(-37.255 -82.08)" fill="#ffbd86"/>
      <path id="Trazado_1014212" data-name="Trazado 1014212" d="M300.178,214.138a6.722,6.722,0,0,1,2.367-.431h4.494a8.854,8.854,0,0,1-5.964-7.949h-2.126a2.66,2.66,0,0,1-2.026-.945v7.607A16.5,16.5,0,0,1,300.178,214.138Z" transform="translate(-253.08 -146.156)" fill="#fe9901"/>
      <path id="Trazado_1014213" data-name="Trazado 1014213" d="M435.914,205.757h-2.126a8.853,8.853,0,0,1-5.964,7.95h4.494a6.8,6.8,0,0,1,5.622,2.992V204.812A2.659,2.659,0,0,1,435.914,205.757Z" transform="translate(-364.652 -146.156)" fill="#fe9901"/>
      <path id="Trazado_1014214" data-name="Trazado 1014214" d="M298.949,57.958h2.115v-2.77a1.233,1.233,0,0,1,1.227-1.24h7.022a7.164,7.164,0,0,0,4.534-1.624,1.217,1.217,0,0,1,1.546,0,7.165,7.165,0,0,0,4.534,1.624H321a1.233,1.233,0,0,1,1.226,1.24v2.77h2.115a2.66,2.66,0,0,1,2.026.945V53.15a12.261,12.261,0,0,0-12.18-12.314H309.1a12.261,12.261,0,0,0-12.18,12.314V58.9a2.66,2.66,0,0,1,2.026-.945Z" transform="translate(-253.08 -6.393)" fill="#fe9901"/>
      <path id="Trazado_1014215" data-name="Trazado 1014215" d="M300.178,214.137a6.715,6.715,0,0,1,2.013-.421V209.65a8.858,8.858,0,0,1-1.115-3.893H298.95a2.66,2.66,0,0,1-2.026-.945v7.607A16.5,16.5,0,0,1,300.178,214.137Z" transform="translate(-253.081 -146.156)" fill="#fb8801"/>
      <path id="Trazado_1014216" data-name="Trazado 1014216" d="M298.949,57.959h2.115v-2.77a1.234,1.234,0,0,1,1.126-1.235v-.8a12.261,12.261,0,0,1,12.089-12.312l-.091,0H309.1a12.261,12.261,0,0,0-12.18,12.314V58.9a2.66,2.66,0,0,1,2.026-.945Z" transform="translate(-253.08 -6.393)" fill="#fb8801"/>
      <path id="Trazado_1014217" data-name="Trazado 1014217" d="M325.748,282.7h1.606a.74.74,0,0,1,.738.738v.152h11.5c1.275,0,1.932-.549,1.932-1.829V271.389a2.33,2.33,0,0,1,2.318-2.328h.193a2.327,2.327,0,0,1,2.193,1.582,6.858,6.858,0,0,0-6.7-5.593h-4.494a8.628,8.628,0,0,1-2.779.46h-3.654a8.628,8.628,0,0,1-2.779-.46H321.32a6.729,6.729,0,0,0-2.369.429,16.406,16.406,0,0,1,6.8,17.222Z" transform="translate(-271.855 -197.5)" fill="#b3dafe"/>
      <path id="Trazado_1014218" data-name="Trazado 1014218" d="M379.614,267.466H375.96a8.683,8.683,0,0,1-1.437-.121v1.978a2.694,2.694,0,0,0,2.671,2.7h1.187a2.693,2.693,0,0,0,2.671-2.7v-1.978A8.683,8.683,0,0,1,379.614,267.466Z" transform="translate(-319.221 -199.456)" fill="#d78878"/>
      <path id="Trazado_1014219" data-name="Trazado 1014219" d="M377.475,269.322v-1.856h-1.516a8.686,8.686,0,0,1-1.437-.121v1.978a2.694,2.694,0,0,0,2.671,2.7h1.187a2.612,2.612,0,0,0,.883-.156A2.707,2.707,0,0,1,377.475,269.322Z" transform="translate(-319.221 -199.455)" fill="#ca6e59"/>
      <path id="Trazado_1014220" data-name="Trazado 1014220" d="M297.3,164.386v-7.595h-2.115a2.7,2.7,0,0,0-2.677,2.707v2.621a2.7,2.7,0,0,0,2.677,2.707h2.126Q297.3,164.608,297.3,164.386Z" transform="translate(-249.319 -105.226)" fill="#d78878"/>
      <path id="Trazado_1014221" data-name="Trazado 1014221" d="M470.341,156.792h-2.115v7.595q0,.222-.011.441h2.126a2.7,2.7,0,0,0,2.677-2.707V159.5A2.7,2.7,0,0,0,470.341,156.792Z" transform="translate(-399.079 -105.227)" fill="#d78878"/>
      <path id="Trazado_1014222" data-name="Trazado 1014222" d="M333.72,139.116a8.813,8.813,0,0,1-8.755-8.851V119.9a1.233,1.233,0,0,1,1.227-1.24h7.022a7.164,7.164,0,0,0,4.534-1.624,1.217,1.217,0,0,1,1.546,0,7.165,7.165,0,0,0,4.534,1.624H344.9a1.233,1.233,0,0,1,1.226,1.24v10.364a8.813,8.813,0,0,1-8.754,8.851Z" transform="translate(-276.981 -71.105)" fill="#d78878"/>
      <path id="Trazado_1014223" data-name="Trazado 1014223" d="M328.659,141.29a1.132,1.132,0,0,1-.121.007,1.107,1.107,0,1,1,.12-2.208v-8.213a1.233,1.233,0,0,1,1.227-1.24h-3.691a1.233,1.233,0,0,0-1.227,1.24V141.24a8.813,8.813,0,0,0,8.755,8.851h3.673A8.811,8.811,0,0,1,328.659,141.29Z" transform="translate(-276.982 -82.08)" fill="#ca6e59"/>
      <path id="Trazado_1014224" data-name="Trazado 1014224" d="M160.751,248.631a16.434,16.434,0,0,0-16.092,20.075h1.917a.74.74,0,0,1,.738.738V274.6a16.545,16.545,0,0,0,26.874,0v-5.153a.741.741,0,0,1,.738-.738h1.917a16.434,16.434,0,0,0-16.093-20.075Z" transform="translate(-122.95 -183.505)" fill="#08a9f1"/>
      <path id="Trazado_1014225" data-name="Trazado 1014225" d="M157.272,279.859a16.4,16.4,0,0,1,0-29.6,4.965,4.965,0,0,1,3.479-1.631,16.434,16.434,0,0,0-16.092,20.075h1.917a.74.74,0,0,1,.738.738V274.6a16.5,16.5,0,0,0,13.437,6.892A4.964,4.964,0,0,1,157.272,279.859Z" transform="translate(-122.95 -183.505)" fill="#0290cf"/>
      <ellipse id="Elipse_13865" data-name="Elipse 13865" cx="8.002" cy="16.429" rx="8.002" ry="16.429" transform="translate(29.799 65.126)" fill="#97d729"/>
      <path id="Trazado_1014226" data-name="Trazado 1014226" d="M205.5,265.061c0-7.769,2.627-14.278,6.156-15.99a4.2,4.2,0,0,0-1.846-.44c-4.419,0-8,7.356-8,16.43s3.583,16.429,8,16.429a4.2,4.2,0,0,0,1.846-.44C208.127,279.339,205.5,272.83,205.5,265.061Z" transform="translate(-172.01 -183.505)" fill="#8bc727"/>
      <path id="Trazado_1014227" data-name="Trazado 1014227" d="M396.8,292.213h-.193a2.33,2.33,0,0,0-2.318,2.328v10.373c0,1.28-.657,1.829-1.932,1.829h-11.5v4.818H396.8a2.33,2.33,0,0,0,2.318-2.328V294.541A2.33,2.33,0,0,0,396.8,292.213Z" transform="translate(-324.624 -220.652)" fill="#8ac9fe"/>
      <path id="Trazado_1014228" data-name="Trazado 1014228" d="M352,390.706a.741.741,0,0,1-.738.738h-3.523a.74.74,0,0,1-.738-.738v-5.38a.74.74,0,0,1,.738-.738h3.523a.74.74,0,0,1,.738.738Z" transform="translate(-295.762 -299.387)" fill="#d78878"/>
      <path id="Trazado_1014229" data-name="Trazado 1014229" d="M78.4,159.342a1.107,1.107,0,0,0,1.107-1.107v-1.51a1.107,1.107,0,0,0-2.215,0v1.51A1.107,1.107,0,0,0,78.4,159.342Z" transform="translate(-65.883 -104.225)"/>
      <path id="Trazado_1014230" data-name="Trazado 1014230" d="M139.557,159.342a1.107,1.107,0,0,0,1.107-1.107v-1.51a1.107,1.107,0,0,0-2.215,0v1.51A1.107,1.107,0,0,0,139.557,159.342Z" transform="translate(-118.007 -104.225)"/>
      <path id="Trazado_1014231" data-name="Trazado 1014231" d="M84.463,210.2a4.564,4.564,0,1,0,9.128,0,1.107,1.107,0,0,0-2.215,0,2.349,2.349,0,1,1-4.7,0,1.107,1.107,0,0,0-2.215,0Z" transform="translate(-71.991 -149.801)"/>
      <path id="Trazado_1014232" data-name="Trazado 1014232" d="M105.522,175.689h1.046a1.107,1.107,0,0,0,0-2.215h-.381v-1.3a1.107,1.107,0,0,0-2.215,0v1.969A1.552,1.552,0,0,0,105.522,175.689Z" transform="translate(-88.62 -117.39)"/>
      <path id="Trazado_1014233" data-name="Trazado 1014233" d="M360.767,158.234v-1.51a1.107,1.107,0,0,0-2.215,0v1.51a1.107,1.107,0,1,0,2.215,0Z" transform="translate(-305.609 -104.225)"/>
      <path id="Trazado_1014234" data-name="Trazado 1014234" d="M420.813,155.618a1.107,1.107,0,0,0-1.107,1.107v1.51a1.107,1.107,0,1,0,2.215,0v-1.51A1.107,1.107,0,0,0,420.813,155.618Z" transform="translate(-357.733 -104.226)"/>
      <path id="Trazado_1014235" data-name="Trazado 1014235" d="M373.74,209.088a1.107,1.107,0,0,0-1.107,1.107,2.349,2.349,0,1,1-4.7,0,1.107,1.107,0,1,0-2.215,0,4.564,4.564,0,1,0,9.128,0A1.107,1.107,0,0,0,373.74,209.088Z" transform="translate(-311.717 -149.801)"/>
      <path id="Trazado_1014236" data-name="Trazado 1014236" d="M386.777,175.689h1.046a1.107,1.107,0,1,0,0-2.215h-.381v-1.3a1.107,1.107,0,1,0-2.215,0v1.969A1.552,1.552,0,0,0,386.777,175.689Z" transform="translate(-328.345 -117.39)"/>
      <circle id="Elipse_13866" data-name="Elipse 13866" cx="1.107" cy="1.107" r="1.107" transform="translate(8.808 57.001)"/>
      <circle id="Elipse_13867" data-name="Elipse 13867" cx="1.107" cy="1.107" r="1.107" transform="translate(22.961 57.001)"/>
      <circle id="Elipse_13868" data-name="Elipse 13868" cx="1.107" cy="1.107" r="1.107" transform="translate(50.448 57.001)"/>
      <circle id="Elipse_13869" data-name="Elipse 13869" cx="1.107" cy="1.107" r="1.107" transform="translate(64.601 57.001)"/>
      <path id="Trazado_1014237" data-name="Trazado 1014237" d="M75.442,72.854A8,8,0,0,0,74.4,70.216V59.031a3.814,3.814,0,0,0,.652-2.138V54.273a3.814,3.814,0,0,0-.652-2.138V46.758A13.37,13.37,0,0,0,61.107,33.336H56.023A13.37,13.37,0,0,0,42.736,46.758v5.377a3.814,3.814,0,0,0-.652,2.138v2.621a3.815,3.815,0,0,0,.652,2.138v5.689a17.656,17.656,0,0,0-14.384,2.043,7.826,7.826,0,0,0-2.216-.32h-.558a9.976,9.976,0,0,0,3.012-5.65H30a3.861,3.861,0,0,0,3.842-3.872V54.245a3.879,3.879,0,0,0-1.956-3.372V48.454a1.107,1.107,0,0,0-2.215,0v1.919h-.946V48.8a2.343,2.343,0,0,0-2.334-2.347H25.316a6.055,6.055,0,0,1-3.831-1.373,2.324,2.324,0,0,0-2.951,0A6.054,6.054,0,0,1,14.7,46.448H7.681A2.343,2.343,0,0,0,5.347,48.8v1.578H4.4V41.49a5.908,5.908,0,0,1,5.862-5.939H23.809a5.908,5.908,0,0,1,5.862,5.939v1.8a1.107,1.107,0,0,0,2.215,0v-1.8a8.125,8.125,0,0,0-8.077-8.154H10.263A8.125,8.125,0,0,0,2.186,41.49v9.383A3.879,3.879,0,0,0,.23,54.245v2.677a3.861,3.861,0,0,0,3.842,3.872h1.41a9.976,9.976,0,0,0,3.012,5.65H7.935A7.967,7.967,0,0,0,.159,72.854,3.429,3.429,0,0,0,0,73.889V88.582a3.434,3.434,0,0,0,3.426,3.435H18.394A1.848,1.848,0,0,0,20.1,93.165h3.523a1.833,1.833,0,0,0,.82-.195,17.627,17.627,0,0,0,26.71,0,1.831,1.831,0,0,0,.82.195H55.5a1.848,1.848,0,0,0,1.708-1.148H61.5a1.107,1.107,0,0,0,0-2.215H57.345V87.2H67.733a2.721,2.721,0,0,0,3.039-2.936V73.889a1.217,1.217,0,0,1,1.211-1.22h.193a1.217,1.217,0,0,1,1.211,1.22V88.582a1.217,1.217,0,0,1-1.211,1.22H66.669a1.107,1.107,0,0,0,0,2.215h5.506A3.434,3.434,0,0,0,75.6,88.582V73.889A3.427,3.427,0,0,0,75.442,72.854ZM28.725,52.588H30a1.644,1.644,0,0,1,1.627,1.657v2.677A1.644,1.644,0,0,1,30,58.579H28.725ZM5.347,58.579H4.071a1.644,1.644,0,0,1-1.627-1.657V54.245a1.644,1.644,0,0,1,1.627-1.657H5.347ZM32.54,67.155A17.852,17.852,0,0,0,29.9,72.706H25.241A15.462,15.462,0,0,1,32.54,67.155Zm-3.2,7.766a32.365,32.365,0,0,0-.634,5.527H22.448a15.154,15.154,0,0,1,1.479-5.527ZM7.562,59.16V48.8a.126.126,0,0,1,.119-.132H14.7a8.276,8.276,0,0,0,5.236-1.875.11.11,0,0,1,.141,0,8.275,8.275,0,0,0,5.236,1.876h1.075a.126.126,0,0,1,.119.132V59.16A7.7,7.7,0,0,1,18.863,66.9H15.209A7.7,7.7,0,0,1,7.562,59.16Zm11.631,9.95v.757a1.58,1.58,0,0,1-1.563,1.593H16.442a1.58,1.58,0,0,1-1.563-1.593V69.11c.11,0,.219.008.33.008h3.654C18.973,69.118,19.083,69.113,19.193,69.11Zm.91,14.984a1.844,1.844,0,0,0-1.576.89H7.869c-.4,0-.555,0-.695-.142-.123-.123-.129-.291-.129-.579v-2.29a1.107,1.107,0,1,0-2.215,0v2.29A2.721,2.721,0,0,0,7.869,87.2H18.256v2.6H3.426a1.217,1.217,0,0,1-1.211-1.22V73.889a1.217,1.217,0,0,1,1.211-1.22h.193a1.217,1.217,0,0,1,1.211,1.22v2.916a1.107,1.107,0,1,0,2.215,0V73.889A3.435,3.435,0,0,0,3.8,70.459a5.665,5.665,0,0,1,4.136-1.8h4.311c.138.044.278.084.418.122v1.087a3.8,3.8,0,0,0,3.778,3.808h1.187a3.8,3.8,0,0,0,3.778-3.808V68.78c.141-.038.28-.078.418-.122h4.058a17.45,17.45,0,0,0-5.5,15.436H20.1Zm3.154,6.856H20.471V86.309h2.785Zm.369-6.856h-1q-.119-.705-.172-1.431h6.26a32.366,32.366,0,0,0,.634,5.527H25.471V85.94A1.848,1.848,0,0,0,23.625,84.094Zm1.846,6.623v-.312H29.9a17.854,17.854,0,0,0,2.64,5.548A15.459,15.459,0,0,1,25.471,90.717Zm11.222,5.939c-1.292-.512-2.545-1.9-3.555-3.969a18.474,18.474,0,0,1-.919-2.283h4.474Zm0-8.466H31.61a29.852,29.852,0,0,1-.683-5.527h5.766Zm0-7.742H30.927a29.852,29.852,0,0,1,.683-5.527h5.083Zm0-7.742H32.22a18.481,18.481,0,0,1,.919-2.283c1.01-2.073,2.263-3.457,3.555-3.969Zm8.258-25.949A11.153,11.153,0,0,1,56.023,35.551h5.084A11.153,11.153,0,0,1,72.18,46.758v3.814a3.747,3.747,0,0,0-.918-.114H70.255V48.8a2.343,2.343,0,0,0-2.334-2.347H66.846a6.055,6.055,0,0,1-3.831-1.373,2.324,2.324,0,0,0-2.951,0,6.054,6.054,0,0,1-3.831,1.373H49.211A2.343,2.343,0,0,0,46.876,48.8v1.662H45.869a3.754,3.754,0,0,0-.918.114ZM60.393,66.9H56.739a7.7,7.7,0,0,1-7.647-7.743V48.8a.126.126,0,0,1,.119-.132h7.022a8.274,8.274,0,0,0,5.236-1.875.11.11,0,0,1,.141,0,8.275,8.275,0,0,0,5.236,1.876h1.075a.126.126,0,0,1,.119.132V59.16A7.7,7.7,0,0,1,60.393,66.9Zm.33,2.206v.757a1.58,1.58,0,0,1-1.563,1.593H57.972a1.58,1.58,0,0,1-1.563-1.593V69.11c.11,0,.219.008.33.008h3.654c.11,0,.22,0,.329-.008Zm-10.7-2.666h-.558a7.822,7.822,0,0,0-2.216.32,17.621,17.621,0,0,0-2.3-1.232V60.595a3.755,3.755,0,0,0,.918.114H47A9.976,9.976,0,0,0,50.023,66.443ZM44.3,54.273a1.587,1.587,0,0,1,1.57-1.6h1.007v5.821H45.869a1.587,1.587,0,0,1-1.57-1.6ZM50.36,72.706H45.7a17.85,17.85,0,0,0-2.642-5.551A15.464,15.464,0,0,1,50.36,72.706Zm1.314,2.215a15.153,15.153,0,0,1,1.479,5.527H46.892a32.349,32.349,0,0,0-.634-5.527ZM38.908,66.455c1.292.512,2.545,1.9,3.555,3.969a18.482,18.482,0,0,1,.919,2.283H38.908Zm0,8.467h5.083a29.874,29.874,0,0,1,.683,5.527H38.908Zm0,7.742h5.766a29.865,29.865,0,0,1-.683,5.527H38.908Zm0,13.994V90.405h4.473a18.451,18.451,0,0,1-.918,2.283c-1.01,2.073-2.263,3.457-3.555,3.969ZM50.13,90.717a15.461,15.461,0,0,1-7.067,5.236,17.857,17.857,0,0,0,2.64-5.548H50.13Zm0-4.778V88.19H46.258a32.352,32.352,0,0,0,.634-5.527h6.26q-.052.725-.172,1.431h-1A1.848,1.848,0,0,0,50.13,85.94Zm5,5.011H52.345V86.309H55.13ZM68.557,73.889V84.263c0,.288.029.42-.13.579s-.3.142-.695.142H57.075a1.844,1.844,0,0,0-1.576-.89h-.277a17.45,17.45,0,0,0-5.5-15.436h4.058c.138.044.278.084.418.122v1.087a3.8,3.8,0,0,0,3.778,3.808h1.187a3.8,3.8,0,0,0,3.778-3.808V68.78c.141-.038.28-.078.418-.122h4.311a5.664,5.664,0,0,1,4.136,1.8A3.435,3.435,0,0,0,68.557,73.889Zm3.624-6.018a7.838,7.838,0,0,0-4.514-1.428h-.558a9.975,9.975,0,0,0,3.026-5.735h1.127a3.755,3.755,0,0,0,.918-.114Zm.652-10.978a1.587,1.587,0,0,1-1.57,1.6H70.255V52.673h1.007a1.587,1.587,0,0,1,1.57,1.6Z"/>
    </g>
  </g>
</svg>
