<svg xmlns="http://www.w3.org/2000/svg" width="123" height="156" viewBox="0 0 123 156">
  <g id="Grupo_1181596" data-name="Grupo 1181596" transform="translate(-209 -1211)">
    <rect id="Rectángulo_455521" data-name="Rectángulo 455521" width="123" height="156" rx="10" transform="translate(209 1211)" fill="#c8bf57"/>
    <circle id="Elipse_13864" data-name="Elipse 13864" cx="53" cy="53" r="53" transform="translate(217.75 1236)" fill="#fffbe5"/>
    <g id="Grupo_1181568" data-name="Grupo 1181568" transform="translate(224.573 1218.475)">
      <g id="Grupo_1181585" data-name="Grupo 1181585" transform="translate(1.345 35.477)">
        <g id="Grupo_1181576" data-name="Grupo 1181576" transform="translate(52.486 6.644)">
          <g id="Grupo_1181575" data-name="Grupo 1181575">
            <g id="Grupo_1181568-2" data-name="Grupo 1181568" transform="translate(0.001 27.628)">
              <path id="Trazado_1014164" data-name="Trazado 1014164" d="M336.74,291.652H300.064v-28.19a11.79,11.79,0,0,1,11.79-11.79h13.1a11.79,11.79,0,0,1,11.79,11.79Z" transform="translate(-300.064 -251.672)" fill="#fcc16d"/>
            </g>
            <g id="Grupo_1181569" data-name="Grupo 1181569" transform="translate(18.656 27.627)">
              <path id="Trazado_1014165" data-name="Trazado 1014165" d="M422.071,263.46V291.65H415.84V263.46a11.789,11.789,0,0,0-11.79-11.79h6.231A11.789,11.789,0,0,1,422.071,263.46Z" transform="translate(-404.05 -251.67)" fill="#fca62f"/>
            </g>
            <g id="Grupo_1181571" data-name="Grupo 1181571" transform="translate(0 42.494)">
              <path id="Trazado_1014166" data-name="Trazado 1014166" d="M300.06,334.54h36.677v11.209H300.06Z" transform="translate(-300.06 -334.54)" fill="#596d76"/>
              <g id="Grupo_1181570" data-name="Grupo 1181570" transform="translate(30.446)">
                <path id="Trazado_1014167" data-name="Trazado 1014167" d="M469.77,334.54H476v11.209H469.77Z" transform="translate(-469.77 -334.54)" fill="#475a61"/>
              </g>
            </g>
            <g id="Grupo_1181574" data-name="Grupo 1181574" transform="translate(7.28)">
              <path id="Trazado_1014168" data-name="Trazado 1014168" d="M385.164,248.012a3.7,3.7,0,0,1-3.7-3.7v-6.283h7.4v6.283A3.7,3.7,0,0,1,385.164,248.012Z" transform="translate(-374.141 -212.851)" fill="#a34f41"/>
              <g id="Grupo_1181573" data-name="Grupo 1181573">
                <g id="Grupo_1181572" data-name="Grupo 1181572" transform="translate(19.412 10.603)">
                  <circle id="Elipse_13859" data-name="Elipse 13859" cx="3.576" cy="3.576" r="3.576" fill="#a34f41"/>
                </g>
                <path id="Trazado_1014169" data-name="Trazado 1014169" d="M351.66,126.515a11.022,11.022,0,0,1-11.022-11.022v-6.8a11.022,11.022,0,0,1,22.044,0v6.8A11.022,11.022,0,0,1,351.66,126.515Z" transform="translate(-340.638 -97.673)" fill="#c86f5c"/>
              </g>
            </g>
          </g>
        </g>
        <g id="Grupo_1181584" data-name="Grupo 1181584" transform="translate(0 0)">
          <g id="Grupo_1181583" data-name="Grupo 1181583">
            <g id="Grupo_1181577" data-name="Grupo 1181577" transform="translate(0 34.272)">
              <path id="Trazado_1014170" data-name="Trazado 1014170" d="M44.176,291.652H7.5v-28.19a11.79,11.79,0,0,1,11.79-11.79h13.1a11.79,11.79,0,0,1,11.79,11.79Z" transform="translate(-7.5 -251.672)" fill="#24d1f8"/>
            </g>
            <g id="Grupo_1181578" data-name="Grupo 1181578" transform="translate(8.239 47.55)">
              <path id="Trazado_1014171" data-name="Trazado 1014171" d="M64.187,327.29l-.7.7-.7-.7a5.485,5.485,0,0,0-7.757,7.757l7.475,7.475a1.387,1.387,0,0,0,1.961,0l7.475-7.475a5.485,5.485,0,0,0-7.757-7.757Z" transform="translate(-53.427 -325.684)" fill="#fb4a59"/>
              <path id="Trazado_1014172" data-name="Trazado 1014172" d="M102.468,335.048l-7.475,7.475a1.388,1.388,0,0,1-1.961,0l-2.409-2.409a1.127,1.127,0,0,0,1.595,0l6.573-6.573a4.462,4.462,0,0,0-2.149-7.5,5.529,5.529,0,0,1,1.948-.355,5.484,5.484,0,0,1,3.878,9.363Z" transform="translate(-83.95 -325.685)" fill="#f82f40"/>
            </g>
            <g id="Grupo_1181582" data-name="Grupo 1181582" transform="translate(2.76)">
              <path id="Trazado_1014173" data-name="Trazado 1014173" d="M92.6,248.012a3.7,3.7,0,0,1-3.7-3.7v-6.283h7.4v6.283A3.7,3.7,0,0,1,92.6,248.012Z" transform="translate(-77.058 -206.206)" fill="#fdb0a0"/>
              <g id="Grupo_1181581" data-name="Grupo 1181581">
                <g id="Grupo_1181579" data-name="Grupo 1181579" transform="translate(0 17.248)">
                  <circle id="Elipse_13860" data-name="Elipse 13860" cx="3.576" cy="3.576" r="3.576" fill="#fdb0a0"/>
                </g>
                <path id="Trazado_1014174" data-name="Trazado 1014174" d="M59.1,147.03a11.022,11.022,0,0,1-11.022-11.022v-5.742a7.592,7.592,0,0,1,7.592-7.592h6.86a7.592,7.592,0,0,1,7.592,7.592v5.742A11.022,11.022,0,0,1,59.1,147.03Z" transform="translate(-43.555 -111.544)" fill="#ffcec0"/>
                <g id="Grupo_1181580" data-name="Grupo 1181580" transform="translate(2.024)">
                  <path id="Trazado_1014175" data-name="Trazado 1014175" d="M62.437,75.716H43.566a7.558,7.558,0,0,0-6.851,4.365l-.056.12a2.493,2.493,0,0,1-2.493-2.493V71.562A10.925,10.925,0,0,1,45.091,60.637h6.582A10.764,10.764,0,0,1,62.437,71.4v4.315Z" transform="translate(-34.166 -60.637)" fill="#ba5d4f"/>
                  <path id="Trazado_1014176" data-name="Trazado 1014176" d="M111.118,71.4v4.315h-7.153V71.4A10.764,10.764,0,0,0,93.49,60.644c.093,0,.187,0,.282,0h6.582A10.763,10.763,0,0,1,111.118,71.4Z" transform="translate(-82.847 -60.639)" fill="#a34f41"/>
                </g>
              </g>
            </g>
          </g>
        </g>
      </g>
      <g id="Grupo_1181595" data-name="Grupo 1181595" transform="translate(0 29.977)">
        <g id="Grupo_1181591" data-name="Grupo 1181591" transform="translate(25.448 1.345)">
          <g id="Grupo_1181586" data-name="Grupo 1181586" transform="translate(0 38.272)">
            <path id="Trazado_1014177" data-name="Trazado 1014177" d="M182.808,290.943H141.851V263.974a13.166,13.166,0,0,1,13.166-13.166h14.625a13.166,13.166,0,0,1,13.166,13.166v26.969Z" transform="translate(-141.851 -250.808)" fill="#fb6672"/>
          </g>
          <g id="Grupo_1181587" data-name="Grupo 1181587" transform="translate(21.989 38.272)">
            <path id="Trazado_1014178" data-name="Trazado 1014178" d="M283.388,263.976v26.968h-5.8V263.976A13.167,13.167,0,0,0,264.42,250.81h5.8a13.167,13.167,0,0,1,13.166,13.166Z" transform="translate(-264.42 -250.81)" fill="#fb4a59"/>
          </g>
          <g id="Grupo_1181590" data-name="Grupo 1181590" transform="translate(3.082)">
            <path id="Trazado_1014179" data-name="Trazado 1014179" d="M236.883,246.721a4.129,4.129,0,0,1-4.129-4.129v-7.016h8.259v7.016A4.129,4.129,0,0,1,236.883,246.721Z" transform="translate(-219.528 -200.036)" fill="#fdb0a0"/>
            <g id="Grupo_1181589" data-name="Grupo 1181589">
              <path id="Trazado_1014180" data-name="Trazado 1014180" d="M257.821,61.764h1.592a7.842,7.842,0,0,1,7.108,4.528l.058.125a2.587,2.587,0,0,0,2.587-2.587V57.454c0-6.26-4.359-11.334-10.619-11.334h-2.189a2.659,2.659,0,0,0-2.659,2.659v8.863A4.122,4.122,0,0,0,257.821,61.764Z" transform="translate(-236.715 -44.569)" fill="#8d9da7"/>
              <path id="Trazado_1014181" data-name="Trazado 1014181" d="M278.715,57.458v6.375a2.585,2.585,0,0,1-2.586,2.587l-.059-.125a7.79,7.79,0,0,0-1.339-2,2.481,2.481,0,0,0,.043-.465V57.458c0-5.857-3.818-10.677-9.438-11.272a2.679,2.679,0,0,1,.571-.062H268.1c6.259,0,10.618,5.074,10.618,11.334Z" transform="translate(-246.265 -44.573)" fill="#7a8d98"/>
              <g id="Grupo_1181588" data-name="Grupo 1181588" transform="translate(0 19.261)">
                <circle id="Elipse_13861" data-name="Elipse 13861" cx="3.993" cy="3.993" r="3.993" fill="#fdb0a0"/>
                <circle id="Elipse_13862" data-name="Elipse 13862" cx="3.993" cy="3.993" r="3.993" transform="translate(26.724)" fill="#fdb0a0"/>
              </g>
              <path id="Trazado_1014182" data-name="Trazado 1014182" d="M199.47,133.952a12.309,12.309,0,0,1-12.309-12.309v-6.412a8.479,8.479,0,0,1,8.479-8.479h7.66a8.479,8.479,0,0,1,8.479,8.479v6.412A12.309,12.309,0,0,1,199.47,133.952Z" transform="translate(-182.114 -94.324)" fill="#ffcec0"/>
              <path id="Trazado_1014183" data-name="Trazado 1014183" d="M186.921,54.315h-4.794a8.441,8.441,0,0,0-7.651,4.874l-.063.134a2.784,2.784,0,0,1-2.784-2.784V49.676a12.2,12.2,0,0,1,12.2-12.2H188.5a2.862,2.862,0,0,1,2.862,2.862v9.539A4.437,4.437,0,0,1,186.921,54.315Z" transform="translate(-169.369 -37.476)" fill="#596d76"/>
              <path id="Trazado_1014184" data-name="Trazado 1014184" d="M241.384,40.339v9.539a4.437,4.437,0,0,1-4.438,4.438h-4.354a4.437,4.437,0,0,0,4.438-4.438V40.339a2.861,2.861,0,0,0-2.862-2.862h4.354A2.861,2.861,0,0,1,241.384,40.339Z" transform="translate(-219.395 -37.477)" fill="#475a61"/>
            </g>
          </g>
        </g>
        <g id="Grupo_1181594" data-name="Grupo 1181594" transform="translate(0 0)">
          <g id="Grupo_1181592" data-name="Grupo 1181592" transform="translate(36.182 53.162)">
            <circle id="Elipse_13863" data-name="Elipse 13863" cx="9.745" cy="9.745" r="9.745" transform="translate(0 0)" fill="#fcb44d"/>
            <path id="Trazado_1014185" data-name="Trazado 1014185" d="M255.91,336.051a9.749,9.749,0,0,1-11.894,9.505,9.746,9.746,0,0,0,0-19.011,9.749,9.749,0,0,1,11.894,9.505Z" transform="translate(-236.421 -326.307)" fill="#fb9927"/>
          </g>
          <g id="Grupo_1181593" data-name="Grupo 1181593">
            <path id="Trazado_1014186" data-name="Trazado 1014186" d="M80.954,68.6a12.333,12.333,0,0,0,3.481-7.389,4.92,4.92,0,0,0-.061-9.821,12.327,12.327,0,0,0-1.74-4.775,1.346,1.346,0,1,0-2.284,1.423,9.649,9.649,0,0,1,1.458,5.107v6.8a9.677,9.677,0,1,1-19.353,0v-1.1a5.331,5.331,0,0,0,.341-8.247,9.676,9.676,0,0,1,13.721-6.075,1.345,1.345,0,1,0,1.222-2.4,12.387,12.387,0,0,0-15.414,3.466V44.207c0-7.027-4.861-12.373-11.4-12.666a4.2,4.2,0,0,0-3.271-1.565H42.991a13.551,13.551,0,0,0-11.76,6.837,12.159,12.159,0,0,0-7.594-2.682H17.054A12.284,12.284,0,0,0,4.785,46.4v5.92A4.92,4.92,0,0,0,7.344,61.21a12.333,12.333,0,0,0,3.492,7.4A13.154,13.154,0,0,0,0,81.539v28.19a1.346,1.346,0,0,0,2.691,0V81.539A10.456,10.456,0,0,1,13.135,71.095l1.165,0c.1.048.2.092.3.137v2.355a5.043,5.043,0,0,0,10.086,0V71.23c.1-.045.2-.089.3-.137l1.239,0a10.387,10.387,0,0,1,3.143.484,14.493,14.493,0,0,0-5.228,10.1,6.774,6.774,0,0,0-4.5,1.76,6.831,6.831,0,0,0-9.407,9.9l7.475,7.474a2.731,2.731,0,0,0,3.864,0L24.1,98.292v11.437a1.346,1.346,0,0,0,2.691,0V82.76a11.834,11.834,0,0,1,11.82-11.82l1.338,0c.151.073.3.141.459.209v2.732a5.475,5.475,0,1,0,10.95,0V71.146c.156-.068.311-.137.464-.211.033,0,1.415.005,1.415.005A11.834,11.834,0,0,1,65.06,82.76V99.107a1.346,1.346,0,0,0,2.691,0V97.17H89.162v12.559a1.346,1.346,0,0,0,2.691,0V81.539A13.154,13.154,0,0,0,80.954,68.6ZM86.33,56.3A2.233,2.233,0,0,1,84.5,58.493V54.109A2.233,2.233,0,0,1,86.33,56.3ZM19.676,98.914a.063.063,0,0,1-.058,0L12.142,91.44A4.14,4.14,0,0,1,18,85.586l.7.7a1.346,1.346,0,0,0,1.9,0l.7-.7A4.107,4.107,0,0,1,24.1,84.378V94.485ZM74.485,72.082v1.5a2.352,2.352,0,1,1-4.7,0v-1.5a12.293,12.293,0,0,0,4.7,0ZM59.533,51.945a2.647,2.647,0,0,1,.006,5.263V52.229C59.54,52.134,59.536,52.04,59.533,51.945Zm.1-7.738v5.046c-.128-.009-.257-.016-.388-.016-.055,0-.11,0-.165,0a9.759,9.759,0,0,0-7.217-6.6V38.137a5.428,5.428,0,0,1,2.3,1.847,1.346,1.346,0,1,0,2.169-1.593,7.976,7.976,0,0,0-4.474-3.083v-.968C56.386,35.069,59.635,39.067,59.635,44.207ZM45.886,69.6A10.976,10.976,0,0,1,34.922,58.642V53.485s0-.005,0-.008a7.119,7.119,0,0,1,6.366-3.97h4.794a5.792,5.792,0,0,0,5.547-4.151,7.094,7.094,0,0,1,5.22,6.873v6.412A10.976,10.976,0,0,1,45.886,69.6ZM29.876,54.577a2.638,2.638,0,0,1,.513-1.567,4.146,4.146,0,0,0,1.843,1.28v2.918A2.651,2.651,0,0,1,29.876,54.577ZM42.991,32.668h4.667a1.518,1.518,0,0,1,1.516,1.517v9.539a3.1,3.1,0,0,1-3.092,3.092H41.288a9.826,9.826,0,0,0-8.43,4.817,1.44,1.44,0,0,1-.722-1.247V43.523A10.867,10.867,0,0,1,42.991,32.668ZM5.451,56.3a2.229,2.229,0,0,1,.336-1.175A3.844,3.844,0,0,0,7.279,56.14v2.354A2.233,2.233,0,0,1,5.451,56.3Zm4.519-.95A6.233,6.233,0,0,1,15.529,51.9h2.908a1.346,1.346,0,0,0,0-2.691H15.529a8.94,8.94,0,0,0-7.594,4.256,1.148,1.148,0,0,1-.46-.919V46.4a9.59,9.59,0,0,1,9.578-9.58h6.582a9.318,9.318,0,0,1,6.457,2.563,13.493,13.493,0,0,0-.648,4.137v5.688h-5.09a1.346,1.346,0,0,0,0,2.691H27.9a5.337,5.337,0,0,0,1.422,6.945v1.093a9.677,9.677,0,1,1-19.353,0ZM22,73.585a2.352,2.352,0,0,1-4.7,0v-1.5a12.294,12.294,0,0,0,4.7,0Zm10.044-3.829a12.975,12.975,0,0,0-3.57-1.164,12.325,12.325,0,0,0,3.541-8.652v-.05q.138.013.278.019a13.619,13.619,0,0,0,4.08,8.513A14.742,14.742,0,0,0,32.043,69.756Zm16.626,4.122a2.784,2.784,0,1,1-5.568,0V72.01a13.685,13.685,0,0,0,5.568,0ZM59.479,59.91q.144-.006.287-.02v.051a12.325,12.325,0,0,0,3.556,8.667,13.123,13.123,0,0,0-3.58,1.185,14.386,14.386,0,0,0-4.33-1.381A13.619,13.619,0,0,0,59.479,59.91Zm3,11.666a10.388,10.388,0,0,1,3.146-.481l1.166,0c.1.048.2.091.3.137v2.355a5.043,5.043,0,0,0,10.086,0V71.229c.1-.045.2-.089.3-.137l1.239,0A10.456,10.456,0,0,1,89.162,81.539V83.27H67.751v-.51a14.488,14.488,0,0,0-5.275-11.184Zm5.275,22.9V85.961H89.162v8.518Z" transform="translate(0 -29.977)"/>
            <path id="Trazado_1014187" data-name="Trazado 1014187" d="M369.381,173.992v-.627a1.346,1.346,0,0,0-2.691,0v.627a1.346,1.346,0,0,0,2.691,0Z" transform="translate(-300.905 -146.537)"/>
            <path id="Trazado_1014188" data-name="Trazado 1014188" d="M425.155,173.992v-.627a1.346,1.346,0,0,0-2.691,0v.627a1.346,1.346,0,0,0,2.691,0Z" transform="translate(-346.674 -146.537)"/>
            <path id="Trazado_1014189" data-name="Trazado 1014189" d="M380.428,209.321a5.977,5.977,0,0,0,4.375-1.915,1.346,1.346,0,1,0-1.976-1.827,3.265,3.265,0,0,1-4.8,0,1.346,1.346,0,1,0-1.976,1.827A5.978,5.978,0,0,0,380.428,209.321Z" transform="translate(-308.295 -173.721)"/>
            <path id="Trazado_1014190" data-name="Trazado 1014190" d="M75.472,175.337a1.345,1.345,0,0,0,1.346-1.346v-.627a1.346,1.346,0,0,0-2.691,0v.627A1.346,1.346,0,0,0,75.472,175.337Z" transform="translate(-60.828 -146.537)"/>
            <path id="Trazado_1014191" data-name="Trazado 1014191" d="M131.245,175.337a1.345,1.345,0,0,0,1.346-1.346v-.627a1.346,1.346,0,0,0-2.691,0v.627A1.346,1.346,0,0,0,131.245,175.337Z" transform="translate(-106.595 -146.537)"/>
            <path id="Trazado_1014192" data-name="Trazado 1014192" d="M83.49,207.406a5.956,5.956,0,0,0,8.75,0,1.346,1.346,0,0,0-1.976-1.827,3.265,3.265,0,0,1-4.8,0,1.345,1.345,0,1,0-1.976,1.827Z" transform="translate(-68.218 -173.721)"/>
            <path id="Trazado_1014193" data-name="Trazado 1014193" d="M363.994,440.807a1.345,1.345,0,0,0-1.345,1.346v4.7a1.346,1.346,0,0,0,2.691,0v-4.7A1.345,1.345,0,0,0,363.994,440.807Z" transform="translate(-297.589 -367.104)"/>
            <path id="Trazado_1014194" data-name="Trazado 1014194" d="M219.82,164.78v-.7a1.346,1.346,0,0,0-2.691,0v.7a1.346,1.346,0,0,0,2.691,0Z" transform="translate(-178.176 -138.917)"/>
            <path id="Trazado_1014195" data-name="Trazado 1014195" d="M280.759,162.733a1.345,1.345,0,0,0-1.346,1.346v.7a1.346,1.346,0,1,0,2.691,0v-.7A1.346,1.346,0,0,0,280.759,162.733Z" transform="translate(-229.286 -138.916)"/>
            <path id="Trazado_1014196" data-name="Trazado 1014196" d="M235.109,200.162a3.8,3.8,0,0,1-5.589,0,1.346,1.346,0,0,0-1.976,1.827,6.493,6.493,0,0,0,9.541,0,1.345,1.345,0,0,0-1.976-1.827Z" transform="translate(-186.429 -169.276)"/>
            <path id="Trazado_1014197" data-name="Trazado 1014197" d="M225.537,367.958v-1.013a1.346,1.346,0,0,0-2.691,0v1.013a1.346,1.346,0,1,0,2.691,0Z" transform="translate(-182.867 -305.389)"/>
            <path id="Trazado_1014198" data-name="Trazado 1014198" d="M275.5,365.6a1.345,1.345,0,0,0-1.346,1.345v1.013a1.346,1.346,0,1,0,2.691,0v-1.013A1.345,1.345,0,0,0,275.5,365.6Z" transform="translate(-224.971 -305.39)"/>
            <path id="Trazado_1014199" data-name="Trazado 1014199" d="M239.191,391.948a2.336,2.336,0,0,1-3.433,0,1.346,1.346,0,0,0-1.976,1.827,5.027,5.027,0,0,0,7.385,0,1.346,1.346,0,0,0-1.976-1.827Z" transform="translate(-191.548 -326.656)"/>
            <path id="Trazado_1014200" data-name="Trazado 1014200" d="M205.273,318.808a11.09,11.09,0,1,0,11.09,11.09A11.1,11.1,0,0,0,205.273,318.808Zm0,19.489a8.4,8.4,0,1,1,8.4-8.4A8.408,8.408,0,0,1,205.273,338.3Z" transform="translate(-159.346 -266.991)"/>
          </g>
        </g>
      </g>
    </g>
  </g>
</svg>
