<svg xmlns="http://www.w3.org/2000/svg" xmlns:xlink="http://www.w3.org/1999/xlink" width="158.542" height="154.104" viewBox="0 0 158.542 154.104">
  <defs>
    <linearGradient id="linear-gradient" x1="-0.073" y1="4.861" x2="0.981" y2="4.565" gradientUnits="objectBoundingBox">
      <stop offset="0" stop-color="#b2cd6d"/>
      <stop offset="1" stop-color="#06938d"/>
    </linearGradient>
    <linearGradient id="linear-gradient-2" x1="0.927" y1="10.515" x2="0.193" y2="11.108" gradientUnits="objectBoundingBox">
      <stop offset="0" stop-color="#f2a33a"/>
      <stop offset="1" stop-color="#f9c752"/>
    </linearGradient>
    <linearGradient id="linear-gradient-3" x1="0.286" y1="3.256" x2="0.837" y2="2.548" gradientUnits="objectBoundingBox">
      <stop offset="0" stop-color="#8dc06a"/>
      <stop offset="1" stop-color="#17a689"/>
    </linearGradient>
    <linearGradient id="linear-gradient-4" x1="0.704" y1="9.443" x2="0.423" y2="9.774" gradientUnits="objectBoundingBox">
      <stop offset="0" stop-color="#d96537"/>
      <stop offset="1" stop-color="#e05a4b"/>
    </linearGradient>
    <linearGradient id="linear-gradient-5" x1="0.487" y1="-0.041" x2="0.509" y2="-0.655" gradientUnits="objectBoundingBox">
      <stop offset="0" stop-color="#99c05c"/>
      <stop offset="1" stop-color="#209978"/>
    </linearGradient>
    <linearGradient id="linear-gradient-6" x1="-0.023" y1="7.232" x2="1.027" y2="6.867" gradientUnits="objectBoundingBox">
      <stop offset="0" stop-color="#0c3c82"/>
      <stop offset="1" stop-color="#0569ad"/>
    </linearGradient>
    <linearGradient id="linear-gradient-7" x1="0.955" y1="-8.111" x2="0.284" y2="-7.999" gradientUnits="objectBoundingBox">
      <stop offset="0" stop-color="#0c9e73"/>
      <stop offset="1" stop-color="#61babe"/>
    </linearGradient>
    <linearGradient id="linear-gradient-8" x1="0.008" y1="0.303" x2="0.959" y2="0.651" gradientUnits="objectBoundingBox">
      <stop offset="0" stop-color="#be96bd"/>
      <stop offset="1" stop-color="#e5aabd"/>
    </linearGradient>
    <linearGradient id="linear-gradient-9" x1="0.489" y1="7.543" x2="0.524" y2="6.635" gradientUnits="objectBoundingBox">
      <stop offset="0" stop-color="#c7e5ec"/>
      <stop offset="1" stop-color="#ecf0ee"/>
    </linearGradient>
    <linearGradient id="linear-gradient-10" x1="1.229" y1="0.752" x2="-0.196" y2="0.468" gradientUnits="objectBoundingBox">
      <stop offset="0" stop-color="#0c81a7"/>
      <stop offset="1" stop-color="#0599d5"/>
    </linearGradient>
  </defs>
  <g id="_288748117_44273643-333f-4ede-ba09-f8859a5fac36" data-name="288748117_44273643-333f-4ede-ba09-f8859a5fac36" transform="translate(-38.688 -50.582)">
    <path id="Trazado_996890" data-name="Trazado 996890" d="M164.781,377.234l.219-.391c.462.423.9.854,1.325,1.315a1.825,1.825,0,0,1,.385.877Q165.773,378.106,164.781,377.234Z" transform="translate(-105.064 -271.849)" fill="#1279b7"/>
    <path id="Trazado_996891" data-name="Trazado 996891" d="M841.576,339.94l.377.267a13.234,13.234,0,0,1-1.835,1.851.535.535,0,0,1-.456.042l-.057-.141A5.677,5.677,0,0,1,841.576,339.94Z" transform="translate(-667.345 -241.101)" fill="#eef0f4"/>
    <path id="Trazado_996892" data-name="Trazado 996892" d="M794.079,233.722a5.06,5.06,0,0,1,.7,1.08l.028.06a2.491,2.491,0,0,1-1.2,1.692c.24-.953.059-1.865.209-2.814Z" transform="translate(-629.014 -152.597)" fill="#e7535d"/>
    <path id="Trazado_996893" data-name="Trazado 996893" d="M868.333,446.2l.086,0,.215.4-.121.2a16.338,16.338,0,0,1-2.454,2.995l-.137-.653C866.651,448.128,867.7,447.261,868.333,446.2Z" transform="translate(-689.272 -329.643)" fill="#9ec566"/>
    <path id="Trazado_996894" data-name="Trazado 996894" d="M135.95,626.41c1.076-.125,2.171.134,3.265-.1.736-.156,1.773-.891,2.369-.921.109.695.2,1.4.344,2.085l-.028.182c-1.259,2.02-2.462,4.163-3.858,6.09-.3-1.2-.785-2.386-1.155-3.569C136.5,628.942,136.234,627.672,135.95,626.41Z" transform="translate(-81.041 -478.946)" fill="#1279b7"/>
    <path id="Trazado_996895" data-name="Trazado 996895" d="M846.029,706.483a9.392,9.392,0,0,1,.294,6.8,11.669,11.669,0,0,1-5.825,6.658,23.941,23.941,0,0,1-.018-4.418,4.707,4.707,0,0,0,1.617-1.726,7.007,7.007,0,0,0,.361-5.578,2.679,2.679,0,0,0,.816-.079A4.954,4.954,0,0,0,846.029,706.483Z" transform="translate(-667.992 -546.513)" fill="#8b7820"/>
    <path id="Trazado_996896" data-name="Trazado 996896" d="M130.37,645.073c1.4-1.926,2.6-4.07,3.858-6.09a17.2,17.2,0,0,1,.111,2.987l.007,6.193c0,1.007-.088,2.083,0,3.083a41.633,41.633,0,0,1-.034,5.962c-.051-1.958-.009-3.928-.009-5.888l-1.724.006c-1.54.005-3.085-.013-4.624.052l-1.215.028C127.85,649.257,129.166,647.174,130.37,645.073Z" transform="translate(-73.37 -490.271)" fill="#a80f4a"/>
    <path id="Trazado_996897" data-name="Trazado 996897" d="M354.418,210.591a26.275,26.275,0,0,0,.3,4.764,62.033,62.033,0,0,0-6.112,2.37c-1.34.633-2.607,1.391-3.916,2.082a21.1,21.1,0,0,1-1.879-4.488c1.576-.822,3.156-1.641,4.8-2.322,1.577-.652,3.229-1.189,4.773-1.91l.359-.042C353.3,210.864,353.851,210.722,354.418,210.591Z" transform="translate(-253.404 -133.324)" fill="#155099"/>
    <path id="Trazado_996898" data-name="Trazado 996898" d="M138.648,712.971l1.724-.006c0,1.959-.043,3.93.009,5.888l-.007,1.234c-.008,1.637.086,3.349-.042,4.974a.827.827,0,0,0-.071-.2,4.838,4.838,0,0,0-.917-.591,9.859,9.859,0,0,1-1.8-1.408c-2.832-2.881-3.564-5.924-3.525-9.843C135.562,712.957,137.108,712.976,138.648,712.971Z" transform="translate(-79.435 -551.915)" fill="#f6cfb5"/>
    <path id="Trazado_996899" data-name="Trazado 996899" d="M160.49,712.971l1.724-.006c0,1.959-.043,3.93.009,5.888l-.007,1.234a10.644,10.644,0,0,1-.958-1.083C159.952,717.19,160.146,715.057,160.49,712.971Z" transform="translate(-101.277 -551.915)" fill="#fefefe"/>
    <path id="Trazado_996900" data-name="Trazado 996900" d="M824.045,412.127a6.081,6.081,0,0,0,2.844-2.916c.214-.4.367-.846.611-1.225l.076-.117a45.258,45.258,0,0,1,2.6,6.7c.284.872.513,1.793.851,2.641l.137.653a57.225,57.225,0,0,1,1.321,7.239,16.406,16.406,0,0,0-4.955,2A54.312,54.312,0,0,0,824.045,412.127Z" transform="translate(-654.38 -297.701)" fill="#155099"/>
    <path id="Trazado_996901" data-name="Trazado 996901" d="M154.516,392.4a34.2,34.2,0,0,0,3.469,5.4,46.254,46.254,0,0,0-2.843,13.654,8.741,8.741,0,0,0-1.568,1.6,14.807,14.807,0,0,0-3.706-1,61.043,61.043,0,0,1,2.956-14.9c.5-1.551,1.239-3.046,1.656-4.616Z" transform="translate(-92.638 -284.815)" fill="#1279b7"/>
    <path id="Trazado_996902" data-name="Trazado 996902" d="M319.068,116.564c2.751.164,5.728.129,8.075,1.8q.138.1.271.205t.261.218q.128.112.25.231t.238.243q.116.124.226.254t.213.265q.1.135.2.275t.186.284q.09.144.172.293t.158.3q.075.152.143.308t.128.315q.06.159.112.321t.1.326q.044.164.08.33t.064.334a5.763,5.763,0,0,1-1.385,4.55,25.775,25.775,0,0,1,2.292,2.976,17.762,17.762,0,0,0,1.31,2.31l-.359.042a35.647,35.647,0,0,0-3.492-5.039,9.36,9.36,0,0,1-1.331.853,5.821,5.821,0,0,1-4.511.467,6.3,6.3,0,0,1-3.521-3.152C317.518,123.07,318.154,119.43,319.068,116.564Z" transform="translate(-232.819 -54.978)" fill="#74cde5"/>
    <path id="Trazado_996903" data-name="Trazado 996903" d="M342,141.855a1.884,1.884,0,0,1,.348-.008c.737.052,2.585,2.37,3.134,3.061.416.524,1.983,2.577,1.906,3.236l-.327.206a2.512,2.512,0,0,1-.781-.465c-.89-.747-4.617-4.535-4.7-5.464A1.123,1.123,0,0,1,342,141.855Z" transform="translate(-252.38 -76.04)" fill="#fefefe"/>
    <path id="Trazado_996904" data-name="Trazado 996904" d="M842.112,284.741a5.8,5.8,0,0,1-1.851-4.177,5.883,5.883,0,0,1,1.377-4.343c1.619-1.818,4.263-2.406,6.593-2.512a22.166,22.166,0,0,1,3.856.224c.628,3.1.664,6.736-1.169,9.465a5.722,5.722,0,0,1-3.7,2.5,6.425,6.425,0,0,1-4.733-.892Z" transform="translate(-667.881 -185.901)" fill="#e7535d"/>
    <path id="Trazado_996905" data-name="Trazado 996905" d="M855.111,302.933a1.409,1.409,0,0,1,.62.352.643.643,0,0,1,.135.533c-.093.782-3.751,4.352-4.5,4.9a1.735,1.735,0,0,1-.449-.138.608.608,0,0,1-.161-.576C850.974,306.952,854.13,303.646,855.111,302.933Z" transform="translate(-676.621 -210.265)" fill="#fefefe"/>
    <path id="Trazado_996906" data-name="Trazado 996906" d="M699.822,161.209a3.752,3.752,0,0,1,1.5-1.7,3.59,3.59,0,0,1,5.113,1.629,3.971,3.971,0,0,1,2.032-.128c.047.011.094.022.14.035s.093.027.138.043.091.032.136.05.089.037.133.057.087.041.13.064.085.046.127.07.082.05.122.077.08.055.118.083.077.059.114.089.073.062.109.1.07.066.1.1.066.07.1.106.063.073.093.111.059.076.087.116.055.079.081.12.051.082.074.124a3.369,3.369,0,0,1,.14,2.723,3.521,3.521,0,0,1,1.345.654,2.345,2.345,0,0,1,.866,1.648,2.821,2.821,0,0,1-.909,2.039,2.545,2.545,0,0,1-.729,2.053l-.267.017a2.785,2.785,0,0,0-1.066.1l-.194.241a2.964,2.964,0,0,1-.618-.642c-.082-1.137.11-3.725-.794-4.579a1.96,1.96,0,0,0-1.09-.351c-.924-.09-1.916-.025-2.848-.024q-2.713-.006-5.425.034c-.065.059-.131.117-.193.18-1.108,1.116-.851,3.2-.845,4.652a1.851,1.851,0,0,1-.389.5,1.1,1.1,0,0,1-.692.057,10.156,10.156,0,0,0-1.06-.1,1.757,1.757,0,0,1-.611-.476,2.264,2.264,0,0,1-.056-1.765,3.741,3.741,0,0,1-.665-.788,2.238,2.238,0,0,1-.181-1.811,3.113,3.113,0,0,1,1.759-1.81,4.094,4.094,0,0,1,.053-2.351,2.516,2.516,0,0,1,1.376-1.4A3.358,3.358,0,0,1,699.822,161.209Z" transform="translate(-545.923 -90.341)" fill="#0a2766"/>
    <path id="Trazado_996907" data-name="Trazado 996907" d="M95.527,323.153c2.427-.236,5.46.237,7.391,1.834q.109.089.213.184t.2.194q.1.1.194.2t.184.213q.089.109.173.222t.162.23q.078.117.15.238t.138.245q.066.124.126.252t.113.258q.054.13.1.263t.087.267q.04.135.074.272t.061.275q.027.138.047.277t.033.279a6.385,6.385,0,0,1-.634,3.2l-.219.391a5.145,5.145,0,0,1-2.1,2.2,5.833,5.833,0,0,1-4.336.38,6.379,6.379,0,0,1-3.652-2.7c-1.807-2.219-2.1-6.073-2.045-8.819A13.39,13.39,0,0,1,95.527,323.153Z" transform="translate(-44.407 -227.065)" fill="url(#linear-gradient)"/>
    <path id="Trazado_996908" data-name="Trazado 996908" d="M119.818,344.469c.113-.007.229-.018.342-.015a1.8,1.8,0,0,1,.356.034c.279.105,4.171,3.759,4.666,4.257.336.337.867.83.814,1.347a1.391,1.391,0,0,1-.608.839,1.353,1.353,0,0,1-.511-.237,25.343,25.343,0,0,1-1.907-1.724c-.872-.793-1.779-1.547-2.652-2.338-.362-.328-1.055-.853-1.024-1.387A1.179,1.179,0,0,1,119.818,344.469Z" transform="translate(-67.161 -244.861)" fill="#fefefe"/>
    <path id="Trazado_996909" data-name="Trazado 996909" d="M637.114,93.972c.615-.065,1.245-.053,1.863-.064.4,2.67,1.142,5.079.519,7.815a5.45,5.45,0,0,1-2.322,3.631c-2.061,1.272-4.892,1.063-7.14.531a4.208,4.208,0,0,1-.892-.648,5.53,5.53,0,0,1-1.914-3.768q-.013-.146-.019-.292t0-.292q0-.146.01-.292t.025-.291q.016-.145.039-.29t.053-.287q.03-.143.068-.284t.082-.281q.044-.139.1-.276t.109-.271q.058-.134.122-.265t.135-.259q.071-.128.148-.252t.16-.244q.083-.12.172-.236t.184-.227C630.654,94.725,634.154,94.217,637.114,93.972Z" transform="translate(-490.368 -36.1)" fill="url(#linear-gradient-2)"/>
    <path id="Trazado_996910" data-name="Trazado 996910" d="M647,125.86a1.114,1.114,0,0,1,.48.042c.167.15.224.178.234.419.039.928-3.387,4.733-4.191,5.537l-.425.319-.187-.15C643.032,130.618,645.918,126.794,647,125.86Z" transform="translate(-503.456 -62.713)" fill="#fefefe"/>
    <path id="Trazado_996911" data-name="Trazado 996911" d="M878.043,383.674a16.888,16.888,0,0,1,8.375-.612c.343,3.39.234,7.715-2.049,10.481a5.86,5.86,0,0,1-4.123,2.128,6.836,6.836,0,0,1-5.064-1.647l-.053-.045.121-.2-.215-.4-.086,0a9.881,9.881,0,0,1-.786-1.844,6.472,6.472,0,0,1,.618-5.256A6.781,6.781,0,0,1,878.043,383.674Z" transform="translate(-695.889 -276.816)" fill="url(#linear-gradient-3)"/>
    <path id="Trazado_996912" data-name="Trazado 996912" d="M879.379,390.623a6.781,6.781,0,0,1,3.261-2.6c.053.134.146.241.077.38a8.513,8.513,0,0,1-2.829,2.248A1,1,0,0,1,879.379,390.623Z" transform="translate(-700.485 -281.161)" fill="#9ec566"/>
    <path id="Trazado_996913" data-name="Trazado 996913" d="M880.9,417.006a1.614,1.614,0,0,1,.339-.9,52.91,52.91,0,0,1,4.455-4.45,1.564,1.564,0,0,1,1.163-.485.484.484,0,0,1,.318.186,1.264,1.264,0,0,1,.186.877,49.376,49.376,0,0,1-4.753,4.624,3.1,3.1,0,0,1-.861.531.912.912,0,0,1-.632.02Z" transform="translate(-701.749 -300.441)" fill="#fefefe"/>
    <path id="Trazado_996914" data-name="Trazado 996914" d="M704.752,202.24q2.713-.039,5.426-.034c.932,0,1.924-.067,2.848.024a1.96,1.96,0,0,1,1.09.351c.9.855.712,3.443.794,4.579a2.966,2.966,0,0,0,.618.642l.194-.241a2.785,2.785,0,0,1,1.066-.1c-.15.949.03,1.861-.209,2.814-.162.041-.332.037-.421.184a4.054,4.054,0,0,0-.3.841,6.348,6.348,0,0,1-1.592,3.063,6.279,6.279,0,0,1-1.639.964,5.816,5.816,0,0,0-1.352.521c-.1.119-.047.558-.034.715a18.869,18.869,0,0,1-3.355-.077,8.675,8.675,0,0,0-.028-1.048,4.906,4.906,0,0,1-1.68-.453c-1.7-.8-2.3-2.349-2.864-4l.007-.2c-.168-.269-.685-.318-.986-.454a1.964,1.964,0,0,1-1.116-1.085,2.414,2.414,0,0,1,.355-1.708,10.161,10.161,0,0,1,1.06.1,1.1,1.1,0,0,0,.692-.057,1.851,1.851,0,0,0,.389-.5c-.005-1.448-.263-3.536.845-4.652C704.621,202.357,704.687,202.3,704.752,202.24Z" transform="translate(-551.989 -126.317)" fill="#f0aa71"/>
    <path id="Trazado_996915" data-name="Trazado 996915" d="M748.978,234.147l.194-.241a2.785,2.785,0,0,1,1.066-.1c-.15.949.03,1.861-.209,2.814-.162.041-.332.037-.421.184a4.051,4.051,0,0,0-.3.841,6.348,6.348,0,0,1-1.592,3.063,6.282,6.282,0,0,1-1.639.964,5.818,5.818,0,0,0-1.352.521c-.1.119-.047.558-.034.715a18.872,18.872,0,0,1-3.356-.077,8.649,8.649,0,0,0-.028-1.048c1.189-.182,2.216.117,3.449-.267a5.545,5.545,0,0,0,3.35-2.842C748.64,237.626,749.341,235.289,748.978,234.147Z" transform="translate(-585.44 -152.662)" fill="url(#linear-gradient-4)"/>
    <path id="Trazado_996916" data-name="Trazado 996916" d="M215.4,787.9c1.948-.131,3.98-.052,5.935-.018a48.5,48.5,0,0,0,6.411,6.172,18.294,18.294,0,0,0,1.887,1.407l.281.222A59.284,59.284,0,0,0,248.04,804.6l.172.074a15.235,15.235,0,0,0,1.061,3.431,19.519,19.519,0,0,1,1.066,1.868,85.968,85.968,0,0,1-9.54-3.017q-.929-.379-1.845-.787t-1.819-.846q-.9-.437-1.791-.9t-1.761-.961q-.873-.495-1.729-1.017t-1.7-1.072q-.84-.549-1.661-1.125t-1.624-1.178q-.8-.6-1.585-1.23t-1.545-1.28q-.762-.652-1.5-1.329t-1.46-1.376q-.719-.7-1.415-1.422t-1.369-1.467q-.673-.745-1.321-1.51T215.4,787.9Z" transform="translate(-147.243 -614.289)" fill="#155099"/>
    <path id="Trazado_996917" data-name="Trazado 996917" d="M635.449,788.927l1.022.01a60.55,60.55,0,0,1-28.414,19.827c-1.958.685-3.966,1.1-5.94,1.706a11.722,11.722,0,0,0,1.653-3.772,7.159,7.159,0,0,1,.247-1.632q.938-.266,1.867-.565t1.846-.629q.918-.33,1.824-.692t1.8-.754q.893-.392,1.772-.815t1.742-.876q.864-.453,1.712-.935t1.678-.993q.831-.511,1.643-1.05t1.606-1.106q.794-.567,1.567-1.161t1.526-1.214q.753-.62,1.484-1.265t1.44-1.316q.709-.67,1.394-1.364t1.346-1.411C631.982,788.867,633.726,788.923,635.449,788.927Z" transform="translate(-469.463 -615.183)" fill="#155099"/>
    <path id="Trazado_996918" data-name="Trazado 996918" d="M172.9,712.2l10.191-.005a24.957,24.957,0,0,1,4.444.1l.02.057,0,6.628,0,.658c0,1.628-.063,3.282.015,4.906l-.087.187a12.032,12.032,0,0,1-2.43.09c-1.955-.033-3.987-.113-5.935.018-.868,0-6.952.085-7.227-.126l-.036-.336c.128-1.625.033-3.337.042-4.974l.007-1.234a41.636,41.636,0,0,0,.034-5.962Z" transform="translate(-110.961 -551.23)" fill="#75033b"/>
    <path id="Trazado_996919" data-name="Trazado 996919" d="M178.125,712.2l10.191-.005a24.957,24.957,0,0,1,4.444.1l.02.057,0,6.628,0,.658c-3.147.74-5.083.963-8.112-.525A13.517,13.517,0,0,1,178.125,712.2Z" transform="translate(-116.183 -551.23)" fill="#a80f4a"/>
    <path id="Trazado_996920" data-name="Trazado 996920" d="M807.178,641.9c.414.407.846.807,1.229,1.244a8.4,8.4,0,0,0,1.088.844q.33.284.646.583t.618.613q.3.314.588.642t.557.669q.271.341.525.694t.492.718q.237.365.457.741t.422.762l.039.1a22.33,22.33,0,0,1,1.141,2.424l-.061.151-.094.034c-.282.128-.8.284-.957.558a4.955,4.955,0,0,1-2.756,1.654,2.675,2.675,0,0,1-.816.079,7.007,7.007,0,0,1-.361,5.578,4.706,4.706,0,0,1-1.617,1.726,23.936,23.936,0,0,0,.018,4.418c-.093.149-.083.214-.262.261-1.005.266-3.913-.093-5.237.07l-1.022-.01c-.007-6.316.136-12.669-.034-18.981A77.5,77.5,0,0,0,807.178,641.9Z" transform="translate(-635.83 -492.697)" fill="#e7535d"/>
    <path id="Trazado_996921" data-name="Trazado 996921" d="M840.654,699.364c.4.684.645,2.523,1.173,2.923l.118-.044c.226-.089.336-.2.568-.1l.1.139a7.007,7.007,0,0,1-.361,5.578,4.706,4.706,0,0,1-1.617,1.726C840.554,706.192,840.531,702.758,840.654,699.364Z" transform="translate(-668.147 -540.582)" fill="#fefefe"/>
    <path id="Trazado_996922" data-name="Trazado 996922" d="M840.84,649.353a8.406,8.406,0,0,0,1.088.844q.33.284.646.583t.618.613q.3.314.588.642t.557.669q.271.341.525.694t.491.718q.237.365.457.741t.422.762l.039.1a22.348,22.348,0,0,1,1.141,2.424l-.061.151-.094.034c-.282.128-.8.285-.957.558a4.955,4.955,0,0,1-2.756,1.654,2.679,2.679,0,0,1-.816.079l-.1-.139c-.232-.1-.342.01-.568.1l-.118.044c-.528-.4-.774-2.239-1.173-2.923C840.641,654.946,840.735,652.1,840.84,649.353Z" transform="translate(-668.263 -498.911)" fill="#f4a637"/>
    <path id="Trazado_996923" data-name="Trazado 996923" d="M848.493,705.05l-.065-.122c.324-.48,3.587-1.752,4.3-2.022a1.192,1.192,0,0,1,.961-.105c-.282.128-.8.284-.957.558a4.954,4.954,0,0,1-2.756,1.654,2.675,2.675,0,0,1-.816.079l-.1-.139C848.829,704.855,848.719,704.962,848.493,705.05Z" transform="translate(-674.696 -543.39)" fill="#a33121"/>
    <path id="Trazado_996924" data-name="Trazado 996924" d="M173.505,603.473c.671.451,1.336.927,2.046,1.315a7.763,7.763,0,0,0,.056,1.463v.214c1.526.434,3.369.133,4.943.092l.035,1.912a15.6,15.6,0,0,1,3.114.041,3.79,3.79,0,0,1,2.14.962,25.643,25.643,0,0,0-.042,2.921l.013,6.047c0,1.086.064,2.229-.044,3.308a24.946,24.946,0,0,0-4.444-.1l-10.191.005-.963.01c-.091-1-.007-2.076,0-3.083l-.007-6.194a17.2,17.2,0,0,0-.111-2.987l.028-.182c-.141-.689-.235-1.39-.344-2.085A9.565,9.565,0,0,0,173.505,603.473Z" transform="translate(-109.192 -460.683)" fill="#d42d50"/>
    <path id="Trazado_996925" data-name="Trazado 996925" d="M204.307,621.412c1.526.434,3.369.133,4.943.092l.035,1.912a15.586,15.586,0,0,1,3.114.041,21.829,21.829,0,0,1-3,.036,3.608,3.608,0,0,1-.463.817,2.877,2.877,0,0,1-2.067.939,2.941,2.941,0,0,1-2.089-.676,1.728,1.728,0,0,1-.6-1.106C204.463,623.074,204.315,621.928,204.307,621.412Z" transform="translate(-137.89 -475.63)" fill="#f6cfb5"/>
    <path id="Trazado_996926" data-name="Trazado 996926" d="M173.505,603.473c.671.451,1.336.927,2.046,1.315a7.763,7.763,0,0,0,.056,1.463v.214c.008.516.156,1.662-.13,2.056a31.6,31.6,0,0,0-4.552-.052,4.447,4.447,0,0,0-.849.744c-.141-.689-.235-1.39-.344-2.085A9.565,9.565,0,0,0,173.505,603.473Z" transform="translate(-109.192 -460.683)" fill="#fefefe"/>
    <path id="Trazado_996927" data-name="Trazado 996927" d="M38.688,516.571q.574-.673,1.208-1.289t1.323-1.17a21.737,21.737,0,0,1,16.011-4.531,14.808,14.808,0,0,1,3.706,1c-.528,1.177-.26,5.76-.279,7.309l.08.2a2.163,2.163,0,0,0-1.063,1.369,1.871,1.871,0,0,0-.032.187,1.894,1.894,0,0,0,.018.568q.017.094.044.185t.062.18a1.91,1.91,0,0,0,.176.336q.054.081.116.156t.131.144a1.9,1.9,0,0,0,.144.13q.075.061.157.115a1.926,1.926,0,0,0,.167.1q.086.045.176.082a1.894,1.894,0,0,0,.183.064q.093.027.189.046a2.587,2.587,0,0,0,1.723-.33,8.523,8.523,0,0,0,.766,2.69c.189.349.434.668.621,1.016a9.565,9.565,0,0,1-3.77,3.655c-.6.031-1.633.766-2.369.921-1.094.231-2.189-.028-3.265.1-.029,0-.057,0-.086,0a8.532,8.532,0,0,1-2.611-.841c-4.449-2.07-6.13-5.762-9.078-9.324A13.977,13.977,0,0,0,38.688,516.571Z" transform="translate(0 -382.341)" fill="#9ec566"/>
    <path id="Trazado_996928" data-name="Trazado 996928" d="M45.35,544.086q.155-.069.313-.132c5.4-2.138,12.016-1.829,17.43.053,1.08.376,2.069.945,3.115,1.4l.08.2a2.163,2.163,0,0,0-1.063,1.369,1.868,1.868,0,0,0-.032.187,1.9,1.9,0,0,0-.007.379,1.874,1.874,0,0,0,.025.188q.017.094.044.185t.062.18a1.907,1.907,0,0,0,.176.336q.054.081.116.156t.131.144a1.9,1.9,0,0,0,.144.13q.075.061.157.115a1.911,1.911,0,0,0,.167.1q.086.045.176.082a1.894,1.894,0,0,0,.183.064q.093.028.189.046a2.587,2.587,0,0,0,1.723-.33,8.523,8.523,0,0,0,.766,2.69c.189.349.434.668.621,1.016-1.092-.085-4.582-2.331-5.753-2.96-2.1-1.129-5.661-3.032-7.972-3.581C53.243,545.1,48.341,543.723,45.35,544.086Z" transform="translate(-5.551 -409.854)" fill="#108978"/>
    <path id="Trazado_996929" data-name="Trazado 996929" d="M44.524,552.718c2.422-.523,6.4.533,8.776,1.226a7.493,7.493,0,0,0,2.151.581c2.311.549,5.871,2.452,7.972,3.581,1.171.629,4.662,2.875,5.753,2.96a9.565,9.565,0,0,1-3.77,3.655c-.6.031-1.633.766-2.369.921-1.094.231-2.189-.028-3.265.1-.029,0-.057,0-.086,0a8.529,8.529,0,0,1-2.611-.841c-4.449-2.07-6.13-5.762-9.078-9.324C47.576,554.505,45.467,553.306,44.524,552.718Z" transform="translate(-4.863 -418.275)" fill="#2fa97a"/>
    <path id="Trazado_996930" data-name="Trazado 996930" d="M825.643,509.938c3.606-.73,6.763.26,10.066,1.646a12.912,12.912,0,0,1,2.226.988.62.62,0,0,1,.055.048,33.071,33.071,0,0,1,6.775,4.353C837.1,519.2,836.14,529.2,827.4,530.442a44.97,44.97,0,0,1-1.892,8.807q-.2-.386-.422-.762t-.457-.741q-.237-.365-.491-.718t-.525-.694q-.271-.341-.557-.669t-.588-.642q-.3-.314-.618-.613t-.646-.583a8.4,8.4,0,0,1-1.088-.844c-.383-.436-.815-.836-1.229-1.244-.6-.46-2.71-1.15-2.926-1.5-.012-.695-.079-1.392-.126-2.086.029-.274.012-.569.016-.845a5.713,5.713,0,0,0,1.285-.684l.53-.352c.062-.095.033-.066.115-.134a15.6,15.6,0,0,0,1.344-1.168,10.7,10.7,0,0,0,2.843-7.68,11.311,11.311,0,0,0-1.393-4.72l-.106-.151.222-.48A16.406,16.406,0,0,1,825.643,509.938Z" transform="translate(-647.536 -382.541)" fill="url(#linear-gradient-5)"/>
    <path id="Trazado_996931" data-name="Trazado 996931" d="M848.8,509.938c3.606-.73,6.763.26,10.066,1.646a12.912,12.912,0,0,1,2.226.988.6.6,0,0,1,.055.048c.06.176.184.222.331.328-.071.107-.144.085-.272.1a22.354,22.354,0,0,1-5.8-.315c-2.318-.278-7.657-.932-9.708-.12a5.726,5.726,0,0,0-1.241.9l-.185-.127c-.014-.037-.028-.074-.043-.11l-.063-.153a.912.912,0,0,0-.308-.473c-.041-.03-.084-.058-.126-.087l-.106-.151.222-.48A16.406,16.406,0,0,1,848.8,509.938Z" transform="translate(-670.696 -382.541)" fill="#9ec566"/>
    <path id="Trazado_996932" data-name="Trazado 996932" d="M817.663,609.108l.409.422q.391.372.81.712t.863.647q.444.306.911.578t.953.5a10.14,10.14,0,0,0,5.789,1.308,44.972,44.972,0,0,1-1.892,8.807q-.2-.386-.422-.762t-.457-.741q-.237-.365-.491-.718t-.525-.695q-.271-.341-.557-.669t-.588-.642q-.3-.314-.618-.613t-.646-.583a8.4,8.4,0,0,1-1.088-.844c-.383-.436-.815-.836-1.229-1.244-.6-.46-2.71-1.15-2.926-1.5-.012-.695-.079-1.392-.126-2.086.029-.274.012-.569.016-.845a5.711,5.711,0,0,0,1.285-.684Z" transform="translate(-647.535 -465.378)" fill="#155099"/>
    <path id="Trazado_996933" data-name="Trazado 996933" d="M817.663,609.108l.409.422q.391.372.81.712t.863.647q.444.306.911.578t.953.5c0,1.6-.272,3.111-.407,4.692a8.4,8.4,0,0,1-1.088-.844c-.383-.436-.815-.836-1.229-1.244-.6-.46-2.71-1.15-2.926-1.5-.012-.695-.079-1.392-.126-2.086.029-.274.012-.569.016-.845a5.711,5.711,0,0,0,1.285-.684Z" transform="translate(-647.536 -465.378)" fill="#fefefe"/>
    <path id="Trazado_996934" data-name="Trazado 996934" d="M831.115,547.711a1.585,1.585,0,0,0,.159.787l.159-.047c1.335-.388,2.73-.583,4.089-.883,1.263-.279,2.52-.613,3.793-.843q.709-.133,1.423-.233t1.432-.165q.718-.065,1.438-.1t1.441-.028q.721,0,1.441.042t1.437.11q.717.072,1.43.179t1.42.247c-1.555.328-3.111.66-4.631,1.131a79.365,79.365,0,0,0-13.811,6.258,49.335,49.335,0,0,0-5.115,2.946l-.409-.422c.062-.095.033-.066.115-.134a15.606,15.606,0,0,0,1.344-1.168A10.7,10.7,0,0,0,831.115,547.711Z" transform="translate(-656.686 -412.964)" fill="#108978"/>
    <path id="Trazado_996936" data-name="Trazado 996936" d="M611,211.276q2.112.564,4.171,1.3t4.049,1.64c1.356.622,2.7,1.312,4.011,2.019,1.481.8,3.106,2.11,4.79,2.325.559,1.653,1.165,3.2,2.864,4a4.907,4.907,0,0,0,1.68.453,8.674,8.674,0,0,1,.028,1.048l-.012.537c-6.113-.59-8.968-3.751-14.141-6.23-2.474-1.185-5.1-1.924-7.64-2.942A30.1,30.1,0,0,0,611,211.276Z" transform="translate(-476.698 -133.894)" fill="url(#linear-gradient-6)"/>
    <path id="Trazado_996937" data-name="Trazado 996937" d="M197.086,203.593q-.122-.083-.239-.171t-.232-.182q-.114-.093-.224-.191t-.215-.2q-.105-.1-.206-.21t-.2-.219q-.1-.112-.187-.227t-.177-.235q-.086-.119-.167-.242t-.156-.25q-.075-.126-.145-.256t-.134-.262q-.064-.133-.123-.268t-.111-.273q-.053-.138-.1-.277t-.087-.281c-1.315-4.556,2.331-7.434,3.6-11.358.72-2.223.475-4.609,1.642-6.688a9.943,9.943,0,0,1,5.924-4.519,9.745,9.745,0,0,1,7.432.765c3.312,1.9,4.955,5.658,5.919,9.188a21.1,21.1,0,0,0,1.879,4.488,10.268,10.268,0,0,1,1.5,7.464A9.16,9.16,0,0,1,219,203.957a30.7,30.7,0,0,0-3.285-3.787q-.108-.157-.223-.31c-1.482-1.97-3.348-2.322-5.645-2.658l-.018-.119.018-1.618a5.134,5.134,0,0,1-3.243-.093,12.762,12.762,0,0,0,.065,1.777l-.01.129a7.109,7.109,0,0,0-5.509,2.057,10.633,10.633,0,0,0-2.418,2.323Q197.885,202.606,197.086,203.593Z" transform="translate(-129.496 -105.239)" fill="#0a2766"/>
    <path id="Trazado_996938" data-name="Trazado 996938" d="M319.581,232.643a1.4,1.4,0,0,1,1.136-.109,1.91,1.91,0,0,1,.7.543,2.039,2.039,0,0,1,.033,1.622,2.092,2.092,0,0,1-.949.926,2.815,2.815,0,0,0-.292-.913l-.339-.688A6.589,6.589,0,0,1,319.581,232.643Z" transform="translate(-234.047 -151.541)" fill="#fefefe"/>
    <path id="Trazado_996939" data-name="Trazado 996939" d="M319.581,232.643a1.4,1.4,0,0,1,1.136-.109,1.91,1.91,0,0,1,.7.543c-.445.027-1.128-.032-1.44.335a.984.984,0,0,0-.107.612A6.589,6.589,0,0,1,319.581,232.643Z" transform="translate(-234.047 -151.541)" fill="#ffe8cb"/>
    <path id="Trazado_996940" data-name="Trazado 996940" d="M227.53,235.465c-.022.013-.043.027-.065.037a1.541,1.541,0,0,1-1.152.047,1.657,1.657,0,0,1-.884-.976,1.962,1.962,0,0,1,.043-1.494,1.347,1.347,0,0,1,.769-.8,1.63,1.63,0,0,1,1.273.123,4.376,4.376,0,0,1,.081,2.821Q227.565,235.346,227.53,235.465Z" transform="translate(-155.491 -151.33)" fill="#fefefe"/>
    <path id="Trazado_996941" data-name="Trazado 996941" d="M249.431,205.6a7.909,7.909,0,0,0,2.643,4.666,6.589,6.589,0,0,0,.285,1.381l.339.688a2.815,2.815,0,0,1,.292.913c-.264.012-.525.025-.789.014a7.589,7.589,0,0,1-3.313,5.16,9.529,9.529,0,0,1-2,.968,5.134,5.134,0,0,1-3.243-.093,7.905,7.905,0,0,1-4.47-4.284c-.218-.523-.3-1.12-.544-1.623-.015-.031-.034-.06-.051-.09q.034-.119.064-.24a4.377,4.377,0,0,0-.081-2.821c.788-1.056,1.573-2.106,2.307-3.2a5.254,5.254,0,0,0,7.512.267A5.258,5.258,0,0,0,249.431,205.6Z" transform="translate(-166.541 -129.167)" fill="#f6cfb5"/>
    <path id="Trazado_996942" data-name="Trazado 996942" d="M509.613,50.582c.915.134,6.536,5.99,7.434,7.007s1.72,2.045,2.509,3.125c3.669,4.931,6.768,10.359,6.9,16.668a30.1,30.1,0,0,1-.2,4.152,18.715,18.715,0,0,1-8.079,11.528,22.444,22.444,0,0,1-4.191,1.872c-.877.215-1.75.436-2.642.584,0,1.437.051,2.889-.024,4.324a25.618,25.618,0,0,1-.05-4.254l-1.666.1.013-22.324,0-9.376-.287-.023c.209-.063.125,0,.251-.186C509.675,62.737,509.683,50.781,509.613,50.582Z" transform="translate(-392.155)" fill="#e7535d"/>
    <path id="Trazado_996943" data-name="Trazado 996943" d="M511.036,130.965a4.711,4.711,0,0,1,3.419,1.479q.081.088.157.18t.148.188q.072.1.139.195t.129.2q.062.1.119.207t.109.213q.052.108.1.218t.088.222c.028.075.053.15.077.226s.046.153.066.23.038.155.055.233.031.157.043.235.023.158.031.237.015.159.02.238.007.159.008.239,0,.159,0,.239a4.542,4.542,0,0,1-1.472,3.218,4.754,4.754,0,0,1-3.237,1.175Z" transform="translate(-393.568 -66.977)" fill="#fefefe"/>
    <path id="Trazado_996944" data-name="Trazado 996944" d="M538.712,205.192a4.552,4.552,0,0,1,2.334.572,4.762,4.762,0,0,1,2.162,2.945,4.315,4.315,0,0,1-.581,3.257,4.69,4.69,0,0,1-3.242,2.062,4.54,4.54,0,0,1-4.811-3.919,4.382,4.382,0,0,1,4.138-4.917Z" transform="translate(-413.159 -128.825)" fill="#fefefe"/>
    <path id="Trazado_996945" data-name="Trazado 996945" d="M428.836,50.582c.07.2.063,12.155-.027,13.2-.127.184-.042.123-.251.186l.287.023,0,9.376-.013,22.324,1.666-.1a25.615,25.615,0,0,0,.05,4.254c.091,1.1.032,2.253.035,3.359l.015,6.289c-1.132-.057-2.267-.031-3.4-.022l-.033-9.628q-.024-2.18,0-4.361a13.528,13.528,0,0,1-2.768-.571,17.313,17.313,0,0,1-2.729-1.195,18.283,18.283,0,0,1-8.974-11.682,26.267,26.267,0,0,1-.3-4.764,14.657,14.657,0,0,1,.248-2.044c1.408-8.013,6.535-15.136,12.1-20.839A31.236,31.236,0,0,1,428.836,50.582Z" transform="translate(-311.378)" fill="#d42d50"/>
    <path id="Trazado_996946" data-name="Trazado 996946" d="M487.74,130.825l.287.023,0,9.376a5.3,5.3,0,0,1-2.774-.928,4.6,4.6,0,0,1-1.791-3.136q-.015-.12-.025-.24t-.013-.241q0-.12,0-.241t.011-.241q.009-.12.023-.24t.035-.239q.02-.119.046-.236t.058-.234q.032-.116.069-.231t.081-.227q.043-.113.092-.223t.1-.218q.054-.108.113-.213t.123-.207q.064-.1.134-.2t.143-.194A4.671,4.671,0,0,1,487.74,130.825Z" transform="translate(-370.56 -66.861)" fill="#b9e7f4"/>
    <path id="Trazado_996947" data-name="Trazado 996947" d="M438.32,204.907a4.575,4.575,0,0,1,2.7.46q.095.051.187.107t.182.116q.089.06.176.125t.169.134q.083.069.163.142t.156.149q.076.077.148.157t.14.164q.068.084.132.171t.123.177q.06.09.115.183t.105.188q.051.1.1.193t.087.2q.041.1.077.2t.067.205q.03.1.056.211t.045.213q.02.107.035.215t.024.217q.009.109.013.218t0,.218q0,.109-.008.218t-.019.217q-.012.108-.03.216t-.04.214q-.023.107-.051.212t-.061.209q-.033.1-.071.206t-.081.2q-.043.1-.091.2t-.1.193a4.66,4.66,0,0,1-3.066,2.309,4.366,4.366,0,0,1-5.031-3.439q-.025-.11-.044-.221t-.033-.222q-.013-.112-.021-.224t-.01-.225q0-.112,0-.225t.013-.225q.009-.112.024-.224t.036-.222q.021-.111.047-.22t.058-.217q.032-.108.069-.214t.08-.21q.042-.1.09-.206t.1-.2q.053-.1.11-.2t.12-.19A4.5,4.5,0,0,1,438.32,204.907Z" transform="translate(-329.846 -128.555)" fill="#b9e7f4"/>
    <path id="Trazado_996948" data-name="Trazado 996948" d="M189.881,287.73a5.134,5.134,0,0,0,3.243.093l-.018,1.618.018.119c2.3.336,4.162.688,5.645,2.658q.115.152.223.31a30.7,30.7,0,0,1,3.285,3.787,33.544,33.544,0,0,0,3.743,4.79,32.759,32.759,0,0,0-3.939,3.654c-.932,1.105-1.958,2.13-2.865,3.255-.7,1.026-1.4,2.054-2.016,3.131q-.825,1.481-1.631,2.971c-.391.861-.772,1.722-1.122,2.6a51.027,51.027,0,0,1-5.324,0c-4.759-.352-7.961-2.622-11-6.133a34.2,34.2,0,0,1-3.469-5.4c-.054-.236-.045-.252-.231-.4a1.825,1.825,0,0,0-.385-.877c.069-.107.142-.212.208-.321.514-.845,1.267-1.484,1.786-2.313a37.52,37.52,0,0,1,4.334-5.321q.8-.987,1.643-1.936a10.633,10.633,0,0,1,2.418-2.323,7.109,7.109,0,0,1,5.509-2.057l.01-.129A12.757,12.757,0,0,1,189.881,287.73Z" transform="translate(-112.777 -197.598)" fill="#f5cc6a"/>
    <path id="Trazado_996949" data-name="Trazado 996949" d="M269.434,303.315a3.1,3.1,0,0,1,.092-1.186,1.734,1.734,0,0,0,1.221.782,2,2,0,0,0,1.444-.4,2.325,2.325,0,0,0,.318-.3.744.744,0,0,1,.057.064,1.867,1.867,0,0,1,.209,1.272,1.425,1.425,0,0,1-.672.861q-.072.043-.148.079t-.155.064a1.617,1.617,0,0,1-.16.048,1.66,1.66,0,0,1-.164.032,1.637,1.637,0,0,1-.167.015,1.66,1.66,0,0,1-.168,0q-.084-.005-.166-.019a1.626,1.626,0,0,1-.164-.035A2.278,2.278,0,0,1,269.434,303.315Z" transform="translate(-192.252 -209.595)" fill="#f8b754"/>
    <path id="Trazado_996950" data-name="Trazado 996950" d="M269.031,287.73a5.134,5.134,0,0,0,3.243.093l-.018,1.618.018.119a2.658,2.658,0,0,0-.091.651,2.328,2.328,0,0,1-.318.3,2,2,0,0,1-1.444.4,1.734,1.734,0,0,1-1.221-.782l-.115-.5.011-.129A12.76,12.76,0,0,1,269.031,287.73Z" transform="translate(-191.927 -197.598)" fill="#f6cfb5"/>
    <path id="Trazado_996951" data-name="Trazado 996951" d="M269.031,287.73a5.134,5.134,0,0,0,3.243.093l-.018,1.618a20.719,20.719,0,0,0-3.159-1.072,10.878,10.878,0,0,1,0,1.138A12.76,12.76,0,0,1,269.031,287.73Z" transform="translate(-191.927 -197.598)" fill="#ee9c73"/>
    <path id="Trazado_996952" data-name="Trazado 996952" d="M220.06,313.811a10.634,10.634,0,0,1,2.418-2.323c-1.591,2.843-1.292,5.474-1.313,8.611-.481.479-.933.985-1.388,1.488-.223-.45.142-4.862.2-5.671A6.738,6.738,0,0,0,220.06,313.811Z" transform="translate(-150.828 -217.394)" fill="#ea882b"/>
    <path id="Trazado_996953" data-name="Trazado 996953" d="M191.973,325.419a6.737,6.737,0,0,1-.084,2.106c-.058.809-.423,5.221-.2,5.671-.627.777-1.244,1.567-1.9,2.324l-.421.083A28.366,28.366,0,0,1,186,332.676a37.518,37.518,0,0,1,4.334-5.321Q191.13,326.368,191.973,325.419Z" transform="translate(-122.741 -229.001)" fill="#f4a637"/>
    <path id="Trazado_996954" data-name="Trazado 996954" d="M323.665,316.5a30.7,30.7,0,0,1,3.285,3.787,33.543,33.543,0,0,0,3.743,4.79,32.761,32.761,0,0,0-3.939,3.654l-1.868-2.273c-.3-.364-.6-.725-.913-1.074l-.005-.8A38.6,38.6,0,0,0,323.665,316.5Z" transform="translate(-237.45 -221.57)" fill="#ea882b"/>
    <path id="Trazado_996955" data-name="Trazado 996955" d="M228.634,364.524a32.376,32.376,0,0,0,5.027.083l11.125,0,.005.8c.316.349.614.71.913,1.074l1.868,2.273c-.932,1.105-1.958,2.13-2.865,3.255-.7,1.026-1.4,2.054-2.016,3.131a15.04,15.04,0,0,1-4.872-.507,12.071,12.071,0,0,1-8.111-6.674,22.384,22.384,0,0,0-.947-2.839c-.024-.039-.05-.076-.075-.115Z" transform="translate(-158.268 -261.585)" fill="#f8b754"/>
    <path id="Trazado_996956" data-name="Trazado 996956" d="M325.332,369.77c.316.349.614.71.913,1.074-.334.259-.641.531-.949.819Z" transform="translate(-238.809 -265.956)" fill="#1279b7"/>
    <path id="Trazado_996957" data-name="Trazado 996957" d="M324.672,377.029c.308-.288.615-.561.949-.819l1.868,2.273c-.932,1.105-1.958,2.13-2.865,3.255A28.955,28.955,0,0,1,324.672,377.029Z" transform="translate(-238.185 -271.322)" fill="#fefefe"/>
    <path id="Trazado_996958" data-name="Trazado 996958" d="M183.114,363.121l.029.234.051.475c.025.038.051.076.075.115a22.385,22.385,0,0,1,.947,2.839,12.07,12.07,0,0,0,8.111,6.674,15.041,15.041,0,0,0,4.872.507q-.825,1.481-1.631,2.971c-.391.861-.772,1.722-1.122,2.6a51.044,51.044,0,0,1-5.324,0c-4.759-.352-7.961-2.622-11-6.133a34.2,34.2,0,0,1-3.469-5.4c-.054-.236-.045-.252-.231-.4a1.826,1.826,0,0,0-.385-.877c.069-.107.142-.212.208-.321.514-.845,1.267-1.484,1.786-2.313a28.367,28.367,0,0,0,3.378,2.926l.421-.083c.651-.757,1.268-1.546,1.9-2.324C182.181,364.107,182.633,363.6,183.114,363.121Z" transform="translate(-112.777 -260.416)" fill="#ea882b"/>
    <path id="Trazado_996959" data-name="Trazado 996959" d="M209.953,363.121l.029.234.051.475.007,3.182.018,6.706-.058-.041a11.422,11.422,0,0,1-3.751-6.66l.421-.083c.651-.757,1.268-1.546,1.9-2.324C209.02,364.107,209.472,363.6,209.953,363.121Z" transform="translate(-139.616 -260.416)" fill="#fefefe"/>
    <path id="Trazado_996960" data-name="Trazado 996960" d="M212.054,363.121l.029.234.051.475.007,3.182c-1.119.014-2.251-.046-3.371-.078.651-.757,1.268-1.546,1.9-2.324C211.122,364.107,211.573,363.6,212.054,363.121Z" transform="translate(-141.718 -260.416)" fill="#1279b7"/>
    <path id="Trazado_996961" data-name="Trazado 996961" d="M174.038,371.565c.069-.107.142-.212.208-.321.514-.845,1.267-1.484,1.786-2.313a28.36,28.36,0,0,0,3.378,2.926,11.422,11.422,0,0,0,3.751,6.66l.058.041q.033,1.06.006,2.121c4.622,1.4,7.664,1.279,12.344,1.1-.391.861-.772,1.722-1.122,2.6a51.01,51.01,0,0,1-5.324,0c-4.759-.352-7.961-2.621-11-6.133a34.2,34.2,0,0,1-3.469-5.4c-.054-.236-.045-.252-.231-.4A1.825,1.825,0,0,0,174.038,371.565Z" transform="translate(-112.777 -265.257)" fill="#f6cfb5"/>
    <path id="Trazado_996962" data-name="Trazado 996962" d="M672.737,287.946a18.87,18.87,0,0,0,3.355.077q.032.877.049,1.754a14.543,14.543,0,0,1,10.607,6.19c1.131,1.521,2.04,3.255,3.035,4.869l-.52.312a10.293,10.293,0,0,1,1.06,5.2,10.215,10.215,0,0,0-.285,1.6l-.076.117c-.244.38-.4.826-.611,1.225a6.08,6.08,0,0,1-2.844,2.916c-1.011.487-2,.94-3.044,1.341l-.018,2.527c-1.581.139-3.215.062-4.8.064-1.95,0-4.646.239-6.509-.258a7.837,7.837,0,0,1-2.927-1.588q-.274-.233-.534-.483a20.987,20.987,0,0,1-1.6-2.933,15.361,15.361,0,0,1-1.317-1.769,22.071,22.071,0,0,0-3.379-4.082c.5-.653,1.015-1.3,1.46-1.993q-1.969-1.224-3.911-2.49a9.805,9.805,0,0,0-.95-.676c1.029-1.569,2.229-3.1,3.382-4.579,2.86-3.673,5.835-5.025,10.36-5.593l0-1.207Z" transform="translate(-516.843 -197.778)" fill="#0f97ca"/>
    <path id="Trazado_996963" data-name="Trazado 996963" d="M708.372,349.825c.117-.192.136-.264.334-.36.528.369.811,1.912,1.012,2.571l-1.393.021Q708.341,350.941,708.372,349.825Z" transform="translate(-557.959 -249.037)" fill="#1279b7"/>
    <path id="Trazado_996964" data-name="Trazado 996964" d="M741.391,287.946a18.87,18.87,0,0,0,3.355.077q.032.877.049,1.754c-.007.344-.055.692-.088,1.035a2.485,2.485,0,0,1-1.747.9,1.516,1.516,0,0,1-1.143-.46,1.965,1.965,0,0,1-.443-1.556l0-1.207Z" transform="translate(-585.496 -197.778)" fill="#f0aa71"/>
    <path id="Trazado_996965" data-name="Trazado 996965" d="M798.651,356.8a27.848,27.848,0,0,1,2.767,3.836l.845-.418c.618,1.328,1.083,2.533.548,4a4.812,4.812,0,0,1-2.539,2.681,2.614,2.614,0,0,1-.539.183l-1.089.133c-.04-2.426-.011-4.852-.053-7.278C798.669,358.9,798.647,357.845,798.651,356.8Z" transform="translate(-633.172 -255.15)" fill="#fefefe"/>
    <path id="Trazado_996966" data-name="Trazado 996966" d="M811.3,367.107a10.293,10.293,0,0,1,1.06,5.2,10.224,10.224,0,0,0-.285,1.6l-.076.117c-.244.38-.4.826-.611,1.225a6.081,6.081,0,0,1-2.844,2.916c-1.011.487-2,.94-3.044,1.341q.05-1.918-.059-3.834a2.615,2.615,0,0,0,.539-.183,4.811,4.811,0,0,0,2.539-2.681c.535-1.466.07-2.672-.548-4Q809.622,367.938,811.3,367.107Z" transform="translate(-638.874 -263.737)" fill="#ee9c73"/>
    <path id="Trazado_996967" data-name="Trazado 996967" d="M716.889,365.041l13.6,0a13.542,13.542,0,0,0,.027,1.76c.042,2.426.013,4.852.053,7.278a15.06,15.06,0,0,1-8.376-1.757A11.842,11.842,0,0,1,716.889,365.041Z" transform="translate(-565.095 -262.015)" fill="#1279b7"/>
    <path id="Trazado_996968" data-name="Trazado 996968" d="M680.833,356.087c.1.051.2.092.305.136.729-.371,2.328-4.11,3.11-4.6q-.031,1.116-.047,2.232l1.393-.021.035.027a11.842,11.842,0,0,0,5.3,7.284,15.06,15.06,0,0,0,8.376,1.757l1.089-.133q.109,1.916.059,3.834l-.018,2.527c-1.581.139-3.215.062-4.8.064-1.95,0-4.646.239-6.509-.257a7.837,7.837,0,0,1-2.927-1.588q-.274-.233-.534-.483a20.977,20.977,0,0,1-1.6-2.933,15.362,15.362,0,0,1-1.317-1.769,22.075,22.075,0,0,0-3.379-4.082C679.875,357.427,680.388,356.781,680.833,356.087Z" transform="translate(-533.835 -250.836)" fill="#155099"/>
    <path id="Trazado_996969" data-name="Trazado 996969" d="M680.833,356.087c.1.051.2.092.305.136.729-.371,2.328-4.11,3.11-4.6q-.031,1.116-.047,2.232c-.171,3.354-.047,6.719-.133,10.076a15.362,15.362,0,0,1-1.317-1.769,22.075,22.075,0,0,0-3.379-4.082C679.875,357.427,680.388,356.781,680.833,356.087Z" transform="translate(-533.835 -250.836)" fill="#fefefe"/>
    <path id="Trazado_996970" data-name="Trazado 996970" d="M430.189,778.044a10.835,10.835,0,0,1,3.136.908c4.693,2.312,7.259,5.392,10.113,9.645l1.162,1.763c-.342.225-.683.451-1.034.662a12.115,12.115,0,0,1,.827,3.019,10.21,10.21,0,0,0,.192,1.96,7.162,7.162,0,0,0-.247,1.632,11.721,11.721,0,0,1-1.653,3.772,15.757,15.757,0,0,1-6.056,4.527c.012,1.021.036,2.043,0,3.064a.7.7,0,0,1-.188.465c-.768.876-5.435,1.249-6.764,1.313-2.214.106-9.181-.024-10.789-1.482a2.3,2.3,0,0,1-.136-.978c-.063-.778-.015-1.576,0-2.356a16.774,16.774,0,0,1-5.62-4.161,19.518,19.518,0,0,0-1.066-1.867A15.238,15.238,0,0,1,411,796.5l-.172-.074a.281.281,0,0,0,.16-.277,15.013,15.013,0,0,1,.911-5.207c-.361-.243-.753-.457-1.127-.68.405-.535.758-1.119,1.126-1.68a19.62,19.62,0,0,1,1.37-1.935,23.723,23.723,0,0,1,8.959-7.663,12.942,12.942,0,0,1,3.436-.915l.012.078a26.273,26.273,0,0,1,4.507-.061Z" transform="translate(-310.031 -606.119)" fill="#1279b7"/>
    <path id="Trazado_996971" data-name="Trazado 996971" d="M458.784,896.929a13.992,13.992,0,0,0,7.23,8.219,12.212,12.212,0,0,0,9.378.449,8.913,8.913,0,0,0,1.039-.468,18.974,18.974,0,0,0,.058,2.948.7.7,0,0,1-.188.465c-.768.876-5.435,1.249-6.764,1.313-2.214.106-9.181-.024-10.789-1.482a2.3,2.3,0,0,1-.136-.978c.188-2.064.079-4.265.058-6.34C458.71,899.685,458.662,898.294,458.784,896.929Z" transform="translate(-349.892 -705.198)" fill="#0a2766"/>
    <path id="Trazado_996972" data-name="Trazado 996972" d="M411.9,841.363c2.217.942,4.291,2.417,6.429,3.545.124-.195.185-.37.4-.47a2.554,2.554,0,0,1,.057,1.041l.025,4.851.114.3c-.121,1.365-.074,2.756-.113,4.127.021,2.075.13,4.276-.058,6.34-.063-.778-.015-1.576,0-2.356a16.774,16.774,0,0,1-5.62-4.161,19.519,19.519,0,0,0-1.066-1.868A15.238,15.238,0,0,1,411,849.28l-.172-.074a.281.281,0,0,0,.16-.277,15.013,15.013,0,0,1,.911-5.207c-.361-.243-.753-.457-1.127-.68C411.178,842.508,411.531,841.925,411.9,841.363Z" transform="translate(-310.031 -658.899)" fill="#f6cfb5"/>
    <path id="Trazado_996973" data-name="Trazado 996973" d="M444.411,893.2a13.725,13.725,0,0,0,2.409.321l.114.3c-.121,1.365-.074,2.756-.113,4.127a11.851,11.851,0,0,1-1.188-1.47C445.18,895.8,444.244,894.013,444.411,893.2Z" transform="translate(-338.042 -702.091)" fill="#155099"/>
    <path id="Trazado_996974" data-name="Trazado 996974" d="M445.482,860.269c.124-.195.185-.37.4-.47a2.555,2.555,0,0,1,.057,1.04l.025,4.851a13.72,13.72,0,0,1-2.409-.321.578.578,0,0,1-.146-.156,11.364,11.364,0,0,1,.273-3.539l.755.445Q444.968,861.2,445.482,860.269Z" transform="translate(-337.185 -674.26)" fill="#fefefe"/>
    <path id="Trazado_996975" data-name="Trazado 996975" d="M411.9,841.363c2.217.942,4.291,2.417,6.429,3.545q-.514.931-1.046,1.851l-.755-.445c-1.551-.847-3.081-1.733-4.627-2.591-.361-.243-.752-.457-1.127-.68C411.178,842.508,411.531,841.925,411.9,841.363Z" transform="translate(-310.031 -658.899)" fill="#155099"/>
    <path id="Trazado_996976" data-name="Trazado 996976" d="M566.019,845.059c1.981-1.26,4.087-2.324,6.056-3.606l1.162,1.763c-.342.225-.683.451-1.034.662a12.12,12.12,0,0,1,.827,3.019,10.2,10.2,0,0,0,.192,1.96,7.161,7.161,0,0,0-.247,1.631,11.72,11.72,0,0,1-1.653,3.772,15.756,15.756,0,0,1-6.056,4.527,22.928,22.928,0,0,1-.022-4.146,31.193,31.193,0,0,1,.059-4.2c-.083-1.614-.011-3.273-.009-4.892l0-1.667C565.564,844.26,565.786,844.665,566.019,845.059Z" transform="translate(-438.667 -658.974)" fill="#f6cfb5"/>
    <path id="Trazado_996977" data-name="Trazado 996977" d="M568.362,891.21a4.631,4.631,0,0,1-.767,3.2,4.751,4.751,0,0,1-2.127,1.7,31.2,31.2,0,0,1,.059-4.2A18.642,18.642,0,0,0,568.362,891.21Z" transform="translate(-438.891 -700.433)" fill="#155099"/>
    <path id="Trazado_996978" data-name="Trazado 996978" d="M565.824,856.055c.267.372.49.776.722,1.171.359.669.733,1.334,1.033,2.032l.981-.6c.05.556.364,2.895.105,3.257a18.643,18.643,0,0,1-2.836.7c-.083-1.614-.01-3.273-.009-4.892Z" transform="translate(-439.195 -671.141)" fill="#fefefe"/>
    <path id="Trazado_996979" data-name="Trazado 996979" d="M570.325,845.059c1.981-1.26,4.087-2.324,6.056-3.606l1.162,1.763c-.342.225-.683.451-1.034.662a34.482,34.482,0,0,0-4.17,2.616l-.981.6C571.058,846.393,570.684,845.729,570.325,845.059Z" transform="translate(-442.974 -658.974)" fill="#155099"/>
    <path id="Trazado_996980" data-name="Trazado 996980" d="M435.814,778.044a10.834,10.834,0,0,1,3.136.908c4.693,2.312,7.259,5.392,10.113,9.645-1.969,1.282-4.075,2.346-6.056,3.607-.232-.395-.454-.8-.722-1.171l0,1.667c-1.667-.063-3.368.02-5.038.033-4.269.032-8.569.117-12.835-.035a2.554,2.554,0,0,0-.057-1.04c-.213.1-.274.276-.4.471-2.138-1.128-4.212-2.6-6.429-3.545a19.636,19.636,0,0,1,1.37-1.935,23.723,23.723,0,0,1,8.959-7.663,12.945,12.945,0,0,1,3.436-.915l.011.078a26.279,26.279,0,0,1,4.507-.061Z" transform="translate(-315.655 -606.119)" fill="#5b6bb6"/>
    <path id="Trazado_996981" data-name="Trazado 996981" d="M500.134,778.147a26.279,26.279,0,0,1,4.507-.061c.023.516.019,1.023,0,1.539a4.878,4.878,0,0,1-2.132,1.159c-.751-.244-1.776-.433-2.181-1.182A3.178,3.178,0,0,1,500.134,778.147Z" transform="translate(-384.489 -606.119)" fill="#ee9c73"/>
    <path id="Trazado_996983" data-name="Trazado 996983" d="M302.9,804.994l.049.319q-.661,1.455-1.237,2.946c-.222.565-.408,1.188-.678,1.727l-.281-.222A19.322,19.322,0,0,1,302.9,804.994Z" transform="translate(-218.354 -628.596)" fill="#9ec566"/>
    <path id="Trazado_996984" data-name="Trazado 996984" d="M314.068,753.777c3.73-.03,6.991-3.24,8.4-6.452.278-.635.7-2.463,1.113-2.817.278,3.019.034,6.716-2.008,9.138a6.607,6.607,0,0,1-4.426,2.345q-.116.008-.232.011t-.232,0q-.116,0-.232-.011t-.231-.021q-.115-.013-.23-.032t-.228-.043c-.076-.016-.151-.034-.226-.053s-.149-.041-.223-.063-.147-.048-.22-.074-.145-.054-.216-.084-.142-.061-.212-.094-.139-.068-.208-.1-.136-.074-.2-.113-.132-.08-.2-.123-.128-.086-.191-.132-.124-.092-.185-.14l-.049-.319C313.76,754.317,313.921,754.048,314.068,753.777Z" transform="translate(-229.088 -578.197)" fill="#f4a637"/>
    <path id="Trazado_996985" data-name="Trazado 996985" d="M265.95,639.445a15.489,15.489,0,0,1,2.01,3.169l3.425,5.96a36.837,36.837,0,0,0,1.913,3.233c-1.6-.067-3.229-.012-4.832-.021q-1.284-.021-2.568-.008l-.02-.057c.108-1.079.044-2.222.044-3.308l-.013-6.047A25.65,25.65,0,0,1,265.95,639.445Z" transform="translate(-189.3 -490.656)" fill="#a80f4a"/>
    <path id="Trazado_996986" data-name="Trazado 996986" d="M268.447,713.376c1.6.009,3.232-.046,4.832.021-.2.032-.415.017-.557.167-.042.758.032,1.572-.084,2.316a10.493,10.493,0,0,1-.616,1.952,14.617,14.617,0,0,1-4.175,6.24,10.815,10.815,0,0,1-1.872,1.416.552.552,0,0,0-.081.071c-.078-1.624-.014-3.278-.015-4.906l0-.658,0-6.628Q267.163,713.355,268.447,713.376Z" transform="translate(-189.282 -552.246)" fill="#f6cfb5"/>
    <path id="Trazado_996987" data-name="Trazado 996987" d="M266,713.368q1.284-.012,2.568.008c-.067,2.667-.419,4.569-2.419,6.49-.047.045-.1.088-.148.13Z" transform="translate(-189.4 -552.247)" fill="#fefefe"/>
    <path id="Trazado_996988" data-name="Trazado 996988" d="M299.312,749.861a3.958,3.958,0,0,1-.6-.457,5.465,5.465,0,0,1-1.365-3.537,5.242,5.242,0,0,1,1.332-3.893c2.591-2.815,7.6-2.664,11.137-2.78l.192.886c-.41.353-.834,2.182-1.113,2.817-1.408,3.213-4.67,6.422-8.4,6.453a27.621,27.621,0,0,1,3.955-5.107A12.921,12.921,0,0,0,299.312,749.861Z" transform="translate(-215.514 -573.769)" fill="#f8b754"/>
    <path id="Trazado_996989" data-name="Trazado 996989" d="M186.142,489.678a7.027,7.027,0,0,1-.728,5.029,5.163,5.163,0,0,1-.307.426,6.714,6.714,0,0,0,2.55-1.073c.178-.139.665-.717.847-.7a4.679,4.679,0,0,1-.312,2.479,5.043,5.043,0,0,1-2.678,2.895c-.008.49-.037.993-.011,1.481l-.068.018a2.415,2.415,0,0,1-.147,1.457.528.528,0,0,1-.268-.009.454.454,0,0,1-.037-.165L184.956,499c-2.032.535-7.075.829-8.925-.27a8.044,8.044,0,0,1-2.572-2.989c-.221,2.4-.423,4.8-.462,7.214a2.691,2.691,0,0,0-1.541-1.433,2.185,2.185,0,0,0-1.218.1l-.08-.2c.019-1.55-.249-6.132.279-7.309a8.742,8.742,0,0,1,1.568-1.6,8.876,8.876,0,0,1,3.184-.3C179.014,492.24,183.207,492.575,186.142,489.678Z" transform="translate(-109.502 -365.866)" fill="#0a2766"/>
    <path id="Trazado_996990" data-name="Trazado 996990" d="M259.3,548.751a13.6,13.6,0,0,0,.072-2.323l.085-.062.171.027a.537.537,0,0,1,.1.368c0,.238.009.47.025.708a2.415,2.415,0,0,1-.147,1.457.528.528,0,0,1-.268-.009A.454.454,0,0,1,259.3,548.751Z" transform="translate(-183.822 -413.1)" fill="#0a2766"/>
    <path id="Trazado_996991" data-name="Trazado 996991" d="M168.117,533.264c.039-2.412.242-4.813.462-7.214a8.045,8.045,0,0,0,2.572,2.989c1.85,1.1,6.893.806,8.925.27l.028,2.514a.454.454,0,0,0,.037.165.528.528,0,0,0,.268.009,2.415,2.415,0,0,0,.147-1.457l.068-.018a14.773,14.773,0,0,1,.007,1.545c.346.3.938.955.937,1.45,0,.7-.661,1.04-.956,1.594a4.527,4.527,0,0,0-.252.9,5.412,5.412,0,0,1-1.53,2.732,7.112,7.112,0,0,1-1.254.9,11.705,11.705,0,0,0-1.617.8l.025,1.6c-1.574.041-3.417.341-4.943-.092l0-.214a7.767,7.767,0,0,1-.056-1.463c-.71-.388-1.375-.863-2.046-1.315-.187-.348-.432-.667-.621-1.016a8.524,8.524,0,0,1-.766-2.69,2.587,2.587,0,0,1-1.723.33,1.966,1.966,0,0,1-.372-.109q-.09-.037-.176-.082a1.912,1.912,0,0,1-.167-.1q-.081-.054-.157-.115a1.891,1.891,0,0,1-.144-.13q-.069-.069-.131-.144t-.116-.156a1.855,1.855,0,0,1-.1-.164,1.883,1.883,0,0,1-.08-.172q-.035-.088-.062-.18t-.044-.185a1.871,1.871,0,0,1-.025-.188,1.9,1.9,0,0,1,.007-.379,1.863,1.863,0,0,1,.032-.187,1.833,1.833,0,0,1,2.28-1.465A2.691,2.691,0,0,1,168.117,533.264Z" transform="translate(-104.621 -396.172)" fill="#f6cfb5"/>
    <path id="Trazado_996992" data-name="Trazado 996992" d="M204.967,611.52a8.712,8.712,0,0,0,4.9.138l.025,1.6c-1.574.041-3.417.341-4.943-.092l0-.214C204.973,612.48,204.962,612,204.967,611.52Z" transform="translate(-138.531 -467.388)" fill="#ee9c73"/>
    <path id="Trazado_996994" data-name="Trazado 996994" d="M721.089,650.469a19.677,19.677,0,0,1,.443-2.049,13.059,13.059,0,0,1,6.351-7.865c.018,1.536.157,7.229-.146,8.367-.013.048-.021.1-.031.144a25.576,25.576,0,0,1-1.009,3.33c-.252.043-.4-.086-.625-.1-1.284-.667-2.814-.824-4.08-1.518C721.806,650.565,721.359,650.528,721.089,650.469Z" transform="translate(-568.594 -491.581)" fill="#ea882b"/>
    <path id="Trazado_996995" data-name="Trazado 996995" d="M720.456,701.869c1.266.695,2.8.852,4.079,1.518-.964,1.793-1.639,3.417-1.035,5.464a5.5,5.5,0,0,0,2.7,3.215,24.5,24.5,0,0,1,.012,4.245q-.426-.125-.841-.285a9.512,9.512,0,0,1-5.351-4.894C718.682,708.02,719.234,704.9,720.456,701.869Z" transform="translate(-567.057 -542.669)" fill="#8b7820"/>
    <path id="Trazado_996996" data-name="Trazado 996996" d="M657.9,748.3c2.655-.012,5.846-.691,8.166,1.047q.134.07.265.147t.258.16q.127.083.249.172t.241.185q.118.1.231.2t.221.207q.108.106.211.218t.2.228q.1.117.188.238t.176.247q.085.126.164.255t.151.263q.072.133.138.27t.124.277q.059.14.11.282t.1.288q.042.134.077.27t.064.274q.028.138.05.277t.036.279q.015.14.022.28t.008.281q0,.141-.006.281t-.02.28q-.013.14-.033.279c-.014.093-.029.185-.047.277s-.039.183-.061.274-.047.181-.075.271-.057.179-.088.267-.065.176-.1.262-.074.172-.114.257-.082.168-.127.251-.083.149-.127.222-.09.145-.137.215-.1.14-.148.208-.1.135-.158.2-.11.13-.168.193-.117.124-.177.185-.122.119-.186.175-.128.112-.194.166-.133.106-.2.156-.139.1-.21.146-.143.092-.217.136-.148.085-.223.125-.152.078-.229.114-.155.07-.234.1-.159.063-.239.091-.161.055-.243.079a5.593,5.593,0,0,1-2.307.2,1.088,1.088,0,0,1-.238,0,4.627,4.627,0,0,1-2.883-1.62c-1.624-1.914-2.364-5.119-2.412-7.571A24.861,24.861,0,0,1,657.9,748.3Z" transform="translate(-515.815 -581.242)" fill="#74cde5"/>
    <path id="Trazado_996997" data-name="Trazado 996997" d="M688.118,755.284q.134.07.265.147t.258.16q.127.083.249.172t.241.185q.118.1.231.2t.221.207q.108.106.211.218t.2.228q.1.117.188.238t.176.247q.085.126.164.255t.151.263q.072.133.138.27t.124.277q.059.14.11.282t.1.288q.042.134.077.27t.064.274q.028.138.05.277t.036.279q.015.14.022.28t.008.281q0,.141-.006.281t-.02.281q-.013.14-.033.279t-.047.277q-.027.138-.061.274t-.075.271q-.041.135-.088.267t-.1.262q-.054.13-.114.257t-.127.251q-.061.113-.127.222t-.137.215q-.072.106-.148.208t-.158.2q-.081.1-.168.193t-.177.185q-.091.09-.186.175t-.194.166q-.1.08-.2.156t-.21.146q-.107.071-.216.136t-.223.125q-.113.06-.229.114t-.234.1q-.118.048-.239.091t-.243.079a5.594,5.594,0,0,1-2.307.2,5.642,5.642,0,0,1,.79-.123l-.016-.064.065-.046c.24-1.085.66-2.163.995-3.224a1.2,1.2,0,0,1-.375-.77c-.582-1.2-1.808-2.067-2.449-3.232a.583.583,0,0,1-.11-.51.749.749,0,0,1,.08-.016c.405-.038.773.346,1.066.583.415.027.849.628,1.131.917a35.805,35.805,0,0,0,2.086-3.749,1.18,1.18,0,0,1-.45-.4A.554.554,0,0,1,688.118,755.284Z" transform="translate(-537.863 -587.176)" fill="url(#linear-gradient-7)"/>
    <path id="Trazado_996998" data-name="Trazado 996998" d="M686.788,775.4c-.582-1.2-1.808-2.067-2.449-3.231a.583.583,0,0,1-.11-.51.738.738,0,0,1,.08-.016c.405-.038.773.346,1.066.583,1.187,1.165,3.646,3.861,3.7,5.594a.6.6,0,0,1-.176.482c-.2.056-.2.077-.377-.021A21.969,21.969,0,0,0,686.788,775.4Z" transform="translate(-537.862 -600.801)" fill="#fefefe"/>
    <path id="Trazado_996999" data-name="Trazado 996999" d="M750.07,628.564c.05.006.1.014.149.018.684.059,1.282-.7,2.057-.613,1.292.139,2.144,1.538,3.338,1.86l-.014-1.045c.216.352,2.324,1.042,2.926,1.5a77.5,77.5,0,0,1-5.4,5.565c.169,6.312.026,12.665.033,18.981-1.722,0-3.467-.061-5.187-.006-.553-.008-1.092-.033-1.641-.095a24.514,24.514,0,0,0-.012-4.245,5.5,5.5,0,0,1-2.7-3.215c-.6-2.047.071-3.671,1.035-5.464.228.012.373.14.625.1a25.582,25.582,0,0,0,1.009-3.33c.01-.048.018-.1.031-.144.3-1.138.164-6.831.146-8.367a11.066,11.066,0,0,1,3.554-.937Z" transform="translate(-587.179 -481.088)" fill="#f4a637"/>
    <path id="Trazado_997000" data-name="Trazado 997000" d="M783.147,628.564c.05.006.1.014.149.018.684.059,1.282-.7,2.057-.613,1.292.139,2.144,1.538,3.338,1.86,0,.035.012.07.014.105a2.667,2.667,0,0,1-.7,2.046,2.762,2.762,0,0,1-1.972.816,3.032,3.032,0,0,1-2.192-.893,3.518,3.518,0,0,1-.742-2.779Z" transform="translate(-620.256 -481.088)" fill="#a33121"/>
    <path id="Trazado_997001" data-name="Trazado 997001" d="M746.292,691.589c.155.4.08,10.815.033,11.912a5.5,5.5,0,0,1-2.7-3.215c-.6-2.047.071-3.671,1.035-5.464.228.012.374.14.625.1A25.587,25.587,0,0,0,746.292,691.589Z" transform="translate(-587.179 -534.104)" fill="#fefefe"/>
    <path id="Trazado_997002" data-name="Trazado 997002" d="M752.111,522.673a9.01,9.01,0,0,1-1.682-1.738,11.743,11.743,0,0,1-2.041-8.313,8.054,8.054,0,0,1,3.124-5.271,10.029,10.029,0,0,1,7.137-1.6,8.607,8.607,0,0,1,5.524,3.285l.106.151a11.312,11.312,0,0,1,1.393,4.72,10.7,10.7,0,0,1-2.843,7.68,15.576,15.576,0,0,1-1.344,1.168c-.082.068-.053.039-.115.134l-.53.352a5.711,5.711,0,0,1-1.285.684c0,.276.013.571-.016.845.047.693.114,1.391.126,2.086l.014,1.045c-1.194-.323-2.046-1.721-3.338-1.861-.775-.084-1.373.672-2.057.613-.05,0-.1-.012-.149-.018l.042-2.034,0-.082a1.118,1.118,0,0,0-.035-.425C754.064,523.937,752.492,523.062,752.111,522.673Z" transform="translate(-591.242 -379.155)" fill="#935f54"/>
    <path id="Trazado_997003" data-name="Trazado 997003" d="M788.752,615.622a2.107,2.107,0,0,0,.08.794c.047.693.114,1.391.126,2.086l.014,1.045c-1.194-.323-2.046-1.721-3.338-1.861-.775-.083-1.373.672-2.057.613-.05,0-.1-.012-.149-.018l.042-2.034c.011-.026.023-.051.033-.077a1.815,1.815,0,0,0,.087-.395,13.537,13.537,0,0,1,1.6.315A6.945,6.945,0,0,0,788.752,615.622Z" transform="translate(-620.537 -470.806)" fill="#7b221a"/>
    <path id="Trazado_997004" data-name="Trazado 997004" d="M752.111,522.673a9.01,9.01,0,0,1-1.682-1.738,11.743,11.743,0,0,1-2.041-8.313,8.054,8.054,0,0,1,3.124-5.271,10.029,10.029,0,0,1,7.137-1.6,8.607,8.607,0,0,1,5.524,3.285l.106.151a11.312,11.312,0,0,1,1.393,4.72,10.7,10.7,0,0,1-2.843,7.68,15.576,15.576,0,0,1-1.344,1.168c-.082.068-.053.039-.115.134l-.53.352c.054-.165.015-.111.136-.23a10.391,10.391,0,0,0,2.186-3.068,8.684,8.684,0,0,0,.07-6.666,6.964,6.964,0,0,0-3.67-4.153q-.145-.064-.294-.12t-.3-.105q-.151-.049-.3-.09t-.309-.075q-.155-.033-.312-.059t-.314-.044q-.158-.018-.316-.028t-.317-.012q-.159,0-.318,0t-.317.02c-.106.009-.211.021-.316.036s-.209.032-.313.051-.208.042-.31.067-.2.052-.307.083-.2.063-.3.1-.2.073-.3.113a7.258,7.258,0,0,0-3.877,4.013,8.653,8.653,0,0,0,.129,7.758,13.759,13.759,0,0,1,1.226,1.76A.8.8,0,0,1,752.111,522.673Z" transform="translate(-591.242 -379.155)" fill="#0a2766"/>
    <path id="Trazado_997005" data-name="Trazado 997005" d="M521.265,317.107c.892-.147,1.765-.369,2.642-.584,1.492.323,3,.544,4.486.894q.819.192,1.627.421t1.606.5q.8.266,1.581.57t1.554.642q.769.339,1.522.713t1.488.783q.735.408,1.45.851t1.409.917c1.265.86,2.42,1.846,3.655,2.74a13.553,13.553,0,0,1,.877-1.2q1.942,1.266,3.911,2.49c-.445.694-.958,1.34-1.46,1.993a22.07,22.07,0,0,1,3.379,4.082,15.361,15.361,0,0,0,1.317,1.77,20.971,20.971,0,0,0,1.6,2.933c0,.042,0,.084-.005.125a21.382,21.382,0,0,0,1.377,3.331,31.049,31.049,0,0,1,1.515,5q.142.606.265,1.215t.227,1.223q.1.613.19,1.229t.152,1.235q.067.619.114,1.239t.076,1.242q.029.621.038,1.243t0,1.244q-.01.622-.038,1.243t-.076,1.242q-.047.62-.114,1.239t-.152,1.235q-.085.616-.19,1.229t-.227,1.223q-.123.61-.265,1.216t-.3,1.207q-.16.6-.339,1.2t-.375,1.186q-.2.59-.411,1.174t-.447,1.161q-.232.577-.483,1.147t-.518,1.131q-.267.562-.552,1.115t-.586,1.1q-.3.544-.619,1.079t-.652,1.06q-.334.525-.684,1.039t-.716,1.018q-.366.5-.747,1t-.777.972q-.4.48-.806.948t-.835.922a35.861,35.861,0,0,1-16.432,10.192q-1.26.39-2.551.662a13.189,13.189,0,0,0-2.593.548,10.838,10.838,0,0,0-3.136-.908l-.006-1.123.022-.921c.01-.159.04-.164.185-.241a10.618,10.618,0,0,0,2.957-2.021,9.005,9.005,0,0,0,1.566-.362c7.275-2.111,13.191-5.338,18.073-11.291a26.68,26.68,0,0,0,2.852-3.985,16.584,16.584,0,0,0,1.975-3.9,41.485,41.485,0,0,0,2.919-12.394,34.289,34.289,0,0,0-.424-8.33,34.737,34.737,0,0,0-7.294-15.463c-6.258-7.118-14.307-11.441-23.818-12.056C521.315,320,521.269,318.544,521.265,317.107Z" transform="translate(-402.075 -221.589)" fill="#74cde5"/>
    <path id="Trazado_997006" data-name="Trazado 997006" d="M659.418,364.654a13.527,13.527,0,0,1,.877-1.2q1.942,1.266,3.911,2.49c-.445.694-.958,1.34-1.46,1.993C661.631,366.845,660.567,365.712,659.418,364.654Z" transform="translate(-517.208 -260.693)" fill="#f0aa71"/>
    <path id="Trazado_997007" data-name="Trazado 997007" d="M291.629,243.608c1.309-.691,2.576-1.449,3.916-2.082a62.029,62.029,0,0,1,6.112-2.37,18.283,18.283,0,0,0,8.974,11.682,17.309,17.309,0,0,0,2.729,1.195,13.526,13.526,0,0,0,2.768.571q-.027,2.18,0,4.361l.033,9.628c1.133-.01,2.268-.036,3.4.022l-.015-6.289c0-1.106.056-2.258-.035-3.359,9.511.615,17.56,4.938,23.818,12.056a34.738,34.738,0,0,1,7.294,15.463,34.292,34.292,0,0,1,.424,8.33,41.486,41.486,0,0,1-2.919,12.394,16.584,16.584,0,0,1-1.975,3.9,26.68,26.68,0,0,1-2.852,3.985c-4.883,5.953-10.8,9.18-18.073,11.291a9.009,9.009,0,0,1-1.566.362,10.617,10.617,0,0,1-2.957,2.021c-.144.077-.174.082-.185.241l-.022.921.006,1.123-.006.042a26.276,26.276,0,0,0-4.507.061l-.012-.078a12.945,12.945,0,0,0-3.436.915c-.853-.212-1.724-.349-2.581-.548a45.311,45.311,0,0,1-4.881-1.466,40.418,40.418,0,0,1-22.325-20.441,40.881,40.881,0,0,1-3.033-9.257,42.187,42.187,0,0,1,2.292-22.034c.351-.879.732-1.739,1.122-2.6q.807-1.49,1.631-2.971c.618-1.077,1.318-2.1,2.016-3.131.907-1.126,1.933-2.15,2.865-3.255a32.759,32.759,0,0,1,3.939-3.654,33.54,33.54,0,0,1-3.743-4.79,9.16,9.16,0,0,0,3.286-4.769A10.268,10.268,0,0,0,291.629,243.608Z" transform="translate(-200.342 -157.125)" fill="#74cde5"/>
    <path id="Trazado_997008" data-name="Trazado 997008" d="M312.522,473.723c.875.91,1.829,1.769,2.659,2.716a17.931,17.931,0,0,1,1.788-1.66c.261.686.075,4.7.075,5.754,0,4.332-.042,8.672.025,13-2.107,0-4.24-.063-6.343.02a20.452,20.452,0,0,1-.4-2.271A33.375,33.375,0,0,1,312.522,473.723Z" transform="translate(-226.047 -352.572)" fill="#1279b7"/>
    <path id="Trazado_997009" data-name="Trazado 997009" d="M337.351,381.549c1.341.127,4.209-.245,5.282.229l-.26.263c.012.852-.1,4.661.2,5.069-.579.9-2.971,2.55-3.889,3.294q-3.04,2.475-6.031,5.009c-.99.836-2.054,1.65-2.985,2.548a17.916,17.916,0,0,0-1.788,1.66c-.83-.947-1.784-1.807-2.659-2.716l.056-.235A34.283,34.283,0,0,1,337.351,381.549Z" transform="translate(-238.748 -275.754)" fill="#f4a637"/>
    <path id="Trazado_997010" data-name="Trazado 997010" d="M337.633,381.549c1.341.127,4.209-.245,5.282.229l-.26.263c-2.928,2.5-5.8,5.047-8.761,7.507-2.8,2.326-5.738,4.568-8.333,7.123A34.282,34.282,0,0,1,337.633,381.549Z" transform="translate(-239.029 -275.754)" fill="#1279b7"/>
    <path id="Trazado_997012" data-name="Trazado 997012" d="M364.79,414.989a37.505,37.505,0,0,1,3.331,2.836l6.8,5.613a25.7,25.7,0,0,1,2.606,2.213q-.022,1.648.008,3.3l-.008,15.11a49.434,49.434,0,0,0-5.416.33c-1.11.14-2.237.417-3.347.5-.606.128-1.218.227-1.829.329-1.727.345-3.4,1.014-5.127,1.314l-.147.052-.006-1.977q-3.452.035-6.9-.006h-2.767c-.067-4.331-.025-8.671-.025-13,0-1.058.186-5.068-.075-5.754.931-.9,2-1.712,2.985-2.548q2.991-2.534,6.031-5.009C361.818,417.539,364.211,415.886,364.79,414.989Z" transform="translate(-260.963 -303.633)" fill="url(#linear-gradient-8)"/>
    <path id="Trazado_997013" data-name="Trazado 997013" d="M466.548,529.093h3.329l0,3.957-3.31.018C466.574,531.744,466.554,530.418,466.548,529.093Z" transform="translate(-356.504 -398.708)" fill="#eef0f4"/>
    <path id="Trazado_997014" data-name="Trazado 997014" d="M369.495,528.767q1.7.041,3.407.036l-.007,4c-.749,0-1.516-.03-2.263.019l-1.154-.011Q369.472,530.789,369.495,528.767Z" transform="translate(-275.622 -398.436)" fill="#fefefe"/>
    <path id="Trazado_997015" data-name="Trazado 997015" d="M413.85,460.443a17.3,17.3,0,0,1,3.461-.1,18.119,18.119,0,0,1,.062,3.446l-.041.035a7.459,7.459,0,0,0,0,2.686l.048-.045-.088-.224a.611.611,0,0,1,.1.361,1.213,1.213,0,0,1-.145.066c-.282.086-5.406.034-5.878-.01-.122-.011-.091-.016-.224-.09l.09-.045a9.082,9.082,0,0,0-.032-2.7l-.084-.155a.727.727,0,0,1,.117-.508,17.187,17.187,0,0,0,.035-2.664A21.2,21.2,0,0,0,413.85,460.443Z" transform="translate(-310.318 -341.395)" fill="#af7caf"/>
    <path id="Trazado_997016" data-name="Trazado 997016" d="M411.633,481.39l2.635-.008c-.011.893-.042,1.791-.021,2.684-.856,0-1.728-.036-2.583.019A9.081,9.081,0,0,0,411.633,481.39Z" transform="translate(-310.747 -358.954)" fill="#fefefe"/>
    <path id="Trazado_997017" data-name="Trazado 997017" d="M411.867,461.176a21.187,21.187,0,0,0,2.578-.061v2.734l-2.614-.01A17.187,17.187,0,0,0,411.867,461.176Z" transform="translate(-310.913 -342.067)" fill="#fefefe"/>
    <path id="Trazado_997018" data-name="Trazado 997018" d="M432,461.318c.89-.037,1.787-.015,2.677-.016l0,2.588c-.894.069-1.778.089-2.674.094Z" transform="translate(-327.72 -342.218)" fill="#fefefe"/>
    <path id="Trazado_997019" data-name="Trazado 997019" d="M431.994,481.41h2.732a7.46,7.46,0,0,0,0,2.686c-.908.027-1.823,0-2.731,0Z" transform="translate(-327.713 -358.977)" fill="#fefefe"/>
    <path id="Trazado_997020" data-name="Trazado 997020" d="M410.115,528.994l7.155.009.016,10.873c-.606.128-1.218.228-1.829.329-1.727.345-3.4,1.014-5.127,1.314l-.147.052-.006-1.977Q410.179,534.294,410.115,528.994Z" transform="translate(-309.483 -398.625)" fill="#eef0f4"/>
    <path id="Trazado_997021" data-name="Trazado 997021" d="M411.4,591.015c.449-.565,1.573-.29,2.072-.778.41-.4.364-1.216.971-1.677a.718.718,0,0,1,.561-.154c.653.112,1.165.787,1.524,1.3C414.8,590.047,413.126,590.716,411.4,591.015Z" transform="translate(-310.552 -448.121)" fill="#d1d9ed"/>
    <path id="Trazado_997022" data-name="Trazado 997022" d="M364.79,414.989a37.5,37.5,0,0,1,3.331,2.836l6.8,5.613a25.69,25.69,0,0,1,2.606,2.213q-.022,1.648.008,3.3a41.584,41.584,0,0,1-4.034-3.366q-4.543-3.892-9.148-7.711c-1.113.984-2.31,1.871-3.45,2.823s-2.232,1.97-3.359,2.942c-.765.66-1.621,1.278-2.32,2-.075,1.568-.208,3.137-.26,4.706a33.794,33.794,0,0,1-.131,3.622q-.023,2.022-.017,4.044l1.154.011-.127.02a2.653,2.653,0,0,0-.938.156c-.439.724.082,5.137-.157,6.4h-2.767c-.067-4.331-.025-8.671-.025-13,0-1.058.186-5.068-.075-5.754.931-.9,2-1.712,2.985-2.548q2.991-2.534,6.031-5.009C361.818,417.539,364.211,415.886,364.79,414.989Z" transform="translate(-260.963 -303.633)" fill="#af7caf"/>
    <path id="Trazado_997023" data-name="Trazado 997023" d="M372.761,583.319c.112,2,.053,4.042.052,6.048,1.639.782,3.172,1.7,4.74,2.609a16.585,16.585,0,0,1-1.975,3.9,26.679,26.679,0,0,1-2.852,3.985c-4.882,5.953-10.8,9.18-18.073,11.291a9.012,9.012,0,0,1-1.566.362,10.618,10.618,0,0,1-2.957,2.021c-.144.077-.174.082-.185.241l-.022.922.006,1.123-.006.042a26.273,26.273,0,0,0-4.507.061l-.011-.078-.007-1.5-.012-.854a8.507,8.507,0,0,1-2.767-1.827c-1.6-.439-3.231-.773-4.818-1.28a36.64,36.64,0,0,1-14.114-8.566,37.9,37.9,0,0,1-6.121-8.171,34.558,34.558,0,0,1-3.117-8.77c2.1-.084,4.237-.016,6.343-.02h2.767q3.452.04,6.9.005l.006,1.977.147-.052c1.727-.3,3.4-.969,5.127-1.314.611-.1,1.222-.2,1.829-.329,1.11-.081,2.237-.358,3.347-.5a49.443,49.443,0,0,1,5.416-.33c2.212.006,4.353.1,6.556.3l.157.026c1.406.223,2.847.264,4.259.472q2.853.43,5.66,1.095t5.549,1.56c.591.194,3.92,1.576,4.1,1.554a.628.628,0,0,0,.145-.057C372.692,587.3,372.665,585.281,372.761,583.319Z" transform="translate(-229.77 -443.89)" fill="#2fa97a"/>
    <path id="Trazado_997024" data-name="Trazado 997024" d="M462.809,643.076a3.109,3.109,0,0,1-1.417-1.893,2.229,2.229,0,0,1,.553-1.73c2.679-3.45,10.655-2.759,14.71-3.3a12.532,12.532,0,0,1,2.119,3.627,9.63,9.63,0,0,1-.722,8.055c-.316.441-.623.893-.957,1.32a13.057,13.057,0,0,0-.855-3.151,15.342,15.342,0,0,1-.325-5.642A13.145,13.145,0,0,1,465.9,643.7a14.526,14.526,0,0,1-2.553-.469,55.558,55.558,0,0,1-.042,5.63,7.377,7.377,0,0,1-.438-.945C462.748,646.3,462.79,644.7,462.809,643.076Z" transform="translate(-352.188 -487.915)" fill="#0a2766"/>
    <path id="Trazado_997025" data-name="Trazado 997025" d="M461.676,664.269a14.527,14.527,0,0,0,2.553.469,13.146,13.146,0,0,0,10.016-3.339,15.341,15.341,0,0,0,.325,5.642,13.057,13.057,0,0,1,.855,3.151c.334-.427.641-.879.957-1.32a2.131,2.131,0,0,1,1.437.958,2.1,2.1,0,0,1,.2,1.632,1.858,1.858,0,0,1-.934,1.147,2.261,2.261,0,0,1-1.545.145,8.777,8.777,0,0,1-1.707,3.813,10.618,10.618,0,0,1-2.957,2.021c-.144.077-.174.082-.185.241l-.022.922.006,1.123-.006.042a26.28,26.28,0,0,0-4.507.061l-.012-.078-.007-1.5-.012-.854a8.508,8.508,0,0,1-2.767-1.827,7.953,7.953,0,0,1-1.814-3.8,2.2,2.2,0,0,1-1.619-.592,1.951,1.951,0,0,1-.567-1.509,2.1,2.1,0,0,1,.662-1.489,1.45,1.45,0,0,1,1.171-.38,7.372,7.372,0,0,0,.438.945A55.549,55.549,0,0,0,461.676,664.269Z" transform="translate(-350.516 -508.948)" fill="#f6cfb5"/>
    <path id="Trazado_997026" data-name="Trazado 997026" d="M499.951,764.223a7.151,7.151,0,0,0,3.043.427c.21-.025,1.276-.309,1.347-.291.125.032.124.061.17.147l-.022.921a21.612,21.612,0,0,0-4.313-.229l-.079.012-.134-.132Z" transform="translate(-384.336 -594.624)" fill="#ee9c73"/>
    <path id="Trazado_997027" data-name="Trazado 997027" d="M500.024,769.342l.134.133.079-.012a21.626,21.626,0,0,1,4.313.229l.006,1.123-.006.042a26.285,26.285,0,0,0-4.507.061l-.012-.078Z" transform="translate(-384.397 -598.889)" fill="#f0aa71"/>
    <path id="Trazado_997028" data-name="Trazado 997028" d="M372.761,583.319c.112,2,.053,4.042.052,6.048,1.639.782,3.172,1.7,4.74,2.609a16.585,16.585,0,0,1-1.975,3.9,31.518,31.518,0,0,0-5.267-3.01,38.675,38.675,0,0,0-22.4-2.926c-8.368,1.324-17.726,6.583-24.229,11.882a37.9,37.9,0,0,1-6.121-8.171,34.557,34.557,0,0,1-3.117-8.771c2.1-.084,4.237-.016,6.343-.02h2.767q3.452.04,6.9.005l.006,1.977.147-.052c1.727-.3,3.4-.969,5.127-1.314.611-.1,1.222-.2,1.829-.329,1.11-.081,2.237-.358,3.347-.5a49.443,49.443,0,0,1,5.416-.33c2.212.006,4.353.1,6.556.3l.157.026c1.406.223,2.847.264,4.259.472q2.853.43,5.66,1.095t5.549,1.56c.591.194,3.92,1.576,4.1,1.554a.63.63,0,0,0,.145-.057C372.692,587.3,372.665,585.281,372.761,583.319Z" transform="translate(-229.77 -443.89)" fill="#9ec566"/>
    <path id="Trazado_997029" data-name="Trazado 997029" d="M320.791,592.417h2.767q3.452.04,6.9.005l.006,1.977-.14.068c-1.359.65-2.838,1.1-4.221,1.706a46.069,46.069,0,0,0-8.544,5.035,34.557,34.557,0,0,1-3.117-8.771C316.552,592.354,318.685,592.421,320.791,592.417Z" transform="translate(-229.77 -451.453)" fill="#0a2766"/>
    <path id="Trazado_997030" data-name="Trazado 997030" d="M397.949,351.9c2.922-2.375,7.977-4.4,11.666-5.233a34.52,34.52,0,0,1,5.513-.722l.033,9.628c1.133-.01,2.268-.036,3.4.022l-.015-6.289c0-1.106.056-2.258-.035-3.359,9.511.615,17.56,4.938,23.818,12.056a34.737,34.737,0,0,1,7.294,15.463,34.289,34.289,0,0,1,.424,8.33,41.486,41.486,0,0,1-2.919,12.394c-1.568-.91-3.1-1.827-4.74-2.609,0-2.006.06-4.045-.052-6.048-.1,1.962-.069,3.985,0,5.948a.625.625,0,0,1-.145.057c-.181.023-3.51-1.36-4.1-1.554q-2.742-.9-5.549-1.56t-5.66-1.095c-1.411-.208-2.853-.249-4.259-.472l-.157-.026c-2.2-.205-4.344-.3-6.556-.3l.008-15.11q-.03-1.648-.008-3.3a25.69,25.69,0,0,0-2.606-2.213l-6.8-5.613a37.5,37.5,0,0,0-3.331-2.836c-.3-.408-.19-4.216-.2-5.069l.261-.263C402.158,351.652,399.29,352.024,397.949,351.9Z" transform="translate(-299.345 -246.102)" fill="#0f97ca"/>
    <path id="Trazado_997031" data-name="Trazado 997031" d="M651.381,436.257l2.831-.051q-.068,1.691-.1,3.383l-2.285-.015a1.289,1.289,0,0,1-.413-.291Z" transform="translate(-510.512 -321.312)" fill="url(#linear-gradient-9)"/>
    <path id="Trazado_997032" data-name="Trazado 997032" d="M428,383.284l.261-.263,7.025,5.858c3.013,2.551,6.012,5.137,9.153,7.529.371.284.739.576,1.116.852a15.282,15.282,0,0,1-2.522,3.59c-.677-.637-1.379-1.236-2.09-1.834a25.69,25.69,0,0,0-2.606-2.213l-6.8-5.613a37.5,37.5,0,0,0-3.332-2.836C427.9,387.945,428.016,384.136,428,383.284Z" transform="translate(-324.379 -276.997)" fill="#f5cc6a"/>
    <path id="Trazado_997033" data-name="Trazado 997033" d="M509.107,419.09a34.107,34.107,0,0,1,9.094-7.832,5.39,5.39,0,0,1,3.993-.9l-7.32,7.475c-1.592,1.621-3.284,3.195-4.752,4.928.321.408,1.057,1.179,1.6,1.235.139.014.3-.128.413-.2,0,.472.028.953-.005,1.425l-.015,1.292q-.012,6.948.056,13.9c-2.2-.205-4.344-.3-6.556-.3l.008-15.11q-.03-1.648-.007-3.3c.711.6,1.413,1.2,2.09,1.834a15.282,15.282,0,0,0,2.522-3.59C509.846,419.666,509.479,419.374,509.107,419.09Z" transform="translate(-389.045 -299.68)" fill="url(#linear-gradient-10)"/>
    <path id="Trazado_997034" data-name="Trazado 997034" d="M519.714,485.291c.321.408,1.057,1.179,1.6,1.235.139.014.3-.128.413-.2,0,.472.028.953-.005,1.425q-2.3.017-4.6.089A25.528,25.528,0,0,0,519.714,485.291Z" transform="translate(-398.635 -362.211)" fill="#e7535d"/>
    <path id="Trazado_997035" data-name="Trazado 997035" d="M544.785,408.038l.614-.577c2.426,2.579,4.724,5.282,7.136,7.871a1.291,1.291,0,0,0,.413.291c1.258,3.04,4.018,5.6,5.579,8.489l.054.1c-1.316-.025-2.645.02-3.958-.033.108,2.183.017,4.4.006,6.588-.01,2,.058,4.026,0,6.026-.1,1.962-.069,3.985,0,5.948a.625.625,0,0,1-.145.057c-.181.023-3.51-1.36-4.1-1.554q-2.742-.9-5.549-1.56t-5.66-1.095c-1.411-.208-2.853-.249-4.259-.472l-.157-.026q-.068-6.948-.056-13.9l.015-1.292c.033-.471.01-.952.006-1.425-.116.072-.274.215-.413.2-.538-.056-1.274-.827-1.595-1.235,1.468-1.733,3.159-3.307,4.752-4.928Z" transform="translate(-411.635 -297.361)" fill="#f8b754"/>
    <path id="Trazado_997036" data-name="Trazado 997036" d="M614.557,505.44a19.256,19.256,0,0,1,2.118-.01c1.128.165,2.286.039,3.422.1a1.69,1.69,0,0,1-.08.381,33.754,33.754,0,0,1-5.092,0C614.7,505.836,614.653,505.632,614.557,505.44Z" transform="translate(-479.829 -378.97)" fill="#d1d9ed"/>
    <path id="Trazado_997037" data-name="Trazado 997037" d="M630.663,477.083a34.208,34.208,0,0,0,.014,4.83c-1.135-.064-2.294.062-3.422-.1.626-.044,1.269-.018,1.9-.02a38.488,38.488,0,0,0-.037-4.733C629.632,477.081,630.147,477.084,630.663,477.083Z" transform="translate(-490.41 -355.35)" fill="#eef0f4"/>
    <path id="Trazado_997038" data-name="Trazado 997038" d="M614.374,478.168c0-.607-.134-4.962.122-5.18.531-.453,4.593-.279,5.418-.29a2.366,2.366,0,0,1-.014.733c-.517,0-1.031,0-1.547-.026a38.488,38.488,0,0,1,.037,4.733c-.628,0-1.271-.024-1.9.02A19.248,19.248,0,0,0,614.374,478.168Z" transform="translate(-479.646 -351.699)" fill="#fefefe"/>
    <path id="Trazado_997039" data-name="Trazado 997039" d="M614.609,529.689a.847.847,0,0,1-.377-.555c-.164-.941-.2-4.6.278-5.3a21.188,21.188,0,0,1,5.2-.111c.09.22.038.233-.035.448a36.163,36.163,0,0,0-.083,5.478A48.238,48.238,0,0,0,614.609,529.689Z" transform="translate(-479.465 -394.143)" fill="#fefefe"/>
    <path id="Trazado_997040" data-name="Trazado 997040" d="M620.843,527.15a4.473,4.473,0,0,1-1.1-.046c.792-.083,1.582-.154,2.379-.165a36.178,36.178,0,0,0-.083,5.478,48.219,48.219,0,0,0-4.988.043,4.892,4.892,0,0,0,.032-1.181,29.448,29.448,0,0,0,3.794.009C620.877,529.908,620.9,528.527,620.843,527.15Z" transform="translate(-481.905 -396.912)" fill="#eef0f4"/>
    <path id="Trazado_997041" data-name="Trazado 997041" d="M563.942,472.8c.716-.07,4.654-.19,5.092.068.382,1,.2,4.271.187,5.5a2.763,2.763,0,0,1-1.983.379,14.237,14.237,0,0,1-3.263-.147c-.047-.095-.09-.177-.129-.276A18.989,18.989,0,0,1,563.942,472.8Z" transform="translate(-437.444 -351.732)" fill="#fefefe"/>
    <path id="Trazado_997042" data-name="Trazado 997042" d="M565.406,505.847a2.6,2.6,0,0,1,.272-.245c.513-.373,4.182-.087,4.974.013a2.762,2.762,0,0,1-1.983.379A14.232,14.232,0,0,1,565.406,505.847Z" transform="translate(-438.875 -378.979)" fill="#d1d9ed"/>
    <path id="Trazado_997043" data-name="Trazado 997043" d="M544.785,408.038l.614-.577c2.426,2.579,4.724,5.282,7.136,7.871a1.291,1.291,0,0,0,.413.291c1.258,3.04,4.018,5.6,5.579,8.489l.054.1c-1.316-.025-2.645.02-3.958-.033-.016-.4.007-.8.008-1.2,0-1.2-.693-1.9-1.281-2.871-.617-1.02-1.132-2.123-1.844-3.081a32.131,32.131,0,0,0-3.072-3.244c-1.08-1.095-2.12-2.228-3.206-3.318l-7.668,7.7c-.63.662-2.708,2.554-2.839,3.32-.116.072-.274.215-.413.2-.538-.056-1.274-.827-1.595-1.235,1.468-1.733,3.159-3.307,4.752-4.928Z" transform="translate(-411.635 -297.361)" fill="#e7535d"/>
    <path id="Trazado_997044" data-name="Trazado 997044" d="M547.482,471.584c.186.178.231.282.5.284a.669.669,0,0,0,.069-.006,18.989,18.989,0,0,0-.1,5.519c.039.1.082.182.129.276a14.234,14.234,0,0,0,3.263.147,3.571,3.571,0,0,0,1.286,2.213c.158.115.329.18.49.283a.3.3,0,0,1,.046.048,20.731,20.731,0,0,1,.025,5.93c-.019.019-.037.038-.056.056a1.288,1.288,0,0,1-.348.194c.143.426.844.963,1.179,1.3q1.533,1.544,3.2,2.945t3.449,2.647a41.946,41.946,0,0,1,3.932,2.749.627.627,0,0,1-.145.057c-.181.023-3.51-1.36-4.1-1.554q-2.742-.9-5.549-1.56t-5.66-1.095c-1.411-.208-2.853-.249-4.259-.472l-.157-.026q-.068-6.948-.056-13.9l.015-1.292c.033-.471.01-.952.005-1.425C544.774,474.138,546.852,472.246,547.482,471.584Z" transform="translate(-421.556 -350.79)" fill="#f4a637"/>
    <path id="Trazado_997045" data-name="Trazado 997045" d="M563.967,524.319a1.057,1.057,0,0,1,.241-.471c.513-.45,4.249-.226,5.084-.182a20.734,20.734,0,0,1,.025,5.93c-1.026.073-4.451.26-5.2-.214a1.026,1.026,0,0,1-.131-.559C563.939,527.331,564.1,525.8,563.967,524.319Z" transform="translate(-437.676 -394.107)" fill="#fefefe"/>
    <path id="Trazado_997046" data-name="Trazado 997046" d="M591.965,527.049a.742.742,0,0,1,.329.144c.106.1-.1,4.09-.111,4.5l-.126.079C591.9,531.38,591.973,527.766,591.965,527.049Z" transform="translate(-460.996 -397.005)" fill="#d1d9ed"/>
    <path id="Trazado_997047" data-name="Trazado 997047" d="M564.1,552.885c.206-.1.248-.328.4-.371a9.726,9.726,0,0,1,3.149.193,1.319,1.319,0,0,1,.651.359c-.121.145-.189.132-.375.153-.988.111-2.883-.281-3.69.226A1.026,1.026,0,0,1,564.1,552.885Z" transform="translate(-437.785 -418.169)" fill="#d1d9ed"/>
  </g>
</svg>
