<svg xmlns="http://www.w3.org/2000/svg" width="169.706" height="169.705" viewBox="0 0 169.706 169.705">
  <g id="Grupo_1181044" data-name="Grupo 1181044" transform="translate(-1065.98 -3369.146)">
    <rect id="Rect치ngulo_402033" data-name="Rect치ngulo 402033" width="120" height="120" rx="30" transform="translate(1065.98 3453.999) rotate(-45)" fill="#ffd600"/>
    <rect id="Rect치ngulo_454167" data-name="Rect치ngulo 454167" width="100" height="100" rx="50" transform="translate(1100.833 3403.999)" fill="#c8bf57"/>
    <g id="Grupo_1181625" data-name="Grupo 1181625" transform="translate(1113.576 3417.239)">
      <g id="Grupo_1181623" data-name="Grupo 1181623" transform="translate(1.199 1.199)">
        <g id="Grupo_1181601" data-name="Grupo 1181601" transform="translate(51.048 33.576)">
          <path id="Trazado_1014251" data-name="Trazado 1014251" d="M59.675,36.195v4.8H52.48a2.4,2.4,0,0,0-2.4,2.4L47.311,42a9.852,9.852,0,0,0-3.741-1l1.715-.012v-4.8A7.2,7.2,0,0,1,52.48,29a7.206,7.206,0,0,1,7.195,7.195Z" transform="translate(-43.57 -29)" fill="#e6e9ed"/>
        </g>
        <g id="Grupo_1181602" data-name="Grupo 1181602" transform="translate(4.797 33.576)">
          <path id="Trazado_1014252" data-name="Trazado 1014252" d="M19.39,36.195v3.55a10.155,10.155,0,0,0-1.427.947l-3.37,2.7a2.4,2.4,0,0,0-2.4-2.4H5v-4.8A7.2,7.2,0,0,1,12.195,29a7.206,7.206,0,0,1,7.195,7.195Z" transform="translate(-5 -29)" fill="#e6e9ed"/>
        </g>
        <g id="Grupo_1181603" data-name="Grupo 1181603" transform="translate(48.05 9.593)">
          <path id="Trazado_1014253" data-name="Trazado 1014253" d="M45.783,18.593v2.4h-1.2A3.592,3.592,0,0,0,41.07,23.81c.276-1.691,1.115-2.075,1.115-4.425,0-2.134-.7-2.638-1.031-4.005v-.012A8,8,0,0,1,48.984,9h7.986a7.988,7.988,0,0,1,6.487,12.663,3.579,3.579,0,0,0-2.087-.672H60.161a4.647,4.647,0,0,0-.767-2.374l-.24-.348a4.659,4.659,0,0,0-5.96-1.583l-.6.3A15.251,15.251,0,0,1,45.783,18.593Z" transform="translate(-41.07 -9)" fill="#b27946"/>
        </g>
        <g id="Grupo_1181604" data-name="Grupo 1181604" transform="translate(22.784)">
          <path id="Trazado_1014254" data-name="Trazado 1014254" d="M34.39,24.983a6,6,0,0,0,6-6V12.344A3.6,3.6,0,0,0,37.5,8.818L34.39,8.183a5.967,5.967,0,0,1-4.8,2.41h-1.2a2.4,2.4,0,0,0-2.4,2.4v6a6,6,0,0,0,6,6h1.2a7.273,7.273,0,0,0-2.71.528A7.228,7.228,0,0,0,26,32.178H22.734a2.4,2.4,0,0,1-2.087-3.621,3.556,3.556,0,0,0,.552-1.979,2.311,2.311,0,0,0-.012-.288.332.332,0,0,0,.012-.108.264.264,0,0,0-.012-.1,1.849,1.849,0,0,0-.036-.444c-.012-.072-.024-.156-.036-.24C20.839,23.712,20,23.328,20,20.978c0-2.146.708-2.638,1.031-4.017v-.012A6.182,6.182,0,0,0,21.2,15.39v-2.4a11.992,11.992,0,0,1,23.983,0v2.4a6.285,6.285,0,0,0,.168,1.571v.012c.336,1.367,1.031,1.871,1.031,4.005,0,2.35-.839,2.734-1.115,4.425-.012.084-.024.168-.036.24a1.849,1.849,0,0,0-.036.444.264.264,0,0,0-.012.1.332.332,0,0,0,.012.108,2.311,2.311,0,0,0-.012.288,3.556,3.556,0,0,0,.552,1.979,2.4,2.4,0,0,1-2.087,3.621H40.386a7.188,7.188,0,0,0-7.195-7.195Z" transform="translate(-20 -1)" fill="#fcd770"/>
        </g>
        <g id="Grupo_1181605" data-name="Grupo 1181605" transform="translate(0 9.593)">
          <path id="Trazado_1014255" data-name="Trazado 1014255" d="M23.784,19.385c0,2.35.839,2.734,1.115,4.425a3.592,3.592,0,0,0-3.514-2.818h-1.2v-2.4a8.677,8.677,0,0,1-6.14-2.542L12.992,15l-1.055,1.055A8.677,8.677,0,0,1,5.8,18.593v2.4H4.6a3.607,3.607,0,0,0-2.47.983l-.719-2.146A8.275,8.275,0,0,1,1,17.3V17A7.989,7.989,0,0,1,9,9h7.986a7.991,7.991,0,0,1,7.83,6.356v.012C24.491,16.747,23.784,17.238,23.784,19.385Z" transform="translate(-1 -9)" fill="#b27946"/>
        </g>
        <g id="Grupo_1181606" data-name="Grupo 1181606" transform="translate(28.78 24.511)">
          <path id="Trazado_1014256" data-name="Trazado 1014256" d="M39.39,28.107V40.1H25V28.107a7.228,7.228,0,0,1,4.485-6.667,3.036,3.036,0,0,0-.288,1.271,3,3,0,1,0,6,0,3.036,3.036,0,0,0-.288-1.271A7.206,7.206,0,0,1,39.39,28.107Z" transform="translate(-25 -21.44)" fill="#ff826e"/>
        </g>
        <g id="Grupo_1181607" data-name="Grupo 1181607" transform="translate(57.559 45.568)">
          <path id="Trazado_1014257" data-name="Trazado 1014257" d="M63.39,39V62.983H51.4a2.4,2.4,0,0,1-2.4-2.4V41.4A2.4,2.4,0,0,1,51.4,39H63.39Z" transform="translate(-49 -39)" fill="#fcd770"/>
        </g>
        <g id="Grupo_1181608" data-name="Grupo 1181608" transform="translate(0 45.568)">
          <path id="Trazado_1014258" data-name="Trazado 1014258" d="M15.39,41.4V60.585a2.4,2.4,0,0,1-2.4,2.4H1V39H12.992A2.4,2.4,0,0,1,15.39,41.4Z" transform="translate(-1 -39)" fill="#4fc1e9"/>
        </g>
        <g id="Grupo_1181609" data-name="Grupo 1181609" transform="translate(44.369 64.754)">
          <path id="Trazado_1014259" data-name="Trazado 1014259" d="M42.8,57.4v2.4a2.4,2.4,0,1,1-4.8,0V57.4A2.4,2.4,0,0,1,40.4,55a2.416,2.416,0,0,1,2.4,2.4Z" transform="translate(-38 -55)" fill="#f0d0b4"/>
        </g>
        <g id="Grupo_1181610" data-name="Grupo 1181610" transform="translate(39.572 64.754)">
          <path id="Trazado_1014260" data-name="Trazado 1014260" d="M38.8,57.4v2.4a2.4,2.4,0,1,1-4.8,0V57.4A2.4,2.4,0,0,1,36.4,55a2.416,2.416,0,0,1,2.4,2.4Z" transform="translate(-34 -55)" fill="#f0d0b4"/>
        </g>
        <g id="Grupo_1181611" data-name="Grupo 1181611" transform="translate(34.776 64.754)">
          <path id="Trazado_1014261" data-name="Trazado 1014261" d="M34.8,57.4v2.4a2.4,2.4,0,1,1-4.8,0V57.4A2.4,2.4,0,0,1,32.4,55a2.416,2.416,0,0,1,2.4,2.4Z" transform="translate(-30 -55)" fill="#f0d0b4"/>
        </g>
        <g id="Grupo_1181612" data-name="Grupo 1181612" transform="translate(29.979 64.754)">
          <path id="Trazado_1014262" data-name="Trazado 1014262" d="M30.8,57.4v2.4a2.4,2.4,0,1,1-4.8,0v-2.47A2.407,2.407,0,0,1,28.4,55a2.416,2.416,0,0,1,2.4,2.4Z" transform="translate(-26 -55)" fill="#f0d0b4"/>
        </g>
        <g id="Grupo_1181613" data-name="Grupo 1181613" transform="translate(14.39 43.17)">
          <path id="Trazado_1014263" data-name="Trazado 1014263" d="M23.217,51.39a2.9,2.9,0,0,0-.624,1.8v.084a2.917,2.917,0,0,0,2.914,2.914.332.332,0,0,0,.108-.012v.012a2.9,2.9,0,0,0-.624,1.8v.084a2.917,2.917,0,0,0,2.914,2.914,3,3,0,0,0,.66-.072h.024v2.47H20.842a9.5,9.5,0,0,1-3.561-.684L13,60.983V41.8l3.37-2.7a10.155,10.155,0,0,1,1.427-.947A9.709,9.709,0,0,1,22.365,37H42.979a1.2,1.2,0,0,1,1.2,1.2,5.653,5.653,0,0,1-.132,1.2,5.565,5.565,0,0,1-5.432,4.353c-.132,0-.276,0-.42-.012L28.589,43l-6.643,2.842A2.9,2.9,0,0,0,20.195,48.5a2.907,2.907,0,0,0,2.89,2.89h.024a.332.332,0,0,0,.108-.012Z" transform="translate(-13 -37)" fill="#f0d0b4"/>
        </g>
        <g id="Grupo_1181614" data-name="Grupo 1181614" transform="translate(21.585 45.568)">
          <path id="Trazado_1014264" data-name="Trazado 1014264" d="M36.28,58.894a2.345,2.345,0,0,0-1.691-.708,2.4,2.4,0,0,0-2.4,2.4,2.416,2.416,0,0,0-2.4-2.4,2.407,2.407,0,0,0-2.4,2.326H27.37a3,3,0,0,1-.66.072A2.917,2.917,0,0,1,23.8,57.671v-.084a2.9,2.9,0,0,1,.624-1.8v-.012a.332.332,0,0,1-.108.012A2.917,2.917,0,0,1,21.4,52.874V52.79a2.9,2.9,0,0,1,.624-1.8V50.98a.332.332,0,0,1-.108.012H21.89A2.907,2.907,0,0,1,19,48.1a2.9,2.9,0,0,1,1.751-2.662L27.394,42.6,37,43.341c.144.012.288.012.42.012A5.565,5.565,0,0,0,42.851,39h5.06c.18,0,.372,0,.552.012a9.852,9.852,0,0,1,3.741,1l2.77,1.391V60.585l-1.175.791a9.673,9.673,0,0,1-5.324,1.607H46.581v-2.4a2.416,2.416,0,0,0-2.4-2.4,2.4,2.4,0,0,0-2.4,2.4,2.416,2.416,0,0,0-2.4-2.4,2.4,2.4,0,0,0-2.4,2.4,2.345,2.345,0,0,0-.707-1.691Z" transform="translate(-19 -39)" fill="#f0d0b4"/>
        </g>
        <g id="Grupo_1181615" data-name="Grupo 1181615" transform="translate(67.033 21.585)">
          <path id="Trazado_1014265" data-name="Trazado 1014265" d="M58.219,19a3.6,3.6,0,0,1,0,7.195H56.9a5.65,5.65,0,0,0,.12-1.2v-5.78A1.3,1.3,0,0,0,57.008,19h1.211Z" transform="translate(-56.9 -19)" fill="#f0d0b4"/>
        </g>
        <g id="Grupo_1181616" data-name="Grupo 1181616" transform="translate(52.763 16.788)">
          <path id="Trazado_1014266" data-name="Trazado 1014266" d="M59.39,20.012v5.78a5.65,5.65,0,0,1-.12,1.2,6,6,0,0,1-5.876,4.8H51a6,6,0,0,1-5.876-4.8,5.651,5.651,0,0,1-.12-1.2V17.4a15.251,15.251,0,0,0,6.811-1.607l.6-.3a4.659,4.659,0,0,1,5.96,1.583l.24.348a4.647,4.647,0,0,1,.767,2.374A1.3,1.3,0,0,1,59.39,20.012Z" transform="translate(-45 -15)" fill="#f0d0b4"/>
        </g>
        <g id="Grupo_1181617" data-name="Grupo 1181617" transform="translate(47.978 21.585)">
          <path id="Trazado_1014267" data-name="Trazado 1014267" d="M45.915,26.195H44.6a3.589,3.589,0,0,1-2.542-1.055,3.641,3.641,0,0,1-1.043-2.434v-.2c.012-.156.024-.3.036-.444.012-.072.024-.156.036-.24A3.592,3.592,0,0,1,44.6,19h1.2v6a5.651,5.651,0,0,0,.12,1.2Z" transform="translate(-41.01 -19)" fill="#f0d0b4"/>
        </g>
        <g id="Grupo_1181618" data-name="Grupo 1181618" transform="translate(32.977 23.983)">
          <path id="Trazado_1014268" data-name="Trazado 1014268" d="M34.208,21.528A3.036,3.036,0,0,1,34.5,22.8a3,3,0,1,1-6,0,3.036,3.036,0,0,1,.288-1.271,7.224,7.224,0,0,1,5.42,0Z" transform="translate(-28.5 -21)" fill="#f0d0b4"/>
        </g>
        <g id="Grupo_1181619" data-name="Grupo 1181619" transform="translate(28.78 7.183)">
          <path id="Trazado_1014269" data-name="Trazado 1014269" d="M39.39,11.151v6.643a6,6,0,0,1-6,6H31a6,6,0,0,1-6-6v-6a2.4,2.4,0,0,1,2.4-2.4h1.2a5.967,5.967,0,0,0,4.8-2.41l3.106.636a3.6,3.6,0,0,1,2.89,3.526Z" transform="translate(-25 -6.99)" fill="#f0d0b4"/>
        </g>
        <g id="Grupo_1181620" data-name="Grupo 1181620" transform="translate(19.067 21.585)">
          <path id="Trazado_1014270" data-name="Trazado 1014270" d="M21.8,22.5v.2a3.641,3.641,0,0,1-1.043,2.434,3.589,3.589,0,0,1-2.542,1.055H16.9a5.651,5.651,0,0,0,.12-1.2V19h1.2a3.592,3.592,0,0,1,3.514,2.818c.012.084.024.168.036.24.012.144.024.288.036.444Z" transform="translate(-16.9 -19)" fill="#f0d0b4"/>
        </g>
        <g id="Grupo_1181621" data-name="Grupo 1181621" transform="translate(4.797 15.589)">
          <path id="Trazado_1014271" data-name="Trazado 1014271" d="M19.39,20v6a5.651,5.651,0,0,1-.12,1.2,6,6,0,0,1-5.876,4.8H11a6,6,0,0,1-5.876-4.8,5.651,5.651,0,0,1-.12-1.2V17.6a8.677,8.677,0,0,0,6.14-2.542L12.195,14l1.055,1.055A8.677,8.677,0,0,0,19.39,17.6Z" transform="translate(-5 -14)" fill="#f0d0b4"/>
        </g>
        <g id="Grupo_1181622" data-name="Grupo 1181622" transform="translate(0 21.585)">
          <path id="Trazado_1014272" data-name="Trazado 1014272" d="M5.917,26.195H4.6A3.6,3.6,0,0,1,4.6,19H5.8v6A5.651,5.651,0,0,0,5.917,26.195Z" transform="translate(-1 -19)" fill="#f0d0b4"/>
        </g>
      </g>
      <g id="Grupo_1181624" data-name="Grupo 1181624" transform="translate(0)">
        <path id="Trazado_1014273" data-name="Trazado 1014273" d="M15.195,23H12.8a1.2,1.2,0,0,1-2.4,0H8a3.6,3.6,0,1,0,7.195,0Z" transform="translate(1.593 4.581)"/>
        <path id="Trazado_1014274" data-name="Trazado 1014274" d="M35.195,15H32.8a1.2,1.2,0,1,1-2.4,0H28a3.6,3.6,0,1,0,7.195,0Z" transform="translate(5.576 2.987)"/>
        <path id="Trazado_1014275" data-name="Trazado 1014275" d="M69.131,31.178h.42a4.8,4.8,0,0,0,4.8-4.8,4.753,4.753,0,0,0-1.186-3.123A9.158,9.158,0,0,0,65.154,9.593H57.159a9.208,9.208,0,0,0-6.823,3.047,13.173,13.173,0,0,0-26.325,0,9.21,9.21,0,0,0-6.823-3.047H9.194A9.2,9.2,0,0,0,0,18.787v.3A9.158,9.158,0,0,0,.472,22l.5,1.516A4.744,4.744,0,0,0,0,26.381a4.8,4.8,0,0,0,4.8,4.8h.42a7.224,7.224,0,0,0,3.245,3.864A8.389,8.389,0,0,0,4.8,41.97v3.6H0V71.949H13.191a3.587,3.587,0,0,0,3.2-1.986l3.035,1.214a10.758,10.758,0,0,0,4.009.772H30.2a3.564,3.564,0,0,0,5.775,1.463,3.542,3.542,0,0,0,4.8,0,3.542,3.542,0,0,0,4.8,0,3.564,3.564,0,0,0,5.775-1.463h.914a10.749,10.749,0,0,0,5.841-1.73,3.581,3.581,0,0,0,3.058,1.73H74.348V45.568h-4.8v-3.6a8.389,8.389,0,0,0-3.665-6.929,7.224,7.224,0,0,0,3.245-3.864Zm.42-2.4v-4.8a2.4,2.4,0,0,1,0,4.8ZM52.763,45.63c-.355-.035-.71-.062-1.066-.062H47.966a2.4,2.4,0,0,0-2.4-2.4V33.576h2.067a3.656,3.656,0,0,0,3.209-1.917,3.606,3.606,0,0,0,.3-.782,4.734,4.734,0,0,0,1.616.3h.42a7.224,7.224,0,0,0,3.245,3.864,8.389,8.389,0,0,0-3.665,6.929ZM21.585,23.983A2.4,2.4,0,0,1,23.9,25.8a5.8,5.8,0,0,1,.065.713,2.393,2.393,0,0,1-2.384,2.264Zm-.42,7.195h.42a4.762,4.762,0,0,0,1.616-.3,3.594,3.594,0,0,0,3.511,2.7H28.78V43.17H24.95a10.766,10.766,0,0,0-3.365.548V41.97a8.389,8.389,0,0,0-3.665-6.929,7.224,7.224,0,0,0,3.245-3.864Zm14.81-7.195a4.8,4.8,0,0,1-4.8-4.8v-6a1.2,1.2,0,0,1,1.2-1.2h1.2A7.178,7.178,0,0,0,38.836,9.7l2.409.486a2.4,2.4,0,0,1,1.925,2.35v6.648a4.8,4.8,0,0,1-4.8,4.8Zm3,3a1.8,1.8,0,0,1-3.6,0,1.756,1.756,0,0,1,.035-.3,5.421,5.421,0,0,1,3.528,0A1.756,1.756,0,0,1,38.973,26.981Zm-5.858,1.012a4.179,4.179,0,0,0,8.118,0,5.958,5.958,0,0,1,1.937,4.384V43.17H31.178V32.377a5.958,5.958,0,0,1,1.937-4.384Zm19.648.787a2.4,2.4,0,0,1-2.385-2.264,5.778,5.778,0,0,1,.065-.713,2.4,2.4,0,0,1,2.32-1.819ZM26.381,13.191a10.792,10.792,0,0,1,21.585,0v2.4a7.268,7.268,0,0,0,.7,3.269,4.956,4.956,0,0,1,.5,2.325,4.957,4.957,0,0,1-.5,2.326,7.62,7.62,0,0,0-.585,1.865c-.012.054-.016.109-.025.164-.03.212-.055.438-.07.688,0,.052-.017.1-.017.155,0,.03.008.058.008.088,0,.1-.008.2-.008.311a4.627,4.627,0,0,0,.748,2.625,1.069,1.069,0,0,1,.024,1.107,1.266,1.266,0,0,1-1.1.667H45.472a8.4,8.4,0,0,0-3.569-5.73,7.2,7.2,0,0,0,3.665-6.262V12.538a4.811,4.811,0,0,0-3.849-4.7l-1.489-.3a7.162,7.162,0,0,0,.542-2.74h-2.4a4.8,4.8,0,0,1-4.8,4.8h-1.2a3.6,3.6,0,0,0-3.6,3.6v6a7.2,7.2,0,0,0,3.665,6.262,8.4,8.4,0,0,0-3.569,5.73H26.714a1.263,1.263,0,0,1-1.1-.666,1.066,1.066,0,0,1,.024-1.107,4.648,4.648,0,0,0,.746-2.626c0-.11-.006-.207-.008-.311,0-.03.008-.058.008-.088,0-.053-.014-.1-.016-.156-.014-.249-.04-.475-.07-.688-.01-.054-.014-.11-.025-.164a7.637,7.637,0,0,0-.585-1.865,4.939,4.939,0,0,1-.5-2.325,4.946,4.946,0,0,1,.5-2.324,7.278,7.278,0,0,0,.7-3.27ZM2.4,26.381a2.4,2.4,0,0,1,2.4-2.4v4.8A2.4,2.4,0,0,1,2.4,26.381ZM6,19.186H4.8v2.4a4.78,4.78,0,0,0-1.813.361l-.236-.709A6.784,6.784,0,0,1,2.4,19.088v-.3a6.8,6.8,0,0,1,6.8-6.8h7.995a6.807,6.807,0,0,1,6.58,5.164,7.965,7.965,0,0,1-.287.758,7.251,7.251,0,0,0-.7,3.27c0,.2.006.4.017.578a4.691,4.691,0,0,0-1.216-.176v-2.4h-1.2a7.437,7.437,0,0,1-5.293-2.192l-1.9-1.9-1.9,1.9A7.437,7.437,0,0,1,6,19.186Zm6,14.39a4.8,4.8,0,0,1-4.8-4.8V21.513a9.809,9.809,0,0,0,5.79-2.823l.206-.206.206.206a9.809,9.809,0,0,0,5.79,2.823V28.78a4.8,4.8,0,0,1-4.8,4.8Zm-4.8,8.394a6,6,0,0,1,11.992,0v2.877a10.554,10.554,0,0,0-.979.687L16.175,47.16a3.6,3.6,0,0,0-2.985-1.592h-6ZM14.39,68.352a1.2,1.2,0,0,1-1.2,1.2H2.4V47.966H13.191a1.2,1.2,0,0,1,1.2,1.2Zm5.925.6-3.527-1.41v-17.8l2.918-2.335a8.432,8.432,0,0,1,5.244-1.838H45.568a4.354,4.354,0,0,1-4.687,4.341l-9.9-.763-6.913,2.963a4.085,4.085,0,0,0,.044,7.531,4.442,4.442,0,0,0-.125,1,4.117,4.117,0,0,0,2.523,3.791,4.5,4.5,0,0,0-.125,1.006,4.1,4.1,0,0,0,3.6,4.058v.052H23.433a8.341,8.341,0,0,1-3.118-.6Zm13.261,3a1.2,1.2,0,0,1-1.2-1.2v-2.4a1.2,1.2,0,0,1,2.4,0v2.4A1.2,1.2,0,0,1,33.576,71.949Zm4.8,0a1.2,1.2,0,0,1-1.2-1.2v-2.4a1.2,1.2,0,0,1,2.4,0v2.4A1.2,1.2,0,0,1,38.373,71.949Zm4.8,0a1.2,1.2,0,0,1-1.2-1.2v-2.4a1.2,1.2,0,0,1,2.4,0v2.4A1.2,1.2,0,0,1,43.17,71.949Zm6-1.2a1.2,1.2,0,0,1-2.4,0v-2.4a1.2,1.2,0,0,1,2.4,0Zm3.091-1.2h-.693v-1.2a3.582,3.582,0,0,0-6-2.662,3.542,3.542,0,0,0-4.8,0,3.542,3.542,0,0,0-4.8,0,3.566,3.566,0,0,0-5.763,1.425,1.768,1.768,0,0,1-1.432-1.76,1.7,1.7,0,0,1,.171-.7,4.145,4.145,0,0,0,.98-.333l6.58-3.29-1.073-2.145-6.58,3.29a1.713,1.713,0,0,1-.765.181,1.734,1.734,0,0,1-1.711-1.8,1.7,1.7,0,0,1,.171-.7,4.11,4.11,0,0,0,.98-.333l6.58-3.29-1.073-2.145-6.58,3.29a1.734,1.734,0,0,1-.784.181,1.691,1.691,0,0,1-.667-3.246l6.371-2.73L40.7,52.3a6.717,6.717,0,0,0,6.818-4.334H51.7a8.422,8.422,0,0,1,3.753.886l2.108,1.054v17.8l-.646.43a8.372,8.372,0,0,1-4.656,1.41Zm19.693,0H61.157a1.2,1.2,0,0,1-1.2-1.2V49.165a1.2,1.2,0,0,1,1.2-1.2H71.949Zm-4.8-27.581v3.6h-6a3.584,3.584,0,0,0-3.143,1.884l-1.489-.745a10.674,10.674,0,0,0-1.362-.556V41.97a6,6,0,1,1,11.99,0Zm0-13.191a4.8,4.8,0,0,1-4.8,4.8h-2.4a4.8,4.8,0,0,1-4.8-4.8V21.54a16.553,16.553,0,0,0,6.152-1.691l.595-.3a3.545,3.545,0,0,1,4.433,1.176l.23.345A3.463,3.463,0,0,1,67.153,23Zm-3.7-11.992a5.893,5.893,0,0,0-2.623.619l-.595.3a14.1,14.1,0,0,1-6.278,1.482h-1.2v2.4a4.742,4.742,0,0,0-1.216.175c.011-.181.017-.373.017-.577a7.274,7.274,0,0,0-.7-3.27,7.963,7.963,0,0,1-.287-.758,6.8,6.8,0,0,1,6.58-5.164h7.995a6.79,6.79,0,0,1,6.039,9.9,4.709,4.709,0,0,0-1.643-.309h-.187a5.836,5.836,0,0,0-.8-1.84l-.23-.347a5.849,5.849,0,0,0-4.878-2.611Z" transform="translate(0)"/>
        <path id="Trazado_1014276" data-name="Trazado 1014276" d="M51.6,24.2A1.2,1.2,0,0,1,50.4,23H48a3.6,3.6,0,1,0,7.195,0H52.8A1.2,1.2,0,0,1,51.6,24.2Z" transform="translate(9.559 4.581)"/>
      </g>
    </g>
  </g>
</svg>
