<svg xmlns="http://www.w3.org/2000/svg" width="169.706" height="169.706" viewBox="0 0 169.706 169.706">
  <g id="Grupo_1181041" data-name="Grupo 1181041" transform="translate(-714.98 -3369.146)">
    <rect id="Rect치ngulo_402033" data-name="Rect치ngulo 402033" width="120" height="120" rx="30" transform="translate(714.98 3453.999) rotate(-45)" fill="#ffd600"/>
    <rect id="Rect치ngulo_454167" data-name="Rect치ngulo 454167" width="100" height="100" rx="50" transform="translate(749.833 3403.999)" fill="#c8bf57"/>
    <g id="Grupo_1181599" data-name="Grupo 1181599" transform="translate(761.533 3368.853)">
      <g id="Grupo_1181600" data-name="Grupo 1181600" transform="translate(1.139 56.208)">
        <path id="Trazado_1014238" data-name="Trazado 1014238" d="M18.456,98l2.753,4.483,5.127,1.238a1.186,1.186,0,0,1,.874,1.433,1.172,1.172,0,0,1-.25.5l-3.418,4.012.407,5.263a1.186,1.186,0,0,1-1.713,1.158l-4.805-1.981-4.877,2.015a1.2,1.2,0,0,1-1.641-1.192l.407-5.263L7.9,105.655a1.192,1.192,0,0,1,.67-1.942l5.081-1.226,2.765-4.5a1.194,1.194,0,0,1,2.04.017Zm52.658.009L68.357,102.5l-5.123,1.238a1.188,1.188,0,0,0-.878,1.433,1.232,1.232,0,0,0,.254.5l3.418,4.012-.411,5.268a1.2,1.2,0,0,0,1.1,1.276,1.165,1.165,0,0,0,.615-.123l4.805-1.981,4.878,2.015a1.191,1.191,0,0,0,1.552-.649,1.237,1.237,0,0,0,.089-.539l-.411-5.268,3.422-4.012a1.194,1.194,0,0,0-.132-1.68,1.252,1.252,0,0,0-.539-.263L75.919,102.5,73.154,98a1.192,1.192,0,0,0-1.641-.394A1.178,1.178,0,0,0,71.114,98.013Z" transform="translate(-7.614 -92.207)" fill="#ebb044"/>
        <path id="Trazado_1014239" data-name="Trazado 1014239" d="M42.454,187.171l.221,2.846a1.186,1.186,0,0,1-1.713,1.158l-4.805-1.981-4.878,2.015a1.2,1.2,0,0,1-1.641-1.192l.221-2.85a1.193,1.193,0,0,0,1.421.411l4.118-1.7a1.927,1.927,0,0,1,1.518,0l4.046,1.671a1.154,1.154,0,0,0,.615.119A1.185,1.185,0,0,0,42.454,187.171Zm42.11.009-.221,2.85a1.2,1.2,0,0,0,1.1,1.276,1.165,1.165,0,0,0,.615-.123l4.805-1.981,4.878,2.015a1.191,1.191,0,0,0,1.552-.649,1.237,1.237,0,0,0,.089-.539l-.221-2.85a1.2,1.2,0,0,1-1.421.407l-3.982-1.646a2.291,2.291,0,0,0-1.794,0l-3.906,1.612a1.184,1.184,0,0,1-1.5-.373Z" transform="translate(-26.339 -167.294)" fill="#ff9838"/>
        <path id="Trazado_1014240" data-name="Trazado 1014240" d="M82.379,83.191l3.541,5.768,6.595,1.595a1.533,1.533,0,0,1,.806,2.481l-4.4,5.161.526,6.777a1.53,1.53,0,0,1-1.412,1.641,1.556,1.556,0,0,1-.793-.153l-6.179-2.553L74.779,106.5a1.534,1.534,0,0,1-2.108-1.527L73.2,98.2l-4.4-5.161a1.534,1.534,0,0,1,.865-2.5l6.536-1.578,3.554-5.789a1.535,1.535,0,0,1,2.112-.5A1.488,1.488,0,0,1,82.379,83.191Zm28.246.009-3.546,5.772-6.595,1.59a1.527,1.527,0,0,0-1.124,1.845,1.51,1.51,0,0,0,.322.636l4.4,5.161-.526,6.777a1.533,1.533,0,0,0,1.417,1.641,1.515,1.515,0,0,0,.793-.153l6.179-2.553,6.277,2.591a1.529,1.529,0,0,0,2-.831,1.562,1.562,0,0,0,.115-.7l-.526-6.777,4.4-5.161a1.532,1.532,0,0,0-.861-2.5l-6.536-1.573-3.559-5.789a1.536,1.536,0,0,0-2.625.017Z" transform="translate(-59.33 -79.468)" fill="#ffd064"/>
        <path id="Trazado_1014241" data-name="Trazado 1014241" d="M113.32,204.551l.212,2.736a1.53,1.53,0,0,1-1.412,1.641,1.556,1.556,0,0,1-.793-.153l-6.179-2.553-6.281,2.591a1.534,1.534,0,0,1-2.108-1.527l.212-2.74a1.528,1.528,0,0,0,1.9.636l5.5-2.273a2.021,2.021,0,0,1,1.556,0l5.4,2.235a1.556,1.556,0,0,0,.793.153,1.522,1.522,0,0,0,1.2-.746Zm14.534.013-.212,2.731a1.533,1.533,0,0,0,1.417,1.641,1.515,1.515,0,0,0,.793-.153l6.179-2.553,6.277,2.591a1.529,1.529,0,0,0,2-.831,1.562,1.562,0,0,0,.115-.7l-.212-2.74a1.533,1.533,0,0,1-1.9.636l-5.522-2.282a1.961,1.961,0,0,0-1.51,0l-5.424,2.244a1.541,1.541,0,0,1-2-.589Z" transform="translate(-83.418 -181.781)" fill="#ffc250"/>
        <g id="Grupo_1181599-2" data-name="Grupo 1181599" transform="translate(0.267 28.751)">
          <path id="Trazado_1014242" data-name="Trazado 1014242" d="M63.581,274.5a74.049,74.049,0,0,1,18.962-4.712.622.622,0,0,0,.543-.929L80.5,262.97a1.861,1.861,0,0,1,0-1.59l2.583-5.882c.225-.5-.009-.806-.551-.746a74.516,74.516,0,0,0-18.949,4.708Zm-34.6,0a74.126,74.126,0,0,0-18.966-4.712.619.619,0,0,1-.539-.929l2.583-5.887a1.878,1.878,0,0,0,0-1.59L9.481,255.5c-.221-.5.013-.806.551-.746a74.554,74.554,0,0,1,18.954,4.708Z" transform="translate(-9.399 -254.743)" fill="#d82e3d" fill-rule="evenodd"/>
          <path id="Trazado_1014243" data-name="Trazado 1014243" d="M63.625,339.748a74.051,74.051,0,0,1,18.962-4.712.622.622,0,0,0,.543-.929l-1.158-2.634a74.31,74.31,0,0,0-18.347,4.644Zm-34.6,0a74.127,74.127,0,0,0-18.966-4.712.619.619,0,0,1-.539-.929l1.154-2.634a74.387,74.387,0,0,1,18.351,4.644v3.63Z" transform="translate(-9.442 -319.994)" fill="#c32430" fill-rule="evenodd"/>
          <path id="Trazado_1014244" data-name="Trazado 1014244" d="M371.554,293.435v-7.176c3.015.768,6.031,1.641,9.042,4.262A76.921,76.921,0,0,1,371.554,293.435Z" transform="translate(-317.371 -281.544)" fill="#a71f29" fill-rule="evenodd"/>
          <path id="Trazado_1014245" data-name="Trazado 1014245" d="M88.9,293.435v-7.176c-3.015.768-6.031,1.641-9.046,4.262A77.244,77.244,0,0,0,88.9,293.435Z" transform="translate(-69.316 -281.544)" fill="#a71f29" fill-rule="evenodd"/>
          <path id="Trazado_1014246" data-name="Trazado 1014246" d="M79.857,314.749a70.429,70.429,0,0,0,52.684,0v14.165a1.277,1.277,0,0,1-.852,1.2,70.263,70.263,0,0,1-50.974,0,1.255,1.255,0,0,1-.857-1.2Z" transform="translate(-69.316 -305.771)" fill="#dd636e" fill-rule="evenodd"/>
          <path id="Trazado_1014247" data-name="Trazado 1014247" d="M132.539,385.222v3.6a1.276,1.276,0,0,1-.853,1.2,70.263,70.263,0,0,1-50.974,0,1.255,1.255,0,0,1-.857-1.2v-3.631a1.255,1.255,0,0,0,.857,1.2,70.262,70.262,0,0,0,50.974,0A1.268,1.268,0,0,0,132.539,385.222Z" transform="translate(-69.315 -365.675)" fill="#da4a54" fill-rule="evenodd"/>
        </g>
        <path id="Trazado_1014248" data-name="Trazado 1014248" d="M164.412,63.55l4.606,7.494,8.563,2.065a1.989,1.989,0,0,1,1.043,3.223l-5.713,6.705.683,8.8a1.992,1.992,0,0,1-2.867,1.934L162.7,90.455l-8.151,3.367a1.987,1.987,0,0,1-2.591-1.081,1.942,1.942,0,0,1-.148-.9l.683-8.8-5.713-6.705a1.984,1.984,0,0,1,.216-2.8,1.952,1.952,0,0,1,.9-.437l8.487-2.048L161,63.524a1.991,1.991,0,0,1,2.74-.653,1.935,1.935,0,0,1,.67.679Z" transform="translate(-125.549 -62.575)" fill="#fff0af"/>
        <path id="Trazado_1014249" data-name="Trazado 1014249" d="M204.676,228.134l.2,2.6a1.992,1.992,0,0,1-2.867,1.934l-8.028-3.317-8.151,3.367a1.987,1.987,0,0,1-2.591-1.081,1.942,1.942,0,0,1-.148-.9l.2-2.608a1.99,1.99,0,0,0,2.54.963l7.24-2.99a2.272,2.272,0,0,1,1.824,0l7.117,2.939a2.007,2.007,0,0,0,1.031.2A1.985,1.985,0,0,0,204.676,228.134Z" transform="translate(-156.834 -201.471)" fill="#ffe07d"/>
      </g>
      <path id="Trazado_1014250" data-name="Trazado 1014250" d="M35.515,84.024a1.119,1.119,0,0,1,.852,2.07l-5.806,2.4a3.092,3.092,0,0,1-2.375,0,3.136,3.136,0,0,1-1.908-3.1l.161-2.053-3.571-1.476-5.853,2.417a2.624,2.624,0,0,1-2.027,0,2.673,2.673,0,0,1-1.629-2.642l.1-1.277-2.506-1.035L6.5,81.157a2.3,2.3,0,0,1-1.76,0,2.33,2.33,0,0,1-1.421-2.3l.373-4.809L.577,70.38a2.307,2.307,0,0,1,1.34-3.775l4.542-1.094L8.983,61.4a2.315,2.315,0,0,1,3.953.017l2.333,3.791,2.019-.488,3.317-5.4a2.658,2.658,0,0,1,4.538.021l3.122,5.077,2.994-.725,4.381-7.125a3.111,3.111,0,0,1,5.34.06L45.321,63.7l3.037.734,3.122-5.077a2.658,2.658,0,0,1,4.538-.021l3.317,5.4,2.019.488,2.329-3.792A2.32,2.32,0,0,1,66.2,60.371a2.292,2.292,0,0,1,1.433,1.039l2.528,4.11L74.7,66.614a2.406,2.406,0,0,1,1.892,2.1,2.308,2.308,0,0,1-.551,1.675l-3.117,3.66.373,4.809a2.327,2.327,0,0,1-1.417,2.3,2.291,2.291,0,0,1-1.764,0l-4.453-1.841L63.159,80.36l.1,1.277a2.67,2.67,0,0,1-1.624,2.642,2.624,2.624,0,0,1-2.027,0l-5.853-2.417-3.609,1.493.157,2.027a3.109,3.109,0,0,1-4.453,3.032l-5.632-2.324a1.119,1.119,0,1,1,.852-2.07L46.7,86.352c.619.229,1.434.123,1.362-.8l-.683-8.8a1.133,1.133,0,0,1,.267-.814l5.717-6.7a.873.873,0,0,0-.458-1.408q-4.262-1.031-8.52-2.057a1.115,1.115,0,0,1-.738-.518L39.073,57.8a.872.872,0,0,0-1.527-.059l-4.619,7.515a1.1,1.1,0,0,1-.692.5q-4.2,1.018-8.4,2.027c-.623.2-1.225.738-.619,1.45L28.891,75.9a1.105,1.105,0,0,1,.306.857l-.683,8.8a.874.874,0,0,0,1.2.865Zm2.752,16.146a72.731,72.731,0,0,1-25.2-4.614v2.7a77.751,77.751,0,0,0,7.46,2.4,70.586,70.586,0,0,0,8.2,1.671,1.12,1.12,0,1,1-.318,2.218,72.613,72.613,0,0,1-8.448-1.726q-3.448-.916-6.892-2.18v2.693q2.5.954,5,1.7,2.818.859,5.726,1.484a1.122,1.122,0,0,1-.475,2.193q-2.914-.63-5.9-1.535-2.182-.662-4.347-1.459v2.485a71.026,71.026,0,0,0,25.218,4.763,70.876,70.876,0,0,0,25.222-4.759v-2.49q-2.169.8-4.351,1.459-2.984.9-5.9,1.535a1.121,1.121,0,1,1-.471-2.193q2.9-.63,5.721-1.484,2.494-.751,5-1.7v-2.693q-3.448,1.266-6.892,2.18a72.706,72.706,0,0,1-8.452,1.726,1.12,1.12,0,0,1-.314-2.218,70.694,70.694,0,0,0,8.194-1.671,78.228,78.228,0,0,0,7.465-2.4v-2.7a72.976,72.976,0,0,1-25.244,4.614Zm16.2-4.2V89.673a1.122,1.122,0,0,1,.806-1.077,79.827,79.827,0,0,1,9.992-3.138,71.89,71.89,0,0,1,10.052-1.7,1.119,1.119,0,0,1,1.17,1.556l-3.1,7.07,3.1,7.074a1.117,1.117,0,0,1-.92,1.561c-.4.038-.874.089-1.416.153-.522.059-1,.119-1.421.178a1.119,1.119,0,0,1-.3-2.218c.509-.072.971-.132,1.391-.178l-2.689-6.12a1.132,1.132,0,0,1,0-.895L73.656,86.2a69.133,69.133,0,0,0-7.867,1.438q-3.3.8-6.6,1.917a18.227,18.227,0,0,1,6.175,3.541,1.152,1.152,0,0,1,.39.852v6.43q.8-.184,1.591-.356a1.12,1.12,0,0,1,.454,2.193c-.445.093-.912.2-1.391.31-.208.051-.428.1-.653.157v6.3a1.126,1.126,0,0,1-.806,1.077,73.33,73.33,0,0,1-26.66,5.149,73.554,73.554,0,0,1-26.745-5.183,1.124,1.124,0,0,1-.721-1.043v-6.3q-2.258-.547-4.521-.942-2.672-.464-5.289-.712A1.123,1.123,0,0,1,0,99.805a1.138,1.138,0,0,1,.089-.343l3.1-7.074-3.1-7.07a1.122,1.122,0,0,1,1.175-1.556c1.255.123,2.485.271,3.681.449q1.819.274,3.728.662a1.119,1.119,0,1,1-.445,2.193c-1.175-.242-2.375-.454-3.609-.636-.573-.085-1.141-.165-1.7-.233l2.523,5.747a1.113,1.113,0,0,1,0,.895l-2.685,6.12q1.972.229,3.919.568c1.383.242,2.765.522,4.144.848V93.936a1.113,1.113,0,0,1,.462-.9,18.164,18.164,0,0,1,6.1-3.482q-2.125-.725-4.288-1.319a1.119,1.119,0,0,1,.594-2.159c1.268.352,2.549.742,3.851,1.175,1.272.42,2.523.869,3.762,1.349a1.122,1.122,0,0,1,.806,1.077v6.3a67.894,67.894,0,0,0,32.351-.009Zm7.889-2.375a18.849,18.849,0,0,0-5.645-2.464v4.258Q59.533,94.61,62.353,93.592Zm-42.484,1.8V91.128A18.754,18.754,0,0,0,14.225,93.6Q17.043,94.614,19.87,95.395ZM13.644,78.006l.208-2.7L9.754,70.5a2.645,2.645,0,0,1,.288-3.737,2.684,2.684,0,0,1,.564-.369,3.224,3.224,0,0,1,.683-.225l1.684-.407L11.04,62.615c-.055-.089-.1-.119-.17,0L8.13,67.077a1.123,1.123,0,0,1-.691.5l-5,1.2c-.216.068-.259.034-.059.271L5.657,72.9a1.117,1.117,0,0,1,.305.852l-.4,5.2c-.013.161.017.174.174.11l4.8-1.981a1.09,1.09,0,0,1,.848,0Zm50-12.236,1.684.407a2.752,2.752,0,0,1,2.163,2.409,2.625,2.625,0,0,1-.628,1.921l-4.1,4.809.208,2.7,2.26-.933a1.1,1.1,0,0,1,.853,0l4.843,2c.115.051.136,0,.127-.1l-.4-5.217a1.106,1.106,0,0,1,.305-.857l3.278-3.851c.208-.237.127-.2-.064-.263l-5-1.2a1.109,1.109,0,0,1-.691-.5l-2.748-4.466c-.072-.119-.115-.072-.161.009ZM58.354,66.8a1.13,1.13,0,0,1-.7-.5l-3.529-5.747c-.225-.365-.572-.3-.768.021l-2.71,4.415,2.693.649a3.42,3.42,0,0,1,2.01,1.421,3.115,3.115,0,0,1-.288,3.639l-5.412,6.349.305,3.97,3.367-1.391a1.129,1.129,0,0,1,.848,0l6.281,2.591c.344.144.585-.14.56-.479L60.5,75.029a1.137,1.137,0,0,1,.305-.857l4.364-5.119c.327-.377-.068-.607-.36-.7q-3.225-.776-6.451-1.557ZM11.816,68.345c-.3.1-.687.318-.36.7l4.36,5.119a1.106,1.106,0,0,1,.305.857l-.526,6.773a.415.415,0,0,0,.568.411l6.277-2.591a1.1,1.1,0,0,1,.852,0l3.329,1.374.305-3.944-5.361-6.29a3.115,3.115,0,0,1-.789-2.32,3.209,3.209,0,0,1,2.532-2.816l2.659-.645L23.25,60.554a.414.414,0,0,0-.734-.055l-3.558,5.789a1.123,1.123,0,0,1-.691.5Q15.041,67.564,11.816,68.345Z" transform="translate(0)"/>
    </g>
  </g>
</svg>
