<svg xmlns="http://www.w3.org/2000/svg" width="38.771" height="33.793" viewBox="0 0 38.771 33.793">
  <g id="Grupo_1176804" data-name="Grupo 1176804" transform="translate(-906.5 -469.207)">
    <g id="Grupo_1176800" data-name="Grupo 1176800" transform="translate(8269.5 16778.09)">
      <path id="Trazado_988515" data-name="Trazado 988515" d="M18.023,296.941c-.329-10.588-.821-21.185-.831-31.777a.94.94,0,1,1,1.856.072c.385,8.862.818,17.725.982,26.6.036,1.647.052,3.3.09,4.944a1.052,1.052,0,1,1-2.1.166" transform="translate(-7363 -16573)" fill="#fff"/>
      <path id="Trazado_988516" data-name="Trazado 988516" d="M.775,282.657a.8.8,0,0,1-.646-1.221c.344-.457.993-.457,1.5-.6,4.715-.98,9.446-1.879,14.152-2.9,3.829-.82,7.624-1.809,11.488-2.455,3.476-.6,7.006-.7,10.513-1.032a.93.93,0,0,1,.147,1.853,182.607,182.607,0,0,0-21.609,3.313c-5.167,1.047-10.486,1.655-15.547,3.041" transform="translate(-7363 -16573)" fill="#fff"/>
      <path id="Trazado_988517" data-name="Trazado 988517" d="M7.679,294.236a.952.952,0,0,1-.265-1.308c1.151-1.661,2.309-3.319,3.526-4.932,4.918-6.283,9.867-12.547,14.392-19.125.616-.882,1.237-1.759,1.874-2.627.286-.389.613-.929,1.121-1.039a.85.85,0,0,1,.883,1.29,24.561,24.561,0,0,0-1.884,2.625c-3.66,5.558-7.7,10.867-11.724,16.162-1.731,2.276-3.483,4.536-5.224,6.8-.474.623-.939,1.25-1.391,1.888a.954.954,0,0,1-1.308.265" transform="translate(-7363 -16573)" fill="#fff"/>
      <path id="Trazado_988518" data-name="Trazado 988518" d="M29.955,291.656c-4.372-4.341-9.216-8.144-13.688-12.375-1.478-1.434-2.906-2.911-4.328-4.32-1.716-1.718-3.7-3.19-5.178-5.132a2.969,2.969,0,0,1-.616-1.221.8.8,0,0,1,1.55-.4c2.016,2.168,4.492,3.925,6.553,6.038,1.9,1.869,3.784,3.75,5.8,5.495,3.908,3.409,7.706,6.929,11.26,10.709a.9.9,0,0,1-1.35,1.205" transform="translate(-7363 -16573)" fill="#fff"/>
    </g>
  </g>
</svg>
