<svg xmlns="http://www.w3.org/2000/svg" width="169.706" height="169.705" viewBox="0 0 169.706 169.705">
  <g id="Grupo_1181078" data-name="Grupo 1181078" transform="translate(-1065.98 -3369.146)">
    <rect id="Rectángulo_402033" data-name="Rectángulo 402033" width="120" height="120" rx="30" transform="translate(1065.98 3453.999) rotate(-45)" fill="#ffd600"/>
    <rect id="Rectángulo_454167" data-name="Rectángulo 454167" width="100" height="100" rx="50" transform="translate(1100.833 3403.999)" fill="#c8bf57"/>
    <g id="Grupo_1181808" data-name="Grupo 1181808" transform="translate(1109.548 3412.715)">
      <path id="Trazado_1014874" data-name="Trazado 1014874" d="M30.329,13.548A14.3,14.3,0,1,0,12.243,30l4.051,5.79L20.345,30a14.336,14.336,0,0,0,9.2-8.358Z" transform="translate(0.304 0.301)" fill="#e73844"/>
      <path id="Trazado_1014875" data-name="Trazado 1014875" d="M29.731,13.547a14.282,14.282,0,0,0-24.471-7A14.281,14.281,0,0,0,28.706,22.172c.082-.178.177-.348.251-.53Z" transform="translate(0.902 0.301)" fill="#ff4d55"/>
      <path id="Trazado_1014876" data-name="Trazado 1014876" d="M49.758,25.3a14.3,14.3,0,1,0-21.56,4.02v8.467l7.426-5.3a14.458,14.458,0,0,0,1.671.105,14.237,14.237,0,0,0,7.07-1.867" transform="translate(6.594 0.901)" fill="#8dbf00"/>
      <path id="Trazado_1014877" data-name="Trazado 1014877" d="M36.7,4A14.243,14.243,0,0,0,26.259,8.55,14.281,14.281,0,0,0,49.7,24.173,14.255,14.255,0,0,0,36.7,4Z" transform="translate(7.193 0.9)" fill="#a2cc06"/>
      <path id="Trazado_1014878" data-name="Trazado 1014878" d="M58.843,46.551A14.3,14.3,0,1,0,39.2,33.3a14.457,14.457,0,0,0,.105,1.671L34,42.393h8.467a14.284,14.284,0,0,0,8.281,4.938Z" transform="translate(9.889 5.394)" fill="#66c3e9"/>
      <path id="Trazado_1014879" data-name="Trazado 1014879" d="M55.295,44.991a14.229,14.229,0,0,0,5.89-1.28A14.287,14.287,0,0,0,45.548,20.26a14.282,14.282,0,0,0,9.747,24.731Z" transform="translate(11.986 5.394)" fill="#8adef9"/>
      <path id="Trazado_1014880" data-name="Trazado 1014880" d="M55.494,68.591A14.3,14.3,0,1,0,41.64,50.826L36,54.3l5.64,3.47A14.3,14.3,0,0,0,55.494,68.591Z" transform="translate(10.488 11.685)" fill="#0059be"/>
      <path id="Trazado_1014881" data-name="Trazado 1014881" d="M53.4,40a14.2,14.2,0,0,0-5.832,1.245A14.281,14.281,0,0,0,63.142,64.731,14.282,14.282,0,0,0,53.4,40Z" transform="translate(12.586 11.685)" fill="#006bdb"/>
      <rect id="Rectángulo_455791" data-name="Rectángulo 455791" width="5.514" height="11.027" transform="translate(16.598 72.478) rotate(-45)" fill="#ccc"/>
      <path id="Trazado_1014882" data-name="Trazado 1014882" d="M14,55.6l2.6,2.6a5.5,5.5,0,0,0,6.259,1.06L16.6,53Z" transform="translate(3.897 15.579)" fill="#e6e6e6"/>
      <path id="Trazado_1014883" data-name="Trazado 1014883" d="M31.309,51.747,20.3,56.336l-6.5,6.5L6,55.037l6.5-6.5,4.589-11.014" transform="translate(1.501 10.944)" fill="#e6e6e6"/>
      <path id="Trazado_1014884" data-name="Trazado 1014884" d="M28.107,48.995l-11.47-11.47L12.048,48.539,7.5,53.087l1.345,1.345a6.368,6.368,0,0,0,9.006,0h0a14.26,14.26,0,0,1,4.594-3.08Z" transform="translate(1.95 10.944)" fill="#f2f2f2"/>
      <path id="Trazado_1014885" data-name="Trazado 1014885" d="M32.686,48.788a2.755,2.755,0,0,1,.807,1.949h0a2.758,2.758,0,0,1-2.756,2.756h0a2.755,2.755,0,0,1-1.949-.807L14.807,38.706A2.755,2.755,0,0,1,14,36.756h0A2.758,2.758,0,0,1,16.756,34h0a2.755,2.755,0,0,1,1.949.807Z" transform="translate(3.897 9.888)" fill="#e73844"/>
      <path id="Trazado_1014886" data-name="Trazado 1014886" d="M7.6,52,6.076,53.523A3.675,3.675,0,0,0,5,56.122H5A3.675,3.675,0,0,0,8.675,59.8h0a3.676,3.676,0,0,0,2.6-1.077L12.8,57.2" transform="translate(1.201 15.28)" fill="#ccc"/>
      <path id="Trazado_1014887" data-name="Trazado 1014887" d="M18.627,34.807a2.742,2.742,0,0,0-4.365.65,2.756,2.756,0,0,0,.467.65L28.709,50.087a2.742,2.742,0,0,0,4.365-.65,2.729,2.729,0,0,0-.467-.65Z" transform="translate(3.976 9.887)" fill="#ff4d55"/>
      <rect id="Rectángulo_455792" data-name="Rectángulo 455792" width="9.189" height="11.027" transform="translate(7.5 65.981) rotate(-45)" fill="#e73844"/>
      <path id="Trazado_1014888" data-name="Trazado 1014888" d="M17.851,51.894c.014-.016.032-.029.048-.043L12.048,46,7.5,50.548l1.345,1.345a6.368,6.368,0,0,0,9.006,0Z" transform="translate(1.95 13.482)" fill="#ff4d55"/>
      <path id="Trazado_1014889" data-name="Trazado 1014889" d="M6.019,53.523a3.656,3.656,0,0,0-.828,1.3,3.665,3.665,0,0,0,6.026,1.3l.224-.224L7.542,52Z" transform="translate(1.259 15.28)" fill="#e6e6e6"/>
      <circle id="Elipse_13897" data-name="Elipse 13897" cx="9.097" cy="9.097" r="9.097" transform="translate(7.501 7.5)" fill="#006bdb"/>
      <circle id="Elipse_13898" data-name="Elipse 13898" cx="3.899" cy="3.899" r="3.899" transform="translate(62.083 58.183)" fill="#8adef9"/>
      <path id="Trazado_1014890" data-name="Trazado 1014890" d="M35.8,19.7l-6.5,3.9,2.6-6.5L28,13.2h5.2L35.8,8l2.6,5.2h5.2l-3.9,3.9,2.6,6.5Z" transform="translate(8.091 2.099)" fill="#f9cb5d"/>
      <path id="Trazado_1014891" data-name="Trazado 1014891" d="M51.1,40.595l-4.06-2.32A10,10,0,0,1,42,29.6h0A4.6,4.6,0,0,1,46.6,25h0a4.594,4.594,0,0,1,3.249,1.346L51.1,27.6l1.253-1.253A4.591,4.591,0,0,1,55.6,25h0a4.6,4.6,0,0,1,4.6,4.6h0a10,10,0,0,1-5.037,8.68Z" transform="translate(12.285 7.191)" fill="#e73844"/>
      <path id="Trazado_1014892" data-name="Trazado 1014892" d="M52.5,51A6.5,6.5,0,0,0,46,57.5v6.221a14.2,14.2,0,0,0,13,0V57.5A6.5,6.5,0,0,0,52.5,51Z" transform="translate(13.484 14.98)" fill="#66c3e9"/>
      <path id="Trazado_1014893" data-name="Trazado 1014893" d="M52.5,51A6.5,6.5,0,0,0,46,57.5v.694a14.242,14.242,0,0,0,10.4,4.5,14.034,14.034,0,0,0,2.6-.26V57.5A6.5,6.5,0,0,0,52.5,51Z" transform="translate(13.484 14.98)" fill="#8adef9"/>
      <path id="Trazado_1014894" data-name="Trazado 1014894" d="M55.3,25a4.594,4.594,0,0,0-3.249,1.346L50.8,27.6l-1.253-1.253a4.59,4.59,0,0,0-6.477-.018A4.527,4.527,0,0,0,43,27a10,10,0,0,0,5.037,8.68,8.187,8.187,0,0,0,8.12,0,9.972,9.972,0,0,0,3.218-2.963,9.952,9.952,0,0,0,.52-3.119A4.6,4.6,0,0,0,55.3,25Z" transform="translate(12.585 7.191)" fill="#ff4d55"/>
      <path id="Trazado_1014895" data-name="Trazado 1014895" d="M41.8,13.2H36.6L34,8V19.7l6.5,3.9-2.6-6.5Z" transform="translate(9.889 2.099)" fill="#ffd98c"/>
      <path id="Trazado_1014896" data-name="Trazado 1014896" d="M15.4,5a10.4,10.4,0,1,0,10.4,10.4A10.4,10.4,0,0,0,15.4,5Zm1.3,2.716a7.74,7.74,0,0,1,3,1.183h-3ZM14.1,8.9h-3a7.74,7.74,0,0,1,3-1.183Zm0,2.6v2.6H7.716a7.753,7.753,0,0,1,.938-2.6Zm0,5.2v2.6H8.654a7.753,7.753,0,0,1-.938-2.6Zm0,5.2v1.183a7.74,7.74,0,0,1-3-1.183Zm2.6,0h3a7.74,7.74,0,0,1-3,1.183Zm0-2.6V16.7h6.381a7.753,7.753,0,0,1-.938,2.6Zm0-5.2V11.5h5.443a7.753,7.753,0,0,1,.938,2.6Z" transform="translate(1.201 1.2)" fill="#004c9d"/>
      <path id="Trazado_1014897" data-name="Trazado 1014897" d="M22.62,34.193a4.04,4.04,0,0,0-6.4,4.825L12,49.162,5.68,55.478a1.3,1.3,0,0,0,0,1.838l.381.381-.6.6a4.975,4.975,0,1,0,7.036,7.036l.6-.6.381.381a1.3,1.3,0,0,0,1.838,0l.381-.381,6.879,6.879a1.3,1.3,0,0,0,1.838,0l3.9-3.9a1.3,1.3,0,0,0,0-1.838L21.432,59l.2-.2L31.776,54.57a4.044,4.044,0,0,0,4.825-6.4Zm-7.99,15.4,3.509-8.413L29.615,52.657,21.2,56.166ZM10.655,63.5A2.377,2.377,0,1,1,7.294,60.14l.6-.605,3.361,3.361ZM8.437,56.4l4.66-4.66,5.96,5.96-4.66,4.66Zm17.118,10.4-2.061,2.061-5.96-5.96,2.061-2.061Zm8.178-14.3a1.467,1.467,0,0,1-1.031-.426L18.722,38.091a1.457,1.457,0,0,1,2.061-2.061L34.763,50.011A1.457,1.457,0,0,1,33.733,52.5Z" transform="translate(0.902 9.583)"/>
      <path id="Trazado_1014898" data-name="Trazado 1014898" d="M15.4,5a10.4,10.4,0,1,0,10.4,10.4A10.4,10.4,0,0,0,15.4,5ZM14.1,8.9h-3a7.74,7.74,0,0,1,3-1.183Zm0,2.6v2.6H7.716a7.753,7.753,0,0,1,.938-2.6Zm0,5.2v2.6H8.654a7.753,7.753,0,0,1-.938-2.6Zm0,5.2v1.183a7.74,7.74,0,0,1-3-1.183Zm2.6,0h3a7.74,7.74,0,0,1-3,1.183Zm0-2.6V16.7h6.381a7.753,7.753,0,0,1-.938,2.6Zm0-5.2V11.5h5.443a7.753,7.753,0,0,1,.938,2.6Zm0-5.2V7.716a7.74,7.74,0,0,1,3,1.183Z" transform="translate(1.201 1.2)"/>
      <path id="Trazado_1014899" data-name="Trazado 1014899" d="M72.089,51.63A15.595,15.595,0,0,0,58.769,23.794,15.577,15.577,0,0,0,30.945,10.508a15.595,15.595,0,1,0-19.209,20.9l3.8,5.427a1.3,1.3,0,0,0,2.129,0l3.8-5.427a15.744,15.744,0,0,0,8.078-6.133,15.544,15.544,0,0,0,3.955,5.54v7.87a1.3,1.3,0,0,0,1.3,1.3,1.284,1.284,0,0,0,.755-.243l7.025-5.018c.468.042.9.062,1.316.062a15.614,15.614,0,0,0,4.6-.721,15.556,15.556,0,0,0-.7,4.62c0,.415.021.849.062,1.316l-5.018,7.025a1.3,1.3,0,0,0,1.057,2.055h7.87a15.653,15.653,0,0,0,5.54,3.951,15.545,15.545,0,0,0-6.291,8.638l-5.2,3.2a1.3,1.3,0,0,0,0,2.209l5.2,3.2A15.588,15.588,0,1,0,72.089,51.63ZM20.281,29.054a1.3,1.3,0,0,0-.7.5L16.6,33.824l-2.989-4.268a1.3,1.3,0,0,0-.7-.5A13,13,0,1,1,29.28,13.79a14.945,14.945,0,0,0-.758,7.946,13.1,13.1,0,0,1-8.242,7.319Zm23.608,3.137a13.308,13.308,0,0,1-1.523-.1,1.268,1.268,0,0,0-.91.233l-5.365,3.836V30.223a1.3,1.3,0,0,0-.472-1A13.006,13.006,0,1,1,55.313,25.37a15.666,15.666,0,0,0-5.248,5.245A12.977,12.977,0,0,1,43.889,32.191Zm9.467,14.767a1.3,1.3,0,0,0-1-.472H46.414l3.843-5.371a1.292,1.292,0,0,0,.233-.91,13.309,13.309,0,0,1-.1-1.517A13,13,0,1,1,68.538,50.614a15.117,15.117,0,0,0-7.978.752A13.02,13.02,0,0,1,53.356,46.958Zm7.427,30.931V72.478a5.2,5.2,0,0,1,10.4,0v5.4a12.944,12.944,0,0,1-10.4.006Zm2.6-15.808a2.6,2.6,0,1,1,2.6,2.6A2.6,2.6,0,0,1,63.382,62.081Zm10.4,14.271V72.478a7.8,7.8,0,0,0-4.038-6.827,5.2,5.2,0,1,0-7.519,0,7.8,7.8,0,0,0-4.038,6.827v3.888a12.97,12.97,0,0,1-4.8-7.231,1.3,1.3,0,0,0-.58-.793L48.967,65.98l3.842-2.363a1.3,1.3,0,0,0,.58-.793,12.987,12.987,0,1,1,20.39,13.527Z" transform="translate(0 0)"/>
      <path id="Trazado_1014900" data-name="Trazado 1014900" d="M41.521,17.7,44.813,14.4a1.3,1.3,0,0,0-.919-2.218H39.5l-2.233-4.48a1.354,1.354,0,0,0-2.326,0l-2.246,4.48H28.3a1.3,1.3,0,0,0-.919,2.218L30.673,17.7l-2.281,5.7a1.3,1.3,0,0,0,1.877,1.6L36.1,21.5l5.829,3.5A1.3,1.3,0,0,0,43.8,23.4Zm-2.729.169,1.17,2.916-3.189-1.913a1.3,1.3,0,0,0-1.339,0l-3.189,1.913,1.17-2.916a1.3,1.3,0,0,0-.289-1.4l-1.689-1.68H33.5a1.3,1.3,0,0,0,1.17-.719l1.43-2.873,1.43,2.873a1.3,1.3,0,0,0,1.17.719h2.061l-1.68,1.68a1.3,1.3,0,0,0-.289,1.4Z" transform="translate(7.792 1.813)"/>
      <path id="Trazado_1014901" data-name="Trazado 1014901" d="M61.793,29.894a5.894,5.894,0,0,0-10.061-4.168l-.335.335-.335-.335A5.894,5.894,0,0,0,41,29.894,11.323,11.323,0,0,0,46.692,39.7l4.055,2.32a1.3,1.3,0,0,0,1.289,0L56.1,39.7a11.323,11.323,0,0,0,5.7-9.809ZM51.4,39.4l-3.415-1.949A8.717,8.717,0,0,1,43.6,29.894a3.3,3.3,0,0,1,5.625-2.33l1.254,1.254a1.3,1.3,0,0,0,1.838,0l1.254-1.254a3.3,3.3,0,0,1,5.625,2.33,8.717,8.717,0,0,1-4.382,7.553Z" transform="translate(11.986 6.892)"/>
    </g>
  </g>
</svg>
