<svg xmlns="http://www.w3.org/2000/svg" width="169.706" height="169.705" viewBox="0 0 169.706 169.705">
  <g id="Grupo_1181086" data-name="Grupo 1181086" transform="translate(-1065.98 -3369.146)">
    <rect id="Rect치ngulo_402033" data-name="Rect치ngulo 402033" width="120" height="120" rx="30" transform="translate(1065.98 3453.999) rotate(-45)" fill="#ffd600"/>
    <rect id="Rect치ngulo_454167" data-name="Rect치ngulo 454167" width="100" height="100" rx="50" transform="translate(1100.833 3403.999)" fill="#c8bf57"/>
    <g id="Grupo_1181836" data-name="Grupo 1181836" transform="translate(1107.616 3411.28)">
      <g id="Grupo_1181834" data-name="Grupo 1181834" transform="translate(2.348 2.348)">
        <circle id="Elipse_13900" data-name="Elipse 13900" cx="16" cy="16" r="16" transform="translate(24.445 24.445)" fill="#69d6f4"/>
        <g id="Grupo_1181833" data-name="Grupo 1181833" transform="translate(0)">
          <path id="Trazado_1014972" data-name="Trazado 1014972" d="M63.482,42.178H52.7a2.7,2.7,0,0,1-2.7-2.7V28.7A2.7,2.7,0,0,1,52.7,26H63.482a2.7,2.7,0,0,1,2.7,2.7V39.482A2.7,2.7,0,0,1,63.482,42.178Z" transform="translate(14.713 6.357)" fill="#fcd770"/>
          <path id="Trazado_1014973" data-name="Trazado 1014973" d="M39.482,66.178H28.7a2.7,2.7,0,0,1-2.7-2.7V52.7A2.7,2.7,0,0,1,28.7,50H39.482a2.7,2.7,0,0,1,2.7,2.7V63.482A2.7,2.7,0,0,1,39.482,66.178Z" transform="translate(6.357 14.713)" fill="#fcd770"/>
          <path id="Trazado_1014974" data-name="Trazado 1014974" d="M15.482,42.178H4.7a2.7,2.7,0,0,1-2.7-2.7V28.7A2.7,2.7,0,0,1,4.7,26H15.482a2.7,2.7,0,0,1,2.7,2.7V39.482A2.7,2.7,0,0,1,15.482,42.178Z" transform="translate(-2 6.357)" fill="#fcd770"/>
          <path id="Trazado_1014975" data-name="Trazado 1014975" d="M39.482,18.178H28.7a2.7,2.7,0,0,1-2.7-2.7V4.7A2.7,2.7,0,0,1,28.7,2H39.482a2.7,2.7,0,0,1,2.7,2.7V15.482A2.7,2.7,0,0,1,39.482,18.178Z" transform="translate(6.357 -2)" fill="#fcd770"/>
        </g>
        <ellipse id="Elipse_13901" data-name="Elipse 13901" cx="3" cy="2.5" rx="3" ry="2.5" transform="translate(6.445 75.446)" fill="#ff826e"/>
        <path id="Trazado_1014976" data-name="Trazado 1014976" d="M63.526,8.741a4.045,4.045,0,1,1,0,8.089H50.045a4.045,4.045,0,0,1,0-8.089,6.741,6.741,0,0,1,13.482,0Z" transform="translate(13.32 -2)" fill="#e6e9ed"/>
        <circle id="Elipse_13902" data-name="Elipse 13902" cx="12" cy="12" r="12" transform="translate(0.445 0.445)" fill="#e6e9ed"/>
        <path id="Trazado_1014977" data-name="Trazado 1014977" d="M13.336,12a9.416,9.416,0,0,1,9.033,6.727l.013.013c-.162.162-.31.324-.472.485A12.124,12.124,0,0,1,4.29,18.741l.013-.013A9.416,9.416,0,0,1,13.336,12Z" transform="translate(-1.203 1.482)" fill="#ff826e"/>
        <circle id="Elipse_13903" data-name="Elipse 13903" cx="4" cy="4" r="4" transform="translate(8.445 5.445)" fill="#f0d0b4"/>
        <path id="Trazado_1014978" data-name="Trazado 1014978" d="M68.267,50.7V64.178a2.7,2.7,0,0,1-2.7,2.7H46.7a2.7,2.7,0,0,1-2.7-2.7V50.7A2.7,2.7,0,0,1,46.7,48H65.571A2.7,2.7,0,0,1,68.267,50.7Z" transform="translate(12.624 14.017)" fill="#f0d0b4"/>
      </g>
      <g id="Grupo_1181835" data-name="Grupo 1181835" transform="translate(1 1)">
        <path id="Trazado_1014979" data-name="Trazado 1014979" d="M10.045,57a4.045,4.045,0,1,0,4.045,4.045A4.05,4.05,0,0,0,10.045,57Zm0,5.393a1.348,1.348,0,1,1,1.348-1.348A1.35,1.35,0,0,1,10.045,62.393Z" transform="translate(0.741 18.499)"/>
        <path id="Trazado_1014980" data-name="Trazado 1014980" d="M4.051,55.764,5.957,57.67a6.741,6.741,0,0,1,9.532,0L17.4,55.764a9.436,9.436,0,0,0-13.344,0Z" transform="translate(0.062 17.106)"/>
        <path id="Trazado_1014981" data-name="Trazado 1014981" d="M1.222,53.342l1.906,1.906a12.149,12.149,0,0,1,17.161,0L22.2,53.342a14.848,14.848,0,0,0-20.974,0Z" transform="translate(-0.923 15.715)"/>
        <path id="Trazado_1014982" data-name="Trazado 1014982" d="M63.178,59.089h-2.7V53.7h-2.7v5.393h-2.7v-2.7h-2.7v2.7H49.7V51H47V61.786H63.178Z" transform="translate(15.017 16.41)"/>
        <path id="Trazado_1014983" data-name="Trazado 1014983" d="M80.543,33.357H69.758A4.05,4.05,0,0,0,65.713,37.4v4.045H60.252a17.427,17.427,0,0,0-4.163-10.04L68.968,18.526H79.2A5.393,5.393,0,0,0,80.456,7.889a8.091,8.091,0,0,0-16,0,5.377,5.377,0,0,0,.754,10.586L54.182,29.5a17.43,17.43,0,0,0-10.04-4.163V19.875h4.045a4.05,4.05,0,0,0,4.045-4.045V5.045A4.05,4.05,0,0,0,48.187,1H37.4a4.05,4.05,0,0,0-4.045,4.045V15.83A4.05,4.05,0,0,0,37.4,19.875h4.045v5.462A17.427,17.427,0,0,0,31.406,29.5l-6.49-6.492a13.515,13.515,0,1,0-1.908,1.906l6.49,6.492a17.43,17.43,0,0,0-4.163,10.04h-5.46V37.4a4.05,4.05,0,0,0-4.045-4.045H5.045A4.05,4.05,0,0,0,1,37.4V48.187a4.05,4.05,0,0,0,4.045,4.045H15.83a4.05,4.05,0,0,0,4.045-4.045V44.142h5.462A17.427,17.427,0,0,0,29.5,54.182l-9.23,9.23,1.906,1.906,9.23-9.23a17.43,17.43,0,0,0,10.04,4.163v5.462H37.4a4.05,4.05,0,0,0-4.045,4.045V80.543A4.05,4.05,0,0,0,37.4,84.588H48.187a4.05,4.05,0,0,0,4.045-4.045V69.758a4.05,4.05,0,0,0-4.045-4.045H44.142V60.252a17.427,17.427,0,0,0,10.04-4.163l6.98,6.98a4.036,4.036,0,0,0-3.538,3.993V80.543a4.05,4.05,0,0,0,4.045,4.045H80.543a4.05,4.05,0,0,0,4.045-4.045V67.061a4.05,4.05,0,0,0-4.045-4.045H64.923l-8.835-8.835a17.43,17.43,0,0,0,4.163-10.04h5.462v4.045a4.05,4.05,0,0,0,4.045,4.045H80.543a4.05,4.05,0,0,0,4.045-4.045V37.4a4.05,4.05,0,0,0-4.045-4.045ZM49.535,11.786H36.053v-2.7H49.535ZM37.4,3.7H48.187a1.35,1.35,0,0,1,1.348,1.348V6.393H36.053V5.045A1.35,1.35,0,0,1,37.4,3.7ZM36.053,15.83V14.482H49.535V15.83a1.35,1.35,0,0,1-1.348,1.348H37.4A1.35,1.35,0,0,1,36.053,15.83ZM5.045,36.053H15.83A1.35,1.35,0,0,1,17.178,37.4v1.348H3.7V37.4A1.35,1.35,0,0,1,5.045,36.053Zm12.134,5.393v2.7H3.7v-2.7ZM15.83,49.535H5.045A1.35,1.35,0,0,1,3.7,48.187V46.839H17.178v1.348A1.35,1.35,0,0,1,15.83,49.535ZM36.053,73.8H49.535v2.7H36.053Zm12.134,8.089H37.4a1.35,1.35,0,0,1-1.348-1.348V79.2H49.535v1.348A1.35,1.35,0,0,1,48.187,81.892Zm1.348-12.134v1.348H36.053V69.758A1.35,1.35,0,0,1,37.4,68.41H48.187A1.35,1.35,0,0,1,49.535,69.758ZM42.794,57.624c-1.449,0-2.993-2.059-4.057-5.393h8.115c-1.065,3.334-2.609,5.393-4.058,5.393ZM38.05,49.535a33.431,33.431,0,0,1-.62-5.393H48.158a33.584,33.584,0,0,1-.62,5.393ZM28.033,44.142h6.7a36.974,36.974,0,0,0,.551,5.393H29.6a14.669,14.669,0,0,1-1.569-5.393ZM42.794,27.964c1.449,0,2.993,2.059,4.057,5.393H38.736c1.065-3.334,2.609-5.393,4.058-5.393Zm4.744,8.089a33.431,33.431,0,0,1,.62,5.393H37.429a33.584,33.584,0,0,1,.62-5.393Zm-12.8,5.393h-6.7A14.7,14.7,0,0,1,29.6,36.053h5.684A36.789,36.789,0,0,0,34.734,41.446Zm16.119,2.7h6.7a14.7,14.7,0,0,1-1.569,5.393H50.3A36.789,36.789,0,0,0,50.853,44.142Zm0-2.7a36.974,36.974,0,0,0-.551-5.393h5.684a14.721,14.721,0,0,1,1.569,5.393ZM63.017,13.134a2.7,2.7,0,0,1,2.7-2.7h1.348V9.089A5.393,5.393,0,0,1,77.724,7.945,5.4,5.4,0,0,0,73.8,13.134h2.7a2.7,2.7,0,1,1,2.7,2.7H65.713A2.7,2.7,0,0,1,63.017,13.134ZM54.225,33.357H49.678a18.632,18.632,0,0,0-1.875-4.5A14.9,14.9,0,0,1,54.225,33.357Zm-16.439-4.5a18.686,18.686,0,0,0-1.875,4.5H31.364A14.88,14.88,0,0,1,37.787,28.852ZM14.482,3.7A10.764,10.764,0,0,1,23.791,19.9a10.862,10.862,0,0,0-5.266-4.585,5.393,5.393,0,1,0-8.088,0A10.869,10.869,0,0,0,5.171,19.9,10.765,10.765,0,0,1,14.482,3.7Zm-2.7,8.089a2.7,2.7,0,1,1,2.7,2.7A2.7,2.7,0,0,1,11.786,11.786ZM7.01,22.242a8.044,8.044,0,0,1,14.943,0,10.739,10.739,0,0,1-14.943,0ZM31.363,52.231H35.91a18.632,18.632,0,0,0,1.875,4.5A14.9,14.9,0,0,1,31.363,52.231Zm16.439,4.5a18.686,18.686,0,0,0,1.875-4.5h4.547A14.88,14.88,0,0,1,47.8,56.736Zm34.09,10.326V80.543a1.35,1.35,0,0,1-1.348,1.348H61.669a1.35,1.35,0,0,1-1.348-1.348V67.061a1.35,1.35,0,0,1,1.348-1.348H80.543A1.35,1.35,0,0,1,81.892,67.061ZM69.758,36.053H80.543A1.35,1.35,0,0,1,81.892,37.4v1.348H68.41V37.4A1.35,1.35,0,0,1,69.758,36.053Zm12.134,5.393v2.7H68.41v-2.7Zm-1.348,8.089H69.758a1.35,1.35,0,0,1-1.348-1.348V46.839H81.892v1.348A1.35,1.35,0,0,1,80.543,49.535Z" transform="translate(-1 -1)"/>
      </g>
    </g>
  </g>
</svg>
