<svg xmlns="http://www.w3.org/2000/svg" width="54.091" height="48.534" viewBox="0 0 54.091 48.534">
  <path id="Trazado_992496" data-name="Trazado 992496" d="M67.673,270.463c-.662-.457-.839-1.362-1.206-2.041-.6-1.332-1.146-2.683-1.661-4.048A77.949,77.949,0,0,1,61.417,252.4c-3.525,2.523-7.063,5.024-10.729,7.342-1.83,1.145-3.485,2.593-5.4,3.588a.965.965,0,0,1-1.208-1.447c4.026-5.468,8.286-10.8,11.977-16.505-4.217-1.346-8.517-2.419-12.726-3.8a38.15,38.15,0,0,1-4.246-1.474,1.016,1.016,0,0,1-.487-1.542c.553-.621,1.48-.465,2.228-.5.724,0,1.448,0,2.171,0a74.961,74.961,0,0,1,11.194.686,49.01,49.01,0,0,0,5.735.536c.669-4.711.567-9.52,1.511-14.2a10.1,10.1,0,0,1,.8-2.539.844.844,0,0,1,1.555-.017,7.464,7.464,0,0,1,.55,1.264,60.024,60.024,0,0,1,2.775,9.846q.436,2.238.817,4.487a13.344,13.344,0,0,1,.161,1.36.62.62,0,0,1-.052.5.761.761,0,0,1,.313.358,192.2,192.2,0,0,1,17.166-11.384,1.528,1.528,0,0,1,1.157-.294.813.813,0,0,1,.278,1.238,119.987,119.987,0,0,1-7.479,10.489,18.092,18.092,0,0,0-1.922,2.939c3.3,2.97,6.853,5.64,10.12,8.644a34.3,34.3,0,0,1,3.93,4.022c.594.687,1.478,2.11.308,2.674-.55.181-1.081-.158-1.6-.293-1.413-.455-2.807-.972-4.2-1.474-4.968-1.786-9.844-3.815-14.779-5.684a103.492,103.492,0,0,1-.975,12.785c-.243,1.5-.475,3.006-.837,4.484-.221.848-.659,2.506-1.841,1.956m-.361-3.792c.248.639.494,1.278.754,1.913a64.06,64.06,0,0,0,1.625-11.222c.137-2.148.044-4.307.228-6.451.044-1.459,1.16-1.357,2.209-.9q2.092.8,4.184,1.6,6.932,2.714,13.949,5.211c-3.409-3.895-7.659-6.937-11.61-10.246-2.979-2.578-3.744-2.591-1.161-6.1,2.367-3.147,4.8-6.247,7.086-9.453C80.02,233.94,75.56,237,71.151,240.118c-.487.35-.971.706-1.416,1.044-.568.438-1.2,1.105-1.99.831a1.3,1.3,0,0,1-.617-1.836c-.4-.381-.2-1.023-.32-1.516a71.217,71.217,0,0,0-3.8-15.125,39.173,39.173,0,0,0-1.271,8.793c-.157,2.217-.359,4.432-.482,6.65.108,1.557-.911,1.862-2.257,1.751-3-.156-5.966-.692-8.959-.92a73.253,73.253,0,0,0-7.994-.153c3.8,1.228,7.631,2.359,11.468,3.465,1.041.316,2.087.609,3.134.9,1.846.451.927,2.281.125,3.293-2.988,4.381-6.185,8.611-9.358,12.858,1.756-1.246,3.572-2.4,5.38-3.571,14.33-9.477,7.055-8.7,14.513,10.093" transform="translate(-38.395 -222.038)" fill="#fff"/>
</svg>
