<svg xmlns="http://www.w3.org/2000/svg" width="43.421" height="42.709" viewBox="0 0 43.421 42.709">
  <g id="Grupo_1176803" data-name="Grupo 1176803" transform="translate(-1220.001 -80)">
    <path id="Trazado_992491" data-name="Trazado 992491" d="M154.972,41.888c-.019-1.035-.03-2.077-.039-3.076v.124c-.042-12.777.176-25.554.307-38.331a.654.654,0,0,1,1.3.074c-.078,9.28.192,18.471.156,27.711.027,4.452.031,8.9.085,13.353a.91.91,0,0,1-1.814.145" transform="translate(1083.5 80)" fill="#fff"/>
    <path id="Trazado_992492" data-name="Trazado 992492" d="M136.555,23.506c-.257-.831.451-1.379,1.235-1.266,2.084-.312,4.154-.725,6.21-1.188,4.134-.949,8.2-2.215,12.366-3.02,6.361-1.224,12.786-2.085,19.17-3.175,1.067-.183,2.132-.372,3.2-.576a.984.984,0,1,1,.415,1.924c-4.237.793-8.453,1.684-12.714,2.342-3.744.553-7.5,1.035-11.207,1.807-4.981.991-9.854,2.5-14.882,3.255-.8.129-1.614.229-2.409.4a.958.958,0,0,1-1.379-.5" transform="translate(1083.5 80)" fill="#fff"/>
    <path id="Trazado_992493" data-name="Trazado 992493" d="M146.189,33.187a.892.892,0,0,1-.249-1.227c1.711-2.415,3.422-4.837,5.277-7.146,4.612-5.767,8.935-11.76,13.64-17.453a1.626,1.626,0,0,1,.941-.607.88.88,0,0,1,.651,1.523c-3.136,3.889-6.086,7.763-9.027,11.734-2.652,3.524-5.486,6.9-8.162,10.41-.626.83-1.247,1.666-1.846,2.518a.894.894,0,0,1-1.225.248" transform="translate(1083.5 80)" fill="#fff"/>
    <path id="Trazado_992494" data-name="Trazado 992494" d="M163.836,32.991c-1.534-1.9-2.78-3.889-4.166-5.883-4.219-5.908-8.609-11.7-12.678-17.715a1.705,1.705,0,0,1-.345-.906.606.606,0,0,1,.793-.536,9.9,9.9,0,0,1,2.018,2.033c4.056,4.866,7.77,10,11.813,14.873a55.671,55.671,0,0,1,4.257,6.051c.544.728,1,1.768.071,2.412a1.285,1.285,0,0,1-1.763-.329" transform="translate(1083.5 80)" fill="#fff"/>
  </g>
</svg>
