<svg xmlns="http://www.w3.org/2000/svg" width="110.512" height="110.511" viewBox="0 0 110.512 110.511">
  <g id="Grupo_1181628" data-name="Grupo 1181628" transform="translate(0 0)">
    <path id="Trazado_1014277" data-name="Trazado 1014277" d="M90.535,208v25.9a3.825,3.825,0,0,0-.052-.639,3.523,3.523,0,0,0-3-2.8,2.923,2.923,0,0,0-.4-.017H83.628v12.087l6.907,6.907V259.8H56v-8.634l6.907-6.907v-8.634H59.453A3.464,3.464,0,0,0,56,239.081V208h8.634v3.453H81.9V208Z" transform="translate(-43.913 -163.105)" fill="#f98800"/>
    <path id="Trazado_1014278" data-name="Trazado 1014278" d="M90.535,208,56,259.8H90.535Z" transform="translate(-43.913 -163.105)" fill="#f05a29"/>
    <path id="Trazado_1014279" data-name="Trazado 1014279" d="M466.36,457.727v8.634H456l3.453-3.453-1.727-5.18h3.453L462.907,456Z" transform="translate(-357.576 -357.576)" fill="#acdd12"/>
    <path id="Trazado_1014280" data-name="Trazado 1014280" d="M418.36,466.36s-10.36-.017-10.36,0v-8.634L411.453,456l1.727,1.727h3.453l-1.727,5.18Z" transform="translate(-319.936 -357.576)" fill="#acdd12"/>
    <path id="Trazado_1014281" data-name="Trazado 1014281" d="M446.907,469.18l-3.453,3.453L440,469.18l1.727-5.18h3.453Z" transform="translate(-345.029 -363.849)" fill="#387f29"/>
    <path id="Trazado_1014282" data-name="Trazado 1014282" d="M421.814,112h-6.907L408,113.727v8.634h20.721v-8.634Z" transform="translate(-319.936 -87.826)" fill="#aedef8"/>
    <path id="Trazado_1014283" data-name="Trazado 1014283" d="M428.087,48l-5.18,5.18-3.453-1.727H416V53.18a3.454,3.454,0,0,0,3.453,3.453h0V58.36l1.727,3.453h6.907l1.727-3.453V56.634h0a3.453,3.453,0,0,0,3.453-3.453V51.453h-5.18Z" transform="translate(-326.209 -37.64)" fill="#fac8b2"/>
    <path id="Trazado_1014284" data-name="Trazado 1014284" d="M443.453,112,440,118.907l3.453,3.453,3.453-3.453Z" transform="translate(-345.029 -87.826)" fill="#00587e"/>
    <path id="Trazado_1014285" data-name="Trazado 1014285" d="M413.18,20.087H408V11.453L414.907,8l6.907,1.727L425.267,8l3.453,3.453v8.634h-6.907V16.634l-5.18,5.18Z" transform="translate(-319.936 -6.274)" fill="#58492f"/>
    <path id="Trazado_1014286" data-name="Trazado 1014286" d="M456,306.36s10.36-.017,10.36,0v-8.634L461.18,296l-1.727,1.727h-1.727l1.727,5.18Z" transform="translate(-357.576 -232.111)" fill="#fcd4ef"/>
    <path id="Trazado_1014287" data-name="Trazado 1014287" d="M440,309.18l3.453,3.453,3.453-3.453L445.18,304h-3.453Z" transform="translate(-345.029 -238.384)" fill="#f249b4"/>
    <path id="Trazado_1014288" data-name="Trazado 1014288" d="M408,297.727v8.634h10.36l-3.453-3.453,1.727-5.18h-1.727L413.18,296Z" transform="translate(-319.936 -232.111)" fill="#fcd4ef"/>
    <path id="Trazado_1014289" data-name="Trazado 1014289" d="M442.36,259.453v5.18l-1.727,1.727h-6.907L432,264.634v-5.18h1.727A3.479,3.479,0,0,0,437.18,256a3.464,3.464,0,0,0,3.453,3.453Z" transform="translate(-338.756 -200.745)" fill="#fac8b2"/>
    <path id="Trazado_1014290" data-name="Trazado 1014290" d="M433.267,232.634a8.671,8.671,0,0,1-2.521,6.113,8.1,8.1,0,0,1-.932.794v-5.18h-1.727a3.464,3.464,0,0,1-3.453-3.453,3.479,3.479,0,0,1-3.453,3.453h-1.727v5.18a8.1,8.1,0,0,1-.932-.794,8.649,8.649,0,0,1,1.8-13.589,8.633,8.633,0,0,1,8.634,0,8.539,8.539,0,0,1,4.317,7.477Z" transform="translate(-326.209 -175.652)" fill="#b71e71"/>
    <path id="Trazado_1014291" data-name="Trazado 1014291" d="M442.36,197.18a5.3,5.3,0,0,1-.863,2.884,8.632,8.632,0,0,0-8.634,0A5.3,5.3,0,0,1,432,197.18a5.18,5.18,0,0,1,10.36,0Z" transform="translate(-338.756 -150.559)" fill="#931d5b"/>
    <path id="Trazado_1014292" data-name="Trazado 1014292" d="M437.814,379.453v5.18L424,381.18v-1.727A3.464,3.464,0,0,1,427.453,376h6.907A3.464,3.464,0,0,1,437.814,379.453Z" transform="translate(-332.483 -294.843)" fill="#f05a29"/>
    <path id="Trazado_1014293" data-name="Trazado 1014293" d="M428.721,406.044a2.587,2.587,0,0,1-2.59,2.59h-.863v3.453l-1.727,1.727H413.18l-1.727-1.727v-3.453h-.863a2.59,2.59,0,1,1,0-5.18h.863V400l13.814,3.453h.863A2.587,2.587,0,0,1,428.721,406.044Z" transform="translate(-319.936 -313.663)" fill="#fac8b2"/>
    <path id="Trazado_1014294" data-name="Trazado 1014294" d="M113.267,176.634v3.453H96v-3.453a3.464,3.464,0,0,1,3.453-3.453h1.727v-1.727A3.464,3.464,0,0,1,104.634,168a3.479,3.479,0,0,1,3.453,3.454v1.727h1.727A3.464,3.464,0,0,1,113.267,176.634Z" transform="translate(-75.279 -131.739)" fill="#ffec00"/>
    <path id="Trazado_1014295" data-name="Trazado 1014295" d="M88,256h6.907v6.907H88Z" transform="translate(-69.006 -200.745)" fill="#fff"/>
    <path id="Trazado_1014296" data-name="Trazado 1014296" d="M88,320h6.907v6.907H88Z" transform="translate(-69.006 -250.931)" fill="#fff"/>
    <path id="Trazado_1014297" data-name="Trazado 1014297" d="M88,384h6.907v6.907H88Z" transform="translate(-69.006 -301.117)" fill="#fff"/>
    <path id="Trazado_1014298" data-name="Trazado 1014298" d="M25.267,310.907v8.634l-6.907,6.907H8V309.18L13.18,304h5.18v10.36a3.464,3.464,0,0,1,3.453-3.454Z" transform="translate(-6.273 -238.384)" fill="#fac8b2"/>
    <path id="Trazado_1014299" data-name="Trazado 1014299" d="M226.36,309.18v9.1L216,308.61V304h5.18Z" transform="translate(-169.378 -238.384)" fill="#fac8b2"/>
    <path id="Trazado_1014300" data-name="Trazado 1014300" d="M201.026,330.994H190.907L184,324.087V312h3.453a2.925,2.925,0,0,1,.4.017,3.523,3.523,0,0,1,3,2.8,3.825,3.825,0,0,1,.052.639v6.1Z" transform="translate(-144.285 -244.657)" fill="#fac8b2"/>
    <path id="Trazado_1014301" data-name="Trazado 1014301" d="M169.031,293.2a2.925,2.925,0,0,0-.4-.017H165.18v3.108L160,291.453V288h3.453Z" transform="translate(-125.465 -225.838)" fill="#00a8e7"/>
    <path id="Trazado_1014302" data-name="Trazado 1014302" d="M233.267,341.47l-3.453,3.454-3.7-3.454L216,332.025V325.36l10.36,9.67Z" transform="translate(-169.378 -255.134)" fill="#00a8e7"/>
    <path id="Trazado_1014303" data-name="Trazado 1014303" d="M216,400h10.36v22.448H216Z" transform="translate(-169.378 -313.663)" fill="#00587e"/>
    <path id="Trazado_1014304" data-name="Trazado 1014304" d="M8,408H18.36v20.721H8Z" transform="translate(-6.273 -319.937)" fill="#00587e"/>
    <path id="Trazado_1014305" data-name="Trazado 1014305" d="M152.634,251.453h-6.907a1.727,1.727,0,1,1,0-3.453h6.907a1.727,1.727,0,1,1,0,3.453Z" transform="translate(-112.919 -194.471)" fill="#f05a29"/>
    <path id="Trazado_1014306" data-name="Trazado 1014306" d="M147.453,339.453h-1.727a1.727,1.727,0,0,1,0-3.453h1.727a1.727,1.727,0,0,1,0,3.453Z" transform="translate(-112.919 -263.477)" fill="#f98800"/>
    <path id="Trazado_1014307" data-name="Trazado 1014307" d="M152.634,411.453h-6.907a1.727,1.727,0,1,1,0-3.453h6.907a1.727,1.727,0,0,1,0,3.453Z" transform="translate(-112.919 -319.937)" fill="#f98800"/>
    <ellipse id="Elipse_13870" data-name="Elipse 13870" cx="13.5" cy="14" rx="13.5" ry="14" transform="translate(16 1.51)" fill="#ffec00"/>
    <path id="Trazado_1014308" data-name="Trazado 1014308" d="M106.183,28.369A13.815,13.815,0,0,1,80.36,35.2,13.816,13.816,0,0,0,99.2,16.36a13.805,13.805,0,0,1,6.985,12.01Z" transform="translate(-63.015 -12.829)" fill="#fcc200"/>
    <g id="Grupo_1181627" data-name="Grupo 1181627" transform="translate(27.628 6.907)">
      <path id="Trazado_1014309" data-name="Trazado 1014309" d="M133.18,42.36h-3.453A1.727,1.727,0,0,1,128,40.634V33.727a1.727,1.727,0,1,1,3.453,0v5.18h1.727a1.727,1.727,0,0,1,0,3.453Z" transform="translate(-128 -32)" fill="#e22526"/>
      <path id="Trazado_1014310" data-name="Trazado 1014310" d="M273.4,224.506a1.727,1.727,0,0,0-2.442,2.442l2.233,2.232H249.727a1.727,1.727,0,1,0,0,3.454h23.459l-2.233,2.232a1.727,1.727,0,0,0,2.442,2.442l5.18-5.18a1.727,1.727,0,0,0,0-2.442Z" transform="translate(-222.099 -182.559)" fill="#e22526"/>
      <path id="Trazado_1014311" data-name="Trazado 1014311" d="M249.727,98.535h8.634a8.644,8.644,0,0,0,8.634-8.634V77.814a5.186,5.186,0,0,1,5.18-5.18h1.011l-2.233,2.232a1.727,1.727,0,0,0,2.442,2.442l5.18-5.18a1.727,1.727,0,0,0,0-2.442l-5.18-5.18a1.727,1.727,0,0,0-2.442,2.442l2.232,2.232h-1.011a8.644,8.644,0,0,0-8.634,8.634V89.9a5.186,5.186,0,0,1-5.18,5.18h-8.634a1.727,1.727,0,1,0,0,3.453Z" transform="translate(-222.099 -57.093)" fill="#e22526"/>
      <path id="Trazado_1014312" data-name="Trazado 1014312" d="M273.4,309.227a1.727,1.727,0,0,0-2.442,2.442l2.232,2.232h-1.011a5.186,5.186,0,0,1-5.18-5.18V296.634A8.644,8.644,0,0,0,258.36,288h-8.634a1.727,1.727,0,0,0,0,3.453h8.634a5.186,5.186,0,0,1,5.18,5.18v12.087a8.644,8.644,0,0,0,8.634,8.634h1.011l-2.232,2.232a1.727,1.727,0,0,0,2.442,2.442l5.18-5.18a1.727,1.727,0,0,0,0-2.442Z" transform="translate(-222.099 -232.744)" fill="#e22526"/>
    </g>
    <path id="Trazado_1014313" data-name="Trazado 1014313" d="M418.994,20.721v-.3a5.189,5.189,0,0,0,3.453-4.884,1.727,1.727,0,0,0,1.727-1.727V5.18a1.727,1.727,0,0,0-.506-1.221L420.215.505a1.727,1.727,0,0,0-1.993-.323L415.34,1.623,409.053.051a1.724,1.724,0,0,0-1.191.131l-6.907,3.453A1.727,1.727,0,0,0,400,5.18v8.634a1.727,1.727,0,0,0,1.727,1.727,5.189,5.189,0,0,0,3.453,4.884v.3a1.727,1.727,0,0,0,.182.772l.764,1.528-4.819,1.2A1.726,1.726,0,0,0,400,25.9v8.634a1.727,1.727,0,0,0,1.727,1.727h20.721a1.727,1.727,0,0,0,1.727-1.727V25.9a1.726,1.726,0,0,0-1.308-1.675l-4.819-1.2.764-1.528a1.727,1.727,0,0,0,.182-.772ZM403.454,6.247l5.381-2.691,6.287,1.572A1.727,1.727,0,0,0,416.313,5l2.34-1.17,2.068,2.068v6.192h-3.454V10.36a1.727,1.727,0,0,0-2.948-1.221l-4.3,4.3-2.34-1.17a1.727,1.727,0,0,0-.772-.182h-3.453Zm8.634,25.845-1.352-1.353,1.352-2.7,1.352,2.7Zm-8.634-4.844,5.393-1.348h.447l-2.2,4.408a1.727,1.727,0,0,0,.323,1.993l.506.506h-4.465Zm17.267,5.559h-4.465l.506-.506a1.727,1.727,0,0,0,.323-1.993l-2.2-4.408h.447l5.393,1.348Zm-3.454-15.541a1.727,1.727,0,0,0-1.727,1.727v1.319l-1.067,2.134H409.7l-1.067-2.134V18.994a1.727,1.727,0,0,0-1.727-1.727,1.729,1.729,0,0,1-1.727-1.727H406.5l3.089,1.544a1.727,1.727,0,0,0,1.993-.323l2.342-2.342a1.727,1.727,0,0,0,1.617,1.121h3.453a1.729,1.729,0,0,1-1.727,1.727Z" transform="translate(-313.663 0)"/>
    <path id="Trazado_1014314" data-name="Trazado 1014314" d="M422.993,208.263l-2.556-.852a10.4,10.4,0,0,0-1.017-13.477,9.853,9.853,0,0,0-.824-.728,6.907,6.907,0,1,0-13.016.01,10.36,10.36,0,0,0-1.844,14.2l-2.557.852A1.727,1.727,0,0,0,400,209.9v8.634a1.727,1.727,0,0,0,1.727,1.727h20.721a1.727,1.727,0,0,0,1.727-1.727V209.9a1.727,1.727,0,0,0-1.181-1.638Zm-7.453-.8-.715.715h-5.477l-.715-.715v-2.738a5.079,5.079,0,0,0,3.449-1.326,5.159,5.159,0,0,0,3.458,1.326Zm-1.976,7.156-1.478,1.478-1.478-1.478,1-2.987h.964Zm-1.478-27.161a3.442,3.442,0,0,1,3.4,4.025,10.434,10.434,0,0,0-6.808,0,3.442,3.442,0,0,1,3.4-4.024Zm-3.441,7.825a6.906,6.906,0,0,1,6.892.006,6.812,6.812,0,0,1,3.456,5.983,6.985,6.985,0,0,1-.1,1.157,1.727,1.727,0,0,0-1.631-1.157H415.54a1.729,1.729,0,0,1-1.727-1.727,1.727,1.727,0,0,0-3.454,0,1.652,1.652,0,0,1-.5,1.2l-.034.034a1.652,1.652,0,0,1-1.2.5h-1.727a1.728,1.728,0,0,0-1.631,1.157,6.989,6.989,0,0,1-.1-1.157,6.858,6.858,0,0,1,3.466-5.989Zm-5.193,15.867,2.987-1,.972.972a1.726,1.726,0,0,0,.592.386L407,214.535a1.727,1.727,0,0,0,.417,1.767l.506.506h-4.465Zm17.267,5.663h-4.465l.506-.506a1.727,1.727,0,0,0,.417-1.767l-1.009-3.027a1.726,1.726,0,0,0,.592-.386l.972-.972,2.987,1Z" transform="translate(-313.663 -144.285)"/>
    <path id="Trazado_1014315" data-name="Trazado 1014315" d="M88.634,248H81.727A1.727,1.727,0,0,0,80,249.727v6.907a1.727,1.727,0,0,0,1.727,1.727h6.907a1.727,1.727,0,0,0,1.727-1.727v-6.907A1.727,1.727,0,0,0,88.634,248Zm-1.727,6.907H83.453v-3.453h3.453Z" transform="translate(-62.733 -194.471)"/>
    <path id="Trazado_1014316" data-name="Trazado 1014316" d="M65.067,210.539l-6.358-5.929v-8.349a1.727,1.727,0,0,0-.506-1.221l-5.18-5.18a1.727,1.727,0,0,0-1.221-.506H48.349V170.36a1.727,1.727,0,0,0-1.727-1.727h-7.2a5.188,5.188,0,0,0-4.883-3.453,5.205,5.205,0,0,0-5.18-5.18,5.186,5.186,0,0,0-5.18,5.18,5.189,5.189,0,0,0-4.883,3.453h-7.2a1.727,1.727,0,0,0-1.727,1.727v18.994H6.907a1.727,1.727,0,0,0-1.221.506l-5.18,5.18A1.727,1.727,0,0,0,0,196.261v37.988a1.727,1.727,0,0,0,1.727,1.727h10.36a1.727,1.727,0,0,0,1.727-1.727v-10.36H44.9v10.36a1.727,1.727,0,0,0,1.727,1.727h10.36a1.727,1.727,0,0,0,1.727-1.727V216.005l.548.512a1.727,1.727,0,0,0,2.4-.04l3.453-3.453a1.727,1.727,0,0,0-.043-2.484Zm-9.811-13.563v4.411l-7.141-6.665a5.227,5.227,0,0,0-1.093-1.915h4.066Zm-7.919,13.1-5.9-5.9v-9.645h1.727c.059,0,.119,0,.153,0l.028,0a1.811,1.811,0,0,1,1.5,1.29l.05,6.541a1.727,1.727,0,0,0,.548,1.249l6.917,6.456ZM38.146,192.09l-1.885-1.759v-.976h1.047l1.927,1.8A1.729,1.729,0,0,0,38.146,192.09Zm-15.7-21.73a1.729,1.729,0,0,1,1.727-1.727H25.9a1.727,1.727,0,0,0,1.727-1.727V165.18a1.729,1.729,0,0,1,1.727-1.727,1.652,1.652,0,0,1,1.2.5l.034.034a1.652,1.652,0,0,1,.5,1.2v1.727a1.727,1.727,0,0,0,1.727,1.727h1.727a1.729,1.729,0,0,1,1.727,1.727v1.727H22.448ZM3.453,196.976l4.169-4.169H10.36v8.634a1.727,1.727,0,1,0,3.453,0,1.729,1.729,0,0,1,1.727-1.727h1.727v6.192l-5.9,5.9H3.453Zm17.267,13.1h3.453v3.453H20.721ZM3.453,232.523V215.255H10.36v17.267Zm10.36-12.087v-6.192l3.453-3.453v4.465a1.727,1.727,0,0,0,1.727,1.727H25.9a1.727,1.727,0,0,0,1.727-1.727v-6.907a1.727,1.727,0,0,0-1.727-1.727h-5.18v-3.453H25.9a1.727,1.727,0,0,0,1.727-1.727v-6.907a1.727,1.727,0,0,0-1.727-1.727H18.994a1.727,1.727,0,0,0-1.727,1.727v1.727H15.541a5.157,5.157,0,0,0-1.727.3v-24.47h5.18v1.727a1.727,1.727,0,0,0,1.727,1.727H37.988a1.727,1.727,0,0,0,1.727-1.727v-1.727H44.9v19.294a5.225,5.225,0,0,0-.511-.153l-5.219-4.864a1.727,1.727,0,0,0-1.177-.464H34.535a1.727,1.727,0,0,0-1.727,1.727v3.453a1.727,1.727,0,0,0,.548,1.262l4.632,4.323v8.229a1.727,1.727,0,0,0,.506,1.221l6.4,6.4v7.918Zm6.907-20.721v-3.453h3.453v3.453Zm34.535,32.808H48.349V213.528h6.907Zm5.14-19.669L57.92,210.54h0L48.343,201.6l-.015-1.955,7.477,6.978,5.6,5.221Z" transform="translate(0 -125.465)"/>
    <path id="Trazado_1014317" data-name="Trazado 1014317" d="M145.727,251.453h6.907a1.727,1.727,0,1,0,0-3.453h-6.907a1.727,1.727,0,1,0,0,3.453Z" transform="translate(-112.919 -194.471)"/>
    <path id="Trazado_1014318" data-name="Trazado 1014318" d="M145.727,339.453h1.727a1.727,1.727,0,0,0,0-3.453h-1.727a1.727,1.727,0,0,0,0,3.453Z" transform="translate(-112.919 -263.477)"/>
    <path id="Trazado_1014319" data-name="Trazado 1014319" d="M152.634,408h-6.907a1.727,1.727,0,1,0,0,3.453h6.907a1.727,1.727,0,0,0,0-3.453Z" transform="translate(-112.919 -319.937)"/>
    <path id="Trazado_1014320" data-name="Trazado 1014320" d="M79.541,31.081A15.541,15.541,0,1,1,95.081,15.541,15.558,15.558,0,0,1,79.541,31.081Zm0-27.628A12.087,12.087,0,1,0,91.628,15.541,12.1,12.1,0,0,0,79.541,3.453Z" transform="translate(-50.186 0)"/>
    <path id="Trazado_1014321" data-name="Trazado 1014321" d="M133.18,42.36h-3.453A1.727,1.727,0,0,1,128,40.634V33.727a1.727,1.727,0,1,1,3.453,0v5.18h1.727a1.727,1.727,0,0,1,0,3.453Z" transform="translate(-100.372 -25.093)"/>
    <path id="Trazado_1014322" data-name="Trazado 1014322" d="M273.4,224.506a1.727,1.727,0,0,0-2.442,2.442l2.233,2.232H249.727a1.727,1.727,0,1,0,0,3.454h23.459l-2.233,2.232a1.727,1.727,0,0,0,2.442,2.442l5.18-5.18a1.727,1.727,0,0,0,0-2.442Z" transform="translate(-194.471 -175.652)"/>
    <path id="Trazado_1014323" data-name="Trazado 1014323" d="M249.727,98.535h8.634a8.644,8.644,0,0,0,8.634-8.634V77.814a5.186,5.186,0,0,1,5.18-5.18h1.011l-2.233,2.232a1.727,1.727,0,0,0,2.442,2.442l5.18-5.18a1.727,1.727,0,0,0,0-2.442l-5.18-5.18a1.727,1.727,0,0,0-2.442,2.442l2.232,2.232h-1.011a8.644,8.644,0,0,0-8.634,8.634V89.9a5.186,5.186,0,0,1-5.18,5.18h-8.634a1.727,1.727,0,1,0,0,3.453Z" transform="translate(-194.471 -50.187)"/>
    <path id="Trazado_1014324" data-name="Trazado 1014324" d="M273.4,309.227a1.727,1.727,0,0,0-2.442,2.442l2.232,2.232h-1.011a5.186,5.186,0,0,1-5.18-5.18V296.634A8.644,8.644,0,0,0,258.36,288h-8.634a1.727,1.727,0,0,0,0,3.453h8.634a5.186,5.186,0,0,1,5.18,5.18v12.087a8.644,8.644,0,0,0,8.634,8.634h1.011l-2.232,2.232a1.727,1.727,0,0,0,2.442,2.442l5.18-5.18a1.727,1.727,0,0,0,0-2.442Z" transform="translate(-194.471 -225.838)"/>
    <path id="Trazado_1014325" data-name="Trazado 1014325" d="M423.22,387.177l-2.5-1.25v-.746a4.317,4.317,0,0,0,0-8.46v-3.541a5.186,5.186,0,0,0-5.18-5.18h-6.907a5.186,5.186,0,0,0-5.18,5.18v3.54a4.318,4.318,0,0,0,0,8.46v.746l-2.5,1.25a1.727,1.727,0,0,0-.954,1.544v8.634a1.727,1.727,0,0,0,1.727,1.727h20.721a1.727,1.727,0,0,0,1.727-1.727v-8.634A1.727,1.727,0,0,0,423.22,387.177Zm-16.313-14a1.729,1.729,0,0,1,1.727-1.727h6.907a1.729,1.729,0,0,1,1.727,1.727v2.969l-10.36-2.59Zm-2.59,6.907h.863a1.727,1.727,0,0,0,1.727-1.727v-1.242l11.668,2.917a1.718,1.718,0,0,0,.419.052h.863a.863.863,0,0,1,0,1.727h-.863a1.727,1.727,0,0,0-1.727,1.727v2.738l-.715.715h-8.93l-.715-.715v-2.738a1.727,1.727,0,0,0-1.727-1.727h-.863a.863.863,0,0,1,0-1.727Zm9.248,13.348-1.478,1.478-1.478-1.478,1-2.987h.964Zm-10.112-3.647,1.386-.693.847.847a1.727,1.727,0,0,0,1.221.506h1.058L407,393.355a1.727,1.727,0,0,0,.417,1.767l.506.506h-4.465Zm17.267,5.84h-4.465l.506-.506a1.727,1.727,0,0,0,.417-1.767l-.969-2.907h1.058a1.727,1.727,0,0,0,1.221-.506l.847-.847,1.386.693Z" transform="translate(-313.663 -288.57)"/>
  </g>
</svg>
