<svg xmlns="http://www.w3.org/2000/svg" width="100" height="100" viewBox="0 0 100 100">
  <g id="Grupo_1180971" data-name="Grupo 1180971" transform="translate(-637 -6992)">
    <g id="Grupo_1098742" data-name="Grupo 1098742" transform="translate(637.242 6992)">
      <rect id="Rectángulo_400898" data-name="Rectángulo 400898" width="100" height="100" rx="50" transform="translate(-0.242)" fill="#fff" opacity="0.859"/>
      <g id="Rectángulo_400907" data-name="Rectángulo 400907" transform="translate(-0.242)" fill="none" stroke="#c8bf57" stroke-linecap="round" stroke-width="3" stroke-dasharray="0 7">
        <rect width="100" height="100" rx="50" stroke="none"/>
        <rect x="1.5" y="1.5" width="97" height="97" rx="48.5" fill="none"/>
      </g>
    </g>
    <g id="Grupo_1107006" data-name="Grupo 1107006" transform="translate(645.398 7000.157)">
      <rect id="Rectángulo_400898-2" data-name="Rectángulo 400898" width="84" height="84" rx="42" transform="translate(-0.399 -0.157)" fill="#405425"/>
      <rect id="Rectángulo_400907-2" data-name="Rectángulo 400907" width="84" height="84" rx="42" transform="translate(-0.398 -0.157)" fill="none"/>
    </g>
    <g id="Grupo_1181204" data-name="Grupo 1181204" transform="translate(658.85 7013.85)">
      <g id="Grupo_1181202" data-name="Grupo 1181202" transform="translate(0.829 0.829)">
        <g id="Grupo_1181201" data-name="Grupo 1181201">
          <g id="Grupo_1181160" data-name="Grupo 1181160" transform="translate(6.4 6.4)">
            <g id="Grupo_1181151" data-name="Grupo 1181151">
              <g id="Grupo_1181148" data-name="Grupo 1181148">
                <g id="Grupo_1181147" data-name="Grupo 1181147">
                  <path id="Trazado_1013082" data-name="Trazado 1013082" d="M78.345,67.465c7.109,7.109,2.707,11.809,1.817,12.7s-5.59,5.292-12.7-1.817C64.527,75.408,65.057,68.952,67,67S75.408,64.527,78.345,67.465Z" transform="translate(-65.402 -65.402)" fill="#e0d3ce"/>
                  <path id="Trazado_1013083" data-name="Trazado 1013083" d="M113.71,80.16a7.013,7.013,0,0,1-7.834,1.593,7.634,7.634,0,0,0,2.3-1.593c.889-.89,5.291-5.59-1.818-12.7a6.982,6.982,0,0,0-3.243-1.73c2.763-.7,6.671-.374,8.774,1.73C119,74.57,114.6,79.27,113.71,80.16Z" transform="translate(-98.949 -65.399)" fill="#b9acac"/>
                  <g id="Grupo_1181146" data-name="Grupo 1181146" transform="translate(4.638 4.639)">
                    <g id="Grupo_1181144" data-name="Grupo 1181144">
                      <path id="Trazado_1013084" data-name="Trazado 1013084" d="M118.975,109.4a7.247,7.247,0,0,1-9.576,9.576c-2.6-3.016-2.743-7.286-.227-9.8S115.959,106.8,118.975,109.4Z" transform="translate(-107.364 -107.363)" fill="#f8c52d"/>
                    </g>
                    <g id="Grupo_1181145" data-name="Grupo 1181145" transform="translate(0.783 0)">
                      <path id="Trazado_1013085" data-name="Trazado 1013085" d="M125.276,109.4c-3.015-2.6-7.286-2.744-9.8-.227a6.03,6.03,0,0,0-1.026,1.368,7.544,7.544,0,0,1,8.433,1.253,6.95,6.95,0,0,1-.42,6.76,7.781,7.781,0,0,0,1.326-1.069A7.03,7.03,0,0,0,125.276,109.4Z" transform="translate(-114.448 -107.363)" fill="#fca62f"/>
                    </g>
                  </g>
                </g>
              </g>
              <g id="Grupo_1181150" data-name="Grupo 1181150" transform="translate(24.919 24.919)">
                <g id="Grupo_1181149" data-name="Grupo 1181149">
                  <path id="Trazado_1013086" data-name="Trazado 1013086" d="M294.818,305.7c-7.109-7.109-2.707-11.809-1.817-12.7s5.59-5.292,12.7,1.817c2.938,2.938,2.407,9.394.46,11.341S297.755,308.636,294.818,305.7Z" transform="translate(-290.838 -290.837)" fill="#e0d3ce"/>
                  <path id="Trazado_1013087" data-name="Trazado 1013087" d="M329.839,294.818c-5.835-5.835-10.047-3.914-11.861-2.547,2.11-.129,4.859.713,8.113,3.967,2.938,2.937,2.407,9.393.461,11.341-.03.03-.06.059-.092.087a6.862,6.862,0,0,0,3.838-1.508C332.246,304.212,332.777,297.756,329.839,294.818Z" transform="translate(-314.978 -290.838)" fill="#b9acac"/>
                  <path id="Trazado_1013088" data-name="Trazado 1013088" d="M301.086,291.51c2.6,3.016,2.743,7.286.227,9.8s-6.787,2.375-9.8-.227a7.247,7.247,0,0,1,9.576-9.576Z" transform="translate(-290.837 -290.837)" fill="#f8c52d"/>
                  <path id="Trazado_1013089" data-name="Trazado 1013089" d="M334.362,291.51a7.207,7.207,0,0,0-4.847-.438,8.82,8.82,0,0,1,1.279.438c2.6,3.015,2.743,7.285.227,9.8a6.1,6.1,0,0,1-2.772,1.584,6.6,6.6,0,0,0,6.34-1.584C337.105,298.8,336.964,294.525,334.362,291.51Z" transform="translate(-324.113 -290.836)" fill="#fca62f"/>
                </g>
              </g>
            </g>
            <g id="Grupo_1181159" data-name="Grupo 1181159" transform="translate(0 0)">
              <g id="Grupo_1181156" data-name="Grupo 1181156" transform="translate(0 24.919)">
                <g id="Grupo_1181155" data-name="Grupo 1181155">
                  <path id="Trazado_1013090" data-name="Trazado 1013090" d="M67.464,294.818c7.109-7.109,11.809-2.707,12.7-1.817s5.292,5.59-1.817,12.7c-2.938,2.938-9.394,2.407-11.341.46S64.527,297.755,67.464,294.818Z" transform="translate(-65.403 -290.838)" fill="#e0d3ce"/>
                  <path id="Trazado_1013091" data-name="Trazado 1013091" d="M111.892,305.7c-2.1,2.1-6.011,2.43-8.774,1.73a6.982,6.982,0,0,0,3.243-1.73c7.11-7.109,2.707-11.809,1.818-12.7a7.634,7.634,0,0,0-2.3-1.593A7.013,7.013,0,0,1,113.71,293C114.6,293.889,119,298.589,111.892,305.7Z" transform="translate(-98.949 -290.837)" fill="#b9acac"/>
                  <g id="Grupo_1181154" data-name="Grupo 1181154" transform="translate(4.638)">
                    <g id="Grupo_1181152" data-name="Grupo 1181152">
                      <path id="Trazado_1013092" data-name="Trazado 1013092" d="M109.4,291.51a7.247,7.247,0,0,1,9.576,9.576c-3.016,2.6-7.286,2.743-9.8.227S106.8,294.526,109.4,291.51Z" transform="translate(-107.363 -290.837)" fill="#99d980"/>
                    </g>
                    <g id="Grupo_1181153" data-name="Grupo 1181153" transform="translate(0.783 1.093)">
                      <path id="Trazado_1013093" data-name="Trazado 1013093" d="M125.276,309.884c-3.015,2.6-7.286,2.743-9.8.227a6.03,6.03,0,0,1-1.026-1.368,7.544,7.544,0,0,0,8.433-1.253,6.95,6.95,0,0,0-.42-6.76,7.782,7.782,0,0,1,1.326,1.069A7.031,7.031,0,0,1,125.276,309.884Z" transform="translate(-114.448 -300.728)" fill="#6bc94d"/>
                    </g>
                  </g>
                </g>
              </g>
              <g id="Grupo_1181158" data-name="Grupo 1181158" transform="translate(24.919)">
                <g id="Grupo_1181157" data-name="Grupo 1181157">
                  <path id="Trazado_1013094" data-name="Trazado 1013094" d="M305.7,78.345c-7.109,7.109-11.809,2.707-12.7,1.817s-5.292-5.59,1.817-12.7c2.938-2.938,9.394-2.407,11.341-.46S308.636,75.407,305.7,78.345Z" transform="translate(-290.838 -65.402)" fill="#e0d3ce"/>
                  <path id="Trazado_1013095" data-name="Trazado 1013095" d="M329.839,79.107c-5.835,5.835-10.047,3.914-11.861,2.547,2.11.129,4.859-.713,8.113-3.967,2.938-2.937,2.407-9.393.461-11.341-.03-.03-.06-.059-.092-.087a6.862,6.862,0,0,1,3.838,1.508C332.246,69.712,332.777,76.169,329.839,79.107Z" transform="translate(-314.978 -66.163)" fill="#b9acac"/>
                  <path id="Trazado_1013096" data-name="Trazado 1013096" d="M291.51,109.4c3.016-2.6,7.286-2.743,9.8-.227s2.375,6.787-.227,9.8a7.247,7.247,0,0,1-9.576-9.576Z" transform="translate(-290.837 -102.726)" fill="#99d980"/>
                  <path id="Trazado_1013097" data-name="Trazado 1013097" d="M334.362,118.975a7.208,7.208,0,0,1-4.847.438,8.824,8.824,0,0,0,1.279-.438c2.6-3.015,2.743-7.286.227-9.8a6.1,6.1,0,0,0-2.772-1.584,6.6,6.6,0,0,1,6.34,1.584C337.105,111.689,336.964,115.959,334.362,118.975Z" transform="translate(-324.113 -102.725)" fill="#6bc94d"/>
                </g>
              </g>
            </g>
          </g>
          <g id="Grupo_1181167" data-name="Grupo 1181167" transform="translate(19.627)">
            <g id="Grupo_1181164" data-name="Grupo 1181164">
              <g id="Grupo_1181163" data-name="Grupo 1181163">
                <path id="Trazado_1013098" data-name="Trazado 1013098" d="M200.45,15.845c0,10.053-6.436,10.264-7.694,10.264s-7.694-.211-7.694-10.264c0-4.154,4.941-8.345,7.694-8.345s7.694,4.19,7.694,8.345Z" transform="translate(-185.062 -7.5)" fill="#f8f3f1"/>
                <path id="Trazado_1013099" data-name="Trazado 1013099" d="M244.564,15.842c0,10.054-6.437,10.264-7.694,10.264a7.693,7.693,0,0,1-2.212-.316c2.325-.693,5.482-2.906,5.482-9.948,0-3.177-2.889-6.376-5.482-7.7a5.057,5.057,0,0,1,2.212-.64C239.623,7.5,244.564,11.688,244.564,15.842Z" transform="translate(-229.176 -7.498)" fill="#e0d3ce"/>
                <g id="Grupo_1181161" data-name="Grupo 1181161" transform="translate(0.923 6.852)">
                  <path id="Trazado_1013100" data-name="Trazado 1013100" d="M206.951,76.58a7.247,7.247,0,0,1-13.543,0c.293-3.973,3.212-7.092,6.772-7.092S206.658,72.607,206.951,76.58Z" transform="translate(-193.408 -69.488)" fill="#5591d6"/>
                </g>
                <g id="Grupo_1181162" data-name="Grupo 1181162" transform="translate(5.482 6.852)">
                  <path id="Trazado_1013101" data-name="Trazado 1013101" d="M243.641,76.58a7.03,7.03,0,0,1-6.771,4.665,7.7,7.7,0,0,1-2.212-.316,6.972,6.972,0,0,0,4.559-4.349,7.652,7.652,0,0,0-4.559-6.672,6.035,6.035,0,0,1,2.212-.42C240.429,69.488,243.348,72.607,243.641,76.58Z" transform="translate(-234.658 -69.488)" fill="#1475cb"/>
                </g>
              </g>
            </g>
            <g id="Grupo_1181166" data-name="Grupo 1181166" transform="translate(0 36.034)">
              <g id="Grupo_1181165" data-name="Grupo 1181165">
                <path id="Trazado_1013102" data-name="Trazado 1013102" d="M185.062,343.75c0-10.053,6.436-10.264,7.694-10.264s7.694.211,7.694,10.264c0,4.154-4.941,8.345-7.694,8.345S185.062,347.9,185.062,343.75Z" transform="translate(-185.062 -333.486)" fill="#f8f3f1"/>
                <path id="Trazado_1013103" data-name="Trazado 1013103" d="M244.564,343.752c0,4.154-4.941,8.344-7.694,8.344a5.057,5.057,0,0,1-2.212-.64c2.592-1.329,5.482-4.528,5.482-7.7,0-7.042-3.157-9.255-5.482-9.948a7.693,7.693,0,0,1,2.212-.316C238.128,333.488,244.564,333.7,244.564,343.752Z" transform="translate(-229.176 -333.488)" fill="#e0d3ce"/>
                <path id="Trazado_1013104" data-name="Trazado 1013104" d="M206.951,338.153c-.293,3.973-3.212,7.092-6.772,7.092s-6.479-3.119-6.772-7.092a7.247,7.247,0,0,1,13.543,0Z" transform="translate(-192.485 -333.488)" fill="#5591d6"/>
                <path id="Trazado_1013105" data-name="Trazado 1013105" d="M243.641,338.153c-.293,3.973-3.212,7.092-6.771,7.092a6.035,6.035,0,0,1-2.212-.42,7.652,7.652,0,0,0,4.559-6.672,6.972,6.972,0,0,0-4.559-4.349,7.7,7.7,0,0,1,2.212-.316A7.03,7.03,0,0,1,243.641,338.153Z" transform="translate(-229.176 -333.488)" fill="#1475cb"/>
              </g>
            </g>
          </g>
          <g id="Grupo_1181175" data-name="Grupo 1181175" transform="translate(0 19.627)">
            <g id="Grupo_1181171" data-name="Grupo 1181171">
              <g id="Grupo_1181170" data-name="Grupo 1181170">
                <path id="Trazado_1013106" data-name="Trazado 1013106" d="M15.845,185.062c10.053,0,10.264,6.436,10.264,7.694s-.211,7.694-10.264,7.694c-4.154,0-8.345-4.941-8.345-7.694s4.19-7.694,8.345-7.694Z" transform="translate(-7.5 -185.062)" fill="#f8f3f1"/>
                <path id="Trazado_1013107" data-name="Trazado 1013107" d="M80.284,192.753c0,1.258-.21,7.695-10.264,7.695a5.843,5.843,0,0,1-1.612-.235,8.44,8.44,0,0,0,.119-14.951,5.833,5.833,0,0,1,1.492-.2C80.074,185.058,80.284,191.495,80.284,192.753Z" transform="translate(-61.675 -185.058)" fill="#e0d3ce"/>
                <g id="Grupo_1181169" data-name="Grupo 1181169" transform="translate(6.852 0.923)">
                  <g id="Grupo_1181168" data-name="Grupo 1181168">
                    <path id="Trazado_1013108" data-name="Trazado 1013108" d="M76.58,193.408a7.247,7.247,0,0,1,0,13.543c-3.973-.293-7.092-3.212-7.092-6.772s3.119-6.479,7.092-6.771Z" transform="translate(-69.488 -193.408)" fill="#fb4a59"/>
                  </g>
                  <path id="Trazado_1013109" data-name="Trazado 1013109" d="M98.15,193.408a8.31,8.31,0,0,0-4.364,1.6,8.435,8.435,0,0,1-.047,10.312,8.3,8.3,0,0,0,4.412,1.633,7.247,7.247,0,0,0,0-13.543Z" transform="translate(-91.057 -193.408)" fill="#e22334"/>
                </g>
              </g>
            </g>
            <g id="Grupo_1181174" data-name="Grupo 1181174" transform="translate(36.034 0)">
              <g id="Grupo_1181173" data-name="Grupo 1181173">
                <path id="Trazado_1013110" data-name="Trazado 1013110" d="M343.75,200.45c-10.053,0-10.264-6.436-10.264-7.694s.211-7.694,10.264-7.694c4.154,0,8.345,4.941,8.345,7.694S347.9,200.45,343.75,200.45Z" transform="translate(-333.486 -185.062)" fill="#f8f3f1"/>
                <path id="Trazado_1013111" data-name="Trazado 1013111" d="M414.27,192.753c0,2.753-4.19,7.694-8.344,7.694a19.74,19.74,0,0,1-2.538-.155c3.684-.856,7.043-5.075,7.043-7.54s-3.359-6.684-7.043-7.54a19.74,19.74,0,0,1,2.538-.155C410.08,185.058,414.27,190,414.27,192.753Z" transform="translate(-395.661 -185.058)" fill="#e0d3ce"/>
                <g id="Grupo_1181172" data-name="Grupo 1181172" transform="translate(0 0.923)">
                  <path id="Trazado_1013112" data-name="Trazado 1013112" d="M338.153,193.408c3.973.293,7.092,3.212,7.092,6.772s-3.119,6.479-7.092,6.772a7.247,7.247,0,0,1,0-13.543Z" transform="translate(-333.488 -193.408)" fill="#fb4a59"/>
                  <path id="Trazado_1013113" data-name="Trazado 1013113" d="M374.3,200.18c0,3.559-3.119,6.479-7.092,6.772a8.8,8.8,0,0,1-1.053-.5,6.51,6.51,0,0,0,0-12.535,8.8,8.8,0,0,1,1.053-.5C371.184,193.7,374.3,196.62,374.3,200.18Z" transform="translate(-362.547 -193.408)" fill="#e22334"/>
                </g>
              </g>
            </g>
          </g>
          <g id="Grupo_1181176" data-name="Grupo 1181176" transform="translate(13.062 13.062)">
            <circle id="Elipse_13806" data-name="Elipse 13806" cx="14.259" cy="14.259" r="14.259" fill="#e0d3ce"/>
          </g>
          <g id="Grupo_1181177" data-name="Grupo 1181177" transform="translate(24.944 13.062)">
            <path id="Trazado_1013114" data-name="Trazado 1013114" d="M249.795,139.927a14.269,14.269,0,0,1-16.637,14.061,14.262,14.262,0,0,0,0-28.123,14.269,14.269,0,0,1,16.637,14.061Z" transform="translate(-233.158 -125.668)" fill="#b9acac"/>
          </g>
          <g id="Grupo_1181200" data-name="Grupo 1181200" transform="translate(16.844 16.845)">
            <g id="Grupo_1181198" data-name="Grupo 1181198">
              <g id="Grupo_1181182" data-name="Grupo 1181182" transform="translate(8.634)">
                <g id="Grupo_1181179" data-name="Grupo 1181179">
                  <g id="Grupo_1181178" data-name="Grupo 1181178">
                    <ellipse id="Elipse_13807" data-name="Elipse 13807" cx="1.843" cy="5.214" rx="1.843" ry="5.214" fill="#fddd45"/>
                  </g>
                </g>
                <g id="Grupo_1181181" data-name="Grupo 1181181" transform="translate(0 10.525)">
                  <g id="Grupo_1181180" data-name="Grupo 1181180">
                    <ellipse id="Elipse_13808" data-name="Elipse 13808" cx="1.843" cy="5.214" rx="1.843" ry="5.214" fill="#fddd45"/>
                  </g>
                </g>
              </g>
              <g id="Grupo_1181187" data-name="Grupo 1181187" transform="translate(1.76 1.767)">
                <g id="Grupo_1181184" data-name="Grupo 1181184" transform="translate(7.442)">
                  <g id="Grupo_1181183" data-name="Grupo 1181183">
                    <ellipse id="Elipse_13809" data-name="Elipse 13809" cx="5.214" cy="1.843" rx="5.214" ry="1.843" transform="translate(0 7.373) rotate(-45)" fill="#fddd45"/>
                  </g>
                </g>
                <g id="Grupo_1181186" data-name="Grupo 1181186" transform="translate(0 7.441)">
                  <g id="Grupo_1181185" data-name="Grupo 1181185">
                    <ellipse id="Elipse_13810" data-name="Elipse 13810" cx="5.214" cy="1.843" rx="5.214" ry="1.843" transform="translate(0 7.373) rotate(-45)" fill="#fddd45"/>
                  </g>
                </g>
              </g>
              <g id="Grupo_1181192" data-name="Grupo 1181192" transform="translate(0 8.634)">
                <g id="Grupo_1181189" data-name="Grupo 1181189" transform="translate(10.525)">
                  <g id="Grupo_1181188" data-name="Grupo 1181188">
                    <ellipse id="Elipse_13811" data-name="Elipse 13811" cx="5.214" cy="1.843" rx="5.214" ry="1.843" fill="#fddd45"/>
                  </g>
                </g>
                <g id="Grupo_1181191" data-name="Grupo 1181191">
                  <g id="Grupo_1181190" data-name="Grupo 1181190">
                    <ellipse id="Elipse_13812" data-name="Elipse 13812" cx="5.214" cy="1.843" rx="5.214" ry="1.843" fill="#fddd45"/>
                  </g>
                </g>
              </g>
              <g id="Grupo_1181197" data-name="Grupo 1181197" transform="translate(1.761 1.766)">
                <g id="Grupo_1181194" data-name="Grupo 1181194" transform="translate(7.441 7.442)">
                  <g id="Grupo_1181193" data-name="Grupo 1181193" transform="translate(0)">
                    <ellipse id="Elipse_13813" data-name="Elipse 13813" cx="1.843" cy="5.214" rx="1.843" ry="5.214" transform="translate(0 2.606) rotate(-45)" fill="#fddd45"/>
                  </g>
                </g>
                <g id="Grupo_1181196" data-name="Grupo 1181196" transform="translate(0)">
                  <g id="Grupo_1181195" data-name="Grupo 1181195">
                    <ellipse id="Elipse_13814" data-name="Elipse 13814" cx="1.843" cy="5.214" rx="1.843" ry="5.214" transform="translate(0 2.606) rotate(-45)" fill="#fddd45"/>
                  </g>
                </g>
              </g>
            </g>
            <g id="Grupo_1181199" data-name="Grupo 1181199" transform="translate(5.603 5.603)">
              <circle id="Elipse_13815" data-name="Elipse 13815" cx="4.874" cy="4.874" r="4.874" fill="#6bc94d"/>
              <path id="Trazado_1013115" data-name="Trazado 1013115" d="M243.949,215.452a4.877,4.877,0,0,1-6.811,4.473,4.875,4.875,0,0,0,0-8.947,4.877,4.877,0,0,1,6.811,4.473Z" transform="translate(-234.202 -210.577)" fill="#4ba72d"/>
            </g>
          </g>
        </g>
      </g>
      <g id="Grupo_1181203" data-name="Grupo 1181203" transform="translate(0 0)">
        <path id="Trazado_1013116" data-name="Trazado 1013116" d="M56.3,28.15c0-1.6-1.094-3.689-2.855-5.464a10.193,10.193,0,0,0-5.039-2.926,9.116,9.116,0,0,0,1.344-3.64.829.829,0,1,0-1.638-.259,6.809,6.809,0,0,1-1.69,3.725l-.056.055q-.642.021-1.248.078a7.363,7.363,0,0,0-1.909-6.629,7.4,7.4,0,0,0-6.629-1.909q.058-.606.079-1.248l.055-.055a7.674,7.674,0,0,1,5.453-1.819c2.016.008,3.911.554,4.716,1.359a5.866,5.866,0,0,1,1.231,3.071.829.829,0,1,0,1.639-.253,7.273,7.273,0,0,0-1.7-3.99C46.928,7.117,44.674,6.41,42.174,6.4h-.052A10.165,10.165,0,0,0,36.54,7.9a10.191,10.191,0,0,0-2.927-5.042C31.839,1.094,29.745,0,28.15,0s-3.689,1.094-5.464,2.855A10.191,10.191,0,0,0,19.76,7.9a10.164,10.164,0,0,0-5.581-1.5h-.052c-2.5.01-4.754.717-5.882,1.845S6.41,11.627,6.4,14.127A10.187,10.187,0,0,0,7.9,19.76a10.191,10.191,0,0,0-5.042,2.927C1.094,24.462,0,26.555,0,28.15s1.094,3.689,2.855,5.464A10.191,10.191,0,0,0,7.9,36.54a10.187,10.187,0,0,0-1.5,5.633c.01,2.5.717,4.754,1.845,5.882s3.382,1.835,5.882,1.845h.052a10.163,10.163,0,0,0,5.581-1.5,10.191,10.191,0,0,0,2.927,5.042c1.775,1.761,3.868,2.855,5.464,2.855s3.689-1.094,5.464-2.855a10.194,10.194,0,0,0,2.926-5.037,8.443,8.443,0,0,0,2.519,1.105.829.829,0,1,0,.428-1.6,6.056,6.056,0,0,1-2.772-1.489l-.055-.055q-.021-.642-.079-1.249a8.261,8.261,0,0,0,1.507.142,7.179,7.179,0,0,0,5.123-2.05,7.378,7.378,0,0,0,1.909-6.629q.606.058,1.248.079l.055.054a7.694,7.694,0,0,1,1.819,5.453c-.008,2.016-.554,3.911-1.359,4.716a6.832,6.832,0,0,1-4.054,1.336.829.829,0,0,0,.051,1.657l.053,0a8.222,8.222,0,0,0,5.123-1.819c1.128-1.128,1.835-3.382,1.845-5.882a10.188,10.188,0,0,0-1.5-5.633,10.192,10.192,0,0,0,5.042-2.927c1.761-1.775,2.855-3.868,2.855-5.464ZM12.94,36.322a12.476,12.476,0,0,0,2.115-.621l.03-.011a15.2,15.2,0,0,0,5.526,5.526l-.008.021a12.474,12.474,0,0,0-.624,2.124,5.828,5.828,0,0,1-5.716-1.323,5.83,5.83,0,0,1-1.323-5.716Zm15.21,6.917a15.006,15.006,0,0,0,5.88-1.193,7.262,7.262,0,0,1-1.87,3.947,5.369,5.369,0,0,1-8.019,0,7.262,7.262,0,0,1-1.87-3.947,15.006,15.006,0,0,0,5.88,1.193Zm0-1.658A13.43,13.43,0,0,1,17.71,19.7a.829.829,0,1,0-1.288-1.044,14.959,14.959,0,0,0-1.338,1.951l-.05-.019a12.507,12.507,0,0,0-2.093-.612,5.841,5.841,0,0,1,1.322-5.716,5.836,5.836,0,0,1,5.716-1.322,12.494,12.494,0,0,0,.614,2.1c0,.015.011.029.017.043a15.253,15.253,0,0,0-1.413.925.829.829,0,0,0,.985,1.334A13.43,13.43,0,1,1,28.15,41.581Zm-13.9-7.551a7.262,7.262,0,0,1-3.947-1.87,5.369,5.369,0,0,1,0-8.019,7.262,7.262,0,0,1,3.95-1.871,15.071,15.071,0,0,0,0,11.76Zm13.9-20.968a15.01,15.01,0,0,0-5.879,1.187,7.261,7.261,0,0,1,1.87-3.941,5.369,5.369,0,0,1,8.019,0,7.262,7.262,0,0,1,1.87,3.947A15,15,0,0,0,28.15,13.062Zm13.9,9.209a7.261,7.261,0,0,1,3.947,1.87,5.369,5.369,0,0,1,0,8.019,7.262,7.262,0,0,1-3.947,1.87,15.086,15.086,0,0,0,0-11.759Zm-.008-8.008a5.819,5.819,0,0,1,1.323,5.716,12.517,12.517,0,0,0-2.09.612l-.055.021a15.2,15.2,0,0,0-5.527-5.527c.005-.012.01-.025.015-.038a12.477,12.477,0,0,0,.618-2.107,5.762,5.762,0,0,1,5.716,1.323ZM23.855,4.032c1.431-1.42,3.157-2.374,4.3-2.374s2.865.954,4.3,2.374a7.694,7.694,0,0,1,2.569,5.142,19.02,19.02,0,0,1-.126,2.241,8.554,8.554,0,0,0-1.527-2.248,7.025,7.025,0,0,0-10.424,0,8.558,8.558,0,0,0-1.527,2.248,19.019,19.019,0,0,1-.126-2.241,7.694,7.694,0,0,1,2.569-5.142ZM9.417,9.417c.8-.8,2.7-1.351,4.716-1.359a7.688,7.688,0,0,1,5.452,1.819l.055.055q.021.642.079,1.248A7.386,7.386,0,0,0,13.09,13.09a7.393,7.393,0,0,0-1.909,6.629q-.606-.058-1.248-.079l-.055-.054a7.694,7.694,0,0,1-1.819-5.453c.008-2.016.554-3.911,1.359-4.716ZM1.658,28.15c0-1.138.954-2.865,2.374-4.3a7.694,7.694,0,0,1,5.142-2.569,19.019,19.019,0,0,1,2.241.126,8.553,8.553,0,0,0-2.248,1.527,7.025,7.025,0,0,0,0,10.424,8.558,8.558,0,0,0,2.248,1.527,19.02,19.02,0,0,1-2.241.126,7.694,7.694,0,0,1-5.142-2.569c-1.42-1.431-2.374-3.158-2.374-4.3ZM14.18,48.242h-.047c-2.016-.008-3.911-.554-4.716-1.359s-1.351-2.7-1.359-4.716a7.694,7.694,0,0,1,1.819-5.452l.056-.055q.642-.021,1.248-.079A7.378,7.378,0,0,0,13.09,43.21a7.177,7.177,0,0,0,5.122,2.05,8.268,8.268,0,0,0,1.508-.142q-.058.606-.079,1.249l-.055.055A7.667,7.667,0,0,1,14.18,48.242Zm18.266,4.026c-1.431,1.42-3.157,2.374-4.3,2.374s-2.865-.954-4.3-2.374a7.694,7.694,0,0,1-2.569-5.142,19.017,19.017,0,0,1,.126-2.241,8.551,8.551,0,0,0,1.527,2.248,7.025,7.025,0,0,0,10.424,0,8.552,8.552,0,0,0,1.527-2.248,19.019,19.019,0,0,1,.126,2.241A7.693,7.693,0,0,1,32.446,52.269Zm9.592-10.23a5.83,5.83,0,0,1-5.716,1.323,12.5,12.5,0,0,0-.617-2.106c0-.013-.01-.026-.015-.039a15.2,15.2,0,0,0,5.527-5.526l.037.013a12.485,12.485,0,0,0,2.108.619A5.83,5.83,0,0,1,42.038,42.038Zm5.089-7.023a19.021,19.021,0,0,1-2.241-.126,8.555,8.555,0,0,0,2.248-1.527,7.025,7.025,0,0,0,0-10.424,8.555,8.555,0,0,0-2.248-1.527,19.022,19.022,0,0,1,2.241-.126,7.694,7.694,0,0,1,5.142,2.569c1.42,1.431,2.374,3.157,2.374,4.3s-.954,2.865-2.374,4.3A7.694,7.694,0,0,1,47.127,35.015Z" transform="translate(0 0)"/>
        <path id="Trazado_1013117" data-name="Trazado 1013117" d="M175,163.693c0-1.607-2.4-2.448-4.949-2.633,1.672-1.934,2.774-4.225,1.638-5.361s-3.428-.034-5.361,1.638c-.185-2.55-1.026-4.949-2.633-4.949s-2.448,2.4-2.633,4.949c-1.934-1.672-4.225-2.774-5.361-1.638s-.034,3.428,1.638,5.361c-2.55.185-4.949,1.026-4.949,2.633s2.4,2.448,4.949,2.633c-1.672,1.934-2.774,4.225-1.638,5.361a1.647,1.647,0,0,0,1.212.465c1.2,0,2.764-.905,4.149-2.1.185,2.55,1.026,4.95,2.633,4.95s2.448-2.4,2.633-4.95c1.385,1.2,2.953,2.1,4.149,2.1a1.647,1.647,0,0,0,1.212-.465c1.136-1.136.034-3.427-1.638-5.361,2.55-.185,4.949-1.026,4.949-2.633Zm-11.306,4.045a4.045,4.045,0,1,1,4.045-4.045A4.05,4.05,0,0,1,163.693,167.738Zm9.625-4.045c-.248.313-1.619.952-4.013,1.01a5.63,5.63,0,0,0,0-2.02C171.7,162.741,173.07,163.38,173.318,163.693Zm-2.819-6.806c.046.4-.472,1.819-2.125,3.553a5.749,5.749,0,0,0-1.428-1.428C168.68,157.359,170.1,156.841,170.5,156.887Zm-6.806-2.819c.313.248.952,1.619,1.01,4.013a5.629,5.629,0,0,0-2.02,0C162.741,155.687,163.38,154.316,163.693,154.068Zm-6.806,2.819c.4-.045,1.819.472,3.553,2.125a5.748,5.748,0,0,0-1.428,1.428C157.359,158.706,156.841,157.284,156.887,156.887Zm-2.819,6.806c.248-.313,1.619-.952,4.013-1.01a5.629,5.629,0,0,0,0,2.02C155.687,164.645,154.316,164.006,154.068,163.693Zm2.819,6.806c-.046-.4.472-1.819,2.125-3.553a5.749,5.749,0,0,0,1.428,1.428C158.706,170.027,157.284,170.544,156.887,170.5Zm6.806,2.819c-.313-.248-.952-1.619-1.01-4.013a5.63,5.63,0,0,0,2.02,0C164.645,171.7,164.006,173.07,163.693,173.318ZM170.5,170.5c-.4.046-1.819-.472-3.553-2.125a5.75,5.75,0,0,0,1.428-1.428C170.027,168.68,170.545,170.1,170.5,170.5Z" transform="translate(-135.543 -135.543)"/>
      </g>
    </g>
  </g>
</svg>
