<svg xmlns="http://www.w3.org/2000/svg" width="123" height="156" viewBox="0 0 123 156">
  <g id="Grupo_1181858" data-name="Grupo 1181858" transform="translate(-209.436 -2096)">
    <rect id="Rectángulo_455524" data-name="Rectángulo 455524" width="123" height="156" rx="10" transform="translate(209.436 2096)" fill="#c8bf57"/>
    <g id="Grupo_1181663" data-name="Grupo 1181663" transform="translate(219.436 2123)">
      <path id="Trazado_1014382" data-name="Trazado 1014382" d="M23.87,334.624H8.7a1.2,1.2,0,0,1-1.2-1.2V310.269a1.2,1.2,0,0,1,1.2-1.2H23.87a1.2,1.2,0,0,1,1.2,1.2v23.158A1.2,1.2,0,0,1,23.87,334.624Z" transform="translate(-6.003 -247.37)" fill="#a6e7f0"/>
      <path id="Trazado_1014383" data-name="Trazado 1014383" d="M65.489,309.071H59.5a1.2,1.2,0,0,1,1.2,1.2v23.158a1.2,1.2,0,0,1-1.2,1.2h5.989a1.2,1.2,0,0,0,1.2-1.2V310.269A1.2,1.2,0,0,0,65.489,309.071Z" transform="translate(-47.622 -247.37)" fill="#6bd9e7"/>
      <path id="Trazado_1014384" data-name="Trazado 1014384" d="M120.817,452.815a.817.817,0,0,1-.649-1.311c2.482-3.28,10.4-11.581,26.983-11.581s24.5,8.3,26.983,11.581a.817.817,0,0,1-.649,1.311Z" transform="translate(-96.044 -352.099)" fill="#ade194"/>
      <path id="Trazado_1014385" data-name="Trazado 1014385" d="M270.951,451.5c-2.1-2.781-8.1-9.169-19.967-11.05a44.237,44.237,0,0,0-6.969-.531c-1.031,0-2.025.034-2.99.095q2.091.132,3.98.436c11.866,1.881,17.868,8.269,19.967,11.05a.817.817,0,0,1-.649,1.312H270.3A.817.817,0,0,0,270.951,451.5Z" transform="translate(-192.908 -352.097)" fill="#97da7b"/>
      <g id="Grupo_1181657" data-name="Grupo 1181657" transform="translate(27.952 63.731)">
        <path id="Trazado_1014386" data-name="Trazado 1014386" d="M234.89,441.14a7.015,7.015,0,1,1-14.03,0c0-.232.012-.461.034-.689a46.155,46.155,0,0,1,13.962,0C234.878,440.679,234.89,440.908,234.89,441.14Z" transform="translate(-204.72 -415.828)" fill="#eb9c8d"/>
        <path id="Trazado_1014387" data-name="Trazado 1014387" d="M149.333,325.834c0,3.642-2.228,6.6-4.975,6.6s-4.344-3.391-4.344-7.033,1.6-6.157,4.344-6.157S149.333,322.192,149.333,325.834Z" transform="translate(-140.014 -319.239)" fill="#eb9c8d"/>
        <path id="Trazado_1014388" data-name="Trazado 1014388" d="M325.3,325.834c0,3.642,2.228,6.6,4.975,6.6s4.344-3.391,4.344-7.033-1.6-6.157-4.344-6.157S325.3,322.192,325.3,325.834Z" transform="translate(-288.314 -319.239)" fill="#eb9c8d"/>
      </g>
      <path id="Trazado_1014389" data-name="Trazado 1014389" d="M175.564,262.914V251.988a16.058,16.058,0,0,1,32.116,0v10.866a16.058,16.058,0,0,1-32.116.061Z" transform="translate(-140.515 -188.83)" fill="#f1b0a2"/>
      <path id="Trazado_1014390" data-name="Trazado 1014390" d="M243.884,235.93a16.121,16.121,0,0,0-2.995.283,16.06,16.06,0,0,1,13.063,15.775v10.866a16.09,16.09,0,0,1-13.091,15.8,16.076,16.076,0,0,0,19.08-15.8V251.988A16.058,16.058,0,0,0,243.884,235.93Z" transform="translate(-192.778 -188.83)" fill="#eb9c8d"/>
      <path id="Trazado_1014391" data-name="Trazado 1014391" d="M198,239.1s-1.435.546-2.732-1.433-.068-10.518-5.173-8.607-8.154,1.64-8.154,1.64-3.048.273-8.152-1.64-3.876,6.626-5.173,8.607-2.732,1.433-2.732,1.433-11.606-24.138,16.057-24.138S198,239.1,198,239.1Z" transform="translate(-130.832 -172.051)" fill="#ae6c6c"/>
      <g id="Grupo_1181658" data-name="Grupo 1181658" transform="translate(48.112 42.915)">
        <path id="Trazado_1014392" data-name="Trazado 1014392" d="M243.995,214.966q-1.582,0-2.995.1c14.943,1.069,16.272,10.27,15.191,16.971.464,2.118.494,4.661,1.13,5.631,1.3,1.979,2.732,1.433,2.732,1.433S271.658,214.966,243.995,214.966Z" transform="translate(-241 -214.966)" fill="#9b5e5e"/>
      </g>
      <path id="Trazado_1014393" data-name="Trazado 1014393" d="M158.682,16.455V40.324a8.953,8.953,0,0,1-8.95,8.955H132.774a3.644,3.644,0,0,0-3.154,1.82l-2.1,3.634a1.36,1.36,0,0,1-2.355,0l-2.1-3.635a3.644,3.644,0,0,0-3.153-1.819H102.95A8.952,8.952,0,0,1,94,40.324V16.455A8.953,8.953,0,0,1,102.95,7.5h46.782a8.953,8.953,0,0,1,8.95,8.955Z" transform="translate(-75.234 -6.003)" fill="#f9f3f1"/>
      <g id="Grupo_1181659" data-name="Grupo 1181659" transform="translate(68.508 1.497)">
        <path id="Trazado_1014394" data-name="Trazado 1014394" d="M349.158,7.5h-5.989a8.953,8.953,0,0,1,8.95,8.955V40.324a8.952,8.952,0,0,1-8.95,8.955h5.989a8.953,8.953,0,0,0,8.95-8.955V16.455A8.952,8.952,0,0,0,349.158,7.5Z" transform="translate(-343.169 -7.5)" fill="#f3eae6"/>
      </g>
      <path id="Trazado_1014395" data-name="Trazado 1014395" d="M227.277,74.3a9.515,9.515,0,0,1-2.691,6.819,8.774,8.774,0,0,0-1.443,2.005,13.038,13.038,0,0,1-1.607,2.466h-7.6a12.971,12.971,0,0,1-1.587-2.429,9.118,9.118,0,0,0-1.477-2.057A9.545,9.545,0,1,1,227.277,74.3Z" transform="translate(-166.627 -51.968)" fill="#ffe177"/>
      <path id="Trazado_1014396" data-name="Trazado 1014396" d="M244.342,64.938a9.556,9.556,0,0,0-3.371.475,9.543,9.543,0,0,1,3.864,15.707,8.773,8.773,0,0,0-1.443,2.005,13.038,13.038,0,0,1-1.607,2.466h5.989a13.047,13.047,0,0,0,1.607-2.466,8.768,8.768,0,0,1,1.443-2.005,9.545,9.545,0,0,0-6.481-16.182Z" transform="translate(-192.865 -51.968)" fill="#ffd15b"/>
      <path id="Trazado_1014397" data-name="Trazado 1014397" d="M236.952,168.42h7.6v3.859a1.945,1.945,0,0,1-1.945,1.945H238.9a1.945,1.945,0,0,1-1.945-1.945V168.42Z" transform="translate(-189.648 -134.798)" fill="#a8d3d8"/>
      <path id="Trazado_1014398" data-name="Trazado 1014398" d="M53.817,143.649l1.022,2.067a2.94,2.94,0,0,0,2.214,1.605l2.286.331a2.933,2.933,0,0,1,1.63,5.006l-1.654,1.609a2.932,2.932,0,0,0-.846,2.6l.39,2.272a2.94,2.94,0,0,1-4.267,3.094l-2.044-1.073a2.946,2.946,0,0,0-2.737,0l-2.044,1.073a2.94,2.94,0,0,1-4.267-3.094l.39-2.272a2.931,2.931,0,0,0-.846-2.6l-1.654-1.609a2.933,2.933,0,0,1,1.63-5.006l2.286-.331a2.94,2.94,0,0,0,2.214-1.605l1.022-2.067A2.944,2.944,0,0,1,53.817,143.649Z" transform="translate(-32.414 -113.663)" fill="#ffe177"/>
      <g id="Grupo_1181660" data-name="Grupo 1181660" transform="translate(15.608 28.351)">
        <path id="Trazado_1014399" data-name="Trazado 1014399" d="M89.5,147.654l-2.286-.331A2.94,2.94,0,0,1,85,145.717l-1.022-2.067a2.943,2.943,0,0,0-5.274,0l-.521,1.053.849,1.717a2.94,2.94,0,0,0,2.214,1.605l2.286.331a2.933,2.933,0,0,1,1.63,5.006l-1.654,1.609a2.932,2.932,0,0,0-.846,2.6l.39,2.272a2.911,2.911,0,0,1-.109,1.442l1.81.949a2.94,2.94,0,0,0,4.267-3.094l-.39-2.272a2.931,2.931,0,0,1,.846-2.6l1.654-1.609A2.933,2.933,0,0,0,89.5,147.654Z" transform="translate(-78.182 -142.014)" fill="#ffd15b"/>
      </g>
      <path id="Trazado_1014400" data-name="Trazado 1014400" d="M410.817,224.192l1.022,2.067a2.94,2.94,0,0,0,2.214,1.605l2.286.331a2.933,2.933,0,0,1,1.63,5.006l-1.654,1.609a2.932,2.932,0,0,0-.846,2.6l.391,2.272a2.94,2.94,0,0,1-4.267,3.094l-2.044-1.073a2.946,2.946,0,0,0-2.737,0l-2.044,1.073a2.94,2.94,0,0,1-4.267-3.094l.391-2.272a2.931,2.931,0,0,0-.846-2.6l-1.654-1.609a2.933,2.933,0,0,1,1.63-5.006l2.286-.331a2.94,2.94,0,0,0,2.214-1.605l1.022-2.067a2.943,2.943,0,0,1,5.274,0Z" transform="translate(-318.145 -178.126)" fill="#ffe177"/>
      <g id="Grupo_1181661" data-name="Grupo 1181661" transform="translate(86.877 44.43)">
        <path id="Trazado_1014401" data-name="Trazado 1014401" d="M446.5,228.2l-2.286-.331A2.94,2.94,0,0,1,442,226.26l-1.022-2.067a2.943,2.943,0,0,0-5.274,0l-.521,1.053.849,1.717a2.94,2.94,0,0,0,2.214,1.605l2.286.331a2.933,2.933,0,0,1,1.63,5.006l-1.654,1.609a2.932,2.932,0,0,0-.846,2.6l.391,2.272a2.911,2.911,0,0,1-.109,1.442l1.81.949a2.94,2.94,0,0,0,4.267-3.094l-.391-2.272a2.931,2.931,0,0,1,.846-2.6l1.654-1.609A2.933,2.933,0,0,0,446.5,228.2Z" transform="translate(-435.182 -222.557)" fill="#ffd15b"/>
      </g>
      <g id="Grupo_1181662" data-name="Grupo 1181662" transform="translate(0 0)">
        <path id="Trazado_1014402" data-name="Trazado 1014402" d="M17.867,301.571H2.7a2.7,2.7,0,0,0-2.7,2.7v23.158a2.7,2.7,0,0,0,2.7,2.7H17.867a2.7,2.7,0,0,0,2.7-2.7V304.266A2.7,2.7,0,0,0,17.867,301.571Zm-.3,25.553H2.995V304.566H17.568Z" transform="translate(0 -241.367)"/>
        <path id="Trazado_1014403" data-name="Trazado 1014403" d="M30.336,342.738h6.071a1.5,1.5,0,0,0,0-2.995H30.336A1.5,1.5,0,0,0,30.336,342.738Z" transform="translate(-23.09 -271.919)"/>
        <path id="Trazado_1014404" data-name="Trazado 1014404" d="M30.336,368.391h6.071a1.5,1.5,0,0,0,0-2.995H30.336A1.5,1.5,0,0,0,30.336,368.391Z" transform="translate(-23.09 -292.45)"/>
        <path id="Trazado_1014405" data-name="Trazado 1014405" d="M30.336,394.394h6.071a1.5,1.5,0,0,0,0-2.995H30.336A1.5,1.5,0,0,0,30.336,394.394Z" transform="translate(-23.09 -313.262)"/>
        <path id="Trazado_1014406" data-name="Trazado 1014406" d="M88.556,87.679a17.615,17.615,0,0,0,6.035-9.556c8.547,2.94,10.659-15.36,2.192-15.87.869-3.659,1.295-8.553-.87-12.736a12.616,12.616,0,0,0-4.289-4.743h9.284a10.462,10.462,0,0,0,10.447-10.452V19.343a1.5,1.5,0,0,0-2.995,0V34.321a7.464,7.464,0,0,1-7.453,7.458H83.952a5.155,5.155,0,0,0-4.45,2.567l-1.984,3.429-1.985-3.43a5.156,5.156,0,0,0-4.449-2.566H54.266c.029-.034.058-.068.091-.1l1.654-1.609a4.431,4.431,0,0,0-2.459-7.561l-2.286-.331a1.443,1.443,0,0,1-1.087-.787l-1.022-2.067a4.409,4.409,0,0,0-2.482-2.213V10.452a7.464,7.464,0,0,1,7.453-7.458H100.91a7.464,7.464,0,0,1,7.453,7.458v1.611a1.5,1.5,0,0,0,2.995,0V10.452A10.462,10.462,0,0,0,100.91,0H54.128A10.462,10.462,0,0,0,43.681,10.452V27.11A4.41,4.41,0,0,0,41.2,29.323L40.176,31.39a1.443,1.443,0,0,1-1.087.787l-2.286.331a4.431,4.431,0,0,0-2.459,7.561L36,41.679a1.434,1.434,0,0,1,.414,1.271l-.39,2.272a4.437,4.437,0,0,0,6.438,4.673l2.044-1.073a1.449,1.449,0,0,1,1.346,0L47.9,49.895a4.437,4.437,0,0,0,6.438-4.673l-.077-.448h9.156c-6.063,3.815-6.689,11.7-5.157,17.479-8.465.509-6.358,18.792,2.178,15.874a17.41,17.41,0,0,0,4.664,8.35,17.84,17.84,0,0,0,1.345,1.213C56.5,90.3,51.265,96.013,49.388,98.5a2.314,2.314,0,0,0,1.842,3.712H62.185a1.5,1.5,0,0,0,0-2.995H52.662c2.366-2.714,7.488-7.235,16.417-9.074,1.487,9.833,15.4,9.825,16.878,0,8.928,1.839,14.048,6.358,16.417,9.075h-33.2a1.5,1.5,0,0,0,0,2.995h34.63A2.314,2.314,0,0,0,105.65,98.5c-1.884-2.5-7.129-8.213-17.094-10.823Zm7.773-22.451c4.641,0,3.232,12.5-1.285,9.822.02-.339.031-.681.031-1.025V67.379c.177-.4.487-1.132.827-2.111a2.318,2.318,0,0,1,.427-.04Zm-45.519-18.1a1.421,1.421,0,0,1-1.524.111l-2.044-1.073a4.442,4.442,0,0,0-4.128,0l-2.044,1.073a1.442,1.442,0,0,1-2.1-1.514l.39-2.272a4.428,4.428,0,0,0-1.277-3.925l-1.654-1.609a1.436,1.436,0,0,1,.8-2.451l2.286-.331a4.436,4.436,0,0,0,3.341-2.424l1.022-2.067a1.453,1.453,0,0,1,2.59,0L47.5,32.717a4.437,4.437,0,0,0,3.341,2.424l2.286.331a1.436,1.436,0,0,1,.8,2.451l-1.654,1.609a4.427,4.427,0,0,0-1.277,3.925l.39,2.272a1.409,1.409,0,0,1-.572,1.4Zm10.977,3.751c1.638-3.158,4.965-5.184,9.889-6.024a2.152,2.152,0,0,1,1.264.985l2.1,3.635a2.865,2.865,0,0,0,4.947,0l2.1-3.634a2.153,2.153,0,0,1,1.265-.986c4.925.839,8.253,2.866,9.891,6.024C95.9,56,93.641,62.9,92.643,65.425A2.592,2.592,0,0,1,92.1,64.8a10.965,10.965,0,0,1-.5-2.543c-.329-2.49-.7-5.312-2.7-6.513a4.17,4.17,0,0,0-3.744-.132,19.545,19.545,0,0,1-15.256,0,4.17,4.17,0,0,0-3.744.133c-2,1.2-2.375,4.025-2.7,6.516a11,11,0,0,1-.5,2.54,2.606,2.606,0,0,1-.546.627c-1-2.528-3.262-9.425-.608-14.541Zm-3.08,24.541c-3.454,0-4.313-10.864.43-10.155.339.975.648,1.707.825,2.106v6.709c0,.324.011.646.028.968A2.452,2.452,0,0,1,58.708,75.424Zm4.249-1.34V68.468a4.662,4.662,0,0,0,2.489-2.028,9.608,9.608,0,0,0,.965-3.789c.192-1.452.512-3.881,1.276-4.34.292-.175.848-.01,1.152.1a22.538,22.538,0,0,0,17.357,0c.305-.114.861-.28,1.152-.1.764.458,1.084,2.887,1.276,4.338a9.6,9.6,0,0,0,.967,3.792,4.652,4.652,0,0,0,2.487,2.027v5.558c.088,12.833-15.862,19.483-24.866,10.334a14.435,14.435,0,0,1-4.257-10.274ZM77.519,94.571A5.527,5.527,0,0,1,72.3,90.829a17.725,17.725,0,0,0,10.449-.024,5.527,5.527,0,0,1-5.229,3.766Z" transform="translate(-26.412 0)"/>
        <path id="Trazado_1014407" data-name="Trazado 1014407" d="M244.613,383.1c1.436.43,4.244.3,3.825-1.827a1.5,1.5,0,0,0-1.827-1.07,1.878,1.878,0,0,1-1.242,0,1.5,1.5,0,1,0-.756,2.9Z" transform="translate(-194.884 -304.262)"/>
        <path id="Trazado_1014408" data-name="Trazado 1014408" d="M208.589,323.414a5.7,5.7,0,0,1,3.541,0,1.5,1.5,0,0,0,.756-2.9,8.606,8.606,0,0,0-5.054,0,1.5,1.5,0,0,0,.756,2.9Z" transform="translate(-165.446 -256.227)"/>
        <path id="Trazado_1014409" data-name="Trazado 1014409" d="M270.255,323.465a1.5,1.5,0,0,0,.379-.049,5.7,5.7,0,0,1,3.541,0,1.5,1.5,0,0,0,.756-2.9,8.611,8.611,0,0,0-5.054,0,1.5,1.5,0,0,0,.377,2.946Z" transform="translate(-215.105 -256.228)"/>
        <path id="Trazado_1014410" data-name="Trazado 1014410" d="M213.746,350.613a5.41,5.41,0,0,1-3.359,0,1.5,1.5,0,0,0-.756,2.9,8.3,8.3,0,0,0,4.872,0,1.5,1.5,0,0,0-.756-2.9Z" transform="translate(-166.891 -280.58)"/>
        <path id="Trazado_1014411" data-name="Trazado 1014411" d="M269.019,353.51a8.3,8.3,0,0,0,4.872,0,1.5,1.5,0,0,0-.756-2.9,5.407,5.407,0,0,1-3.359,0,1.5,1.5,0,0,0-.756,2.9Z" transform="translate(-214.418 -280.578)"/>
        <path id="Trazado_1014412" data-name="Trazado 1014412" d="M239.825,403.521a4.99,4.99,0,0,1-4.82,0,1.5,1.5,0,1,0-1.456,2.617,8,8,0,0,0,7.732,0,1.5,1.5,0,1,0-1.456-2.617Z" transform="translate(-186.308 -322.813)"/>
        <path id="Trazado_1014413" data-name="Trazado 1014413" d="M251.495,25.454V23.022a1.5,1.5,0,0,0-2.995,0v2.432A1.5,1.5,0,0,0,251.495,25.454Z" transform="translate(-198.891 -17.236)"/>
        <path id="Trazado_1014414" data-name="Trazado 1014414" d="M209.66,37.716a1.5,1.5,0,0,0,1.3-2.246l-1.216-2.106a1.5,1.5,0,0,0-2.593,1.5l1.216,2.106A1.5,1.5,0,0,0,209.66,37.716Z" transform="translate(-165.632 -26.104)"/>
        <path id="Trazado_1014415" data-name="Trazado 1014415" d="M179.381,67.044a1.5,1.5,0,0,0,1.5-2.593l-2.106-1.216a1.5,1.5,0,0,0-1.5,2.593Z" transform="translate(-141.285 -50.45)"/>
        <path id="Trazado_1014416" data-name="Trazado 1014416" d="M310.669,142.842l2.106,1.216a1.5,1.5,0,1,0,1.5-2.593l-2.106-1.216a1.5,1.5,0,1,0-1.5,2.593Z" transform="translate(-248.05 -112.09)"/>
        <path id="Trazado_1014417" data-name="Trazado 1014417" d="M165.393,106.085a1.5,1.5,0,0,0,1.5,1.5h2.432a1.5,1.5,0,0,0,0-2.995H166.89A1.5,1.5,0,0,0,165.393,106.085Z" transform="translate(-132.375 -83.709)"/>
        <path id="Trazado_1014418" data-name="Trazado 1014418" d="M324.894,106.085a1.5,1.5,0,0,0-1.5-1.5h-2.432a1.5,1.5,0,0,0,0,2.995H323.4A1.5,1.5,0,0,0,324.894,106.085Z" transform="translate(-255.699 -83.709)"/>
        <path id="Trazado_1014419" data-name="Trazado 1014419" d="M178.025,144.26a1.49,1.49,0,0,0,.747-.2l2.106-1.216a1.5,1.5,0,0,0-1.5-2.593l-2.106,1.216a1.5,1.5,0,0,0,.75,2.794Z" transform="translate(-141.285 -112.091)"/>
        <path id="Trazado_1014420" data-name="Trazado 1014420" d="M311.42,67.244a1.49,1.49,0,0,0,.747-.2l2.106-1.216a1.5,1.5,0,1,0-1.5-2.593L310.67,64.45a1.5,1.5,0,0,0,.75,2.794Z" transform="translate(-248.05 -50.45)"/>
        <path id="Trazado_1014421" data-name="Trazado 1014421" d="M285.457,37.715a1.5,1.5,0,0,0,1.3-.749l1.216-2.106a1.5,1.5,0,0,0-2.593-1.5l-1.216,2.106a1.5,1.5,0,0,0,1.3,2.246Z" transform="translate(-227.272 -26.103)"/>
        <path id="Trazado_1014422" data-name="Trazado 1014422" d="M209.958,86.891h3.714a3.446,3.446,0,0,0,3.443-3.443V80.116a17.152,17.152,0,0,0,1.433-2.292,7.279,7.279,0,0,1,1.2-1.664,11.042,11.042,0,0,0-15.585-15.642,11.094,11.094,0,0,0-.285,15.625,7.646,7.646,0,0,1,1.232,1.72,17.074,17.074,0,0,0,1.411,2.251v3.333a3.447,3.447,0,0,0,3.443,3.442Zm4.162-3.443a.449.449,0,0,1-.448.448h-3.714a.449.449,0,0,1-.448-.448V81.086h4.61v2.362ZM203.768,68.473a8.047,8.047,0,1,1,13.825,5.6,10.274,10.274,0,0,0-1.692,2.346,15.209,15.209,0,0,1-1.016,1.67h-6.14a15.119,15.119,0,0,1-1-1.635,10.625,10.625,0,0,0-1.721-2.393,8.008,8.008,0,0,1-2.258-5.59Z" transform="translate(-160.709 -45.966)"/>
        <path id="Trazado_1014423" data-name="Trazado 1014423" d="M413.012,228.338a4.431,4.431,0,0,0-2.459-7.561l-2.286-.331a1.443,1.443,0,0,1-1.087-.787l-1.022-2.067a4.454,4.454,0,0,0-7.958,0l-1.022,2.067a1.442,1.442,0,0,1-1.087.787l-2.286.331a4.431,4.431,0,0,0-2.459,7.561L393,229.947a1.434,1.434,0,0,1,.414,1.271l-.391,2.272a4.437,4.437,0,0,0,6.438,4.673l2.044-1.073a1.45,1.45,0,0,1,1.346,0l2.044,1.073a4.447,4.447,0,0,0,6.438-4.673l-.39-2.272a1.435,1.435,0,0,1,.414-1.271Zm-2.088-2.146L409.27,227.8a4.427,4.427,0,0,0-1.277,3.925l.391,2.272a1.443,1.443,0,0,1-2.1,1.515l-2.044-1.073a4.442,4.442,0,0,0-4.128,0l-2.044,1.073a1.442,1.442,0,0,1-2.1-1.514l.39-2.272a4.428,4.428,0,0,0-1.277-3.925l-1.654-1.609a1.436,1.436,0,0,1,.8-2.451l2.286-.331a4.436,4.436,0,0,0,3.341-2.424l1.022-2.067a1.453,1.453,0,0,1,2.59,0l1.022,2.067a4.437,4.437,0,0,0,3.341,2.424l2.286.331a1.436,1.436,0,0,1,.8,2.451Z" transform="translate(-312.143 -172.189)"/>
      </g>
    </g>
  </g>
</svg>
