<svg xmlns="http://www.w3.org/2000/svg" width="169.706" height="169.706" viewBox="0 0 169.706 169.706">
  <g id="Grupo_1181042" data-name="Grupo 1181042" transform="translate(-1065.98 -3369.146)">
    <rect id="Rect치ngulo_402033" data-name="Rect치ngulo 402033" width="120" height="120" rx="30" transform="translate(1065.98 3453.999) rotate(-45)" fill="#ffd600"/>
    <rect id="Rect치ngulo_454167" data-name="Rect치ngulo 454167" width="100" height="100" rx="50" transform="translate(1100.833 3403.999)" fill="#c8bf57"/>
    <g id="Grupo_1177737" data-name="Grupo 1177737" transform="translate(1116.179 3419.388)">
      <g id="Grupo_1177735" data-name="Grupo 1177735" transform="translate(1.352 1.352)">
        <path id="Trazado_995573" data-name="Trazado 995573" d="M444.923,316v17.846H436V316Z" transform="translate(-378.405 -274.629)" fill="#fce8d0"/>
        <path id="Trazado_995574" data-name="Trazado 995574" d="M286.816,264.814a2.7,2.7,0,0,1-5.408,0,2.7,2.7,0,0,1-5.408,0V247.623a7.88,7.88,0,0,1,.042-.821,8.642,8.642,0,0,1,2.991-5.572,8.111,8.111,0,0,0,2.351-5.108v-.143c.809,0,17.043,0,17.06,0v.633a5.4,5.4,0,0,0,1.585,3.823l2.239,2.24a5.4,5.4,0,0,1,1.585,3.825v.295h-6.219v18a2.7,2.7,0,1,1-5.408.014,2.7,2.7,0,0,1-5.408,0Z" transform="translate(-240.037 -205.427)" fill="#d0a084"/>
        <path id="Trazado_995575" data-name="Trazado 995575" d="M263.733,52.443a2.7,2.7,0,0,1,2.676,2.732,2.657,2.657,0,0,1-2.676,2.676H263.7c-17.155-.01-16.434.024-17.057-.03a8.057,8.057,0,0,1-5.031-2.319,8.581,8.581,0,0,0-5.785-3.007h0c.042-.51.016.261.023-16.976,0-.028,0-.055,0-.084h.495a5.407,5.407,0,0,0,3.823-1.585l2.24-2.24A5.437,5.437,0,0,1,246.234,30h.435v6.219h17.064a2.7,2.7,0,0,1,2.676,2.732,2.657,2.657,0,0,1-2.676,2.676,2.7,2.7,0,0,1,2.676,2.732,2.657,2.657,0,0,1-2.676,2.676,2.7,2.7,0,0,1,2.676,2.732A2.657,2.657,0,0,1,263.733,52.443Z" transform="translate(-205.298 -27.296)" fill="#ffda8f"/>
        <path id="Trazado_995576" data-name="Trazado 995576" d="M333.035,10v8.923H316V10Z" transform="translate(-274.629 -10)" fill="#d0a084"/>
        <path id="Trazado_995577" data-name="Trazado 995577" d="M51.811,281.392A2.774,2.774,0,0,1,49,278.716a2.822,2.822,0,0,1,2.811-2.732h.028c17.048.011,16.421-.029,17.069.034a8.174,8.174,0,0,1,5.019,2.37l.656.656A8.105,8.105,0,0,0,79.69,281.4v17.06H79.2a5.406,5.406,0,0,0-3.823,1.583l-2.24,2.24a5.411,5.411,0,0,1-3.825,1.585h-.435v-6.248H51.811A2.774,2.774,0,0,1,49,294.94a2.822,2.822,0,0,1,2.811-2.732A2.774,2.774,0,0,1,49,289.532a2.822,2.822,0,0,1,2.811-2.732A2.774,2.774,0,0,1,49,284.124a2.822,2.822,0,0,1,2.811-2.732Z" transform="translate(-43.727 -240.021)" fill="#fce8d0"/>
        <path id="Trazado_995578" data-name="Trazado 995578" d="M41.627,52.816a2.706,2.706,0,1,1,5.408,0,2.706,2.706,0,1,1,5.408,0,2.7,2.7,0,1,1,5.405-.084c0,.028,0,.055,0,.084-.007,17.254.019,16.468-.023,16.976a8.108,8.108,0,0,1-2.352,5.14,8.575,8.575,0,0,0-3,5.657c-.647-.063-.018-.023-17.069-.034V80.2a5.4,5.4,0,0,0-1.585-3.823l-2.239-2.24A5.4,5.4,0,0,1,30,70.315v-.576h6.219V52.816c0-.038,0-.076,0-.112a2.7,2.7,0,1,1,5.405.112Z" transform="translate(-27.296 -44.592)" fill="#d0a084"/>
        <path id="Trazado_995579" data-name="Trazado 995579" d="M87.035,444.923H70V436H87.035Z" transform="translate(-61.888 -378.405)" fill="#d0a084"/>
        <path id="Trazado_995580" data-name="Trazado 995580" d="M18.926,70c0,.036,0,.074,0,.112V87.035H10V70h8.923Z" transform="translate(-10 -61.888)" fill="#ffda8f"/>
      </g>
      <g id="Grupo_1177736" data-name="Grupo 1177736" transform="translate(0 0)">
        <path id="Trazado_995581" data-name="Trazado 995581" d="M67.87,41.371H66.436a6.7,6.7,0,0,0-1.9-3.723L62.3,35.407a4.019,4.019,0,0,1-1.158-2.382,4.034,4.034,0,0,0,2.674-3.793,4.1,4.1,0,0,0-1.029-2.723,4.011,4.011,0,0,0,1.029-2.685A4.1,4.1,0,0,0,62.786,21.1a4.011,4.011,0,0,0,1.029-2.685,4.1,4.1,0,0,0-1.029-2.723,4.011,4.011,0,0,0,1.029-2.685,4.088,4.088,0,0,0-2.7-3.858v-7.8A1.352,1.352,0,0,0,59.759,0H42.723a1.352,1.352,0,0,0-1.352,1.352V2.771a6.873,6.873,0,0,0-3.864,1.941l-2.24,2.24A4.027,4.027,0,0,1,32.988,8.1,4.1,4.1,0,0,0,29.2,5.408,3.972,3.972,0,0,0,26.5,6.5a3.894,3.894,0,0,0-5.408,0,3.894,3.894,0,0,0-5.408,0,3.972,3.972,0,0,0-2.7-1.092,4.109,4.109,0,0,0-3.789,2.7H1.352A1.352,1.352,0,0,0,0,9.464V26.5a1.352,1.352,0,0,0,1.352,1.352h1.4a6.7,6.7,0,0,0,1.935,4L6.924,34.1a4.02,4.02,0,0,1,1.117,2.112,4.156,4.156,0,0,0-2.769,3.839,3.94,3.94,0,0,0,1.077,2.7,4.016,4.016,0,0,0-1.077,2.708,3.94,3.94,0,0,0,1.077,2.7,4.016,4.016,0,0,0-1.077,2.708,3.94,3.94,0,0,0,1.077,2.7,3.972,3.972,0,0,0,1.762,6.527v7.78a1.352,1.352,0,0,0,1.352,1.352H26.5a1.352,1.352,0,0,0,1.352-1.352V66.482a6.814,6.814,0,0,0,3.864-1.915l2.24-2.24a4.024,4.024,0,0,1,2.038-1.1,4.053,4.053,0,0,0,6.73,2.535,4.047,4.047,0,0,0,5.408,0,4.047,4.047,0,0,0,5.408,0,4.05,4.05,0,0,0,6.581-1.837h7.75a1.352,1.352,0,0,0,1.352-1.352V57.731a1.352,1.352,0,0,0-2.7,0v1.487H60.3V44.064c1.4,0,5.155.02,6.219,0v1.5a1.352,1.352,0,0,0,2.7,0V42.723a1.352,1.352,0,0,0-1.352-1.352ZM44.075,2.7H58.406V8.923H44.075Zm-6.9,6.16,2.24-2.24a4.175,4.175,0,0,1,1.952-1.1v4.754a1.352,1.352,0,0,0,1.352,1.352H59.787a1.354,1.354,0,0,1,1.324,1.38,1.31,1.31,0,0,1-1.324,1.324H54.379a1.352,1.352,0,0,0,0,2.7h5.408a1.354,1.354,0,0,1,1.324,1.38,1.31,1.31,0,0,1-1.324,1.324H54.379a1.352,1.352,0,0,0,0,2.7h5.408a1.354,1.354,0,0,1,1.324,1.38,1.31,1.31,0,0,1-1.324,1.324H54.379a1.352,1.352,0,0,0,0,2.7h5.408a1.354,1.354,0,0,1,1.324,1.38,1.31,1.31,0,0,1-1.324,1.324H43.407a6.751,6.751,0,0,1-4.78-1.952,10.111,10.111,0,0,0-5.368-3.214v-14.6a6.709,6.709,0,0,0,3.919-1.925Zm-.913,32.323a7.691,7.691,0,0,1-3.758-2.424,9.586,9.586,0,0,0-4.4-2.509,7.756,7.756,0,0,1,2.382-3.606,9.471,9.471,0,0,0,2.521-4.539,7.689,7.689,0,0,1,3.705,2.406A9.388,9.388,0,0,0,41.183,33a7.652,7.652,0,0,1-2.449,3.859,9.5,9.5,0,0,0-2.469,4.331ZM2.7,10.816H8.923V25.147H2.7ZM6.6,29.943a4.021,4.021,0,0,1-1.114-2.092h4.793A1.352,1.352,0,0,0,11.627,26.5V9.576c0-.021,0-.043,0-.058a1.441,1.441,0,0,1,1.35-1.406,1.449,1.449,0,0,1,1.352,1.464v5.408a1.352,1.352,0,1,0,2.7,0V9.576a1.448,1.448,0,0,1,1.352-1.464,1.449,1.449,0,0,1,1.352,1.464v5.408a1.352,1.352,0,1,0,2.7,0V9.576a1.356,1.356,0,1,1,2.7,0v5.408a1.352,1.352,0,0,0,2.7,0V9.576a1.354,1.354,0,1,1,2.7-.044c0,.015,0,.03,0,.044V25.956a6.766,6.766,0,0,1-1.979,4.78,10.136,10.136,0,0,0-3.187,5.228H10.743a6.7,6.7,0,0,0-1.907-3.779ZM25.147,66.518H10.816V60.3H25.147Zm6.9-6.1-2.24,2.24a4.085,4.085,0,0,1-1.952,1.081V58.947A1.352,1.352,0,0,0,26.5,57.6H9.436a1.433,1.433,0,0,1-1.459-1.324,1.477,1.477,0,0,1,1.459-1.38h5.436a1.352,1.352,0,0,0,0-2.7H9.436a1.433,1.433,0,0,1-1.459-1.324,1.477,1.477,0,0,1,1.459-1.38h5.436a1.352,1.352,0,1,0,0-2.7H9.436a1.433,1.433,0,0,1-1.459-1.324,1.477,1.477,0,0,1,1.459-1.38h5.436a1.352,1.352,0,0,0,0-2.7H9.436a1.433,1.433,0,0,1-1.459-1.324,1.477,1.477,0,0,1,1.459-1.38H25.815a6.8,6.8,0,0,1,4.78,2.008,10.053,10.053,0,0,0,5.368,3.219v14.6A6.706,6.706,0,0,0,32.044,60.414Zm26.9-19.043A1.352,1.352,0,0,0,57.6,42.723v18a1.352,1.352,0,1,1-2.7.014V54.519a1.352,1.352,0,1,0-2.7,0v6.219a1.352,1.352,0,0,1-2.7,0V54.519a1.352,1.352,0,0,0-2.7,0v6.219a1.352,1.352,0,0,1-2.7,0V54.519a1.352,1.352,0,1,0-2.7,0v6.219a1.352,1.352,0,0,1-2.7,0V43.548a6.78,6.78,0,0,1,1.979-4.78,10.014,10.014,0,0,0,3.247-5.509H58.445a6.7,6.7,0,0,0,1.942,4.06l2.24,2.241a4.026,4.026,0,0,1,1.049,1.811Z" transform="translate(0 0)"/>
        <circle id="Elipse_13614" data-name="Elipse 13614" cx="1.407" cy="1.407" r="1.407" transform="translate(66.494 50.552)"/>
      </g>
    </g>
  </g>
</svg>
