<svg xmlns="http://www.w3.org/2000/svg" width="50" height="50" viewBox="0 0 50 50">
  <g id="Grupo_1177080" data-name="Grupo 1177080" transform="translate(0 -0.003)">
    <g id="Grupo_1177079" data-name="Grupo 1177079" transform="translate(0 0.003)">
      <path id="Trazado_993948" data-name="Trazado 993948" d="M44.334,245.69a4.881,4.881,0,0,0-5.64-7.872,8.95,8.95,0,0,0-2.366-1.4,4.883,4.883,0,1,0-6.64,0,8.935,8.935,0,0,0-2.366,1.4,4.876,4.876,0,0,0-4.643,0,8.938,8.938,0,0,0-2.366-1.4,4.883,4.883,0,1,0-6.64,0,8.936,8.936,0,0,0-2.366,1.4,4.88,4.88,0,0,0-5.639,7.873A9,9,0,0,0,0,254.039v.684a.977.977,0,0,0,.977.977H49.023a.977.977,0,0,0,.977-.977v-.684a9,9,0,0,0-5.666-8.349Zm-16.016,0a4.87,4.87,0,0,0,.526-6.584,7.027,7.027,0,0,1,8.328,0,4.87,4.87,0,0,0,.526,6.583,9.039,9.039,0,0,0-4.69,4.278A9.039,9.039,0,0,0,28.318,245.69Zm-16.016,0a4.87,4.87,0,0,0,.526-6.584,7.029,7.029,0,0,1,8.328,0,4.87,4.87,0,0,0,.526,6.584,9.038,9.038,0,0,0-4.69,4.278,9.038,9.038,0,0,0-4.69-4.278Zm31.643-3.578a2.93,2.93,0,1,1-2.93-2.93A2.933,2.933,0,0,1,43.945,242.112Zm-10.937-12.2a2.93,2.93,0,1,1-2.93,2.93A2.933,2.933,0,0,1,33.008,229.914Zm-5.078,12.2a2.93,2.93,0,1,1-2.93-2.93A2.933,2.933,0,0,1,27.93,242.112Zm-10.937-12.2a2.93,2.93,0,1,1-2.93,2.93A2.933,2.933,0,0,1,16.992,229.914Zm-8.008,9.268a2.93,2.93,0,1,1-2.93,2.93A2.933,2.933,0,0,1,8.984,239.182ZM1.959,253.746a7.031,7.031,0,0,1,14.05,0Zm16.016,0a7.031,7.031,0,0,1,14.05,0Zm16.016,0a7.031,7.031,0,0,1,14.05,0Z" transform="translate(0 -205.699)" fill="#ffd600"/>
      <path id="Trazado_993949" data-name="Trazado 993949" d="M90.4,10.48a.977.977,0,0,0,.682-1.2,14.392,14.392,0,0,1-.166-6.974,14.319,14.319,0,0,1,17.334,15.952l-3.5-3.5v-4.8a.977.977,0,0,0-1.953,0v2.848l-2.717-2.717V6.54a.977.977,0,1,0-1.953,0V8.135L96.187,6.2a.977.977,0,0,0-1.381,1.381l1.937,1.937H95.149a.977.977,0,0,0,0,1.953H98.7l2.717,2.717H98.565a.977.977,0,0,0,0,1.953h4.8l3.5,3.5a14.271,14.271,0,0,1-11.474-3.457.977.977,0,0,0-1.3,1.462,16.212,16.212,0,0,0,10.769,4.09,16.43,16.43,0,0,0,4.224-.555A16.225,16.225,0,0,0,120.748,1.246a.977.977,0,0,0-.692-.692,16.256,16.256,0,0,0-15.1,3.63,16.256,16.256,0,0,0-15.1-3.63.976.976,0,0,0-.692.692A16.344,16.344,0,0,0,89.2,9.8a.977.977,0,0,0,1.2.682ZM119,2.305a14.376,14.376,0,0,1-3.844,13.279,14.155,14.155,0,0,1-5.012,3.216,16.416,16.416,0,0,0,.195-2.661h1.155a.977.977,0,0,0,0-1.953H110.2q-.086-.67-.228-1.333l1.384-1.384h3.548a.977.977,0,1,0,0-1.953h-1.595l1.937-1.937A.977.977,0,1,0,113.869,6.2l-1.937,1.937V6.54a.977.977,0,0,0-1.953,0v3.548l-.619.619a16.271,16.271,0,0,0-3.031-5.131A14.384,14.384,0,0,1,119,2.305Z" transform="translate(-79.957 -0.003)" fill="#ffd600"/>
      <circle id="Elipse_13582" data-name="Elipse 13582" cx="0.977" cy="0.977" r="0.977" transform="translate(10.973 12.583)" fill="#ffd600"/>
    </g>
  </g>
</svg>
