<svg xmlns="http://www.w3.org/2000/svg" width="106" height="106" viewBox="0 0 106 106">
  <g id="Grupo_1177070" data-name="Grupo 1177070" transform="translate(-199.143 -537)">
    <rect id="Rectángulo_454494" data-name="Rectángulo 454494" width="106" height="106" rx="5" transform="translate(199.143 537)" fill="#c8bf57"/>
    <circle id="Elipse_13580" data-name="Elipse 13580" cx="36" cy="36" r="36" transform="translate(216.571 554)" fill="#fee3cd"/>
    <g id="Grupo_1181094" data-name="Grupo 1181094" transform="translate(210.205 548.066)">
      <g id="Grupo_1181112" data-name="Grupo 1181112" transform="translate(1.364 1.364)">
        <g id="Grupo_1181094-2" data-name="Grupo 1181094" transform="translate(76.411)">
          <path id="Trazado_1012996" data-name="Trazado 1012996" d="M62.458,2.364V18.738A1.368,1.368,0,0,1,61.093,20.1H57V2.364A1.369,1.369,0,0,1,58.364,1h2.729A1.369,1.369,0,0,1,62.458,2.364Z" transform="translate(-57 -1)" fill="#ff826e"/>
        </g>
        <g id="Grupo_1181095" data-name="Grupo 1181095" transform="translate(66.86 5.458)">
          <path id="Trazado_1012997" data-name="Trazado 1012997" d="M55.458,6.364v12.28H50V6.364A1.368,1.368,0,0,1,51.364,5h2.729A1.368,1.368,0,0,1,55.458,6.364Z" transform="translate(-50 -5)" fill="#ff826e"/>
        </g>
        <g id="Grupo_1181096" data-name="Grupo 1181096" transform="translate(57.308 10.916)">
          <path id="Trazado_1012998" data-name="Trazado 1012998" d="M48.458,10.364v6.822H44.364A1.368,1.368,0,0,1,43,15.822V10.364A1.368,1.368,0,0,1,44.364,9h2.729A1.368,1.368,0,0,1,48.458,10.364Z" transform="translate(-43 -9)" fill="#ff826e"/>
        </g>
        <g id="Grupo_1181097" data-name="Grupo 1181097" transform="translate(0 8.187)">
          <path id="Trazado_1012999" data-name="Trazado 1012999" d="M20.649,11.366a10.916,10.916,0,0,1-8.733,17.465,10.526,10.526,0,0,1-3.548-.6,10.912,10.912,0,1,1,12.28-16.865Z" transform="translate(-1 -7)" fill="#e6e9ed"/>
        </g>
        <g id="Grupo_1181098" data-name="Grupo 1181098" transform="translate(6.822 13.645)">
          <path id="Trazado_1013000" data-name="Trazado 1013000" d="M14.378,14.4a2.4,2.4,0,0,1,0,4.121l-5.144,3.1a2.188,2.188,0,0,1-1.092.3A2.137,2.137,0,0,1,6,19.774V13.142A2.137,2.137,0,0,1,8.142,11a2.188,2.188,0,0,1,1.092.3Z" transform="translate(-6 -11)" fill="#ff826e"/>
        </g>
        <g id="Grupo_1181099" data-name="Grupo 1181099" transform="translate(38.206 16.374)">
          <path id="Trazado_1013001" data-name="Trazado 1013001" d="M34.458,15.729a2.749,2.749,0,0,1-2.729,2.729A2.737,2.737,0,0,1,29,15.729V13h5.458Z" transform="translate(-29 -13)" fill="#aab2bd"/>
        </g>
        <g id="Grupo_1181100" data-name="Grupo 1181100" transform="translate(32.748 0)">
          <path id="Trazado_1013002" data-name="Trazado 1013002" d="M33.187,17.374H30.458l-3.9-4.885A7.042,7.042,0,0,1,25,8.068a5.275,5.275,0,0,1,.041-.655A7.041,7.041,0,0,1,32.068,1h2.238a7.059,7.059,0,0,1,7.027,6.4,5.332,5.332,0,0,1,.041.669,7.042,7.042,0,0,1-1.556,4.421l-3.9,4.885Z" transform="translate(-25 -1)" fill="#ffeaa7"/>
        </g>
        <g id="Grupo_1181101" data-name="Grupo 1181101" transform="translate(38.206 5.458)">
          <circle id="Elipse_13789" data-name="Elipse 13789" cx="2.729" cy="2.729" r="2.729" fill="#fcd770"/>
        </g>
        <g id="Grupo_1181102" data-name="Grupo 1181102" transform="translate(54.579 35.477)">
          <path id="Trazado_1013003" data-name="Trazado 1013003" d="M43.811,27.7a3.5,3.5,0,0,1,0,6.8l-2.811.7V27Z" transform="translate(-41 -27)" fill="#fcd770"/>
        </g>
        <g id="Grupo_1181103" data-name="Grupo 1181103" transform="translate(32.748 46.393)">
          <path id="Trazado_1013004" data-name="Trazado 1013004" d="M30.458,35v9.551a1.369,1.369,0,0,1-1.364,1.364H26.364A1.368,1.368,0,0,1,25,44.551V35Z" transform="translate(-25 -35)" fill="#969faa"/>
        </g>
        <g id="Grupo_1181104" data-name="Grupo 1181104" transform="translate(32.748 30.019)">
          <path id="Trazado_1013005" data-name="Trazado 1013005" d="M41.374,23V42.1a9.327,9.327,0,0,0-6.59-2.729H25V25.729h9.783A9.327,9.327,0,0,0,41.374,23Z" transform="translate(-25 -23)" fill="#e6e9ed"/>
        </g>
        <g id="Grupo_1181105" data-name="Grupo 1181105" transform="translate(49.121 27.29)">
          <path id="Trazado_1013006" data-name="Trazado 1013006" d="M42.458,37.374V44.2a1.369,1.369,0,0,1-1.364,1.364H38.364A1.369,1.369,0,0,1,37,44.2V22.364A1.368,1.368,0,0,1,38.364,21h2.729a1.368,1.368,0,0,1,1.364,1.364V37.374Z" transform="translate(-37 -21)" fill="#ff826e"/>
        </g>
        <g id="Grupo_1181106" data-name="Grupo 1181106" transform="translate(24.561 32.748)">
          <path id="Trazado_1013007" data-name="Trazado 1013007" d="M27.187,25V38.645H25.822a6.822,6.822,0,1,1,0-13.645Z" transform="translate(-19 -25)" fill="#ff826e"/>
        </g>
        <g id="Grupo_1181107" data-name="Grupo 1181107" transform="translate(68.224 38.206)">
          <path id="Trazado_1013008" data-name="Trazado 1013008" d="M63.963,34.417l.682,5.5H51l.682-5.5a6.188,6.188,0,0,1,12.28,0Z" transform="translate(-51 -29)" fill="#b4dd7f"/>
        </g>
        <g id="Grupo_1181108" data-name="Grupo 1181108" transform="translate(69.589 27.29)">
          <path id="Trazado_1013009" data-name="Trazado 1013009" d="M57.458,21a5.493,5.493,0,1,1-1.3.164A5.037,5.037,0,0,1,57.458,21Z" transform="translate(-52 -21)" fill="#f0d0b4"/>
        </g>
        <g id="Grupo_1181109" data-name="Grupo 1181109" transform="translate(54.579 57.308)">
          <path id="Trazado_1013010" data-name="Trazado 1013010" d="M57.851,44.76A10.909,10.909,0,1,1,51.916,43,10.881,10.881,0,0,1,57.851,44.76Z" transform="translate(-41 -43)" fill="#fcd770"/>
        </g>
        <g id="Grupo_1181110" data-name="Grupo 1181110" transform="translate(19.103 65.495)">
          <path id="Trazado_1013011" data-name="Trazado 1013011" d="M36.832,50.364v8.187a1.341,1.341,0,0,1-1.146,1.337.566.566,0,0,1-.218.027H28.645L27.608,64.05a1.743,1.743,0,0,1-3.384,0l-1.037-4.134H16.364A1.368,1.368,0,0,1,15,58.551V50.364A1.369,1.369,0,0,1,16.364,49h19.1A1.368,1.368,0,0,1,36.832,50.364Z" transform="translate(-15 -49)" fill="#e6e9ed"/>
        </g>
        <g id="Grupo_1181111" data-name="Grupo 1181111" transform="translate(0 38.206)">
          <path id="Trazado_1013012" data-name="Trazado 1013012" d="M11.916,29a10.916,10.916,0,0,1,.123,21.832h-.123A10.907,10.907,0,0,1,6.485,30.46v-.014A10.9,10.9,0,0,1,11.916,29Z" transform="translate(-1 -29)" fill="#69d6f4"/>
        </g>
      </g>
      <g id="Grupo_1181113" data-name="Grupo 1181113" transform="translate(0)">
        <path id="Trazado_1013013" data-name="Trazado 1013013" d="M17.28,16.822a3.8,3.8,0,0,0-1.833-3.237L10.3,10.5a3.5,3.5,0,0,0-5.3,3v6.641a3.5,3.5,0,0,0,5.3,3l5.145-3.086a3.8,3.8,0,0,0,1.833-3.237Zm-3.237.9L8.9,20.805a.8.8,0,0,1-1.169-.662V13.5A.771.771,0,0,1,8.9,12.839l5.145,3.086a1.045,1.045,0,0,1,0,1.793Z" transform="translate(1.822 3.645)"/>
        <path id="Trazado_1013014" data-name="Trazado 1013014" d="M74.565,60.04a36.579,36.579,0,0,0,3.3-8.19H84.78l-.88-7.034a7.527,7.527,0,0,0-3.331-5.334A6.8,6.8,0,0,0,76.411,27.29c-.157,0-.3.035-.458.046a36.922,36.922,0,0,0-3.022-5.5h8.939A2.732,2.732,0,0,0,84.6,19.1V2.729A2.732,2.732,0,0,0,81.869,0H79.14a2.732,2.732,0,0,0-2.729,2.729V19.1H75.047V8.187a2.732,2.732,0,0,0-2.729-2.729H69.589A2.732,2.732,0,0,0,66.86,8.187V19.1H65.5V13.645a2.732,2.732,0,0,0-2.729-2.729H61.579a36.6,36.6,0,0,0-9.913-4.23A8.451,8.451,0,0,0,43.414,0H41.183a8.448,8.448,0,0,0-8.247,6.671A36.422,36.422,0,0,0,21.23,12.085,12.267,12.267,0,1,0,7.071,31.571a36.67,36.67,0,0,0-1.535,8.663,12.262,12.262,0,0,0,6.133,22.5A36.885,36.885,0,0,0,19.1,70.893v5.518a2.732,2.732,0,0,0,2.729,2.729H27.59l.775,3.1a3.111,3.111,0,0,0,6.036,0l.775-3.1h5.758c.067,0,.128-.015.194-.019.39.012.778.019,1.171.019a36.535,36.535,0,0,0,14.267-2.878,12.271,12.271,0,1,0,18-16.222ZM79.14,2.729h2.729V19.1H79.14Zm2.052,42.426.5,3.967H71.135l.5-3.967a4.818,4.818,0,0,1,9.562,0ZM80.5,34.112a4.093,4.093,0,1,1-4.093-4.093A4.1,4.1,0,0,1,80.5,34.112ZM69.589,8.187h2.729V19.1H69.589Zm-9.551,5.458h2.729V19.1H60.037ZM41.184,2.729h2.231A5.706,5.706,0,0,1,47.87,12l-3.5,4.373h-.708v-2.98a4.093,4.093,0,1,0-2.729,0v2.98h-.708L36.728,12a5.705,5.705,0,0,1,4.456-9.27ZM40.935,19.1h2.729v1.364a1.364,1.364,0,1,1-2.729,0Zm0-9.551A1.364,1.364,0,1,1,42.3,10.916,1.366,1.366,0,0,1,40.935,9.551ZM2.729,20.467a9.551,9.551,0,1,1,9.551,9.551A9.563,9.563,0,0,1,2.729,20.467Zm0,30.019a9.491,9.491,0,0,1,.4-2.729H5.719a14.418,14.418,0,0,0,0,5.458H3.131A9.491,9.491,0,0,1,2.729,50.486Zm5.458,0a11.874,11.874,0,0,1,.329-2.729h7.531a11.948,11.948,0,0,1,.327,2.729,11.873,11.873,0,0,1-.329,2.729H8.516a11.873,11.873,0,0,1-.329-2.729ZM12.28,41.5l.634.634a11.859,11.859,0,0,1,2.123,2.9H9.523a11.859,11.859,0,0,1,2.123-2.9Zm2.758,14.444a11.826,11.826,0,0,1-2.123,2.894l-.634.634-.634-.634a11.826,11.826,0,0,1-2.123-2.894Zm3,0h2.064a9.6,9.6,0,0,1-3.916,3.246A14.364,14.364,0,0,0,18.043,55.944Zm3.789-5.458a9.491,9.491,0,0,1-.4,2.729H18.842a14.418,14.418,0,0,0,0-5.458h2.587A9.491,9.491,0,0,1,21.832,50.486Zm-3.789-5.458a14.411,14.411,0,0,0-1.85-3.246,9.6,9.6,0,0,1,3.915,3.246Zm-11.524,0H4.454a9.6,9.6,0,0,1,3.915-3.246A14.411,14.411,0,0,0,6.518,45.028ZM4.454,55.944H6.518A14.364,14.364,0,0,0,8.37,59.19,9.594,9.594,0,0,1,4.454,55.944ZM40.935,76.411H33.048l-1.292,5.167a.4.4,0,0,1-.744,0l-1.294-5.169H21.832V68.224h19.1Zm2.729-.041V68.224A2.732,2.732,0,0,0,40.935,65.5h-19.1a2.723,2.723,0,0,0-2.6,1.929,34.108,34.108,0,0,1-4.4-4.929A12.276,12.276,0,1,0,8.368,38.855a33.929,33.929,0,0,1,1.284-6.4A12.256,12.256,0,0,0,22.865,14.271,33.716,33.716,0,0,1,32.84,9.517,8.453,8.453,0,0,0,34.6,13.7l3.609,4.512v2.25a4.093,4.093,0,0,0,8.187,0v-2.25L50,13.706a8.447,8.447,0,0,0,1.753-4.162,33.66,33.66,0,0,1,6.15,2.419,2.691,2.691,0,0,0-.6,1.681V19.1a2.732,2.732,0,0,0,2.729,2.729h9.535a34.131,34.131,0,0,1,3.722,6.247,6.756,6.756,0,0,0-1.041,11.4,7.522,7.522,0,0,0-3.331,5.334l-.88,7.034h6.99a33.915,33.915,0,0,1-2.777,6.724,12.247,12.247,0,0,0-16.911,15.24A34.081,34.081,0,0,1,43.664,76.37Zm13.645-6.781A9.559,9.559,0,0,1,65.5,60.147v2.62H62.766V66.86a4.1,4.1,0,0,0,4.093,4.093,1.365,1.365,0,0,1,1.364,1.364v1.364H66.86A1.365,1.365,0,0,1,65.5,72.318V70.953H62.766v1.364A4.088,4.088,0,0,0,65.5,76.16v2.871A9.559,9.559,0,0,1,57.308,69.589Zm10.916,9.442v-2.62h2.729V72.318a4.1,4.1,0,0,0-4.093-4.093A1.365,1.365,0,0,1,65.5,66.86V65.5H66.86a1.365,1.365,0,0,1,1.364,1.364v1.364h2.729V66.86a4.088,4.088,0,0,0-2.729-3.842V60.147a9.538,9.538,0,0,1,0,18.884Z" transform="translate(0)"/>
        <path id="Trazado_1013015" data-name="Trazado 1013015" d="M50.748,44.561V38.8l1.777-.443a4.859,4.859,0,0,0,0-9.429l-1.777-.445V22.729A2.732,2.732,0,0,0,48.019,20H45.29a2.732,2.732,0,0,0-2.729,2.729v.763a7.894,7.894,0,0,1-5.223,1.966H26.187a8.187,8.187,0,1,0,0,16.374v8.187a2.732,2.732,0,0,0,2.729,2.729h2.729a2.732,2.732,0,0,0,2.729-2.729V41.832h2.964A8.006,8.006,0,0,1,42.561,43.8v.761A2.732,2.732,0,0,0,45.29,47.29h2.729A2.732,2.732,0,0,0,50.748,44.561ZM20.729,33.645a5.463,5.463,0,0,1,5.458-5.458V39.1A5.463,5.463,0,0,1,20.729,33.645ZM31.645,50.019H28.916V41.832h2.729ZM37.337,39.1H28.916V28.187h8.422a10.61,10.61,0,0,0,5.223-1.369V40.482A10.744,10.744,0,0,0,37.337,39.1Zm14.525-7.525a2.131,2.131,0,0,1,0,4.134l-1.115.28V31.3ZM45.29,22.729h2.729l0,21.832H45.29Z" transform="translate(6.561 7.29)"/>
        <path id="Trazado_1013016" data-name="Trazado 1013016" d="M28,29h2.729v2.729H28Z" transform="translate(10.206 10.57)"/>
        <path id="Trazado_1013017" data-name="Trazado 1013017" d="M32,29h2.729v2.729H32Z" transform="translate(11.664 10.57)"/>
        <path id="Trazado_1013018" data-name="Trazado 1013018" d="M18,52h2.729v2.729H18Z" transform="translate(6.561 18.953)"/>
        <path id="Trazado_1013019" data-name="Trazado 1013019" d="M22,52h2.729v2.729H22Z" transform="translate(8.019 18.953)"/>
        <path id="Trazado_1013020" data-name="Trazado 1013020" d="M26,52h2.729v2.729H26Z" transform="translate(9.477 18.953)"/>
      </g>
    </g>
  </g>
</svg>
