<svg xmlns="http://www.w3.org/2000/svg" width="50" height="50" viewBox="0 0 50 50">
  <path id="Trazado_993938" data-name="Trazado 993938" d="M50,21.774V8.871a2.422,2.422,0,0,0-2.419-2.419h-1.15a8.861,8.861,0,0,0-17.055,0h-1.15a2.422,2.422,0,0,0-2.419,2.419v5.686c-.267-.021-.534-.041-.806-.041s-.54.02-.806.041V8.871a2.422,2.422,0,0,0-2.419-2.419h-.82A6.723,6.723,0,0,0,14.248,0H10.615A4.339,4.339,0,0,0,6.651,2.565,5.052,5.052,0,0,0,3.314,6.452H2.419A2.422,2.422,0,0,0,0,8.871v12.9a2.422,2.422,0,0,0,2.419,2.419H14.557c-.021.267-.041.534-.041.806s.02.55.042.823c-.1,0-.206-.016-.31-.016h-4.3A6.723,6.723,0,0,0,3.24,32.258h-.82A2.422,2.422,0,0,0,0,34.677v12.9A2.422,2.422,0,0,0,2.419,50H21.774a2.422,2.422,0,0,0,2.419-2.419V35.443c.267.021.534.041.806.041s.54-.02.806-.041V47.581A2.422,2.422,0,0,0,28.226,50H47.581A2.422,2.422,0,0,0,50,47.581v-12.9a2.422,2.422,0,0,0-2.419-2.419h-1.15a8.82,8.82,0,0,0-11.017-6.084A10.444,10.444,0,0,0,35.484,25c0-.273-.02-.54-.041-.806H47.581A2.422,2.422,0,0,0,50,21.774ZM47.581,8.065a.807.807,0,0,1,.806.806v12.9a.807.807,0,0,1-.806.806h-.806V8.871c0-.273-.017-.54-.041-.806Zm-7.428,7.651-.551.276a1.6,1.6,0,0,0-.892,1.443v1.115a.806.806,0,1,1-1.613,0V17.434a1.6,1.6,0,0,0-.891-1.443l-.552-.276a3.206,3.206,0,0,1-1.783-2.885V9.507a.637.637,0,0,1,.636-.636h.669l.631-1.261a.662.662,0,0,1,1.077-.1l.052.069a7.294,7.294,0,0,0,5,2.858v2.393a3.206,3.206,0,0,1-1.783,2.885Zm-7.26,13.317H31.238a.984.984,0,0,1-.956-.746l-.22-.885a.991.991,0,0,1,.259-.936l.371-.371a2.615,2.615,0,0,0,.76-1.836V22.871a.972.972,0,0,1,.051-.311l.843-2.529a8.828,8.828,0,0,1,.547,9ZM30.645,16.18V13.561a2.392,2.392,0,0,0,.806.148h.9a4.8,4.8,0,0,0,2.585,3.448l.552.276v.51a6.932,6.932,0,0,0-1.915,1.035,10.568,10.568,0,0,0-2.924-2.8ZM32.258,12.1h-.806a.806.806,0,1,1,0-1.613h.806Zm8.065,5.337.552-.276A4.8,4.8,0,0,0,43.46,13.71h.9a2.392,2.392,0,0,0,.806-.148v9.019H44.3a5.739,5.739,0,0,0-3.975-4.647Zm3.226-6.95h.806a.806.806,0,0,1,0,1.613h-.806ZM37.9,1.613a7.266,7.266,0,0,1,7.258,7.258v.148a2.392,2.392,0,0,0-.806-.148H42.742a5.674,5.674,0,0,1-4.515-2.256l-.051-.07a2.261,2.261,0,0,0-1.8-.9,2.235,2.235,0,0,0-2.011,1.244l-.2.4a2.25,2.25,0,0,0-1.807,1.587h-.907a2.392,2.392,0,0,0-.806.148V8.871A7.266,7.266,0,0,1,37.9,1.613ZM27.419,8.871a.807.807,0,0,1,.806-.806h.848c-.024.266-.041.534-.041.806v6.454a10.472,10.472,0,0,0-1.613-.516ZM21.559,32.21l-.215.863A8.921,8.921,0,0,1,17.16,29.14L18.4,27.9a.994.994,0,0,1,.935-.26l1.735.434a2.594,2.594,0,0,0,1.452-.055l1.094-.365a.99.99,0,0,1,.858.117l.2.131a.985.985,0,0,1,.272,1.366l-.277.418a.984.984,0,0,1-.507.387l-.9.3A2.589,2.589,0,0,0,21.559,32.21ZM17.742,36.29h.806a.806.806,0,1,1,0,1.613h-.806Zm3.813-19.465,2.451,1.96a2.61,2.61,0,0,0,1.623.569.994.994,0,0,1,.985,1.021.984.984,0,0,1-.746.956l-1.388.347a2.589,2.589,0,0,0-1.206.683l-.738.738a.994.994,0,0,1-.7.287H21.56a.983.983,0,0,1-.956-.746l-.128-.512a2.593,2.593,0,0,0-2.519-1.968h-.381a8.914,8.914,0,0,1,3.98-3.335Zm1.026-7.955v5.938a10.5,10.5,0,0,0-6.15,4.171,6.932,6.932,0,0,0-1.915-1.035v-.51l.552-.276a4.8,4.8,0,0,0,2.585-3.448h.9A2.413,2.413,0,0,0,20.3,9.625a6.675,6.675,0,0,0,.521-1.56h.958A.807.807,0,0,1,22.581,8.871Zm-8.235,6.844-.551.276a1.6,1.6,0,0,0-.892,1.443l0,1.115h0a.806.806,0,1,1-1.613,0V17.434a1.6,1.6,0,0,0-.891-1.443l-.552-.276a3.206,3.206,0,0,1-1.783-2.885V9.507A.637.637,0,0,1,8.7,8.871h.669L10,7.61a.662.662,0,0,1,1.077-.1l.052.069a7.294,7.294,0,0,0,5,2.858v2.393A3.206,3.206,0,0,1,14.346,15.715Zm3.4-5.231h.806a.806.806,0,1,1,0,1.613h-.806ZM4.839,7.357A3.447,3.447,0,0,1,7.453,4.008l.43-.107.14-.42a2.73,2.73,0,0,1,2.592-1.868h3.633a5.094,5.094,0,0,1,4.61,7.29,2.29,2.29,0,0,0-.309-.031H16.935A5.674,5.674,0,0,1,12.42,6.615l-.051-.07a2.261,2.261,0,0,0-1.8-.9A2.235,2.235,0,0,0,8.557,6.889l-.2.4A2.25,2.25,0,0,0,6.552,8.871H5.645a2.384,2.384,0,0,0-.512.057,3.441,3.441,0,0,1-.294-1.381ZM6.452,12.1H5.645a.806.806,0,1,1,0-1.613h.806ZM1.613,21.774V8.871a.807.807,0,0,1,.806-.806h.845A5.008,5.008,0,0,0,3.757,9.8a2.4,2.4,0,0,0-.531,1.494A2.422,2.422,0,0,0,5.645,13.71h.9a4.8,4.8,0,0,0,2.585,3.448l.552.276v.5A5.738,5.738,0,0,0,5.7,22.581H2.419A.807.807,0,0,1,1.613,21.774Zm5.723.806a4.054,4.054,0,0,1,2.579-3,2.406,2.406,0,0,0,4.36,0,4.99,4.99,0,0,1,1.328.8,10.405,10.405,0,0,0-.794,2.2Zm2.61,4.839h4.3a5.163,5.163,0,0,1,.57.033,10.508,10.508,0,0,0,4.392,6.279,5.017,5.017,0,0,1-.347.977,2.374,2.374,0,0,0-.315-.031h-.806V33.065h-.806a3.107,3.107,0,0,1-2.183-.9L13.71,31.118,12.188,32.64a6.9,6.9,0,0,1-3.973,1.966,3.44,3.44,0,0,1,2.464-2.372l-.39-1.564a5.055,5.055,0,0,0-3.752,4.008H5.645a2.3,2.3,0,0,0-.309.031,5.094,5.094,0,0,1,4.61-7.29Zm.2,17.876L12.1,48.228l1.957-2.936a4.089,4.089,0,0,1,2.8,3.1H7.336A4.13,4.13,0,0,1,10.142,45.3Zm4.2-3.773L13.8,41.8A1.6,1.6,0,0,0,12.9,43.24v.87L12.1,45.32l-.806-1.21v-.87A1.6,1.6,0,0,0,10.4,41.8l-.552-.276a3.206,3.206,0,0,1-1.783-2.885V36.252a8.5,8.5,0,0,0,5.264-2.472l.383-.383a4.741,4.741,0,0,0,2.418,1.21v4.031a3.206,3.206,0,0,1-1.783,2.885ZM6.452,37.9H5.645a.806.806,0,1,1,0-1.613h.806ZM1.613,47.581v-12.9a.807.807,0,0,1,.806-.806h.958a6.711,6.711,0,0,0,.52,1.56,2.414,2.414,0,0,0,1.748,4.085h.9a4.8,4.8,0,0,0,2.585,3.448l.552.276v.5A5.738,5.738,0,0,0,5.7,48.387H2.419A.807.807,0,0,1,1.613,47.581Zm20.968,0a.807.807,0,0,1-.806.806H18.491a5.739,5.739,0,0,0-3.975-4.647v-.5l.552-.276a4.8,4.8,0,0,0,2.585-3.448h.9A2.412,2.412,0,0,0,20.3,35.44a6.643,6.643,0,0,0,.352-.911,10.386,10.386,0,0,0,1.927.662ZM22.874,33.6l.25-1a.982.982,0,0,1,.644-.7l.9-.3a2.611,2.611,0,0,0,1.34-1.024l.277-.418a2.6,2.6,0,0,0-.721-3.6l-.2-.131a2.613,2.613,0,0,0-2.262-.3l-1.092.364a.981.981,0,0,1-.552.021l-1.737-.435a2.616,2.616,0,0,0-2.466.685l-.761.761a8.75,8.75,0,0,1,.245-5.746h1.211a.983.983,0,0,1,.956.746l.128.512A2.593,2.593,0,0,0,21.56,25h.279a2.615,2.615,0,0,0,1.836-.76l.738-.738a.985.985,0,0,1,.456-.259l1.388-.347a2.618,2.618,0,0,0-.63-5.154.986.986,0,0,1-.615-.216l-1.565-1.252A8.754,8.754,0,0,1,31.123,18.6l-1.151,3.452a2.585,2.585,0,0,0-.134.823v1.387a.991.991,0,0,1-.288.7l-.371.371a2.613,2.613,0,0,0-.684,2.467l.221.885a2.593,2.593,0,0,0,2.52,1.968h.6A8.793,8.793,0,0,1,22.874,33.6Zm4.545,13.978V35.191a10.3,10.3,0,0,0,1.613-.516v6.454a5.606,5.606,0,0,0,3.227,5.089,5.282,5.282,0,0,0-.752,2.169H28.226A.807.807,0,0,1,27.419,47.581ZM39.6,41.8a1.6,1.6,0,0,0-.892,1.443v.511a1.6,1.6,0,0,0,.419,1.059,2.317,2.317,0,0,1-2.452,0,1.6,1.6,0,0,0,.419-1.059V43.24a1.6,1.6,0,0,0-.891-1.443l-.552-.276a3.206,3.206,0,0,1-1.783-2.885v-2.4a6.6,6.6,0,0,0,3.894-1.9l.068-.067a6.224,6.224,0,0,0,4.1,2v2.366a3.207,3.207,0,0,1-1.783,2.885ZM35.14,45.669a4,4,0,0,0,5.526,0,3.833,3.833,0,0,1,2,2.719H33.14A3.836,3.836,0,0,1,35.14,45.669Zm12.44-11.8a.807.807,0,0,1,.806.806v12.9a.807.807,0,0,1-.806.806H44.3a5.294,5.294,0,0,0-.752-2.169,5.6,5.6,0,0,0,3.227-5.089V34.677c0-.273-.017-.54-.041-.806ZM37.9,27.419a7.266,7.266,0,0,1,7.258,7.258v6.452a4,4,0,0,1-2.734,3.8,6.84,6.84,0,0,0-2.1-1.181V43.24l.552-.276a4.812,4.812,0,0,0,2.674-4.327v-3.96H42.423a4.615,4.615,0,0,1-3.849-2.06l-.546-.819-1.4,1.4a5,5,0,0,1-3.56,1.475h-.806v3.96a4.812,4.812,0,0,0,2.674,4.327l.552.276,0,.51a6.857,6.857,0,0,0-2.107,1.183,4,4,0,0,1-2.734-3.8V34.677a7.361,7.361,0,0,1,.061-.894,10.521,10.521,0,0,0,4.33-5.764A7.183,7.183,0,0,1,37.9,27.419ZM34.4,20.38a5,5,0,0,1,1.328-.8,2.405,2.405,0,0,0,4.362-.01,4.017,4.017,0,0,1,2.577,3.009H35.191A10.405,10.405,0,0,0,34.4,20.38Z" fill="#ffd600"/>
</svg>
