<svg xmlns="http://www.w3.org/2000/svg" width="100" height="100" viewBox="0 0 100 100">
  <g id="Grupo_1180963" data-name="Grupo 1180963" transform="translate(-637 -6992)">
    <g id="Grupo_1098742" data-name="Grupo 1098742" transform="translate(637.242 6992)">
      <rect id="Rectángulo_400898" data-name="Rectángulo 400898" width="100" height="100" rx="50" transform="translate(-0.242)" fill="#fff" opacity="0.859"/>
      <g id="Rectángulo_400907" data-name="Rectángulo 400907" transform="translate(-0.242)" fill="none" stroke="#c8bf57" stroke-linecap="round" stroke-width="3" stroke-dasharray="0 7">
        <rect width="100" height="100" rx="50" stroke="none"/>
        <rect x="1.5" y="1.5" width="97" height="97" rx="48.5" fill="none"/>
      </g>
    </g>
    <g id="Grupo_1107006" data-name="Grupo 1107006" transform="translate(645.398 7000.157)">
      <rect id="Rectángulo_400898-2" data-name="Rectángulo 400898" width="84" height="84" rx="42" transform="translate(-0.399 -0.157)" fill="#405425"/>
      <rect id="Rectángulo_400907-2" data-name="Rectángulo 400907" width="84" height="84" rx="42" transform="translate(-0.398 -0.157)" fill="none"/>
    </g>
    <g id="Grupo_1181143" data-name="Grupo 1181143" transform="translate(660.783 7016.299)">
      <g id="Grupo_1181141" data-name="Grupo 1181141" transform="translate(1.813 1.651)">
        <g id="Grupo_1181129" data-name="Grupo 1181129" transform="translate(1.627)">
          <path id="Trazado_1013066" data-name="Trazado 1013066" d="M33.284,2v8.134H4V2L8.881,5.254,13.761,2l4.881,3.254L23.523,2,28.4,5.254Z" transform="translate(-4 -2)" fill="#cf9e76"/>
        </g>
        <g id="Grupo_1181130" data-name="Grupo 1181130" transform="translate(0 8.134)">
          <path id="Trazado_1013067" data-name="Trazado 1013067" d="M3.627,12V40.178a8.079,8.079,0,0,1-.862,3.636l-.366.732a3.865,3.865,0,0,0-.4,1.7,3.764,3.764,0,0,0,.268,1.407L3.22,50.02a1.624,1.624,0,0,0,1.5,1.025h29L32.911,12Z" transform="translate(-2 -12)" fill="#dfb28b"/>
        </g>
        <g id="Grupo_1181131" data-name="Grupo 1181131" transform="translate(4.881 13.015)">
          <path id="Trazado_1013068" data-name="Trazado 1013068" d="M25.9,26.134A6.506,6.506,0,0,0,32.4,32.642H28.117a1.635,1.635,0,0,0-1.611,1.4l-.675,4.734a11.384,11.384,0,1,1-.334-19,15.671,15.671,0,0,1,.4,3.49Z" transform="translate(-8 -18)" fill="#e6e9ed"/>
        </g>
        <g id="Grupo_1181132" data-name="Grupo 1181132" transform="translate(9.761 17.896)">
          <path id="Trazado_1013069" data-name="Trazado 1013069" d="M23.168,25.993l-.106.228a8.708,8.708,0,0,0-.927,3.913,8.822,8.822,0,0,0,.26,2.123,8.554,8.554,0,0,0-1.448-.122,8.708,8.708,0,0,0-3.913.927l-.805.4A9.67,9.67,0,0,1,14,27.254V25.627A1.632,1.632,0,0,1,15.627,24h1.627A9.719,9.719,0,0,1,23.168,25.993Z" transform="translate(-14 -24)" fill="#fcd770"/>
        </g>
        <g id="Grupo_1181133" data-name="Grupo 1181133" transform="translate(33.75 13.015)">
          <path id="Trazado_1013070" data-name="Trazado 1013070" d="M44.588,22.653a8.2,8.2,0,0,0-1.1.456,2.074,2.074,0,0,1,.106-.236A8.116,8.116,0,0,1,51.039,18H56.92v6.508a8.137,8.137,0,0,1-8.134,8.134l.155-.236a8.744,8.744,0,0,0,1.066-7.492c-.016-.041-.024-.089-.041-.13l-1.179-3.53Z" transform="translate(-43.49 -18)" fill="#b4dd7f"/>
        </g>
        <g id="Grupo_1181134" data-name="Grupo 1181134" transform="translate(21.15 11.388)">
          <path id="Trazado_1013071" data-name="Trazado 1013071" d="M37.306,25.786A8.145,8.145,0,0,0,36.134,30v2.27a6.506,6.506,0,0,1-6.508-6.508V22.89a15.671,15.671,0,0,0-.4-3.49A15.455,15.455,0,0,0,28,16h2.855A10.728,10.728,0,0,1,40.7,22.491l.008.008a2.074,2.074,0,0,0-.106.236v.008A8.094,8.094,0,0,0,37.306,25.786Z" transform="translate(-28 -16)" fill="#b4dd7f"/>
        </g>
        <g id="Grupo_1181135" data-name="Grupo 1181135" transform="translate(29.284 16.269)">
          <path id="Trazado_1013072" data-name="Trazado 1013072" d="M41.254,33.388H38v-2.27a8.1,8.1,0,0,1,4.466-7.256v-.008a8.2,8.2,0,0,1,1.1-.456l4.2-1.4,1.179,3.53c.016.041.024.089.041.13a8.744,8.744,0,0,1-1.066,7.492l-.155.236Z" transform="translate(-38 -22)" fill="#a0d468"/>
        </g>
        <g id="Grupo_1181136" data-name="Grupo 1181136" transform="translate(21.15 27.657)">
          <path id="Trazado_1013073" data-name="Trazado 1013073" d="M55.625,52.846a3.067,3.067,0,0,1,.033.472,3.342,3.342,0,0,1-.984,2.375l-.976.976a1.632,1.632,0,0,1-1.155.48H31.115a1.632,1.632,0,0,1-1.155-.48l-.976-.976c-.057-.057-.106-.114-.163-.171a3.363,3.363,0,0,1-.822-2.2,3.067,3.067,0,0,1,.033-.472l.545-3.831.984-6.882.675-4.734A1.635,1.635,0,0,1,31.848,36H51.81a1.635,1.635,0,0,1,1.611,1.4Z" transform="translate(-28 -36)" fill="#d3a06c"/>
        </g>
        <g id="Grupo_1181137" data-name="Grupo 1181137" transform="translate(27.657 30.911)">
          <path id="Trazado_1013074" data-name="Trazado 1013074" d="M43.321,40A7.321,7.321,0,1,1,36,47.321,7.322,7.322,0,0,1,43.321,40Z" transform="translate(-36 -40)" fill="#e6e9ed"/>
        </g>
        <g id="Grupo_1181138" data-name="Grupo 1181138" transform="translate(30.911 34.165)">
          <path id="Trazado_1013075" data-name="Trazado 1013075" d="M41.139,51.2A3.518,3.518,0,0,1,40,48.6a3.2,3.2,0,0,1,2.009-2.969l.992-.39A5.7,5.7,0,0,0,44.881,44l1.033.512A4.029,4.029,0,0,1,47.533,46a3.955,3.955,0,0,1,.6,2.115,4.017,4.017,0,0,1-4.018,4.018H43.53a3.477,3.477,0,0,1-2.392-.935Z" transform="translate(-40 -44)" fill="#b4dd7f"/>
        </g>
        <g id="Grupo_1181139" data-name="Grupo 1181139" transform="translate(17.896 19.889)">
          <path id="Trazado_1013076" data-name="Trazado 1013076" d="M28.881,34.218a3.274,3.274,0,0,1-.952,2.3,3.144,3.144,0,0,1-.968.659l-.4-.4a8.744,8.744,0,0,1-1.635-10.1l.106-.228a9.751,9.751,0,0,1,3.848,7.768Z" transform="translate(-24 -26.45)" fill="#a0d468"/>
        </g>
        <g id="Grupo_1181140" data-name="Grupo 1181140" transform="translate(11.99 26.03)">
          <path id="Trazado_1013077" data-name="Trazado 1013077" d="M22.906,34.122a8.788,8.788,0,0,0,2.3,4.067l.4.4a3.2,3.2,0,0,1-1.334.293,9.72,9.72,0,0,1-7.533-3.555l.805-.4A8.708,8.708,0,0,1,21.458,34,8.554,8.554,0,0,1,22.906,34.122Z" transform="translate(-16.74 -34)" fill="#b4dd7f"/>
        </g>
      </g>
      <g id="Grupo_1181142" data-name="Grupo 1181142" transform="translate(1 0.131)">
        <path id="Trazado_1013078" data-name="Trazado 1013078" d="M46.088,43.561l-1.554-.778-.415.415a4.763,4.763,0,0,1-1.61,1.061l-.992.4A3.987,3.987,0,0,0,39,48.375a4.35,4.35,0,0,0,4.346,4.346h.58a4.835,4.835,0,0,0,2.162-9.16Zm-2.162,7.533h-.58A2.652,2.652,0,0,1,42.675,51a8.252,8.252,0,0,0,2.5-2.409l.2-.3-1.354-.9-.2.3a6.619,6.619,0,0,1-2.655,2.29,2.691,2.691,0,0,1-.536-1.6,2.367,2.367,0,0,1,1.5-2.209l.992-.4a6.37,6.37,0,0,0,1.715-1.019l.531.266a3.208,3.208,0,0,1-1.434,6.078Z" transform="translate(-8.089 -8.088)"/>
        <path id="Trazado_1013079" data-name="Trazado 1013079" d="M43.134,39a8.134,8.134,0,1,0,8.134,8.134A8.144,8.144,0,0,0,43.134,39Zm0,14.642a6.508,6.508,0,1,1,6.508-6.508A6.515,6.515,0,0,1,43.134,53.642Z" transform="translate(-7.343 -7.382)"/>
        <path id="Trazado_1013080" data-name="Trazado 1013080" d="M51.392,46.039,49.184,30.59A2.452,2.452,0,0,0,46.769,28.5h-.782a8.939,8.939,0,0,0,3.819-7.321V13.853H43.113a8.9,8.9,0,0,0-7.424,3.953,11.488,11.488,0,0,0-2.151-2.615V.131l-5.694,3.8L22.964.674,18.083,3.927,13.2.674,8.322,3.927,2.627.131V37.964a7.35,7.35,0,0,1-.773,3.273l-.368.735a4.61,4.61,0,0,0-.157,3.773l.946,2.367a2.43,2.43,0,0,0,2.266,1.533h18.9l.912.912a2.426,2.426,0,0,0,1.726.715H47.506a2.426,2.426,0,0,0,1.725-.715l.982-.982a4.172,4.172,0,0,0,1.179-3.535ZM37.69,23.251l-.084.167A20.408,20.408,0,0,1,33.995,28.5H31.911V27.037a7.314,7.314,0,0,1,5.006-6.946l3.427-1.142.922,2.762a7.9,7.9,0,0,1-.855,6.783H36.2a22.053,22.053,0,0,0,2.867-4.35l.084-.167Zm-13.914-3.32V22.8a7.3,7.3,0,0,0,.081,1.031,10.568,10.568,0,0,0-9.029-5.1H13.2a2.443,2.443,0,0,0-2.44,2.44V22.8A10.587,10.587,0,0,0,21.336,33.376a4.05,4.05,0,0,0,2.829-1.155l-.391,2.74a10.575,10.575,0,1,1-.312-18,14.576,14.576,0,0,1,.315,2.975Zm-6.12,6.987-2.084-2.084,1.29-1.29L18.9,25.584c0,.033-.006.065-.006.1a9.582,9.582,0,0,0,.085,1.207,9.6,9.6,0,0,0-1.324.031Zm1.489-3.391-1.133-1.133.993-.993q.37.2.718.426A9.584,9.584,0,0,0,19.146,23.527Zm-2.283-2.283-.786-.786a8.876,8.876,0,0,1,1.3.276Zm-3.184-.883,2.034,2.034-1.29,1.29-2.034-2.034v-.477a.814.814,0,0,1,.813-.813Zm-.407,4.474-.51.51a8.876,8.876,0,0,1-.276-1.3Zm1.15,1.15,1.307,1.307a9.46,9.46,0,0,0-1.485.586l-.194.1a9.036,9.036,0,0,1-.621-1Zm4.91,2.555a9.483,9.483,0,0,0,1.721,3.194,8.908,8.908,0,0,1-5.9-2.482A8.026,8.026,0,0,1,19.332,28.54ZM22.8,31.247a7.887,7.887,0,0,1-2.28-5.566,7.967,7.967,0,0,1,.517-2.8,8.917,8.917,0,0,1,2.737,6.428A2.432,2.432,0,0,1,22.8,31.247Zm2.584-2.274a10.524,10.524,0,0,0-.228-1.908A7.369,7.369,0,0,0,26.54,28.52,2.428,2.428,0,0,0,25.386,28.973ZM43.113,15.48H48.18v5.694a7.332,7.332,0,0,1-5.814,7.163,9.509,9.509,0,0,0,.623-6.516L45.5,19.309l-1.15-1.15-1.916,1.916-1.061-3.184L37.4,18.215a7.277,7.277,0,0,1,5.708-2.735Zm-8.438,3.862A8.916,8.916,0,0,0,32.5,21.148a10.742,10.742,0,0,0-4.235-4.739l-.837,1.4a9.117,9.117,0,0,1,3.96,4.941,8.915,8.915,0,0,0-1.1,4.293V28.43A5.7,5.7,0,0,1,25.4,22.8v-2.87a16.319,16.319,0,0,0-1.182-6.078h1.6A9.874,9.874,0,0,1,34.675,19.342ZM8.321,5.883,13.2,2.629l4.881,3.254,4.881-3.254,4.881,3.254,4.067-2.711v5.8H4.254v-5.8ZM3.787,47.507,2.841,45.14a2.949,2.949,0,0,1-.214-1.106A3.006,3.006,0,0,1,2.942,42.7l.368-.735a8.993,8.993,0,0,0,.944-4V10.6H31.911v3.373a11.5,11.5,0,0,0-6.09-1.746H21.647l.589,1.177a14.6,14.6,0,0,1,.615,1.424A12.2,12.2,0,1,0,23.483,37l-.644,4.514H12.388v1.627H22.606l-.415,2.9a4.188,4.188,0,0,0-.041.588,4.144,4.144,0,0,0,.257,1.389H4.542a.809.809,0,0,1-.755-.511Zm45.276.918-.982.982a.818.818,0,0,1-.575.238H26.077a.816.816,0,0,1-.575-.238l-.982-.982a2.557,2.557,0,0,1-.743-1.8,2.632,2.632,0,0,1,.025-.359l2.208-15.45a.816.816,0,0,1,.8-.7H46.768a.816.816,0,0,1,.8.7l2.208,15.448a2.536,2.536,0,0,1-.717,2.156Z" transform="translate(-1 -0.131)"/>
        <path id="Trazado_1013081" data-name="Trazado 1013081" d="M7,51h4.881v1.627H7Z" transform="translate(-2.119 -9.621)"/>
      </g>
    </g>
  </g>
</svg>
