<svg xmlns="http://www.w3.org/2000/svg" width="169.706" height="169.706" viewBox="0 0 169.706 169.706">
  <g id="Grupo_1181072" data-name="Grupo 1181072" transform="translate(-363.98 -3369.146)">
    <rect id="Rect치ngulo_402033" data-name="Rect치ngulo 402033" width="120" height="120" rx="30" transform="translate(363.98 3453.999) rotate(-45)" fill="#ffd600"/>
    <rect id="Rect치ngulo_454167" data-name="Rect치ngulo 454167" width="100" height="100" rx="50" transform="translate(398.833 3403.999)" fill="#c8bf57"/>
    <g id="Grupo_1181785" data-name="Grupo 1181785" transform="translate(402.666 3363.813)">
      <g id="Grupo_1181784" data-name="Grupo 1181784" transform="translate(1.354 55.059)">
        <path id="Trazado_1014790" data-name="Trazado 1014790" d="M7.511,156.773H94.166a3.682,3.682,0,0,1,2.975,2.975v47.077a3.688,3.688,0,0,1-2.975,2.975H16.125a8.616,8.616,0,0,1-8.614-8.619V156.773Z" transform="translate(-7.511 -139.541)" fill="#ecf4ff" fill-rule="evenodd"/>
        <path id="Trazado_1014791" data-name="Trazado 1014791" d="M16.125,61.218a8.611,8.611,0,0,0-8.614,8.614v53.027a8.611,8.611,0,0,1,8.614-8.614,8.048,8.048,0,0,1,4.274,1.13.6.6,0,0,0,.92-.562V64.055a2.1,2.1,0,0,0-1.048-1.779,8.523,8.523,0,0,0-4.146-1.058Z" transform="translate(-7.511 -61.218)" fill="#cbe2ff" fill-rule="evenodd"/>
        <path id="Trazado_1014792" data-name="Trazado 1014792" d="M125.326,195.041H138.2a1.32,1.32,0,0,1,1.314,1.314v12.867a1.317,1.317,0,0,1-1.314,1.314H125.326a1.312,1.312,0,0,1-1.309-1.314V196.355A1.316,1.316,0,0,1,125.326,195.041Z" transform="translate(-103.006 -170.907)" fill="#cbe2ff" fill-rule="evenodd"/>
        <path id="Trazado_1014793" data-name="Trazado 1014793" d="M411.929,107.67l-6.037-1.835-5.521,1.835v43.084l5.812,1.513,5.746-1.513Z" transform="translate(-329.523 -97.789)" fill="#ff6978" fill-rule="evenodd"/>
        <path id="Trazado_1014794" data-name="Trazado 1014794" d="M406.879,364.858l2.162-4.253,2.888-5.69H400.371l2.888,5.69,2.162,4.253A.793.793,0,0,0,406.879,364.858Z" transform="translate(-329.523 -301.95)" fill="#ffcbbe" fill-rule="evenodd"/>
        <path id="Trazado_1014795" data-name="Trazado 1014795" d="M411.929,71.1V64.75a3.543,3.543,0,0,0-3.533-3.532h-4.488a3.544,3.544,0,0,0-3.538,3.532V71.1Z" transform="translate(-329.523 -61.218)" fill="#ff8793" fill-rule="evenodd"/>
        <path id="Trazado_1014796" data-name="Trazado 1014796" d="M117.925,379.352h8.813l1.447-4.785-1.447-3.722h-8.813a2.741,2.741,0,0,0-2.213,2.219v4.074a2.741,2.741,0,0,0,2.213,2.213Z" transform="translate(-96.199 -315.008)" fill="#f2ce7e" fill-rule="evenodd"/>
        <path id="Trazado_1014797" data-name="Trazado 1014797" d="M176.856,338.181h11.032l1.508-5.439-1.508-8.368v-1.539a2.741,2.741,0,0,0-2.219-2.219h-6.594a2.741,2.741,0,0,0-2.219,2.219v15.346Z" transform="translate(-146.316 -273.836)" fill="#b3e59f" fill-rule="evenodd"/>
        <path id="Trazado_1014798" data-name="Trazado 1014798" d="M238.028,355.258h11.027l1.115-3.665-1.115-4.841v-3.088a2.741,2.741,0,0,0-2.219-2.213h-8.808Z" transform="translate(-196.457 -290.914)" fill="#f2ce7e" fill-rule="evenodd"/>
        <path id="Trazado_1014799" data-name="Trazado 1014799" d="M299.172,379.352h8.813a2.742,2.742,0,0,0,2.214-2.213v-4.074a2.741,2.741,0,0,0-2.214-2.219h-8.813Z" transform="translate(-246.574 -315.008)" fill="#b3e59f" fill-rule="evenodd"/>
        <path id="Trazado_1014800" data-name="Trazado 1014800" d="M93.16,205.424H15.119a8.575,8.575,0,0,1-3.5-.741,8.61,8.61,0,0,0,7.873,5.117H97.535a3.688,3.688,0,0,0,2.975-2.975V159.748a3.682,3.682,0,0,0-2.975-2.975h-1.4v45.676A3.688,3.688,0,0,1,93.16,205.424Z" transform="translate(-10.881 -139.541)" fill="#cbe2ff" fill-rule="evenodd"/>
        <path id="Trazado_1014801" data-name="Trazado 1014801" d="M46.173,78.45v35.825a7.8,7.8,0,0,1,3.456,1.1.6.6,0,0,0,.92-.562V64.055A2.1,2.1,0,0,0,49.5,62.276a8.525,8.525,0,0,0-4.146-1.058,8.776,8.776,0,0,0-2.183.276,8.768,8.768,0,0,1,1.953.782,2.1,2.1,0,0,1,1.048,1.779v14.4Z" transform="translate(-36.741 -61.218)" fill="#bed8fb" fill-rule="evenodd"/>
        <path id="Trazado_1014802" data-name="Trazado 1014802" d="M440.2,116.011v43.084h4.376V116.011Z" transform="translate(-362.167 -106.13)" fill="#eb616f" fill-rule="evenodd"/>
        <path id="Trazado_1014803" data-name="Trazado 1014803" d="M424.119,64.75V71.1h4.376V64.75a3.543,3.543,0,0,0-3.533-3.532h-4.381A3.544,3.544,0,0,1,424.119,64.75Z" transform="translate(-346.088 -61.218)" fill="#f77b87" fill-rule="evenodd"/>
      </g>
      <path id="Trazado_1014804" data-name="Trazado 1014804" d="M82.412,63.591v-5a2.2,2.2,0,0,0-2.183-2.183H75.74a2.19,2.19,0,0,0-2.183,2.183v5h8.854ZM25.872,87.9a1.352,1.352,0,1,1,1.912-1.912l1.232,1.232,3.42-3.425a1.354,1.354,0,0,1,1.912,1.917l-4.376,4.376a1.355,1.355,0,0,1-1.912,0ZM76.63,72.291a1.352,1.352,0,1,1,2.7,0v28.387a1.352,1.352,0,1,1-2.7,0ZM55.307,118.054H63.63v-5.8H55.307Zm9.672,2.7H20.867a1.357,1.357,0,0,1-1.355-1.355V110.9a1.353,1.353,0,0,1,1.355-1.349h9.677v-7.709a1.348,1.348,0,0,1,1.349-1.349H42.926a1.348,1.348,0,0,1,1.35,1.349v2.4h9.677a1.357,1.357,0,0,1,1.355,1.355v3.952h9.672a1.353,1.353,0,0,1,1.355,1.349V119.4A1.357,1.357,0,0,1,64.979,120.758Zm-20.7-2.7H52.6v-11.1H44.276Zm-11.027,0h8.322V103.194H33.249Zm-11.032,0h8.328v-5.8H22.217ZM16.512,70.937H70.848V58.591A4.9,4.9,0,0,1,75.74,53.7h4.488a4.9,4.9,0,0,1,4.887,4.887V70.937h5.869a1.353,1.353,0,0,1,1.349,1.355v53.027a1.348,1.348,0,0,1-1.349,1.35H53.539a1.352,1.352,0,0,1,0-2.7H89.63V73.641H85.116V83.42a1.352,1.352,0,1,1-2.7,0V66.3H73.557v40.38h8.854V89.55a1.352,1.352,0,1,1,2.7,0v18.475a1.435,1.435,0,0,1-.23.767l-5.695,11.216a1.375,1.375,0,0,1-.6.6,1.346,1.346,0,0,1-1.81-.6l-5.715-11.246a1.439,1.439,0,0,1-.215-.741V73.641H16.512V83.875a1.352,1.352,0,1,1-2.7,0V57.5a7.174,7.174,0,0,0-3.839-1.094A7.261,7.261,0,0,0,2.7,63.673v46.2c.072-.077.143-.153.215-.225a9.941,9.941,0,0,1,7.05-2.919,10.094,10.094,0,0,1,3.169.516c.225.077.45.164.67.256V90a1.352,1.352,0,1,1,2.7,0v19.819a1.353,1.353,0,0,1-2.168,1.074,7.082,7.082,0,0,0-2.065-1.089,7.266,7.266,0,1,0-2.311,14.155H47.414a1.352,1.352,0,0,1,0,2.7H9.968A9.966,9.966,0,0,1,0,116.7V63.673a9.968,9.968,0,0,1,15.909-8.005,1.362,1.362,0,0,1,.6,1.13v14.14Zm65.051,38.442H74.4l3.584,7.049ZM63.487,79.131a1.352,1.352,0,0,1,0,2.7H45.18a1.352,1.352,0,0,1,0-2.7ZM55.875,92.044a1.352,1.352,0,1,1,0,2.7H45.181a1.352,1.352,0,0,1,0-2.7Zm7.612-6.457a1.352,1.352,0,0,1,0,2.7H45.18a1.352,1.352,0,0,1,0-2.7Zm-41.122-7.75H37.86a1.353,1.353,0,0,1,1.349,1.355V94.687a1.353,1.353,0,0,1-1.349,1.355H22.365a1.354,1.354,0,0,1-1.355-1.355V79.193a1.354,1.354,0,0,1,1.355-1.355Zm14.14,2.709H23.715v12.79h12.79Z"/>
    </g>
  </g>
</svg>
