<svg xmlns="http://www.w3.org/2000/svg" width="80" height="80" viewBox="0 0 80 80">
  <g id="Grupo_1181067" data-name="Grupo 1181067" transform="translate(-717.396 -1574.227)">
    <rect id="Rectángulo_454573" data-name="Rectángulo 454573" width="80" height="80" rx="5" transform="translate(717.396 1574.227)" fill="#c8bf57"/>
    <g id="Grupo_1181783" data-name="Grupo 1181783" transform="translate(703.883 1583.587)">
      <g id="Grupo_1181782" data-name="Grupo 1181782" transform="translate(27.179 1.19)">
        <path id="Trazado_1014784" data-name="Trazado 1014784" d="M275.97,101.836h23.939V95.741a2.4,2.4,0,0,0-2.394-2.394H278.364a2.4,2.4,0,0,0-2.394,2.394Z" transform="translate(-247.243 -83.364)" fill="#ffc144" fill-rule="evenodd"/>
        <path id="Trazado_1014785" data-name="Trazado 1014785" d="M275.97,164.264h23.939V169.6H275.97Z" transform="translate(-247.243 -145.792)" fill="#60a4ff" fill-rule="evenodd"/>
        <path id="Trazado_1014786" data-name="Trazado 1014786" d="M299.91,208.806H275.971v10.74l5.89-5.409h15.656a2.4,2.4,0,0,0,2.394-2.394v-2.937Z" transform="translate(-247.244 -185.003)" fill="#ff5a58" fill-rule="evenodd"/>
        <path id="Trazado_1014787" data-name="Trazado 1014787" d="M64.7,44.487V28.415c-6.937-1.336-2.657-4.6-5.48-6.05-3.749-1.931,1.9-8.553,5.979-8.726,2.67-.113-.516-7.332-7.094-1.284-1.114,1.025-4.676,2.014-6.623,2.585-2.245.659-1.069,1.528-2.931,4.318-1.8,2.69-1.559.277-2.4,1.941-1.06,2.09-2.037,2.341-2.82,2.4-2.2.17-4.23,4.044-2.729,6.176,1.646,2.338.531,8.273.756,8.82.965,2.354-.449,6.5-2.676,6.637-3.8.226-1.143,1.9-2.394,2.657-1.179.715,1.321,2.943,1.75,2.926,2.679-.106,5.3,5.2,6.828,2.58.43-.739,7.559,2.227,7.693,3.323.286,2.339,1.772.96,1.741,1.994-.073,2.457,1.764,1.564,1.861,2.269.459,3.329,4.712,1.658,5.755,1.536,4.919-.575,2.642,6.791,5.593,6.29s1.374-4.082,1.816-7.073c.306-2.07,1.235-2.266.6-4.59-.407-1.487-1.181-1.9-.733-2.993.581-1.417,2.022-.8,2.558-1.828.922-1.777-1.152-3.308.151-4.088,2.582-1.547,4.089,2.655,6.518,1.215,2.089-1.239-1.648-5.023-.481-6.325.9-1.008-.668-2.6-.768-4.049H70.587Z" transform="translate(-35.969 -9.943)" fill="#cbe558" fill-rule="evenodd"/>
      </g>
      <path id="Trazado_1014788" data-name="Trazado 1014788" d="M72.556,227.336a1.2,1.2,0,0,0,1.2-1.2h0a1.2,1.2,0,1,0-1.2,1.2Z" transform="translate(-39.944 -198.018)"/>
      <path id="Trazado_1014789" data-name="Trazado 1014789" d="M77.451,9.976H58.3a3.6,3.6,0,0,0-3.591,3.591v4.565a3.424,3.424,0,0,1-1.622-.893,2.091,2.091,0,0,1-.317-1.372,3.339,3.339,0,0,0-1.8-3.32c-.44-.227-.7-.535-.529-1.305.45-2.046,3.635-5.06,6.011-5.16a2.089,2.089,0,0,0,2.016-1.6A3.757,3.757,0,0,0,56.544.626C55.492,0,52.6-1.051,48.5,2.721c-.834.767-4.147,1.733-5.739,2.2l-.412.12A3.152,3.152,0,0,0,39.82,7.562,7.657,7.657,0,0,1,38.762,9.84a5.957,5.957,0,0,1-.6.784c-1.142-.17-1.67.87-1.877,1.28-.848,1.672-1.448,1.719-1.845,1.749A4.891,4.891,0,0,0,30.695,16.7a4.975,4.975,0,0,0,.132,5.011,3.523,3.523,0,0,1,.486,1.272,1.2,1.2,0,1,0,2.341-.5,5.762,5.762,0,0,0-.87-2.151,2.755,2.755,0,0,1,.076-2.613c.437-.929,1.18-1.636,1.766-1.681,1.077-.083,2.474-.5,3.754-2.974.918-.028,1.629-.785,2.372-1.9A10.01,10.01,0,0,0,42.11,8.258c.218-.718.218-.718.915-.922l.408-.119c2.868-.837,5.538-1.675,6.689-2.734,2.035-1.871,3.918-2.533,5.167-1.817A1.768,1.768,0,0,1,56.132,3.7,9.131,9.131,0,0,0,51.19,6.093a9.282,9.282,0,0,0-3.083,4.635,3.347,3.347,0,0,0,1.771,3.948c.421.217.472.347.5,1.264.055,1.83.456,3.685,4.331,4.68V35.733a1.2,1.2,0,0,0,2.007.882l5.547-5.093h5.158c.122.356.272.694.412,1.006a4.675,4.675,0,0,1,.391,1.077c-.994,1.147-.341,2.678.235,4.03a5.519,5.519,0,0,1,.605,2,.228.228,0,0,1-.053.039c-.456.271-.753.179-1.872-.576-1.069-.722-2.685-1.814-4.651-.636-1.487.891-.976,2.382-.731,3.1.218.638.342,1.051.137,1.458a2.615,2.615,0,0,1-.409.141,3,3,0,0,0-2.2,1.791,2.941,2.941,0,0,0,.251,2.691,5.66,5.66,0,0,1,.434,1.072,2.686,2.686,0,0,1-.093,2.155,8.574,8.574,0,0,0-.536,1.944,15.2,15.2,0,0,0-.032,3.122c.151,2.509-.028,2.816-.8,2.947l-.045.006a6.4,6.4,0,0,1-.5-1.629,8.654,8.654,0,0,0-1.151-3.13,3.825,3.825,0,0,0-3.836-1.547,8.008,8.008,0,0,0-.862.176c-.807.192-2.488.593-3.176.121a1.039,1.039,0,0,1-.392-.808,1.705,1.705,0,0,0-1.5-1.367,2.1,2.1,0,0,1-.283-.075A1.524,1.524,0,0,1,46.7,50a1.578,1.578,0,0,0-1.582-1.7l-.066-.008a2.04,2.04,0,0,1-.1-.467c-.081-.66-.537-1.455-3.3-2.784a21.576,21.576,0,0,0-4.372-1.606c-.461-.095-1.685-.346-2.242.611a1.166,1.166,0,0,1-.072.111,8.194,8.194,0,0,1-1.538-1.14c-1.141-.974-2.424-2.071-3.94-2.143a4.745,4.745,0,0,1-.984-1,2.146,2.146,0,0,0,.474-2.061,5.442,5.442,0,0,1,.982-.128c1.661-.1,3.108-1.566,3.776-3.829a1.2,1.2,0,0,0-2.3-.678c-.352,1.192-1.034,2.082-1.622,2.117-1.522.09-2.385.407-2.888,1.057a2.229,2.229,0,0,0-.3,1.909l.007.034a1.847,1.847,0,0,0-.55,2.023c.332,1.1,2.008,2.951,3.168,2.951h.042c.7-.026,1.746.86,2.581,1.573,1.158.989,2.253,1.924,3.536,1.705a2.258,2.258,0,0,0,1.331-.776A16.57,16.57,0,0,1,39.7,46.779a12.9,12.9,0,0,1,2.913,1.589,2.4,2.4,0,0,0,1.717,2.209,2.52,2.52,0,0,0,1.971,2.4,3.256,3.256,0,0,0,1.292,1.87c1.563,1.069,3.766.545,5.082.232.228-.054.487-.116.585-.127,1.471-.172,1.847.482,2.373,2.824a8.066,8.066,0,0,0,.726,2.238,2.323,2.323,0,0,0,2.075,1.262,2.869,2.869,0,0,0,.48-.042,3.109,3.109,0,0,0,2.655-2.312,9.7,9.7,0,0,0,.133-3.139,13.219,13.219,0,0,1,.011-2.628,6.238,6.238,0,0,1,.405-1.443,4.978,4.978,0,0,0,.164-3.638,7.987,7.987,0,0,0-.6-1.5c-.262-.53-.257-.541-.183-.722.086-.209.133-.249.657-.4a2.712,2.712,0,0,0,1.856-1.329,3.988,3.988,0,0,0,.007-3.343c-.039-.113-.086-.25-.12-.365.486-.208.9-.011,1.9.661,1.03.7,2.586,1.747,4.433.651a2.525,2.525,0,0,0,1.2-2.694,9.5,9.5,0,0,0-.771-2.339,7.11,7.11,0,0,1-.556-1.607c.966-1.178.335-2.592-.087-3.536l-.013-.03h7.447a3.6,3.6,0,0,0,3.591-3.591V13.567a3.6,3.6,0,0,0-3.592-3.591ZM57.1,20.858H78.648V23.8H57.1Zm1.2-8.488H77.451a1.2,1.2,0,0,1,1.2,1.2v4.9H57.1v-4.9a1.2,1.2,0,0,1,1.2-1.2ZM77.451,29.128H61.8a1.2,1.2,0,0,0-.81.315L57.1,33.009V26.19H78.648v1.741a1.2,1.2,0,0,1-1.2,1.2Z" transform="translate(0 0)"/>
    </g>
  </g>
</svg>
