<svg xmlns="http://www.w3.org/2000/svg" width="169.706" height="169.706" viewBox="0 0 169.706 169.706">
  <g id="Grupo_1181073" data-name="Grupo 1181073" transform="translate(-714.98 -3369.146)">
    <rect id="Rect치ngulo_402033" data-name="Rect치ngulo 402033" width="120" height="120" rx="30" transform="translate(714.98 3453.999) rotate(-45)" fill="#ffd600"/>
    <rect id="Rect치ngulo_454167" data-name="Rect치ngulo 454167" width="100" height="100" rx="50" transform="translate(749.833 3403.999)" fill="#c8bf57"/>
    <g id="Grupo_1181787" data-name="Grupo 1181787" transform="translate(723.535 3384.986)">
      <g id="Grupo_1181786" data-name="Grupo 1181786" transform="translate(35.324 26.143)">
        <path id="Trazado_1014805" data-name="Trazado 1014805" d="M152.3,208l27.435,6.916,12.251,39.057-27.436-6.916Z" transform="translate(-130.923 -174.277)" fill="#fcb13b" fill-rule="evenodd"/>
        <path id="Trazado_1014806" data-name="Trazado 1014806" d="M317.505,176.3,296.3,189.256l12.251,39.057,21.205-12.975Z" transform="translate(-247.488 -148.617)" fill="#b5b682" fill-rule="evenodd"/>
        <path id="Trazado_1014807" data-name="Trazado 1014807" d="M62.286,208,41.1,220.956l12.251,39.057,21.186-12.956Z" transform="translate(-40.909 -174.277)" fill="#b5b682" fill-rule="evenodd"/>
        <path id="Trazado_1014808" data-name="Trazado 1014808" d="M63.115,31A23.019,23.019,0,0,1,86.131,54.015c0,12.822-15.471,35.438-23.015,44.43C55.59,89.434,40.1,66.838,40.1,54.015A23.019,23.019,0,0,1,63.115,31Z" transform="translate(-40.1 -31)" fill="#cc4342" fill-rule="evenodd"/>
        <path id="Trazado_1014809" data-name="Trazado 1014809" d="M89.585,63.7A16.785,16.785,0,1,1,72.8,80.485,16.8,16.8,0,0,1,89.585,63.7Z" transform="translate(-66.57 -57.47)" fill="#e6e6e6" fill-rule="evenodd"/>
        <path id="Trazado_1014810" data-name="Trazado 1014810" d="M137.2,103.7l8.516-5.3v19.319l-8.516-5.3Z" transform="translate(-118.7 -85.559)" fill="#cc4342" fill-rule="evenodd"/>
        <path id="Trazado_1014811" data-name="Trazado 1014811" d="M103.577,126.2h4.4v8.726h-4.4a2.484,2.484,0,0,1-2.477-2.477v-3.772A2.484,2.484,0,0,1,103.577,126.2Z" transform="translate(-89.478 -108.062)" fill="#fcb13b" fill-rule="evenodd"/>
        <path id="Trazado_1014812" data-name="Trazado 1014812" d="M181.9,131.3a3.571,3.571,0,0,1,0,7.126V131.3Z" transform="translate(-154.884 -112.19)" fill="#fcb13b" fill-rule="evenodd"/>
      </g>
      <path id="Trazado_1014813" data-name="Trazado 1014813" d="M52.433,54.15v3.639a1.143,1.143,0,0,1-2.286,0V54.15h-.724a3.618,3.618,0,0,1-3.62-3.62V46.758a3.618,3.618,0,0,1,3.62-3.62H53.5l8.25-5.125a1.147,1.147,0,0,1,1.753.972V44.3a4.71,4.71,0,0,1,0,9.012v4.973a1.145,1.145,0,0,1-1.81.934L53.5,54.15Zm16.461-4.192a1.143,1.143,0,0,1,0-2.286h1.848a1.143,1.143,0,0,1,0,2.286Zm-.533-4.668a1.146,1.146,0,0,1-1.619-.076,1.123,1.123,0,0,1,.076-1.6l1.143-1.048a1.163,1.163,0,0,1,1.619.057,1.146,1.146,0,0,1-.076,1.619Zm-1.543,8.726a1.14,1.14,0,0,1-.076-1.6,1.162,1.162,0,0,1,1.619-.076L69.5,53.388a1.162,1.162,0,0,1,.076,1.619,1.144,1.144,0,0,1-1.619.057Zm-2.934-6.878a2.364,2.364,0,0,0-.4-.343v4.02A2.442,2.442,0,0,0,63.884,47.139Zm-11.2-1.715H49.423a1.338,1.338,0,0,0-1.334,1.334V50.53a1.35,1.35,0,0,0,1.334,1.334h3.258ZM61.2,41.042l-6.23,3.887v7.45l6.23,3.887ZM58.339,31.23A17.928,17.928,0,1,1,40.411,49.158,17.921,17.921,0,0,1,58.339,31.23Zm11.069,6.859a15.641,15.641,0,1,0,0,22.12A15.627,15.627,0,0,0,69.409,38.089ZM58.339,25A24.166,24.166,0,0,1,82.5,49.158c0,4.268-1.619,9.526-4.1,14.994l5.544,1.391,20.748-12.689a1.149,1.149,0,0,1,1.734.61L118.678,92.5a1.142,1.142,0,0,1-.5,1.315L97.035,106.754a1.19,1.19,0,0,1-.915.152l-26.978-6.8L48.394,112.832a1.128,1.128,0,0,1-1.715-.61L34.429,73.164a1.142,1.142,0,0,1,.5-1.315l5.468-3.334C36.791,61.523,34.2,54.55,34.2,49.158A24.149,24.149,0,0,1,58.339,25ZM77.43,66.267a144.582,144.582,0,0,1-11.489,19.2l3.925,12.479,24.825,6.268-11.451-36.5ZM64.265,87.816c-1.867,2.553-3.6,4.782-5.049,6.516a1.154,1.154,0,0,1-1.772-.019,157.164,157.164,0,0,1-16-23.777l-4.573,2.8,11.546,36.809L67.6,98.409ZM73.81,33.688A21.882,21.882,0,0,0,36.467,49.158c0,5.068,2.553,11.793,6.078,18.6A154.2,154.2,0,0,0,58.339,91.8c7.488-9.24,21.872-30.579,21.872-42.639a21.72,21.72,0,0,0-6.4-15.471Zm23.225,70.418,19.186-11.736L104.675,55.56,85.489,67.3Z"/>
    </g>
  </g>
</svg>
