<svg xmlns="http://www.w3.org/2000/svg" width="169.706" height="169.705" viewBox="0 0 169.706 169.705">
  <g id="Grupo_1181076" data-name="Grupo 1181076" transform="translate(-1065.98 -3369.146)">
    <rect id="Rect치ngulo_402033" data-name="Rect치ngulo 402033" width="120" height="120" rx="30" transform="translate(1065.98 3453.999) rotate(-45)" fill="#ffd600"/>
    <rect id="Rect치ngulo_454167" data-name="Rect치ngulo 454167" width="100" height="100" rx="50" transform="translate(1100.833 3403.999)" fill="#c8bf57"/>
    <g id="Grupo_1181807" data-name="Grupo 1181807" transform="translate(1108.521 3409.429)">
      <g id="Grupo_1181805" data-name="Grupo 1181805" transform="translate(1.227 3.925)">
        <g id="Grupo_1181793" data-name="Grupo 1181793" transform="translate(16.339)">
          <g id="Grupo_1181792" data-name="Grupo 1181792">
            <g id="Grupo_1181791" data-name="Grupo 1181791">
              <g id="Grupo_1181790" data-name="Grupo 1181790">
                <g id="Grupo_1181789" data-name="Grupo 1181789">
                  <path id="Trazado_1014860" data-name="Trazado 1014860" d="M151.229,91.486H113.937a6.542,6.542,0,0,1-6.542-6.542v-68.2a6.542,6.542,0,0,1,6.542-6.542h37.291a6.542,6.542,0,0,1,6.542,6.542v68.2A6.542,6.542,0,0,1,151.229,91.486Z" transform="translate(-107.395 -10.197)" fill="#3d6d93"/>
                  <path id="Trazado_1014861" data-name="Trazado 1014861" d="M350.3,10.2h-4.907a6.542,6.542,0,0,1,6.542,6.542v68.2a6.542,6.542,0,0,1-6.542,6.542H350.3a6.542,6.542,0,0,0,6.542-6.542v-68.2A6.542,6.542,0,0,0,350.3,10.2Z" transform="translate(-306.468 -10.197)" fill="#335e80"/>
                  <path id="Trazado_1014862" data-name="Trazado 1014862" d="M169.69,41.505a2.211,2.211,0,0,1-2.211,2.211H147.874a2.211,2.211,0,0,1-2.211-2.211,1.309,1.309,0,0,0-1.308-1.308h-4.506a2.453,2.453,0,0,0-2.453,2.453v66.568a2.453,2.453,0,0,0,2.453,2.453H175.5a2.453,2.453,0,0,0,2.453-2.453V42.65A2.453,2.453,0,0,0,175.5,40.2H171A1.309,1.309,0,0,0,169.69,41.505Z" transform="translate(-132.488 -35.29)" fill="#f9f7f8"/>
                </g>
              </g>
            </g>
          </g>
        </g>
        <g id="Grupo_1181796" data-name="Grupo 1181796" transform="translate(0.882 8.931)">
          <g id="Grupo_1181794" data-name="Grupo 1181794">
            <circle id="Elipse_13892" data-name="Elipse 13892" cx="14.143" cy="14.143" r="14.143" transform="translate(0 0)" fill="#ffe179"/>
            <path id="Trazado_1014863" data-name="Trazado 1014863" d="M86.816,64.8a14.217,14.217,0,0,0-2.453.216,14.14,14.14,0,0,1,0,27.852A14.142,14.142,0,1,0,86.816,64.8Z" transform="translate(-72.674 -64.802)" fill="#fbd268"/>
          </g>
          <g id="Grupo_1181795" data-name="Grupo 1181795" transform="translate(6.782 6.782)">
            <path id="Trazado_1014864" data-name="Trazado 1014864" d="M66.629,120.99H56.815a2.453,2.453,0,0,1-2.453-2.453v-9.814a2.453,2.453,0,0,1,2.453-2.453h9.814a2.453,2.453,0,0,1,2.453,2.453v9.814A2.453,2.453,0,0,1,66.629,120.99Z" transform="translate(-54.362 -106.27)" fill="#f58a97"/>
            <path id="Trazado_1014865" data-name="Trazado 1014865" d="M104.27,106.27H99.363a2.453,2.453,0,0,1,2.453,2.453v9.814a2.453,2.453,0,0,1-2.453,2.453h4.907a2.453,2.453,0,0,0,2.453-2.453v-9.814A2.453,2.453,0,0,0,104.27,106.27Z" transform="translate(-92.003 -106.27)" fill="#f07281"/>
            <circle id="Elipse_13893" data-name="Elipse 13893" cx="2.453" cy="2.453" r="2.453" transform="translate(4.907 4.907)" fill="#fff"/>
          </g>
        </g>
        <g id="Grupo_1181798" data-name="Grupo 1181798" transform="translate(0 42.308)">
          <g id="Grupo_1181797" data-name="Grupo 1181797">
            <circle id="Elipse_13894" data-name="Elipse 13894" cx="14.143" cy="14.143" r="14.143" fill="#8fd8fa"/>
            <path id="Trazado_1014866" data-name="Trazado 1014866" d="M80.587,268.866a14.2,14.2,0,0,0-2.617.246,14.141,14.141,0,0,1,0,27.794,14.142,14.142,0,1,0,2.617-28.04Z" transform="translate(-66.444 -268.866)" fill="#6bcdfe"/>
          </g>
          <g id="Shape_2_" transform="translate(6.268 7.645)">
            <path id="Trazado_1014867" data-name="Trazado 1014867" d="M58.2,316.682a3.125,3.125,0,0,0-5.483,2.093v.7A7.436,7.436,0,0,1,46.9,316.9a.418.418,0,0,0-.719.149c-.513,1.742-1.214,6.125,3.747,8.33a8.12,8.12,0,0,1-3.265,1.3c-.3.049-.153.607-.077.806.526,1.374,6.465,1.944,10.1-1.047a9.538,9.538,0,0,0,3.144-5.851,6.432,6.432,0,0,0,1.729-3.4.746.746,0,0,0-1.069-.793,3.581,3.581,0,0,1-.784.273,3.653,3.653,0,0,1-1.506.015Z" transform="translate(-45.819 -315.608)" fill="#fff"/>
          </g>
        </g>
        <g id="Grupo_1181801" data-name="Grupo 1181801" transform="translate(53.886 42.308)">
          <g id="Grupo_1181799" data-name="Grupo 1181799">
            <circle id="Elipse_13895" data-name="Elipse 13895" cx="14.143" cy="14.143" r="14.143" transform="translate(0 0)" fill="#f58a97"/>
            <path id="Trazado_1014868" data-name="Trazado 1014868" d="M410.88,268.866a14.215,14.215,0,0,0-2.453.216,14.14,14.14,0,0,1,0,27.852,14.142,14.142,0,1,0,2.453-28.069Z" transform="translate(-396.738 -268.866)" fill="#f07281"/>
          </g>
          <g id="Grupo_1181800" data-name="Grupo 1181800" transform="translate(10.67 8.857)">
            <path id="Trazado_1014869" data-name="Trazado 1014869" d="M402.2,323.491a.475.475,0,0,1,.712-.412l8.6,4.968a.475.475,0,0,1,0,.823l-8.6,4.968a.475.475,0,0,1-.712-.412Z" transform="translate(-402.196 -323.015)" fill="#fff"/>
          </g>
        </g>
        <g id="Grupo_1181803" data-name="Grupo 1181803" transform="translate(53.886 8.931)">
          <g id="Grupo_1181802" data-name="Grupo 1181802">
            <circle id="Elipse_13896" data-name="Elipse 13896" cx="14.143" cy="14.143" r="14.143" fill="#8fd8fa"/>
            <path id="Trazado_1014870" data-name="Trazado 1014870" d="M410.88,64.8a14.217,14.217,0,0,0-2.453.216,14.14,14.14,0,0,1,0,27.852A14.142,14.142,0,1,0,410.88,64.8Z" transform="translate(-396.738 -64.802)" fill="#6bcdfe"/>
          </g>
        </g>
        <path id="Trazado_1014871" data-name="Trazado 1014871" d="M206.314,198.262a9.885,9.885,0,0,0-9.092,13.069,1.129,1.129,0,0,1-.006.738l-1.316,3.744a.654.654,0,0,0,.834.834l2.634-.926a1.155,1.155,0,0,1,1.1.191,9.885,9.885,0,1,0,5.847-17.649Z" transform="translate(-165.053 -167.5)" fill="#aee69c"/>
        <g id="Grupo_1181804" data-name="Grupo 1181804" transform="translate(39.066 30.759)">
          <path id="Trazado_1014872" data-name="Trazado 1014872" d="M248.545,198.262a9.765,9.765,0,0,0-2.183.308,9.883,9.883,0,0,1-.012,19.148,9.885,9.885,0,1,0,2.2-19.456Z" transform="translate(-246.35 -198.259)" fill="#89daa4"/>
        </g>
      </g>
      <g id="Grupo_1181806" data-name="Grupo 1181806" transform="translate(0 2.698)">
        <path id="Trazado_1014873" data-name="Trazado 1014873" d="M64.966,27.838h1.976v7.8a1.227,1.227,0,0,0,2.453,0v-7.8h1.975a1.227,1.227,0,1,0,0-2.453H69.4V21.821a1.243,1.243,0,0,1,1.242-1.242h2.907a1.227,1.227,0,0,0,0-2.453H70.637a3.7,3.7,0,0,0-3.7,3.7v3.564H64.966a1.227,1.227,0,1,0,0,2.453ZM42.753,9.364a1.227,1.227,0,1,0-1.227-1.227A1.227,1.227,0,0,0,42.753,9.364Zm-26.5,21.314A3.68,3.68,0,1,0,12.571,27,3.684,3.684,0,0,0,16.252,30.678Zm0-4.907A1.227,1.227,0,1,1,15.025,27,1.228,1.228,0,0,1,16.252,25.772Zm4.907,9.814a3.684,3.684,0,0,0,3.68-3.68V22.092a3.684,3.684,0,0,0-3.68-3.68H11.345a3.684,3.684,0,0,0-3.68,3.68v9.814a3.684,3.684,0,0,0,3.68,3.68Zm-11.04-3.68V22.092a1.228,1.228,0,0,1,1.227-1.227h9.814a1.228,1.228,0,0,1,1.227,1.227v9.814a1.228,1.228,0,0,1-1.227,1.227H11.345A1.228,1.228,0,0,1,10.118,31.905ZM23.686,53.756a1.976,1.976,0,0,0-2.057-.2,2.382,2.382,0,0,1-.516.18,2.353,2.353,0,0,1-.658.053A4.353,4.353,0,0,0,13.2,56.438,6.181,6.181,0,0,1,9.5,54.37a1.644,1.644,0,0,0-2.824.6c-.413,1.4-1.284,5.7,2.342,8.56-.692.211-1.481.2-1.884.9a2.11,2.11,0,0,0-.021,1.763A3,3,0,0,0,9.36,67.812a9.954,9.954,0,0,0,2.479.285,11.61,11.61,0,0,0,7.3-2.443,10.54,10.54,0,0,0,3.509-6.23,7.657,7.657,0,0,0,1.794-3.761,1.961,1.961,0,0,0-.756-1.907ZM20.623,58a1.227,1.227,0,0,0-.329.654,8.271,8.271,0,0,1-2.713,5.1,9.642,9.642,0,0,1-6.956,1.8,9.344,9.344,0,0,0,1.665-.9,1.227,1.227,0,0,0-.191-2.136,5.055,5.055,0,0,1-3.346-5.482,8.606,8.606,0,0,0,5.67,1.92,1.227,1.227,0,0,0,1.195-1.226v-.7c0-.005,0-.011,0-.017a1.9,1.9,0,0,1,3.331-1.271,1.227,1.227,0,0,0,.686.4A4.842,4.842,0,0,0,21.8,56.1,5.22,5.22,0,0,1,20.623,58Zm48.633-13h-.087v-2.64h.087a15.369,15.369,0,1,0-.087-30.737V10.467A7.778,7.778,0,0,0,61.4,2.7H24.108a7.778,7.778,0,0,0-7.769,7.769V11.63a15.3,15.3,0,0,0-8.433,2.46A1.227,1.227,0,1,0,9.24,16.15,12.913,12.913,0,1,1,5.53,19.793,1.227,1.227,0,1,0,3.5,18.423,15.371,15.371,0,0,0,16.252,42.368h.087v2.67c-.321-.02-.644-.031-.969-.031a15.369,15.369,0,0,0,0,30.739c.326,0,.649-.011.969-.031v2.958a7.778,7.778,0,0,0,7.769,7.769H61.4a7.778,7.778,0,0,0,7.769-7.769V75.743h.087a15.369,15.369,0,0,0,0-30.739Zm0-30.923A12.916,12.916,0,1,1,56.339,27,12.931,12.931,0,0,1,69.255,14.083Zm-2.54,28.074v3.057a15.3,15.3,0,0,0-2.453.617v-4.3a15.213,15.213,0,0,0,2.453.622ZM21.245,11.285v1.178a15.235,15.235,0,0,0-2.453-.622V10.467a5.322,5.322,0,0,1,5.316-5.316H61.4a5.322,5.322,0,0,1,5.316,5.316V11.84a15.235,15.235,0,0,0-2.453.622V11.285a3.684,3.684,0,0,0-3.68-3.68H56.075A2.538,2.538,0,0,0,53.54,10.14a.986.986,0,0,1-.985.985h-19.6a.986.986,0,0,1-.985-.985A2.534,2.534,0,0,0,29.431,7.6H24.925A3.684,3.684,0,0,0,21.245,11.285ZM18.792,42.156a15.235,15.235,0,0,0,2.453-.622v4.64a15.228,15.228,0,0,0-2.453-.784ZM15.369,73.291A12.916,12.916,0,1,1,28.285,60.375,12.767,12.767,0,0,1,15.369,73.291Zm51.346,5.38A5.322,5.322,0,0,1,61.4,83.987H24.108a5.322,5.322,0,0,1-5.316-5.316V75.359a15.228,15.228,0,0,0,2.453-.784v3.278a3.684,3.684,0,0,0,3.68,3.68H60.581a3.684,3.684,0,0,0,3.68-3.68V74.911a15.235,15.235,0,0,0,2.453.622Zm2.54-5.38a12.928,12.928,0,0,1-12.5-16.182,1.227,1.227,0,1,0-2.374-.618,15.383,15.383,0,0,0,7.427,17.324v4.038a1.228,1.228,0,0,1-1.227,1.227H24.926A1.228,1.228,0,0,1,23.7,77.853V73.285a15.359,15.359,0,0,0,0-25.821V40.439a15.362,15.362,0,0,0,0-26.881V11.285a1.228,1.228,0,0,1,1.227-1.227h4.506a.082.082,0,0,1,.058.024.077.077,0,0,1,.024.058,3.442,3.442,0,0,0,3.438,3.438h19.6a3.442,3.442,0,0,0,3.438-3.438.082.082,0,0,1,.082-.082h4.506a1.228,1.228,0,0,1,1.227,1.227v2.273a15.362,15.362,0,0,0,.009,26.885,1.252,1.252,0,0,0-.009.141v6.334A15.4,15.4,0,0,0,57.077,51a1.227,1.227,0,1,0,1.943,1.5,12.758,12.758,0,0,1,10.236-5.037,12.916,12.916,0,1,1,0,25.832ZM47.249,44.163a1.227,1.227,0,0,0-1.685.412,2.946,2.946,0,0,1-.916.933,1.114,1.114,0,0,1-1.176.017l-1.836-1.114a1.137,1.137,0,0,1-.525-1.082,2.88,2.88,0,0,1,.4-1.213,1.227,1.227,0,1,0-2.1-1.274,5.353,5.353,0,0,0-.749,2.257l0,.025a3.581,3.581,0,0,0,1.7,3.383L42.2,47.623a3.579,3.579,0,0,0,3.784-.055,5.411,5.411,0,0,0,1.679-1.719A1.227,1.227,0,0,0,47.249,44.163Zm28.461,14.9-8.6-4.968a1.715,1.715,0,0,0-2.553,1.474V65.5a1.719,1.719,0,0,0,2.552,1.474l8.6-4.968A1.721,1.721,0,0,0,75.71,59.059Zm-8.7,5.14V56.867l6.347,3.666ZM42.456,33.461A11.112,11.112,0,0,0,32.222,48.115l-1.306,3.716a1.881,1.881,0,0,0,2.4,2.4l2.591-.911a11.112,11.112,0,1,0,6.551-19.858Zm.539,19.763A8.688,8.688,0,0,1,37.4,51.373a2.389,2.389,0,0,0-1.482-.519,2.361,2.361,0,0,0-.784.134l-1.508.53.92-2.618a2.364,2.364,0,0,0,.01-1.541,8.659,8.659,0,1,1,8.438,5.865Z" transform="translate(0 -2.698)"/>
      </g>
    </g>
  </g>
</svg>
