<svg xmlns="http://www.w3.org/2000/svg" xmlns:xlink="http://www.w3.org/1999/xlink" width="85" height="53.916" viewBox="0 0 85 53.916">
  <defs>
    <clipPath id="clip-path">
      <rect id="Rect치ngulo_454238" data-name="Rect치ngulo 454238" width="53.916" height="85" fill="none"/>
    </clipPath>
  </defs>
  <g id="Grupo_1180987" data-name="Grupo 1180987" transform="translate(0 53.916) rotate(-90)">
    <g id="Grupo_1176417" data-name="Grupo 1176417" clip-path="url(#clip-path)">
      <path id="Trazado_988466" data-name="Trazado 988466" d="M53.47,49.933a1.689,1.689,0,0,1-.246,2.495c-1.732,1.587-4.129,2.126-6.381,2.512a66.31,66.31,0,0,1-10.643.8c-2.687-.026-5.367-.256-8.048-.418-4.134-.241-8.278-.344-12.41-.636,2.73.94,5.552,1.574,8.341,2.305,5.176,1.362,10.321,2.851,15.412,4.508,2.216.756,4.554,1.43,6.427,2.89,1.484,1.154,1.613,2.848-.354,3.523-2.755.9-7.892-.579-10.732-1.326-4.894-1.373-9.383-3.843-14.133-5.615a34.741,34.741,0,0,0-6.682-2c3.126,2.7,6.264,5.379,9.458,8,3.165,2.73,6.9,5.246,8.535,9.252.536,1.248.838,3.114-1.135,2.886a9.578,9.578,0,0,1-4.606-1.748,44.882,44.882,0,0,1-7.844-6.894c-2.227-2.257-4.457-4.513-6.544-6.9.9,2.293,1.636,4.648,2.539,6.941a37.353,37.353,0,0,1,1.545,5.188,16.927,16.927,0,0,1,.468,5.414c-.133,1.005-.3,2.581-1.268,3.127a.926.926,0,0,1-.906-.071C12.4,82.624,10.99,77.5,10.309,75.11c-.855-3.457-2.065-6.824-2.689-10.337-.182,5-.311,10.05-1.6,14.909a11.872,11.872,0,0,1-1.736,4.524,1.789,1.789,0,0,1-1.56.78c-1.51-.206-1.524-3.017-1.682-4.2-.418-4.425-.18-8.869-.2-13.3C.834,64.472.415,61.489.219,58.49-.1,52.86.65,47.236.437,41.6A153.608,153.608,0,0,1,.122,25.73C.48,20.525-.225,15.273.579,10.1c.265-1.518.847-4.6,2.213-5.367a.846.846,0,0,1,.787.014A1.29,1.29,0,0,1,4.11,5.8c.181,1.624.03,3.266.1,4.9.033,1.155.135,2.306.139,3.462.005,1.133-.017,2.323.022,3.441.139,2.739.208,5.477.316,8.207.1,2.034.18,4.07.179,6.108C5.241,27.3,5.983,22.727,6.1,18.1c.081-2.58.022-5.161.079-7.742A31.171,31.171,0,0,1,6.542,5.1c.237-1.129.73-3.61,2.1-3.766a1.116,1.116,0,0,1,1.073.9,9.586,9.586,0,0,1,.441,2.344,70.272,70.272,0,0,1-.209,10.575c-.262,3.655-.507,7.313-.916,10.956,1.1-4.957,2.591-9.808,3.927-14.7.949-3.413,1.889-6.937,3.857-9.925A3.144,3.144,0,0,1,18.661.021,1.408,1.408,0,0,1,20.213,1.16a4.856,4.856,0,0,1,.1,1.685c-.3,3.1-1.5,6.012-2.388,8.972-1.763,5.728-3.352,11.521-5.528,17.112,3.628-6.67,7.172-13.437,11.746-19.523,1.553-2.022,4.709-5.77,7.089-6.584A1.51,1.51,0,0,1,33.364,4.11,5.667,5.667,0,0,1,32.9,6.318c-.41,1.142-.886,2.259-1.358,3.377-1.682,4.092-3.575,8.089-5.594,12.024a63.945,63.945,0,0,1-4.448,7.97c-1.194,1.824-2.548,3.533-3.913,5.231,2.325-2.009,4.708-3.947,7.06-5.925,3.37-2.872,6.847-5.611,10.394-8.26A44.636,44.636,0,0,1,40.655,16.9c1.014-.517,3.237-1.553,3.536.218.14,1.474-2.079,4.619-2.965,5.869a34.325,34.325,0,0,1-6.11,6.554c-5.91,4.942-12.6,8.886-18.316,14.069,1.739-.843,3.558-1.495,5.34-2.237,2.367-1.017,4.719-2.067,7.085-3.084,2.43-1.091,4.894-2.106,7.393-3.027a62.344,62.344,0,0,1,11.533-3.453,7.549,7.549,0,0,1,3.767.094c1.637.644,1.682,2.117.5,3.275a13.852,13.852,0,0,1-3.256,2.236C40.2,42.13,30.522,45.238,21.019,48.646c5.637-.608,11.3-.226,16.955-.234,2.7,0,5.4-.043,8.1-.057a21.713,21.713,0,0,1,5.4.508,4.246,4.246,0,0,1,2,1.07" transform="translate(0 0)" fill="#005cd9"/>
      <path id="Trazado_988467" data-name="Trazado 988467" d="M6.968,100.739c-.164-5.135-.481-10.264-.621-15.4-.094-2.808-.3-5.619-.223-8.429h0a.154.154,0,0,1,.294-.016,5.02,5.02,0,0,1,.053.63c.138,2.8.29,5.609.417,8.414.117,4.128.411,8.248.537,12.376.027.8.044,1.6.065,2.4a.262.262,0,0,1-.523.028" transform="translate(-3.237 -40.709)" fill="#ffd600"/>
      <path id="Uni칩n_16" data-name="Uni칩n 16" d="M4.893,20.93c-.8-1.34-1.565-2.708-2.349-4.057-.462-.808-.93-1.615-1.375-2.4A13.034,13.034,0,0,1,.046,12.185.222.222,0,0,1,.083,11.9a.243.243,0,0,1-.071-.107.236.236,0,0,1,.029-.206,5.516,5.516,0,0,1,.21-.652c.268-.73.549-1.454.811-2.186C2.01,6.131,2.742,3.435,3.712.825,3.8.592,3.9.364,4.005.137a.26.26,0,0,1,.474.208C3.2,3.884,2.2,7.526.748,11,3.576,8.188,6.495,5.468,9.429,2.763c.218-.135.448-.539.722-.323a.254.254,0,0,1,.017.356c-1.334,1.446-2.85,2.711-4.3,4.043-1.084,1-2.151,2.022-3.233,3.025-.382.358-.761.72-1.149,1.071l.1-.02c.911-.179,1.864-.321,2.769-.429,1.24-.139,2.482-.272,3.724-.385q2.036-.141,4.055-.428a.277.277,0,0,1,.065.549,23.325,23.325,0,0,1-2.484.314q-3.079.211-6.148.551c-.822.1-1.64.225-2.457.37-.094.008-.191.032-.289.051a.571.571,0,0,1-.191.1,14.643,14.643,0,0,0,1.574.834c.6.3,1.2.6,1.812.86h0c1.434.618,2.834,1.307,4.238,1.989.431.213.859.429,1.273.671.164.073.347.21.245.411a.254.254,0,0,1-.335.107C8.112,15.831,6.8,15.148,5.464,14.5s-2.684-1.228-3.988-1.927a8.123,8.123,0,0,1-1.051-.631,2.7,2.7,0,0,1,.2.378c1.017,1.951,2.195,3.809,3.3,5.709.5.861,1.028,1.711,1.535,2.572a.33.33,0,0,1-.308.471A.309.309,0,0,1,4.893,20.93ZM4.023,13.3h0l.012.006Z" transform="translate(3.578 36.657)" fill="#ffd600" stroke="rgba(0,0,0,0)" stroke-miterlimit="10" stroke-width="1"/>
    </g>
  </g>
</svg>
