<svg xmlns="http://www.w3.org/2000/svg" xmlns:xlink="http://www.w3.org/1999/xlink" width="290.04" height="296.359" viewBox="0 0 290.04 296.359">
  <defs>
    <clipPath id="clip-path">
      <ellipse id="Elipse_13648" data-name="Elipse 13648" cx="116.218" cy="122.608" rx="116.218" ry="122.608"/>
    </clipPath>
  </defs>
  <g id="Grupo_1181021" data-name="Grupo 1181021" transform="translate(-1124.75 -389)">
    <path id="Rectángulo_454493" data-name="Rectángulo 454493" d="M20,0H270.04a20,20,0,0,1,20,20V251.133a0,0,0,0,1,0,0H0a0,0,0,0,1,0,0V20A20,20,0,0,1,20,0Z" transform="translate(1124.75 434.227)" fill="#eeeccc"/>
    <g id="_181908750_d546340d-732b-4b07-b7c2-912d8a28a99f" data-name="181908750_d546340d-732b-4b07-b7c2-912d8a28a99f" transform="translate(1149.854 389)">
      <g id="Objects" transform="translate(0 0)">
        <g id="Grupo_1178512" data-name="Grupo 1178512" transform="translate(0 0)">
          <g id="Grupo_1178497" data-name="Grupo 1178497" transform="translate(3.698)">
            <g id="Grupo_1178496" data-name="Grupo 1178496">
              <ellipse id="Elipse_13641" data-name="Elipse 13641" cx="116.218" cy="122.608" rx="116.218" ry="122.608" fill="#f9d8ad"/>
              <g id="Grupo_1178495" data-name="Grupo 1178495" clip-path="url(#clip-path)">
                <g id="Grupo_1178483" data-name="Grupo 1178483" transform="translate(-11.378 -12.661)">
                  <rect id="Rectángulo_455086" data-name="Rectángulo 455086" width="100.353" height="280.178" transform="translate(0 0.001)" fill="#e8c395"/>
                  <rect id="Rectángulo_455087" data-name="Rectángulo 455087" width="4.325" height="280.178" transform="translate(104.677 280.178) rotate(180)" fill="#ffe9d2"/>
                  <rect id="Rectángulo_455088" data-name="Rectángulo 455088" width="87.464" height="7.295" transform="translate(100.411 69.613) rotate(180)" fill="#f9d8ad"/>
                  <rect id="Rectángulo_455089" data-name="Rectángulo 455089" width="87.464" height="7.295" transform="translate(100.411 136.976) rotate(180)" fill="#f9d8ad"/>
                  <rect id="Rectángulo_455090" data-name="Rectángulo 455090" width="87.464" height="7.295" transform="translate(100.411 204.338) rotate(180)" fill="#f9d8ad"/>
                  <path id="Trazado_996353" data-name="Trazado 996353" d="M722.437,448.773h8.94l2.244-16.068H720.193Z" transform="translate(-638.078 -386.455)" fill="#f9d8ad"/>
                  <path id="Trazado_996354" data-name="Trazado 996354" d="M628.963,448.773h8.94l2.244-16.068H626.719Z" transform="translate(-559.797 -386.455)" fill="#f9d8ad"/>
                  <path id="Trazado_996355" data-name="Trazado 996355" d="M549.54,251h-6.16l-3.634,47.227h13.428Z" transform="translate(-486.961 -235.909)" fill="#f9d8ad"/>
                  <path id="Trazado_996356" data-name="Trazado 996356" d="M506.634,720.06v-4.973a1,1,0,0,0-.975-1.029h-.491a1.03,1.03,0,0,1,0-2.058h8.572a1.03,1.03,0,0,1,0,2.058h-.491a1,1,0,0,0-.975,1.029v4.973c.846,9.858,7.945,17.582,7.7,27.478H498.932C498.689,737.642,505.788,729.918,506.634,720.06Z" transform="translate(-452.776 -617.857)" fill="#f9d8ad"/>
                  <path id="Trazado_996357" data-name="Trazado 996357" d="M365,747.537l5.2-27.135h0a1.338,1.338,0,0,1-1.3-1.372v-5.659A1.338,1.338,0,0,1,370.2,712h8.127a1.338,1.338,0,0,1,1.3,1.372v5.659a1.338,1.338,0,0,1-1.3,1.372h0l5.2,27.135H365Z" transform="translate(-340.619 -617.857)" fill="#f9d8ad"/>
                  <path id="Trazado_996358" data-name="Trazado 996358" d="M691.31,732.855c.617-3.69,1.842-7.249,2.393-10.951a61.511,61.511,0,0,0,.419-13.9h3.3a61.5,61.5,0,0,0,.419,13.9c.552,3.7,1.777,7.26,2.393,10.951s.674,8.161-1.163,11.368h-6.594C690.636,741.016,690.693,736.546,691.31,732.855Z" transform="translate(-613.565 -614.543)" fill="#f9d8ad"/>
                  <path id="Trazado_996359" data-name="Trazado 996359" d="M259,781h15.279l-3.9,23.705H262.9Z" transform="translate(-251.848 -675.024)" fill="#f9d8ad"/>
                  <path id="Trazado_996360" data-name="Trazado 996360" d="M549.783,1173.56H509.872l10.084,23.752H539.7Z" transform="translate(-461.943 -1000.268)" fill="#f9d8ad"/>
                  <path id="Trazado_996361" data-name="Trazado 996361" d="M270.14,1173.56H230.229l10.084,23.752h19.743Z" transform="translate(-227.754 -1000.268)" fill="#f9d8ad"/>
                </g>
                <g id="Grupo_1178493" data-name="Grupo 1178493" transform="translate(155.807 17.52)">
                  <g id="Grupo_1178492" data-name="Grupo 1178492">
                    <rect id="Rectángulo_455091" data-name="Rectángulo 455091" width="88.575" height="7.295" transform="translate(0 77.665)" fill="#e8c395"/>
                    <rect id="Rectángulo_455092" data-name="Rectángulo 455092" width="88.575" height="7.295" transform="translate(0 32.137)" fill="#e8c395"/>
                    <g id="Grupo_1178485" data-name="Grupo 1178485" transform="translate(5.594 44.075)">
                      <ellipse id="Elipse_13642" data-name="Elipse 13642" cx="15.687" cy="16.55" rx="15.687" ry="16.55" fill="#e8c395"/>
                      <g id="Grupo_1178484" data-name="Grupo 1178484" transform="translate(9.18 9.685)">
                        <ellipse id="Elipse_13643" data-name="Elipse 13643" cx="6.508" cy="6.865" rx="6.508" ry="6.865" fill="#ffe9d2"/>
                      </g>
                    </g>
                    <g id="Grupo_1178487" data-name="Grupo 1178487" transform="translate(29.625 44.075)">
                      <g id="Grupo_1178486" data-name="Grupo 1178486">
                        <ellipse id="Elipse_13644" data-name="Elipse 13644" cx="15.687" cy="16.55" rx="15.687" ry="16.55" fill="#ffe9d2"/>
                      </g>
                      <ellipse id="Elipse_13645" data-name="Elipse 13645" cx="6.508" cy="6.865" rx="6.508" ry="6.865" transform="translate(9.18 9.685)" fill="#e8c395"/>
                    </g>
                    <g id="Grupo_1178489" data-name="Grupo 1178489" transform="translate(53.657 44.075)">
                      <ellipse id="Elipse_13646" data-name="Elipse 13646" cx="15.687" cy="16.55" rx="15.687" ry="16.55" fill="#e8c395"/>
                      <g id="Grupo_1178488" data-name="Grupo 1178488" transform="translate(9.18 9.685)">
                        <ellipse id="Elipse_13647" data-name="Elipse 13647" cx="6.508" cy="6.865" rx="6.508" ry="6.865" fill="#ffe9d2"/>
                      </g>
                    </g>
                    <path id="Trazado_996362" data-name="Trazado 996362" d="M1267.728,353.123c.458-2.354,1.263-4.617,1.806-6.951s.312-4.2.458-7.172h4.984c.146,2.972-.085,4.838.458,7.172s1.348,4.6,1.806,6.951c1.146,5.894.2,12.125-.964,18.014h-7.585C1267.523,365.247,1266.58,359.017,1267.728,353.123Z" transform="translate(-1263.363 -339)" fill="#e8c395"/>
                    <g id="Grupo_1178491" data-name="Grupo 1178491" transform="translate(20.877 11.089)">
                      <path id="Trazado_996363" data-name="Trazado 996363" d="M1407.645,465.588H1401.6c-6.59,0-11.932-5.636-11.932-12.588h29.908C1419.577,459.952,1414.234,465.588,1407.645,465.588Z" transform="translate(-1386.798 -444.54)" fill="#e8c395"/>
                      <g id="Grupo_1178490" data-name="Grupo 1178490" transform="translate(0 6.173)">
                        <path id="Trazado_996364" data-name="Trazado 996364" d="M1406.571,439.667h-33.484A1.115,1.115,0,0,0,1372,440.81h0a1.115,1.115,0,0,0,1.084,1.143h33.484a1.115,1.115,0,0,0,1.084-1.143h0A1.116,1.116,0,0,0,1406.571,439.667Z" transform="translate(-1372.003 -439.667)" fill="#ffe9d2"/>
                      </g>
                      <path id="Trazado_996365" data-name="Trazado 996365" d="M1413.29,403.667h-17.771a6.019,6.019,0,0,0-5.851,6.173h29.474A6.019,6.019,0,0,0,1413.29,403.667Z" transform="translate(-1386.796 -403.667)" fill="#e8c395"/>
                    </g>
                  </g>
                </g>
                <g id="Grupo_1178494" data-name="Grupo 1178494" transform="translate(143.4 118.949)">
                  <path id="Trazado_996366" data-name="Trazado 996366" d="M1529.119,981.6c1.21-5.023,4.016-9.292,6.383-13.737s4.585-9.864,3.955-15.026V935.647a1.99,1.99,0,0,0-.573-1.422l-.46-.448a1.989,1.989,0,0,1-.573-1.422,1.755,1.755,0,0,1,1.621-1.864h6.1a1.755,1.755,0,0,1,1.621,1.864,1.99,1.99,0,0,1-.573,1.422l-.46.448a1.99,1.99,0,0,0-.573,1.422v17.195c-.63,5.161,1.588,10.581,3.955,15.025s5.173,8.714,6.383,13.737c1.066,4.424.811,9.122.271,13.671-.451,3.8-5.316,75.084-7.685,84.491h-11.98c-2.369-9.407-7.234-80.689-7.685-84.491C1528.307,990.726,1528.052,986.027,1529.119,981.6Z" transform="translate(-1469.678 -930.49)" fill="#e8c395"/>
                  <path id="Trazado_996367" data-name="Trazado 996367" d="M1348.545,981.6c1.21-5.023,4.016-9.292,6.383-13.737s4.585-9.864,3.955-15.026V935.647a1.99,1.99,0,0,0-.573-1.422l-.46-.448a1.989,1.989,0,0,1-.573-1.422,1.755,1.755,0,0,1,1.621-1.864h6.1a1.755,1.755,0,0,1,1.621,1.864,1.99,1.99,0,0,1-.573,1.422l-.46.448a1.99,1.99,0,0,0-.573,1.422v17.195c-.63,5.161,1.588,10.581,3.955,15.025s5.173,8.714,6.383,13.737c1.066,4.424.81,9.122.271,13.671-.451,3.8-5.316,75.084-7.685,84.491h-11.98c-2.369-9.407-7.234-80.689-7.685-84.491C1347.735,990.726,1347.48,986.027,1348.545,981.6Z" transform="translate(-1318.457 -930.49)" fill="#e8c395"/>
                  <path id="Trazado_996368" data-name="Trazado 996368" d="M1167.969,981.6c1.21-5.023,4.016-9.292,6.383-13.737s4.585-9.864,3.955-15.026V935.647a1.99,1.99,0,0,0-.573-1.422l-.46-.448a1.988,1.988,0,0,1-.573-1.422,1.755,1.755,0,0,1,1.621-1.864h6.1a1.755,1.755,0,0,1,1.621,1.864,1.99,1.99,0,0,1-.573,1.422l-.46.448a1.989,1.989,0,0,0-.573,1.422v17.195c-.63,5.161,1.588,10.581,3.955,15.025s5.173,8.714,6.383,13.737c1.066,4.424.81,9.122.271,13.671-.451,3.8-5.316,75.084-7.685,84.491h-11.98c-2.369-9.407-7.234-80.689-7.685-84.491C1167.157,990.726,1166.9,986.027,1167.969,981.6Z" transform="translate(-1167.231 -930.49)" fill="#e8c395"/>
                </g>
              </g>
            </g>
          </g>
          <g id="Grupo_1178511" data-name="Grupo 1178511" transform="translate(0 53.26)">
            <g id="Grupo_1178498" data-name="Grupo 1178498" transform="translate(0 145.044)">
              <path id="Trazado_996369" data-name="Trazado 996369" d="M380.676,1664.16H351.065l3.779,22.052H376.9Z" transform="translate(-336.629 -1617.681)" fill="#99583f"/>
              <path id="Trazado_996370" data-name="Trazado 996370" d="M294.086,1429.306q-3.081-.188-6.17-.223c-1.564-3.555-2.5-7.668-4.892-10.724-2.177-2.777-7.322-4.823-9.859-7.275s-4.132-5.71-5.67-8.893c-2.506-5.182-5.061-10.558-5.246-16.311a45.188,45.188,0,0,1,13,9.245,28.789,28.789,0,0,1,7.513,13.934c.551,2.762.618,5.609,1.269,8.349a40.144,40.144,0,0,0,4.4,9.974c-3.416-16.181-5.216-33.1-1.324-49.176a27.414,27.414,0,0,1,3.475,6.385c3.921,9.174,7.238,19.321,4.775,28.989-1.068,4.194-3.211,8.243-2.964,12.564,1.069-4.131,2.605-8.681,5.157-12.1a26.61,26.61,0,0,1,4.34-4.377c5.64-4.723,12-8.5,18.326-12.253-.8,6.156-4.448,11.643-8.951,15.915s-9.864,7.509-15.076,10.881a6.2,6.2,0,0,0-2.346,2.194C293.356,1427.37,293.122,1428.81,294.086,1429.306Z" transform="translate(-262.249 -1378.205)" fill="#8bc3c0"/>
              <rect id="Rectángulo_455093" data-name="Rectángulo 455093" width="29.611" height="5.362" transform="translate(14.436 46.48)" fill="#99583f"/>
              <path id="Trazado_996371" data-name="Trazado 996371" d="M356.719,1697.15l27.549,1.307.224-1.307Z" transform="translate(-341.364 -1645.308)" fill="#5f130d"/>
            </g>
            <g id="Grupo_1178500" data-name="Grupo 1178500" transform="translate(152.609 79.261)">
              <path id="Trazado_996372" data-name="Trazado 996372" d="M1332.115,1224.277a510.168,510.168,0,0,0-12.339-62.124,10.435,10.435,0,0,0-1.486-3.651c-1.441-1.934-3.974-2.632-6.316-3.208.14.562.248,1.029.388,1.591a4.913,4.913,0,0,1,4.286,1.536,10.174,10.174,0,0,1,2.379,4.117,42.561,42.561,0,0,1,1.332,5.418l3.773,18.873c2.5,12.5,5,25.027,6.028,37.73C1330.693,1224.49,1331.58,1224.346,1332.115,1224.277Z" transform="translate(-1293.957 -1125.744)" fill="#357092"/>
              <path id="Trazado_996373" data-name="Trazado 996373" d="M1447.992,1150.255a1.684,1.684,0,0,0,1.356-.249q-1.207-42.672-1.039-85.369c-.229-.269-.519-.663-.829-.492C1447.265,1092.995,1447.226,1121.414,1447.992,1150.255Z" transform="translate(-1407.326 -1049.375)" fill="#357092"/>
              <path id="Trazado_996374" data-name="Trazado 996374" d="M1472.993,1283.285q3.614-27.182,7.227-54.365a8.7,8.7,0,0,1,1.263-4.1c.856-1.165,2.573-1.832,3.792-1.054a2.2,2.2,0,0,1,1.145.231q.142-.818.284-1.635c-2-1.275-4.82-.168-6.216,1.75s-1.736,4.385-2.033,6.739l-6.684,52.877C1472.288,1283.914,1472.566,1283.625,1472.993,1283.285Z" transform="translate(-1427.782 -1181.454)" fill="#357092"/>
              <path id="Trazado_996375" data-name="Trazado 996375" d="M1361,1139.915a6.814,6.814,0,0,0-3.055,4.3,18.06,18.06,0,0,0-.346,5.391c.068,1.527.216,3.177,1.229,4.32.567-2.311,2.371-4.089,4.155-5.665a10.315,10.315,0,0,1,3.116-2.107,3.771,3.771,0,0,1,3.6.363c-.6,1.008-2.073.83-3.222,1.077-1.8.388-3.018,2.01-4.072,3.516s-2.141,3.113-2.235,4.944a7.257,7.257,0,0,0,.4,2.552,13.668,13.668,0,0,0,2.778,4.9c.412-3.767,2.612-6.57,5.738-8.712l-3.265,8.422a8.348,8.348,0,0,0-.817,3.756c.21,2.139,1.984,3.741,3.635,5.118a24.263,24.263,0,0,1,2.729-9.54,6.339,6.339,0,0,1-.279,8.085c-.594.63-1.392,1.373-1.109,2.192a2.021,2.021,0,0,0,.917.929l1.948,1.249a1.691,1.691,0,0,0,2.1.1q2.936-1.368,5.858-2.766a1.8,1.8,0,0,0,.708-.494,1.347,1.347,0,0,0-.163-1.55c-.334-.446-.81-.763-1.187-1.174a3.549,3.549,0,0,1,.679-5.157.633.633,0,0,1,.54-.127.676.676,0,0,1,.286.267,20.586,20.586,0,0,1,2.357,4.315,7.516,7.516,0,0,0,2.582-1.7,1.859,1.859,0,0,0,.585-.955,1.9,1.9,0,0,0-.151-.938c-1.39-3.847-5.169-6.408-6.75-10.18a10,10,0,0,1,5.29,2.278c1.971,1.9,2.375,4.867,2.667,7.592a15.559,15.559,0,0,0,3.517-6.743,2.4,2.4,0,0,0,.041-1.318,2.605,2.605,0,0,0-.958-1.109l-10.447-8.224c.188-.449.589-.932,1.05-.777l5.51,1.85a8.3,8.3,0,0,1,2.065.909c1.418.964,2.086,2.671,2.946,4.155a.62.62,0,0,0,.254.28c.322.144.6-.276.7-.612a10.429,10.429,0,0,0,.721-4.61,10.009,10.009,0,0,0-1.239-3.17q-2.168-4.056-4.616-7.955a5.766,5.766,0,0,0-1.438-1.726,4.469,4.469,0,0,0-1.915-.69c-3.213-.5-6.922,1.164-7.834,4.285a15.628,15.628,0,0,0-1.557-3.492,2.5,2.5,0,0,0-1.283-1.227,2.748,2.748,0,0,0-.922-.063l-2.873.13c-1.97.089-4.152.271-5.5,1.712C1363.6,1137.064,1362.128,1139.29,1361,1139.915Z" transform="translate(-1332.13 -1108.14)" fill="#8bc3c0"/>
              <path id="Trazado_996376" data-name="Trazado 996376" d="M1409.777,984.979a10.149,10.149,0,0,0,11.733,10.139,19.9,19.9,0,0,1-3.7-3.924c1.827.32,3.061,2,4.658,2.946a1.8,1.8,0,0,0,.983.316,2.282,2.282,0,0,0,1.122-.527,13.481,13.481,0,0,1,7.2-2.4,25.331,25.331,0,0,1-7.077-5.445,3.105,3.105,0,0,1,2.652.455c.789.49,1.444,1.168,2.193,1.718a8.3,8.3,0,0,0,5.325,1.586,5.816,5.816,0,0,0,3.979-2.671,16.063,16.063,0,0,0,1.792-4.266,8.716,8.716,0,0,1-7.251-.694c1.537-.8,3.363.456,5.088.318a4.312,4.312,0,0,0,3.38-2.77,12.7,12.7,0,0,0,.723-4.511q.034-.88.067-1.759a69.42,69.42,0,0,0-7.99.609,2.953,2.953,0,0,0-1.132.314,3.032,3.032,0,0,0-1.055,1.45l-1.629,3.576a2.258,2.258,0,0,1-1.247,1.014l-.258-1.919a2.927,2.927,0,0,1,.278-2.182c.328-.43.935-.794.819-1.322a17.578,17.578,0,0,0-5.3,1.391,2.693,2.693,0,0,0-2.165,2.208l-.753,2.5a1.854,1.854,0,0,1-.726,1.18,6.034,6.034,0,0,1-.583-4.64,32.045,32.045,0,0,0-6.916,2.556,9.083,9.083,0,0,0-2.252,1.485C1410.8,982.614,1409.792,983.675,1409.777,984.979Z" transform="translate(-1375.864 -973.492)" fill="#8bc3c0"/>
              <path id="Trazado_996377" data-name="Trazado 996377" d="M1520.2,1229.631c1.43-1.667,2.977-3.412,5.081-4.046a10.749,10.749,0,0,1,5.079.077,68.83,68.83,0,0,1,8.087,2.049,2.423,2.423,0,0,0-1.972,2.159,1.6,1.6,0,0,0,2.157,1.485c.692-.38.908-1.3,1.532-1.779.785-.607,1.91-.344,2.859-.053,2.409.738,5.135,1.767,5.971,4.144a26.394,26.394,0,0,0-5.721.133c-.768.1-1.713.422-1.776,1.194-.067.815.951,1.287,1.767,1.239,1.908-.112,3.575-1.649,5.482-1.514a1.391,1.391,0,0,1,.893.333,1.747,1.747,0,0,1,.388,1.029q.551,3.824.729,7.689c.011.247-.065.515-.312.531a22.485,22.485,0,0,1-3.335-.4,3.065,3.065,0,0,0-2.975,1.144.892.892,0,0,0-.147.577,1.052,1.052,0,0,0,.573.662,5.256,5.256,0,0,0,4.708.3,11.757,11.757,0,0,1,1.863-.829.631.631,0,0,1,.542.055.719.719,0,0,1,.193.5,29.131,29.131,0,0,0,1.751,7.245c.151.4.282.915-.047,1.182-5.147,4.168-13.176,3.955-18.781.427a82.368,82.368,0,0,1,3.947-11.779c-1.865.208-3.317,1.654-4.608,3.015a8.156,8.156,0,0,0-1.509,1.957c-.8,1.65-.416,3.606-.01,5.4-1.237-1.215-3.11-1.735-4.081-3.171a6.4,6.4,0,0,1-.688-4.13,34.806,34.806,0,0,1,1.72-8.369c-1.019-.312-1.854.843-2.221,1.844a17.749,17.749,0,0,0-.993,7.873,23.229,23.229,0,0,1-6.856-6.727,7.274,7.274,0,0,1-.974-7.046C1518.872,1232.716,1519.317,1230.665,1520.2,1229.631Z" transform="translate(-1466.557 -1184.377)" fill="#8bc3c0"/>
              <path id="Trazado_996378" data-name="Trazado 996378" d="M1301.721,1311.387a2.68,2.68,0,0,1,1.658-.634,2.553,2.553,0,0,1,1.305.615,11.5,11.5,0,0,1,2.23,16c-2.122,2.849-5.407,4.542-8.217,6.716a27.872,27.872,0,0,0-6.286,6.819,1.42,1.42,0,0,1-.666.651,1.272,1.272,0,0,1-1.181-.461,13.539,13.539,0,0,1-2.748-4.51l-2.9-6.57a11.645,11.645,0,0,1-1.375-5.135,10.924,10.924,0,0,1,1.044-3.681c1.879-4.43,4.183-8.815,7.76-12.033a2.31,2.31,0,0,1,1.116-.656c1-.162,1.743.892,2.164,1.816.466,1.023,1.077,4.375,2.274,4.292C1298.894,1314.542,1300.832,1312,1301.721,1311.387Z" transform="translate(-1270.142 -1254.036)" fill="#8bc3c0"/>
              <path id="Trazado_996379" data-name="Trazado 996379" d="M1217.663,1122.7c1.644,2.915,4.851,4.778,6.189,7.845a15.1,15.1,0,0,1,.919,5.284c.071,1.351.047,2.926-1.018,3.76-.945-1.3-.883-3.039-.917-4.643s-.322-3.417-1.643-4.328a8.281,8.281,0,0,0,.418,5.058,17.731,17.731,0,0,1,1.276,4.981,4.369,4.369,0,0,1-2.328,4.254,50.642,50.642,0,0,0-1.519-7.336,3.409,3.409,0,0,0-.672-1.428,1.22,1.22,0,0,0-1.438-.327,12.915,12.915,0,0,0,.783,3.326c.747,1.962,1.974,3.745,2.443,5.791s-.126,4.593-2.056,5.418l-.988-4.7c-.9,1.561-.457,3.507-.333,5.307s-.425,4.016-2.166,4.485a21.1,21.1,0,0,0-.917-8.074,9.173,9.173,0,0,0-.72,7.351,7.034,7.034,0,0,1,.667,2.485c-.048,1.7-1.652,2.874-3.09,3.776-.716-.947-1.661-1.7-2.4-2.633a3.805,3.805,0,0,1-.922-3.3c.177-.6.577-1.117.782-1.711a6.278,6.278,0,0,0,.136-2.431,28.261,28.261,0,0,1,.518-7.33,19.921,19.921,0,0,0-1.806,3.342,4.7,4.7,0,0,0-.481,2.757c.1.475.334.914.442,1.388a5.591,5.591,0,0,1-.871,3.624,21.5,21.5,0,0,1-2.941-7.489,5.806,5.806,0,0,1,1.147-4.018l5.47-7.759a5.151,5.151,0,0,0-5.081,3.975c-.107.521-.131,1.06-.275,1.572a7.016,7.016,0,0,1-2.094,2.924c-.742-2.409-1.485-5-.724-7.4a8.429,8.429,0,0,1,4.3-4.685,25.017,25.017,0,0,1,6.21-1.955c-1.539-1.3-3.926-.847-5.66.182s-3.17,2.543-5.005,3.377a36.65,36.65,0,0,1,2.914-7.1,1.629,1.629,0,0,1,.721-.809,1.656,1.656,0,0,1,.878-.024l6.719,1.032a3.006,3.006,0,0,0-2.618-2.334,6.732,6.732,0,0,0-3.641.725,5.415,5.415,0,0,1,2.987-2.957,16.056,16.056,0,0,1,4.182-1.031c.536-.082,1.341.1,1.214.628a7.375,7.375,0,0,1,1.111,4.178c-.082.72-.285,1.428-.3,2.153a2.368,2.368,0,0,0,.762,1.953,18.7,18.7,0,0,0,.408-3.729,11.043,11.043,0,0,1,0-1.795A2.484,2.484,0,0,1,1217.663,1122.7Z" transform="translate(-1201.137 -1096.933)" fill="#8bc3c0"/>
              <g id="Grupo_1178499" data-name="Grupo 1178499" transform="translate(14.176 94.195)">
                <rect id="Rectángulo_455094" data-name="Rectángulo 455094" width="47.41" height="9.761" transform="translate(47.41 9.761) rotate(180)" fill="#99583f"/>
                <path id="Trazado_996380" data-name="Trazado 996380" d="M1305.16,1613.05H1347.1l-5.438,29.672H1310.6Z" transform="translate(-1302.428 -1603.29)" fill="#99583f"/>
                <path id="Trazado_996381" data-name="Trazado 996381" d="M1347.1,1613.05l-41.508,2.37-.436-2.37Z" transform="translate(-1302.428 -1603.29)" fill="#5f130d"/>
              </g>
            </g>
            <g id="Grupo_1178508" data-name="Grupo 1178508" transform="translate(0 0)">
              <path id="Trazado_996382" data-name="Trazado 996382" d="M770.665,937.122a19.206,19.206,0,0,1-9.258-8.212,22.98,22.98,0,0,1-2.937-12.094c.087-3.038.982-6.431,3.638-7.908a6.08,6.08,0,0,1,5.356-.129,7.991,7.991,0,0,1,3.825,3.87,2.732,2.732,0,0,1-1.546,3.4,2.67,2.67,0,0,1-2.052-.474,1.692,1.692,0,0,1-.735-.714,3.843,3.843,0,0,1-.031-1.422c-.035-1.306-1.431-2.177-2.727-2.34a2.407,2.407,0,0,0-1.925.43,2.971,2.971,0,0,0-.716,2.021c-.38,4.434-.277,9.043,1.489,13.128s5.489,7.552,9.921,7.958Z" transform="translate(-677.805 -848.304)" fill="#357092"/>
              <rect id="Rectángulo_455095" data-name="Rectángulo 455095" width="15.604" height="56.775" transform="translate(149.877 150.922)" fill="#5f130d"/>
              <path id="Trazado_996383" data-name="Trazado 996383" d="M1168.616,1701.544a45.683,45.683,0,0,1-.111,9.036,24.318,24.318,0,0,0,9.693-1.029c.124-2.831.149-5.646.051-8.455A22.479,22.479,0,0,1,1168.616,1701.544Z" transform="translate(-1021.2 -1503.569)" fill="#fff"/>
              <path id="Trazado_996384" data-name="Trazado 996384" d="M1184.33,1769.842h28.5a6.177,6.177,0,0,0-6.177-6.177H1184.33Z" transform="translate(-1034.453 -1555.967)" fill="#99583f"/>
              <path id="Trazado_996385" data-name="Trazado 996385" d="M1173.422,1658.58c-.1-2.751-.311-5.5-.668-8.251l-10.013,2.152a45.571,45.571,0,0,1,1.048,6.547A22.45,22.45,0,0,0,1173.422,1658.58Z" transform="translate(-1016.374 -1461.054)" fill="#ff966c"/>
              <path id="Trazado_996386" data-name="Trazado 996386" d="M1105.5,1375.257h40.551a2.5,2.5,0,0,0,2.5-2.5v-5.1H1105.5Z" transform="translate(-968.436 -1228.678)" fill="#99583f"/>
              <path id="Trazado_996387" data-name="Trazado 996387" d="M1183.856,1317.423h-36.193v-9.753h28.12a8.073,8.073,0,0,1,8.073,8.073Z" transform="translate(-1003.746 -1178.978)" fill="#f83b4f"/>
              <path id="Trazado_996388" data-name="Trazado 996388" d="M1051.61,1182.665c2.469,18.585,8.791,36.3,13.554,54.433a142.359,142.359,0,0,0,14.622-.57,2.61,2.61,0,0,0,1.429-.411c-2.111-17.936-4.814-35.682-8.264-53.409a152.381,152.381,0,0,0,16.862-3.585c2.462-.671,5.188-1.635,6.261-3.95a8.469,8.469,0,0,0,.6-3.02,61.333,61.333,0,0,0-1.939-19.89,177.006,177.006,0,0,0-31.105.306Z" transform="translate(-923.306 -1043.496)" fill="#357092"/>
              <path id="Trazado_996389" data-name="Trazado 996389" d="M1211.741,980.765a238.62,238.62,0,0,0-.953,26.964,19.2,19.2,0,0,1-5.08-.347,116.184,116.184,0,0,0-17.134-1.3c2.813-10,3.819-20.488,7.284-30.282Z" transform="translate(-1038.007 -904.017)" fill="#c67a58"/>
              <path id="Trazado_996390" data-name="Trazado 996390" d="M836.929,806.57c-1.843-2.292-4.578-3.635-7.079-5.184a41.753,41.753,0,0,1-5.02-3.653.884.884,0,0,1-.258-.3,1.039,1.039,0,0,1,.005-.594,3.317,3.317,0,0,0-.422-2.263,7.634,7.634,0,0,1-.529-.864,4.642,4.642,0,0,1-.249-1.162,7.378,7.378,0,0,0-.667-2.126,17.042,17.042,0,0,0-5.94-.27.969.969,0,0,0-.643.273.85.85,0,0,0-.147.5c-.054,1.138.55,2.277.279,3.383-.168.685-.658,1.271-.757,1.969-.155,1.09.662,2.052,1.422,2.848a82.925,82.925,0,0,0,8.757,8.307Z" transform="translate(-725.558 -750.858)" fill="#ff966c"/>
              <path id="Trazado_996391" data-name="Trazado 996391" d="M1032.777,804.788l-8.428,6.846a.358.358,0,0,1-.617-.056,103.938,103.938,0,0,1-10.243-14.821c5.763-4.809,11.567-9.658,16.3-15.484a11.756,11.756,0,0,1,2.419-2.489,10.675,10.675,0,0,1,2.605-1.14c1.367-.458,2.809-.8,4.175-1.256a20.106,20.106,0,0,0,1.927,4.425,5.962,5.962,0,0,0,2.65,2.682,6.371,6.371,0,0,0,4.384-.291,34.8,34.8,0,0,0,10.744-5.9c1.862,1.015,3.9,1.4,5.748,2.438-2.539,11.462-4.6,23.7-5.964,35.358Z" transform="translate(-891.381 -739.304)" fill="#ffba55"/>
              <path id="Trazado_996392" data-name="Trazado 996392" d="M1165.32,698.455a21.96,21.96,0,0,1-.661,5.507,57,57,0,0,1-6.575.819,13.455,13.455,0,0,0,2.037,6.665,6.982,6.982,0,0,0,2.417,2.484,6.332,6.332,0,0,0,4.771.334,18.806,18.806,0,0,0,4.4-2.142l9.928-5.953a33.563,33.563,0,0,0-6.679-1.67,93.9,93.9,0,0,1,.445-14.2,15.346,15.346,0,0,0-4.207,2.75Z" transform="translate(-1012.473 -669.847)" fill="#ff966c"/>
              <path id="Trazado_996393" data-name="Trazado 996393" d="M1209.518,695.264a15.337,15.337,0,0,0-2.63,1.942l-5.876,5.411a21.982,21.982,0,0,1-.308,3.809C1205.754,705.489,1209.117,700.595,1209.518,695.264Z" transform="translate(-1048.166 -674.009)" fill="#c67a58"/>
              <path id="Trazado_996394" data-name="Trazado 996394" d="M1164.032,589.279a23.461,23.461,0,0,1-2.886-15.3,9.678,9.678,0,0,1,1.25-4.032,9.209,9.209,0,0,1,2.987-2.693,17.27,17.27,0,0,1,8.028-2.732,11.631,11.631,0,0,1,8.014,2.423,5.006,5.006,0,0,1,1.8,5.918,30.483,30.483,0,0,1-1.328,3.266,25.558,25.558,0,0,0-1.816,6.661,5.377,5.377,0,0,1-1.618,3.178.525.525,0,0,1-.227.14.872.872,0,0,1-.347-.048,3.479,3.479,0,0,0-.925.1,7.344,7.344,0,0,1-1.367-.225c-.46-.053-1.03.144-1.1.6Z" transform="translate(-1014.843 -564.496)" fill="#5f130d"/>
              <path id="Trazado_996395" data-name="Trazado 996395" d="M1177.09,631.149c-2.2,3.466-5.108,7.214-9.18,7.752a4.693,4.693,0,0,1-3.21-.818,6.335,6.335,0,0,1-2.124-2.586,12.257,12.257,0,0,1-.636-1.788,30.559,30.559,0,0,1-.028-16.661c1.72,1.714,4.792,1.691,7.187,1.29s4.75-1.245,7.176-1.132a4.179,4.179,0,0,0-.926,1.375c-.595,1.1.013,2.511.317,3.728a7.83,7.83,0,0,0,1.675,3.329c0,1.182-.068,2.136-.066,3.318l1.51-2.832a3.526,3.526,0,0,1,.736-1.049,1.2,1.2,0,0,1,1.194-.274,1.56,1.56,0,0,1,.75,1.432,8.349,8.349,0,0,1-1.684,5.067,1.881,1.881,0,0,1-.538.58,1.327,1.327,0,0,1-1.14.053A4.2,4.2,0,0,1,1177.09,631.149Z" transform="translate(-1014.722 -608.507)" fill="#ff966c"/>
              <path id="Trazado_996396" data-name="Trazado 996396" d="M1272.855,673.3a1.94,1.94,0,0,1,.8-.968.214.214,0,0,1,.148-.029.223.223,0,0,1,.12.116,1.63,1.63,0,0,1,.111,1.376,4.813,4.813,0,0,0-.411-.861,11.312,11.312,0,0,1-.756,1.342c.057.059.153.036.235.039a.436.436,0,0,1,.369.319,1.013,1.013,0,0,1-.006.514,3.246,3.246,0,0,1-.323.875.861.861,0,0,1-.357.394.359.359,0,0,1-.47-.127.537.537,0,0,1-.021-.286A6.667,6.667,0,0,1,1272.855,673.3Z" transform="translate(-1108.107 -654.779)" fill="#fc571e"/>
              <path id="Trazado_996397" data-name="Trazado 996397" d="M1215.255,660.867c0,.479-.206.867-.461.867s-.46-.388-.46-.867.206-.867.46-.867S1215.255,660.388,1215.255,660.867Z" transform="translate(-1059.58 -644.477)" fill="#5f130d"/>
              <path id="Trazado_996398" data-name="Trazado 996398" d="M1178.255,660.867c0,.479-.206.867-.461.867s-.46-.388-.46-.867.206-.867.46-.867S1178.255,660.388,1178.255,660.867Z" transform="translate(-1028.594 -644.477)" fill="#5f130d"/>
              <path id="Trazado_996399" data-name="Trazado 996399" d="M1214.459,641.73a4.863,4.863,0,0,0-1.9-.223.334.334,0,0,1,.067-.345.566.566,0,0,1,.3-.07,5.065,5.065,0,0,1,.613.032,1.482,1.482,0,0,1,.524.114A.755.755,0,0,1,1214.459,641.73Z" transform="translate(-1058.08 -628.641)" fill="#5f130d"/>
              <path id="Trazado_996400" data-name="Trazado 996400" d="M1172.11,641.847a3.251,3.251,0,0,1,1.818-.292.281.281,0,0,0-.132-.392.827.827,0,0,0-.477-.03q-.411.059-.816.154a.825.825,0,0,0-.3.118C1172.108,641.472,1172.089,641.739,1172.11,641.847Z" transform="translate(-1024.213 -628.66)" fill="#5f130d"/>
              <path id="Trazado_996401" data-name="Trazado 996401" d="M1183.5,672.785a1.163,1.163,0,0,1-1.363-.33,1.435,1.435,0,0,1-.05-1.067,10.555,10.555,0,0,1,1.257-3.087A16.342,16.342,0,0,0,1183.5,672.785Z" transform="translate(-1032.51 -651.428)" fill="#fc571e"/>
              <path id="Trazado_996402" data-name="Trazado 996402" d="M1187.93,703.157a24.359,24.359,0,0,1-5.77.756,4.845,4.845,0,0,0,1.084,1.673,2.032,2.032,0,0,0,1.263.692,1.965,1.965,0,0,0,.8-.142A4.843,4.843,0,0,0,1187.93,703.157Z" transform="translate(-1032.636 -680.619)" fill="#b62c43"/>
              <path id="Trazado_996403" data-name="Trazado 996403" d="M1116.794,845.777l-2.133-7.112a50.392,50.392,0,0,0,.934,13.24Z" transform="translate(-976.027 -791.136)" fill="#c67a58"/>
              <path id="Trazado_996404" data-name="Trazado 996404" d="M962.553,819.7A118.536,118.536,0,0,1,970,777.2a6.227,6.227,0,0,1,2.979-.427,107.822,107.822,0,0,0-2.69,16.669c4.94.449,10.039,1.1,14.965,1.68,2.515-5.923,5.023-11.9,7.422-17.872a15.387,15.387,0,0,1,3.731,1.022,188.96,188.96,0,0,0-7.291,29.619,12.5,12.5,0,0,0,3.267,2.185A128.2,128.2,0,0,1,976.7,852.444a3.438,3.438,0,0,1-.879,1.1,3.311,3.311,0,0,1-1.736.468,57.774,57.774,0,0,1-8.965-.282q-14.9-1.293-29.7-3.578c8.344-9.825,19.016-17.5,27.132-27.511Z" transform="translate(-826.001 -738.799)" fill="#f83b4f"/>
              <rect id="Rectángulo_455096" data-name="Rectángulo 455096" width="100.618" height="4.118" transform="translate(57.12 113.95)" fill="#ff966c"/>
              <path id="Trazado_996405" data-name="Trazado 996405" d="M613.667,1249H714.285c-8.5,0-21.044,8.266-25.918,15.387H639.585c-4.874-7.122-17.42-15.387-25.918-15.387Z" transform="translate(-556.547 -1130.252)" fill="#c67a58"/>
              <path id="Trazado_996406" data-name="Trazado 996406" d="M850.806,909.175a16.137,16.137,0,0,1-3.236,2.779,15.717,15.717,0,0,1-4.455,1.79,32.006,32.006,0,0,1-16.453,0,15.736,15.736,0,0,1-4.455-1.79,16.171,16.171,0,0,1-3.235-2.779c-3.521-4.031-4.249-9.775-4.153-15.126a57.717,57.717,0,0,1,3.025-16.55q.229-.714.473-1.424.312-.919.645-1.827.254-.7.52-1.395.327-.863.67-1.716l-.543-3.467h30.558l-.541,3.467q.341.853.67,1.716.266.695.52,1.395.332.909.645,1.827c.161.473.32.949.471,1.426a57.7,57.7,0,0,1,3.027,16.548C855.055,899.4,854.326,905.144,850.806,909.175Z" transform="translate(-724.996 -814.409)" fill="#8bc3c0"/>
              <path id="Trazado_996407" data-name="Trazado 996407" d="M889.314,1154.591A13.554,13.554,0,0,1,885.9,1145h-11.27a13.554,13.554,0,0,1-3.41,9.592c-.939,1.06-2.071,1.787-2.225,3.2h22.539C891.385,1156.379,890.253,1155.651,889.314,1154.591Z" transform="translate(-770.377 -1044.379)" fill="#8bc3c0"/>
              <path id="Trazado_996408" data-name="Trazado 996408" d="M914.317,1145h-11.27a12.547,12.547,0,0,1-.12,2.548c3.921.254,8.079.476,11.852,1.6A12.85,12.85,0,0,1,914.317,1145Z" transform="translate(-798.79 -1044.649)" fill="#357092"/>
              <path id="Trazado_996409" data-name="Trazado 996409" d="M859.459,1087.67H821.47a17.137,17.137,0,0,0,1.347,3.251h35.294A17.031,17.031,0,0,0,859.459,1087.67Z" transform="translate(-730.573 -997.253)" fill="#fff"/>
              <path id="Trazado_996410" data-name="Trazado 996410" d="M829.763,1107.67a13.941,13.941,0,0,0,1.73,2.495,16.088,16.088,0,0,0,3.236,2.78,15.728,15.728,0,0,0,4.456,1.79,31.993,31.993,0,0,0,16.452,0,15.735,15.735,0,0,0,4.455-1.79,16.082,16.082,0,0,0,3.236-2.78,13.939,13.939,0,0,0,1.73-2.495Z" transform="translate(-737.518 -1013.658)" fill="#ffba55"/>
              <g id="Grupo_1178501" data-name="Grupo 1178501" transform="translate(93.966 56.493)">
                <path id="Trazado_996411" data-name="Trazado 996411" d="M872.2,893.937l-4.163,2.531-5.882-3.576-5.883,3.576-5.882-3.576-5.882,3.576-4.161-2.531q.254-.7.52-1.395l3.641,2.214,5.882-3.576,5.882,3.576,5.883-3.576,5.882,3.576,3.643-2.214Q871.949,893.237,872.2,893.937Z" transform="translate(-840.35 -891.18)" fill="#fff"/>
              </g>
              <g id="Grupo_1178502" data-name="Grupo 1178502" transform="translate(92.847 60.674)">
                <path id="Trazado_996412" data-name="Trazado 996412" d="M867.558,917.439l-5.279,3.209-5.882-3.576-5.882,3.576-5.882-3.576-5.882,3.576-5.279-3.21q.229-.714.473-1.424l4.806,2.922,5.882-3.576,5.882,3.576,5.882-3.576,5.882,3.576,4.808-2.922C867.248,916.486,867.407,916.963,867.558,917.439Z" transform="translate(-833.47 -915.36)" fill="#fff"/>
              </g>
              <path id="Trazado_996413" data-name="Trazado 996413" d="M863,770.323a.392.392,0,0,0-.216.005.4.4,0,0,0-.2.244,3.3,3.3,0,0,0-.177,1.031q-.056.869-.111,1.738a1.048,1.048,0,0,0,1.16,1.365.921.921,0,0,0,.417-.022c.307-.115.4-.5.417-.828C864.356,772.819,864.313,770.575,863,770.323Z" transform="translate(-764.755 -736.857)" fill="#ff966c"/>
              <path id="Trazado_996414" data-name="Trazado 996414" d="M899.875,812.161l-4.529-3.01a14.8,14.8,0,0,0-.93,1.727l4.267,2.745Z" transform="translate(-791.662 -766.854)" fill="#fff"/>
              <path id="Trazado_996415" data-name="Trazado 996415" d="M766.514,725.506a1.157,1.157,0,1,0-1.267,1.937L785.8,740.667a14.74,14.74,0,0,1,.93-1.727Z" transform="translate(-683.044 -699.173)" fill="#99583f"/>
              <g id="Grupo_1178503" data-name="Grupo 1178503" transform="translate(107.021 45.116)">
                <path id="Trazado_996416" data-name="Trazado 996416" d="M934.7,836.453l-1.792-4.567a3.711,3.711,0,0,0-1.027-.839,2.336,2.336,0,0,1,.107,1.627,1.933,1.933,0,0,0-.132.546c0,.388.323.708.378,1.092a4.7,4.7,0,0,1-1.547-2.041,2.009,2.009,0,0,0,.367,1.952c.088.1.188.256.092.35a.249.249,0,0,1-.2.043,7.062,7.062,0,0,1-1.191-.193c-.456-.115-.97-.354-1.047-.818a2.883,2.883,0,0,0-.037,1.153,4.536,4.536,0,0,0,1.378.947A12.791,12.791,0,0,0,934.7,836.453Z" transform="translate(-927.333 -830.114)" fill="#8bc3c0"/>
                <path id="Trazado_996417" data-name="Trazado 996417" d="M922.044,828.8c.077.464.591.7,1.047.818a7.017,7.017,0,0,0,1.191.193.25.25,0,0,0,.2-.043c.1-.094,0-.249-.092-.35a2.01,2.01,0,0,1-.367-1.952,4.707,4.707,0,0,0,1.547,2.041c-.055-.384-.378-.7-.378-1.092a1.921,1.921,0,0,1,.132-.546,2.338,2.338,0,0,0-.107-1.627,3.718,3.718,0,0,1,1.027.839l-.179-.455c-.206-.525-.478-1.113-1.018-1.273a1.876,1.876,0,0,0-.79,0,17.778,17.778,0,0,1-2.4.342l-1.192,1.463a4.353,4.353,0,0,0,1.339,2.8A2.875,2.875,0,0,1,922.044,828.8Z" transform="translate(-920.668 -825.305)" fill="#357092"/>
              </g>
              <path id="Trazado_996418" data-name="Trazado 996418" d="M827.807,800.034q-1.538-1.083-2.976-2.3a.885.885,0,0,1-.259-.3,1.038,1.038,0,0,1,.005-.594,3.317,3.317,0,0,0-.422-2.263,7.626,7.626,0,0,1-.53-.864,4.647,4.647,0,0,1-.249-1.162,7.383,7.383,0,0,0-.667-2.126,17.043,17.043,0,0,0-5.94-.27.968.968,0,0,0-.642.273.85.85,0,0,0-.147.5c-.054,1.138.55,2.277.279,3.383-.168.685-.658,1.27-.757,1.969a3.038,3.038,0,0,0,.939,2.317A22.872,22.872,0,0,0,827.807,800.034Z" transform="translate(-725.559 -750.95)" fill="#c67a58"/>
              <path id="Trazado_996419" data-name="Trazado 996419" d="M1002.447,919.395c-1.485,3.636-3.395,7.846-5.153,11.357-10.73-1.624-21.492-4.44-30.618-10.312-1.989-1.28-1.962-4.128-2.531-6.424a8.557,8.557,0,0,0-.615-1.917,6.3,6.3,0,0,0-.834-1.169,19.9,19.9,0,0,0-2.808-2.695,6.745,6.745,0,0,0-2.3-1.035,9.8,9.8,0,0,0-1.2-.219l-2.921-.407c-.192-.027-.443-.02-.509.162a.391.391,0,0,0,.113.358,3.39,3.39,0,0,0,2.109.982,5.482,5.482,0,0,1,2.252.7,4.71,4.71,0,0,1,1.239,1.556c-1-.378-2.167-.775-3.165-1.153a5.152,5.152,0,0,0-2.35-.487,5.076,5.076,0,0,0-1.07.281c-.331.113-1.627.312-1.775.648-.216.487.676.906,1.035.958a6.439,6.439,0,0,0,1.572-.114c1.9-.2,3.731.673,5.444,1.519a56.479,56.479,0,0,0-6.762-1.523,1.922,1.922,0,0,0-.937-.029.674.674,0,0,0-.508.7.93.93,0,0,0,.36.5c2.32,1.97,5.657,2.388,7.988,4.345a30.651,30.651,0,0,1-5.6-2.561,1.724,1.724,0,0,0-.773-.327.571.571,0,0,0-.625.442.826.826,0,0,0,.348.62c1.684,1.578,3.562,2.955,5.109,4.667,1.146,1.268,1.211,3,2.147,4.429,1.355,2.07,3.7,3.234,5.927,4.3,15.807,14.441,28.669,16.3,31.3,16.71a11.352,11.352,0,0,0,7.73-1.184c6.147-3.821,10.691-17.053,11.253-22.138Z" transform="translate(-838.33 -846.718)" fill="#ff966c"/>
              <path id="Trazado_996420" data-name="Trazado 996420" d="M1266.038,985.506c-.359.88-.744,1.795-1.145,2.724a141.649,141.649,0,0,1,11.021,9.093,42.84,42.84,0,0,0,2.988-10.279Z" transform="translate(-1101.921 -912.554)" fill="#c67a58"/>
              <path id="Trazado_996421" data-name="Trazado 996421" d="M651.56,1092.2a9.322,9.322,0,0,0-5.392-5.278,14.228,14.228,0,0,0-1.906-.631,1.035,1.035,0,0,1-.783-1h0a1.029,1.029,0,0,1,1.029-1.028h.813v-2.6H631.668v2.6h.814a1.029,1.029,0,0,1,1.029,1.028h0a1.035,1.035,0,0,1-.784,1,14.228,14.228,0,0,0-1.906.631,9.323,9.323,0,0,0-5.392,5.278,8.078,8.078,0,0,0-.241,4.722c.317,1.147,2.343,5.5,2.634,7.822h21.347c.291-2.326,2.316-6.674,2.634-7.822A8.079,8.079,0,0,0,651.56,1092.2Z" transform="translate(-565.987 -991.708)" fill="#c27d56"/>
              <g id="Grupo_1178504" data-name="Grupo 1178504" transform="translate(77.004 105.938)">
                <rect id="Rectángulo_455097" data-name="Rectángulo 455097" width="6.718" height="1.571" fill="#fff"/>
                <rect id="Rectángulo_455098" data-name="Rectángulo 455098" width="4.768" height="6.068" transform="translate(0.975 1.57)" fill="#f83b4f"/>
                <rect id="Rectángulo_455099" data-name="Rectángulo 455099" width="3.251" height="3.251" transform="translate(2.492 2.545)" fill="#ffba55"/>
              </g>
              <g id="Grupo_1178505" data-name="Grupo 1178505" transform="translate(87.538 103.028)">
                <rect id="Rectángulo_455100" data-name="Rectángulo 455100" width="9.196" height="2.151" fill="#fff"/>
                <rect id="Rectángulo_455101" data-name="Rectángulo 455101" width="6.526" height="8.306" transform="translate(1.335 2.15)" fill="#ffba55"/>
                <rect id="Rectángulo_455102" data-name="Rectángulo 455102" width="4.45" height="4.45" transform="translate(3.412 3.487)" fill="#f83b4f"/>
              </g>
              <g id="Grupo_1178506" data-name="Grupo 1178506" transform="translate(123.706 103.028)">
                <rect id="Rectángulo_455103" data-name="Rectángulo 455103" width="9.196" height="2.151" fill="#fff"/>
                <rect id="Rectángulo_455104" data-name="Rectángulo 455104" width="6.526" height="8.306" transform="translate(1.334 2.15)" fill="#8bc3c0"/>
                <rect id="Rectángulo_455105" data-name="Rectángulo 455105" width="4.45" height="4.45" transform="translate(3.412 3.487)" fill="#fff"/>
              </g>
              <path id="Trazado_996422" data-name="Trazado 996422" d="M1100.472,1147.495h-9.187l-1.7-14.785h12.576Z" transform="translate(-955.112 -1034.156)" fill="#ffba55"/>
              <path id="Trazado_996423" data-name="Trazado 996423" d="M1270.175,831.948a82.292,82.292,0,0,1-18.127-6.857,191.846,191.846,0,0,1,11.041-31.525c1.339.393,6.613,2.412,7.578,3.385a8.267,8.267,0,0,1,2.085,4.208,22.663,22.663,0,0,1,.308,4.744C1272.976,814.724,1271.51,823.227,1270.175,831.948Z" transform="translate(-1091.164 -753.482)" fill="#ffba55"/>
              <path id="Trazado_996424" data-name="Trazado 996424" d="M1276.69,891.9q4.847-3.7,9.99-7c.2-.126.268-.719.057-.821a.8.8,0,0,0-.672.1A28.381,28.381,0,0,0,1276.69,891.9Z" transform="translate(-1111.8 -828.737)" fill="#c67a58"/>
              <path id="Trazado_996425" data-name="Trazado 996425" d="M818.859,790.729l-3.23.117a6.9,6.9,0,0,0-1.641.191c-.531.15-1.021.427-1.559.551a4.186,4.186,0,0,1-2.115-.148,2.736,2.736,0,0,1-1.8-1.278,8.4,8.4,0,0,1-.333-1.4,6.838,6.838,0,0,0-.465-1.1,4.83,4.83,0,0,1-.577-2.566,15.907,15.907,0,0,0,.332-1.826,3.546,3.546,0,0,1,.024-1.255c.249-.665,1.095-.845,1.8-.875a15.35,15.35,0,0,1,3.7.294,7.476,7.476,0,0,1,4.254,2.245c.138.16.27.4.134.563a.435.435,0,0,1-.323.116,8.721,8.721,0,0,1-2.5-.536,6.848,6.848,0,0,0-3.615.08,2.693,2.693,0,0,0,1.782.449q2.081.159,4.148.465c.649.1,1.414.3,1.625.919a.589.589,0,0,1-.029.493c-.159.258-.523.273-.826.259q-2.861-.129-5.727-.023a6.862,6.862,0,0,0,2.114.5q1.925.2,3.823.6a2.524,2.524,0,0,1,1.294.547c.189.185.316.5.153.709a.7.7,0,0,1-.582.177l-6.315-.052c2,.6,4.083.454,6.146.789a1.039,1.039,0,0,1,.683.305C819.4,790.235,819.114,790.719,818.859,790.729Z" transform="translate(-718.557 -743.603)" fill="#ff966c"/>
              <rect id="Rectángulo_455106" data-name="Rectángulo 455106" width="48.782" height="74.445" transform="translate(83.038 139.43)" fill="#99583f"/>
              <path id="Trazado_996426" data-name="Trazado 996426" d="M821.9,1349.2v-5.526H773.12v1.951Z" transform="translate(-690.082 -1208.919)" fill="#5f130d"/>
              <rect id="Rectángulo_455107" data-name="Rectángulo 455107" width="239.831" height="1.48" transform="translate(0 212.888)" fill="#f9d8ad"/>
              <g id="Grupo_1178507" data-name="Grupo 1178507" transform="translate(131.688 201.016)">
                <path id="Trazado_996427" data-name="Trazado 996427" d="M1086.662,1738.543c4.627-.786,8.123-4.393,11.8-7.345q.045-2.874-.187-5.744c-.7.153-2.031,1.949-5.12,1.94.115-1.446.144-3.118-.942-4.08-.922-.817-2.295-.789-3.525-.715a1.944,1.944,0,0,0-.905.2,2.022,2.022,0,0,0-.529.549,26.333,26.333,0,0,1-9.585,7.872,15.235,15.235,0,0,0-3.818,2.173,4.146,4.146,0,0,0-1.43,3.063,39.321,39.321,0,0,0,10.041,2.167A16.917,16.917,0,0,0,1086.662,1738.543Z" transform="translate(-1072.425 -1722.564)" fill="#c27d56"/>
                <path id="Trazado_996428" data-name="Trazado 996428" d="M1086.672,1783.029a16.909,16.909,0,0,1-4.195.083,39.323,39.323,0,0,1-10.041-2.167,2.678,2.678,0,0,0,.181.89,24.109,24.109,0,0,0,5.176,1.67c4.133.739,8.619,1.183,12.33-.779,2.234-1.181,4.169-3.213,6.474-3.994a2.722,2.722,0,0,0,1.869-2.5c0-.183.007-.366.01-.549C1094.794,1778.635,1091.3,1782.244,1086.672,1783.029Z" transform="translate(-1072.434 -1767.05)" fill="#fff"/>
              </g>
            </g>
            <g id="Grupo_1178509" data-name="Grupo 1178509" transform="translate(62.508 155.085)">
              <path id="Trazado_996429" data-name="Trazado 996429" d="M652.433,1415.632l-4-18.122a49.377,49.377,0,0,1-1.614-11.689c.052-2.29.764-5,2.938-5.722,1.815-.6,3.736.521,5.178,1.776a22.433,22.433,0,0,1,6.083,8.587c-.514,1.324-1.053,2.815-1.567,4.14a21.918,21.918,0,0,0-5.957-11.409,3.6,3.6,0,0,0-1.509-1.039,2.613,2.613,0,0,0-2.8,1.386,6.363,6.363,0,0,0-.6,3.266c.08,4.8,1.537,9.464,2.981,14.046l2.6,8.256Z" transform="translate(-646.814 -1367.692)" fill="#ff966c"/>
              <path id="Trazado_996430" data-name="Trazado 996430" d="M765.1,1415.632l4-18.122a49.364,49.364,0,0,0,1.614-11.689c-.052-2.29-.764-5-2.938-5.722-1.815-.6-3.736.521-5.178,1.776a22.432,22.432,0,0,0-6.083,8.587c.514,1.324,1.053,2.815,1.567,4.14a21.919,21.919,0,0,1,5.957-11.409,3.6,3.6,0,0,1,1.509-1.039,2.614,2.614,0,0,1,2.8,1.386,6.364,6.364,0,0,1,.6,3.266c-.08,4.8-1.537,9.464-2.981,14.046l-2.6,8.256Z" transform="translate(-738.679 -1367.692)" fill="#ff966c"/>
              <path id="Trazado_996431" data-name="Trazado 996431" d="M715.39,1422.36a22.322,22.322,0,0,0-2.314-4.34l-1.338,2.4a21.788,21.788,0,0,1,2.085,6.08C714.337,1425.175,714.875,1423.685,715.39,1422.36Z" transform="translate(-701.184 -1399.59)" fill="#c27d56"/>
              <path id="Trazado_996432" data-name="Trazado 996432" d="M667.685,1523.647l1.735-6.524-2.588-8.212-1.807,2.685Z" transform="translate(-662.066 -1475.707)" fill="#c27d56"/>
              <path id="Trazado_996433" data-name="Trazado 996433" d="M756.509,1422.486c.514,1.325,1.053,2.815,1.567,4.14a21.773,21.773,0,0,1,2.044-6l-1.314-2.457A22.289,22.289,0,0,0,756.509,1422.486Z" transform="translate(-738.679 -1399.716)" fill="#c27d56"/>
              <path id="Trazado_996434" data-name="Trazado 996434" d="M798.656,1517.767l1.735,6.524,2.567-11.632-1.753-2.98Z" transform="translate(-773.975 -1476.35)" fill="#c27d56"/>
              <path id="Trazado_996435" data-name="Trazado 996435" d="M691.987,1344.532c-1.086-3.921-3.6-7.254-5.729-10.723s-4.116-7.7-3.55-11.729v-13.422a1.455,1.455,0,0,1,.514-1.11l.413-.35a1.455,1.455,0,0,0-.941-2.565h-5.478a1.455,1.455,0,0,0-.941,2.565l.413.35a1.455,1.455,0,0,1,.514,1.11v13.422c.566,4.029-1.425,8.259-3.55,11.729s-4.643,6.8-5.73,10.723a26.6,26.6,0,0,0-.243,10.671c.4,2.968.982,5.91,1.6,8.841,1.58,7.48,3.17,13.927,5.3,21.27h10.754c2.127-7.343,3.716-13.79,5.3-21.27.619-2.931,1.2-5.873,1.6-8.841A26.592,26.592,0,0,0,691.987,1344.532Z" transform="translate(-663.938 -1304.633)" fill="#ff966c"/>
            </g>
            <g id="Grupo_1178510" data-name="Grupo 1178510" transform="translate(100.519 155.085)">
              <path id="Trazado_996436" data-name="Trazado 996436" d="M886.288,1415.632l-4-18.122a49.367,49.367,0,0,1-1.614-11.689c.052-2.29.764-5,2.938-5.722,1.815-.6,3.736.521,5.178,1.776a22.433,22.433,0,0,1,6.083,8.587c-.514,1.324-1.053,2.815-1.567,4.14a21.92,21.92,0,0,0-5.957-11.409,3.6,3.6,0,0,0-1.509-1.039,2.613,2.613,0,0,0-2.8,1.386,6.362,6.362,0,0,0-.6,3.266c.08,4.8,1.537,9.464,2.981,14.046l2.6,8.256Z" transform="translate(-880.669 -1367.692)" fill="#ff966c"/>
              <path id="Trazado_996437" data-name="Trazado 996437" d="M998.952,1415.632l4-18.122a49.38,49.38,0,0,0,1.614-11.689c-.052-2.29-.764-5-2.938-5.722-1.815-.6-3.736.521-5.178,1.776a22.432,22.432,0,0,0-6.083,8.587c.515,1.324,1.053,2.815,1.567,4.14a21.919,21.919,0,0,1,5.957-11.409,3.6,3.6,0,0,1,1.509-1.039,2.613,2.613,0,0,1,2.8,1.386,6.361,6.361,0,0,1,.6,3.266c-.08,4.8-1.537,9.464-2.981,14.046l-2.6,8.256Z" transform="translate(-972.535 -1367.692)" fill="#ff966c"/>
              <path id="Trazado_996438" data-name="Trazado 996438" d="M949.245,1422.36a22.325,22.325,0,0,0-2.314-4.34l-1.338,2.4a21.788,21.788,0,0,1,2.086,6.08C948.192,1425.175,948.73,1423.685,949.245,1422.36Z" transform="translate(-935.039 -1399.59)" fill="#c27d56"/>
              <path id="Trazado_996439" data-name="Trazado 996439" d="M901.54,1523.647l1.735-6.524-2.588-8.212-1.807,2.685Q900.211,1517.623,901.54,1523.647Z" transform="translate(-895.921 -1475.707)" fill="#c27d56"/>
              <path id="Trazado_996440" data-name="Trazado 996440" d="M990.364,1422.486c.514,1.325,1.053,2.815,1.567,4.14a21.773,21.773,0,0,1,2.044-6l-1.314-2.457A22.293,22.293,0,0,0,990.364,1422.486Z" transform="translate(-972.534 -1399.716)" fill="#c27d56"/>
              <path id="Trazado_996441" data-name="Trazado 996441" d="M1032.51,1517.767l1.735,6.524,2.567-11.632-1.753-2.98Q1033.784,1513.721,1032.51,1517.767Z" transform="translate(-1007.83 -1476.35)" fill="#c27d56"/>
              <path id="Trazado_996442" data-name="Trazado 996442" d="M925.844,1344.532c-1.086-3.921-3.6-7.254-5.729-10.723s-4.116-7.7-3.55-11.729v-13.422a1.455,1.455,0,0,1,.514-1.11l.413-.35a1.455,1.455,0,0,0-.941-2.565h-5.478a1.455,1.455,0,0,0-.941,2.565l.413.35a1.455,1.455,0,0,1,.514,1.11v13.422c.566,4.029-1.425,8.259-3.55,11.729s-4.643,6.8-5.729,10.723a26.6,26.6,0,0,0-.243,10.671c.4,2.968.982,5.91,1.6,8.841,1.58,7.48,3.17,13.927,5.3,21.27h10.754c2.127-7.343,3.716-13.79,5.3-21.27.619-2.931,1.2-5.873,1.6-8.841A26.623,26.623,0,0,0,925.844,1344.532Z" transform="translate(-897.793 -1304.633)" fill="#ff966c"/>
            </g>
            <path id="Trazado_996443" data-name="Trazado 996443" d="M494.958,1516.61a26.453,26.453,0,0,0-3.783-4.754,6.276,6.276,0,0,1-1.81-3.563c-.141-2.484,2.412-4.958,1.566-7.3H468.826c-.845,2.34,1.708,4.814,1.566,7.3a6.276,6.276,0,0,1-1.81,3.563,26.446,26.446,0,0,0-3.783,4.754c-1.3,2.5-1.357,5.448-1.162,8.257.593,8.579,3.845,17.521,8.277,24.891h15.929c4.432-7.37,7.683-16.312,8.277-24.891C496.314,1522.058,496.262,1519.106,494.958,1516.61Z" transform="translate(-430.833 -1335.993)" fill="#ff966c"/>
            <path id="Trazado_996444" data-name="Trazado 996444" d="M1406.457,1663.942a5.309,5.309,0,0,0-4.625-2.27,5.244,5.244,0,0,0-1.734.408v-1.744H1362.93v1.744a5.25,5.25,0,0,0-1.734-.408,5.309,5.309,0,0,0-4.625,2.27,6.511,6.511,0,0,0-.154,6.463,9.055,9.055,0,0,0,5.111,4.55,8.963,8.963,0,0,0,2.966.5,9.119,9.119,0,0,0,1.8-.182,18.561,18.561,0,0,0,15.225,7.926h0a18.561,18.561,0,0,0,15.225-7.926,9.121,9.121,0,0,0,1.8.182,8.966,8.966,0,0,0,8.076-5.051A6.508,6.508,0,0,0,1406.457,1663.942Zm-44.229,9.018a6.928,6.928,0,0,1-3.91-3.481,4.474,4.474,0,0,1,0-4.353,3.2,3.2,0,0,1,2.753-1.346,3.268,3.268,0,0,1,1.856.743v.092a18.5,18.5,0,0,0,2.16,8.7A6.871,6.871,0,0,1,1362.228,1672.96Zm42.484-3.48a6.855,6.855,0,0,1-6.773,3.837,18.5,18.5,0,0,0,2.16-8.7v-.092a3.266,3.266,0,0,1,1.856-.743,3.2,3.2,0,0,1,2.753,1.346A4.469,4.469,0,0,1,1404.711,1669.48Z" transform="translate(-1177.918 -1469.434)" fill="#ff966c"/>
          </g>
        </g>
      </g>
    </g>
  </g>
</svg>
