<svg xmlns="http://www.w3.org/2000/svg" width="169.706" height="169.705" viewBox="0 0 169.706 169.705">
  <g id="Grupo_1181046" data-name="Grupo 1181046" transform="translate(-1065.98 -3369.146)">
    <rect id="Rect치ngulo_402033" data-name="Rect치ngulo 402033" width="120" height="120" rx="30" transform="translate(1065.98 3453.999) rotate(-45)" fill="#ffd600"/>
    <rect id="Rect치ngulo_454167" data-name="Rect치ngulo 454167" width="100" height="100" rx="50" transform="translate(1100.833 3403.999)" fill="#c8bf57"/>
    <g id="layer2" transform="translate(1115.422 3418.588)">
      <path id="path6751" d="M64.742,5.821a3.481,3.481,0,0,1,3.488,3.488v38.37a3.481,3.481,0,0,1-3.488,3.488H4.862A4.113,4.113,0,0,1,.821,47.389C.817,32.2.794,20.936.794,5.821" transform="translate(0.9 17.963)" fill="#e4eff8"/>
      <path id="path6753" d="M68.024,47.567a3.481,3.481,0,0,1-3.488,3.488H4.655a4.251,4.251,0,0,1-3.8-2.63,3.873,3.873,0,0,0,1.474.3H62.21A3.481,3.481,0,0,0,65.7,45.242V6.855a3.459,3.459,0,0,0-.161-1,3.47,3.47,0,0,1,2.487,3.327Z" transform="translate(1.107 18.075)" fill="#c4dcf0"/>
      <path id="path6755" d="M.794,8.62a4.651,4.651,0,0,1,9.3,0V45.827a3.481,3.481,0,0,1-3.488,3.488H4.863a4.061,4.061,0,0,0-4.07,4.07Z" transform="translate(0.898 11.676)" fill="#549ad4"/>
      <path id="path6757" d="M10.1,45.514A3.481,3.481,0,0,1,6.607,49H4.863a4.061,4.061,0,0,0-4.07,4.07V47.078a4.05,4.05,0,0,1,1.744-.4H4.282A3.481,3.481,0,0,0,7.77,43.188V5.971a4.639,4.639,0,0,0-.416-1.91A4.634,4.634,0,0,1,10.1,8.3Z" transform="translate(0.898 11.99)" fill="#3588cb"/>
      <path id="path6759" d="M14.441,12.909a2.325,2.325,0,1,1-2.325-2.325A2.325,2.325,0,0,1,14.441,12.909Z" transform="translate(31.435 34.13)" fill="#ff5151"/>
      <path id="path6761" d="M31.874,14.747A13.953,13.953,0,1,1,17.922.794,13.953,13.953,0,0,1,31.874,14.747Z" transform="translate(11.676 0.898)" fill="#ffca28"/>
      <path id="path6763" d="M15.58.794A13.953,13.953,0,0,0,4.659,6.087,13.94,13.94,0,0,1,24.175,25.731,13.949,13.949,0,0,0,15.58.794Z" transform="translate(14.018 0.898)" fill="#ecb200"/>
      <path id="path6765" d="M11.266,10.792A2.325,2.325,0,1,1,8.94,8.467,2.325,2.325,0,0,1,11.266,10.792Z" transform="translate(20.658 26.945)" fill="#ff5151"/>
      <path id="path6767" d="M13.863,7.408h4.651a1.16,1.16,0,0,1,1.163,1.163v3.488a1.16,1.16,0,0,1-1.163,1.163H13.863A1.16,1.16,0,0,1,12.7,12.059V8.571A1.16,1.16,0,0,1,13.863,7.408Z" transform="translate(41.315 23.352)" fill="#549ad4"/>
      <path id="path6769" d="M13.863,7.408A1.16,1.16,0,0,0,12.7,8.571v3.488a1.16,1.16,0,0,0,1.163,1.163h4.651a1.16,1.16,0,0,0,1.163-1.163V10.9H16.188a1.16,1.16,0,0,1-1.163-1.163V7.408Z" transform="translate(41.315 23.352)" fill="#3588cb"/>
      <path id="path6771" d="M13.494,2.618,25.121,8.432,13.494,13.083" transform="translate(44.01 7.09)" fill="#ff5151"/>
      <g id="Grupo_1181626" data-name="Grupo 1181626" transform="translate(27.272 9.708)">
        <path id="path6773" d="M13.494,2.618V13.083l2.325-.931V3.781Z" transform="translate(16.738 -2.618)" fill="#ff2929"/>
        <path id="path6775" d="M11.361,10.614A2.321,2.321,0,1,0,14.4,13.249a2.31,2.31,0,0,1-3.034-2.634Z" transform="translate(4.163 24.526)" fill="#ff2929"/>
        <path id="path6777" d="M8.186,8.5a2.321,2.321,0,1,0,3.034,2.634A2.31,2.31,0,0,1,8.186,8.5Z" transform="translate(-6.615 17.341)" fill="#ff2929"/>
      </g>
      <path id="path6779" d="M14.482,15.645a15,15,0,0,0,1.71,6.979H12.161V20.3a5.816,5.816,0,0,0-11.632,0V65.059a5.224,5.224,0,0,0,5.237,5.235H65.642a4.649,4.649,0,0,0,4.651-4.651V27.274a4.64,4.64,0,0,0-4.651-4.651H58.664V20.959l10.9-4.36a1.163,1.163,0,0,0,.086-2.112l-10.987-5.5V8.666a1.163,1.163,0,1,0-2.325,0V22.623H43a15.112,15.112,0,1,0-28.514-6.979ZM57.487.529a1.163,1.163,0,0,0-1.149,1.176V2.873a1.163,1.163,0,0,0,2.325,0V1.706A1.162,1.162,0,0,0,57.487.529ZM29.6,2.857A12.788,12.788,0,1,1,16.807,15.645,12.792,12.792,0,0,1,29.6,2.857Zm21.6,2.375.822.824A1.165,1.165,0,0,0,53.677,4.41l-.824-.824a1.107,1.107,0,0,0-.812-.339A1.161,1.161,0,0,0,51.206,5.232Zm10.96-1.646-.824.824A1.165,1.165,0,0,0,62.99,6.057l.824-.824a1.165,1.165,0,0,0-.863-1.985,1.117,1.117,0,0,0-.786.338ZM28.433,7.508v8.137a1.163,1.163,0,0,0,.345.824l3.484,3.484a1.163,1.163,0,0,0,1.649-1.64l-3.15-3.15V7.508a1.164,1.164,0,0,0-2.328,0Zm30.231,4.085,7.63,3.811-7.63,3.052ZM6.341,16.8a3.491,3.491,0,0,1,3.493,3.5V57.506a2.327,2.327,0,0,1-2.325,2.325H5.766a5.226,5.226,0,0,0-2.909.87V20.3a3.483,3.483,0,0,1,3.484-3.5Zm5.821,8.146h5.523a15.119,15.119,0,0,0,23.829,0H56.338V29.6H55.18a2.319,2.319,0,0,0-2.328,2.325v3.484a1.155,1.155,0,0,0-.12,0,1.167,1.167,0,0,0,.12,2.328h2.262l-9.188,6.747a3.48,3.48,0,0,0-4.7-.052L33,38.5a3.411,3.411,0,0,0,.089-.756,3.489,3.489,0,1,0-6.979,0,3.381,3.381,0,0,0,.125.863l-11.3,8.68a1.163,1.163,0,1,0,1.426,1.837l11.164-8.58a3.5,3.5,0,0,0,4.238-.064l8.346,6.016a3.808,3.808,0,0,0-.04.552,3.489,3.489,0,0,0,6.979,0,3.262,3.262,0,0,0-.035-.466l12.034-8.839h3.114a1.164,1.164,0,0,0,0-2.328V31.928A2.329,2.329,0,0,0,59.832,29.6H58.664V24.949h6.979a2.312,2.312,0,0,1,2.325,2.325V65.642a2.318,2.318,0,0,1-2.325,2.325H5.767a2.906,2.906,0,1,1,0-5.811H7.508a4.652,4.652,0,0,0,4.653-4.651Zm29.062,6.97A1.169,1.169,0,0,0,40.4,33.91l.924.92-.924.924a1.163,1.163,0,0,0,1.649,1.64l.92-.92.924.92a1.159,1.159,0,1,0,1.64-1.64l-.92-.924.92-.92a1.162,1.162,0,0,0-.831-1.992,1.175,1.175,0,0,0-.808.343l-.924.924-.92-.924a1.133,1.133,0,0,0-.824-.343Zm13.957.009h4.651v3.484H55.18ZM29.6,36.57a1.167,1.167,0,0,1,1.158,1.17A1.155,1.155,0,0,1,29.6,38.9a1.164,1.164,0,1,1,0-2.328Zm29.071,6.979a1.161,1.161,0,0,0-.833,1.983l.924.924-.924.922a1.166,1.166,0,1,0,1.649,1.649l.92-.924.924.924a1.163,1.163,0,0,0,1.64-1.649l-.913-.922.922-.924a1.162,1.162,0,0,0-.858-1.983,1.132,1.132,0,0,0-.79.343l-.924.922-.92-.922a1.113,1.113,0,0,0-.815-.343ZM43.548,45.874a1.164,1.164,0,1,1-1.158,1.17A1.166,1.166,0,0,1,43.548,45.874Zm-22.1,4.644a1.162,1.162,0,0,0-.636.2l-3.484,2.325a1.165,1.165,0,1,0,1.288,1.942l2.841-1.9,2.85,1.9a1.163,1.163,0,0,0,1.285,0l2.841-1.9,2.843,1.9a1.163,1.163,0,0,0,1.294,0l2.841-1.9,2.841,1.9a1.165,1.165,0,1,0,1.288-1.942l-3.484-2.325a1.163,1.163,0,0,0-1.288,0l-2.841,1.9-2.85-1.9a1.163,1.163,0,0,0-1.288,0l-2.841,1.9-2.85-1.9a1.163,1.163,0,0,0-.652-.2Zm29.08,4.66a1.163,1.163,0,1,0,0,2.325H51.69a1.163,1.163,0,1,0,0-2.325Zm5.814,0a1.163,1.163,0,1,0,0,2.325H57.5a1.163,1.163,0,1,0,0-2.325Zm5.814,0a1.163,1.163,0,1,0,0,2.325h1.163a1.163,1.163,0,1,0,0-2.325Zm-40.707,1.16a1.162,1.162,0,0,0-.636.2l-3.484,2.316a1.164,1.164,0,1,0,1.288,1.939l2.841-1.9,2.85,1.9a1.163,1.163,0,0,0,1.285,0l2.841-1.9,2.843,1.9a1.163,1.163,0,0,0,1.294,0l2.841-1.9,2.841,1.9a1.164,1.164,0,1,0,1.288-1.939l-3.484-2.316a1.163,1.163,0,0,0-1.288,0l-2.841,1.887-2.85-1.887a1.163,1.163,0,0,0-1.288,0l-2.841,1.887L22.1,56.536a1.163,1.163,0,0,0-.652-.2Z" transform="translate(0 0)"/>
    </g>
  </g>
</svg>
