<svg xmlns="http://www.w3.org/2000/svg" xmlns:xlink="http://www.w3.org/1999/xlink" width="188.891" height="258.5" viewBox="0 0 188.891 258.5">
  <defs>
    <clipPath id="clip-path">
      <rect id="Rectángulo_455811" data-name="Rectángulo 455811" width="188.891" height="258.5" transform="translate(0 0)" fill="none"/>
    </clipPath>
  </defs>
  <g id="Grupo_1181855" data-name="Grupo 1181855" transform="translate(0 0.002)">
    <g id="Grupo_1181854" data-name="Grupo 1181854" transform="translate(0 -0.002)" clip-path="url(#clip-path)">
      <path id="Trazado_1015089" data-name="Trazado 1015089" d="M71.082,626.8c-17.708-2.865-35.358-8.813-49.155-20.278S-1.305,577.433.147,559.554s15.485-34.866,33.322-36.76c11.3-1.2,22.471,3.333,33.837,3.349,17.7.025,33.659-10.755,51.175-13.306,25.881-3.769,53.236,13.273,61.263,38.164,8.056,24.985-3.881,49.149-23.3,64.643-21.059,16.8-60.033,15.254-85.363,11.155" transform="translate(0 -415.168)" fill="#d8e5f3"/>
      <path id="Trazado_1015090" data-name="Trazado 1015090" d="M656.008,758.11a.366.366,0,0,1-.127.012l-16.748-1.305a.373.373,0,0,1-.343-.4l.758-9.728a.373.373,0,0,1,.4-.343l16.749,1.305a.373.373,0,0,1,.343.4l-.758,9.728a.373.373,0,0,1-.274.331M639.562,756.1l16,1.247.7-8.985-16-1.247Z" transform="translate(-517.659 -604.819)"/>
      <rect id="Rectángulo_455797" data-name="Rectángulo 455797" width="9.758" height="16.799" transform="matrix(0.166, -0.986, 0.986, 0.166, 141.562, 153.499)" fill="#f57a3e"/>
      <path id="Trazado_1015091" data-name="Trazado 1015091" d="M542.285,794.495a.372.372,0,0,1-.244-.017l-12.654-5.4a3.415,3.415,0,0,1-1.8-4.482l2.635-6.177a.373.373,0,0,1,.49-.2l15.452,6.593a.373.373,0,0,1,.2.49l-3.829,8.975a.372.372,0,0,1-.245.214m-11.524-15.438-2.489,5.834a2.668,2.668,0,0,0,1.408,3.5l12.31,5.252,3.537-8.289Z" transform="translate(-427.32 -630.63)"/>
      <path id="Trazado_1015092" data-name="Trazado 1015092" d="M544.473,780.161,556.1,795.729l3.829-8.975Z" transform="translate(-441.228 -632.225)" fill="#d8e5f3"/>
      <path id="Trazado_1015093" data-name="Trazado 1015093" d="M554.6,794.5a.391.391,0,0,1-.054.011.372.372,0,0,1-.343-.147L542.58,778.791a.373.373,0,0,1,.445-.566l15.452,6.593a.373.373,0,0,1,.2.49l-3.829,8.975a.372.372,0,0,1-.245.213m-10.593-15.041,10.406,13.939,3.429-8.036Z" transform="translate(-439.634 -630.631)"/>
      <path id="Trazado_1015094" data-name="Trazado 1015094" d="M668.056,820.93a.373.373,0,0,1-.4-.144l-3.688-5.186a.373.373,0,0,1,.608-.432l3.688,5.186a.373.373,0,0,1-.088.52.366.366,0,0,1-.118.056" transform="translate(-538.006 -660.465)" fill="#f57a3e"/>
      <path id="Trazado_1015095" data-name="Trazado 1015095" d="M660.417,823.383a.373.373,0,0,1-.314-.664l5.186-3.688a.373.373,0,1,1,.432.608l-5.186,3.688a.366.366,0,0,1-.118.056" transform="translate(-534.805 -663.667)" fill="#f57a3e"/>
      <path id="Trazado_1015096" data-name="Trazado 1015096" d="M563.344,678.056a.372.372,0,0,1-.2,0l-16.125-4.714a.373.373,0,0,1-.254-.463l1.884-6.446a3.415,3.415,0,0,1,4.236-2.32l13.2,3.86a.373.373,0,0,1,.254.463L563.6,677.8a.373.373,0,0,1-.26.256m-15.76-5.327,15.408,4.5,2.529-8.65-12.847-3.755a2.669,2.669,0,0,0-3.31,1.813Z" transform="translate(-443.073 -538.068)"/>
      <path id="Trazado_1015097" data-name="Trazado 1015097" d="M585.722,694.7a.371.371,0,0,1-.2,0l-7.146-2.089a.373.373,0,0,1,.209-.716l7.146,2.089a.373.373,0,0,1-.007.718" transform="translate(-468.483 -560.68)"/>
      <rect id="Rectángulo_455798" data-name="Rectángulo 455798" width="9.758" height="16.799" transform="matrix(0.392, -0.92, 0.92, 0.392, 122.929, 134.894)" fill="#d8e5f3"/>
      <rect id="Rectángulo_455799" data-name="Rectángulo 455799" width="4.243" height="4.243" transform="translate(129.905 135.007) rotate(-66.893)" fill="#fff"/>
      <path id="Trazado_1015098" data-name="Trazado 1015098" d="M777.891,700.151a.365.365,0,0,1-.1.013l-16.8.108a.373.373,0,0,1-.375-.371l-.063-9.758a.373.373,0,0,1,.371-.375l13.757-.088a3.419,3.419,0,0,1,3.437,3.393l.043,6.716a.373.373,0,0,1-.275.362m-16.527-.628,16.053-.1-.041-6.343a2.672,2.672,0,0,0-2.686-2.652l-13.384.086Z" transform="translate(-616.339 -558.9)"/>
      <path id="Trazado_1015099" data-name="Trazado 1015099" d="M801.327,710.158a1.729,1.729,0,1,0-1.718,1.74,1.729,1.729,0,0,0,1.718-1.74" transform="translate(-646.575 -574.104)" fill="#f57a3e"/>
      <rect id="Rectángulo_455800" data-name="Rectángulo 455800" width="3.002" height="9.606" transform="matrix(0.166, -0.986, 0.986, 0.166, 145.671, 150.767)" fill="#fff"/>
      <path id="Trazado_1015100" data-name="Trazado 1015100" d="M737.972,830.549a3.4,3.4,0,0,1-1.866-.022l-13.187-3.92a.373.373,0,0,1-.251-.464l2.781-9.353a.373.373,0,0,1,.464-.251l16.1,4.787a.373.373,0,0,1,.251.464l-1.913,6.438a3.417,3.417,0,0,1-2.381,2.323M723.49,826l12.829,3.814a2.669,2.669,0,0,0,3.319-1.8l1.807-6.08-15.388-4.574Z" transform="translate(-585.621 -661.691)"/>
      <path id="Trazado_1015101" data-name="Trazado 1015101" d="M759.527,850.56a.371.371,0,0,1-.2,0l-7.482-2.224a.373.373,0,0,1,.213-.715l7.482,2.224a.373.373,0,0,1-.009.718" transform="translate(-609.059 -686.878)"/>
      <path id="Trazado_1015102" data-name="Trazado 1015102" d="M541.924,719.562l7.033-.346a4.879,4.879,0,0,1,5.113,4.634h0a4.879,4.879,0,0,1-4.634,5.113l-7.033.346a4.879,4.879,0,0,1-.479-9.746" transform="translate(-435.403 -582.831)" fill="#8abae7"/>
      <path id="Trazado_1015103" data-name="Trazado 1015103" d="M337.783,383.965a2.867,2.867,0,0,1-2.489-1.437l-2.611-4.545a2.865,2.865,0,0,1,1.057-3.911l10.006-5.749a2.868,2.868,0,0,1,3.911,1.057l2.611,4.545a2.865,2.865,0,0,1-1.057,3.911l-10.006,5.749a2.846,2.846,0,0,1-1.422.38m7.386-15.277a2.1,2.1,0,0,0-1.052.281l-10.006,5.749a2.118,2.118,0,0,0-.781,2.892l2.612,4.545a2.121,2.121,0,0,0,2.892.781l10.006-5.749a2.119,2.119,0,0,0,.781-2.892l-2.611-4.545a2.12,2.12,0,0,0-1.84-1.063" transform="translate(-269.289 -298.172)"/>
      <path id="Trazado_1015104" data-name="Trazado 1015104" d="M353.43,394.73a.373.373,0,0,1-.186-.7l8.338-4.791a.373.373,0,0,1,.372.647l-8.338,4.791a.37.37,0,0,1-.185.049" transform="translate(-286.109 -315.392)"/>
      <path id="Trazado_1015105" data-name="Trazado 1015105" d="M360.779,420.852a.373.373,0,0,1-.186-.7l2.909-1.671a.373.373,0,1,1,.371.647l-2.909,1.672a.372.372,0,0,1-.185.049" transform="translate(-292.064 -339.089)"/>
      <path id="Trazado_1015106" data-name="Trazado 1015106" d="M636.949,258.419a2.3,2.3,0,0,1-2-1.152l-2.093-3.643a2.3,2.3,0,0,1,.847-3.135l8.021-4.608a2.3,2.3,0,0,1,3.135.847l2.093,3.643a2.3,2.3,0,0,1-.847,3.135l-8.021,4.608a2.282,2.282,0,0,1-1.14.3m5.921-12.246a1.688,1.688,0,0,0-.843.225l-8.021,4.608a1.7,1.7,0,0,0-.626,2.319l2.093,3.643a1.7,1.7,0,0,0,2.319.626l8.021-4.608a1.7,1.7,0,0,0,.626-2.319l-2.093-3.644a1.7,1.7,0,0,0-1.475-.852" transform="translate(-512.608 -199.008)"/>
      <path id="Trazado_1015107" data-name="Trazado 1015107" d="M649.491,267.048a.3.3,0,0,1-.149-.558l6.684-3.84a.3.3,0,0,1,.3.519l-6.684,3.84a.3.3,0,0,1-.149.04" transform="translate(-526.09 -212.813)"/>
      <path id="Trazado_1015108" data-name="Trazado 1015108" d="M655.383,287.988a.3.3,0,0,1-.149-.558l2.332-1.34a.3.3,0,0,1,.3.519l-2.332,1.34a.3.3,0,0,1-.149.04" transform="translate(-530.864 -231.808)"/>
      <path id="Trazado_1015109" data-name="Trazado 1015109" d="M172.548,603.193c14.067-9.079,24.391-28.714,24.391-28.714l5.508,4.065s-7.079,27.761-23.736,33.833c-11.365,4.143-10.118-6.632-6.163-9.185" transform="translate(-137.547 -465.544)" fill="#fff"/>
      <path id="Trazado_1015110" data-name="Trazado 1015110" d="M172.594,612.1c-2.673,0-3.843-1.325-4.345-2.336-1.394-2.8.193-7,2.472-8.475,13.821-8.92,24.161-28.378,24.263-28.574a.373.373,0,0,1,.552-.127l5.508,4.065a.373.373,0,0,1,.14.392c-.071.28-7.32,28.022-23.969,34.091a13.7,13.7,0,0,1-4.62.962m-1.671-10.5.2.313c-1.984,1.28-3.421,5.076-2.208,7.516,1.068,2.149,3.924,2.506,8.042,1.005,15.459-5.635,22.688-30.6,23.437-33.333l-4.958-3.66c-1.533,2.791-11.408,20.143-24.313,28.472Z" transform="translate(-135.921 -463.95)"/>
      <path id="Trazado_1015111" data-name="Trazado 1015111" d="M313.145,425.678h-97.5a2.985,2.985,0,0,0-2.452,4.686l42.526,61.294v19.15l17.353,6.032V491.657L315.6,430.364a2.984,2.984,0,0,0-2.452-4.686" transform="translate(-172.33 -344.959)" fill="#8abae7"/>
      <path id="Trazado_1015112" data-name="Trazado 1015112" d="M271.461,515.618a.375.375,0,0,1-.122-.021l-17.353-6.032a.373.373,0,0,1-.251-.352V490.18l-42.459-61.2a3.357,3.357,0,0,1,2.759-5.271h97.5a3.357,3.357,0,0,1,2.759,5.271l-42.46,61.2v25.065a.373.373,0,0,1-.373.373m-16.98-6.671,16.607,5.773V490.063a.371.371,0,0,1,.067-.213l42.526-61.294a2.612,2.612,0,0,0-2.146-4.1h-97.5a2.611,2.611,0,0,0-2.146,4.1l42.526,61.294a.371.371,0,0,1,.067.213Z" transform="translate(-170.72 -343.365)"/>
      <path id="Trazado_1015113" data-name="Trazado 1015113" d="M317.535,581.406a.746.746,0,0,1-.746-.746V564.151L284.358,516.9a.746.746,0,0,1,1.23-.844L318.15,563.5a.746.746,0,0,1,.131.422v16.74a.746.746,0,0,1-.746.746" transform="translate(-230.331 -417.934)" fill="#fff"/>
      <path id="Trazado_1015114" data-name="Trazado 1015114" d="M254.653,473.04a.745.745,0,0,1-.616-.324l-3.974-5.79a.746.746,0,1,1,1.23-.844l3.974,5.79a.746.746,0,0,1-.614,1.168" transform="translate(-202.54 -377.439)" fill="#fff"/>
      <path id="Trazado_1015115" data-name="Trazado 1015115" d="M420.749,489.327a19.633,19.633,0,1,0-19.633,19.633,19.633,19.633,0,0,0,19.633-19.633" transform="translate(-309.145 -380.629)" fill="#d8e5f3"/>
      <path id="Trazado_1015116" data-name="Trazado 1015116" d="M399.521,507.738a20.006,20.006,0,1,1,20.006-20.006,20.029,20.029,0,0,1-20.006,20.006m0-39.266a19.26,19.26,0,1,0,19.26,19.26,19.282,19.282,0,0,0-19.26-19.26" transform="translate(-307.55 -379.034)"/>
      <path id="Trazado_1015117" data-name="Trazado 1015117" d="M458.034,511.588a8.243,8.243,0,0,0-8.493-8.239,8.328,8.328,0,0,0-7.985,7.873,8.208,8.208,0,0,0,2.711,6.477,7.444,7.444,0,0,1,2.508,5.515v.438h6.032v-.434a7.611,7.611,0,0,1,2.568-5.574,8.2,8.2,0,0,0,2.659-6.056" transform="translate(-357.82 -407.899)" fill="#fff"/>
      <path id="Trazado_1015118" data-name="Trazado 1015118" d="M451.213,522.431h-6.032a.373.373,0,0,1-.373-.373v-.438a7.1,7.1,0,0,0-2.384-5.238,8.589,8.589,0,0,1-2.834-6.771,8.749,8.749,0,0,1,8.346-8.23,8.611,8.611,0,0,1,6.1,14.943,7.2,7.2,0,0,0-2.447,5.3v.434a.373.373,0,0,1-.373.373m-5.659-.746h5.286v-.061a7.934,7.934,0,0,1,2.688-5.848,7.866,7.866,0,0,0-5.57-13.648,7.991,7.991,0,0,0-7.623,7.516,7.845,7.845,0,0,0,2.589,6.184,7.845,7.845,0,0,1,2.63,5.792Z" transform="translate(-356.226 -406.304)"/>
      <path id="Trazado_1015119" data-name="Trazado 1015119" d="M473.161,612.134h-5.034a.847.847,0,0,1,0-1.694h5.034a.847.847,0,0,1,0,1.694" transform="translate(-378.673 -494.686)" fill="#8abae7"/>
      <path id="Trazado_1015120" data-name="Trazado 1015120" d="M471.567,610.912h-5.034a1.22,1.22,0,0,1,0-2.44h5.034a1.22,1.22,0,1,1,0,2.44m-5.034-1.694a.474.474,0,1,0,0,.948h5.034a.474.474,0,1,0,0-.948Z" transform="translate(-377.079 -493.091)"/>
      <path id="Trazado_1015121" data-name="Trazado 1015121" d="M473.161,621.066h-5.034a.847.847,0,0,1,0-1.694h5.034a.847.847,0,0,1,0,1.694" transform="translate(-378.673 -501.924)" fill="#8abae7"/>
      <path id="Trazado_1015122" data-name="Trazado 1015122" d="M471.567,619.845h-5.034a1.22,1.22,0,0,1,0-2.44h5.034a1.22,1.22,0,1,1,0,2.44m-5.034-1.694a.474.474,0,1,0,0,.948h5.034a.474.474,0,1,0,0-.948Z" transform="translate(-377.079 -500.33)"/>
      <path id="Trazado_1015123" data-name="Trazado 1015123" d="M480.174,632.354a1.48,1.48,0,1,0-1.48,1.48,1.48,1.48,0,0,0,1.48-1.48" transform="translate(-386.723 -511.245)" fill="#8abae7"/>
      <path id="Trazado_1015124" data-name="Trazado 1015124" d="M477.1,632.612a1.853,1.853,0,1,1,1.853-1.853,1.855,1.855,0,0,1-1.853,1.853m0-2.96a1.107,1.107,0,1,0,1.107,1.107,1.108,1.108,0,0,0-1.107-1.107" transform="translate(-385.128 -509.651)"/>
      <path id="Trazado_1015125" data-name="Trazado 1015125" d="M473.161,630h-5.034a.847.847,0,0,1,0-1.694h5.034a.847.847,0,0,1,0,1.694" transform="translate(-378.673 -509.164)" fill="#8abae7"/>
      <path id="Trazado_1015126" data-name="Trazado 1015126" d="M471.567,628.778h-5.034a1.22,1.22,0,0,1,0-2.44h5.034a1.22,1.22,0,0,1,0,2.44m-5.034-1.694a.474.474,0,1,0,0,.948h5.034a.474.474,0,1,0,0-.948Z" transform="translate(-377.079 -507.57)"/>
      <path id="Trazado_1015127" data-name="Trazado 1015127" d="M465.3,519.579l-1,1.06c-.006.542-.01.868-.017,1.41l.978,1.084-.86,1.731-1.454-.124-1.113.866-.238,1.44-1.889.407-.81-1.214-1.371-.331-1.274.712-1.5-1.223.444-1.39-.6-1.278-1.351-.552c.011-.942.012-.99.023-1.932l1.364-.519.627-1.263-.41-1.4,1.525-1.186,1.256.743,1.378-.3.839-1.194,1.878.453.2,1.445,1.092.892,1.457-.088.817,1.751m-3.47,1.71a2.555,2.555,0,1,0-2.555,2.555,2.555,2.555,0,0,0,2.555-2.555" transform="translate(-367.299 -417.446)" fill="#8abae7"/>
      <rect id="Rectángulo_455801" data-name="Rectángulo 455801" width="13.461" height="7.54" transform="translate(115.998 85.875)" fill="#d8e5f3"/>
      <path id="Trazado_1015128" data-name="Trazado 1015128" d="M623.6,502.123H610.134a.373.373,0,1,1,0-.746H623.6a.373.373,0,0,1,0,.746" transform="translate(-494.136 -406.304)"/>
      <path id="Trazado_1015129" data-name="Trazado 1015129" d="M664.36,464.171a.373.373,0,0,1-.373-.373v-4.859a.373.373,0,1,1,.746,0V463.8a.373.373,0,0,1-.373.373" transform="translate(-538.08 -371.611)"/>
      <path id="Trazado_1015130" data-name="Trazado 1015130" d="M644.346,464.171a.373.373,0,0,1-.373-.373v-4.859a.373.373,0,1,1,.746,0V463.8a.373.373,0,0,1-.373.373" transform="translate(-521.861 -371.611)"/>
      <path id="Trazado_1015131" data-name="Trazado 1015131" d="M624.332,464.171a.373.373,0,0,1-.373-.373v-4.859a.373.373,0,1,1,.746,0V463.8a.373.373,0,0,1-.373.373" transform="translate(-505.642 -371.611)"/>
      <path id="Trazado_1015132" data-name="Trazado 1015132" d="M662.612,468.39a1.021,1.021,0,1,0-1.021,1.021,1.021,1.021,0,0,0,1.021-1.021" transform="translate(-535.311 -378.745)" fill="#f57a3e"/>
      <path id="Trazado_1015133" data-name="Trazado 1015133" d="M642.6,476.412a1.021,1.021,0,1,0-1.021,1.021,1.021,1.021,0,0,0,1.021-1.021" transform="translate(-519.092 -385.246)" fill="#f57a3e"/>
      <path id="Trazado_1015134" data-name="Trazado 1015134" d="M622.462,461.556a1.021,1.021,0,1,0-1.021,1.021,1.021,1.021,0,0,0,1.021-1.021" transform="translate(-502.774 -373.207)" fill="#f57a3e"/>
      <path id="Trazado_1015135" data-name="Trazado 1015135" d="M227.5,438.571a1.188,1.188,0,1,0-1.188,1.188,1.188,1.188,0,0,0,1.188-1.188" transform="translate(-182.438 -354.445)" fill="#d8e5f3"/>
      <path id="Trazado_1015136" data-name="Trazado 1015136" d="M735.621,438.571a1.188,1.188,0,1,0-1.188,1.188,1.188,1.188,0,0,0,1.188-1.188" transform="translate(-594.204 -354.445)" fill="#d8e5f3"/>
      <path id="Trazado_1015137" data-name="Trazado 1015137" d="M580.985,307.43a2.73,2.73,0,1,1,2.73-2.73,2.733,2.733,0,0,1-2.73,2.73m0-4.714a1.984,1.984,0,1,0,1.984,1.984,1.986,1.986,0,0,0-1.984-1.984" transform="translate(-468.605 -244.709)" fill="#8abae7"/>
      <path id="Trazado_1015138" data-name="Trazado 1015138" d="M433.832,393.036a2.357,2.357,0,1,0-2.357,2.357,2.357,2.357,0,0,0,2.357-2.357" transform="translate(-347.747 -316.597)" fill="#f57a3e"/>
      <path id="Trazado_1015139" data-name="Trazado 1015139" d="M364.329,301.316a4.778,4.778,0,1,1,4.778-4.778,4.783,4.783,0,0,1-4.778,4.778m0-8.81a4.032,4.032,0,1,0,4.032,4.032,4.036,4.036,0,0,0-4.032-4.032" transform="translate(-291.372 -236.435)"/>
      <path id="Trazado_1015140" data-name="Trazado 1015140" d="M772.527,240l.1,3.071.1,3.071-2.71-1.448-2.711-1.448,2.609-1.623Z" transform="translate(-621.81 -194.489)" fill="#4666c9"/>
      <path id="Trazado_1015141" data-name="Trazado 1015141" d="M398.934,227.1a.373.373,0,0,1-.176-.044l-5.421-2.9a.373.373,0,0,1-.021-.646l5.218-3.247a.373.373,0,0,1,.57.3l.2,6.143a.373.373,0,0,1-.373.385m-4.675-3.294,4.281,2.287-.16-4.851Z" transform="translate(-318.592 -178.458)"/>
      <path id="Trazado_1015142" data-name="Trazado 1015142" d="M460.332,118.564a.373.373,0,0,1-.289-.136l-4.035-4.921a.373.373,0,0,1,.577-.473l4.035,4.921a.373.373,0,0,1-.288.61" transform="translate(-369.47 -91.488)"/>
      <path id="Trazado_1015143" data-name="Trazado 1015143" d="M453.96,120.014a.373.373,0,0,1-.237-.662l4.921-4.035a.373.373,0,0,1,.473.577L454.2,119.93a.371.371,0,0,1-.236.085" transform="translate(-367.576 -93.382)"/>
      <path id="Trazado_1015144" data-name="Trazado 1015144" d="M335.933,143.015a.371.371,0,0,1-.188-.051l-5.488-3.222a.373.373,0,1,1,.378-.643l5.488,3.222a.373.373,0,0,1-.189.695" transform="translate(-267.483 -112.681)"/>
      <path id="Trazado_1015145" data-name="Trazado 1015145" d="M336.422,139.3a.373.373,0,0,1-.321-.562l3.222-5.488a.373.373,0,1,1,.643.378l-3.221,5.488a.373.373,0,0,1-.322.184" transform="translate(-272.327 -107.837)"/>
      <path id="Trazado_1015146" data-name="Trazado 1015146" d="M578.027,241.594a.373.373,0,0,1-.358-.266l-.984-3.3-3.3.984a.373.373,0,0,1-.213-.715l3.658-1.091a.373.373,0,0,1,.464.251l.984,3.3,3.226-.962a.373.373,0,0,1,.213.715l-3.584,1.069a.371.371,0,0,1-.107.016" transform="translate(-464.269 -192.213)"/>
      <path id="Trazado_1015147" data-name="Trazado 1015147" d="M273.43,257.591a.377.377,0,0,1-.1-.013l-3.61-.975a.373.373,0,0,1-.263-.457l.9-3.325-3.325-.9a.373.373,0,1,1,.195-.72l3.685,1a.373.373,0,0,1,.263.457l-.9,3.325,3.25.878a.373.373,0,0,1-.1.733" transform="translate(-216.173 -203.557)" fill="#f57a3e"/>
      <path id="Trazado_1015148" data-name="Trazado 1015148" d="M628.269,174.516a.377.377,0,0,1-.1-.013l-3.61-.976a.373.373,0,0,1-.263-.457l.9-3.325-3.325-.9a.373.373,0,0,1,.195-.72l3.685,1a.373.373,0,0,1,.263.457l-.9,3.325,3.25.878a.373.373,0,0,1-.1.733" transform="translate(-503.727 -136.234)" fill="#f57a3e"/>
      <path id="Trazado_1015149" data-name="Trazado 1015149" d="M517.566,70.99a.373.373,0,0,1-.129-.723,5.541,5.541,0,0,0,3.934-4.457c.005-.034.01-.067.015-.1a12.74,12.74,0,0,1-2.4.263,3.955,3.955,0,0,1-3.445-1.449,2.572,2.572,0,0,1-.236-2.145,2.983,2.983,0,0,1,1.624-1.863,3.688,3.688,0,0,1,4.181,1.169,5.029,5.029,0,0,1,1.076,3.058,10.588,10.588,0,0,0,5.93-4.287,5.9,5.9,0,0,1-1.305-.333,4.685,4.685,0,0,1-3.114-4.583,3.707,3.707,0,0,1,1.678-2.679,3.094,3.094,0,0,1,2.672-.415,2.985,2.985,0,0,1,1.883,1.744c.764,1.838.023,4.314-.572,5.572a7.845,7.845,0,0,0,2.749-.691,10.307,10.307,0,0,0,5.6-11.619.373.373,0,0,1,.722-.188,11.079,11.079,0,0,1-6.02,12.49,8.466,8.466,0,0,1-3.454.764,11.307,11.307,0,0,1-6.8,5.008q-.019.2-.051.4a6.241,6.241,0,0,1-4.412,5.041.37.37,0,0,1-.13.023m.594-9.976a2.376,2.376,0,0,0-.938.185,2.231,2.231,0,0,0-1.205,1.4,1.808,1.808,0,0,0,.153,1.525c.651,1.023,2.177,1.116,2.8,1.1a12,12,0,0,0,2.467-.291,4.335,4.335,0,0,0-.909-2.777,3.147,3.147,0,0,0-2.372-1.143m9-7.966a2.547,2.547,0,0,0-1.382.436,2.946,2.946,0,0,0-1.342,2.121,3.981,3.981,0,0,0,2.638,3.819,5.238,5.238,0,0,0,1.451.325q.055-.106.108-.212c.708-1.435,1.2-3.631.6-5.062a2.239,2.239,0,0,0-1.431-1.324,2.026,2.026,0,0,0-.645-.1" transform="translate(-417.485 -38.073)" fill="#f57a3e"/>
      <path id="Trazado_1015150" data-name="Trazado 1015150" d="M525.327,162.791l-.8,1.6,1.6.8-1.019.338-1.6-.8.8-1.6Z" transform="translate(-424.237 -131.921)" fill="#f57a3e"/>
      <path id="Trazado_1015151" data-name="Trazado 1015151" d="M334.363,325.526a.408.408,0,0,1,.748.31c-.109.395-.218.791-.334,1.185a.408.408,0,1,1-.783-.23c.114-.39.222-.782.33-1.172a.41.41,0,0,1,.038-.093" transform="translate(-270.648 -263.631)" fill="#4666c9"/>
      <path id="Trazado_1015152" data-name="Trazado 1015152" d="M268.4,334.9q.036-.064.075-.127a.408.408,0,0,1,.693.431,2.385,2.385,0,0,0-.363,1.633,2.331,2.331,0,0,0,.124.473.408.408,0,0,1-.764.289,3.118,3.118,0,0,1,.233-2.7m2.465-1.787a.406.406,0,0,1,.272-.2,3.564,3.564,0,0,1,1.312-.035,4.1,4.1,0,0,1,1.361.483l.093.054a.4.4,0,0,1,.14.56.408.408,0,0,1-.56.141l-.075-.044a3.29,3.29,0,0,0-1.091-.388,2.753,2.753,0,0,0-1.012.029.408.408,0,0,1-.439-.6m-.54,6.126a.408.408,0,0,1,.5-.182,3.479,3.479,0,0,0,1.511.207,4.091,4.091,0,0,0,.762-.147.408.408,0,1,1,.228.784,4.936,4.936,0,0,1-.914.176,4.3,4.3,0,0,1-1.869-.253.408.408,0,0,1-.242-.524.4.4,0,0,1,.028-.06m-5.611,10.3a.407.407,0,0,1,.286-.2,13.3,13.3,0,0,0,2.408-.649.408.408,0,0,1,.286.765,14.142,14.142,0,0,1-2.556.689.408.408,0,0,1-.424-.6m10.517-13.7a.408.408,0,0,1,.733.046,5.447,5.447,0,0,1,.252.777l.067-.1a9.228,9.228,0,0,0,.519-.922.408.408,0,0,1,.732.361,10.294,10.294,0,0,1-.564,1,8.009,8.009,0,0,1-.606.824c0,.255,0,.514-.023.769a.408.408,0,0,1-.814-.057c.005-.078.01-.157.013-.237a.4.4,0,0,1-.106-.074.407.407,0,0,1-.011-.577l.11-.117a4.534,4.534,0,0,0-.325-1.337.407.407,0,0,1,.022-.356m-5.365,11.675a.4.4,0,0,1,.129-.139,13.163,13.163,0,0,0,1.935-1.572.408.408,0,1,1,.572.582,13.957,13.957,0,0,1-2.055,1.67.408.408,0,0,1-.581-.541m5.059-6.23a.408.408,0,0,1,.736.346,12.328,12.328,0,0,1-.8,1.692l0,0q-.193.341-.406.671a.408.408,0,1,1-.685-.443c.134-.208.244-.414.383-.633a11.507,11.507,0,0,0,.744-1.579.417.417,0,0,1,.027-.057" transform="translate(-214.476 -269.721)" fill="#4666c9"/>
      <path id="Trazado_1015153" data-name="Trazado 1015153" d="M242.375,420.323a.409.409,0,0,1,.415-.2c.389.057.786.1,1.18.117a.408.408,0,1,1-.043.815c-.42-.022-.842-.064-1.255-.124a.408.408,0,0,1-.3-.6" transform="translate(-196.372 -340.451)" fill="#4666c9"/>
      <path id="Trazado_1015154" data-name="Trazado 1015154" d="M242.387,415.585l-1.594,1.136,1.137,1.594-1.159-.194-1.136-1.593,1.594-1.136Z" transform="translate(-194.194 -336.623)" fill="#4666c9"/>
      <rect id="Rectángulo_455802" data-name="Rectángulo 455802" width="10.225" height="16.523" transform="matrix(0.97, -0.244, 0.244, 0.97, 88.36, 61.836)" fill="#8abae7"/>
      <path id="Trazado_1015155" data-name="Trazado 1015155" d="M503.3,338.818a.373.373,0,0,1-.361-.282l-1.174-4.663a.373.373,0,1,1,.723-.182l1.174,4.663a.373.373,0,0,1-.271.453.378.378,0,0,1-.091.011" transform="translate(-406.611 -270.187)" fill="#fff"/>
      <path id="Trazado_1015156" data-name="Trazado 1015156" d="M490.115,346.871a.373.373,0,0,1-.361-.282l-2.294-9.114a.373.373,0,0,1,.723-.182l2.294,9.114a.373.373,0,0,1-.362.464" transform="translate(-395.017 -273.106)" fill="#fff"/>
      <rect id="Rectángulo_455803" data-name="Rectángulo 455803" width="10.225" height="16.523" transform="matrix(0.97, -0.244, 0.244, 0.97, 114.28, 2.496)" fill="#4666c9"/>
      <path id="Trazado_1015157" data-name="Trazado 1015157" d="M639.995,25.881a.373.373,0,0,1-.361-.282l-1.174-4.663a.373.373,0,1,1,.723-.182l1.174,4.663a.373.373,0,0,1-.271.453.381.381,0,0,1-.091.011" transform="translate(-517.384 -16.59)" fill="#fff"/>
      <path id="Trazado_1015158" data-name="Trazado 1015158" d="M626.809,33.933a.373.373,0,0,1-.361-.282l-2.294-9.114a.373.373,0,1,1,.723-.182l2.294,9.114a.373.373,0,0,1-.362.464" transform="translate(-505.79 -19.508)" fill="#fff"/>
      <rect id="Rectángulo_455804" data-name="Rectángulo 455804" width="4.38" height="4.38" transform="translate(50.148 36.833) rotate(-63.071)" fill="#8abae7"/>
      <path id="Trazado_1015159" data-name="Trazado 1015159" d="M489.561,277.118a.384.384,0,0,1-.081-.009l-6.876-1.515a.373.373,0,1,1,.161-.729l6.876,1.515a.373.373,0,0,1-.08.737" transform="translate(-390.854 -222.737)" fill="#fff"/>
      <path id="Trazado_1015160" data-name="Trazado 1015160" d="M370.039,1216.249h11.356v6.688H366.308v-2.957a3.731,3.731,0,0,1,3.731-3.731" transform="translate(-296.848 -985.62)" fill="#4666c9"/>
      <path id="Trazado_1015161" data-name="Trazado 1015161" d="M379.8,1221.715H364.714a.373.373,0,0,1-.373-.373v-2.958a4.108,4.108,0,0,1,4.1-4.1H379.8a.373.373,0,0,1,.373.373v6.688a.373.373,0,0,1-.373.373m-14.714-.746h14.341v-5.942H368.445a3.361,3.361,0,0,0-3.357,3.357Z" transform="translate(-295.254 -984.025)"/>
      <rect id="Rectángulo_455805" data-name="Rectángulo 455805" width="15.087" height="6.688" transform="translate(84.547 230.629)" fill="#4666c9"/>
      <path id="Trazado_1015162" data-name="Trazado 1015162" d="M459.363,1221.715H444.276a.373.373,0,0,1-.373-.373v-6.688a.373.373,0,0,1,.373-.373h15.087a.373.373,0,0,1,.373.373v6.688a.373.373,0,0,1-.373.373m-14.714-.746H458.99v-5.942H444.649Z" transform="translate(-359.729 -984.025)"/>
      <path id="Trazado_1015163" data-name="Trazado 1015163" d="M525.432,1216.249h11.356a3.731,3.731,0,0,1,3.731,3.731v2.957H525.432Z" transform="translate(-425.798 -985.62)" fill="#4666c9"/>
      <path id="Trazado_1015164" data-name="Trazado 1015164" d="M538.925,1221.715H523.838a.373.373,0,0,1-.373-.373v-6.688a.373.373,0,0,1,.373-.373h11.356a4.108,4.108,0,0,1,4.1,4.1v2.958a.373.373,0,0,1-.373.373m-14.714-.746h14.341v-2.585a3.361,3.361,0,0,0-3.357-3.357H524.211Z" transform="translate(-424.204 -984.025)"/>
      <rect id="Rectángulo_455806" data-name="Rectángulo 455806" width="15.087" height="6.688" transform="translate(69.46 237.317)" fill="#8abae7"/>
      <path id="Trazado_1015165" data-name="Trazado 1015165" d="M379.8,1256.986H364.714a.373.373,0,0,1-.373-.373v-6.688a.373.373,0,0,1,.373-.373H379.8a.373.373,0,0,1,.373.373v6.688a.373.373,0,0,1-.373.373m-14.714-.746h14.341V1250.3H365.087Z" transform="translate(-295.254 -1012.608)"/>
      <path id="Trazado_1015166" data-name="Trazado 1015166" d="M459.363,1256.986H444.276a.373.373,0,0,1-.373-.373v-6.688a.373.373,0,0,1,.373-.373h15.087a.373.373,0,0,1,.373.373v6.688a.373.373,0,0,1-.373.373m-14.714-.746H458.99V1250.3H444.649Z" transform="translate(-359.729 -1012.608)"/>
      <path id="Trazado_1015167" data-name="Trazado 1015167" d="M538.925,1256.986H523.838a.373.373,0,0,1-.373-.373v-6.688a.373.373,0,0,1,.373-.373h15.087a.373.373,0,0,1,.373.373v6.688a.373.373,0,0,1-.373.373m-14.714-.746h14.341V1250.3H524.211Z" transform="translate(-424.204 -1012.608)"/>
      <rect id="Rectángulo_455807" data-name="Rectángulo 455807" width="15.087" height="6.688" transform="translate(69.46 244.005)" fill="#8abae7"/>
      <path id="Trazado_1015168" data-name="Trazado 1015168" d="M379.8,1292.255H364.714a.373.373,0,0,1-.373-.373v-6.688a.373.373,0,0,1,.373-.373H379.8a.373.373,0,0,1,.373.373v6.688a.373.373,0,0,1-.373.373m-14.714-.746h14.341v-5.942H365.087Z" transform="translate(-295.254 -1041.189)"/>
      <path id="Trazado_1015169" data-name="Trazado 1015169" d="M459.363,1292.255H444.276a.373.373,0,0,1-.373-.373v-6.688a.373.373,0,0,1,.373-.373h15.087a.373.373,0,0,1,.373.373v6.688a.373.373,0,0,1-.373.373m-14.714-.746H458.99v-5.942H444.649Z" transform="translate(-359.729 -1041.189)"/>
      <path id="Trazado_1015170" data-name="Trazado 1015170" d="M538.925,1292.255H523.838a.373.373,0,0,1-.373-.373v-6.688a.373.373,0,0,1,.373-.373h15.087a.373.373,0,0,1,.373.373v6.688a.373.373,0,0,1-.373.373m-14.714-.746h14.341v-5.942H524.211Z" transform="translate(-424.204 -1041.189)"/>
      <path id="Trazado_1015171" data-name="Trazado 1015171" d="M366.308,1322.058h15.087v6.688H370.039a3.731,3.731,0,0,1-3.731-3.731Z" transform="translate(-296.848 -1071.365)" fill="#8abae7"/>
      <path id="Trazado_1015172" data-name="Trazado 1015172" d="M379.8,1327.523H368.445a4.108,4.108,0,0,1-4.1-4.1v-2.958a.373.373,0,0,1,.373-.373H379.8a.373.373,0,0,1,.373.373v6.688a.373.373,0,0,1-.373.373m-14.714-6.688v2.584a3.361,3.361,0,0,0,3.357,3.358h10.983v-5.942Z" transform="translate(-295.254 -1069.769)"/>
      <path id="Trazado_1015173" data-name="Trazado 1015173" d="M459.363,1327.524H444.276a.373.373,0,0,1-.373-.373v-6.688a.373.373,0,0,1,.373-.373h15.087a.373.373,0,0,1,.373.373v6.688a.373.373,0,0,1-.373.373m-14.714-.746H458.99v-5.942H444.649Z" transform="translate(-359.729 -1069.77)"/>
      <path id="Trazado_1015174" data-name="Trazado 1015174" d="M535.194,1327.523H523.838a.373.373,0,0,1-.373-.373v-6.688a.373.373,0,0,1,.373-.373h15.087a.373.373,0,0,1,.373.373v2.958a4.108,4.108,0,0,1-4.1,4.1m-10.983-.746h10.983a3.361,3.361,0,0,0,3.357-3.358v-2.584H524.211Z" transform="translate(-424.204 -1069.769)"/>
      <rect id="Rectángulo_455808" data-name="Rectángulo 455808" width="35.931" height="31.997" transform="translate(74.125 198.632)" fill="#d8e5f3"/>
      <path id="Trazado_1015175" data-name="Trazado 1015175" d="M425.244,1078.283H389.313a.373.373,0,0,1-.373-.373v-32a.373.373,0,0,1,.373-.373h35.931a.373.373,0,0,1,.373.373v32a.373.373,0,0,1-.373.373m-35.558-.746h35.185v-31.251H389.686Z" transform="translate(-315.188 -847.281)"/>
      <rect id="Rectángulo_455809" data-name="Rectángulo 455809" width="28.426" height="31.997" transform="translate(74.125 198.632)" fill="#fff"/>
      <path id="Trazado_1015176" data-name="Trazado 1015176" d="M417.739,1078.283H389.313a.373.373,0,0,1-.373-.373v-32a.373.373,0,0,1,.373-.373h28.426a.373.373,0,0,1,.373.373v32a.373.373,0,0,1-.373.373m-28.053-.746h27.68v-31.251h-27.68Z" transform="translate(-315.188 -847.281)"/>
      <path id="Trazado_1015177" data-name="Trazado 1015177" d="M431.222,1098.3H413.079a.373.373,0,0,1-.373-.373v-18.282a.373.373,0,0,1,.373-.373h18.142a.373.373,0,0,1,.373.373v18.282a.373.373,0,0,1-.373.373m-17.769-.746h17.4v-17.536h-17.4Z" transform="translate(-334.447 -874.616)"/>
      <path id="Trazado_1015178" data-name="Trazado 1015178" d="M400.328,1084.813a1.119,1.119,0,0,1-.917-1.759l8.548-12.265a1.119,1.119,0,0,1,1.744-.116l2.754,3.006,9.767-14.163a1.119,1.119,0,0,1,1.843,1.271L413.5,1076.106a1.119,1.119,0,0,1-1.747.12L409,1073.216l-7.749,11.118a1.118,1.118,0,0,1-.919.479" transform="translate(-323.511 -858.215)" fill="#f57a3e"/>
      <path id="Trazado_1015179" data-name="Trazado 1015179" d="M502.889,1065.748a1.119,1.119,0,0,1-1.119-1.119v-3.358h-3.037a1.119,1.119,0,0,1,0-2.238h4.156a1.119,1.119,0,0,1,1.119,1.119v4.477a1.119,1.119,0,0,1-1.119,1.119" transform="translate(-403.255 -858.216)" fill="#f57a3e"/>
      <path id="Trazado_1015180" data-name="Trazado 1015180" d="M420.384,908.01l-15.272,26.452h30.544Z" transform="translate(-328.294 -735.83)" fill="#fff"/>
      <path id="Trazado_1015181" data-name="Trazado 1015181" d="M434.063,933.3H403.519a.373.373,0,0,1-.323-.56l15.272-26.452a.388.388,0,0,1,.646,0l15.272,26.452a.373.373,0,0,1-.323.56m-29.9-.746h29.252l-14.626-25.333Z" transform="translate(-326.7 -734.293)"/>
      <path id="Trazado_1015182" data-name="Trazado 1015182" d="M429.085,970.18h21.452L445.7,961.8H433.922Z" transform="translate(-347.721 -779.421)" fill="#8abae7"/>
      <path id="Trazado_1015183" data-name="Trazado 1015183" d="M448.944,968.958H427.491a.373.373,0,0,1-.323-.56l4.837-8.379a.373.373,0,0,1,.323-.187h11.778a.373.373,0,0,1,.323.187l4.837,8.379a.373.373,0,0,1-.323.56m-20.806-.746H448.3l-4.406-7.633H432.544Z" transform="translate(-346.127 -777.826)"/>
      <path id="Trazado_1015184" data-name="Trazado 1015184" d="M454.595,918.21h11.778l-5.889-10.2Z" transform="translate(-368.393 -735.83)" fill="#4666c9"/>
      <path id="Trazado_1015185" data-name="Trazado 1015185" d="M464.779,917.046H453a.373.373,0,0,1-.323-.56l5.889-10.2a.388.388,0,0,1,.646,0l5.889,10.2a.373.373,0,0,1-.323.56m-11.132-.746h10.486l-5.243-9.081Z" transform="translate(-366.799 -734.293)"/>
      <path id="Trazado_1015186" data-name="Trazado 1015186" d="M464.667,982.2H455.1a1.119,1.119,0,1,1,0-2.238h9.57a1.119,1.119,0,1,1,0,2.238" transform="translate(-367.893 -794.136)" fill="#8abae7"/>
      <path id="Trazado_1015187" data-name="Trazado 1015187" d="M254.8,1321.945H244.354a2.588,2.588,0,0,1-2.579-2.441,18.273,18.273,0,0,1,.265-4.774c.7-3.235,6.557-2.1,9.179.437a26.143,26.143,0,0,0,6.163,4.2,2.582,2.582,0,0,1-2.582,2.582" transform="translate(-195.892 -1063.818)" fill="#fff"/>
      <path id="Trazado_1015188" data-name="Trazado 1015188" d="M253.2,1320.72H242.756a2.967,2.967,0,0,1-2.951-2.792,18.192,18.192,0,0,1,.273-4.876,2.713,2.713,0,0,1,2.006-2.076c2.224-.676,5.8.389,7.8,2.324a25.977,25.977,0,0,0,6.063,4.127.373.373,0,0,1,.215.338,2.958,2.958,0,0,1-2.955,2.955m-9.61-9.2a4.481,4.481,0,0,0-1.293.173,1.98,1.98,0,0,0-1.494,1.519,17.723,17.723,0,0,0-.258,4.673,2.221,2.221,0,0,0,2.206,2.091H253.2a2.212,2.212,0,0,0,2.2-1.981,26.066,26.066,0,0,1-6.038-4.156,9.042,9.042,0,0,0-5.769-2.318" transform="translate(-194.294 -1062.22)"/>
      <path id="Trazado_1015189" data-name="Trazado 1015189" d="M100.094,1294.2l-7.927-5.312a3.1,3.1,0,0,1-.853-4.279,21.009,21.009,0,0,1,2.774-3.468c2.382-2.3,6.615,1.907,7.382,5.474a26.149,26.149,0,0,0,2.784,6.917,3.09,3.09,0,0,1-4.159.669" transform="translate(-73.581 -1037.674)" fill="#fff"/>
      <path id="Trazado_1015190" data-name="Trazado 1015190" d="M100.231,1293.492a3.442,3.442,0,0,1-1.921-.583l-7.927-5.312a3.48,3.48,0,0,1-.957-4.794,20.935,20.935,0,0,1,2.826-3.532,2.71,2.71,0,0,1,2.823-.607c2.224.678,4.6,3.549,5.183,6.271a25.966,25.966,0,0,0,2.739,6.8.374.374,0,0,1-.025.422,3.468,3.468,0,0,1-2.74,1.332m-1.506-1.2a2.728,2.728,0,0,0,3.5-.4,26.038,26.038,0,0,1-2.693-6.8c-.526-2.446-2.709-5.116-4.671-5.714a1.98,1.98,0,0,0-2.087.431,20.208,20.208,0,0,0-2.721,3.4,2.732,2.732,0,0,0,.75,3.764Z" transform="translate(-72.005 -1036.075)"/>
      <path id="Trazado_1015191" data-name="Trazado 1015191" d="M117.333,918.677,106.84,966.852l-12.849-5.163c7.693-16.48,9.441-77.851,9.441-77.851Z" transform="translate(-76.168 -716.242)" fill="#4666c9"/>
      <path id="Trazado_1015192" data-name="Trazado 1015192" d="M105.245,965.628a.369.369,0,0,1-.139-.027l-12.849-5.163a.373.373,0,0,1-.2-.5c3.127-6.7,5.745-22.25,7.571-44.974,1.382-17.195,1.831-32.576,1.835-32.73a.373.373,0,0,1,.719-.128l13.9,34.839a.374.374,0,0,1,.018.217l-10.493,48.176a.372.372,0,0,1-.364.294M92.9,959.891l12.077,4.853,10.375-47.633-13.2-33.077c-.16,4.545-.668,17.18-1.778,30.982-1.828,22.746-4.343,37.838-7.476,44.874" transform="translate(-74.573 -714.645)"/>
      <path id="Trazado_1015193" data-name="Trazado 1015193" d="M143.518,840.4c1.178-10.178,14.684-10.447,18.534-.437,5.054,13.141,9.791,47.821,11.112,86.433l-12.774,3.876c-.448-51.231-19.67-65.7-16.873-89.872" transform="translate(-116.078 -674.725)" fill="#4666c9"/>
      <path id="Trazado_1015194" data-name="Trazado 1015194" d="M158.787,929.049a.373.373,0,0,1-.373-.37c-.248-28.373-6.266-45.441-11.1-59.154-3.924-11.13-7.024-19.922-5.769-30.764.513-4.432,3.433-7.514,7.621-8.045a10.491,10.491,0,0,1,6.672,1.459,11.934,11.934,0,0,1,4.961,6.057c5.284,13.74,9.863,49.332,11.137,86.554a.373.373,0,0,1-.265.37L158.9,929.033a.378.378,0,0,1-.108.016m-8.314-97.67a9.7,9.7,0,0,0-1.215.077,7.933,7.933,0,0,0-6.973,7.391c-1.235,10.67,1.84,19.39,5.732,30.43,4.825,13.685,10.823,30.7,11.138,58.9l12.023-3.649c-1.285-37.045-5.834-72.39-11.078-86.025-1.371-3.566-4.9-7.122-9.627-7.122m-8.559,7.425h0Z" transform="translate(-114.474 -673.131)"/>
      <path id="Trazado_1015195" data-name="Trazado 1015195" d="M167.5,684.879s-.93-6.888-1.873-8.655-6.641-.961-6.207,1.64a67.021,67.021,0,0,0,1.848,7.015Z" transform="translate(-129.173 -547.23)" fill="#fff"/>
      <path id="Trazado_1015196" data-name="Trazado 1015196" d="M165.909,683.655h-6.232a.373.373,0,0,1-.355-.259,66.208,66.208,0,0,1-1.861-7.068c-.194-1.16.609-2.164,2.148-2.687,1.768-.6,4.1-.419,4.756.81.963,1.805,1.875,8.5,1.913,8.781a.373.373,0,0,1-.37.423m-5.958-.746h5.528c-.219-1.517-1-6.665-1.772-8.106-.41-.769-2.285-.99-3.857-.455-.559.19-1.837.751-1.652,1.858a63.381,63.381,0,0,0,1.753,6.7" transform="translate(-127.58 -545.634)"/>
      <path id="Trazado_1015197" data-name="Trazado 1015197" d="M139.149,724.98c-6.949,5.576-2.333,27.872-2.333,27.872,7.558,4.085,12.8-4.563,17.516-3.848,0,0-.54-23.018-2.988-24.023s-8.655-2.841-12.2,0" transform="translate(-109.655 -586.278)" fill="#fff"/>
      <path id="Trazado_1015198" data-name="Trazado 1015198" d="M139.347,752.687a8.935,8.935,0,0,1-4.309-1.155.374.374,0,0,1-.188-.253,86.078,86.078,0,0,1-1.447-11.9c-.385-8.448.931-13.943,3.911-16.335.718-.576,4.7-3.287,12.571-.054.477.2,1.743.716,2.642,12.706.436,5.822.575,11.6.577,11.654a.373.373,0,0,1-.429.378c-1.71-.258-3.525.826-5.626,2.082-2.3,1.378-4.819,2.881-7.7,2.881m-3.8-1.73c4.35,2.256,7.944.108,11.119-1.791,1.975-1.18,3.851-2.3,5.682-2.222-.28-11.071-1.373-22.7-2.746-23.267-.8-.331-7.974-3.14-11.821-.054-6.377,5.118-2.64,25.261-2.235,27.334" transform="translate(-108.054 -584.629)"/>
      <path id="Trazado_1015199" data-name="Trazado 1015199" d="M149.993,627.239c4.869-2.383,13.364,13.042,6.01,15.1-6.35,1.779-12.173-12.087-6.01-15.1" transform="translate(-119.428 -508.098)" fill="#fff"/>
      <path id="Trazado_1015200" data-name="Trazado 1015200" d="M153.908,641.108a.373.373,0,0,1-.1-.732,3.33,3.33,0,0,0,2.507-2.775c.542-2.874-1.485-8.24-4.911-10.849-.882-.672-2.177-1.354-3.34-.784a4.21,4.21,0,0,0-2.34,2.71c-.606,2.181.3,5.375,2.489,8.764a.373.373,0,0,1-.627.405c-2.338-3.62-3.255-6.947-2.582-9.369a4.926,4.926,0,0,1,2.731-3.18c1.19-.583,2.615-.285,4.12.861,2.982,2.272,5.9,7.826,5.192,11.581a4.076,4.076,0,0,1-3.035,3.354.371.371,0,0,1-.1.015" transform="translate(-117.333 -506.49)"/>
      <path id="Trazado_1015201" data-name="Trazado 1015201" d="M369.018,622.692c-.069-.75-.248-1.645.317-2.143a1.016,1.016,0,0,1,1.348.05c.347.354.655,1.226.32,1.59a12.949,12.949,0,0,0,1.6-1.931c.438-.765.927-1.619,1.773-1.866a2.19,2.19,0,0,1,2.492,1.677,5.07,5.07,0,0,1-.483,3.249,16.343,16.343,0,0,1-3.138,4.788,6.475,6.475,0,0,1-2.453,1.77,2.978,2.978,0,0,1-2.889-.392c-1.041-.89-.712-1.919-.144-2.866a6.087,6.087,0,0,0,1.256-3.927" transform="translate(-297.594 -501.081)" fill="#fff"/>
      <path id="Trazado_1015202" data-name="Trazado 1015202" d="M368.03,628.862a3.02,3.02,0,0,1-1.976-.685c-1.318-1.126-.758-2.446-.222-3.341a5.742,5.742,0,0,0,1.205-3.7c-.008-.087-.018-.175-.027-.265a2.408,2.408,0,0,1,.469-2.192,1.386,1.386,0,0,1,1.861.068,2.17,2.17,0,0,1,.48.847,7.737,7.737,0,0,0,.85-1.112,3.832,3.832,0,0,1,1.993-2.038,2.1,2.1,0,0,1,1.619.219,2.869,2.869,0,0,1,1.338,1.72,5.507,5.507,0,0,1-.5,3.492,16.617,16.617,0,0,1-3.21,4.9,6.86,6.86,0,0,1-2.6,1.866,3.852,3.852,0,0,1-1.28.224m-.25-7.8a6.4,6.4,0,0,1-1.308,4.153c-.656,1.1-.637,1.789.067,2.391a2.605,2.605,0,0,0,2.522.324,6.176,6.176,0,0,0,2.306-1.674,15.884,15.884,0,0,0,3.067-4.679,4.839,4.839,0,0,0,.466-3,2.138,2.138,0,0,0-.983-1.263,1.355,1.355,0,0,0-1.045-.153c-.7.2-1.135.961-1.554,1.693a13.11,13.11,0,0,1-1.661,2.009.373.373,0,0,1-.539-.516c.133-.145-.022-.781-.312-1.077a.648.648,0,0,0-.835-.031c-.353.312-.286.942-.22,1.553.01.093.02.185.028.276" transform="translate(-295.984 -499.49)"/>
      <path id="Trazado_1015203" data-name="Trazado 1015203" d="M164.849,674.287c-.609-2.776-.824-7.968,2.073-8.814,0,0,18.542.025,36.639-13.538l4.721,5.77A46.037,46.037,0,0,1,172.8,679.548c-4.657.412-7.306-2.3-7.955-5.261" transform="translate(-133.283 -528.312)" fill="#fff"/>
      <path id="Trazado_1015204" data-name="Trazado 1015204" d="M178.118,678.326a.373.373,0,0,1-.033-.745,46.061,46.061,0,0,0,35.06-21.434l-4.333-5.3a69.7,69.7,0,0,1-37.41,13.424.373.373,0,0,1,0-.746,68.919,68.919,0,0,0,37.25-13.489.373.373,0,0,1,.512.062l4.721,5.77a.373.373,0,0,1,.04.412,42.686,42.686,0,0,1-8.446,10.193,46.576,46.576,0,0,1-27.328,11.846l-.033,0" transform="translate(-138.597 -526.718)"/>
      <path id="Trazado_1015205" data-name="Trazado 1015205" d="M259.582,1347.646h0Z" transform="translate(-198.091 -1092.101)" fill="#fff"/>
      <path id="Trazado_1015206" data-name="Trazado 1015206" d="M257.987,1346.425H242.848a.373.373,0,0,1,0-.746h15.139a.373.373,0,0,1,0,.746" transform="translate(-196.496 -1090.507)"/>
      <path id="Trazado_1015207" data-name="Trazado 1015207" d="M106.367,1312.261l-12.96-8.663Z" transform="translate(-75.695 -1056.405)" fill="#fff"/>
      <path id="Trazado_1015208" data-name="Trazado 1015208" d="M104.771,1311.04a.37.37,0,0,1-.207-.063l-12.96-8.663a.373.373,0,1,1,.415-.62l12.96,8.664a.373.373,0,0,1-.208.683" transform="translate(-74.1 -1054.811)"/>
      <path id="Trazado_1015209" data-name="Trazado 1015209" d="M136.34,1320.873l2.6.867Z" transform="translate(-110.487 -1070.405)" fill="#fff"/>
      <path id="Trazado_1015210" data-name="Trazado 1015210" d="M137.343,1320.519a.371.371,0,0,1-.118-.019l-2.6-.867a.373.373,0,1,1,.236-.708l2.6.867a.373.373,0,0,1-.118.727" transform="translate(-108.892 -1068.81)"/>
      <path id="Trazado_1015211" data-name="Trazado 1015211" d="M288.347,1335.919l2.831-.883Z" transform="translate(-233.67 -1081.882)" fill="#fff"/>
      <path id="Trazado_1015212" data-name="Trazado 1015212" d="M286.752,1334.7a.373.373,0,0,1-.111-.729l2.831-.883a.373.373,0,0,1,.222.713l-2.831.883a.387.387,0,0,1-.111.017" transform="translate(-232.075 -1080.288)"/>
      <path id="Trazado_1015213" data-name="Trazado 1015213" d="M138.5,615.241c3.1-1.129-1.355-5.242-.472-7.068.561-1.159,1.64-1.1,2.622-1.6a4.507,4.507,0,0,0,2.373-2.472,3.037,3.037,0,0,0-.351-2.535c-.95-1.452-3.885-2.109-5.254-.917a6.174,6.174,0,0,0-1.31,2.233c-.641,1.4-2.012,2.256-2.844,3.538a3.516,3.516,0,0,0-.649,2.1,2.674,2.674,0,0,0,.321,1.1c.105.2.667.692.676.859,0,.005.355,6.42,4.889,4.771" transform="translate(-107.466 -486.248)"/>
      <path id="Trazado_1015214" data-name="Trazado 1015214" d="M135.513,614.293a2.962,2.962,0,0,1-1.664-.489c-1.858-1.223-2.163-4.362-2.2-4.847a4.165,4.165,0,0,0-.282-.326,2.45,2.45,0,0,1-.354-.436,3.041,3.041,0,0,1-.364-1.249,3.837,3.837,0,0,1,.709-2.326,10.441,10.441,0,0,1,1.318-1.552,7.167,7.167,0,0,0,1.5-1.938c.062-.135.122-.273.181-.411a5.139,5.139,0,0,1,1.223-1.948,3.561,3.561,0,0,1,2.832-.662,4.284,4.284,0,0,1,2.979,1.656,3.4,3.4,0,0,1,.395,2.851,4.878,4.878,0,0,1-2.559,2.693,6.5,6.5,0,0,1-.942.369,2.13,2.13,0,0,0-1.514,1.065c-.284.587.225,1.665.716,2.708.58,1.23,1.18,2.5.773,3.49A1.954,1.954,0,0,1,137.035,614a4.465,4.465,0,0,1-1.522.294m2.226-15.486a2.525,2.525,0,0,0-1.668.527,4.52,4.52,0,0,0-1.029,1.682c-.062.142-.123.284-.187.424a7.842,7.842,0,0,1-1.643,2.147,9.717,9.717,0,0,0-1.228,1.438,3.116,3.116,0,0,0-.59,1.873,2.3,2.3,0,0,0,.277.944,3.291,3.291,0,0,0,.245.284c.294.32.462.511.474.731,0,.032.2,3.229,1.868,4.325a2.725,2.725,0,0,0,2.521.117,1.234,1.234,0,0,0,.791-.642c.282-.684-.247-1.8-.758-2.887-.593-1.256-1.153-2.443-.713-3.351a2.812,2.812,0,0,1,1.951-1.448,5.914,5.914,0,0,0,.837-.325,4.256,4.256,0,0,0,2.186-2.252,2.681,2.681,0,0,0-.307-2.219,3.584,3.584,0,0,0-2.457-1.326,4.189,4.189,0,0,0-.572-.04M131.646,608.9h0" transform="translate(-105.871 -484.655)"/>
      <path id="Trazado_1015215" data-name="Trazado 1015215" d="M152.057,676.313a1.984,1.984,0,1,1-2.944-.7,2.155,2.155,0,0,1,2.944.7" transform="translate(-120.253 -547.231)" fill="#fff"/>
      <path id="Trazado_1015216" data-name="Trazado 1015216" d="M149.217,678.452a2.463,2.463,0,0,1-.568-.068,2.984,2.984,0,0,1-2.218-3.021,2.176,2.176,0,0,1,.867-1.639,2.528,2.528,0,0,1,3.466.783.373.373,0,1,1-.6.441,1.789,1.789,0,0,0-2.423-.623,1.442,1.442,0,0,0-.564,1.09,2.24,2.24,0,0,0,1.647,2.243,1.442,1.442,0,0,0,1.208-.212.373.373,0,1,1,.442.6,2.1,2.1,0,0,1-1.255.4" transform="translate(-118.659 -545.645)"/>
      <path id="Trazado_1015217" data-name="Trazado 1015217" d="M810.792,882.918a.373.373,0,0,1-.194-.692c.178-.108,17.826-11.1,23.649-36.521a.373.373,0,0,1,.727.167c-5.9,25.741-23.808,36.882-23.988,36.992a.372.372,0,0,1-.193.054" transform="translate(-656.745 -685.105)"/>
      <path id="Trazado_1015218" data-name="Trazado 1015218" d="M885.25,862.023a.373.373,0,0,1-.328-.55c.059-.109,5.873-10.992,7.028-18.845a.373.373,0,0,1,.738.108c-1.174,7.984-7.05,18.98-7.109,19.09a.373.373,0,0,1-.329.2" transform="translate(-717.084 -682.588)"/>
      <path id="Trazado_1015219" data-name="Trazado 1015219" d="M848.38,794.168a2.022,2.022,0,1,1,2.022-2.022,2.024,2.024,0,0,1-2.022,2.022m0-3.3a1.276,1.276,0,1,0,1.276,1.276,1.278,1.278,0,0,0-1.276-1.276" transform="translate(-685.869 -640.297)"/>
      <path id="Trazado_1015220" data-name="Trazado 1015220" d="M356.294,805.388a.376.376,0,0,1-.062-.005l-4.874-.816a.373.373,0,0,1-.226-.605l3.144-3.813a.373.373,0,0,1,.637.107l1.73,4.629a.373.373,0,0,1-.349.5m-4.175-1.451,3.6.6-1.278-3.419Z" transform="translate(-284.48 -648.312)"/>
      <path id="Trazado_1015221" data-name="Trazado 1015221" d="M66.832,659.669a.373.373,0,0,1-.315-.572c.2-.318.408-.633.616-.945a.373.373,0,0,1,.621.414c-.2.308-.408.617-.606.93a.373.373,0,0,1-.316.174" transform="translate(-53.857 -533.216)" fill="#8abae7"/>
      <path id="Trazado_1015222" data-name="Trazado 1015222" d="M26.257,695.908a.373.373,0,0,1-.355-.259,14.684,14.684,0,0,1-.543-2.309.373.373,0,0,1,.738-.112,13.973,13.973,0,0,0,.514,2.192.373.373,0,0,1-.241.469.368.368,0,0,1-.114.018m-.675-4.942h-.016a.373.373,0,0,1-.357-.388,13.978,13.978,0,0,1,.212-1.919c.027-.147.056-.292.087-.437a.373.373,0,0,1,.729.157q-.044.206-.082.413a13.248,13.248,0,0,0-.2,1.816.373.373,0,0,1-.372.358m1.115-4.859a.373.373,0,0,1-.342-.521,14.669,14.669,0,0,1,1.114-2.094.373.373,0,1,1,.628.4,13.934,13.934,0,0,0-1.058,1.987.373.373,0,0,1-.343.225m8.845-1.46a3.861,3.861,0,0,1-.928-.115.373.373,0,1,1,.179-.724,3.04,3.04,0,0,0,1.061.076,2.578,2.578,0,0,0,.925-.287.373.373,0,1,1,.346.661,3.328,3.328,0,0,1-1.192.368,3.706,3.706,0,0,1-.391.021m-3.074-1.538a.372.372,0,0,1-.286-.133,4.879,4.879,0,0,1-.653-1,5.659,5.659,0,0,1-.426-1.216.368.368,0,0,1,.01-.2,13.417,13.417,0,0,0-1.4,1.275.373.373,0,1,1-.541-.514,14.173,14.173,0,0,1,1.774-1.577,2.758,2.758,0,0,0,.879.852,4.914,4.914,0,0,0,.37,1.056,4.142,4.142,0,0,0,.554.849.373.373,0,0,1-.285.613m6.13-.85a.382.382,0,0,1-.089-.011.373.373,0,0,1-.273-.451,2.17,2.17,0,0,0,.063-.515,2,2,0,0,0-.052-.455,2.243,2.243,0,0,0-.435-.885.373.373,0,0,1,.585-.463,2.987,2.987,0,0,1,.576,1.179,2.748,2.748,0,0,1,.072.625,2.912,2.912,0,0,1-.085.693.373.373,0,0,1-.362.284M33.52,679.1a.373.373,0,0,1-.126-.724,5.546,5.546,0,0,1,1.866-.342h.116a4.049,4.049,0,0,1,.47.039.373.373,0,0,1-.105.739,3.276,3.276,0,0,0-.383-.032h-.1a4.811,4.811,0,0,0-1.615.3.369.369,0,0,1-.126.022m-2.093-.73a.365.365,0,0,1-.064-.005.373.373,0,0,1-.3-.431,8.906,8.906,0,0,1,.273-1.128,11.179,11.179,0,0,1,.437-1.163.373.373,0,0,1,.683.3,10.461,10.461,0,0,0-.408,1.085,8.159,8.159,0,0,0-.25,1.033.373.373,0,0,1-.367.31" transform="translate(-20.428 -547.341)" fill="#8abae7"/>
      <path id="Trazado_1015223" data-name="Trazado 1015223" d="M35.433,794.425a.372.372,0,0,1-.31-.166c-.213-.318-.414-.648-.6-.982a.373.373,0,1,1,.652-.362c.175.316.366.628.567.929a.373.373,0,0,1-.31.581" transform="translate(-27.939 -642.405)" fill="#8abae7"/>
      <path id="Trazado_1015224" data-name="Trazado 1015224" d="M827.327,630.08l.72,1.493Z" transform="translate(-670.447 -510.602)" fill="#fff"/>
      <path id="Trazado_1015225" data-name="Trazado 1015225" d="M826.453,630.353a.373.373,0,0,1-.336-.211l-.72-1.493a.373.373,0,0,1,.672-.324l.719,1.493a.373.373,0,0,1-.336.535" transform="translate(-668.853 -509.009)"/>
      <path id="Trazado_1015226" data-name="Trazado 1015226" d="M819.235,648.375l1.493-.72Z" transform="translate(-663.889 -524.844)" fill="#fff"/>
      <path id="Trazado_1015227" data-name="Trazado 1015227" d="M817.641,647.155a.373.373,0,0,1-.162-.709l1.493-.719a.373.373,0,1,1,.324.672l-1.493.72a.371.371,0,0,1-.162.037" transform="translate(-662.295 -523.252)"/>
      <path id="Trazado_1015228" data-name="Trazado 1015228" d="M837.531,653.162l-.72-1.493Z" transform="translate(-678.132 -528.097)" fill="#fff"/>
      <path id="Trazado_1015229" data-name="Trazado 1015229" d="M835.937,651.941a.373.373,0,0,1-.336-.211l-.72-1.493a.373.373,0,0,1,.672-.324l.719,1.493a.373.373,0,0,1-.336.535" transform="translate(-676.538 -526.503)"/>
      <path id="Trazado_1015230" data-name="Trazado 1015230" d="M842.317,638.172l-1.493.72Z" transform="translate(-681.384 -517.16)" fill="#fff"/>
      <path id="Trazado_1015231" data-name="Trazado 1015231" d="M839.23,637.67a.373.373,0,0,1-.162-.709l1.493-.72a.373.373,0,1,1,.324.672l-1.493.72a.37.37,0,0,1-.162.037" transform="translate(-679.79 -515.565)"/>
      <path id="Trazado_1015232" data-name="Trazado 1015232" d="M346.487,920.174l.72,1.493Z" transform="translate(-280.785 -745.688)" fill="#fff"/>
      <path id="Trazado_1015233" data-name="Trazado 1015233" d="M345.612,920.447a.372.372,0,0,1-.336-.211l-.72-1.493a.373.373,0,1,1,.672-.323l.72,1.493a.373.373,0,0,1-.174.5.366.366,0,0,1-.162.037" transform="translate(-279.19 -744.094)"/>
      <path id="Trazado_1015234" data-name="Trazado 1015234" d="M338.395,938.47l1.493-.72Z" transform="translate(-274.227 -759.931)" fill="#fff"/>
      <path id="Trazado_1015235" data-name="Trazado 1015235" d="M336.8,937.246a.373.373,0,0,1-.162-.709l1.493-.719a.373.373,0,1,1,.324.672l-1.493.72a.369.369,0,0,1-.162.037" transform="translate(-272.633 -758.334)"/>
      <path id="Trazado_1015236" data-name="Trazado 1015236" d="M356.691,943.256l-.72-1.493Z" transform="translate(-288.471 -763.183)" fill="#fff"/>
      <path id="Trazado_1015237" data-name="Trazado 1015237" d="M355.1,942.033a.373.373,0,0,1-.336-.211l-.72-1.493a.373.373,0,0,1,.672-.324l.72,1.493a.373.373,0,0,1-.174.5.365.365,0,0,1-.162.037" transform="translate(-286.876 -761.587)"/>
      <path id="Trazado_1015238" data-name="Trazado 1015238" d="M361.477,928.266l-1.493.72Z" transform="translate(-291.723 -752.245)" fill="#fff"/>
      <path id="Trazado_1015239" data-name="Trazado 1015239" d="M358.39,927.765a.373.373,0,0,1-.162-.709l1.493-.719a.373.373,0,1,1,.324.672l-1.493.72a.368.368,0,0,1-.162.037" transform="translate(-290.128 -750.651)"/>
      <rect id="Rectángulo_455810" data-name="Rectángulo 455810" width="29.163" height="18.047" transform="translate(137.025 46.498) rotate(-73.473)" fill="#8abae7"/>
      <path id="Trazado_1015240" data-name="Trazado 1015240" d="M799.446,151.714a.659.659,0,0,1-.3-.753l2.414-8.136a.658.658,0,1,1,1.263.374l-2.414,8.136a.658.658,0,0,1-.818.444.666.666,0,0,1-.149-.065" transform="translate(-647.592 -115.359)" fill="#fff"/>
      <path id="Trazado_1015241" data-name="Trazado 1015241" d="M762.331,152.073a.658.658,0,0,1-.295-.753l4.718-15.9a.658.658,0,0,1,1.263.374l-4.718,15.9a.658.658,0,0,1-.968.379" transform="translate(-617.514 -109.357)" fill="#fff"/>
      <path id="Trazado_1015242" data-name="Trazado 1015242" d="M769.725,653.082V489.363h-3.254v162.7Z" transform="translate(-621.13 -396.568)" fill="#fff"/>
      <path id="Trazado_1015243" data-name="Trazado 1015243" d="M768.148,651.873a.369.369,0,0,0,.369-.369V487.785a.369.369,0,0,0-.369-.369h-3.254a.369.369,0,0,0-.369.369v162.7a.369.369,0,1,0,.738,0V488.155h2.516V651.5a.369.369,0,0,0,.369.369" transform="translate(-619.553 -394.99)"/>
      <path id="Trazado_1015244" data-name="Trazado 1015244" d="M673.9,371.335l-60.838.363a1.835,1.835,0,0,1-1.846-1.824l-.176-29.526a1.835,1.835,0,0,1,1.824-1.846l60.838-.363a1.835,1.835,0,0,1,1.846,1.824l.176,29.526a1.835,1.835,0,0,1-1.824,1.846" transform="translate(-495.174 -274.02)" fill="#f57a3e"/>
      <path id="Trazado_1015245" data-name="Trazado 1015245" d="M636.453,373.264a3.051,3.051,0,0,1-1.55-2.636l-.025-4.238a3.048,3.048,0,0,1,6.1-.036l.025,4.238a3.052,3.052,0,0,1-3.029,3.066h0a3.031,3.031,0,0,1-1.516-.394m1.512-.182,0,0Zm.892-8.361a1.9,1.9,0,0,0-2.828,1.662l.025,4.238a1.9,1.9,0,1,0,3.792-.023l-.025-4.238a1.9,1.9,0,0,0-.964-1.64" transform="translate(-514.49 -294.43)" fill="#fff"/>
      <path id="Trazado_1015246" data-name="Trazado 1015246" d="M897.39,371.709a3.064,3.064,0,0,1-.643-.487,3.029,3.029,0,0,1-.905-2.15l-.025-4.238a3.048,3.048,0,0,1,6.1-.036l.025,4.238a3.05,3.05,0,0,1-4.547,2.673m2.406-8.545a1.9,1.9,0,0,0-2.829,1.664l.026,4.237a1.9,1.9,0,1,0,3.792-.023l-.025-4.238a1.883,1.883,0,0,0-.563-1.338,1.909,1.909,0,0,0-.4-.3" transform="translate(-725.948 -293.168)" fill="#fff"/>
      <path id="Trazado_1015247" data-name="Trazado 1015247" d="M745.451,372.615a3.062,3.062,0,0,1-.643-.487,3.028,3.028,0,0,1-.905-2.15l-.025-4.238a3.048,3.048,0,0,1,6.1-.036l.025,4.238a3.05,3.05,0,0,1-4.547,2.673m1.514-.183,0,0Zm.893-8.362a1.9,1.9,0,0,0-2.829,1.663l.025,4.238a1.9,1.9,0,1,0,3.793-.023l-.025-4.238a1.882,1.882,0,0,0-.563-1.337,1.908,1.908,0,0,0-.4-.3" transform="translate(-602.821 -293.902)" fill="#fff"/>
      <path id="Trazado_1015248" data-name="Trazado 1015248" d="M680.937,372.849l-.046-7.69a.8.8,0,0,0-.233-.626,1.7,1.7,0,0,0-1.144-.283.576.576,0,0,1-.117-1.146,2.845,2.845,0,0,1,2.026.57,1.936,1.936,0,0,1,.619,1.479l.046,7.691Z" transform="translate(-550.151 -294.24)" fill="#fff"/>
      <path id="Trazado_1015249" data-name="Trazado 1015249" d="M788.989,372.706a.576.576,0,0,1-.292-.5l-.046-7.691a.8.8,0,0,0-.233-.626,1.7,1.7,0,0,0-1.144-.284.576.576,0,0,1-.117-1.146,2.849,2.849,0,0,1,2.026.57,1.936,1.936,0,0,1,.619,1.479l.046,7.691a.576.576,0,0,1-.859.5" transform="translate(-637.477 -293.721)" fill="#fff"/>
      <path id="Trazado_1015250" data-name="Trazado 1015250" d="M711.65,373.167a.575.575,0,0,1-.292-.5l-.046-7.691a.8.8,0,0,0-.233-.626,1.708,1.708,0,0,0-1.144-.283.576.576,0,0,1-.117-1.146,2.851,2.851,0,0,1,2.026.57,1.937,1.937,0,0,1,.619,1.479l.046,7.691a.576.576,0,0,1-.859.5" transform="translate(-574.803 -294.094)" fill="#fff"/>
      <path id="Trazado_1015251" data-name="Trazado 1015251" d="M822.222,372.157a3.073,3.073,0,0,1-.643-.487,3.028,3.028,0,0,1-.906-2.15l-.025-4.238a3.048,3.048,0,1,1,6.1-.036l.025,4.238a3.05,3.05,0,0,1-4.547,2.673m2.406-8.545a1.9,1.9,0,0,0-2.829,1.663l.025,4.238a1.9,1.9,0,0,0,3.793-.023l-.025-4.238a1.883,1.883,0,0,0-.563-1.338,1.914,1.914,0,0,0-.4-.3" transform="translate(-665.034 -293.531)" fill="#fff"/>
      <path id="Trazado_1015252" data-name="Trazado 1015252" d="M865.754,372.247a.576.576,0,0,1-.292-.5l-.046-7.691a.8.8,0,0,0-.236-.628,1.719,1.719,0,0,0-1.139-.282.576.576,0,1,1-.119-1.146,2.846,2.846,0,0,1,2.027.569,1.936,1.936,0,0,1,.619,1.479l.046,7.691a.576.576,0,0,1-.859.5" transform="translate(-699.684 -293.348)" fill="#fff"/>
      <path id="Trazado_1015253" data-name="Trazado 1015253" d="M636.91,450.244a3.063,3.063,0,0,1-.643-.487,3.027,3.027,0,0,1-.905-2.15l-.025-4.238a3.048,3.048,0,0,1,6.1-.036l.025,4.238a3.05,3.05,0,0,1-4.547,2.673m1.514-.183,0,0Zm.893-8.362a1.9,1.9,0,0,0-2.829,1.664l.025,4.238a1.9,1.9,0,0,0,3.793-.023l-.025-4.238a1.882,1.882,0,0,0-.563-1.337,1.9,1.9,0,0,0-.4-.3" transform="translate(-514.861 -356.811)" fill="#fff"/>
      <path id="Trazado_1015254" data-name="Trazado 1015254" d="M862.878,448.9a3.075,3.075,0,0,1-.643-.487,3.03,3.03,0,0,1-.905-2.15l-.025-4.238a3.048,3.048,0,1,1,6.1-.036l.025,4.238a3.05,3.05,0,0,1-4.547,2.673m2.406-8.545a1.9,1.9,0,0,0-2.829,1.663l.025,4.238a1.9,1.9,0,0,0,3.792-.023l-.025-4.238a1.9,1.9,0,0,0-.964-1.641" transform="translate(-697.981 -355.718)" fill="#fff"/>
      <path id="Trazado_1015255" data-name="Trazado 1015255" d="M717.407,449.764a3.058,3.058,0,0,1-.643-.488,3.027,3.027,0,0,1-.906-2.15l-.025-4.238a3.048,3.048,0,1,1,6.1-.036l.025,4.238a3.05,3.05,0,0,1-4.547,2.673m2.406-8.545a1.9,1.9,0,0,0-2.829,1.663l.025,4.238a1.9,1.9,0,0,0,3.793-.023l-.025-4.238a1.882,1.882,0,0,0-.563-1.337,1.9,1.9,0,0,0-.4-.3" transform="translate(-580.094 -356.422)" fill="#fff"/>
      <path id="Trazado_1015256" data-name="Trazado 1015256" d="M685.321,449.8l-.046-7.691a.8.8,0,0,0-.236-.628,1.72,1.72,0,0,0-1.139-.282.576.576,0,1,1-.119-1.146,2.844,2.844,0,0,1,2.027.569,1.937,1.937,0,0,1,.619,1.479l.046,7.691Z" transform="translate(-553.702 -356.602)" fill="#fff"/>
      <path id="Trazado_1015257" data-name="Trazado 1015257" d="M766.117,449.823a.575.575,0,0,1-.292-.5l-.046-7.691a.8.8,0,0,0-.233-.626,1.716,1.716,0,0,0-1.144-.284.576.576,0,0,1-.117-1.146,2.853,2.853,0,0,1,2.026.57,1.936,1.936,0,0,1,.619,1.479l.046,7.691a.576.576,0,0,1-.859.5" transform="translate(-618.942 -356.215)" fill="#fff"/>
      <path id="Trazado_1015258" data-name="Trazado 1015258" d="M798.6,449.628a.576.576,0,0,1-.293-.5l-.046-7.691a.8.8,0,0,0-.233-.626,1.714,1.714,0,0,0-1.144-.283.576.576,0,0,1-.117-1.146,2.847,2.847,0,0,1,2.026.57,1.935,1.935,0,0,1,.619,1.479l.046,7.691a.576.576,0,0,1-.859.5" transform="translate(-645.269 -356.057)" fill="#fff"/>
      <path id="Trazado_1015259" data-name="Trazado 1015259" d="M831.093,449.434a.576.576,0,0,1-.292-.5l-.046-7.691a.8.8,0,0,0-.234-.626,1.709,1.709,0,0,0-1.144-.284.576.576,0,0,1-.117-1.146,2.854,2.854,0,0,1,2.027.57,1.936,1.936,0,0,1,.619,1.479l.046,7.691a.576.576,0,0,1-.859.5" transform="translate(-671.596 -355.899)" fill="#fff"/>
      <path id="Trazado_1015260" data-name="Trazado 1015260" d="M911.59,448.955a.576.576,0,0,1-.293-.5l-.046-7.691a.8.8,0,0,0-.233-.626,1.707,1.707,0,0,0-1.144-.284.576.576,0,0,1-.117-1.146,2.855,2.855,0,0,1,2.026.57,1.935,1.935,0,0,1,.619,1.479l.046,7.691a.576.576,0,0,1-.859.5" transform="translate(-736.83 -355.512)" fill="#fff"/>
      <path id="Trazado_1015261" data-name="Trazado 1015261" d="M731.764,182.917c-4.739,1.284-3.3,6.887-1.3,7.462l1.607-3.836Z" transform="translate(-590.43 -148.231)" fill="#fff"/>
      <path id="Trazado_1015262" data-name="Trazado 1015262" d="M729.078,189.373c-1.168-.337-2.107-2.064-2.092-3.848a4.228,4.228,0,0,1,3.4-4.2.3.3,0,0,1,.382.268l.3,3.626a.3.3,0,0,1-.023.142l-1.606,3.836a.3.3,0,0,1-.28.187.3.3,0,0,1-.084-.012m1.117-7.353a3.607,3.607,0,0,0-2.6,3.51A3.763,3.763,0,0,0,729,188.683l1.46-3.486Z" transform="translate(-589.133 -146.934)"/>
      <path id="Trazado_1015263" data-name="Trazado 1015263" d="M737.205,197.347a.3.3,0,0,0,.267-.449l-1.154-2.122a.3.3,0,1,0-.534.29l1.154,2.122a.3.3,0,0,0,.267.159" transform="translate(-596.232 -157.713)"/>
      <path id="Trazado_1015264" data-name="Trazado 1015264" d="M848.269,51.3a5.271,5.271,0,0,1,1.349-1.8c2.392-1.944,5.648.718,7.034,2.7,3.316,4.748,2.442,11,7.486,14.7,2.253,1.65,4.872,2.8,6.932,4.686s3.5,4.887,2.45,7.475c-.795,1.961-2.812,3.216-3.638,5.164-.683,1.611-.453,3.453-.787,5.171a8.067,8.067,0,0,1-4.636,5.765c-2.827,1.222-6.144.259-9.009-.373a13.8,13.8,0,0,1-8.073-5.444,11.615,11.615,0,0,1-.416-12.715c1.158-1.745,2.884-3.2,3.4-5.23.9-3.528-2.26-6.218-3.077-9.419a16.042,16.042,0,0,1,.674-10c.1-.231.2-.461.308-.686" transform="translate(-684.981 -39.57)"/>
      <path id="Trazado_1015265" data-name="Trazado 1015265" d="M733.766,448.811l1.353,6.773s-6.909,7.207-8.4,5.793c-.442-.419,3.139-7.944,3.139-7.944l-1.216-3.22Z" transform="translate(-588.885 -363.706)" fill="#fff"/>
      <path id="Trazado_1015266" data-name="Trazado 1015266" d="M725.2,460.3c-.2-.191-.431-.408,1.334-4.47.714-1.643,1.475-3.265,1.684-3.707l-1.17-3.1a.3.3,0,0,1,.2-.4l5.124-1.4a.3.3,0,0,1,.378.233l1.353,6.773a.3.3,0,0,1-.078.27c-.017.018-1.76,1.832-3.664,3.448-2.079,1.766-3.524,2.625-4.439,2.625a1.011,1.011,0,0,1-.726-.269m7.023-12.407-4.488,1.227,1.1,2.908a.3.3,0,0,1-.01.238c-1.559,3.275-3.128,6.952-3.149,7.636.891.56,4.676-2.466,7.807-5.712Z" transform="translate(-587.572 -362.408)"/>
      <path id="Trazado_1015267" data-name="Trazado 1015267" d="M798.892,452.267l1.534,2.5s-2.984,9.213-2.189,9.478,7.693-6.392,7.428-7.518-2.413-6.506-2.413-6.506Z" transform="translate(-646.764 -364.846)" fill="#fff"/>
      <path id="Trazado_1015268" data-name="Trazado 1015268" d="M796.84,463.232c-.387-.129-.439-.636-.2-1.937.15-.806.418-1.906.8-3.271.553-2,1.185-3.992,1.354-4.518l-1.461-2.378a.3.3,0,0,1,.13-.434l4.36-2.049a.3.3,0,0,1,.411.162c.088.221,2.159,5.414,2.426,6.549.289,1.226-4.575,5.688-4.624,5.733-2.081,1.9-2.765,2.17-3.049,2.169a.432.432,0,0,1-.147-.027m1.188-12.132,1.356,2.207a.3.3,0,0,1,.03.253c-1.252,3.864-2.411,8.154-2.313,9.056a29.231,29.231,0,0,0,5.89-5.447c1.1-1.326,1.078-1.663,1.078-1.672-.221-.94-1.827-5.018-2.281-6.163Z" transform="translate(-645.462 -363.548)"/>
      <path id="Trazado_1015269" data-name="Trazado 1015269" d="M768.778,264.7c3.382,11.341-15.122,18.106-15.122,18.106l4.974,16.817-5.535,2.6s-13.168-20.214-10.78-26.581,18.7-12.734,18.7-12.734Z" transform="translate(-601.321 -213.053)" fill="#4666c9"/>
      <path id="Trazado_1015270" data-name="Trazado 1015270" d="M745.039,261.613c.02-.837-14.3-.554-20.295,9.153-5.483,8.875,0,29.248,0,29.248l6.168-1.687.8-21,16.315-7.362Z" transform="translate(-585.341 -211.76)" fill="#4666c9"/>
      <path id="Trazado_1015271" data-name="Trazado 1015271" d="M838.121,178.508c-1.769-7.45,2.913-11.93,3.007-15.9.13-5.527-6.678-7-9.363-5.527-6.112,3.581-3.7,19.329-3.7,19.329Z" transform="translate(-670.663 -126.864)" fill="#f57a3e"/>
      <path id="Trazado_1015272" data-name="Trazado 1015272" d="M758.632,159.377s-4.874,8.091-20.4,8.091c0,0-1.369,3.051-.705,4.775,0,0,14.326,3.8,22.682-2.678s-1.581-10.188-1.581-10.188" transform="translate(-597.531 -129.155)" fill="#f57a3e"/>
      <path id="Trazado_1015273" data-name="Trazado 1015273" d="M858.939,126.587s.222,2.959-1.016,4.189a6.643,6.643,0,0,1,5.543,1.409s-1.4-2.334-.592-7.511Z" transform="translate(-695.241 -101.033)" fill="#fff"/>
      <path id="Trazado_1015274" data-name="Trazado 1015274" d="M862.169,131.192a.3.3,0,0,0,.26-.46c-.013-.022-1.331-2.326-.552-7.308a.3.3,0,0,0-.6-.094,14.879,14.879,0,0,0,.237,6.761,7.114,7.114,0,0,0-4.2-1.033,8.031,8.031,0,0,0,.636-3.791.3.3,0,0,0-.606.045c0,.028.2,2.835-.928,3.951a.3.3,0,0,0,.3.506,6.425,6.425,0,0,1,5.274,1.362.3.3,0,0,0,.181.06" transform="translate(-693.944 -99.736)"/>
      <path id="Trazado_1015275" data-name="Trazado 1015275" d="M844.734,77.642c-6.143-.128-5.571-15.387,0-14.856s6.367,14.989,0,14.856" transform="translate(-680.991 -50.869)" fill="#fff"/>
      <path id="Trazado_1015276" data-name="Trazado 1015276" d="M843.431,76.648a4.128,4.128,0,0,1-3.6-2.536c-1.62-3.126-1.412-8.466.435-11.2a3.4,3.4,0,0,1,3.2-1.724c3.233.308,4.975,4.972,4.734,9.116-.271,4.685-2.583,6.347-4.686,6.347h-.083m.093-.606c2.752,0,3.907-2.973,4.07-5.775.287-4.962-1.949-8.263-4.186-8.476a2.8,2.8,0,0,0-2.638,1.459c-1.711,2.534-1.9,7.677-.4,10.583a3.621,3.621,0,0,0,3.072,2.208l-.006.3.006-.3h.081" transform="translate(-679.695 -49.571)"/>
      <path id="Trazado_1015277" data-name="Trazado 1015277" d="M797.212,484.455a.3.3,0,0,0,.182-.061,26.586,26.586,0,0,0,7.165-7.652.3.3,0,0,0-.534-.29,26.529,26.529,0,0,1-7,7.457.3.3,0,0,0,.183.546" transform="translate(-645.796 -385.976)"/>
      <path id="Trazado_1015278" data-name="Trazado 1015278" d="M726.575,482.956c2.214,0,7.422-5.5,8.031-6.151a.3.3,0,0,0-.444-.415c-2.3,2.463-6.426,6.254-7.7,5.947a.3.3,0,1,0-.143.591,1.1,1.1,0,0,0,.259.029" transform="translate(-588.402 -385.977)"/>
      <path id="Trazado_1015279" data-name="Trazado 1015279" d="M811.887,471.456a.3.3,0,0,0,.184-.545,2.829,2.829,0,0,0-3.177-.052.3.3,0,1,0,.329.511,2.212,2.212,0,0,1,2.483.025.3.3,0,0,0,.182.06" transform="translate(-655.396 -381.197)"/>
      <path id="Trazado_1015280" data-name="Trazado 1015280" d="M809.664,478.735a.3.3,0,0,0,.239-.49,2.43,2.43,0,0,0-2.887-.5.3.3,0,1,0,.233.561,1.8,1.8,0,0,1,2.177.314.305.305,0,0,0,.238.113" transform="translate(-653.835 -386.952)"/>
      <path id="Trazado_1015281" data-name="Trazado 1015281" d="M807.08,486.141a.3.3,0,0,0,.234-.5,2.227,2.227,0,0,0-2.377-.5.3.3,0,0,0,.166.585,1.643,1.643,0,0,1,1.743.3.3.3,0,0,0,.234.11" transform="translate(-652.123 -393.052)"/>
      <path id="Trazado_1015282" data-name="Trazado 1015282" d="M744.69,471.177a.3.3,0,0,0,.209-.524,2.546,2.546,0,0,0-2.9-.279.3.3,0,1,0,.274.542,1.953,1.953,0,0,1,2.209.18.3.3,0,0,0,.207.081" transform="translate(-601.164 -380.919)"/>
      <path id="Trazado_1015283" data-name="Trazado 1015283" d="M741.8,477.8a.3.3,0,0,0,.217-.515,2.631,2.631,0,0,0-2.741-.482.3.3,0,1,0,.2.574,2.033,2.033,0,0,1,2.108.335.306.306,0,0,0,.216.089" transform="translate(-598.93 -386.242)"/>
      <path id="Trazado_1015284" data-name="Trazado 1015284" d="M738.572,484.008a.3.3,0,0,0,.263-.453,1.862,1.862,0,0,0-2.011-.8.3.3,0,1,0,.124.594,1.25,1.25,0,0,1,1.36.509.306.306,0,0,0,.263.149" transform="translate(-596.91 -391.174)"/>
      <path id="Trazado_1015285" data-name="Trazado 1015285" d="M837.119,59.856s-6.231-1.415-7.051,6.455c0,0,6.166,2.034,7.051-6.455" transform="translate(-672.668 -48.425)"/>
      <path id="Trazado_1015286" data-name="Trazado 1015286" d="M862.43,63.365c1.052,2.769,2.94,4.621,4.218,4.135s1.46-3.124.408-5.893-2.94-4.621-4.218-4.135-1.46,3.123-.408,5.893" transform="translate(-698.34 -46.511)"/>
      <path id="Trazado_1015287" data-name="Trazado 1015287" d="M878,99c-.246,1.13.206,2.188,1.009,2.363s1.653-.6,1.9-1.73-.206-2.188-1.009-2.363-1.653.6-1.9,1.73" transform="translate(-711.458 -78.803)" fill="#fff"/>
      <path id="Trazado_1015288" data-name="Trazado 1015288" d="M878.23,100.394a1.686,1.686,0,0,0,1.131-.48,2.876,2.876,0,0,0,.833-1.515,2.165,2.165,0,0,0-1.241-2.724c-.965-.209-1.979.671-2.26,1.963a.3.3,0,1,0,.594.129c.206-.948.911-1.634,1.538-1.5s.982,1.053.776,2a2.267,2.267,0,0,1-.648,1.194,1.013,1.013,0,0,1-.889.3.3.3,0,1,0-.129.594,1.4,1.4,0,0,0,.3.032" transform="translate(-710.445 -77.508)"/>
      <path id="Trazado_1015289" data-name="Trazado 1015289" d="M828.769,197.324a.3.3,0,0,0,.079-.011c7.205-1.94,9.13-6.744,9.208-6.948a.3.3,0,1,0-.567-.218c-.018.046-1.909,4.724-8.8,6.58a.3.3,0,0,0,.079.6" transform="translate(-671.369 -153.933)"/>
      <path id="Trazado_1015290" data-name="Trazado 1015290" d="M749.109,302.653a.3.3,0,0,0,.242-.486c-.061-.081-6.089-8.213-3.834-15.8,1.318-4.437,5.187-7.848,11.5-10.137a.3.3,0,0,0-.207-.571c-6.5,2.359-10.5,5.905-11.875,10.538-2.341,7.884,3.869,16.254,3.932,16.338a.3.3,0,0,0,.243.121" transform="translate(-603.25 -223.37)"/>
      <path id="Trazado_1015291" data-name="Trazado 1015291" d="M514.794,162.494a2.357,2.357,0,1,0-2.357,2.357,2.357,2.357,0,0,0,2.357-2.357" transform="translate(-413.357 -129.771)" fill="#4666c9"/>
    </g>
  </g>
</svg>
