<svg xmlns="http://www.w3.org/2000/svg" width="73" height="73" viewBox="0 0 73 73">
  <g id="Grupo_1181047" data-name="Grupo 1181047" transform="translate(-717.396 -1574.227)">
    <rect id="Rectángulo_454573" data-name="Rectángulo 454573" width="73" height="73" rx="5" transform="translate(717.396 1574.227)" fill="#c8bf57"/>
    <g id="Grupo_1181634" data-name="Grupo 1181634" transform="translate(727.396 1567.295)">
      <g id="Grupo_1181632" data-name="Grupo 1181632" transform="translate(0.776 19.663)">
        <g id="Grupo_1181630" data-name="Grupo 1181630" transform="translate(0 0.451)">
          <path id="Trazado_1014326" data-name="Trazado 1014326" d="M39.72,122.121H9.2a1.7,1.7,0,0,1-1.7-1.7V81.848a1.7,1.7,0,0,1,1.7-1.7H39.72a1.7,1.7,0,0,1,1.7,1.7v38.575A1.7,1.7,0,0,1,39.72,122.121Z" transform="translate(-7.5 -75.034)" fill="#e49280"/>
          <path id="Trazado_1014327" data-name="Trazado 1014327" d="M300.745,80.149h-2.08a1.7,1.7,0,0,1,1.7,1.7v38.575a1.7,1.7,0,0,1-1.7,1.7h2.08a1.7,1.7,0,0,0,1.7-1.7V81.848A1.7,1.7,0,0,0,300.745,80.149Z" transform="translate(-268.524 -75.034)" fill="#dd7f66"/>
          <path id="Trazado_1014328" data-name="Trazado 1014328" d="M0,0H34.726V26.673H0Z" transform="translate(30.296 8.738) rotate(90)" fill="#eaf6ff"/>
          <path id="Trazado_1014329" data-name="Trazado 1014329" d="M280.074,115.148h2.08v34.726h-2.08Z" transform="translate(-251.858 -106.41)" fill="#d8ecfe"/>
          <path id="Trazado_1014330" data-name="Trazado 1014330" d="M101.87,33.8v-.738a2.325,2.325,0,1,0-4.649,0V33.8H93.848a1.638,1.638,0,0,0-1.556,1.127l-1.025,3.122A1.087,1.087,0,0,0,92.3,39.478h14.413a1.087,1.087,0,0,0,1.038-1.408l-.966-3.114a1.638,1.638,0,0,0-1.564-1.153Z" transform="translate(-82.547 -30.74)" fill="#8ebac5"/>
          <g id="Grupo_1181629" data-name="Grupo 1181629" transform="translate(15.958)">
            <path id="Trazado_1014331" data-name="Trazado 1014331" d="M162.948,33.065a.738.738,0,0,0,.738.738h1.342v-.738a2.324,2.324,0,0,0-3.365-2.079A2.324,2.324,0,0,1,162.948,33.065Z" transform="translate(-161.663 -30.74)" fill="#7ca1b1"/>
            <path id="Trazado_1014332" data-name="Trazado 1014332" d="M211.054,64.593l-.966-3.114a1.638,1.638,0,0,0-1.564-1.153h-2.08a1.638,1.638,0,0,1,1.564,1.153l.966,3.114A1.087,1.087,0,0,1,207.936,66h2.08A1.087,1.087,0,0,0,211.054,64.593Z" transform="translate(-201.808 -57.264)" fill="#7ca1b1"/>
          </g>
        </g>
        <g id="Grupo_1181631" data-name="Grupo 1181631" transform="translate(7.246 12.811)">
          <path id="Trazado_1014333" data-name="Trazado 1014333" d="M77.5,150.148h4.02v4.02H77.5Z" transform="translate(-77.499 -150.148)" fill="#60b7ff"/>
          <path id="Trazado_1014334" data-name="Trazado 1014334" d="M77.5,225.691h4.02v4.02H77.5Z" transform="translate(-77.499 -217.871)" fill="#60b7ff"/>
          <path id="Trazado_1014335" data-name="Trazado 1014335" d="M77.5,301.234h4.02v4.02H77.5Z" transform="translate(-77.499 -285.594)" fill="#60b7ff"/>
          <path id="Trazado_1014336" data-name="Trazado 1014336" d="M77.5,376.777h4.02v4.02H77.5Z" transform="translate(-77.499 -353.317)" fill="#60b7ff"/>
        </g>
        <circle id="Elipse_13871" data-name="Elipse 13871" cx="9.954" cy="9.954" r="9.954" transform="translate(26.673 4.867)" fill="#fe76a8"/>
        <path id="Trazado_1014337" data-name="Trazado 1014337" d="M338.546,73.407a9.963,9.963,0,0,0-2.63.352,9.956,9.956,0,0,1,0,19.2,9.955,9.955,0,1,0,2.63-19.556Z" transform="translate(-301.919 -68.54)" fill="#fe5694"/>
        <ellipse id="Elipse_13872" data-name="Elipse 13872" cx="6.331" cy="6.331" rx="6.331" ry="6.331" transform="translate(28.363 11.387) rotate(-22.514)" fill="#eaf6ff"/>
        <path id="Trazado_1014338" data-name="Trazado 1014338" d="M390.127,115.633a9.958,9.958,0,0,1,0,11.165,6.328,6.328,0,0,0,0-11.165Z" transform="translate(-350.519 -106.394)" fill="#d8ecfe"/>
        <path id="Trazado_1014339" data-name="Trazado 1014339" d="M337.875,148.821a2.708,2.708,0,1,1,2.708-2.708A2.711,2.711,0,0,1,337.875,148.821Z" transform="translate(-301.248 -131.293)" fill="#fe76a8"/>
        <path id="Trazado_1014340" data-name="Trazado 1014340" d="M453.262,46.264l2.264.832a1.026,1.026,0,0,0,1.08-.237l1.758-1.758a.691.691,0,0,0,0-.977l-1.48-1.48Z" transform="translate(-407.118 -40.96)" fill="#d8ecfe"/>
        <path id="Trazado_1014341" data-name="Trazado 1014341" d="M445.509,31.691l-.832-2.264a1.026,1.026,0,0,1,.237-1.08l1.758-1.758a.691.691,0,0,1,.977,0l1.48,1.48Z" transform="translate(-399.365 -26.387)" fill="#eaf6ff"/>
      </g>
      <g id="Grupo_1181633" data-name="Grupo 1181633" transform="translate(0 18.887)">
        <path id="Trazado_1014342" data-name="Trazado 1014342" d="M74.8,142.648h-4.02a.776.776,0,0,0-.776.776v4.02a.776.776,0,0,0,.776.776H74.8a.776.776,0,0,0,.776-.776v-4.02A.776.776,0,0,0,74.8,142.648Zm-.776,4.02H71.552V144.2h2.467Z" transform="translate(-62.753 -129.837)"/>
        <path id="Trazado_1014343" data-name="Trazado 1014343" d="M74.8,218.191h-4.02a.776.776,0,0,0-.776.776v4.02a.776.776,0,0,0,.776.776H74.8a.776.776,0,0,0,.776-.776v-4.02A.776.776,0,0,0,74.8,218.191Zm-.776,4.02H71.552v-2.467h2.467Z" transform="translate(-62.753 -197.56)"/>
        <path id="Trazado_1014344" data-name="Trazado 1014344" d="M74.8,293.734h-4.02a.776.776,0,0,0-.776.776v4.02a.776.776,0,0,0,.776.776H74.8a.776.776,0,0,0,.776-.776v-4.02A.776.776,0,0,0,74.8,293.734Zm-.776,4.02H71.552v-2.467h2.467Z" transform="translate(-62.753 -265.283)"/>
        <path id="Trazado_1014345" data-name="Trazado 1014345" d="M74.8,369.277h-4.02a.776.776,0,0,0-.776.776v4.02a.776.776,0,0,0,.776.776H74.8a.776.776,0,0,0,.776-.776v-4.02A.776.776,0,0,0,74.8,369.277Zm-.776,4.02H71.552V370.83h2.467Z" transform="translate(-62.753 -333.006)"/>
        <path id="Trazado_1014346" data-name="Trazado 1014346" d="M161.311,237.606H150.1a.776.776,0,0,0,0,1.553h11.216a.776.776,0,0,0,0-1.553Z" transform="translate(-133.862 -214.965)"/>
        <path id="Trazado_1014347" data-name="Trazado 1014347" d="M161.311,313.15H150.1a.776.776,0,0,0,0,1.553h11.216a.776.776,0,1,0,0-1.553Z" transform="translate(-133.862 -282.689)"/>
        <path id="Trazado_1014348" data-name="Trazado 1014348" d="M161.311,388.693H150.1a.776.776,0,0,0,0,1.553h11.216a.776.776,0,1,0,0-1.553Z" transform="translate(-133.862 -350.412)"/>
        <path id="Trazado_1014349" data-name="Trazado 1014349" d="M52.571,22.277l-.931-.931.406-.406a.776.776,0,0,0-1.1-1.1l-.406.406-.931-.931a1.467,1.467,0,0,0-2.075,0l-1.758,1.758a1.808,1.808,0,0,0-.417,1.9l.661,1.8-1.6,1.6A10.719,10.719,0,0,0,33.472,24.5,2.457,2.457,0,0,0,33,24.452H25.866l-.109-.353a2.4,2.4,0,0,0-2.306-1.7H20.876a3.1,3.1,0,0,0-6.2,0h-2.6a2.409,2.409,0,0,0-2.294,1.661L8.76,27.184a1.863,1.863,0,0,0-.066.891H4.4a.776.776,0,0,0-.776.776V63.577a.776.776,0,0,0,.776.776H31.073a.776.776,0,0,0,.776-.776V43.662a10.687,10.687,0,0,0,2.07.971V65.5a.923.923,0,0,1-.922.922H2.475a.923.923,0,0,1-.922-.922V26.927A.923.923,0,0,1,2.475,26H6.531a.776.776,0,1,0,0-1.553H2.475A2.478,2.478,0,0,0,0,26.927V65.5a2.478,2.478,0,0,0,2.475,2.475H33A2.478,2.478,0,0,0,35.472,65.5V45.04A10.726,10.726,0,0,0,45.516,27.469l1.6-1.6,1.8.661a1.807,1.807,0,0,0,1.9-.417l1.758-1.758a1.469,1.469,0,0,0,0-2.075Zm-5.7-.1,1.7-1.7.871.871L47.23,23.56l-.413-1.124A.251.251,0,0,1,46.875,22.173ZM30.836,26a10.824,10.824,0,0,0-2.033,2.07H26.782a1.859,1.859,0,0,0-.06-.862L26.347,26ZM10.278,27.947a.3.3,0,0,1-.043-.279l1.025-3.123a.86.86,0,0,1,.818-.593H15.45a.776.776,0,0,0,.776-.776v-.738a1.548,1.548,0,0,1,3.1,0v.738a.776.776,0,0,0,.776.776h3.351a.857.857,0,0,1,.823.606l.277.892,0,.015.684,2.207a.31.31,0,0,1-.294.4H10.527A.3.3,0,0,1,10.278,27.947ZM30.3,62.8H5.176V29.628H27.837a10.651,10.651,0,0,0-1.135,4.08H16.233a.776.776,0,0,0,0,1.553H26.7a10.711,10.711,0,0,0,3.6,7.255ZM46.58,34.485a9.189,9.189,0,1,1-3.263-7.012l-1.471,1.471A7.071,7.071,0,0,0,37.4,27.377a7.154,7.154,0,0,0-6.812,5.079.776.776,0,1,0,1.488.444A5.591,5.591,0,0,1,37.4,28.93a5.525,5.525,0,0,1,3.338,1.118l-1.487,1.487a3.489,3.489,0,1,0,1.1,1.1l1.487-1.487A5.551,5.551,0,0,1,37.4,40.039a5.592,5.592,0,0,1-5.323-3.966.776.776,0,1,0-1.488.445A7.107,7.107,0,0,0,44.51,34.484a7.071,7.071,0,0,0-1.566-4.443l1.471-1.471a9.136,9.136,0,0,1,2.166,5.914Zm-7.246,0a1.938,1.938,0,1,1-1.231-1.8l-1.249,1.249a.776.776,0,1,0,1.1,1.1L39.2,33.784A1.918,1.918,0,0,1,39.334,34.485Zm10.38-9.471a.25.25,0,0,1-.263.058l-1.124-.413,2.214-2.214.871.871Z" transform="translate(0 -18.887)"/>
      </g>
    </g>
  </g>
</svg>
