<svg xmlns="http://www.w3.org/2000/svg" width="100" height="100" viewBox="0 0 100 100">
  <g id="Grupo_1181020" data-name="Grupo 1181020" transform="translate(-637 -6992)">
    <g id="Grupo_1098742" data-name="Grupo 1098742" transform="translate(637.242 6992)">
      <rect id="Rectángulo_400898" data-name="Rectángulo 400898" width="100" height="100" rx="50" transform="translate(-0.242)" fill="#fff" opacity="0.859"/>
      <g id="Rectángulo_400907" data-name="Rectángulo 400907" transform="translate(-0.242)" fill="none" stroke="#c8bf57" stroke-linecap="round" stroke-width="3" stroke-dasharray="0 7">
        <rect width="100" height="100" rx="50" stroke="none"/>
        <rect x="1.5" y="1.5" width="97" height="97" rx="48.5" fill="none"/>
      </g>
    </g>
    <g id="Grupo_1107006" data-name="Grupo 1107006" transform="translate(645.398 7000.157)">
      <rect id="Rectángulo_400898-2" data-name="Rectángulo 400898" width="84" height="84" rx="42" transform="translate(-0.399 -0.157)" fill="#405425"/>
      <rect id="Rectángulo_400907-2" data-name="Rectángulo 400907" width="84" height="84" rx="42" transform="translate(-0.398 -0.157)" fill="none"/>
    </g>
    <g id="Grupo_1181225" data-name="Grupo 1181225" transform="translate(657.522 7012.815)">
      <circle id="Elipse_13835" data-name="Elipse 13835" cx="7" cy="7" r="7" transform="translate(22.065 2.065)" fill="#759acc"/>
      <circle id="Elipse_13836" data-name="Elipse 13836" cx="3" cy="3" r="3" transform="translate(26.065 5.065)" fill="#adc4e6"/>
      <path id="Trazado_1013270" data-name="Trazado 1013270" d="M34.732,13.059A5.179,5.179,0,0,0,31.527,12C29.028,12,27,13.621,27,15.621v.217a7.227,7.227,0,0,0,9.053,0v-.217A3.32,3.32,0,0,0,34.732,13.059Z" transform="translate(-2.461 -1.041)" fill="#adc4e6"/>
      <circle id="Elipse_13837" data-name="Elipse 13837" cx="7" cy="7" r="7" transform="translate(42.065 11.065)" fill="#759acc"/>
      <ellipse id="Elipse_13838" data-name="Elipse 13838" cx="3" cy="2.5" rx="3" ry="2.5" transform="translate(46.065 15.065)" fill="#adc4e6"/>
      <path id="Trazado_1013271" data-name="Trazado 1013271" d="M56.732,23.059A5.179,5.179,0,0,0,53.527,22C51.028,22,49,23.621,49,25.621v.217a7.227,7.227,0,0,0,9.053,0v-.217A3.32,3.32,0,0,0,56.732,23.059Z" transform="translate(-4.544 -1.988)" fill="#adc4e6"/>
      <circle id="Elipse_13839" data-name="Elipse 13839" cx="7" cy="7" r="7" transform="translate(42.065 33.065)" fill="#759acc"/>
      <circle id="Elipse_13840" data-name="Elipse 13840" cx="3" cy="3" r="3" transform="translate(46.065 36.065)" fill="#adc4e6"/>
      <path id="Trazado_1013272" data-name="Trazado 1013272" d="M56.732,47.059A5.179,5.179,0,0,0,53.527,46C51.028,46,49,47.621,49,49.621v.217a7.227,7.227,0,0,0,9.053,0v-.217A3.32,3.32,0,0,0,56.732,47.059Z" transform="translate(-4.544 -4.26)" fill="#adc4e6"/>
      <circle id="Elipse_13841" data-name="Elipse 13841" cx="7" cy="7" r="7" transform="translate(22.065 42.065)" fill="#759acc"/>
      <circle id="Elipse_13842" data-name="Elipse 13842" cx="3" cy="3" r="3" transform="translate(26.065 45.065)" fill="#adc4e6"/>
      <path id="Trazado_1013273" data-name="Trazado 1013273" d="M34.732,57.059A5.179,5.179,0,0,0,31.527,56C29.028,56,27,57.621,27,59.621v.217a7.227,7.227,0,0,0,9.053,0v-.217A3.32,3.32,0,0,0,34.732,57.059Z" transform="translate(-2.461 -5.206)" fill="#adc4e6"/>
      <circle id="Elipse_13843" data-name="Elipse 13843" cx="7" cy="7" r="7" transform="translate(2.065 33.065)" fill="#759acc"/>
      <circle id="Elipse_13844" data-name="Elipse 13844" cx="3" cy="3" r="3" transform="translate(6.065 36.065)" fill="#adc4e6"/>
      <path id="Trazado_1013274" data-name="Trazado 1013274" d="M12.732,47.059A5.179,5.179,0,0,0,9.527,46C7.028,46,5,47.621,5,49.621v.217a7.227,7.227,0,0,0,9.053,0v-.217A3.32,3.32,0,0,0,12.732,47.059Z" transform="translate(-0.379 -4.26)" fill="#adc4e6"/>
      <circle id="Elipse_13845" data-name="Elipse 13845" cx="7" cy="7" r="7" transform="translate(2.065 11.065)" fill="#759acc"/>
      <ellipse id="Elipse_13846" data-name="Elipse 13846" cx="3" cy="2.5" rx="3" ry="2.5" transform="translate(6.065 15.065)" fill="#adc4e6"/>
      <path id="Trazado_1013275" data-name="Trazado 1013275" d="M12.732,23.059A5.179,5.179,0,0,0,9.527,22C7.028,22,5,23.621,5,25.621v.217a7.227,7.227,0,0,0,9.053,0v-.217A3.32,3.32,0,0,0,12.732,23.059Z" transform="translate(-0.379 -1.988)" fill="#adc4e6"/>
      <circle id="Elipse_13847" data-name="Elipse 13847" cx="9" cy="9" r="9" transform="translate(20.065 20.065)" fill="#ffe38f"/>
      <path id="Trazado_1013276" data-name="Trazado 1013276" d="M31.527,27l1.4,2.98,3.128.478L33.79,32.778l.534,3.276-2.8-1.546-2.8,1.546.534-3.276L27,30.458l3.128-.478Z" transform="translate(-2.461 -2.461)" fill="#ff8088"/>
      <path id="Trazado_1013277" data-name="Trazado 1013277" d="M57.131,18.2a8.144,8.144,0,0,0-13.317-6.294,22.246,22.246,0,0,0-6.7-3.983,8.137,8.137,0,0,0-16.092,0,22.235,22.235,0,0,0-6.7,3.983A8.146,8.146,0,1,0,6.67,25.961a20.357,20.357,0,0,0,0,6.209,8.146,8.146,0,1,0,7.646,14.054,22.246,22.246,0,0,0,6.7,3.983,8.137,8.137,0,0,0,16.092,0,22.235,22.235,0,0,0,6.7-3.983A8.146,8.146,0,1,0,51.461,32.17a20.357,20.357,0,0,0,0-6.209A8.16,8.16,0,0,0,57.131,18.2Zm-8.148-6.337A6.325,6.325,0,0,1,54.045,22a4.591,4.591,0,0,0-1.3-1.635,5.588,5.588,0,0,0-1.087-.651A3.622,3.622,0,1,0,46.3,19.7,4.91,4.91,0,0,0,43.922,22a6.326,6.326,0,0,1,5.061-10.136ZM47.172,17.3a1.811,1.811,0,1,1,1.811,1.811A1.812,1.812,0,0,1,47.172,17.3Zm1.811,3.621a4.26,4.26,0,0,1,2.635.856,2.476,2.476,0,0,1,.959,1.641,6.308,6.308,0,0,1-7.186,0c.15-1.394,1.694-2.5,3.592-2.5ZM42.542,44.9a20.393,20.393,0,0,1-5.368,3.31,8.159,8.159,0,0,0-7.2-7.324v-1.91a9.963,9.963,0,0,0,7.689-4.906l3.869,2.579A8.1,8.1,0,0,0,42.542,44.9ZM16.6,36.651l3.869-2.579a9.963,9.963,0,0,0,7.689,4.906v1.91a8.159,8.159,0,0,0-7.2,7.324,20.393,20.393,0,0,1-5.368-3.31A8.1,8.1,0,0,0,16.6,36.651ZM15.589,13.229a20.393,20.393,0,0,1,5.368-3.31,8.159,8.159,0,0,0,7.2,7.324v1.91a9.955,9.955,0,0,0-7.289,4.267L16.88,20.759a8.083,8.083,0,0,0-1.291-7.53ZM27.255,8.243a1.811,1.811,0,1,1,1.811,1.811A1.812,1.812,0,0,1,27.255,8.243Zm1.811,3.621a4.26,4.26,0,0,1,2.635.856,2.477,2.477,0,0,1,.959,1.641,6.308,6.308,0,0,1-7.186,0C25.623,12.969,27.167,11.864,29.065,11.864Zm8.148,17.2a8.148,8.148,0,1,1-8.148-8.148A8.157,8.157,0,0,1,37.213,29.065Zm-7.243-9.913v-1.91a8.159,8.159,0,0,0,7.2-7.324,20.393,20.393,0,0,1,5.368,3.31,8.078,8.078,0,0,0-1.29,7.53L37.261,23.42A9.956,9.956,0,0,0,29.971,19.153ZM29.065,2.811a6.325,6.325,0,0,1,5.063,10.133,4.591,4.591,0,0,0-1.3-1.635,5.588,5.588,0,0,0-1.087-.651,3.622,3.622,0,1,0-5.364-.007A4.91,4.91,0,0,0,24,12.947,6.326,6.326,0,0,1,29.065,2.811ZM2.811,18.2a6.337,6.337,0,1,1,11.4,3.8,4.591,4.591,0,0,0-1.3-1.635,5.588,5.588,0,0,0-1.087-.651A3.622,3.622,0,1,0,6.463,19.7,4.91,4.91,0,0,0,4.087,22a6.3,6.3,0,0,1-1.277-3.8ZM7.337,17.3a1.811,1.811,0,1,1,1.811,1.811A1.812,1.812,0,0,1,7.337,17.3Zm1.811,3.621a4.26,4.26,0,0,1,2.635.856,2.476,2.476,0,0,1,.959,1.641,6.308,6.308,0,0,1-7.186,0c.15-1.394,1.694-2.5,3.592-2.5Zm-.905,8.148a20.071,20.071,0,0,1,.2-2.751c.232.02.464.035.7.035a8.144,8.144,0,0,0,6.958-3.93L19.982,25a9.819,9.819,0,0,0-.284,7.408l-4.012,2.674a8.134,8.134,0,0,0-6.537-3.3c-.236,0-.469.015-.7.035A20.071,20.071,0,0,1,8.243,29.065ZM2.811,39.929a6.337,6.337,0,1,1,11.4,3.8,4.591,4.591,0,0,0-1.3-1.635,5.589,5.589,0,0,0-1.087-.651,3.622,3.622,0,1,0-5.364-.007,4.91,4.91,0,0,0-2.376,2.3A6.3,6.3,0,0,1,2.811,39.929Zm4.527-.905a1.811,1.811,0,1,1,1.811,1.811A1.812,1.812,0,0,1,7.337,39.024Zm-1.782,6.12c.15-1.394,1.694-2.5,3.592-2.5a4.26,4.26,0,0,1,2.635.856,2.476,2.476,0,0,1,.959,1.641,6.308,6.308,0,0,1-7.186,0ZM25.473,54.2c.15-1.394,1.694-2.5,3.592-2.5a4.26,4.26,0,0,1,2.635.856,2.477,2.477,0,0,1,.959,1.641,6.308,6.308,0,0,1-7.186,0Zm1.782-6.12a1.811,1.811,0,1,1,1.811,1.811A1.812,1.812,0,0,1,27.255,48.077Zm6.873,4.7a4.591,4.591,0,0,0-1.3-1.635,5.589,5.589,0,0,0-1.087-.651,3.622,3.622,0,1,0-5.364-.007A4.91,4.91,0,0,0,24,52.782a6.338,6.338,0,1,1,10.123,0ZM45.39,45.144c.15-1.394,1.694-2.5,3.592-2.5a4.26,4.26,0,0,1,2.635.856,2.476,2.476,0,0,1,.959,1.641,6.308,6.308,0,0,1-7.186,0Zm1.782-6.12a1.811,1.811,0,1,1,1.811,1.811A1.812,1.812,0,0,1,47.172,39.024Zm8.148.905a6.293,6.293,0,0,1-1.275,3.8,4.591,4.591,0,0,0-1.3-1.635,5.589,5.589,0,0,0-1.087-.651,3.622,3.622,0,1,0-5.364-.007,4.91,4.91,0,0,0-2.376,2.3,6.333,6.333,0,1,1,11.4-3.8ZM49.888,29.065a20.071,20.071,0,0,1-.2,2.751c-.232-.02-.464-.035-.7-.035a8.132,8.132,0,0,0-6.537,3.305l-4.012-2.674A9.821,9.821,0,0,0,38.149,25l3.876-2.584a8.144,8.144,0,0,0,6.958,3.93c.236,0,.469-.015.7-.035a20.071,20.071,0,0,1,.2,2.751Z" transform="translate(0)"/>
      <path id="Trazado_1013278" data-name="Trazado 1013278" d="M36.1,29.468l-2.651-.4-1.193-2.543a.905.905,0,0,0-1.639,0l-1.193,2.543-2.651.4A.906.906,0,0,0,26.257,31L28.2,32.988l-.461,2.825a.906.906,0,0,0,1.332.939l2.36-1.3,2.359,1.3a.906.906,0,0,0,1.332-.939l-.461-2.825,1.944-1.993a.905.905,0,0,0-.511-1.526Zm-3.048,2.583a.9.9,0,0,0-.245.778l.234,1.436L31.87,33.62a.9.9,0,0,0-.875,0l-1.166.645.234-1.436a.907.907,0,0,0-.245-.778l-1.033-1.058,1.386-.212a.907.907,0,0,0,.683-.51l.578-1.235.579,1.234a.9.9,0,0,0,.683.51l1.386.212Z" transform="translate(-2.367 -2.367)"/>
    </g>
  </g>
</svg>
