<svg xmlns="http://www.w3.org/2000/svg" width="100" height="100" viewBox="0 0 100 100">
  <g id="Grupo_1181017" data-name="Grupo 1181017" transform="translate(-637 -6992)">
    <g id="Grupo_1098742" data-name="Grupo 1098742" transform="translate(637.242 6992)">
      <rect id="Rectángulo_400898" data-name="Rectángulo 400898" width="100" height="100" rx="50" transform="translate(-0.242)" fill="#fff" opacity="0.859"/>
      <g id="Rectángulo_400907" data-name="Rectángulo 400907" transform="translate(-0.242)" fill="none" stroke="#c8bf57" stroke-linecap="round" stroke-width="3" stroke-dasharray="0 7">
        <rect width="100" height="100" rx="50" stroke="none"/>
        <rect x="1.5" y="1.5" width="97" height="97" rx="48.5" fill="none"/>
      </g>
    </g>
    <g id="Grupo_1107006" data-name="Grupo 1107006" transform="translate(645.398 7000.157)">
      <rect id="Rectángulo_400898-2" data-name="Rectángulo 400898" width="84" height="84" rx="42" transform="translate(-0.399 -0.157)" fill="#405425"/>
      <rect id="Rectángulo_400907-2" data-name="Rectángulo 400907" width="84" height="84" rx="42" transform="translate(-0.398 -0.157)" fill="none"/>
    </g>
    <g id="Grupo_1181216" data-name="Grupo 1181216" transform="translate(662.221 7017.221)">
      <g id="Grupo_1181214" data-name="Grupo 1181214" transform="translate(0.736 0.726)">
        <circle id="Elipse_13829" data-name="Elipse 13829" cx="19.565" cy="19.565" r="19.565" transform="translate(8.965 0)" fill="#f07281"/>
        <path id="Trazado_1013187" data-name="Trazado 1013187" d="M104.582,27.065A19.567,19.567,0,0,1,121.969,7.621a19.782,19.782,0,0,0-2.178-.121,19.565,19.565,0,0,0,0,39.131,19.782,19.782,0,0,0,2.178-.121A19.567,19.567,0,0,1,104.582,27.065Z" transform="translate(-91.26 -7.5)" fill="#eb5569"/>
        <g id="Grupo_1181213" data-name="Grupo 1181213" transform="translate(14.646 5.629)">
          <path id="Trazado_1013188" data-name="Trazado 1013188" d="M159.164,82.77l8.769,2.642a2.191,2.191,0,0,1,1.773.924,2.852,2.852,0,0,0,2.318,1.188h11.083a1.836,1.836,0,0,0,1.844-1.838,1.8,1.8,0,0,0-1.8-1.769h1.258a1.836,1.836,0,0,0,1.844-1.838,1.8,1.8,0,0,0-1.8-1.769h1.443a1.8,1.8,0,0,0,1.8-1.769A1.836,1.836,0,0,0,185.85,76.7h-1.4a1.8,1.8,0,0,0,1.8-1.769,1.836,1.836,0,0,0-1.844-1.838h-5.4a1.587,1.587,0,0,1-1.534-2l.432-1.623A3.119,3.119,0,0,0,175.7,65.66a.7.7,0,0,0-.635.488l-.738,2.773a5.62,5.62,0,0,1-5.431,4.174l-9.98,3.052Z" transform="translate(-158.913 -65.66)" fill="#fff3de"/>
          <g id="Grupo_1181212" data-name="Grupo 1181212" transform="translate(9.021 0)">
            <path id="Trazado_1013189" data-name="Trazado 1013189" d="M268.824,65.664a.695.695,0,0,0-.635.488l-.739,2.773a5.62,5.62,0,0,1-5.43,4.174h2.42a5.62,5.62,0,0,0,5.43-4.174l.585-2.2A3.093,3.093,0,0,0,268.824,65.664Z" transform="translate(-261.061 -65.664)" fill="#ffe5c2"/>
            <path id="Trazado_1013190" data-name="Trazado 1013190" d="M256.3,270.648a2.191,2.191,0,0,0-1.773-.924h-2.42a2.191,2.191,0,0,1,1.773.924,2.853,2.853,0,0,0,2.318,1.188h2.42A2.853,2.853,0,0,1,256.3,270.648Z" transform="translate(-252.11 -249.973)" fill="#ffe5c2"/>
          </g>
        </g>
        <path id="Trazado_1013191" data-name="Trazado 1013191" d="M115.393,145.04v13.9H101.781a19.643,19.643,0,0,1-.53-13.9Z" transform="translate(-91.264 -131.727)" fill="#62dbfb"/>
        <path id="Trazado_1013192" data-name="Trazado 1013192" d="M106.136,158.937h-4.356a19.643,19.643,0,0,1-.53-13.9h4.357a19.635,19.635,0,0,0,.529,13.9Z" transform="translate(-91.264 -131.727)" fill="#01d0fb"/>
        <circle id="Elipse_13830" data-name="Elipse 13830" cx="12.267" cy="12.267" r="12.267" transform="translate(0 23.562)" fill="#91deb6"/>
        <circle id="Elipse_13831" data-name="Elipse 13831" cx="9.135" cy="9.135" r="9.135" transform="translate(3.132 26.694)" fill="#6ed5a1"/>
        <path id="Trazado_1013193" data-name="Trazado 1013193" d="M87.659,347.926a2.064,2.064,0,0,1-1.327-.616l-1.649-1.649a1.286,1.286,0,0,1-.046-1.792,1.258,1.258,0,0,1,1.8-.017l1.213,1.212a.194.194,0,0,0,.274,0l3.885-3.885a1.286,1.286,0,0,1,1.792-.046,1.258,1.258,0,0,1,.017,1.8L89.2,347.342A2,2,0,0,1,87.659,347.926Z" transform="translate(-76.872 -308.531)" fill="#eaf6ff"/>
        <path id="Trazado_1013194" data-name="Trazado 1013194" d="M10.988,263.2a12.269,12.269,0,0,1,10.573-12.15,12.267,12.267,0,1,0,0,24.3A12.269,12.269,0,0,1,10.988,263.2Z" transform="translate(-7.6 -227.368)" fill="#6ed5a1"/>
        <path id="Trazado_1013195" data-name="Trazado 1013195" d="M43.348,292.425a9.137,9.137,0,0,1,7.441-8.977,9.135,9.135,0,1,0,0,17.955A9.137,9.137,0,0,1,43.348,292.425Z" transform="translate(-36.828 -256.596)" fill="#46cc8d"/>
        <path id="Trazado_1013196" data-name="Trazado 1013196" d="M223.468,132.214h3.314a.774.774,0,0,1,.774.774v13.873a.774.774,0,0,1-.774.774h-3.314a.774.774,0,0,1-.774-.774V132.988A.774.774,0,0,1,223.468,132.214Z" transform="translate(-201.875 -120.143)" fill="#01d0fb"/>
      </g>
      <g id="Grupo_1181215" data-name="Grupo 1181215" transform="translate(0)">
        <path id="Trazado_1013197" data-name="Trazado 1013197" d="M45.464,8.066a.726.726,0,1,0-1.158.875A18.841,18.841,0,0,1,29.266,39.13a18.941,18.941,0,0,1-3.457-.318,12.993,12.993,0,0,0-2.27-9.867h2.1a1.494,1.494,0,0,0,1.085-.466,3.589,3.589,0,0,0,1.765.466H39.576a2.6,2.6,0,0,0,1.846-.778,2.493,2.493,0,0,0,.387-3.007,2.6,2.6,0,0,0,.912-.6,2.492,2.492,0,0,0,.416-2.954,2.547,2.547,0,0,0,1.75-2.357,2.489,2.489,0,0,0-.724-1.8,2.608,2.608,0,0,0-1.031-.643,2.492,2.492,0,0,0-.411-2.964,2.6,2.6,0,0,0-1.847-.778H35.5a.884.884,0,0,1-.6-.225.859.859,0,0,1-.251-.857l.432-1.623a3.85,3.85,0,0,0-2.457-4.623,1.385,1.385,0,0,0-1.286.182l-.008.006a1.393,1.393,0,0,0-.5.732L30.09,9.43a4.923,4.923,0,0,1-3.158,3.376,1.5,1.5,0,0,0-1.288-.734H22.33a1.5,1.5,0,0,0-1.391.939H11.892a18.838,18.838,0,0,1,30.226-6.5.726.726,0,1,0,.991-1.061A20.294,20.294,0,0,0,9.331,24.081,13,13,0,1,0,25.477,40.226,20.3,20.3,0,0,0,49.558,20.292,20.116,20.116,0,0,0,45.464,8.066ZM31.493,9.8l.712-2.674a2.4,2.4,0,0,1,1.47,2.856l-.432,1.623a2.3,2.3,0,0,0,.48,2.1,2.365,2.365,0,0,0,1.8.806h5.349a1.143,1.143,0,0,1,.81.343,1.047,1.047,0,0,1,.308.756,1.083,1.083,0,0,1-1.072,1.057h-2.5a.726.726,0,1,0,0,1.452h3.9a1.142,1.142,0,0,1,.809.342,1.048,1.048,0,0,1,.309.756,1.083,1.083,0,0,1-1.077,1.057H38.42a.726.726,0,1,0,0,1.452h2.5a1.083,1.083,0,0,1,1.072,1.057,1.046,1.046,0,0,1-.308.756,1.143,1.143,0,0,1-.81.343H38.42a.726.726,0,1,0,0,1.452h1.2a1.082,1.082,0,0,1,1.074,1.056,1.048,1.048,0,0,1-.308.757,1.143,1.143,0,0,1-.81.342H28.494a2.129,2.129,0,0,1-1.35-.482V14.26A6.383,6.383,0,0,0,31.493,9.8Zm-9.212,3.768a.048.048,0,0,1,.048-.048h3.314a.048.048,0,0,1,.048.048V27.445a.048.048,0,0,1-.048.048H22.281Zm-11.854,6.72a18.768,18.768,0,0,1,.924-5.829h9.478V26.179a12.992,12.992,0,0,0-10.083-2.43,18.942,18.942,0,0,1-.318-3.457ZM13,48.106A11.551,11.551,0,1,1,24.553,36.555,11.564,11.564,0,0,1,13,48.106Z" transform="translate(0)"/>
        <path id="Trazado_1013198" data-name="Trazado 1013198" d="M42.321,276.6a9.862,9.862,0,0,0-1.828,19.552.726.726,0,1,0,.268-1.427,8.408,8.408,0,1,1,3.12,0,.726.726,0,1,0,.268,1.427A9.862,9.862,0,0,0,42.321,276.6Z" transform="translate(-29.318 -249.827)"/>
        <path id="Trazado_1013199" data-name="Trazado 1013199" d="M87.951,335.263a1.97,1.97,0,0,0-.607-1.411,2.015,2.015,0,0,0-2.809.055l-3.509,3.509-.836-.836a1.984,1.984,0,0,0-2.832.026,2.015,2.015,0,0,0,.055,2.809l1.649,1.649a2.784,2.784,0,0,0,1.8.827q.082,0,.163,0a2.737,2.737,0,0,0,1.935-.8l4.413-4.413a1.97,1.97,0,0,0,.581-1.421Zm-1.608.395L81.93,340.07a1.267,1.267,0,0,1-.985.372,1.335,1.335,0,0,1-.856-.4l-1.649-1.649a.564.564,0,0,1-.037-.775.529.529,0,0,1,.379-.163h.005a.528.528,0,0,1,.376.156l1.212,1.212a.921.921,0,0,0,1.3,0l3.885-3.885a.564.564,0,0,1,.775-.037.532.532,0,0,1,.007.76Z" transform="translate(-69.379 -301.047)"/>
      </g>
    </g>
  </g>
</svg>
