<svg xmlns="http://www.w3.org/2000/svg" width="50" height="50" viewBox="0 0 50 50">
  <g id="Grupo_1181859" data-name="Grupo 1181859" transform="translate(-179.75 -2855)">
    <g id="Grupo_1181034" data-name="Grupo 1181034" transform="translate(0.082 2023)">
      <rect id="Rectángulo_454129" data-name="Rectángulo 454129" width="50" height="50" rx="25" transform="translate(179.668 832)" fill="#ffd600"/>
      <g id="Grupo_1176508" data-name="Grupo 1176508" transform="translate(179.668 832)">
        <path id="Trazado_988918" data-name="Trazado 988918" d="M24.218,7.764a.36.36,0,0,0,.36-.36V4.148a.36.36,0,0,0-.36-.36H20.79V.36A.36.36,0,0,0,20.43,0H17.174a.36.36,0,0,0-.36.36V3.788H14.277V.36a.36.36,0,0,0-.36-.36H10.661a.36.36,0,0,0-.36.36V3.788H7.764V.36A.36.36,0,0,0,7.4,0H4.148a.36.36,0,0,0-.36.36V1.369a.36.36,0,1,0,.72,0V.72H7.044V10.3H4.508V2.807a.36.36,0,1,0-.72,0v.98H.36a.36.36,0,0,0-.36.36V7.4a.36.36,0,0,0,.36.36H3.788V10.3H.36a.36.36,0,0,0-.36.36v3.257a.36.36,0,0,0,.36.36H3.788v2.537H.36a.36.36,0,0,0-.36.36v3.257a.36.36,0,0,0,.36.36H3.788v3.427a.36.36,0,0,0,.36.36H7.4a.36.36,0,0,0,.36-.36V20.791H10.3v3.427a.36.36,0,0,0,.36.36h3.257a.36.36,0,0,0,.36-.36V20.791h2.536v3.427a.36.36,0,0,0,.36.36H20.43a.36.36,0,0,0,.36-.36V20.791h3.428a.36.36,0,0,0,.36-.36V17.174a.36.36,0,0,0-.36-.36H20.79V14.277h3.428a.36.36,0,0,0,.36-.36V10.661a.36.36,0,0,0-.36-.36H20.79V7.764ZM.72,7.044V4.508H3.788V7.044ZM23.858,4.508V7.044H20.79V4.508ZM14.277,10.3V7.764h2.536V10.3ZM7.764,14.277H10.3v2.537H7.764Zm3.257,2.536V7.764h2.536v9.05H11.021Zm3.257-2.536h2.536v2.537H14.277ZM11.021.72h2.536V3.788H11.021Zm5.793,3.788V7.044H7.764V4.508ZM7.764,7.764H10.3V10.3H7.764ZM.72,11.021H10.3v2.537H.72Zm0,9.05V17.534H3.788v2.537Zm3.788,3.788V14.277H7.044v9.581Zm9.05,0H11.021V20.791h2.536ZM7.764,20.071V17.534h9.05v2.537Zm16.094-2.537v2.537H20.79V17.534Zm0-3.977h-4.3a.36.36,0,0,0,0,.72h.514v9.581H17.534V14.277h.586a.36.36,0,0,0,0-.72H14.277V11.021h9.581ZM17.534,10.3V.72H20.07V10.3Z" transform="translate(12.711 12.711)" fill="#405425"/>
      </g>
    </g>
  </g>
</svg>
