<svg xmlns="http://www.w3.org/2000/svg" width="100" height="100" viewBox="0 0 100 100">
  <g id="Grupo_1181019" data-name="Grupo 1181019" transform="translate(-637 -6992)">
    <g id="Grupo_1098742" data-name="Grupo 1098742" transform="translate(637.242 6992)">
      <rect id="Rectángulo_400898" data-name="Rectángulo 400898" width="100" height="100" rx="50" transform="translate(-0.242)" fill="#fff" opacity="0.859"/>
      <g id="Rectángulo_400907" data-name="Rectángulo 400907" transform="translate(-0.242)" fill="none" stroke="#c8bf57" stroke-linecap="round" stroke-width="3" stroke-dasharray="0 7">
        <rect width="100" height="100" rx="50" stroke="none"/>
        <rect x="1.5" y="1.5" width="97" height="97" rx="48.5" fill="none"/>
      </g>
    </g>
    <g id="Grupo_1107006" data-name="Grupo 1107006" transform="translate(645.398 7000.157)">
      <rect id="Rectángulo_400898-2" data-name="Rectángulo 400898" width="84" height="84" rx="42" transform="translate(-0.399 -0.157)" fill="#405425"/>
      <rect id="Rectángulo_400907-2" data-name="Rectángulo 400907" width="84" height="84" rx="42" transform="translate(-0.398 -0.157)" fill="none"/>
    </g>
    <g id="Grupo_1181224" data-name="Grupo 1181224" transform="translate(656.413 7011.909)">
      <g id="Color" transform="translate(5.932 2.932)">
        <g id="Grupo_1181222" data-name="Grupo 1181222">
          <g id="Grupo_1181220" data-name="Grupo 1181220">
            <path id="Trazado_1013234" data-name="Trazado 1013234" d="M28.791,17.918H20.456A8.348,8.348,0,0,1,13.51,4.94L14.8,3h9.324a9.324,9.324,0,0,1,9.324,9.324v.932A4.663,4.663,0,0,1,28.791,17.918Z" transform="translate(-6.413 -3)" fill="#ffc857"/>
            <path id="Trazado_1013235" data-name="Trazado 1013235" d="M30.655,9.061a3.142,3.142,0,0,0-2.614-1.4H24.129A6.527,6.527,0,0,1,17.876,3H14.8L13.51,4.941a8.347,8.347,0,0,0,6.945,12.977h8.335a4.663,4.663,0,0,0,4.662-4.662v-.932a9.377,9.377,0,0,0-.187-1.865A3.142,3.142,0,0,1,30.655,9.061Z" transform="translate(-6.413 -3)" fill="#ffb41f"/>
            <g id="Grupo_1181219" data-name="Grupo 1181219" transform="translate(0 6.527)">
              <path id="Trazado_1013236" data-name="Trazado 1013236" d="M17.189,33H28.378A11.189,11.189,0,0,1,39.566,44.189V59.107H6V44.189A11.189,11.189,0,0,1,17.189,33Z" transform="translate(-6 -11.555)" fill="#d0d8da"/>
              <path id="Trazado_1013237" data-name="Trazado 1013237" d="M17,31H30.054v3.73H17Z" transform="translate(-6.744 -11.42)" fill="#93999a"/>
              <path id="Trazado_1013238" data-name="Trazado 1013238" d="M28.324,34.459l-4.662,1.865L19,34.459V27h9.324Z" transform="translate(-6.879 -11.149)" fill="#f6b98d"/>
              <path id="Trazado_1013239" data-name="Trazado 1013239" d="M26.459,32.594a8.347,8.347,0,0,1-3.911-.971,8.376,8.376,0,0,0,5.776-3.093V27H19v7.459l4.662,1.865,4.662-1.865v-2.08A8.364,8.364,0,0,1,26.459,32.594Z" transform="translate(-6.879 -11.149)" fill="#f3a268"/>
              <g id="Grupo_1181218" data-name="Grupo 1181218" transform="translate(0 19.58)">
                <path id="Trazado_1013240" data-name="Trazado 1013240" d="M35.837,48.862v-3.63a1.935,1.935,0,0,0-1.552-1.939,1.867,1.867,0,0,0-2.178,1.84v3.73h-3.73A13.054,13.054,0,0,1,15.324,35.809V33.171A11.191,11.191,0,0,0,7.386,38.8,11.64,11.64,0,0,0,6,44.474V59.119H39.566V52.592A3.73,3.73,0,0,1,35.837,48.862Z" transform="translate(-6 -31.147)" fill="#b8bebf"/>
                <path id="Trazado_1013241" data-name="Trazado 1013241" d="M25.594,37H20l.932,3.73L20,53.783l2.8,2.8,2.8-2.8L24.662,40.73Z" transform="translate(-6.946 -31.406)" fill="#b8bebf"/>
                <path id="Trazado_1013242" data-name="Trazado 1013242" d="M29.594,42.189,24,36.594,30.527,31l1.865,1.865Z" transform="translate(-7.217 -31)" fill="#b8bebf"/>
                <path id="Trazado_1013243" data-name="Trazado 1013243" d="M17.8,42.189l5.594-5.594L16.865,31,15,32.865Z" transform="translate(-6.608 -31)" fill="#b8bebf"/>
              </g>
              <path id="Trazado_1013244" data-name="Trazado 1013244" d="M25.662,40.73h-3.73L21,37h5.594Z" transform="translate(-7.014 -11.825)" fill="#608ea9"/>
              <path id="Trazado_1013245" data-name="Trazado 1013245" d="M24,37l2.238,2.238L26.8,37Z" transform="translate(-7.217 -11.825)" fill="#4f7992"/>
              <path id="Trazado_1013246" data-name="Trazado 1013246" d="M21,37l.559,2.238L23.8,37Z" transform="translate(-7.014 -11.825)" fill="#4f7992"/>
              <path id="Trazado_1013247" data-name="Trazado 1013247" d="M26.594,54.054l-2.8,2.8-2.8-2.8L21.932,41h3.73Z" transform="translate(-7.014 -12.096)" fill="#608ea9"/>
              <path id="Trazado_1013248" data-name="Trazado 1013248" d="M23.8,52.038V43.945a2.009,2.009,0,0,1,1.932-2L25.662,41h-3.73L21,54.054l2.8,2.8,2.8-2.8A2.125,2.125,0,0,1,23.8,52.038Z" transform="translate(-7.014 -12.096)" fill="#4f7992"/>
              <path id="Trazado_1013249" data-name="Trazado 1013249" d="M29.594,39.392,24,36.594,30.527,31l1.865,1.865Z" transform="translate(-7.217 -11.42)" fill="#e9f1f2"/>
              <path id="Trazado_1013250" data-name="Trazado 1013250" d="M17.8,39.392l5.594-2.8L16.865,31,15,32.865Z" transform="translate(-6.608 -11.42)" fill="#e9f1f2"/>
              <path id="Trazado_1013251" data-name="Trazado 1013251" d="M23.392,28.648A8.391,8.391,0,0,1,15,20.256V13.73l.9-.451a2.594,2.594,0,0,0,1.3-1.5A2.6,2.6,0,0,1,19.669,10h7.444a2.6,2.6,0,0,1,2.464,1.776,2.6,2.6,0,0,0,1.3,1.5l.9.451v6.527A8.391,8.391,0,0,1,23.392,28.648Z" transform="translate(-6.608 -10)" fill="#f9cdae"/>
              <path id="Trazado_1013252" data-name="Trazado 1013252" d="M33,18.594v-3.73a1.865,1.865,0,1,1,3.73,0A3.73,3.73,0,0,1,33,18.594Z" transform="translate(-7.825 -10.203)" fill="#f6b98d"/>
              <path id="Trazado_1013253" data-name="Trazado 1013253" d="M14.73,18.594v-3.73a1.865,1.865,0,1,0-3.73,0A3.73,3.73,0,0,0,14.73,18.594Z" transform="translate(-6.338 -10.203)" fill="#f6b98d"/>
              <path id="Trazado_1013254" data-name="Trazado 1013254" d="M34.865,14.865V13A1.864,1.864,0,0,0,33,14.865v3.73a3.713,3.713,0,0,0,2.98-1.508A2.785,2.785,0,0,1,34.865,14.865Z" transform="translate(-7.825 -10.203)" fill="#f3a268"/>
              <path id="Trazado_1013255" data-name="Trazado 1013255" d="M12.919,14.865V13a1.864,1.864,0,0,1,1.865,1.865v3.73a3.713,3.713,0,0,1-2.98-1.508A2.785,2.785,0,0,0,12.919,14.865Z" transform="translate(-6.392 -10.203)" fill="#f3a268"/>
              <path id="Trazado_1013256" data-name="Trazado 1013256" d="M30.881,13.278a2.594,2.594,0,0,1-1.3-1.5A2.6,2.6,0,0,0,27.114,10H19.669a2.6,2.6,0,0,0-2.464,1.776,2.6,2.6,0,0,1-1.3,1.5l-.9.451v6.527a8.385,8.385,0,0,0,15.549,4.365A8.381,8.381,0,0,1,17.8,17.459V12.669a2.593,2.593,0,0,1,1.872-.8h7.444a2.6,2.6,0,0,1,2.464,1.776,2.6,2.6,0,0,0,1.3,1.5l.9.451V13.73Z" transform="translate(-6.608 -10)" fill="#f6b98d"/>
            </g>
          </g>
          <g id="Grupo_1181221" data-name="Grupo 1181221" transform="translate(27.972 33.566)">
            <path id="Trazado_1013257" data-name="Trazado 1013257" d="M36,39H56.513V59.513H36Z" transform="translate(-36 -39)" fill="#f3a268"/>
            <path id="Trazado_1013258" data-name="Trazado 1013258" d="M53.716,54.851A12.121,12.121,0,0,1,41.594,42.73V39H36V59.513H56.513V54.851Z" transform="translate(-36 -39)" fill="#ef9050"/>
            <path id="Trazado_1013259" data-name="Trazado 1013259" d="M44,39h5.594v5.594H44Z" transform="translate(-36.541 -39)" fill="#f9cdae"/>
            <path id="Trazado_1013260" data-name="Trazado 1013260" d="M46.721,49l1.187,2.406,2.655.386-1.922,1.873.454,2.644-2.375-1.248-2.375,1.248.454-2.644-1.922-1.873,2.655-.386Z" transform="translate(-36.465 -39.676)" fill="#ffc857"/>
            <path id="Trazado_1013261" data-name="Trazado 1013261" d="M45.143,51.641l-2.264.329L44.8,53.842l-.453,2.644,2.375-1.248L49.1,56.488,48.739,54.4a12.15,12.15,0,0,1-3.6-2.764Z" transform="translate(-36.465 -39.855)" fill="#ffb41f"/>
          </g>
        </g>
      </g>
      <g id="Outline_copy" transform="translate(5 2)">
        <g id="Grupo_1181223" data-name="Grupo 1181223">
          <path id="Trazado_1013262" data-name="Trazado 1013262" d="M34.465,33.888A.932.932,0,1,0,35.584,32.4a12.056,12.056,0,0,0-3.622-1.846.9.9,0,0,0-.194-.3L29.9,28.381a.93.93,0,0,0-1.265-.048l-.327.278V27.156a9.306,9.306,0,0,0,3.73-7.441V18.688a4.67,4.67,0,0,0,3.73-4.568,2.793,2.793,0,0,0-1.907-2.639A10.3,10.3,0,0,0,23.648,2H21.783a.932.932,0,1,0,0,1.865h1.865A8.43,8.43,0,0,1,32,11.509a2.789,2.789,0,0,0-.961.6l-.414-.207a1.654,1.654,0,0,1-.835-.962,3.525,3.525,0,0,0-3.348-2.414H18.993a3.526,3.526,0,0,0-3.348,2.413,1.655,1.655,0,0,1-.835.964l-.414.207a2.779,2.779,0,0,0-1.573-.75,7.343,7.343,0,0,1,.983-5.97l1.017-1.526h3.231a.932.932,0,0,0,0-1.865h-3.73a.934.934,0,0,0-.776.415L12.254,4.356A9.19,9.19,0,0,0,11,11.746a2.789,2.789,0,0,0-1.337,2.375,4.671,4.671,0,0,0,3.73,4.568v1.027a9.306,9.306,0,0,0,3.73,7.441v1.455l-.326-.28a.932.932,0,0,0-1.265.048l-1.865,1.865a.912.912,0,0,0-.194.3A12.056,12.056,0,0,0,9.848,32.4,12.179,12.179,0,0,0,5,42.093V57.012a.932.932,0,0,0,1.865,0V42.093a10.307,10.307,0,0,1,4.1-8.205,10.176,10.176,0,0,1,2.966-1.53L16.264,37.8a.931.931,0,0,0,.536.508.941.941,0,0,0,.738-.042l2.068-1.034.34,1.359a.932.932,0,0,0,.9.706h2.857l.846,12.694-1.838,1.839L20.877,51.99l.655-9.834a.933.933,0,0,0-1.861-.124l-.683,10.256a.93.93,0,0,0,.271.721l2.8,2.8a.932.932,0,0,0,1.318,0l2.8-2.8a.933.933,0,0,0,.271-.721L25.52,38.447l.3-1.215,2.068,1.034a.953.953,0,0,0,.418.1.932.932,0,0,0,.857-.565L31.5,32.355a10.214,10.214,0,0,1,2.965,1.533ZM32.04,16.759V14.121a.932.932,0,1,1,1.865,0A2.8,2.8,0,0,1,32.04,16.759ZM11.527,14.121a.932.932,0,1,1,1.865,0v2.638A2.8,2.8,0,0,1,11.527,14.121Zm3.73,5.594V13.765l.387-.194a3.514,3.514,0,0,0,1.771-2.041,1.664,1.664,0,0,1,1.579-1.138h7.444a1.663,1.663,0,0,1,1.579,1.14,3.51,3.51,0,0,0,1.77,2.04l.388.193v5.951a7.459,7.459,0,0,1-14.918,0Zm3.73,8.54a9.262,9.262,0,0,0,7.459,0V30.21l-3.73,3.2-3.73-3.2ZM15.43,31.118l.808-.808,4.8,4.118-3.455,1.727Zm8.423,6.313H21.578l-.264-1.055,1.4-.7,1.4.7Zm3.99-1.276-3.455-1.727,4.8-4.118.808.808Z" transform="translate(-5 -2)"/>
          <path id="Trazado_1013263" data-name="Trazado 1013263" d="M11.932,45a.932.932,0,0,0-.932.932V59.918a.932.932,0,1,0,1.865,0V45.932A.932.932,0,0,0,11.932,45Z" transform="translate(-5.406 -4.907)"/>
          <path id="Trazado_1013264" data-name="Trazado 1013264" d="M26.592,16.536a1.707,1.707,0,0,1,2.411,0,.932.932,0,0,0,1.318-1.318,3.573,3.573,0,0,0-5.048,0,.932.932,0,1,0,1.318,1.318Z" transform="translate(-6.352 -2.823)"/>
          <circle id="Elipse_13833" data-name="Elipse 13833" cx="1" cy="1" r="1" transform="translate(20.175 13.972)"/>
          <path id="Trazado_1013265" data-name="Trazado 1013265" d="M21,16.536a.932.932,0,1,0,1.318-1.318,3.573,3.573,0,0,0-5.048,0,.932.932,0,1,0,1.318,1.318,1.707,1.707,0,0,1,2.411,0Z" transform="translate(-5.811 -2.823)"/>
          <circle id="Elipse_13834" data-name="Elipse 13834" cx="1" cy="1" r="1" transform="translate(13.175 13.972)"/>
          <path id="Trazado_1013266" data-name="Trazado 1013266" d="M26.009,24.157a4.1,4.1,0,0,1-4.56,0,.933.933,0,1,0-1.035,1.552,5.959,5.959,0,0,0,6.629,0,.932.932,0,0,0-1.034-1.552Z" transform="translate(-6.014 -3.487)"/>
          <path id="Trazado_1013267" data-name="Trazado 1013267" d="M22.273,21.456l.932.932a.932.932,0,1,0,1.318-1.318l-.443-.443.673-1.255a.932.932,0,1,0-1.643-.881l-1,1.865a.932.932,0,0,0,.162,1.1Z" transform="translate(-6.149 -3.082)"/>
          <path id="Trazado_1013268" data-name="Trazado 1013268" d="M56.445,48.256a.932.932,0,0,0,.932-.932V38.932A.932.932,0,0,0,56.445,38H35.932a.932.932,0,0,0-.932.932V59.445a.932.932,0,0,0,.932.932H56.445a.932.932,0,0,0,.932-.932V51.054a.932.932,0,1,0-1.865,0v7.459H36.865V39.865h5.594v4.662a.932.932,0,0,0,.932.932h5.594a.932.932,0,0,0,.932-.932V39.865h5.594v7.459A.932.932,0,0,0,56.445,48.256Zm-8.392-4.662h-3.73v-3.73h3.73Z" transform="translate(-7.028 -4.434)"/>
          <path id="Trazado_1013269" data-name="Trazado 1013269" d="M51.383,51.439a.934.934,0,0,0-.753-.635l-2.17-.315-.971-1.965a.97.97,0,0,0-1.672,0l-.971,1.965-2.17.315a.933.933,0,0,0-.517,1.591l1.571,1.53-.37,2.161a.932.932,0,0,0,1.352.983l1.941-1.02,1.941,1.02a.932.932,0,0,0,1.352-.983l-.37-2.161,1.571-1.53a.934.934,0,0,0,.235-.956Zm-3.459,1.493a.933.933,0,0,0-.268.825l.134.782-.7-.369a.937.937,0,0,0-.434-.106.927.927,0,0,0-.434.107l-.7.369.134-.782a.933.933,0,0,0-.268-.825l-.568-.554.785-.115a.932.932,0,0,0,.7-.51l.351-.712.352.711a.932.932,0,0,0,.7.51l.785.115Z" transform="translate(-7.493 -5.113)"/>
        </g>
      </g>
    </g>
  </g>
</svg>
