<svg xmlns="http://www.w3.org/2000/svg" width="120" height="120" viewBox="0 0 120 120">
  <g id="Grupo_1181211" data-name="Grupo 1181211" transform="translate(-204 -3720)">
    <rect id="Rectángulo_455435" data-name="Rectángulo 455435" width="120" height="120" rx="10" transform="translate(204 3720)" fill="#c8bf57"/>
    <g id="Grupo_1181210" data-name="Grupo 1181210" transform="translate(213.908 3729.93)">
      <ellipse id="Elipse_13816" data-name="Elipse 13816" cx="2.923" cy="2.648" rx="2.923" ry="2.648" transform="matrix(0.37, -0.929, 0.929, 0.37, 84.388, 44.581)" fill="#c45178"/>
      <ellipse id="Elipse_13817" data-name="Elipse 13817" cx="3.281" cy="2.597" rx="3.281" ry="2.597" transform="translate(43.856 23.519) rotate(-61.641)" fill="#c45178"/>
      <path id="Trazado_1013153" data-name="Trazado 1013153" d="M262.317,17.4l-3.147-1.846,1.9-3.247L257.142,10l-1.9,3.246L252.091,11.4l-2.308,3.933,3.147,1.846-2.139,3.75a6.779,6.779,0,0,0,4.9.606l1.169-2.049,3.147,1.846Z" transform="translate(-178.433 -2.563)" fill="#ffc362"/>
      <path id="Trazado_1013154" data-name="Trazado 1013154" d="M244.554,51.017l-3.272,5.736,3.933,2.308,4.243-7.437Z" transform="translate(-172.197 -32.651)" fill="#fa883e"/>
      <path id="Trazado_1013155" data-name="Trazado 1013155" d="M51.141,68.509a49.585,49.585,0,0,1,12.456-1.5l.47,8.622a5.472,5.472,0,0,1-.881,3.287L62.3,80.275a3.019,3.019,0,0,0-.481,1.887l.289,4.587L57.359,88.1l-.4-4.64a3.021,3.021,0,0,0-1.1-2.078L53.818,79.7a5.471,5.471,0,0,1-1.981-3.725Z" transform="translate(-32.72 -44.385)" fill="#fa883e"/>
      <path id="Trazado_1013156" data-name="Trazado 1013156" d="M85.075,127.2a28.494,28.494,0,0,0-4.6.432v-.737a1.814,1.814,0,0,0-1.587-1.8l-4.98-.627a2.015,2.015,0,0,0-2.14,1.3l-.355.955-1.691.229a18.422,18.422,0,0,0-8.527,3.912l-1.48,9.124,41.85.357Z" transform="translate(-39.01 -86.516)" fill="#ffc362"/>
      <path id="Trazado_1013157" data-name="Trazado 1013157" d="M181.279,49.324a11.382,11.382,0,0,1,9.106,4.274,17.691,17.691,0,0,1,8.92,5.055s6.318,3.437,3.717,12.385A16.067,16.067,0,0,1,192.464,82.03L168.549,68.836s-6.968-18.676,12.729-19.512Z" transform="translate(-117.967 -31.404)" fill="#6d68b7"/>
      <path id="Trazado_1013158" data-name="Trazado 1013158" d="M189.315,71.6c1.312-4.647,3.151-11.406,3.144-12.765L181.41,72.751l-3.9-1.921c-3.224-1.742-4.857-3.931-4.5-8.762.29-3.922,3.539-8.1,3.539-8.1l-5.358,1.676c-6.53,5.576-2.561,16.22-2.561,16.22l23.915,13.194A16.07,16.07,0,0,0,203.1,74.071a11.9,11.9,0,0,0-.189-8.231l-2.147-1.668s1.1,10.312-7.341,11.962A3.6,3.6,0,0,1,189.315,71.6Z" transform="translate(-118.028 -34.819)" fill="#4d5284"/>
      <path id="Trazado_1013159" data-name="Trazado 1013159" d="M70.338,213.413v27.22h1.351v-.1a3.958,3.958,0,0,1,3.957-3.958h36.969a3.957,3.957,0,0,1,3.957,3.958v.1h1.351v-27.22Z" transform="translate(-46.802 -151.775)" fill="#d88783"/>
      <path id="Trazado_1013160" data-name="Trazado 1013160" d="M70.338,213.413h47.587v4.161H70.338Z" transform="translate(-46.802 -151.775)" fill="#874f4f"/>
      <path id="Trazado_1013161" data-name="Trazado 1013161" d="M80.672,134.8s-2.386-.16-5.077-.089a32.576,32.576,0,0,0,11.549,11.86h-26.9a10.973,10.973,0,0,1-6.125-1.156,2.358,2.358,0,0,1-.971-2.853,3.683,3.683,0,0,0-.481-3.769l-2.192.8a14.871,14.871,0,0,0-3.681,9.63h60.135v-2.451Z" transform="translate(-29.53 -94.034)" fill="#fa883e"/>
      <path id="Trazado_1013162" data-name="Trazado 1013162" d="M54.417,254.741H46.792v-26.9a16.991,16.991,0,0,1,7.625,0Z" transform="translate(-29.53 -162.038)" fill="#e4efff"/>
      <path id="Trazado_1013163" data-name="Trazado 1013163" d="M243.858,254.69h7.625v-26.9a16.321,16.321,0,0,0-7.625,0Z" transform="translate(-174.087 -161.987)" fill="#e4efff"/>
      <path id="Trazado_1013164" data-name="Trazado 1013164" d="M294.779,219.868c-.256,2.361-1.139,6.292-4.169,7.549a.465.465,0,0,0-.149.773,14.143,14.143,0,0,1,4.21,7.741.192.192,0,0,0,.378,0c.355-2.12,1.459-5.877,4.868-7.509a.465.465,0,0,0,.039-.824c-1.357-.794-3.819-2.866-4.8-7.743a.193.193,0,0,0-.381.016Z" transform="translate(-208.164 -156.383)" fill="#ffc362"/>
      <path id="Trazado_1013165" data-name="Trazado 1013165" d="M243.858,213.413h7.625v4.161h-7.625Z" transform="translate(-174.087 -151.775)" fill="#7f91bf"/>
      <path id="Trazado_1013166" data-name="Trazado 1013166" d="M135.433,214.309a3.559,3.559,0,0,0,.261,1.327h12.472a3.559,3.559,0,0,0,.261-1.327v-14.05H135.433Z" transform="translate(-94.552 -142.126)" fill="#874f4f"/>
      <path id="Trazado_1013167" data-name="Trazado 1013167" d="M46.792,213.413h7.625v4.161H46.792Z" transform="translate(-29.53 -151.775)" fill="#7f91bf"/>
      <path id="Trazado_1013168" data-name="Trazado 1013168" d="M16.336,20.257c-.422,2.3-1.458,5.815-3.937,7.174a.531.531,0,0,0-.055.884,11.143,11.143,0,0,1,4.161,7.527.24.24,0,0,0,.47.033c.554-2.039,1.861-5.409,4.713-7.217a.53.53,0,0,0-.043-.915c-1.447-.758-4.075-2.755-4.834-7.482a.242.242,0,0,0-.476,0Z" transform="translate(-4.106 -9.943)" fill="#ffc362"/>
      <path id="Trazado_1013169" data-name="Trazado 1013169" d="M163.63,60.879a14.213,14.213,0,0,1,2.165-9.263c4.274-6.5,9.57-6.411,9.57-6.411s-6.244-3.911-11.893.886a11.745,11.745,0,0,0-3.8,6.465,15.658,15.658,0,0,0-.364,4.265C160.405,59.29,161.9,60.456,163.63,60.879Z" transform="translate(-112.054 -27.286)" fill="#ffc362"/>
      <path id="Trazado_1013170" data-name="Trazado 1013170" d="M225.091,61.751a2.188,2.188,0,0,1,.885,2.975A135.69,135.69,0,0,0,217.9,82.35a5.915,5.915,0,0,1-4.747-2.222c1.685-4.211,5.059-11.973,9.119-17.725A2.183,2.183,0,0,1,225.091,61.751Z" transform="translate(-151.565 -40.331)" fill="#ffc362"/>
      <path id="Trazado_1013171" data-name="Trazado 1013171" d="M259.144,84.357s4.106,4.508,1,13.207c-3.464,9.688-11.21,7.846-11.21,7.846l8.82,3.717s4.7-1.5,7.8-10.221c3.938-11.07-6.41-14.549-6.41-14.549Z" transform="translate(-177.807 -57.107)" fill="#fa883e"/>
      <ellipse id="Elipse_13818" data-name="Elipse 13818" cx="3.945" cy="3.471" rx="3.945" ry="3.471" transform="matrix(0.448, -0.894, 0.894, 0.448, 62.677, 33.972)" fill="#ff6a84"/>
      <path id="Trazado_1013172" data-name="Trazado 1013172" d="M75.505,171.488a2.4,2.4,0,0,1,.865-2.579,15.6,15.6,0,0,1,5.438-2.513,2.4,2.4,0,0,1,2.54.881l.119.16a2.385,2.385,0,0,1-.506,3.361,14.237,14.237,0,0,1-5.722,2.381,2.392,2.392,0,0,1-2.734-1.692Z" transform="translate(-50.524 -117.227)" fill="#fa883e"/>
      <path id="Trazado_1013173" data-name="Trazado 1013173" d="M131.452,175.771s-1.767-3.24,2.28-4.983,9.12-.683,7.809,4.059Z" transform="translate(-91.35 -119.93)" fill="#fa883e"/>
      <path id="Trazado_1013174" data-name="Trazado 1013174" d="M184.189,142.907l-1.679,3.058a1.839,1.839,0,0,0,.218,2.1,9.877,9.877,0,0,0,4.333,2.67,1.849,1.849,0,0,0,1.948-.489l2.462-2.634Z" transform="translate(-128.916 -100.056)" fill="#fa883e"/>
      <path id="Trazado_1013175" data-name="Trazado 1013175" d="M99.075,194.714H74.125a25.57,25.57,0,0,0-12.071,0H37.2a2.365,2.365,0,0,1-2.365-2.365v-3.378a2.365,2.365,0,0,1,2.365-2.365H99.075a2.365,2.365,0,0,1,2.365,2.365v3.378A2.365,2.365,0,0,1,99.075,194.714Z" transform="translate(-20.761 -132.111)" fill="#e4efff"/>
      <rect id="Rectángulo_455554" data-name="Rectángulo 455554" width="3.602" height="5.805" rx="1.801" transform="translate(23.482 26.879) rotate(-2.694)" fill="#c45178"/>
      <g id="Grupo_1181209" data-name="Grupo 1181209" transform="translate(20.126 17.226)">
        <circle id="Elipse_13819" data-name="Elipse 13819" cx="0.948" cy="0.948" r="0.948" transform="translate(0 40.24)" fill="#3c3c4f"/>
        <circle id="Elipse_13820" data-name="Elipse 13820" cx="0.948" cy="0.948" r="0.948" transform="translate(0 55.336)" fill="#3c3c4f"/>
        <circle id="Elipse_13821" data-name="Elipse 13821" cx="0.948" cy="0.948" r="0.948" transform="translate(0 67.192)" fill="#3c3c4f"/>
        <circle id="Elipse_13822" data-name="Elipse 13822" cx="0.948" cy="0.948" r="0.948" transform="translate(52.51 40.24)" fill="#3c3c4f"/>
        <circle id="Elipse_13823" data-name="Elipse 13823" cx="0.948" cy="0.948" r="0.948" transform="translate(52.51 55.336)" fill="#3c3c4f"/>
        <circle id="Elipse_13824" data-name="Elipse 13824" cx="0.948" cy="0.948" r="0.948" transform="translate(52.51 67.192)" fill="#3c3c4f"/>
        <circle id="Elipse_13825" data-name="Elipse 13825" cx="0.948" cy="0.948" r="0.948" transform="translate(38.95 55.336)" fill="#3c3c4f"/>
        <circle id="Elipse_13826" data-name="Elipse 13826" cx="0.948" cy="0.948" r="0.948" transform="translate(39.357 40.24)" fill="#3c3c4f"/>
        <circle id="Elipse_13827" data-name="Elipse 13827" cx="0.948" cy="0.948" r="0.948" transform="translate(13.153 40.24)" fill="#3c3c4f"/>
        <circle id="Elipse_13828" data-name="Elipse 13828" cx="0.948" cy="0.948" r="0.948" transform="translate(2.193 0)" fill="#3c3c4f"/>
      </g>
      <path id="Trazado_1013176" data-name="Trazado 1013176" d="M159.385,92.934a11.291,11.291,0,0,0,1.74,5.51l3.624,3.038a16.122,16.122,0,0,1-1.05-4.489,27.845,27.845,0,0,1-4.314-4.058Z" transform="translate(-112.122 -63.399)" fill="#fa883e"/>
      <path id="Trazado_1013177" data-name="Trazado 1013177" d="M212.543,132.7q-1.355-.629-2.579-1.248c-.743,1.856-1.158,3.024-1.158,3.024l4.832,2.362c.331-1.052.691-2.107,1.07-3.155C214,133.364,213.282,133.039,212.543,132.7Z" transform="translate(-148.375 -91.651)" fill="#fa883e"/>
      <path id="Trazado_1013178" data-name="Trazado 1013178" d="M171.624,127.128A116.354,116.354,0,0,1,154,116.3a1.981,1.981,0,0,1-.447-2.7l.285-.419a1.98,1.98,0,0,1,2.757-.523,140.785,140.785,0,0,0,20.972,11.769C177.57,126.3,174.4,127.687,171.624,127.128Z" transform="translate(-107.595 -77.617)" fill="#ffc362"/>
      <path id="Trazado_1013179" data-name="Trazado 1013179" d="M238.268,166.57A1.982,1.982,0,0,0,240.6,165.4l.251-.616a1.983,1.983,0,0,0-1.246-2.638,104.657,104.657,0,0,1-11.346-4.363h0s-1.765,2.084-5.946,2.694A84.3,84.3,0,0,0,238.268,166.57Z" transform="translate(-158.28 -110.966)" fill="#fa883e"/>
      <path id="Trazado_1013180" data-name="Trazado 1013180" d="M48.692,143.975a2.542,2.542,0,0,1-.05,3.006l-1.9,2.5a2.529,2.529,0,0,1-3.368.619c-.182-.116-.368-.245-.555-.388a2.524,2.524,0,0,1-.528-3.464,13.047,13.047,0,0,1,2.781-2.824,2.547,2.547,0,0,1,3.616.555Z" transform="translate(-25.892 -100.053)" fill="#ffc362"/>
      <path id="Trazado_1013181" data-name="Trazado 1013181" d="M136.986,202.891h12.07v-1.928a3.21,3.21,0,0,0-3.21-3.21H140.2a3.21,3.21,0,0,0-3.212,3.21Z" transform="translate(-95.691 -140.288)" fill="#7f91bf"/>
      <rect id="Rectángulo_455555" data-name="Rectángulo 455555" width="7.529" height="13.707" rx="3.765" transform="translate(43.613 59.804)" fill="#e4efff"/>
      <path id="Trazado_1013182" data-name="Trazado 1013182" d="M297.273,219.943c-.207-.058-5.067-1.5-5.322-9.145a.933.933,0,1,0-1.865.05c0,.077.11,7.671-4.327,8.718a.937.937,0,0,0-.23,1.727,10.2,10.2,0,0,1,4.556,8.97.933.933,0,0,0,1.865.023c0-.069.238-6.924,5.36-8.555a.937.937,0,0,0-.036-1.788Zm-6.147,5.524a11.831,11.831,0,0,0-3.261-4.758,8,8,0,0,0,3.273-4.534,9.923,9.923,0,0,0,3.719,4.642A9.52,9.52,0,0,0,291.125,225.467Z" transform="translate(-204.302 -149.191)" fill="#3c3c4f"/>
      <path id="Trazado_1013183" data-name="Trazado 1013183" d="M11.573,29.755a.933.933,0,0,0,1.865.023c0-.069.238-6.924,5.359-8.555a.933.933,0,0,0-.038-1.788c-.207-.058-5.067-1.5-5.322-9.145a.933.933,0,0,0-1.865.051c0,.076.11,7.67-4.328,8.718a.937.937,0,0,0-.23,1.727,10.194,10.194,0,0,1,4.558,8.97Zm1.051-14.088a9.923,9.923,0,0,0,3.719,4.641,9.523,9.523,0,0,0-3.732,4.651A11.826,11.826,0,0,0,9.35,20.2,7.994,7.994,0,0,0,12.624,15.667Z" transform="translate(0 -2.124)" fill="#3c3c4f"/>
      <path id="Trazado_1013184" data-name="Trazado 1013184" d="M104.921,46.363c4.515,1.2,6.712-5.468,2.659-7.388.811-8.378-6.222-11.931-7.512-12.509a18.621,18.621,0,0,0-5.573-3.935l2.469-4.327L99.3,19.574a.933.933,0,0,0,1.276-.332l2.308-3.933a.938.938,0,0,0-.332-1.276L100.2,12.657l1.433-2.442a.938.938,0,0,0-.332-1.276L97.372,6.632a.938.938,0,0,0-1.276.332L94.663,9.406,92.32,8.032a.938.938,0,0,0-1.276.332L88.736,12.3a.938.938,0,0,0,.332,1.276l2.352,1.38L88.942,19.3a12.557,12.557,0,0,0-7.208-2.32c-1.522-.986-8.508-3.452-13.481,1.817l-.948-.434a3.7,3.7,0,0,0-4.56,2c-1.031,1.911-.563,4.171,1.057,5.045l.943.489a14.091,14.091,0,0,0,.755,7.927,3.175,3.175,0,0,0-2.117,1.638,3,3,0,0,0,1.078,4.279,35.115,35.115,0,0,0-3.893.273,2.753,2.753,0,0,0-2.38-2.366l-4.98-.627a3.013,3.013,0,0,0-3.282,2.3c-.384.046-.928.124-1.583.259-.152-2.638-.426-2.312,1.1-4.539a6.363,6.363,0,0,0,1.03-3.847L50,22.577a.937.937,0,0,0-.944-.882,50.106,50.106,0,0,0-12.713,1.537.933.933,0,0,0-.659.979l.7,7.465a6.446,6.446,0,0,0,2.318,4.36c3.43,2.764,2.611,1.851,3.064,6.131q-.361.226-.718.476c-2.882-2.135-5.574.849-7.209,3.011a3.566,3.566,0,0,0,1.37,5.2,17.959,17.959,0,0,0-.545,2.715,3.3,3.3,0,0,0-3.325,3.3V60.24a3.3,3.3,0,0,0,3.185,3.292V92.7a.933.933,0,0,0,.933.933h7.626a.933.933,0,0,0,.933-.933V88.675a3.013,3.013,0,0,1,3.025-2.939H84.006a3.029,3.029,0,0,1,3.025,3.025V92.7a.933.933,0,0,0,.933.933h7.625a.933.933,0,0,0,.933-.933V63.535a3.3,3.3,0,0,0,3.282-3.3c-.012-.3.035-3.65-.038-3.854a3.33,3.33,0,0,0,1.861-2.217,2.9,2.9,0,0,0-.48-2.978,17.775,17.775,0,0,0,3.775-4.826Zm2.623-2.735a1.829,1.829,0,0,1-1.78,1,35.734,35.734,0,0,0,1.434-3.717,2.235,2.235,0,0,1,.346,2.712ZM101.93,29.8a9.985,9.985,0,0,1,3.735,9.539,29.016,29.016,0,0,1-2.054,5.524,15.613,15.613,0,0,1-4.164,5.312q-2.345-.751-4.617-1.611c6.306-2.357,9.243-13.352,7.1-18.764Zm-3.087-1.917c3.593,3.432,2.2,18.293-6.879,19.553-2.514-1.032-4.927-2.132-7.2-3.247.857-2.555,1.932-5.318,3.2-8.224a5.336,5.336,0,0,0,2.252-4.881c1.438-3.084,2.611-4.909,3.464-6.872a16.709,16.709,0,0,1,5.165,3.673ZM71.3,36.632c-.591-2.006-1.641-7.136,1.414-11.789,4.989-7.184,10.655-7.321,15.674-3.613a51.774,51.774,0,0,0-3.947,6.331A5.3,5.3,0,0,0,81.4,33.65c-1.357,2.954-2.4,5.538-3.036,7.192C75.637,39.319,73.246,37.869,71.3,36.632Zm16.717-3.488c-1,2.139-4.107,2.571-4.811.019-.544-1.83,1.066-4.13,2.907-4.08C88.051,29.1,88.95,31.323,88.016,33.144Zm-.083-5.5a4,4,0,0,0-1.2-.376c.986-1.736,1.967-3.3,2.926-4.661a1.264,1.264,0,0,1,2.223.379,1.249,1.249,0,0,1-.1.959c-.616,1.131-1.5,2.8-2.5,4.8a4.015,4.015,0,0,0-1.351-1.1Zm-5.382,8a4.008,4.008,0,0,0,3.033,1.144c-.965,2.294-1.8,4.492-2.506,6.561q-1.58-.8-3.057-1.6c.532-1.394,1.4-3.567,2.53-6.1ZM93.162,13.811l-2.343-1.374,1.364-2.324,2.342,1.374a.938.938,0,0,0,1.276-.332l1.433-2.442,2.325,1.364-1.433,2.442a.938.938,0,0,0,.332,1.276l2.343,1.374-1.364,2.324-2.342-1.374a.933.933,0,0,0-1.282.342l-2.767,4.85a3.136,3.136,0,0,0-2.485-1.084l2.938-5.15a.933.933,0,0,0-.338-1.266ZM70.215,19.517a8.808,8.808,0,0,1,8.169-1.865,15.78,15.78,0,0,0-9.337,17.516q-.647-.43-1.179-.794a12.245,12.245,0,0,1,2.347-14.857Zm-5.829,1.732c.668-1.169,1.7-1.559,2.618-.973A12.938,12.938,0,0,0,65.2,24.03l-.522-.271c-.69-.371-.821-1.521-.288-2.51ZM43.362,38.991a3.976,3.976,0,0,0-1.434-2.721L39.88,34.591A4.567,4.567,0,0,1,38.237,31.5l-.623-6.672a52.676,52.676,0,0,1,10.571-1.249l.421,7.722a4.511,4.511,0,0,1-.73,2.727C46,36.69,46.313,36.947,46.5,40.049a20.363,20.363,0,0,0-2.951,1.135Zm-8.008,7.743c.7-.9,2.282-2.91,3.559-2.952A1.618,1.618,0,0,1,40.2,46.363l-1.9,2.5c-1.295,1.7-4.166-.377-2.949-2.124ZM37,51.362a3.493,3.493,0,0,0,2.792-1.375l1.9-2.5a3.459,3.459,0,0,0,.475-3.353A18.493,18.493,0,0,1,49.6,41.258a2.9,2.9,0,0,0,2.542,2.432l3.24.359A.933.933,0,1,0,55.59,42.2l-3.24-.359a1.039,1.039,0,0,1-.87-1.342l.344-.925a1.08,1.08,0,0,1,1.149-.7l4.98.627c1.335.232.325,1.716,1.112,2.333a.931.931,0,0,0,.774.193,37.626,37.626,0,0,1,7.219-.415c1.272.887,2.755,1.88,4.414,2.929-.86,1.367-1.306,2.713-.17,4.081a10.687,10.687,0,0,0,4.731,2.938c1.969.631,2.96-.744,4.139-2.027,2.748,1.418,5.714,2.8,8.836,4.031H69.522c.188-6.511-11.7-5.228-12.492,0h-4.1a3.471,3.471,0,0,0-3.7-5.294,16.578,16.578,0,0,0-5.76,2.669,3.311,3.311,0,0,0-1.332,2.625H36.537a15.946,15.946,0,0,1,.46-2.2ZM72.6,46.357l.456-.831c1.66,1.013,3.47,2.062,5.4,3.1l-.86.92a.916.916,0,0,1-.965.244C75.2,49.319,71.865,47.7,72.6,46.358Zm-4.95,7.2H58.94c1.094-2.964,8.934-3.844,8.714,0Zm-23.643,0c-.07-1.42,3.288-2.81,5.7-3.491,1.521-.453,2.714,1.821,1.371,2.743a12.136,12.136,0,0,1-1.186.748ZM36.386,91.77V63.536h5.76V91.77ZM62.739,71.483V61.831a1.1,1.1,0,0,1,1.095-1.094h3.475A1.1,1.1,0,0,1,68.4,61.831v9.653a1.1,1.1,0,0,1-1.094,1.094H63.832a1.1,1.1,0,0,1-1.095-1.094Zm-1.652,1.094H44.012V63.536H60.872c.077.731-.2,8.585.212,9.042ZM84.008,83.871H47.037a4.88,4.88,0,0,0-3.025,1.039V74.443H72.7a.933.933,0,0,0,0-1.865H70.054c.415-.426.137-8.347.213-9.042H87.031v9.042h-3.3a.933.933,0,0,0,0,1.865h3.3V84.926a4.862,4.862,0,0,0-3.025-1.055Zm4.888,7.9V63.536h5.76V91.77Zm9.042-31.532a1.434,1.434,0,0,1-1.432,1.432H70.26a2.961,2.961,0,0,0-2.951-2.8H63.832a2.961,2.961,0,0,0-2.952,2.8H34.635A1.434,1.434,0,0,1,33.2,60.238V56.86a1.434,1.434,0,0,1,1.432-1.432h59.6c1.2.383,2.42.741,3.65,1.063.1.012.039,3.588.056,3.748ZM99.9,53.463c-.256.721-.566,1.432-1.485,1.238C82.885,50.659,69.035,40.849,65.16,37.938a1.046,1.046,0,0,1-.236-1.427l.285-.419a1.052,1.052,0,0,1,1.459-.278C71.531,39.145,84.439,47.4,99.235,52.066a1.055,1.055,0,0,1,.663,1.4Z" transform="translate(-18.192)" fill="#3c3c4f"/>
      <path id="Trazado_1013185" data-name="Trazado 1013185" d="M72.378,81.8a2.734,2.734,0,0,0-5.462.255l.1,2.2A2.734,2.734,0,0,0,72.481,84ZM69.789,85a.873.873,0,0,1-.908-.826l-.1-2.2a.868.868,0,1,1,1.735-.08l.1,2.2A.87.87,0,0,1,69.789,85Z" transform="translate(-44.292 -53.333)" fill="#3c3c4f"/>
      <path id="Trazado_1013186" data-name="Trazado 1013186" d="M157.248,222.824a.933.933,0,0,0-.933.933v2.706a.933.933,0,0,0,1.865,0v-2.706A.933.933,0,0,0,157.248,222.824Z" transform="translate(-109.87 -158.679)" fill="#3c3c4f"/>
    </g>
  </g>
</svg>
