<svg xmlns="http://www.w3.org/2000/svg" width="169.706" height="169.705" viewBox="0 0 169.706 169.705">
  <g id="Grupo_1181092" data-name="Grupo 1181092" transform="translate(-1065.98 -3369.146)">
    <rect id="Rect치ngulo_402033" data-name="Rect치ngulo 402033" width="120" height="120" rx="30" transform="translate(1065.98 3453.999) rotate(-45)" fill="#ffd600"/>
    <rect id="Rect치ngulo_454167" data-name="Rect치ngulo 454167" width="100" height="100" rx="50" transform="translate(1100.833 3403.999)" fill="#c8bf57"/>
    <g id="Grupo_1177737" data-name="Grupo 1177737" transform="translate(1107.55 3410.769)">
      <g id="Grupo_1177735" data-name="Grupo 1177735" transform="translate(1.689 1.689)">
        <path id="Trazado_995573" data-name="Trazado 995573" d="M447.145,316v22.291H436V316Z" transform="translate(-364.062 -264.326)" fill="#fce8d0"/>
        <path id="Trazado_995574" data-name="Trazado 995574" d="M289.509,271.995a3.377,3.377,0,1,1-6.755,0,3.377,3.377,0,1,1-6.755,0V250.523a9.833,9.833,0,0,1,.052-1.025,10.8,10.8,0,0,1,3.735-6.959,10.131,10.131,0,0,0,2.937-6.38v-.179c1.011.006,21.288,0,21.308,0v.79a6.747,6.747,0,0,0,1.979,4.776l2.8,2.8a6.751,6.751,0,0,1,1.979,4.777v.368h-7.768v22.485a3.377,3.377,0,1,1-6.755.017,3.377,3.377,0,0,1-6.755,0Z" transform="translate(-231.081 -197.819)" fill="#d0a084"/>
        <path id="Trazado_995575" data-name="Trazado 995575" d="M270.681,58.032a3.378,3.378,0,0,1,3.342,3.413,3.318,3.318,0,0,1-3.342,3.342h-.035c-21.427-.012-20.527.03-21.3-.037a10.063,10.063,0,0,1-6.284-2.9,10.718,10.718,0,0,0-7.226-3.756h0c.052-.636.02.326.029-21.2,0-.035,0-.069,0-.1h.618a6.754,6.754,0,0,0,4.776-1.979l2.8-2.8A6.791,6.791,0,0,1,248.824,30h.544v7.768h21.313a3.378,3.378,0,0,1,3.342,3.413,3.318,3.318,0,0,1-3.342,3.342,3.378,3.378,0,0,1,3.342,3.413,3.318,3.318,0,0,1-3.342,3.342,3.378,3.378,0,0,1,3.342,3.413A3.318,3.318,0,0,1,270.681,58.032Z" transform="translate(-197.694 -26.623)" fill="#ffda8f"/>
        <path id="Trazado_995576" data-name="Trazado 995576" d="M337.277,10V21.145H316V10Z" transform="translate(-264.326 -10)" fill="#d0a084"/>
        <path id="Trazado_995577" data-name="Trazado 995577" d="M52.511,282.739A3.465,3.465,0,0,1,49,279.4a3.524,3.524,0,0,1,3.511-3.413h.035c21.293.014,20.511-.036,21.32.042a10.209,10.209,0,0,1,6.268,2.96l.819.819a10.124,10.124,0,0,0,6.38,2.938v21.308h-.615a6.752,6.752,0,0,0-4.776,1.977l-2.8,2.8a6.758,6.758,0,0,1-4.777,1.979h-.544V303H52.511A3.465,3.465,0,0,1,49,299.662a3.524,3.524,0,0,1,3.511-3.413A3.465,3.465,0,0,1,49,292.907a3.524,3.524,0,0,1,3.511-3.413A3.465,3.465,0,0,1,49,286.152a3.524,3.524,0,0,1,3.511-3.413Z" transform="translate(-42.414 -231.065)" fill="#fce8d0"/>
        <path id="Trazado_995578" data-name="Trazado 995578" d="M44.523,53.518a3.38,3.38,0,1,1,6.755,0,3.38,3.38,0,1,1,6.755,0,3.377,3.377,0,1,1,6.751-.1c0,.035,0,.069,0,.1-.009,21.55.023,20.569-.029,21.2a10.127,10.127,0,0,1-2.938,6.42,10.71,10.71,0,0,0-3.746,7.065c-.809-.078-.022-.029-21.32-.042v-.439a6.747,6.747,0,0,0-1.979-4.776l-2.8-2.8A6.751,6.751,0,0,1,30,75.374v-.719h7.768V53.518c0-.047,0-.095,0-.14a3.377,3.377,0,1,1,6.751.14Z" transform="translate(-26.623 -43.245)" fill="#d0a084"/>
        <path id="Trazado_995579" data-name="Trazado 995579" d="M91.277,447.145H70V436H91.277Z" transform="translate(-59.868 -364.062)" fill="#d0a084"/>
        <path id="Trazado_995580" data-name="Trazado 995580" d="M21.149,70c0,.046,0,.093,0,.14V91.277H10V70H21.145Z" transform="translate(-10 -59.868)" fill="#ffda8f"/>
      </g>
      <g id="Grupo_1177736" data-name="Grupo 1177736" transform="translate(0 0)">
        <path id="Trazado_995581" data-name="Trazado 995581" d="M84.772,51.674H82.98a8.371,8.371,0,0,0-2.37-4.65l-2.8-2.8a5.02,5.02,0,0,1-1.447-2.975,5.039,5.039,0,0,0,3.34-4.738,5.121,5.121,0,0,0-1.285-3.4,5.01,5.01,0,0,0,1.285-3.354,5.121,5.121,0,0,0-1.285-3.4A5.01,5.01,0,0,0,79.706,23a5.121,5.121,0,0,0-1.285-3.4,5.01,5.01,0,0,0,1.285-3.354,5.106,5.106,0,0,0-3.377-4.818V1.689A1.689,1.689,0,0,0,74.64,0H53.363a1.689,1.689,0,0,0-1.689,1.689V3.461a8.584,8.584,0,0,0-4.826,2.424l-2.8,2.8A5.029,5.029,0,0,1,41.2,10.115a5.117,5.117,0,0,0-4.727-3.36A4.962,4.962,0,0,0,33.1,8.118a4.864,4.864,0,0,0-6.755,0,4.864,4.864,0,0,0-6.755,0,4.962,4.962,0,0,0-3.377-1.364,5.132,5.132,0,0,0-4.733,3.377H1.689A1.689,1.689,0,0,0,0,11.821V33.1a1.689,1.689,0,0,0,1.689,1.689H3.434a8.37,8.37,0,0,0,2.417,5l2.8,2.8a5.021,5.021,0,0,1,1.4,2.638,5.191,5.191,0,0,0-3.458,4.795,4.921,4.921,0,0,0,1.345,3.373,5.016,5.016,0,0,0-1.345,3.382,4.921,4.921,0,0,0,1.345,3.373A5.016,5.016,0,0,0,6.586,63.53,4.922,4.922,0,0,0,7.931,66.9a4.962,4.962,0,0,0,2.2,8.152v9.717a1.689,1.689,0,0,0,1.689,1.689H33.1a1.689,1.689,0,0,0,1.689-1.689V83.037a8.511,8.511,0,0,0,4.826-2.392l2.8-2.8a5.026,5.026,0,0,1,2.545-1.377,5.062,5.062,0,0,0,8.406,3.166,5.054,5.054,0,0,0,6.755,0,5.054,5.054,0,0,0,6.755,0,5.059,5.059,0,0,0,8.22-2.294h9.68a1.689,1.689,0,0,0,1.689-1.689V72.107a1.689,1.689,0,1,0-3.377,0v1.858H75.315V55.038c1.75.005,6.439.025,7.768,0v1.871a1.689,1.689,0,1,0,3.377,0V53.363a1.689,1.689,0,0,0-1.689-1.689ZM55.051,3.377h17.9v7.768h-17.9Zm-8.614,7.694,2.8-2.8A5.215,5.215,0,0,1,51.674,6.9v5.938a1.689,1.689,0,0,0,1.689,1.689H74.675a1.692,1.692,0,0,1,1.653,1.724A1.636,1.636,0,0,1,74.675,17.9H67.921a1.689,1.689,0,0,0,0,3.377h6.755A1.692,1.692,0,0,1,76.328,23a1.636,1.636,0,0,1-1.653,1.653H67.921a1.689,1.689,0,0,0,0,3.377h6.755a1.692,1.692,0,0,1,1.653,1.724,1.636,1.636,0,0,1-1.653,1.653H67.921a1.689,1.689,0,0,0,0,3.377h6.755a1.692,1.692,0,0,1,1.653,1.724,1.636,1.636,0,0,1-1.653,1.653H54.217a8.433,8.433,0,0,1-5.971-2.439,12.629,12.629,0,0,0-6.7-4.014V13.475a8.38,8.38,0,0,0,4.9-2.4ZM45.3,51.444A9.606,9.606,0,0,1,40.6,48.416a11.974,11.974,0,0,0-5.5-3.134,9.688,9.688,0,0,1,2.975-4.5,11.829,11.829,0,0,0,3.149-5.669,9.6,9.6,0,0,1,4.628,3,11.726,11.726,0,0,0,5.581,3.1,9.557,9.557,0,0,1-3.059,4.82,11.868,11.868,0,0,0-3.084,5.41ZM3.377,13.51h7.768v17.9H3.377ZM8.238,37.4a5.023,5.023,0,0,1-1.391-2.613h5.987A1.689,1.689,0,0,0,14.523,33.1V11.961c0-.027,0-.053,0-.072a1.8,1.8,0,0,1,1.687-1.757A1.809,1.809,0,0,1,17.9,11.961v6.755a1.689,1.689,0,0,0,3.377,0V11.961a1.809,1.809,0,0,1,1.689-1.829,1.809,1.809,0,0,1,1.689,1.829v6.755a1.689,1.689,0,1,0,3.377,0V11.961a1.694,1.694,0,1,1,3.377,0v6.755a1.689,1.689,0,0,0,3.377,0V11.961a1.691,1.691,0,1,1,3.375-.055c0,.018,0,.037,0,.055V32.419a8.45,8.45,0,0,1-2.471,5.97,12.661,12.661,0,0,0-3.981,6.53H13.418a8.371,8.371,0,0,0-2.382-4.72ZM31.41,83.083H13.51V75.315h17.9Zm8.614-7.625-2.8,2.8a5.1,5.1,0,0,1-2.438,1.35v-5.98A1.689,1.689,0,0,0,33.1,71.938H11.785a1.79,1.79,0,0,1-1.822-1.653,1.845,1.845,0,0,1,1.822-1.724h6.79a1.689,1.689,0,1,0,0-3.377h-6.79A1.79,1.79,0,0,1,9.963,63.53a1.845,1.845,0,0,1,1.822-1.724h6.79a1.689,1.689,0,1,0,0-3.377h-6.79a1.79,1.79,0,0,1-1.822-1.653,1.845,1.845,0,0,1,1.822-1.724h6.79a1.689,1.689,0,0,0,0-3.377h-6.79a1.79,1.79,0,0,1-1.822-1.653A1.845,1.845,0,0,1,11.785,48.3H32.244A8.5,8.5,0,0,1,38.215,50.8a12.557,12.557,0,0,0,6.7,4.021V73.056A8.376,8.376,0,0,0,40.023,75.459Zm33.6-23.785a1.689,1.689,0,0,0-1.689,1.689V75.847a1.689,1.689,0,1,1-3.377.017V68.1a1.689,1.689,0,0,0-3.377,0v7.768a1.689,1.689,0,1,1-3.377,0V68.1a1.689,1.689,0,0,0-3.377,0v7.768a1.689,1.689,0,1,1-3.377,0V68.1a1.689,1.689,0,0,0-3.377,0v7.768a1.689,1.689,0,1,1-3.377,0V54.393a8.468,8.468,0,0,1,2.471-5.97,12.508,12.508,0,0,0,4.056-6.881H73a8.371,8.371,0,0,0,2.425,5.071l2.8,2.8a5.028,5.028,0,0,1,1.31,2.262Z" transform="translate(0 0)"/>
        <circle id="Elipse_13614" data-name="Elipse 13614" cx="1.757" cy="1.757" r="1.757" transform="translate(83.053 63.141)"/>
      </g>
    </g>
  </g>
</svg>
