<svg xmlns="http://www.w3.org/2000/svg" width="169.706" height="169.706" viewBox="0 0 169.706 169.706">
  <g id="Grupo_1181063" data-name="Grupo 1181063" transform="translate(-1065.98 -3369.146)">
    <rect id="Rect치ngulo_402033" data-name="Rect치ngulo 402033" width="120" height="120" rx="30" transform="translate(1065.98 3453.999) rotate(-45)" fill="#ffd600"/>
    <rect id="Rect치ngulo_454167" data-name="Rect치ngulo 454167" width="100" height="100" rx="50" transform="translate(1100.833 3403.999)" fill="#c8bf57"/>
    <g id="Grupo_1181723" data-name="Grupo 1181723" transform="translate(1112.148 3415.373)">
      <g id="Grupo_1181722" data-name="Grupo 1181722" transform="translate(2.203 2.203)">
        <g id="Grupo_1181694" data-name="Grupo 1181694" transform="translate(57.303 28.868)">
          <path id="Trazado_1014627" data-name="Trazado 1014627" d="M52.262,40.927l-1.925-.493-.024-.072-.662-2.382-.012-.036a3.6,3.6,0,0,0,2.839-3.524h1.2a2.423,2.423,0,0,0,2.406-2.406,2.421,2.421,0,0,0-.83-1.816,7.956,7.956,0,0,0,.83-3.524A6.153,6.153,0,0,0,56.051,26h3.9a4.564,4.564,0,0,1,4.559,4.559c0,.168-.012.337-.024.505L62.546,48.409a4.555,4.555,0,0,1-4.054,4.029V49.876a9.522,9.522,0,0,0-2.321-6.243,9.325,9.325,0,0,0-3.909-2.706Z" transform="translate(-49.64 -26)" fill="#e6e9ed"/>
        </g>
        <g id="Grupo_1181695" data-name="Grupo 1181695" transform="translate(38.49 28.868)">
          <path id="Trazado_1014628" data-name="Trazado 1014628" d="M46.028,34.42a3.6,3.6,0,0,0,2.839,3.524l-.012.036-.662,2.382-.024.072a9.22,9.22,0,0,0-1.925.493,9.546,9.546,0,0,0-6.231,8.949v2.562a4.555,4.555,0,0,1-4.054-4.029L34.024,31.064c0-.084-.012-.168-.012-.253A1.777,1.777,0,0,1,34,30.559a4.554,4.554,0,0,1,3.38-4.4A4.226,4.226,0,0,1,38.559,26h3.885c-.012.217-.024.445-.024.674a7.956,7.956,0,0,0,.83,3.524,1.134,1.134,0,0,1-.12.12,2.352,2.352,0,0,0-.71,1.7,2.413,2.413,0,0,0,2.406,2.406Z" transform="translate(-34 -26)" fill="#e6e9ed"/>
        </g>
        <g id="Grupo_1181696" data-name="Grupo 1181696" transform="translate(33.246 7.217)">
          <path id="Trazado_1014629" data-name="Trazado 1014629" d="M33.681,16.42a2.413,2.413,0,0,0,2.406-2.406,2.352,2.352,0,0,0-.71-1.7,1.134,1.134,0,0,1-.12-.12,7.956,7.956,0,0,0,.83-3.524A6.153,6.153,0,0,0,36.051,8h3.9a4.558,4.558,0,0,1,4.559,4.559c0,.168-.012.337-.024.505L42.631,29.651H39.443a4.226,4.226,0,0,0-1.179.156,9.558,9.558,0,0,0-7.927-7.373l-.265-.95-.421-1.5-.012-.036a3.6,3.6,0,0,0,2.839-3.524Z" transform="translate(-29.64 -8)" fill="#e6e9ed"/>
        </g>
        <g id="Grupo_1181697" data-name="Grupo 1181697" transform="translate(14.434 7.217)">
          <path id="Trazado_1014630" data-name="Trazado 1014630" d="M26.028,16.42a3.6,3.6,0,0,0,2.839,3.524l-.012.036-.421,1.5-.265.95a9.536,9.536,0,0,0-8.155,9.442v2.562a4.555,4.555,0,0,1-4.054-4.029L14.024,13.064c-.012-.168-.024-.337-.024-.505A4.564,4.564,0,0,1,18.559,8h3.9a6.153,6.153,0,0,0-.036.674,7.955,7.955,0,0,0,.83,3.524,2.421,2.421,0,0,0-.83,1.816,2.423,2.423,0,0,0,2.406,2.406Z" transform="translate(-14 -8)" fill="#e6e9ed"/>
        </g>
        <g id="Grupo_1181698" data-name="Grupo 1181698" transform="translate(25.163 40.896)">
          <path id="Trazado_1014631" data-name="Trazado 1014631" d="M22.932,36h3.945a4.558,4.558,0,0,1,4.559,4.559c0,.168-.012.337-.024.505L29.475,58.409a4.555,4.555,0,0,1-4.054,4.029V59.876a9.522,9.522,0,0,0-2.406-6.327V37.2a6.584,6.584,0,0,0-.1-1.2Z" transform="translate(-22.92 -36)" fill="#e6e9ed"/>
        </g>
        <g id="Grupo_1181699" data-name="Grupo 1181699" transform="translate(0 40.896)">
          <path id="Trazado_1014632" data-name="Trazado 1014632" d="M10.42,37.2V53.549a.556.556,0,0,0-.084.084,9.522,9.522,0,0,0-2.321,6.243v2.562a4.555,4.555,0,0,1-4.054-4.029L2.024,41.064C2.012,40.9,2,40.727,2,40.559A4.564,4.564,0,0,1,6.559,36h3.957A6.584,6.584,0,0,0,10.42,37.2Z" transform="translate(-2 -36)" fill="#e6e9ed"/>
        </g>
        <g id="Grupo_1181700" data-name="Grupo 1181700" transform="translate(6.014 55.98)">
          <path id="Trazado_1014633" data-name="Trazado 1014633" d="M28.651,57.333v2.562c-.156.012-.313.024-.469.024H20.231V62.95a1.776,1.776,0,0,1-1.78,1.78,1.8,1.8,0,0,1-1.119-.385l-5.521-4.426H7.469c-.156,0-.313-.012-.469-.024V57.333A9.522,9.522,0,0,1,9.321,51.09a.556.556,0,0,1,.084-.084,9.1,9.1,0,0,1,3.452-2.466l3.765,6.567h2.406l3.765-6.567a9.1,9.1,0,0,1,3.452,2.466A9.522,9.522,0,0,1,28.651,57.333Z" transform="translate(-7 -48.54)" fill="#ef7385"/>
        </g>
        <g id="Grupo_1181701" data-name="Grupo 1181701" transform="translate(44.505 43.795)">
          <path id="Trazado_1014634" data-name="Trazado 1014634" d="M46.217,46.337l3.608-4.811,3.608,4.811.986-7.927a9.325,9.325,0,0,1,3.909,2.706,9.522,9.522,0,0,1,2.321,6.243v2.562c-.156.012-.313.024-.469.024H55.84l-5.521,4.426a1.8,1.8,0,0,1-1.119.385,1.776,1.776,0,0,1-1.78-1.78V49.945H39.469c-.156,0-.313-.012-.469-.024V47.359a9.546,9.546,0,0,1,6.231-8.949Z" transform="translate(-39 -38.41)" fill="#b4dd7f"/>
        </g>
        <g id="Grupo_1181702" data-name="Grupo 1181702" transform="translate(55.33 43.23)">
          <path id="Trazado_1014635" data-name="Trazado 1014635" d="M50.67,38.012l1.925.493-.986,7.927L48,41.621l2.406-3.608.241-.072Z" transform="translate(-48 -37.94)" fill="#a0d468"/>
        </g>
        <g id="Grupo_1181703" data-name="Grupo 1181703" transform="translate(50.735 43.23)">
          <path id="Trazado_1014636" data-name="Trazado 1014636" d="M46.369,38.012l2.406,3.608-3.608,4.811-.986-7.927a9.22,9.22,0,0,1,1.925-.493l.024-.072Z" transform="translate(-44.18 -37.94)" fill="#a0d468"/>
        </g>
        <g id="Grupo_1181704" data-name="Grupo 1181704" transform="translate(20.448 20.701)">
          <path id="Trazado_1014637" data-name="Trazado 1014637" d="M40.422,27.534a4.554,4.554,0,0,0-3.38,4.4,1.776,1.776,0,0,0,.012.253H32.231V35.22A1.776,1.776,0,0,1,30.451,37a1.8,1.8,0,0,1-1.119-.385l-5.521-4.426H19.469c-.156,0-.313-.012-.469-.024V29.6a9.536,9.536,0,0,1,8.155-9.442l.265-.95v2.153a2.413,2.413,0,0,0,2.406,2.406,2.423,2.423,0,0,0,2.406-2.406V19.21l.265.95a9.558,9.558,0,0,1,7.927,7.373Z" transform="translate(-19 -19.21)" fill="#fcd770"/>
        </g>
        <g id="Grupo_1181705" data-name="Grupo 1181705" transform="translate(22.854 0)">
          <path id="Trazado_1014638" data-name="Trazado 1014638" d="M34.231,12.825V10.42H24.608v2.406h-1.2a2.364,2.364,0,0,0-1.576.589A7.955,7.955,0,0,1,21,9.891a6.153,6.153,0,0,1,.036-.674A7.885,7.885,0,0,1,28.891,2h1.058A7.87,7.87,0,0,1,37.8,9.217a6.153,6.153,0,0,1,.036.674,7.956,7.956,0,0,1-.83,3.524,2.364,2.364,0,0,0-1.576-.589Z" transform="translate(-21 -2)" fill="#b27946"/>
        </g>
        <g id="Grupo_1181706" data-name="Grupo 1181706" transform="translate(18.812 46.91)">
          <path id="Trazado_1014639" data-name="Trazado 1014639" d="M24.087,41V52.535a9.1,9.1,0,0,0-3.452-2.466,9.168,9.168,0,0,0-2.3-.65l-.686-2.454-.012-.036a3.6,3.6,0,0,0,2.839-3.524h1.2A2.413,2.413,0,0,0,24.087,41Z" transform="translate(-17.64 -41)" fill="#fcd770"/>
        </g>
        <g id="Grupo_1181707" data-name="Grupo 1181707" transform="translate(8.42 46.91)">
          <path id="Trazado_1014640" data-name="Trazado 1014640" d="M12.608,43.406a3.6,3.6,0,0,0,2.839,3.524l-.012.036L14.75,49.42a9.168,9.168,0,0,0-2.3.65A9.1,9.1,0,0,0,9,52.535V41a2.423,2.423,0,0,0,2.406,2.406Z" transform="translate(-9 -41)" fill="#fcd770"/>
        </g>
        <g id="Grupo_1181708" data-name="Grupo 1181708" transform="translate(8.42 33.679)">
          <path id="Trazado_1014641" data-name="Trazado 1014641" d="M11.406,40.825A2.413,2.413,0,0,0,9,43.231V38.42a6.584,6.584,0,0,1,.1-1.2,8.268,8.268,0,0,1,2.37-4.751,8.413,8.413,0,0,1,14.278,4.751,6.584,6.584,0,0,1,.1,1.2v4.811a2.423,2.423,0,0,0-2.406-2.406h-1.2v-1.2H19.946a4.3,4.3,0,0,1-2.418-.734l-2.514-1.672a4.276,4.276,0,0,0-2.382,3.608H11.406Z" transform="translate(-9 -30)" fill="#fcd770"/>
        </g>
        <g id="Grupo_1181709" data-name="Grupo 1181709" transform="translate(46.91 21.651)">
          <path id="Trazado_1014642" data-name="Trazado 1014642" d="M54.231,30.825v-1.2L49.42,27.217a4.346,4.346,0,0,1-3.9,2.406h-.914v1.2h-1.2a2.364,2.364,0,0,0-1.576.589A7.956,7.956,0,0,1,41,27.891c0-.229.012-.457.024-.674.589-2.682,1.311-3.921,2.285-4.908A7.914,7.914,0,0,1,48.891,20h1.058A7.885,7.885,0,0,1,57.8,27.217a6.151,6.151,0,0,1,.036.674,7.956,7.956,0,0,1-.83,3.524,2.364,2.364,0,0,0-1.576-.589Z" transform="translate(-41 -20)" fill="#656d78"/>
        </g>
        <g id="Grupo_1181710" data-name="Grupo 1181710" transform="translate(60.141 32.476)">
          <path id="Trazado_1014643" data-name="Trazado 1014643" d="M52,33.811V29h1.2a2.364,2.364,0,0,1,1.576.589,2.421,2.421,0,0,1,.83,1.816A2.423,2.423,0,0,1,53.2,33.811Z" transform="translate(-52 -29)" fill="#f0d0b4"/>
        </g>
        <g id="Grupo_1181711" data-name="Grupo 1181711" transform="translate(52.684 40.812)">
          <path id="Trazado_1014644" data-name="Trazado 1014644" d="M50.431,35.966l.662,2.382-.241.072-2.406,3.608L46.041,38.42l-.241-.072.662-2.382.012-.036a3.283,3.283,0,0,0,.77.084h2.406a3.283,3.283,0,0,0,.77-.084Z" transform="translate(-45.8 -35.93)" fill="#f0d0b4"/>
        </g>
        <g id="Grupo_1181712" data-name="Grupo 1181712" transform="translate(50.519 28.868)">
          <path id="Trazado_1014645" data-name="Trazado 1014645" d="M53.623,29.608V34.42a3.6,3.6,0,0,1-2.839,3.524,3.283,3.283,0,0,1-.77.084H47.608a3.283,3.283,0,0,1-.77-.084A3.6,3.6,0,0,1,44,34.42V28.406h.914A4.346,4.346,0,0,0,48.811,26l4.811,2.406Z" transform="translate(-44 -26)" fill="#f0d0b4"/>
        </g>
        <g id="Grupo_1181713" data-name="Grupo 1181713" transform="translate(46.91 32.476)">
          <path id="Trazado_1014646" data-name="Trazado 1014646" d="M44.608,29v4.811h-1.2A2.413,2.413,0,0,1,41,31.406a2.352,2.352,0,0,1,.71-1.7,1.134,1.134,0,0,0,.12-.12A2.364,2.364,0,0,1,43.406,29Z" transform="translate(-41 -29)" fill="#f0d0b4"/>
        </g>
        <g id="Grupo_1181714" data-name="Grupo 1181714" transform="translate(36.085 10.825)">
          <path id="Trazado_1014647" data-name="Trazado 1014647" d="M34.9,11.71a2.352,2.352,0,0,1,.71,1.7A2.413,2.413,0,0,1,33.2,15.811H32V11h1.2a2.364,2.364,0,0,1,1.576.589A1.134,1.134,0,0,0,34.9,11.71Z" transform="translate(-32 -11)" fill="#f0d0b4"/>
        </g>
        <g id="Grupo_1181715" data-name="Grupo 1181715" transform="translate(28.868 19.161)">
          <path id="Trazado_1014648" data-name="Trazado 1014648" d="M30.39,17.966l.421,1.5v2.153a2.423,2.423,0,0,1-2.406,2.406A2.413,2.413,0,0,1,26,21.623V19.47l.421-1.5.012-.036a3.283,3.283,0,0,0,.77.084h2.406a3.283,3.283,0,0,0,.77-.084Z" transform="translate(-26 -17.93)" fill="#f0d0b4"/>
        </g>
        <g id="Grupo_1181716" data-name="Grupo 1181716" transform="translate(26.462 8.42)">
          <path id="Trazado_1014649" data-name="Trazado 1014649" d="M30.784,19.741a3.284,3.284,0,0,1-.77.084H27.608a3.284,3.284,0,0,1-.77-.084A3.6,3.6,0,0,1,24,16.217V9h9.623v7.217A3.6,3.6,0,0,1,30.784,19.741Z" transform="translate(-24 -9)" fill="#f0d0b4"/>
        </g>
        <g id="Grupo_1181717" data-name="Grupo 1181717" transform="translate(22.854 10.825)">
          <path id="Trazado_1014650" data-name="Trazado 1014650" d="M24.608,11v4.811h-1.2A2.423,2.423,0,0,1,21,13.406a2.421,2.421,0,0,1,.83-1.816A2.364,2.364,0,0,1,23.406,11Z" transform="translate(-21 -11)" fill="#f0d0b4"/>
        </g>
        <g id="Grupo_1181718" data-name="Grupo 1181718" transform="translate(21.651 44.505)">
          <path id="Trazado_1014651" data-name="Trazado 1014651" d="M22.9,39.71a2.352,2.352,0,0,1,.71,1.7A2.413,2.413,0,0,1,21.2,43.811H20V39h1.2A2.352,2.352,0,0,1,22.9,39.71Z" transform="translate(-20 -39)" fill="#f0d0b4"/>
        </g>
        <g id="Grupo_1181719" data-name="Grupo 1181719" transform="translate(11.872 52.84)">
          <path id="Trazado_1014652" data-name="Trazado 1014652" d="M19.508,48.42a9.168,9.168,0,0,1,2.3.65L18.04,55.637H15.635L11.87,49.069a9.169,9.169,0,0,1,2.3-.65l.686-2.454.012-.036a3.284,3.284,0,0,0,.77.084H18.04a3.284,3.284,0,0,0,.77-.084l.012.036Z" transform="translate(-11.87 -45.93)" fill="#f0d0b4"/>
        </g>
        <g id="Grupo_1181720" data-name="Grupo 1181720" transform="translate(12.028 40.896)">
          <path id="Trazado_1014653" data-name="Trazado 1014653" d="M18.784,47.944a3.284,3.284,0,0,1-.77.084H15.608a3.284,3.284,0,0,1-.77-.084A3.6,3.6,0,0,1,12,44.42V39.9a1.171,1.171,0,0,1,.024-.289A4.276,4.276,0,0,1,14.406,36l2.514,1.672a4.3,4.3,0,0,0,2.418.734h2.285V44.42A3.6,3.6,0,0,1,18.784,47.944Z" transform="translate(-12 -36)" fill="#f0d0b4"/>
        </g>
        <g id="Grupo_1181721" data-name="Grupo 1181721" transform="translate(8.42 44.505)">
          <path id="Trazado_1014654" data-name="Trazado 1014654" d="M9,41.406A2.413,2.413,0,0,1,11.406,39h1.227a1.171,1.171,0,0,0-.024.289v4.523h-1.2A2.423,2.423,0,0,1,9,41.406Z" transform="translate(-9 -39)" fill="#f0d0b4"/>
        </g>
      </g>
      <path id="Trazado_1014655" data-name="Trazado 1014655" d="M69.814,29.868H66.958a9.108,9.108,0,0,0-8.9-7.217H57a9.062,9.062,0,0,0-6.748,3.02l1.228-11.054a5.981,5.981,0,0,0,.035-.639,5.767,5.767,0,0,0-5.762-5.762H42.9A9.108,9.108,0,0,0,34.006,1H32.947a9.108,9.108,0,0,0-8.9,7.217H21.2a5.767,5.767,0,0,0-5.762,5.762,5.9,5.9,0,0,0,.035.636L17.4,31.96a5.734,5.734,0,0,0,1.079,2.748A9.628,9.628,0,0,0,9.736,41.9H6.762A5.767,5.767,0,0,0,1,47.658a5.9,5.9,0,0,0,.035.636L2.962,65.639A5.756,5.756,0,0,0,8.69,70.764h3.918l5.2,4.158a2.983,2.983,0,0,0,4.846-2.33V70.764H29.4a5.758,5.758,0,0,0,5.728-5.125L37.05,48.3a5.942,5.942,0,0,0,.035-.637A5.767,5.767,0,0,0,31.323,41.9H28.349a9.62,9.62,0,0,0-2.963-4.811h1.655l5.2,4.158a2.983,2.983,0,0,0,4.846-2.33V37.085h2.532L41.452,53.61a5.756,5.756,0,0,0,5.728,5.125h6.744v1.828a2.984,2.984,0,0,0,4.847,2.33l5.2-4.158h3.918a5.758,5.758,0,0,0,5.728-5.125l1.927-17.344a6.268,6.268,0,0,0,.034-.637,5.767,5.767,0,0,0-5.762-5.762Zm-6.267,6.014a1.2,1.2,0,0,1,0,2.406ZM57,25.057h1.06a6.653,6.653,0,0,1,6.41,8.556,3.532,3.532,0,0,0-.926-.136v-.743L57,29.456l-.538,1.077a3.135,3.135,0,0,1-2.817,1.74H51.519v1.2a3.566,3.566,0,0,0-.925.135A6.652,6.652,0,0,1,57,25.057Zm.529,21.888-1.288-1.932.2-.711h2.181l.2.711Zm-5.584.876,1.063,8.51h-5.1V54.949a8.386,8.386,0,0,1,4.039-7.129Zm2.591-1.028,1.52,2.281-1.311,1.749-.5-3.971C54.348,46.826,54.444,46.811,54.54,46.792Zm5.985,0c.1.02.192.036.286.059l-.5,3.971-1.311-1.749Zm-1.79-4.9H56.33a2.408,2.408,0,0,1-2.406-2.406V34.672a5.515,5.515,0,0,0,4.031-2.046l3.186,1.594V39.49A2.408,2.408,0,0,1,58.736,41.9Zm-7.217-3.608a1.2,1.2,0,0,1,0-2.406ZM49.113,13.978a3.225,3.225,0,0,1-.022.372L47.368,29.868H45.252c-.109,0-.213.026-.321.032a10.811,10.811,0,0,0-7.823-7.091l-.023-.084v-.075h-.02l-.159-.571a4.8,4.8,0,0,0,2.414-3.037h.171A3.6,3.6,0,0,0,42.465,13.4a9.147,9.147,0,0,0,.6-2.775h2.69a3.36,3.36,0,0,1,3.356,3.356ZM34.679,20.245H32.273a2.408,2.408,0,0,1-2.406-2.406V11.825h7.217V17.84A2.408,2.408,0,0,1,34.679,20.245Zm-2.406,2.809.112-.4h2.181l.113.405v2a1.2,1.2,0,1,1-2.406,0Zm7.217-8.823a1.2,1.2,0,0,1,0,2.406ZM32.947,3.406h1.06a6.653,6.653,0,0,1,6.409,8.556,3.516,3.516,0,0,0-.925-.136V9.42H27.462v2.406a3.566,3.566,0,0,0-.925.135,6.652,6.652,0,0,1,6.41-8.554ZM27.462,16.637a1.2,1.2,0,0,1,0-2.406ZM17.84,13.978A3.36,3.36,0,0,1,21.2,10.623h2.69a9.139,9.139,0,0,0,.6,2.775,3.6,3.6,0,0,0,2.975,5.645h.171a4.806,4.806,0,0,0,2.414,3.037l-.159.571h-.02v.075l-.024.084a10.818,10.818,0,0,0-8.4,10.489v.927a3.343,3.343,0,0,1-1.661-2.531L17.86,14.349a3.476,3.476,0,0,1-.02-.37ZM25.057,47.91a1.2,1.2,0,0,1,0,2.406Zm-.171,4.811h.171a3.568,3.568,0,0,0,1.2-.221v5.541a10.642,10.642,0,0,0-3.584-1.553l-.2-.73A4.806,4.806,0,0,0,24.886,52.722Zm-7.568,5.888.634-2.279h2.181l.634,2.279.775.114c.232.035.461.081.687.134l-2.68,4.69h-1.01l-2.68-4.69c.226-.053.455-.1.687-.135Zm5.333-7.091a2.408,2.408,0,0,1-2.406,2.406H17.84a2.408,2.408,0,0,1-2.406-2.406V46.991a3.131,3.131,0,0,1,1.181-2.461l1.867,1.244a5.538,5.538,0,0,0,3.082.933h1.087Zm-7.038,4.24-.2.73a10.621,10.621,0,0,0-3.584,1.553V52.5a3.568,3.568,0,0,0,1.2.221H13.2A4.806,4.806,0,0,0,15.613,55.759Zm-2.585-5.443a1.2,1.2,0,0,1,0-2.406ZM5.353,65.374,3.427,48.028a3.188,3.188,0,0,1-.022-.37A3.36,3.36,0,0,1,6.762,44.3H9.42v15.93a10.716,10.716,0,0,0-2.406,6.744V67.9A3.34,3.34,0,0,1,5.353,65.374Zm14.892,2.984v4.234a.6.6,0,0,1-.938.451L13.45,68.358H9.42V66.977A8.4,8.4,0,0,1,13.6,59.759l3.54,6.193h3.8l3.539-6.193a8.391,8.391,0,0,1,4.183,7.218v1.381ZM31.323,44.3a3.36,3.36,0,0,1,3.356,3.356,3.225,3.225,0,0,1-.022.372L32.731,65.374a3.336,3.336,0,0,1-1.66,2.53v-.927a10.716,10.716,0,0,0-2.406-6.744V44.3Zm-5.064,0v1.424a3.568,3.568,0,0,0-1.2-.221V44.3H21.564a3.141,3.141,0,0,1-1.747-.528l-3.094-2.063-.624.313a5.525,5.525,0,0,0-2.868,3.482h-.2a3.568,3.568,0,0,0-1.2.221V44.3a7.217,7.217,0,1,1,14.434,0Zm13.327-9.623H34.679v4.234a.6.6,0,0,1-.938.451l-5.857-4.685H23.854V33.3a8.393,8.393,0,0,1,6.038-8.008,3.591,3.591,0,0,0,7.169,0,8.39,8.39,0,0,1,5.551,5.247A5.745,5.745,0,0,0,39.587,34.679Zm4.257,18.667L41.917,36a3.475,3.475,0,0,1-.02-.37,3.36,3.36,0,0,1,3.356-3.356h2.69a9.147,9.147,0,0,0,.6,2.775,3.6,3.6,0,0,0,2.975,5.645h.171A4.806,4.806,0,0,0,54.1,43.73l-.2.73a10.818,10.818,0,0,0-8.4,10.489v.927A3.345,3.345,0,0,1,43.843,53.346ZM63.125,56.33l-5.855,4.685a.6.6,0,0,1-.939-.451V56.33H53.624l3.909-5.212,4.434,5.909,1.15-9.208a8.386,8.386,0,0,1,4.039,7.129V56.33ZM73.148,36,71.221,53.346a3.336,3.336,0,0,1-1.66,2.53v-.927a10.819,10.819,0,0,0-8.4-10.489l-.2-.73a4.8,4.8,0,0,0,2.414-3.037h.171a3.6,3.6,0,0,0,2.975-5.645,9.139,9.139,0,0,0,.6-2.775h2.69a3.36,3.36,0,0,1,3.356,3.356A3.23,3.23,0,0,1,73.148,36Z"/>
    </g>
  </g>
</svg>
