<svg xmlns="http://www.w3.org/2000/svg" width="169.706" height="169.705" viewBox="0 0 169.706 169.705">
  <g id="Grupo_1181091" data-name="Grupo 1181091" transform="translate(-1065.98 -3369.146)">
    <rect id="Rect치ngulo_402033" data-name="Rect치ngulo 402033" width="120" height="120" rx="30" transform="translate(1065.98 3453.999) rotate(-45)" fill="#ffd600"/>
    <rect id="Rect치ngulo_454167" data-name="Rect치ngulo 454167" width="100" height="100" rx="50" transform="translate(1100.833 3403.999)" fill="#c8bf57"/>
    <g id="Grupo_1181853" data-name="Grupo 1181853" transform="translate(1110.001 3413.628)">
      <path id="Trazado_1015043" data-name="Trazado 1015043" d="M153.408,21.714V69.358c0,.1,0,.19-.006.285a6.151,6.151,0,0,1-6.145,5.865H112.675a6.151,6.151,0,0,1-6.152-6.15V14.2a6.142,6.142,0,0,1,6.152-6.151h27.469a6.131,6.131,0,0,1,2.672.612c1.662.8,2.13,1.811,5.116,4.864,3.436,3.731,4.256,4.113,4.956,5.728A6.084,6.084,0,0,1,153.408,21.714Z" transform="translate(-89.262 -6.775)" fill="#ffc477"/>
      <path id="Trazado_1015044" data-name="Trazado 1015044" d="M178.814,21.713V69.357c0,.1,0,.19-.006.285a6.171,6.171,0,0,1-1.389.157H142.837a6.151,6.151,0,0,1-6.152-6.15V8.487c0-.1,0-.192.006-.287a6.179,6.179,0,0,1,1.389-.157H165.55A6.161,6.161,0,0,1,170.044,10l3.293,3.523,3.77,3.945a6.19,6.19,0,0,1,1.706,4.249Z" transform="translate(-114.668 -6.775)" fill="#ffdaaa"/>
      <path id="Trazado_1015045" data-name="Trazado 1015045" d="M290.389,183.589v34.585a8.693,8.693,0,0,1-8.693,8.693H259.107a8.693,8.693,0,0,1-8.693-8.693V183.589a8.689,8.689,0,0,1,8.693-8.693H281.7A8.692,8.692,0,0,1,290.389,183.589Z" transform="translate(-210.462 -147.316)" fill="#4cba68"/>
      <path id="Trazado_1015046" data-name="Trazado 1015046" d="M309.587,183.589v34.585a8.647,8.647,0,0,1-1.684,5.142,8.657,8.657,0,0,1-3.415.7H281.9a8.693,8.693,0,0,1-8.693-8.693V180.735a8.647,8.647,0,0,1,1.684-5.142,8.657,8.657,0,0,1,3.415-.7h22.589A8.692,8.692,0,0,1,309.587,183.589Z" transform="translate(-229.66 -147.316)" fill="#7ccc92"/>
      <path id="Trazado_1015047" data-name="Trazado 1015047" d="M362.7,367.269v4.062a1.3,1.3,0,0,1-1.3,1.3h-4.064a1.3,1.3,0,0,1-1.3-1.3v-4.062a1.3,1.3,0,0,1,1.3-1.3H361.4A1.3,1.3,0,0,1,362.7,367.269Z" transform="translate(-299.431 -308.257)" fill="#2c733f"/>
      <path id="Trazado_1015048" data-name="Trazado 1015048" d="M316.324,209.881v4.352a2.8,2.8,0,0,1-2.8,2.8H291.1a2.8,2.8,0,0,1-2.8-2.8v-4.352a2.8,2.8,0,0,1,2.8-2.8h22.421A2.8,2.8,0,0,1,316.324,209.881Z" transform="translate(-242.371 -174.423)" fill="#1e81ce"/>
      <path id="Trazado_1015049" data-name="Trazado 1015049" d="M341.729,209.881v4.352a2.8,2.8,0,0,1-2.8,2.8H321.261a2.8,2.8,0,0,1-2.8-2.8v-4.352a2.8,2.8,0,0,1,2.8-2.8h17.665A2.8,2.8,0,0,1,341.729,209.881Z" transform="translate(-267.776 -174.423)" fill="#3d9ae2"/>
      <g id="Grupo_1181849" data-name="Grupo 1181849" transform="translate(45.926 47.089)">
        <path id="Trazado_1015050" data-name="Trazado 1015050" d="M294.961,367.269v4.062a1.3,1.3,0,0,1-1.3,1.3H289.6a1.3,1.3,0,0,1-1.3-1.3v-4.062a1.3,1.3,0,0,1,1.3-1.3h4.064A1.3,1.3,0,0,1,294.961,367.269Z" transform="translate(-288.297 -355.346)" fill="#2c733f"/>
        <path id="Trazado_1015051" data-name="Trazado 1015051" d="M362.7,299.908v4.062a1.3,1.3,0,0,1-1.3,1.3h-4.064a1.3,1.3,0,0,1-1.3-1.3v-4.062a1.3,1.3,0,0,1,1.3-1.3H361.4A1.3,1.3,0,0,1,362.7,299.908Z" transform="translate(-345.356 -298.608)" fill="#2c733f"/>
      </g>
      <path id="Trazado_1015052" data-name="Trazado 1015052" d="M431.258,299.908v4.062a1.3,1.3,0,0,1-1.3,1.3H425.9a1.3,1.3,0,0,1-1.3-1.3v-4.062a1.3,1.3,0,0,1,1.3-1.3h4.062A1.3,1.3,0,0,1,431.258,299.908Z" transform="translate(-357.176 -251.519)" fill="#ee8700"/>
      <g id="Grupo_1181850" data-name="Grupo 1181850" transform="translate(45.926 47.089)">
        <path id="Trazado_1015053" data-name="Trazado 1015053" d="M294.961,299.908v4.062a1.3,1.3,0,0,1-1.3,1.3H289.6a1.3,1.3,0,0,1-1.3-1.3v-4.062a1.3,1.3,0,0,1,1.3-1.3h4.064A1.3,1.3,0,0,1,294.961,299.908Z" transform="translate(-288.297 -298.608)" fill="#2c733f"/>
        <path id="Trazado_1015054" data-name="Trazado 1015054" d="M362.7,431.33v4.063a1.3,1.3,0,0,1-1.3,1.3h-4.064a1.3,1.3,0,0,1-1.3-1.3V431.33a1.3,1.3,0,0,1,1.3-1.3H361.4A1.3,1.3,0,0,1,362.7,431.33Z" transform="translate(-345.356 -409.306)" fill="#2c733f"/>
        <path id="Trazado_1015055" data-name="Trazado 1015055" d="M294.961,431.33v4.063a1.3,1.3,0,0,1-1.3,1.3H289.6a1.3,1.3,0,0,1-1.3-1.3V431.33a1.3,1.3,0,0,1,1.3-1.3h4.064A1.3,1.3,0,0,1,294.961,431.33Z" transform="translate(-288.297 -409.306)" fill="#2c733f"/>
      </g>
      <path id="Trazado_1015056" data-name="Trazado 1015056" d="M431.258,367.9v12.615a2.217,2.217,0,0,1-2.216,2.218h-2.229a2.217,2.217,0,0,1-2.216-2.218V367.9a1.931,1.931,0,0,1,1.931-1.931h2.8A1.931,1.931,0,0,1,431.258,367.9Z" transform="translate(-357.176 -308.256)" fill="#ee8700"/>
      <g id="Grupo_1181851" data-name="Grupo 1181851" transform="translate(45.926 47.089)">
        <path id="Trazado_1015057" data-name="Trazado 1015057" d="M362.7,367.269v1.208a1.3,1.3,0,0,1-1.3,1.3h-4.064a1.3,1.3,0,0,1-1.3-1.3v-1.208a1.3,1.3,0,0,1,1.3-1.3H361.4A1.3,1.3,0,0,1,362.7,367.269Z" transform="translate(-345.356 -355.346)" fill="#317f46"/>
        <path id="Trazado_1015058" data-name="Trazado 1015058" d="M294.961,367.269v1.208a1.3,1.3,0,0,1-1.3,1.3H289.6a1.3,1.3,0,0,1-1.3-1.3v-1.208a1.3,1.3,0,0,1,1.3-1.3h4.064A1.3,1.3,0,0,1,294.961,367.269Z" transform="translate(-288.297 -355.346)" fill="#317f46"/>
        <path id="Trazado_1015059" data-name="Trazado 1015059" d="M362.7,299.908v1.208a1.3,1.3,0,0,1-1.3,1.3h-4.064a1.3,1.3,0,0,1-1.3-1.3v-1.208a1.3,1.3,0,0,1,1.3-1.3H361.4A1.3,1.3,0,0,1,362.7,299.908Z" transform="translate(-345.356 -298.608)" fill="#317f46"/>
      </g>
      <path id="Trazado_1015060" data-name="Trazado 1015060" d="M431.258,299.908v1.208a1.3,1.3,0,0,1-1.3,1.3H425.9a1.3,1.3,0,0,1-1.3-1.3v-1.208a1.3,1.3,0,0,1,1.3-1.3h4.062A1.3,1.3,0,0,1,431.258,299.908Z" transform="translate(-357.176 -251.519)" fill="#ff9811"/>
      <g id="Grupo_1181852" data-name="Grupo 1181852" transform="translate(45.926 47.089)">
        <path id="Trazado_1015061" data-name="Trazado 1015061" d="M294.961,299.908v1.208a1.3,1.3,0,0,1-1.3,1.3H289.6a1.3,1.3,0,0,1-1.3-1.3v-1.208a1.3,1.3,0,0,1,1.3-1.3h4.064A1.3,1.3,0,0,1,294.961,299.908Z" transform="translate(-288.297 -298.608)" fill="#317f46"/>
        <path id="Trazado_1015062" data-name="Trazado 1015062" d="M362.7,431.33v1.21a1.3,1.3,0,0,1-1.3,1.3h-4.064a1.3,1.3,0,0,1-1.3-1.3v-1.21a1.3,1.3,0,0,1,1.3-1.3H361.4A1.3,1.3,0,0,1,362.7,431.33Z" transform="translate(-345.356 -409.306)" fill="#317f46"/>
        <path id="Trazado_1015063" data-name="Trazado 1015063" d="M294.961,431.33v1.21a1.3,1.3,0,0,1-1.3,1.3H289.6a1.3,1.3,0,0,1-1.3-1.3v-1.21a1.3,1.3,0,0,1,1.3-1.3h4.064A1.3,1.3,0,0,1,294.961,431.33Z" transform="translate(-288.297 -409.306)" fill="#317f46"/>
      </g>
      <path id="Trazado_1015064" data-name="Trazado 1015064" d="M431.258,367.9v9.762a2.217,2.217,0,0,1-2.216,2.218h-2.229a2.217,2.217,0,0,1-2.216-2.218V367.9a1.931,1.931,0,0,1,1.931-1.931h2.8A1.931,1.931,0,0,1,431.258,367.9Z" transform="translate(-357.176 -308.256)" fill="#ff9811"/>
      <path id="Trazado_1015065" data-name="Trazado 1015065" d="M346.734,22.516h-7.708a2.365,2.365,0,0,1-2.365-2.365V11.924a6.143,6.143,0,0,1,1.823,1.34l3.294,3.523,3.77,3.945A6.09,6.09,0,0,1,346.734,22.516Z" transform="translate(-283.108 -10.044)" fill="#ffb655"/>
      <path id="Trazado_1015066" data-name="Trazado 1015066" d="M93.935,464.663a3.021,3.021,0,0,1-3.012,3.012H72.468a3.012,3.012,0,0,1,0-6.025H90.923A3.021,3.021,0,0,1,93.935,464.663Z" transform="translate(-58.041 -388.85)" fill="#aa6100"/>
      <path id="Trazado_1015067" data-name="Trazado 1015067" d="M93.935,426.458a3.021,3.021,0,0,1-3.012,3.012H72.468a3.012,3.012,0,0,1,0-6.025H90.923A3.021,3.021,0,0,1,93.935,426.458Z" transform="translate(-58.041 -356.67)" fill="#cc7400"/>
      <path id="Trazado_1015068" data-name="Trazado 1015068" d="M93.935,388.254a3.02,3.02,0,0,1-3.012,3.012H72.468a3.012,3.012,0,0,1,0-6.025H90.923A3.021,3.021,0,0,1,93.935,388.254Z" transform="translate(-58.041 -324.491)" fill="#ee8700"/>
      <path id="Trazado_1015069" data-name="Trazado 1015069" d="M93.935,350.049a3.021,3.021,0,0,1-3.012,3.012H72.468a3.021,3.021,0,0,1-3.012-3.012,3.021,3.021,0,0,1,3.012-3.013H90.923A3.021,3.021,0,0,1,93.935,350.049Z" transform="translate(-58.041 -292.31)" fill="#ff9811"/>
      <path id="Trazado_1015070" data-name="Trazado 1015070" d="M90.922,314.859H72.468a3.021,3.021,0,0,1-3.012-3.012h0a3.021,3.021,0,0,1,3.012-3.012H90.922a3.021,3.021,0,0,1,3.012,3.012h0A3.021,3.021,0,0,1,90.922,314.859Z" transform="translate(-58.041 -260.132)" fill="#ffa733"/>
      <path id="Trazado_1015071" data-name="Trazado 1015071" d="M32.1,387.014a9.8,9.8,0,0,0-10.215-9.386H18.042a9.814,9.814,0,0,0,.839,19.611h3v0c.274.011.55.014.829,0a9.973,9.973,0,0,0,1.823-.249,9.815,9.815,0,0,0,7.564-9.2v-.011C32.108,387.524,32.108,387.271,32.1,387.014Z" transform="translate(-6.8 -318.07)" fill="#cc7400"/>
      <path id="Trazado_1015072" data-name="Trazado 1015072" d="M76.688,389.155v.011a9.815,9.815,0,0,1-7.564,9.2,9.819,9.819,0,0,1-7.555-9.135c0-.022,0-.043,0-.065v-.011a9.818,9.818,0,0,1,7.563-9.9,9.817,9.817,0,0,1,7.558,9.137C76.7,388.649,76.7,388.9,76.688,389.155Z" transform="translate(-51.39 -319.448)" fill="#ee8700"/>
      <path id="Trazado_1015073" data-name="Trazado 1015073" d="M71.234,26.391h-5.82V14.938a7.438,7.438,0,0,0-2.056-5.126L59.6,5.877C56.405,2.589,56,1.66,54.1.737A7.437,7.437,0,0,0,50.882,0H23.412a7.428,7.428,0,0,0-7.42,7.42V47.433H14.428a4.278,4.278,0,0,0-3.038,7.293,4.265,4.265,0,0,0-1.243,3.012,4.392,4.392,0,0,0,.084.847A10.791,10.791,0,0,0,11.774,80.1l21.109-.008A4.278,4.278,0,0,0,35.92,72.8,4.258,4.258,0,0,0,37.156,70h1.606v.858a9.893,9.893,0,0,0,9.882,9.882H71.234a9.893,9.893,0,0,0,9.882-9.882V36.273A9.893,9.893,0,0,0,71.234,26.391ZM54.822,4.485c4.981,5.265,6.1,6.453,6.315,6.676,0,0,0,0,0,0h0a.034.034,0,0,0,.006.008l0,0a.027.027,0,0,0,.009.009.022.022,0,0,1,0,.006s0,0,0,0,0,0,0,0,0,0,.006.006H54.821V4.485ZM14.428,49.97H32.882a1.744,1.744,0,1,1,0,3.488H14.428a1.744,1.744,0,1,1,0-3.488Zm0,6.025H32.882a1.744,1.744,0,1,1,0,3.488H20.135a10.33,10.33,0,0,0-1.606-.58,10.692,10.692,0,0,0-2.537-.373c-.249-.006-.5,0-.747.006H12.879a1.715,1.715,0,0,1-.2-.8A1.747,1.747,0,0,1,14.428,55.995Zm20.2,7.769a1.746,1.746,0,0,1-1.744,1.744h-7.1a10.669,10.669,0,0,0-2.153-3.488h9.251A1.747,1.747,0,0,1,34.626,63.763ZM8.257,61.487a10.944,10.944,0,0,0-2,2.562H4.782A8.377,8.377,0,0,1,8.257,61.487Zm-4.825,4.94H5.28a10.95,10.95,0,0,0-.346,1.9H2.982A8.334,8.334,0,0,1,3.433,66.427Zm.2,6.286a8.32,8.32,0,0,1-.6-2.007H4.978a9.571,9.571,0,0,0,.453,2.007Zm1.582,2.378c.778,0,1.23,0,1.336,0a10.711,10.711,0,0,0,1.706,2.064A8.379,8.379,0,0,1,5.219,75.091Zm10.822,2.634a8.414,8.414,0,1,1,5.33-14.6A8.407,8.407,0,0,1,16.042,77.725Zm16.841-.168H22.645a10.865,10.865,0,0,0,2.725-3.488h7.512a1.744,1.744,0,1,1,0,3.488ZM34.612,70a1.745,1.745,0,0,1-1.73,1.532H26.246a10.9,10.9,0,0,0,.154-3.488h6.483A1.745,1.745,0,0,1,34.612,70Zm4.151-2.537H36.473a4.209,4.209,0,0,0-.553-.688,4.271,4.271,0,0,0,0-6.025,4.272,4.272,0,0,0,0-6.025,4.284,4.284,0,0,0-3.038-7.293H18.529V7.42a4.889,4.889,0,0,1,4.883-4.883H52.285v9.936a1.268,1.268,0,0,0,1.268,1.268h9.173c.265,1.027.1.688.151,12.65H48.645a9.893,9.893,0,0,0-9.882,9.882V67.464Zm39.975,3.395a7.512,7.512,0,0,1-7.5,7.5H48.645a7.513,7.513,0,0,1-7.5-7.5V36.273a7.513,7.513,0,0,1,7.5-7.5H71.234a7.512,7.512,0,0,1,7.5,7.5V70.858Z"/>
      <path id="Trazado_1015074" data-name="Trazado 1015074" d="M289.063,209.5h-4.314a1.619,1.619,0,0,1-1.614-1.614V203.53a1.619,1.619,0,0,1,1.614-1.614H307.17a1.616,1.616,0,0,1,1.614,1.614v4.352a1.616,1.616,0,0,1-1.614,1.614h-12.98a1.189,1.189,0,1,0,0,2.378h12.98a4,4,0,0,0,3.992-3.992V203.53a4,4,0,0,0-3.992-3.992H284.749a3.992,3.992,0,0,0-3.992,3.992v4.352a3.992,3.992,0,0,0,3.992,3.992h4.314a1.189,1.189,0,1,0,0-2.378Z" transform="translate(-236.02 -168.072)"/>
      <path id="Trazado_1015075" data-name="Trazado 1015075" d="M283.246,367.469h4.063a2.491,2.491,0,0,0,2.489-2.489v-4.062a2.491,2.491,0,0,0-2.489-2.489h-4.063a2.492,2.492,0,0,0-2.489,2.489v4.062A2.492,2.492,0,0,0,283.246,367.469Zm-.111-6.551a.111.111,0,0,1,.111-.111h4.063a.111.111,0,0,1,.111.111v4.062a.111.111,0,0,1-.111.111h-4.063a.111.111,0,0,1-.111-.111Z" transform="translate(-236.02 -301.906)"/>
      <path id="Trazado_1015076" data-name="Trazado 1015076" d="M423.607,291.068h-4.062a2.491,2.491,0,0,0-2.489,2.489v4.062a2.491,2.491,0,0,0,2.489,2.489h4.062a2.491,2.491,0,0,0,2.489-2.489v-4.062A2.491,2.491,0,0,0,423.607,291.068Zm.111,6.551a.11.11,0,0,1-.111.111h-4.062a.111.111,0,0,1-.111-.111c.049-4.019-.1-4.173.111-4.173h4.062a.11.11,0,0,1,.111.111Z" transform="translate(-350.825 -245.168)"/>
      <path id="Trazado_1015077" data-name="Trazado 1015077" d="M283.246,300.108h4.063a2.491,2.491,0,0,0,2.489-2.489v-4.062a2.491,2.491,0,0,0-2.489-2.489h-4.063a2.492,2.492,0,0,0-2.489,2.489v4.062A2.492,2.492,0,0,0,283.246,300.108Zm-.111-6.551a.111.111,0,0,1,.111-.111h4.063a.111.111,0,0,1,.111.111v4.062a.111.111,0,0,1-.111.111h-4.063a.111.111,0,0,1-.111-.111Z" transform="translate(-236.02 -245.168)"/>
      <path id="Trazado_1015078" data-name="Trazado 1015078" d="M289.15,423.33a2.488,2.488,0,0,0-1.863-.839h-4.063a2.482,2.482,0,0,0-1.861.839,3.4,3.4,0,0,0-.628,2.537v3.176a2.492,2.492,0,0,0,2.489,2.489h4.063a2.491,2.491,0,0,0,2.489-2.489v-3.176A3.429,3.429,0,0,0,289.15,423.33Zm-1.863,5.823c-4.014-.049-4.175.1-4.175-.111,0-4.3-.048-4.173.111-4.173h4.063c.2,0,.075.271.111,1C287.4,425.867,287.5,429.153,287.287,429.153Z" transform="translate(-235.998 -355.866)"/>
      <path id="Trazado_1015079" data-name="Trazado 1015079" d="M422.975,358.428h-2.8a3.124,3.124,0,0,0-3.12,3.12v12.615a3.411,3.411,0,0,0,3.406,3.407h2.229a3.41,3.41,0,0,0,3.406-3.407V361.548A3.123,3.123,0,0,0,422.975,358.428Zm.742,15.736a1.029,1.029,0,0,1-1.027,1.029h-2.229a1.03,1.03,0,0,1-1.027-1.029V361.548a.743.743,0,0,1,.742-.742h2.8a.743.743,0,0,1,.742.742v12.615Z" transform="translate(-350.825 -301.905)"/>
      <path id="Trazado_1015080" data-name="Trazado 1015080" d="M167.744,175.447h0c-1.45-.533-2.5-.917-2.5-2.261,0-1.224.813-1.845,2.416-1.845,1.7,0,2.16.749,2.76.749a1.142,1.142,0,0,0,1.014-1.171c0-.991-1.616-1.482-3.06-1.611v-.893a1.127,1.127,0,1,0-2.253,0v1.036a3.685,3.685,0,0,0-3.06,3.855c0,2.768,2.037,3.533,3.675,4.149,1.6.6,2.87,1.078,2.87,2.909,0,1.512-.839,2.278-2.5,2.278-2.423,0-2.446-1.636-3.371-1.636a1.189,1.189,0,0,0-1.034,1.171c0,.937,1.4,2.169,3.415,2.488v.863a1.127,1.127,0,0,0,2.253,0v-.886a4.071,4.071,0,0,0,3.415-4.4C171.791,176.934,169.547,176.11,167.744,175.447Z" transform="translate(-136.586 -140.907)"/>
      <path id="Trazado_1015081" data-name="Trazado 1015081" d="M355.031,422.491h-4.064a2.488,2.488,0,0,0-1.863.839,3.414,3.414,0,0,0-.626,2.537v3.176a2.491,2.491,0,0,0,2.489,2.489h4.064a2.491,2.491,0,0,0,2.488-2.489v-4.063a2.492,2.492,0,0,0-2.488-2.488Zm0,6.662c-4.014-.049-4.175.1-4.175-.111v-4.063a.111.111,0,0,1,.111-.109h4.064a.11.11,0,0,1,.109.109C355.092,429,355.242,429.153,355.031,429.153Z" transform="translate(-293.059 -355.866)"/>
      <path id="Trazado_1015082" data-name="Trazado 1015082" d="M355.052,291.068h-4.064a2.491,2.491,0,0,0-2.489,2.489v4.062a2.491,2.491,0,0,0,2.489,2.489h4.064a2.451,2.451,0,0,0,.905-.171,2.492,2.492,0,0,0,1.582-2.318v-4.062A2.492,2.492,0,0,0,355.052,291.068Zm.109,6.551a.11.11,0,0,1-.109.111h-4.064a.111.111,0,0,1-.111-.111v-4.062c0-.214.147-.063,4.175-.111a.11.11,0,0,1,.109.111v4.062Z" transform="translate(-293.08 -245.168)"/>
      <path id="Trazado_1015083" data-name="Trazado 1015083" d="M355.957,358.6a2.451,2.451,0,0,0-.905-.171h-4.064a2.491,2.491,0,0,0-2.489,2.489v4.062a2.491,2.491,0,0,0,2.489,2.489h4.064a2.491,2.491,0,0,0,2.488-2.489v-4.062A2.492,2.492,0,0,0,355.957,358.6Zm-.8,6.38a.11.11,0,0,1-.109.111h-4.064a.111.111,0,0,1-.111-.111v-4.062a.111.111,0,0,1,.111-.111h4.064a.11.11,0,0,1,.109.111Z" transform="translate(-293.08 -301.905)"/>
      <path id="Trazado_1015084" data-name="Trazado 1015084" d="M321.236,105.42h2.987a1.189,1.189,0,1,0,0-2.378h-2.987a1.189,1.189,0,0,0,0,2.378Z" transform="translate(-269.114 -86.793)"/>
      <path id="Trazado_1015085" data-name="Trazado 1015085" d="M157.359,105.42h21.086a1.189,1.189,0,0,0,0-2.378H157.359a1.189,1.189,0,0,0,0,2.378Z" transform="translate(-131.08 -86.793)"/>
      <path id="Trazado_1015086" data-name="Trazado 1015086" d="M161.139,142.85a1.189,1.189,0,1,0,0-2.378h-3.78a1.189,1.189,0,0,0,0,2.378Z" transform="translate(-131.08 -118.32)"/>
      <path id="Trazado_1015087" data-name="Trazado 1015087" d="M232.971,141.661a1.189,1.189,0,0,0-1.189-1.189H211.488a1.189,1.189,0,1,0,0,2.378h20.294A1.19,1.19,0,0,0,232.971,141.661Z" transform="translate(-176.673 -118.32)"/>
      <path id="Trazado_1015088" data-name="Trazado 1015088" d="M79.951,402.413c0-.3.11-.385.213-.442a2.043,2.043,0,0,1,1.724.117,1.36,1.36,0,0,0,.644.2c1.173,0,2.1-2.179-.7-2.661v-.075a1.2,1.2,0,0,0-2.41,0v.229a2.7,2.7,0,0,0-1.838,2.708c0,2.028,1.473,2.582,2.549,2.986,1.026.386,1.381.554,1.381,1.252,0,.436-.117.84-.97.84-1.243,0-1.094-.982-2.024-.982a1.242,1.242,0,0,0-1.149,1.232c0,.824.857,1.606,2.051,1.923v.09a1.2,1.2,0,0,0,2.41,0V409.7a2.979,2.979,0,0,0,2.051-3.051C83.882,403.037,79.951,403.58,79.951,402.413Z" transform="translate(-64.706 -335.525)"/>
    </g>
  </g>
</svg>
