<svg xmlns="http://www.w3.org/2000/svg" width="50" height="44.922" viewBox="0 0 50 44.922">
  <g id="Grupo_1177718" data-name="Grupo 1177718" transform="translate(0 0)">
    <path id="Trazado_995503" data-name="Trazado 995503" d="M246.977,100a.977.977,0,1,0,.977.977A.977.977,0,0,0,246.977,100Zm0,0" transform="translate(-221.977 -90.235)" fill="#405425"/>
    <path id="Trazado_995504" data-name="Trazado 995504" d="M80.977,261.953a.977.977,0,1,0-.977-.977A.977.977,0,0,0,80.977,261.953Zm0,0" transform="translate(-72.188 -234.61)" fill="#405425"/>
    <path id="Trazado_995505" data-name="Trazado 995505" d="M32.812,0C24.021,0,16.8,6.061,16.247,13.7,7.874,14.116,0,20.154,0,28.32a13.646,13.646,0,0,0,3.809,9.339,5.939,5.939,0,0,1-1.569,5.6.976.976,0,0,0,.69,1.667A10.772,10.772,0,0,0,10.393,41.9a22.254,22.254,0,0,0,6.794,1.064c8.791,0,16.006-6.06,16.565-13.694a21.959,21.959,0,0,0,5.854-1.042A10.772,10.772,0,0,0,47.07,31.25a.976.976,0,0,0,.69-1.667,5.939,5.939,0,0,1-1.569-5.6A13.646,13.646,0,0,0,50,14.648C50,6.163,41.52,0,32.813,0ZM17.187,41.015A19.741,19.741,0,0,1,10.5,39.863a.977.977,0,0,0-1.082.248,8.812,8.812,0,0,1-4.383,2.6,7.9,7.9,0,0,0,.6-5.812.975.975,0,0,0-.239-.413A11.736,11.736,0,0,1,1.953,28.32c0-6.882,6.976-12.7,15.234-12.7,7.8,0,14.648,5.423,14.648,12.7,0,7-6.571,12.7-14.648,12.7Zm27.423-18.2a.979.979,0,0,0-.239.413,7.9,7.9,0,0,0,.6,5.812,8.809,8.809,0,0,1-4.383-2.6.977.977,0,0,0-1.082-.248,19.238,19.238,0,0,1-5.753,1.128,13.978,13.978,0,0,0-5.277-9.741H41.211a.977.977,0,0,0,0-1.953H25.473A18.213,18.213,0,0,0,18.2,13.7c.561-6.559,6.9-11.747,14.608-11.747,8.258,0,15.234,5.814,15.234,12.7a11.736,11.736,0,0,1-3.436,8.167Zm0,0" fill="#405425"/>
    <path id="Trazado_995506" data-name="Trazado 995506" d="M133.281,260h-12.3a.977.977,0,0,0,0,1.953h12.3a.977.977,0,0,0,0-1.953Zm0,0" transform="translate(-108.281 -234.61)" fill="#405425"/>
    <path id="Trazado_995507" data-name="Trazado 995507" d="M97.188,320H80.977a.977.977,0,0,0,0,1.953H97.188a.977.977,0,0,0,0-1.953Zm0,0" transform="translate(-72.188 -288.75)" fill="#405425"/>
    <path id="Trazado_995508" data-name="Trazado 995508" d="M299.281,100h-12.3a.977.977,0,1,0,0,1.953h12.3a.977.977,0,1,0,0-1.953Zm0,0" transform="translate(-258.07 -90.235)" fill="#405425"/>
  </g>
</svg>
