<svg xmlns="http://www.w3.org/2000/svg" width="88" height="88" viewBox="0 0 88 88">
  <g id="Grupo_1180979" data-name="Grupo 1180979" transform="translate(-716.711 -529)">
    <rect id="Rectángulo_454495" data-name="Rectángulo 454495" width="88" height="88" rx="5" transform="translate(716.711 529)" fill="#c8bf57"/>
    <g id="Page-1" transform="translate(730.711 542.936)">
      <g id="_028---Treasure-Map" data-name="028---Treasure-Map">
        <path id="Shape" d="M14,21V50a1,1,0,0,1-1,1H5a4,4,0,0,0-4,3.81V24a4,4,0,0,1,4-4h8a1,1,0,0,1,1,1Z" fill="#ffe0b2"/>
        <path id="Shape-2" data-name="Shape" d="M53.54,7.56a11,11,0,0,0-21.02,4.57,22.328,22.328,0,0,0,3.5,11.82.219.219,0,0,0,.03.05c.08.13.16.25.25.38a28.263,28.263,0,0,0,3.47,4.34A25.5,25.5,0,0,0,43.52,32a25.509,25.509,0,0,0,3.74-3.26,28.632,28.632,0,0,0,3.48-4.36c.08-.13.17-.25.24-.38a.219.219,0,0,0,.03-.05,22.332,22.332,0,0,0,3.51-11.82,11.05,11.05,0,0,0-.98-4.57ZM43.45,19a6.961,6.961,0,1,1,4.916-2.064A7,7,0,0,1,43.45,19Z" fill="#f44335"/>
        <path id="Shape-3" data-name="Shape" d="M53.54,7.56A10.9,10.9,0,0,0,42.02,1.107a11.145,11.145,0,0,1,9.5,11.023,22.332,22.332,0,0,1-3.51,11.82.219.219,0,0,1-.03.05c-.07.13-.16.25-.24.38a28.632,28.632,0,0,1-3.48,4.36,29.46,29.46,0,0,1-2.238,2.1c.9.759,1.5,1.164,1.5,1.164a25.509,25.509,0,0,0,3.74-3.26,28.632,28.632,0,0,0,3.48-4.36c.08-.13.17-.25.24-.38a.219.219,0,0,0,.03-.05,22.332,22.332,0,0,0,3.51-11.82A11.05,11.05,0,0,0,53.54,7.56Z" fill="#c81e1e"/>
        <ellipse id="Oval" cx="6.93" cy="7" rx="6.93" ry="7" transform="translate(36.52 5)" fill="#ffeb3a"/>
        <path id="Shape-4" data-name="Shape" d="M43.45,5a6.887,6.887,0,0,0-1.5.169,7.011,7.011,0,0,1,0,13.662,6.887,6.887,0,0,0,1.5.169,7,7,0,0,0,0-14Z" fill="#fdd834"/>
        <path id="Shape-5" data-name="Shape" d="M50,32c0,2.21-2.91,4-6.5,4S37,34.21,37,32c0-1.36,1.1-2.55,2.77-3.28A25.5,25.5,0,0,0,43.52,32a25.509,25.509,0,0,0,3.74-3.26C48.92,29.46,50,30.65,50,32Z" fill="sienna"/>
        <path id="Shape-6" data-name="Shape" d="M47.26,28.74c-.426.442-.83.831-1.212,1.186A2.96,2.96,0,0,1,47,32c0,1.892-2.135,3.472-5,3.889A10.428,10.428,0,0,0,43.5,36c3.59,0,6.5-1.79,6.5-4,0-1.35-1.08-2.54-2.74-3.26Z" fill="#783e22"/>
        <path id="Shape-7" data-name="Shape" d="M59,25V58a1,1,0,0,1-1,1H52l-4-5-4,5H5.23A4.175,4.175,0,0,1,1,55v-.19A4,4,0,0,1,5,51h8a1,1,0,0,0,1-1V24H27l3,4,3-4h3.05c.08.13.16.25.25.38a28.263,28.263,0,0,0,3.47,4.34C38.1,29.45,37,30.64,37,32c0,2.21,2.91,4,6.5,4S50,34.21,50,32c0-1.35-1.08-2.54-2.74-3.26a28.632,28.632,0,0,0,3.48-4.36c.08-.13.17-.25.24-.38H58A1,1,0,0,1,59,25Z" fill="#dfc49c"/>
        <path id="Shape-8" data-name="Shape" d="M25.332,28.445a1,1,0,0,0-1.387-.277l-1.7,1.13-1.7-1.13a1,1,0,0,0-1.11,1.664l1,.668-1,.668a1,1,0,0,0,1.11,1.664l1.7-1.13,1.7,1.13a1,1,0,0,0,1.11-1.664l-1-.668,1-.668a1,1,0,0,0,.277-1.387Z" fill="#f44335"/>
        <path id="Shape-9" data-name="Shape" d="M38.813,47.419a1,1,0,0,0-1.394-.233L34.5,49.271l-2.919-2.085a1,1,0,0,0-1.162,1.628l2.36,1.686-2.36,1.686a1,1,0,0,0,1.162,1.628L34.5,51.729l2.919,2.085a1,1,0,0,0,1.162-1.628L36.221,50.5l2.36-1.686a1,1,0,0,0,.232-1.4Z" fill="#f44335"/>
        <g id="Grupo_1181208" data-name="Grupo 1181208">
          <path id="Shape-10" data-name="Shape" d="M59,42a5.143,5.143,0,0,1-1.254-.142,4.121,4.121,0,0,1-.948-.365,5.641,5.641,0,0,1-.82-.545,1,1,0,1,0-1.235,1.573,7.566,7.566,0,0,0,1.113.736,6.083,6.083,0,0,0,1.408.542A7.143,7.143,0,0,0,59,44a1,1,0,0,0,0-2Z" fill="#91562d"/>
          <path id="Shape-11" data-name="Shape" d="M53.141,38.743a6.036,6.036,0,0,0-1.409-.541A7.074,7.074,0,0,0,50,38a1,1,0,0,0,0,2,5.128,5.128,0,0,1,1.253.142,4.139,4.139,0,0,1,.949.365,1,1,0,1,0,.942-1.764Z" fill="#91562d"/>
          <path id="Shape-12" data-name="Shape" d="M45.739,39.479c-.315.247-.612.51-.908.773-.267.237-.532.474-.814.7a5.554,5.554,0,0,1-.821.544,1,1,0,1,0,.94,1.766,7.59,7.59,0,0,0,1.115-.737c.315-.247.612-.51.908-.773.267-.237.532-.474.815-.7a1,1,0,1,0-1.235-1.573Z" fill="#91562d"/>
          <path id="Shape-13" data-name="Shape" d="M39.741,41.858a4.121,4.121,0,0,1-.948-.365,5.553,5.553,0,0,1-.819-.545,1,1,0,1,0-1.235,1.573,7.433,7.433,0,0,0,1.113.736,6.011,6.011,0,0,0,1.407.541.961.961,0,0,0,.242.03,1,1,0,0,0,.24-1.97Z" fill="#91562d"/>
          <path id="Shape-14" data-name="Shape" d="M32,40a5.12,5.12,0,0,1,1.252.142,4.1,4.1,0,0,1,.948.365,1,1,0,1,0,.942-1.764,6,6,0,0,0-1.408-.541A7.175,7.175,0,0,0,32,38a1,1,0,1,0,0,2Z" fill="#91562d"/>
          <path id="Shape-15" data-name="Shape" d="M27.741,39.479c-.315.247-.612.51-.908.773-.267.237-.532.474-.814.7a1,1,0,0,0,1.234,1.573c.315-.247.612-.51.908-.773.267-.237.532-.474.815-.7a1,1,0,1,0-1.235-1.573Z" fill="#91562d"/>
          <path id="Shape-16" data-name="Shape" d="M23,42a5.128,5.128,0,0,1-1.253-.142,4.1,4.1,0,0,1-.947-.365,1,1,0,1,0-.942,1.764,6,6,0,0,0,1.407.541A7.074,7.074,0,0,0,23,44a1,1,0,1,0,0-2Z" fill="#91562d"/>
          <path id="Shape-17" data-name="Shape" d="M17.142,38.743a6.045,6.045,0,0,0-1.407-.541A7.172,7.172,0,0,0,14,38a1,1,0,1,0,0,2,5.114,5.114,0,0,1,1.252.142,4.1,4.1,0,0,1,.948.365,5.647,5.647,0,0,1,.821.545,1,1,0,1,0,1.234-1.573,7.566,7.566,0,0,0-1.113-.736Z" fill="#91562d"/>
        </g>
        <path id="Shape-18" data-name="Shape" d="M43.448,20a8,8,0,1,0-7.928-8A8,8,0,0,0,43.448,20Zm0-14a6,6,0,1,1-5.928,6,6,6,0,0,1,5.928-6Z"/>
        <path id="Shape-19" data-name="Shape" d="M1.374,58.345a5.338,5.338,0,0,0,3.389,1.607A.941.941,0,0,0,5,60H44a1,1,0,0,0,.781-.375L48,55.6l3.219,4.024A1,1,0,0,0,52,60h6a2,2,0,0,0,2-2V25a2,2,0,0,0-2-2H52.715a22.824,22.824,0,0,0,2.8-10.872,12,12,0,0,0-24,0A22.821,22.821,0,0,0,34.321,23H33a1,1,0,0,0-.8.4L30,26.333,27.8,23.4A1,1,0,0,0,27,23H15V21a2,2,0,0,0-2-2H5a5,5,0,0,0-5,5V55a.979.979,0,0,0,.026.131,4.833,4.833,0,0,0,1.348,3.214ZM34.407,7.964a10,10,0,0,1,19.112,4.164A21.269,21.269,0,0,1,50.147,23.45c-.057.1-.119.192-.181.285l-.066.1a28.83,28.83,0,0,1-6.381,6.927,28.841,28.841,0,0,1-6.387-6.935l-.061-.09c-.062-.093-.124-.185-.2-.314A21.233,21.233,0,0,1,33.518,12.13a10.021,10.021,0,0,1,.889-4.166Zm5.157,21.983a25.947,25.947,0,0,0,3.4,2.884,1,1,0,0,0,1.115,0,25.624,25.624,0,0,0,3.379-2.871A2.589,2.589,0,0,1,49,32c0,1.419-2.259,3-5.5,3S38,33.419,38,32a2.623,2.623,0,0,1,1.564-2.053ZM29.2,28.6a1,1,0,0,0,1.6,0L33.5,25h2.013a29.6,29.6,0,0,0,2.655,3.47A4.361,4.361,0,0,0,36,32c0,2.8,3.294,5,7.5,5S51,34.8,51,32a4.334,4.334,0,0,0-2.148-3.518A30.422,30.422,0,0,0,51.524,25H58V58H52.48l-3.7-4.625a1.036,1.036,0,0,0-1.562,0L43.52,58H21V55a1,1,0,0,0-2,0v3H5.226a3.34,3.34,0,0,1-2.4-1.035A2.849,2.849,0,0,1,2,54.856,2.993,2.993,0,0,1,5,52h8a2,2,0,0,0,2-2V25H26.5ZM2.872,21.882A3.018,3.018,0,0,1,5,21H6v3a1,1,0,0,0,2,0V21h5V50H10V47a1,1,0,1,0-2,0v3H5a4.977,4.977,0,0,0-3,1.026V24a3.01,3.01,0,0,1,.872-2.118Z"/>
      </g>
    </g>
  </g>
</svg>
