<svg xmlns="http://www.w3.org/2000/svg" width="169.706" height="169.705" viewBox="0 0 169.706 169.705">
  <g id="Grupo_1181083" data-name="Grupo 1181083" transform="translate(-1065.98 -3369.146)">
    <rect id="Rect치ngulo_402033" data-name="Rect치ngulo 402033" width="120" height="120" rx="30" transform="translate(1065.98 3453.999) rotate(-45)" fill="#ffd600"/>
    <rect id="Rect치ngulo_454167" data-name="Rect치ngulo 454167" width="100" height="100" rx="50" transform="translate(1100.833 3403.999)" fill="#c8bf57"/>
    <g id="Grupo_1181845" data-name="Grupo 1181845" transform="translate(1063.46 3413.359)">
      <g id="Grupo_1181843" data-name="Grupo 1181843" transform="translate(56.742 1.191)">
        <g id="Grupo_1181840" data-name="Grupo 1181840" transform="translate(0)">
          <path id="Trazado_1014984" data-name="Trazado 1014984" d="M158.223,40.455h-4.609V103.3a3.972,3.972,0,0,1-3.973,3.972H108.19v2.788a4.062,4.062,0,0,0,4.062,4.062h45.971a4.062,4.062,0,0,0,4.062-4.062V44.517a4.063,4.063,0,0,0-4.063-4.062Z" transform="translate(-101.024 -35.223)" fill="#2ecefb"/>
          <path id="Trazado_1014985" data-name="Trazado 1014985" d="M205.768,11.562V77.105a4.062,4.062,0,0,1-4.062,4.061H177.438c-11.952-15.963-12.152-54.5-.017-73.666h24.286a4.063,4.063,0,0,1,4.062,4.062Z" transform="translate(-151.673 -7.5)" fill="#fff4e5"/>
          <path id="Trazado_1014986" data-name="Trazado 1014986" d="M88.816,81.166h-21.7a4.062,4.062,0,0,1-4.062-4.061V11.562A4.063,4.063,0,0,1,67.113,7.5H88.8c-9.5,20.5-8.966,53.462.017,73.666Z" transform="translate(-63.051 -7.5)" fill="#ffe0b7"/>
          <path id="Trazado_1014987" data-name="Trazado 1014987" d="M203.268,227.809v27.853a2.319,2.319,0,0,1-2.319,2.319H179.5c-6.554-8.811-6.554-24.077-4.442-32.491h25.886A2.319,2.319,0,0,1,203.268,227.809Z" transform="translate(-156.227 -190.884)" fill="#83deff"/>
          <path id="Trazado_1014988" data-name="Trazado 1014988" d="M123.714,257.981h-13.9a2.319,2.319,0,0,1-2.319-2.319V227.809a2.319,2.319,0,0,1,2.319-2.319h9.461A103.845,103.845,0,0,0,123.714,257.981Z" transform="translate(-100.436 -190.884)" fill="#2ecefb"/>
          <g id="Grupo_1181839" data-name="Grupo 1181839" transform="translate(13.813 40.176)">
            <g id="Grupo_1181838" data-name="Grupo 1181838">
              <path id="Trazado_1014989" data-name="Trazado 1014989" d="M155.2,357.825a2.25,2.25,0,0,1-.824-3.074l2.076-3.595,5.086.193L158.272,357A2.251,2.251,0,0,1,155.2,357.825Z" transform="translate(-153.436 -336.777)" fill="#f85647"/>
              <g id="Grupo_1181837" data-name="Grupo 1181837">
                <path id="Trazado_1014990" data-name="Trazado 1014990" d="M196.38,275.522l6.944,3.73a1.484,1.484,0,0,0,2.186-1.307v-15.88a1.484,1.484,0,0,0-2.186-1.307l-6.944,3.73Z" transform="translate(-189.027 -260.58)" fill="#fff4e5"/>
                <path id="Trazado_1014991" data-name="Trazado 1014991" d="M157.416,296.236H153.6a3.534,3.534,0,0,1-3.534-3.534v-3.965A3.534,3.534,0,0,1,153.6,285.2h3.819Z" transform="translate(-150.063 -281.293)" fill="#fd7a6e"/>
              </g>
            </g>
          </g>
        </g>
        <g id="Grupo_1181842" data-name="Grupo 1181842" transform="translate(10.015 8.992)">
          <g id="Grupo_1181841" data-name="Grupo 1181841">
            <ellipse id="Elipse_13904" data-name="Elipse 13904" cx="4.591" cy="3.656" rx="4.591" ry="3.656" fill="#ffa1ac"/>
            <ellipse id="Elipse_13905" data-name="Elipse 13905" cx="4.591" cy="3.656" rx="4.591" ry="3.656" transform="translate(24.884)" fill="#ffa1ac"/>
          </g>
        </g>
      </g>
      <g id="Grupo_1181844" data-name="Grupo 1181844" transform="translate(55.552 0)">
        <path id="Trazado_1014992" data-name="Trazado 1014992" d="M99.988,221.5v27.852a3.514,3.514,0,0,0,3.51,3.51h35.348a3.514,3.514,0,0,0,3.51-3.51V221.5a3.514,3.514,0,0,0-3.51-3.51H103.5a3.514,3.514,0,0,0-3.51,3.51Zm39.987,0v27.852a1.13,1.13,0,0,1-1.129,1.129H103.5a1.13,1.13,0,0,1-1.129-1.129V221.5a1.13,1.13,0,0,1,1.129-1.129h35.348A1.13,1.13,0,0,1,139.975,221.5Z" transform="translate(-92.934 -183.383)"/>
        <path id="Trazado_1014993" data-name="Trazado 1014993" d="M144.79,269.681l-1.132,1.961a3.441,3.441,0,0,0,1.26,4.7,3.456,3.456,0,0,0,4.7-1.26l2.346-4.063,5.52,2.965a2.674,2.674,0,0,0,3.94-2.356v-15.88a2.674,2.674,0,0,0-3.94-2.356l-6.68,3.588h-3.519a4.73,4.73,0,0,0-4.725,4.725v3.965A4.726,4.726,0,0,0,144.79,269.681Zm2.766,4.211a1.06,1.06,0,0,1-1.836-1.06l1.409-2.44,2.446,0Zm11.055-18.4a.293.293,0,0,1,.431.258v15.88a.293.293,0,0,1-.431.258l-6.317-3.393v-9.61Zm-13.669,6.215a2.346,2.346,0,0,1,2.344-2.344h2.628v8.653h-2.628a2.346,2.346,0,0,1-2.344-2.344Z" transform="translate(-128.748 -212.896)"/>
        <path id="Trazado_1014994" data-name="Trazado 1014994" d="M285.564,312.453a1.191,1.191,0,0,0,0,2.381h3.957a1.191,1.191,0,0,0,0-2.381Z" transform="translate(-248.048 -262.851)"/>
        <path id="Trazado_1014995" data-name="Trazado 1014995" d="M285.563,267.148a1.184,1.184,0,0,0,.659-.2l2.844-1.9a1.191,1.191,0,0,0-1.321-1.981l-2.844,1.9a1.191,1.191,0,0,0,.661,2.181Z" transform="translate(-248.046 -221.14)"/>
        <path id="Trazado_1014996" data-name="Trazado 1014996" d="M284.9,352.272l2.844,1.9a1.191,1.191,0,0,0,1.321-1.981l-2.844-1.9a1.191,1.191,0,0,0-1.321,1.981Z" transform="translate(-248.047 -294.514)"/>
        <path id="Trazado_1014997" data-name="Trazado 1014997" d="M129.725,134.7a1.191,1.191,0,0,0,1.191,1.191h30.545a1.191,1.191,0,1,0,0-2.381H130.916A1.191,1.191,0,0,0,129.725,134.7Z" transform="translate(-117.95 -112.317)"/>
        <path id="Trazado_1014998" data-name="Trazado 1014998" d="M130.916,174.819h30.545a1.191,1.191,0,0,0,0-2.381H130.916a1.191,1.191,0,0,0,0,2.381Z" transform="translate(-117.95 -145.064)"/>
        <path id="Trazado_1015002" data-name="Trazado 1015002" d="M118,64.681a1.191,1.191,0,0,0,1.191-1.191V10.485a5.259,5.259,0,0,0-5.253-5.253h-1.913A5.258,5.258,0,0,0,106.776,0H60.805a5.259,5.259,0,0,0-5.253,5.253v5.439a1.191,1.191,0,0,0,2.381,0V5.253a2.875,2.875,0,0,1,2.872-2.872h45.971a2.875,2.875,0,0,1,2.872,2.872V70.8a2.875,2.875,0,0,1-2.872,2.872H60.805A2.875,2.875,0,0,1,57.933,70.8V16.248a1.191,1.191,0,0,0-2.381,0V70.8a5.259,5.259,0,0,0,5.253,5.253h1.913a5.258,5.258,0,0,0,5.252,5.232h45.971a5.259,5.259,0,0,0,5.253-5.253v-6.98a1.191,1.191,0,0,0-2.381,0v6.98a2.875,2.875,0,0,1-2.872,2.872H67.971a2.874,2.874,0,0,1-2.871-2.85h41.676a5.259,5.259,0,0,0,5.253-5.253V7.613h1.912a2.875,2.875,0,0,1,2.872,2.872V63.49A1.191,1.191,0,0,0,118,64.681Z" transform="translate(-55.552 0)"/>
      </g>
    </g>
  </g>
</svg>
