<svg xmlns="http://www.w3.org/2000/svg" width="50" height="50" viewBox="0 0 50 50">
  <path id="Trazado_995502" data-name="Trazado 995502" d="M22.818,52.383a.806.806,0,0,1-1.1.3A22.691,22.691,0,0,1,10.429,30.771L9.388,31.846a.806.806,0,1,1-1.159-1.122l2.808-2.9a.806.806,0,0,1,1.263.133l2.142,3.421a.806.806,0,1,1-1.367.856l-1.009-1.611a21.079,21.079,0,0,0,10.453,20.66.807.807,0,0,1,.3,1.1Zm29.565-9.2a.807.807,0,0,0-1.1.3A21.078,21.078,0,0,1,30.624,53.936l1.612-1.009a.806.806,0,1,0-.856-1.367L27.959,53.7a.806.806,0,0,0-.133,1.263l2.9,2.808a.806.806,0,0,0,1.122-1.159l-1.074-1.04q1.109.109,2.22.11a22.693,22.693,0,0,0,19.69-11.4.807.807,0,0,0-.3-1.1ZM13.619,22.817a.806.806,0,0,0,1.1-.3A21.075,21.075,0,0,1,35.378,12.064l-1.61,1.009a.806.806,0,1,0,.856,1.367L38.044,12.3a.806.806,0,0,0,.133-1.263l-2.9-2.808a.806.806,0,0,0-1.122,1.159l1.075,1.041A22.688,22.688,0,0,0,13.32,21.717.806.806,0,0,0,13.619,22.817ZM57.756,34.136a.806.806,0,0,0-1.14.018l-1.041,1.075A22.688,22.688,0,0,0,44.287,13.319a.806.806,0,0,0-.8,1.4A21.076,21.076,0,0,1,53.938,35.377l-1.009-1.611a.806.806,0,1,0-1.367.856L53.7,38.043a.807.807,0,0,0,.6.374.821.821,0,0,0,.084,0,.806.806,0,0,0,.579-.246l2.808-2.9a.807.807,0,0,0-.019-1.14ZM42.369,18.91a16.923,16.923,0,0,0-24,22.6.806.806,0,0,0,1.394-.812A15.308,15.308,0,0,1,41.592,20.331l-.771.028a.806.806,0,0,0,.028,1.612h.029l2.971-.107a.807.807,0,0,0,.747-1.027l-.816-2.859a.806.806,0,1,0-1.551.443ZM23.635,47.091a16.922,16.922,0,0,0,24-22.6.806.806,0,0,0-1.394.812A15.308,15.308,0,0,1,24.411,45.669l.772-.028a.806.806,0,1,0-.058-1.612l-2.971.107a.807.807,0,0,0-.747,1.027l.816,2.859a.806.806,0,1,0,1.551-.443Zm21.658-16.5a3.16,3.16,0,0,1-.8,2.1,5.47,5.47,0,0,1,3.08,4.36.806.806,0,0,1-.8.892H39.293c.013.085.024.169.033.255a.806.806,0,0,1-.8.892H27.481a.806.806,0,0,1-.8-.892c.009-.086.021-.171.033-.255H19.232a.806.806,0,0,1-.8-.892,5.47,5.47,0,0,1,3.08-4.36,3.174,3.174,0,1,1,4.749.006,5.545,5.545,0,0,1,2.127,1.8,6.351,6.351,0,0,1,2.048-1.441,3.614,3.614,0,1,1,5.138,0A6.351,6.351,0,0,1,37.62,34.5a5.545,5.545,0,0,1,2.127-1.8,3.173,3.173,0,1,1,5.545-2.106Zm-3.174,1.561a1.561,1.561,0,1,0-1.561-1.561A1.563,1.563,0,0,0,42.118,32.152ZM33,32.522a2,2,0,1,0-2-2A2,2,0,0,0,33,32.522ZM22.326,30.591a1.561,1.561,0,1,0,1.561-1.561A1.563,1.563,0,0,0,22.326,30.591Zm4.848,5.739c.059-.136.122-.27.19-.4a3.877,3.877,0,0,0-7.127.4ZM37.54,37.478a4.75,4.75,0,0,0-9.074,0Zm4.578-3.713a3.9,3.9,0,0,0-3.477,2.165c.068.131.131.265.19.4h6.937A3.867,3.867,0,0,0,42.118,33.765Z" transform="translate(-8.002 -8)" fill="#405425"/>
</svg>
