<svg xmlns="http://www.w3.org/2000/svg" width="169.706" height="169.705" viewBox="0 0 169.706 169.705">
  <g id="Grupo_1181090" data-name="Grupo 1181090" transform="translate(-1065.98 -3369.146)">
    <rect id="Rectángulo_402033" data-name="Rectángulo 402033" width="120" height="120" rx="30" transform="translate(1065.98 3453.999) rotate(-45)" fill="#ffd600"/>
    <rect id="Rectángulo_454167" data-name="Rectángulo 454167" width="100" height="100" rx="50" transform="translate(1100.833 3403.999)" fill="#c8bf57"/>
    <g id="Grupo_1181848" data-name="Grupo 1181848" transform="translate(1101.906 3399.758)">
      <path id="Trazado_1015017" data-name="Trazado 1015017" d="M37.954,86.133h68.529v52.529H37.954Z" transform="translate(-23.292 -53.655)" fill="#ffe9d3"/>
      <path id="Trazado_1015018" data-name="Trazado 1015018" d="M37.954,86.133H49.065v52.529H37.954Z" transform="translate(-23.292 -53.655)" fill="#dbaf92"/>
      <path id="Trazado_1015019" data-name="Trazado 1015019" d="M236.653,86.133h16.969v52.529H236.653Z" transform="translate(-170.431 -53.655)" fill="#dbaf92"/>
      <path id="Trazado_1015020" data-name="Trazado 1015020" d="M37.954,105.691h68.529V148.07H37.954Z" transform="translate(-23.292 -68.138)" fill="#6d68b7"/>
      <path id="Trazado_1015021" data-name="Trazado 1015021" d="M37.954,105.691h68.529V148.07H37.954Z" transform="translate(-23.292 -68.138)" fill="#f7a88c"/>
      <path id="Trazado_1015022" data-name="Trazado 1015022" d="M37.954,105.691H49.065V148.07H37.954Z" transform="translate(-23.292 -68.138)" fill="#d1775f"/>
      <path id="Trazado_1015023" data-name="Trazado 1015023" d="M236.653,105.691h16.969V148.07H236.653Z" transform="translate(-170.431 -68.138)" fill="#de8267"/>
      <path id="Trazado_1015024" data-name="Trazado 1015024" d="M178.837,105.691l-.222,1.8a3.594,3.594,0,0,1-2.32,2.924,7.847,7.847,0,0,0-4.828,4.515c-.649,1.767.317,3.085,1.711,4.031a3.349,3.349,0,0,1,1.389,2.18l.63,3.439s.148,2.254,3.214,2.976a20.057,20.057,0,0,0,4.87.3v1.265a3.327,3.327,0,0,1-.975,2.357,8.821,8.821,0,0,0-2.633,8.345,7.106,7.106,0,0,0,.571,1.539c2.287,3.972,7.346,6.714,7.346,6.714h4.035c2.751-3.184,2.032-4.685-.555-6.983A4.356,4.356,0,0,1,189.64,137a3.323,3.323,0,0,1,.454-1.184l1.27-1.905a3.833,3.833,0,0,1,2.592-1.661l11.242-1.515V105.691Z" transform="translate(-122.007 -68.138)" fill="#d1775f"/>
      <path id="Trazado_1015025" data-name="Trazado 1015025" d="M28.264,25.63v4.991a2.216,2.216,0,0,1-2.024,2.237A2.168,2.168,0,0,1,23.929,30.7v-5.02a1.824,1.824,0,0,0-.591-1.369,4.154,4.154,0,1,1,5.552-.031,1.838,1.838,0,0,0-.625,1.355Z" transform="translate(-11.434 -2.499)" fill="#f7a88c"/>
      <path id="Trazado_1015026" data-name="Trazado 1015026" d="M24.508,67.881c0-3.116-3.248-5.642-7.254-5.642S10,64.765,10,67.881v47.446H24.508Z" transform="translate(-2.592 -35.961)" fill="#ffe9d3"/>
      <ellipse id="Elipse_13906" data-name="Elipse 13906" cx="7.254" cy="5.642" rx="7.254" ry="5.642" transform="translate(7.408 73.724)" fill="#874f4f"/>
      <path id="Trazado_1015027" data-name="Trazado 1015027" d="M28.262,272.775v-3.711a2.216,2.216,0,0,0-2.024-2.237,2.168,2.168,0,0,0-2.312,2.162v3.741a1.823,1.823,0,0,1-.591,1.369,4.155,4.155,0,1,0,5.551.031A1.838,1.838,0,0,1,28.262,272.775Z" transform="translate(-11.433 -187.457)" fill="#f7a88c"/>
      <path id="Trazado_1015028" data-name="Trazado 1015028" d="M236.653,105.691V148.07h3.4c2.751-3.184,2.032-4.685-.555-6.983A4.356,4.356,0,0,1,238.064,137a3.327,3.327,0,0,1,.454-1.185l1.27-1.905a3.833,3.833,0,0,1,2.592-1.661l11.242-1.515V105.691Z" transform="translate(-170.431 -68.138)" fill="#ab5f51"/>
      <path id="Trazado_1015029" data-name="Trazado 1015029" d="M288.026,25.631v4.991a2.216,2.216,0,0,0,2.024,2.237,2.168,2.168,0,0,0,2.312-2.163v-5.02a1.824,1.824,0,0,1,.591-1.369,4.154,4.154,0,1,0-5.551-.031,1.838,1.838,0,0,1,.624,1.355Z" transform="translate(-207.002 -2.499)" fill="#f7a88c"/>
      <path id="Trazado_1015030" data-name="Trazado 1015030" d="M274.091,67.881c0-3.116,3.248-5.642,7.254-5.642s7.254,2.526,7.254,5.642v47.446H274.091Z" transform="translate(-198.154 -35.961)" fill="#ffe9d3"/>
      <ellipse id="Elipse_13907" data-name="Elipse 13907" cx="7.254" cy="5.642" rx="7.254" ry="5.642" transform="translate(75.937 73.724)" fill="#874f4f"/>
      <path id="Trazado_1015031" data-name="Trazado 1015031" d="M288.026,272.775v-3.711a2.216,2.216,0,0,1,2.024-2.237,2.168,2.168,0,0,1,2.312,2.162v3.741a1.823,1.823,0,0,0,.591,1.369,4.155,4.155,0,1,1-5.551.031A1.838,1.838,0,0,0,288.026,272.775Z" transform="translate(-207.002 -187.457)" fill="#f7a88c"/>
      <rect id="Rectángulo_455793" data-name="Rectángulo 455793" width="4.695" height="5.779" rx="2.348" transform="translate(28.296 66.489)" fill="#d1775f"/>
      <rect id="Rectángulo_455794" data-name="Rectángulo 455794" width="4.695" height="5.779" rx="2.348" transform="translate(37.024 63.409)" fill="#d1775f"/>
      <rect id="Rectángulo_455795" data-name="Rectángulo 455795" width="4.695" height="5.779" rx="2.348" transform="translate(45.906 65.301)" fill="#d1775f"/>
      <rect id="Rectángulo_455796" data-name="Rectángulo 455796" width="4.695" height="5.779" rx="2.348" transform="translate(40.657 40.787)" fill="#d1775f"/>
      <g id="Grupo_1181847" data-name="Grupo 1181847" transform="translate(6.5 13.676)">
        <path id="Trazado_1015032" data-name="Trazado 1015032" d="M86.267,25.854V23.176a.916.916,0,0,1,.285-.69,5.062,5.062,0,1,0-6.765-.037.928.928,0,0,1,.327.683v2.723c-2.852.934-4.9,3.128-5.074,5.716H22.812c-.17-2.588-2.222-4.781-5.074-5.716V23.132a.929.929,0,0,1,.327-.683,5.063,5.063,0,1,0-6.765.037.916.916,0,0,1,.285.69v2.678C8.606,26.831,6.5,29.181,6.5,31.92V79.366c0,2.686,2.017,5.067,5.072,6.064a.88.88,0,0,1-.271.534,5.032,5.032,0,0,0-1.691,4.1,5.066,5.066,0,1,0,8.378-4.15H79.866a5.071,5.071,0,1,0,6.687.048.882.882,0,0,1-.272-.535c3.053-1,5.072-3.381,5.072-6.063V31.92c0-2.739-2.106-5.089-5.086-6.066ZM81.009,21.1a3.244,3.244,0,1,1,4.337.023,2.731,2.731,0,0,0-.9,2.048v2.272a10.22,10.22,0,0,0-2.517,0V23.132a2.758,2.758,0,0,0-.924-2.028ZM71.4,79.024c1.139-2.02,1.061-4.515-.9-6.006-1.661-1.163-2.9-2.858-1.659-4.834,2.3-3.646,2.123-2.952,6.186-3.568V79.024ZM50.662,51.575a2.452,2.452,0,0,1,1.005,1.59l.623,3.407c.511,3.118,3.664,4.2,8.076,4.071a2.563,2.563,0,0,1-.709,2.05c-5.105,5.177-3.916,11.985,3.006,16.332H22.824V38.461H55.8a2.981,2.981,0,0,1-1.833,2.965c-3.233.963-8.786,6.376-3.309,10.148ZM58.55,71.47a7.93,7.93,0,0,1,2.39-7.491c1.221-1.172,1.306-2.673,1.242-4.265a.914.914,0,0,0-.941-.908c-3.036.142-6.915-.086-7.159-2.528l-.63-3.437a4.276,4.276,0,0,0-1.772-2.767c-1.765-1.2-1.625-2.266-1.368-2.966a6.959,6.959,0,0,1,4.293-3.977c2.079-.792,2.916-2.556,3.027-4.667h17.4V62.783c-2.376.386-4.939.18-6.427,2.488l-1.27,1.905a4.7,4.7,0,0,0,.478,5.867,12.872,12.872,0,0,0,1.6,1.425c1.6,1.194.832,3.35-.178,4.556H66.25c-2.6-1.337-6.858-4.016-7.7-7.554ZM75.03,36.646H22.824v-3.26H75.029ZM22.614,80.84H75.239a6.352,6.352,0,0,0,2.3,3.259H20.3a6.384,6.384,0,0,0,2.311-3.259ZM12.507,21.128a3.244,3.244,0,1,1,4.338-.024,2.759,2.759,0,0,0-.923,2.028v2.316a10.22,10.22,0,0,0-2.517,0V23.176A2.729,2.729,0,0,0,12.507,21.128ZM8.316,31.92c0-2.61,2.847-4.734,6.346-4.734s6.346,2.123,6.346,4.734V75.252c-3.117-3.223-9.575-3.222-12.691,0Zm0,47.446c.331-6.276,12.363-6.272,12.691,0a4.755,4.755,0,0,1-3.27,4.137V81.608a3.075,3.075,0,1,0-6.15-.074V83.5C9.6,82.674,8.316,81.1,8.316,79.366ZM16.9,92.093a3.244,3.244,0,1,1-4.395-4.771,2.732,2.732,0,0,0,.9-2.048v-3.74a1.246,1.246,0,0,1,.4-.919,1.272,1.272,0,0,1,2.12.993v3.711a2.759,2.759,0,0,0,.923,2.028,3.258,3.258,0,0,1,.058,4.747Zm69.529-2.141a3.246,3.246,0,1,1-5.422-2.607,2.759,2.759,0,0,0,.923-2.028V81.607a1.26,1.26,0,1,1,2.518-.074v3.74c-.013,2.148,2.169,2.267,1.98,4.679ZM86.266,83.5V81.533a3.076,3.076,0,1,0-6.15.074V83.5C74.2,80.9,77,74.6,83.192,74.632c6.193-.028,8.991,6.262,3.075,8.869Zm3.27-8.249c-3.117-3.223-9.575-3.222-12.691,0V31.92c0-2.61,2.847-4.734,6.346-4.734s6.346,2.123,6.346,4.734Z" transform="translate(-6.5 -13.676)"/>
        <path id="Trazado_1015033" data-name="Trazado 1015033" d="M90.255,213.7A3.26,3.26,0,0,0,87,216.957v1.083a3.26,3.26,0,0,0,2.348,3.125v1.944a.908.908,0,1,0,1.816,0v-1.944a3.26,3.26,0,0,0,2.348-3.125v-1.083A3.26,3.26,0,0,0,90.255,213.7Zm1.439,4.339a1.439,1.439,0,0,1-2.879,0v-1.083a1.439,1.439,0,1,1,2.879,0Z" transform="translate(-66.111 -161.796)"/>
        <path id="Trazado_1015034" data-name="Trazado 1015034" d="M123.888,201.831a3.259,3.259,0,0,0-3.256,3.256v1.084a3.26,3.26,0,0,0,2.348,3.125v1.943a.908.908,0,1,0,1.816,0v-1.944a3.26,3.26,0,0,0,2.348-3.124v-1.084a3.259,3.259,0,0,0-3.256-3.256Zm1.439,4.339a1.44,1.44,0,0,1-2.879,0v-1.084a1.44,1.44,0,1,1,2.88,0Z" transform="translate(-91.016 -153.007)"/>
        <path id="Trazado_1015035" data-name="Trazado 1015035" d="M154.857,212.426v1.083a3.26,3.26,0,0,0,2.348,3.125V218.7a.908.908,0,0,0,1.816,0v-2.069a3.26,3.26,0,0,0,2.348-3.125v-1.083a3.256,3.256,0,0,0-6.512,0Zm4.7,0v1.083a1.44,1.44,0,0,1-2.879,0v-1.083a1.439,1.439,0,0,1,2.878,0Z" transform="translate(-116.36 -158.453)"/>
        <path id="Trazado_1015036" data-name="Trazado 1015036" d="M136.978,122.031v1.289a.908.908,0,0,0,1.816,0v-1.289a3.26,3.26,0,0,0,2.348-3.124v-1.084a3.256,3.256,0,0,0-6.512,0v1.084A3.26,3.26,0,0,0,136.978,122.031Zm-.531-4.208a1.44,1.44,0,0,1,2.88,0v1.084a1.44,1.44,0,1,1-2.879,0Z" transform="translate(-101.382 -88.399)"/>
        <path id="Trazado_1015037" data-name="Trazado 1015037" d="M97.218,177.071,93.349,172.2a.914.914,0,0,0-1.423,0l-3.589,4.524a.908.908,0,1,0,1.423,1.129l2.88-3.628L95.8,178.2a.908.908,0,1,0,1.423-1.129Z" transform="translate(-66.956 -130.81)"/>
        <path id="Trazado_1015038" data-name="Trazado 1015038" d="M107.516,147.623a.908.908,0,0,0,.147-1.276l-4.682-5.9a.914.914,0,0,0-1.423,0l-1.147,1.446-5.136-6.471a.914.914,0,0,0-1.423,0l-3.548,4.47a.908.908,0,1,0,1.423,1.129l2.836-3.574,4.688,5.907-1.073,1.352a.908.908,0,1,0,1.423,1.129l2.669-3.362,3.97,5a.908.908,0,0,0,1.276.147Z" transform="translate(-68.412 -103.578)"/>
        <path id="Trazado_1015039" data-name="Trazado 1015039" d="M230.776,136.5a2.888,2.888,0,0,0-2.028.83.908.908,0,1,0,1.11,1.437,1.119,1.119,0,0,1,1.691-.114,2.874,2.874,0,0,0,3.817,0,1.045,1.045,0,0,1,.774-.337c.427-.024.666.27,1,.516a.908.908,0,0,0,1.27-.191c.755-1.036-1.054-2.168-2.274-2.142a2.784,2.784,0,0,0-1.909.735,1.056,1.056,0,0,1-1.547,0A2.781,2.781,0,0,0,230.776,136.5Z" transform="translate(-170.815 -104.626)"/>
        <path id="Trazado_1015040" data-name="Trazado 1015040" d="M208.568,124.313a1.118,1.118,0,0,1,1.69-.114,2.854,2.854,0,0,0,3.817,0,1.045,1.045,0,0,1,.774-.337c.427-.024.666.27,1,.516a.922.922,0,1,0,.9-1.6,2.854,2.854,0,0,0-3.817,0,1.056,1.056,0,0,1-1.547,0,2.782,2.782,0,0,0-1.908-.736,2.889,2.889,0,0,0-2.029.83.909.909,0,1,0,1.111,1.438Z" transform="translate(-155.049 -93.924)"/>
        <path id="Trazado_1015041" data-name="Trazado 1015041" d="M231.018,176.918c.619-.59,1.22-.337,1.778.179a.922.922,0,1,0,.906-1.6,2.875,2.875,0,0,0-3.818,0,1.056,1.056,0,0,1-1.547,0,2.854,2.854,0,0,0-3.816,0,.92.92,0,1,0,1.135,1.418,1.049,1.049,0,0,1,1.547,0,2.854,2.854,0,0,0,3.817,0Z" transform="translate(-167.599 -132.967)"/>
        <path id="Trazado_1015042" data-name="Trazado 1015042" d="M210.5,162.128c.427-.024.666.27,1,.516a.908.908,0,1,0,1.08-1.461,2.9,2.9,0,0,0-3.992-.136,1.056,1.056,0,0,1-1.548,0,2.854,2.854,0,0,0-3.816,0,.914.914,0,1,0,.991,1.531c.314-.243.521-.468.918-.451a1.044,1.044,0,0,1,.773.337,2.869,2.869,0,0,0,3.817,0A1.048,1.048,0,0,1,210.5,162.128Z" transform="translate(-151.829 -122.264)"/>
      </g>
    </g>
  </g>
</svg>
