<svg xmlns="http://www.w3.org/2000/svg" width="50.5" height="43.364" viewBox="0 0 50.5 43.364">
  <path id="Trazado_1014656" data-name="Trazado 1014656" d="M38.923,85.025a1.4,1.4,0,0,1,1.049.472.751.751,0,0,0,1.139,0,1.4,1.4,0,0,1,2.446.919c0,1.468-1.558,3.307-3.016,4.1-1.457-.792-3.014-2.63-3.014-4.1A1.4,1.4,0,0,1,38.923,85.025Zm1.313,7.028a.777.777,0,0,0,.612,0c2.039-.9,4.224-3.377,4.224-5.637A2.91,2.91,0,0,0,40.542,84a2.909,2.909,0,0,0-4.529,2.413C36.013,88.677,38.2,91.153,40.236,92.053Zm17.43-25.126,4,2.311-4,2.3ZM56.53,73.516a.8.8,0,0,0,.758,0l6.269-3.626a.755.755,0,0,0,0-1.309l-6.269-3.619a.759.759,0,0,0-1.137.651v7.245a.769.769,0,0,0,.379.658Zm-1.4-10.571a7.264,7.264,0,1,0,9.922,2.662A7.272,7.272,0,0,0,55.134,62.945ZM58.78,78.01a8.774,8.774,0,1,0-7.617-4.386A8.762,8.762,0,0,0,58.78,78.01ZM76.5,75.9l-1.449,1.449-3.511-3.511,1.449-1.449a.758.758,0,0,1,1.068,0L76.5,74.837A.754.754,0,0,1,76.5,75.9Zm-3.46,22.381-7.9-8.886-4.83,4.832a.761.761,0,0,1-.387.211l-5.727,1.143a.761.761,0,0,1-.892-.894l1.117-5.579H49.164a8.768,8.768,0,0,1-14.587,4.781l-3.9,4.392H73.035Zm.929,2.968H29.745V99.8H73.964ZM40.542,80.2a7.261,7.261,0,1,0,7.264,7.258A7.268,7.268,0,0,0,40.542,80.2Zm15.114,10.45,2.581,2.579-3.226.645Zm4.117,1.973-3.51-3.511,14.2-14.2,3.51,3.511ZM77.566,73.765,75.124,71.32a2.269,2.269,0,0,0-3.21,0L55.64,87.591H49.319c0-.045,0-.089,0-.134a8.778,8.778,0,1,0-15.767,5.311l-5.132,5.771a.814.814,0,0,0-.169.319l-.023.185v2.968a.758.758,0,0,0,.758.76H74.722a.758.758,0,0,0,.758-.76c0-.4.021-2.935-.015-3.115a.711.711,0,0,0-.167-.345c0-.006-.006-.013-.01-.013L66.212,88.325l11.354-11.35a2.274,2.274,0,0,0,0-3.211ZM39.057,69.041a.756.756,0,0,1,.758-.753H39.9a.756.756,0,1,1,0,1.513h-.089A.758.758,0,0,1,39.057,69.041Zm-3.976,0a.756.756,0,0,1,.758-.753h.087a.756.756,0,1,1,0,1.513h-.087A.757.757,0,0,1,35.081,69.041Zm7.953,0a.756.756,0,0,1,.758-.753h.089a.756.756,0,1,1,0,1.513h-.089A.758.758,0,0,1,43.034,69.041Zm-4.063-7.552A7.227,7.227,0,0,1,45.99,72.494a.764.764,0,0,0-.092.587l.756,2.994-2.121-1.309a.744.744,0,0,0-.8.006,7.231,7.231,0,1,1-4.758-13.284Zm.882,15.921a8.747,8.747,0,1,1,7.591-4.392l1.137,4.5a.758.758,0,0,1-1.132.83L44.128,76.3A8.806,8.806,0,0,1,39.853,77.41Z" transform="translate(-27.98 -59.658)" fill="#405425" stroke="#405425" stroke-width="0.5" fill-rule="evenodd"/>
</svg>
