<svg xmlns="http://www.w3.org/2000/svg" width="169.706" height="169.705" viewBox="0 0 169.706 169.705">
  <g id="Grupo_1181080" data-name="Grupo 1181080" transform="translate(-1065.98 -3369.146)">
    <rect id="Rect치ngulo_402033" data-name="Rect치ngulo 402033" width="120" height="120" rx="30" transform="translate(1065.98 3453.999) rotate(-45)" fill="#ffd600"/>
    <rect id="Rect치ngulo_454167" data-name="Rect치ngulo 454167" width="100" height="100" rx="50" transform="translate(1100.833 3403.999)" fill="#c8bf57"/>
    <g id="Grupo_1181832" data-name="Grupo 1181832" transform="translate(1111.935 3415.102)">
      <g id="Grupo_1181830" data-name="Grupo 1181830" transform="translate(1.139 3.593)">
        <g id="Grupo_1181814" data-name="Grupo 1181814" transform="translate(4.253)">
          <g id="Grupo_1181809" data-name="Grupo 1181809" transform="translate(0 0)">
            <path id="Trazado_1014902" data-name="Trazado 1014902" d="M43.317,25.312V38.446l-3.768-4.841-.372-.479-3.685,2.585V23.65l4.057.862Z" transform="translate(-35.492 -23.65)" fill="#997ab8"/>
            <path id="Trazado_1014903" data-name="Trazado 1014903" d="M65.96,30.121V43.255l-3.768-4.841V29.32Z" transform="translate(-58.135 -28.458)" fill="#6957a1"/>
          </g>
          <g id="Grupo_1181810" data-name="Grupo 1181810" transform="translate(13.406 2.164)">
            <path id="Trazado_1014904" data-name="Trazado 1014904" d="M133.158,38.329,128.44,53.686l-.112-.375L123.722,37.89l5.367.249Z" transform="translate(-123.722 -37.89)" fill="#ffe26f"/>
            <path id="Trazado_1014905" data-name="Trazado 1014905" d="M158.862,39.72l-4.718,15.357-.112-.375.761-15.172Z" transform="translate(-149.427 -39.281)" fill="#ffba4c"/>
          </g>
          <g id="Grupo_1181811" data-name="Grupo 1181811" transform="translate(28.301 2.709)">
            <path id="Trazado_1014906" data-name="Trazado 1014906" d="M232.16,41.51V54l-3.846-2.247-1.358-.795L221.752,54V41.48l6.563.02Z" transform="translate(-221.752 -41.48)" fill="#f77a49"/>
            <path id="Trazado_1014907" data-name="Trazado 1014907" d="M268.788,41.621V54.108l-3.846-2.247V41.61Z" transform="translate(-258.379 -41.59)" fill="#de4f42"/>
          </g>
          <g id="Grupo_1181812" data-name="Grupo 1181812" transform="translate(44.171 2.164)">
            <path id="Trazado_1014908" data-name="Trazado 1014908" d="M335.626,37.89l-4.718,15.8-.163-.53-4.554-14.827,4.967-.231Z" transform="translate(-326.192 -37.89)" fill="#d0edf5"/>
            <path id="Trazado_1014909" data-name="Trazado 1014909" d="M361.042,37.89l-4.718,15.8-.163-.53.413-15.058Z" transform="translate(-351.608 -37.89)" fill="#a6dff5"/>
          </g>
          <g id="Grupo_1181813" data-name="Grupo 1181813" transform="translate(59.186)">
            <path id="Trazado_1014910" data-name="Trazado 1014910" d="M432.839,23.65V35.711l-3.686-2.585-.228.293-3.913,5.026V25.312l3.913-.831Z" transform="translate(-425.012 -23.65)" fill="#5bc196"/>
            <path id="Trazado_1014911" data-name="Trazado 1014911" d="M454.676,23.65V35.711l-3.686-2.585-.228.293V24.481Z" transform="translate(-446.849 -23.65)" fill="#25a077"/>
          </g>
        </g>
        <g id="Grupo_1181821" data-name="Grupo 1181821" transform="translate(5.394 31.314)">
          <g id="Grupo_1181815" data-name="Grupo 1181815" transform="translate(53.941)">
            <path id="Trazado_1014912" data-name="Trazado 1014912" d="M408.787,276.606v17.249H398V276.606a5.394,5.394,0,1,1,10.788,0Z" transform="translate(-397.999 -264.903)" fill="#997ab8"/>
            <path id="Trazado_1014913" data-name="Trazado 1014913" d="M430.412,276.606v17.249h-3.039V276.606a5.4,5.4,0,0,0-3.875-5.184,5.4,5.4,0,0,1,6.914,5.184Z" transform="translate(-419.624 -264.903)" fill="#6957a1"/>
            <path id="Trazado_1014914" data-name="Trazado 1014914" d="M419.083,232.885a3.148,3.148,0,1,1-3.147-3.151A3.148,3.148,0,0,1,419.083,232.885Z" transform="translate(-410.542 -229.734)" fill="#ffd6a9"/>
            <path id="Trazado_1014915" data-name="Trazado 1014915" d="M428.165,232.885a3.148,3.148,0,0,1-4.666,2.759,3.154,3.154,0,0,0,0-5.52,3.148,3.148,0,0,1,4.666,2.761Z" transform="translate(-419.624 -229.734)" fill="#f7be97"/>
          </g>
          <g id="Grupo_1181816" data-name="Grupo 1181816" transform="translate(43.153)">
            <path id="Trazado_1014916" data-name="Trazado 1014916" d="M337.787,276.606v17.249H327V276.606a5.394,5.394,0,1,1,10.788,0Z" transform="translate(-326.999 -264.903)" fill="#a6dff5"/>
            <path id="Trazado_1014917" data-name="Trazado 1014917" d="M359.412,276.606v17.249h-3.039V276.606a5.4,5.4,0,0,0-3.875-5.184,5.4,5.4,0,0,1,6.914,5.184Z" transform="translate(-348.624 -264.903)" fill="#54c9eb"/>
            <path id="Trazado_1014918" data-name="Trazado 1014918" d="M348.083,232.885a3.148,3.148,0,1,1-3.147-3.151A3.148,3.148,0,0,1,348.083,232.885Z" transform="translate(-339.542 -229.734)" fill="#ffd6a9"/>
            <path id="Trazado_1014919" data-name="Trazado 1014919" d="M357.165,232.885a3.148,3.148,0,0,1-4.666,2.759,3.154,3.154,0,0,0,0-5.52,3.148,3.148,0,0,1,4.666,2.761Z" transform="translate(-348.624 -229.734)" fill="#f7be97"/>
          </g>
          <g id="Grupo_1181817" data-name="Grupo 1181817" transform="translate(32.364)">
            <path id="Trazado_1014920" data-name="Trazado 1014920" d="M266.787,276.606v17.249H256V276.606a5.394,5.394,0,1,1,10.788,0Z" transform="translate(-255.999 -264.903)" fill="#c8d9e2"/>
            <path id="Trazado_1014921" data-name="Trazado 1014921" d="M288.413,276.606v17.249h-3.039V276.606a5.4,5.4,0,0,0-3.875-5.184,5.4,5.4,0,0,1,6.914,5.184Z" transform="translate(-277.624 -264.903)" fill="#a1adb4"/>
            <path id="Trazado_1014922" data-name="Trazado 1014922" d="M277.083,232.885a3.148,3.148,0,1,1-3.147-3.151A3.148,3.148,0,0,1,277.083,232.885Z" transform="translate(-268.542 -229.734)" fill="#ffd6a9"/>
            <path id="Trazado_1014923" data-name="Trazado 1014923" d="M286.165,232.885a3.148,3.148,0,0,1-4.666,2.759,3.154,3.154,0,0,0,0-5.52,3.148,3.148,0,0,1,4.666,2.761Z" transform="translate(-277.624 -229.734)" fill="#f7be97"/>
          </g>
          <g id="Grupo_1181818" data-name="Grupo 1181818" transform="translate(21.576)">
            <path id="Trazado_1014924" data-name="Trazado 1014924" d="M195.787,276.606v17.249H185V276.606a5.394,5.394,0,1,1,10.788,0Z" transform="translate(-184.999 -264.903)" fill="#ffe26f"/>
            <path id="Trazado_1014925" data-name="Trazado 1014925" d="M217.413,276.606v17.249h-3.039V276.606a5.4,5.4,0,0,0-3.875-5.184,5.4,5.4,0,0,1,6.914,5.184Z" transform="translate(-206.624 -264.903)" fill="#ffba4c"/>
            <path id="Trazado_1014926" data-name="Trazado 1014926" d="M206.083,232.885a3.148,3.148,0,1,1-3.147-3.151,3.148,3.148,0,0,1,3.147,3.151Z" transform="translate(-197.542 -229.734)" fill="#ffd6a9"/>
            <path id="Trazado_1014927" data-name="Trazado 1014927" d="M215.165,232.885a3.148,3.148,0,0,1-4.666,2.759,3.154,3.154,0,0,0,0-5.52,3.148,3.148,0,0,1,4.666,2.761Z" transform="translate(-206.624 -229.734)" fill="#f7be97"/>
          </g>
          <g id="Grupo_1181819" data-name="Grupo 1181819" transform="translate(10.788)">
            <path id="Trazado_1014928" data-name="Trazado 1014928" d="M124.787,276.606v17.249H114V276.606a5.394,5.394,0,1,1,10.788,0Z" transform="translate(-113.999 -264.903)" fill="#f77a49"/>
            <path id="Trazado_1014929" data-name="Trazado 1014929" d="M146.413,276.606v17.249h-3.039V276.606a5.4,5.4,0,0,0-3.875-5.184,5.4,5.4,0,0,1,6.914,5.184Z" transform="translate(-135.624 -264.903)" fill="#de4f42"/>
            <path id="Trazado_1014930" data-name="Trazado 1014930" d="M135.083,232.885a3.148,3.148,0,1,1-3.147-3.151A3.148,3.148,0,0,1,135.083,232.885Z" transform="translate(-126.542 -229.734)" fill="#ffd6a9"/>
            <path id="Trazado_1014931" data-name="Trazado 1014931" d="M144.165,232.885a3.148,3.148,0,0,1-4.666,2.759,3.154,3.154,0,0,0,0-5.52,3.148,3.148,0,0,1,4.666,2.761Z" transform="translate(-135.624 -229.734)" fill="#f7be97"/>
          </g>
          <g id="Grupo_1181820" data-name="Grupo 1181820">
            <path id="Trazado_1014932" data-name="Trazado 1014932" d="M53.787,276.606v17.249H43V276.606a5.394,5.394,0,1,1,10.788,0Z" transform="translate(-42.999 -264.903)" fill="#5bc196"/>
            <path id="Trazado_1014933" data-name="Trazado 1014933" d="M75.413,276.606v17.249H72.374V276.606a5.4,5.4,0,0,0-3.875-5.184,5.4,5.4,0,0,1,6.914,5.184Z" transform="translate(-64.624 -264.903)" fill="#25a077"/>
            <path id="Trazado_1014934" data-name="Trazado 1014934" d="M64.083,232.885a3.148,3.148,0,1,1-3.147-3.151A3.148,3.148,0,0,1,64.083,232.885Z" transform="translate(-55.542 -229.734)" fill="#ffd6a9"/>
            <path id="Trazado_1014935" data-name="Trazado 1014935" d="M73.165,232.885a3.148,3.148,0,0,1-4.666,2.759,3.154,3.154,0,0,0,0-5.52,3.148,3.148,0,0,1,4.666,2.761Z" transform="translate(-64.624 -229.734)" fill="#f7be97"/>
          </g>
        </g>
        <g id="Grupo_1181829" data-name="Grupo 1181829" transform="translate(0 49.188)">
          <g id="Grupo_1181822" data-name="Grupo 1181822" transform="translate(64.729)">
            <path id="Trazado_1014936" data-name="Trazado 1014936" d="M444.287,394.246v12.172H433.5V394.246a5.394,5.394,0,1,1,10.788,0Z" transform="translate(-433.499 -382.543)" fill="#f77a49"/>
            <path id="Trazado_1014937" data-name="Trazado 1014937" d="M465.913,394.246v12.172h-3.039V394.246A5.4,5.4,0,0,0,459,389.061a5.4,5.4,0,0,1,6.914,5.184Z" transform="translate(-455.124 -382.543)" fill="#de4f42"/>
            <path id="Trazado_1014938" data-name="Trazado 1014938" d="M454.583,350.524a3.148,3.148,0,1,1-3.147-3.151A3.148,3.148,0,0,1,454.583,350.524Z" transform="translate(-446.042 -347.373)" fill="#ffd6a9"/>
            <path id="Trazado_1014939" data-name="Trazado 1014939" d="M463.665,350.524A3.148,3.148,0,0,1,459,353.284a3.154,3.154,0,0,0,0-5.52,3.148,3.148,0,0,1,4.666,2.761Z" transform="translate(-455.124 -347.373)" fill="#f7be97"/>
          </g>
          <g id="Grupo_1181823" data-name="Grupo 1181823" transform="translate(53.941)">
            <path id="Trazado_1014940" data-name="Trazado 1014940" d="M373.287,394.246v12.172H362.5V394.246a5.394,5.394,0,1,1,10.788,0Z" transform="translate(-362.499 -382.543)" fill="#5bc196"/>
            <path id="Trazado_1014941" data-name="Trazado 1014941" d="M394.912,394.246v12.172h-3.039V394.246A5.4,5.4,0,0,0,388,389.061a5.4,5.4,0,0,1,6.914,5.184Z" transform="translate(-384.124 -382.543)" fill="#25a077"/>
            <path id="Trazado_1014942" data-name="Trazado 1014942" d="M383.583,350.524a3.148,3.148,0,1,1-3.147-3.151A3.148,3.148,0,0,1,383.583,350.524Z" transform="translate(-375.042 -347.373)" fill="#ffd6a9"/>
            <path id="Trazado_1014943" data-name="Trazado 1014943" d="M392.665,350.524A3.148,3.148,0,0,1,388,353.284a3.154,3.154,0,0,0,0-5.52,3.148,3.148,0,0,1,4.666,2.761Z" transform="translate(-384.124 -347.373)" fill="#f7be97"/>
          </g>
          <g id="Grupo_1181824" data-name="Grupo 1181824" transform="translate(43.153)">
            <path id="Trazado_1014944" data-name="Trazado 1014944" d="M302.287,394.246v12.172H291.5V394.246a5.394,5.394,0,1,1,10.788,0Z" transform="translate(-291.499 -382.543)" fill="#ffe26f"/>
            <path id="Trazado_1014945" data-name="Trazado 1014945" d="M323.912,394.246v12.172h-3.039V394.246A5.4,5.4,0,0,0,317,389.061a5.4,5.4,0,0,1,6.913,5.184Z" transform="translate(-313.124 -382.543)" fill="#ffba4c"/>
            <path id="Trazado_1014946" data-name="Trazado 1014946" d="M312.583,350.524a3.148,3.148,0,1,1-3.147-3.151A3.148,3.148,0,0,1,312.583,350.524Z" transform="translate(-304.042 -347.373)" fill="#ffd6a9"/>
            <path id="Trazado_1014947" data-name="Trazado 1014947" d="M321.665,350.524A3.148,3.148,0,0,1,317,353.284a3.154,3.154,0,0,0,0-5.52,3.148,3.148,0,0,1,4.666,2.761Z" transform="translate(-313.124 -347.373)" fill="#f7be97"/>
          </g>
          <g id="Grupo_1181825" data-name="Grupo 1181825" transform="translate(32.364)">
            <path id="Trazado_1014948" data-name="Trazado 1014948" d="M231.287,394.246v12.172H220.5V394.246a5.394,5.394,0,1,1,10.788,0Z" transform="translate(-220.499 -382.543)" fill="#997ab8"/>
            <path id="Trazado_1014949" data-name="Trazado 1014949" d="M252.913,394.246v12.172h-3.039V394.246A5.4,5.4,0,0,0,246,389.061a5.4,5.4,0,0,1,6.914,5.184Z" transform="translate(-242.124 -382.543)" fill="#6957a1"/>
            <path id="Trazado_1014950" data-name="Trazado 1014950" d="M241.583,350.524a3.148,3.148,0,1,1-3.147-3.151A3.148,3.148,0,0,1,241.583,350.524Z" transform="translate(-233.042 -347.373)" fill="#ffd6a9"/>
            <path id="Trazado_1014951" data-name="Trazado 1014951" d="M250.665,350.524A3.148,3.148,0,0,1,246,353.284a3.154,3.154,0,0,0,0-5.52,3.148,3.148,0,0,1,4.666,2.761Z" transform="translate(-242.124 -347.373)" fill="#f7be97"/>
          </g>
          <g id="Grupo_1181826" data-name="Grupo 1181826" transform="translate(21.576)">
            <path id="Trazado_1014952" data-name="Trazado 1014952" d="M160.287,394.246v12.172H149.5V394.246a5.394,5.394,0,1,1,10.788,0Z" transform="translate(-149.499 -382.543)" fill="#a6dff5"/>
            <path id="Trazado_1014953" data-name="Trazado 1014953" d="M181.913,394.246v12.172h-3.039V394.246A5.4,5.4,0,0,0,175,389.061a5.4,5.4,0,0,1,6.914,5.184Z" transform="translate(-171.124 -382.543)" fill="#54c9eb"/>
            <path id="Trazado_1014954" data-name="Trazado 1014954" d="M170.583,350.524a3.148,3.148,0,1,1-3.147-3.151A3.148,3.148,0,0,1,170.583,350.524Z" transform="translate(-162.042 -347.373)" fill="#ffd6a9"/>
            <path id="Trazado_1014955" data-name="Trazado 1014955" d="M179.665,350.524A3.148,3.148,0,0,1,175,353.284a3.154,3.154,0,0,0,0-5.52,3.148,3.148,0,0,1,4.666,2.761Z" transform="translate(-171.124 -347.373)" fill="#f7be97"/>
          </g>
          <g id="Grupo_1181827" data-name="Grupo 1181827" transform="translate(10.788)">
            <path id="Trazado_1014956" data-name="Trazado 1014956" d="M89.287,394.246v12.172H78.5V394.246a5.394,5.394,0,1,1,10.788,0Z" transform="translate(-78.499 -382.543)" fill="#c8d9e2"/>
            <path id="Trazado_1014957" data-name="Trazado 1014957" d="M110.913,394.246v12.172h-3.039V394.246A5.4,5.4,0,0,0,104,389.061a5.4,5.4,0,0,1,6.914,5.184Z" transform="translate(-100.124 -382.543)" fill="#a1adb4"/>
            <path id="Trazado_1014958" data-name="Trazado 1014958" d="M99.583,350.524a3.148,3.148,0,1,1-3.147-3.151A3.148,3.148,0,0,1,99.583,350.524Z" transform="translate(-91.042 -347.373)" fill="#ffd6a9"/>
            <path id="Trazado_1014959" data-name="Trazado 1014959" d="M108.665,350.524A3.148,3.148,0,0,1,104,353.284a3.154,3.154,0,0,0,0-5.52,3.148,3.148,0,0,1,4.666,2.761Z" transform="translate(-100.124 -347.373)" fill="#f7be97"/>
          </g>
          <g id="Grupo_1181828" data-name="Grupo 1181828">
            <path id="Trazado_1014960" data-name="Trazado 1014960" d="M18.287,394.246v12.172H7.5V394.246a5.394,5.394,0,1,1,10.788,0Z" transform="translate(-7.499 -382.543)" fill="#f77a49"/>
            <path id="Trazado_1014961" data-name="Trazado 1014961" d="M39.913,394.246v12.172H36.874V394.246A5.4,5.4,0,0,0,33,389.061a5.4,5.4,0,0,1,6.914,5.184Z" transform="translate(-29.124 -382.543)" fill="#de4f42"/>
            <path id="Trazado_1014962" data-name="Trazado 1014962" d="M28.583,350.524a3.148,3.148,0,1,1-3.147-3.151A3.148,3.148,0,0,1,28.583,350.524Z" transform="translate(-20.042 -347.373)" fill="#ffd6a9"/>
            <path id="Trazado_1014963" data-name="Trazado 1014963" d="M37.665,350.524A3.148,3.148,0,0,1,33,353.284a3.154,3.154,0,0,0,0-5.52,3.148,3.148,0,0,1,4.666,2.761Z" transform="translate(-29.124 -347.373)" fill="#f7be97"/>
          </g>
        </g>
      </g>
      <g id="Grupo_1181831" data-name="Grupo 1181831" transform="translate(0 -0.001)">
        <path id="Trazado_1014964" data-name="Trazado 1014964" d="M451.962,153.715a1.14,1.14,0,0,0-2.056.983l1.87,3.91a1.14,1.14,0,1,0,2.056-.983Z" transform="translate(-381.45 -129.809)"/>
        <path id="Trazado_1014965" data-name="Trazado 1014965" d="M255.29,166.986a1.14,1.14,0,1,0-1.141,1.973l3.748,2.168a1.14,1.14,0,1,0,1.141-1.973Z" transform="translate(-215.049 -141.483)"/>
        <path id="Trazado_1014966" data-name="Trazado 1014966" d="M28.821,151.475,26.5,155.132a1.14,1.14,0,1,0,1.923,1.223l2.326-3.656a1.14,1.14,0,0,0-1.923-1.223Z" transform="translate(-22.318 -128.011)"/>
        <path id="Trazado_1014967" data-name="Trazado 1014967" d="M72.141,484.129a1.139,1.139,0,0,0-1.14,1.14v1.956a1.14,1.14,0,0,0,2.279,0v-1.956A1.139,1.139,0,0,0,72.141,484.129Z" transform="translate(-60.213 -410.568)"/>
        <path id="Trazado_1014968" data-name="Trazado 1014968" d="M356.14,451.2a1.139,1.139,0,0,0-1.14,1.14V459.3a1.14,1.14,0,0,0,2.279,0V452.34A1.139,1.139,0,0,0,356.14,451.2Z" transform="translate(-301.059 -382.642)"/>
        <path id="Trazado_1014969" data-name="Trazado 1014969" d="M74.463,247.25a4.289,4.289,0,0,0-2.061-6.987v-5.187a6.546,6.546,0,0,0-3.333-5.7,4.286,4.286,0,1,0-6.4,0,6.589,6.589,0,0,0-2.194,2.014,6.583,6.583,0,0,0-2.194-2.014,4.286,4.286,0,1,0-6.4,0,6.589,6.589,0,0,0-2.194,2.014,6.584,6.584,0,0,0-2.194-2.014,4.286,4.286,0,1,0-6.4,0,6.589,6.589,0,0,0-2.194,2.014,6.584,6.584,0,0,0-2.194-2.014,4.286,4.286,0,1,0-6.4,0,6.589,6.589,0,0,0-2.194,2.014,6.584,6.584,0,0,0-2.194-2.014,4.286,4.286,0,1,0-6.4,0,6.589,6.589,0,0,0-2.194,2.014,6.584,6.584,0,0,0-2.194-2.014,4.286,4.286,0,1,0-6.4,0,6.546,6.546,0,0,0-3.333,5.7v5.187a4.289,4.289,0,0,0-2.061,6.987A6.546,6.546,0,0,0,0,252.95v12.173a1.14,1.14,0,0,0,2.279,0V252.95a4.254,4.254,0,1,1,8.509,0v4.905a1.14,1.14,0,0,0,2.279,0V252.95a4.254,4.254,0,1,1,8.509,0v12.173a1.14,1.14,0,0,0,2.279,0V252.95a4.254,4.254,0,1,1,8.509,0v12.173a1.14,1.14,0,0,0,2.279,0V252.95a4.254,4.254,0,1,1,8.509,0v12.173a1.14,1.14,0,0,0,2.279,0V252.95a4.254,4.254,0,1,1,8.509,0,1.14,1.14,0,1,0,2.279,0,4.254,4.254,0,1,1,8.509,0v12.173a1.14,1.14,0,0,0,2.279,0V252.95a4.254,4.254,0,1,1,8.509,0v12.173a1.14,1.14,0,0,0,2.279,0V252.95a6.547,6.547,0,0,0-3.334-5.7Zm-8.594-22.737a2.011,2.011,0,1,1-2.007,2.011A2.011,2.011,0,0,1,65.869,224.513Zm-10.788,0a2.011,2.011,0,1,1-2.007,2.011A2.011,2.011,0,0,1,55.081,224.513Zm-10.788,0a2.011,2.011,0,1,1-2.007,2.011A2.011,2.011,0,0,1,44.293,224.513Zm-10.788,0a2.011,2.011,0,1,1-2.007,2.011A2.011,2.011,0,0,1,33.5,224.513Zm-10.788,0a2.011,2.011,0,1,1-2.007,2.011A2.011,2.011,0,0,1,22.717,224.513Zm-10.788,0a2.011,2.011,0,1,1-2.007,2.011A2.011,2.011,0,0,1,11.929,224.513Zm-5.394,21.9A2.011,2.011,0,1,1,8.541,244.4,2.011,2.011,0,0,1,6.535,246.41Zm6.5-2.011a4.275,4.275,0,0,0,1.086,2.851,6.587,6.587,0,0,0-2.194,2.014,6.585,6.585,0,0,0-2.194-2.014,4.289,4.289,0,0,0-2.061-6.987v-5.187a4.254,4.254,0,1,1,8.509,0v5.187a4.3,4.3,0,0,0-3.146,4.136Zm4.286,2.011A2.011,2.011,0,1,1,19.33,244.4,2.011,2.011,0,0,1,17.323,246.41Zm6.5-2.011a4.275,4.275,0,0,0,1.086,2.851,6.589,6.589,0,0,0-2.194,2.014,6.586,6.586,0,0,0-2.194-2.014,4.289,4.289,0,0,0-2.061-6.987v-5.187a4.254,4.254,0,1,1,8.509,0v5.187a4.3,4.3,0,0,0-3.146,4.136Zm4.286,2.011a2.011,2.011,0,1,1,2.007-2.011A2.011,2.011,0,0,1,28.111,246.41Zm6.5-2.011A4.275,4.275,0,0,0,35.7,247.25a6.587,6.587,0,0,0-2.194,2.014,6.586,6.586,0,0,0-2.194-2.014,4.289,4.289,0,0,0-2.061-6.987v-5.187a4.254,4.254,0,1,1,8.509,0v5.187a4.3,4.3,0,0,0-3.146,4.136ZM38.9,246.41a2.011,2.011,0,1,1,2.007-2.011A2.011,2.011,0,0,1,38.9,246.41Zm6.5-2.011a4.275,4.275,0,0,0,1.086,2.851,6.587,6.587,0,0,0-2.194,2.014A6.584,6.584,0,0,0,42.1,247.25a4.289,4.289,0,0,0-2.061-6.987v-5.187a4.254,4.254,0,1,1,8.509,0v5.187A4.3,4.3,0,0,0,45.4,244.4Zm4.286,2.011a2.011,2.011,0,1,1,2.007-2.011A2.011,2.011,0,0,1,49.687,246.41Zm6.5-2.011a4.275,4.275,0,0,0,1.086,2.851,6.587,6.587,0,0,0-2.194,2.014,6.585,6.585,0,0,0-2.194-2.014,4.29,4.29,0,0,0-2.061-6.987v-5.187a4.254,4.254,0,1,1,8.509,0v5.187a4.3,4.3,0,0,0-3.146,4.136Zm4.286,2.011a2.011,2.011,0,1,1,2.007-2.011A2.011,2.011,0,0,1,60.475,246.41Zm6.5-2.011a4.275,4.275,0,0,0,1.086,2.851,6.587,6.587,0,0,0-2.194,2.014,6.585,6.585,0,0,0-2.194-2.014,4.29,4.29,0,0,0-2.061-6.987v-5.187a4.254,4.254,0,1,1,8.509,0v5.187A4.3,4.3,0,0,0,66.977,244.4Zm4.286,2.011A2.011,2.011,0,1,1,73.27,244.4,2.011,2.011,0,0,1,71.263,246.41Z" transform="translate(-0.001 -188.466)"/>
        <path id="Trazado_1014970" data-name="Trazado 1014970" d="M112.559,177.044A1.139,1.139,0,1,0,113.7,175.9,1.139,1.139,0,0,0,112.559,177.044Z" transform="translate(-95.456 -149.177)"/>
        <circle id="Elipse_13899" data-name="Elipse 13899" cx="1.139" cy="1.139" r="1.139" transform="translate(57.073 27.65)"/>
        <path id="Trazado_1014971" data-name="Trazado 1014971" d="M4.252,4.684V15.652a1.14,1.14,0,0,0,1.795.932l2.8-1.964,3.475,4.469a1.14,1.14,0,0,0,2.039-.7V6.515c1.106.113,2.3.218,3.576.313l4.491,15.055a1.139,1.139,0,0,0,1.088.814h0a1.14,1.14,0,0,0,1.089-.805L29.069,7.346q1.678.041,3.485.068V9.549a1.14,1.14,0,0,0,2.279,0V7.441q1.959.018,4.065.018t4.065-.018v9.392l-3.49-2.041a1.139,1.139,0,0,0-1.151,0l-3.49,2.041V14.8a1.14,1.14,0,0,0-2.279,0v4.018a1.14,1.14,0,0,0,1.715.984L38.9,17.1,43.527,19.8a1.14,1.14,0,0,0,1.715-.984V7.414q1.808-.026,3.485-.068L53.19,21.892a1.14,1.14,0,0,0,1.089.805h0a1.14,1.14,0,0,0,1.088-.814L59.862,6.828q1.92-.143,3.576-.313V18.39a1.14,1.14,0,0,0,2.039.7l3.475-4.469,2.8,1.964a1.14,1.14,0,0,0,1.795-.932V4.684c3.284-1.078,4.106-2.314,4.243-3.4A1.14,1.14,0,0,0,75.526,1c0,.012-.314,1.254-6.026,2.36C63.261,4.566,52.965,5.179,38.9,5.179S14.535,4.566,8.3,3.357C2.584,2.251,2.272,1.009,2.27,1a1.14,1.14,0,1,0-2.261.286c.138,1.088.959,2.324,4.243,3.4ZM65.717,6.256a55.936,55.936,0,0,0,5.547-.945v8.149l-1.891-1.328a1.14,1.14,0,0,0-1.555.233l-2.1,2.7V6.256Zm-8.282.735L54.264,17.622,51.091,7.279c2.307-.075,4.416-.172,6.345-.288Zm-30.73.288L23.532,17.622,20.36,6.991c1.929.116,4.038.213,6.345.288ZM6.531,5.31a55.935,55.935,0,0,0,5.547.945v8.812l-2.1-2.7a1.14,1.14,0,0,0-1.555-.233L6.531,13.459Z" transform="translate(0 0.001)"/>
      </g>
    </g>
  </g>
</svg>
