<svg xmlns="http://www.w3.org/2000/svg" width="50" height="37.137" viewBox="0 0 50 37.137">
  <g id="Mayan_Pyramid" data-name="Mayan Pyramid" transform="translate(3.413 -13.78)">
    <path id="Trazado_1013118" data-name="Trazado 1013118" d="M47.4,39.817a.467.467,0,0,0-.467-.467H45.317a.467.467,0,0,0,0,.934h1.615A.467.467,0,0,0,47.4,39.817Z" transform="translate(-24.734 -11.501)" fill="#ffd600"/>
    <path id="Trazado_1013119" data-name="Trazado 1013119" d="M49.744,43.45h-.808a.467.467,0,0,0,0,.934h.808a.467.467,0,0,0,0-.934Z" transform="translate(-26.664 -13.687)" fill="#ffd600"/>
    <path id="Trazado_1013120" data-name="Trazado 1013120" d="M46.434,56.207a.467.467,0,0,0-.467-.467H43.727a.467.467,0,1,0,0,.934h2.241A.467.467,0,0,0,46.434,56.207Z" transform="translate(-23.886 -20.239)" fill="#ffd600"/>
    <path id="Trazado_1013121" data-name="Trazado 1013121" d="M47.219,72.12H43.727a.467.467,0,1,0,0,.934h3.492a.467.467,0,0,0,0-.934Z" transform="translate(-23.886 -28.973)" fill="#ffd600"/>
    <path id="Trazado_1013150" data-name="Trazado 1013150" d="M57.6,72.12H23.727a.467.467,0,1,0,0,.934H57.6a.467.467,0,0,0,0-.934Z" transform="translate(-19.077 -22.137)" fill="#ffd600"/>
    <path id="Trazado_1013149" data-name="Trazado 1013149" d="M62.793,72.12H13.727a.467.467,0,1,0,0,.934H62.793a.467.467,0,0,0,0-.934Z" transform="translate(-16.673 -24.415)" fill="#ffd600"/>
    <path id="Trazado_1013122" data-name="Trazado 1013122" d="M44.348,45.061h-.514L42.9,41.579a.467.467,0,0,0-.467-.345H41.412L40.52,37.76a.467.467,0,0,0-.467-.35h-1.2l-.892-3.473a.467.467,0,0,0-.467-.35H35.889l-.766-3.459a.467.467,0,0,0-.467-.364H33l-.784-3.478a.467.467,0,0,0-.467-.364H27.589V16.5H28.2a.467.467,0,0,0,.467-.467V14.247a.467.467,0,0,0-.467-.467H16.6a.467.467,0,0,0-.467.467V16.03a.467.467,0,0,0,.467.467h.607V25.94H13.071a.467.467,0,0,0-.467.345l-.775,3.459H10.149a.467.467,0,0,0-.467.364l-.766,3.459H7.3a.467.467,0,0,0-.467.35l-.892,3.473h-1.2a.467.467,0,0,0-.467.35L3.4,41.224H2.362a.467.467,0,0,0-.467.345L.962,45.052H.467a.467.467,0,1,0,0,.934H44.348a.467.467,0,1,0,0-.934Zm-26.688-2.9h8.4a.467.467,0,1,0,0-.934H17.8l.42-2.89h2.227a.467.467,0,1,0,0-.934H18.351l.415-2.89h5.387a.467.467,0,1,0,0-.934H18.9l.42-2.89h2.063a.467.467,0,0,0,0-.934H19.457l.415-2.89h5.07L26.464,37.4H23.108a.467.467,0,0,0,0,.934h3.5l.971,6.718H17.244Zm6.3-16.227H20.853V19.584h3.109ZM42.868,45.07H28.514L28.1,42.157h14Zm-2.423-3.847H27.963l-.42-2.88H39.7ZM37.892,37.4H27.407l-.415-2.89H37.15Zm-2.96-3.823H26.856l-.42-2.89h7.857Zm-2.894-3.823H26.3l-.415-2.89h5.5ZM17.067,14.714H27.748v.85H17.067ZM26.674,16.5V25.94H24.9V19.117a.467.467,0,0,0-.467-.467H20.386a.467.467,0,0,0-.467.467V25.94H18.141V16.5ZM13.426,26.874h5.5l-.415,2.89H12.777Zm-2.9,3.823h7.857l-.42,2.89H9.883ZM7.665,34.52H17.823l-.415,2.89H6.923Zm-2.53,3.823H17.272l-.42,2.88H4.369ZM2.722,42.157h14l-.415,2.894H1.947Z" transform="translate(-0.821)" fill="#ffd600"/>
  </g>
</svg>
