<svg xmlns="http://www.w3.org/2000/svg" width="50" height="49.998" viewBox="0 0 50 49.998">
  <g id="Grupo_1181725" data-name="Grupo 1181725" transform="translate(-1 -1.002)">
    <path id="Trazado_1014657" data-name="Trazado 1014657" d="M50.194,51.773h-.806V49.354a.806.806,0,0,0-.806-.806h-.806V37.236A4.02,4.02,0,1,0,41.36,33.66l-.787.787a20.61,20.61,0,0,1-29.147,0l-.787-.787a4.021,4.021,0,1,0-6.414,3.577V48.547H3.419a.806.806,0,0,0-.806.806v2.419H1.806A.806.806,0,0,0,1,52.58v3.226a.806.806,0,0,0,.806.806H50.194A.806.806,0,0,0,51,55.806V52.58A.806.806,0,0,0,50.194,51.773Zm-7.258,0V50.16h4.839v1.613ZM9.871,48.547H9.065V38.4l1.222,1.222a22.223,22.223,0,0,0,31.427,0L42.935,38.4v10.15h-.806a.806.806,0,0,0-.806.806v2.419H10.677V49.354A.806.806,0,0,0,9.871,48.547Zm36.29,0H44.548V37.983a4.032,4.032,0,0,0,1.613,0Zm-.806-16.935a2.419,2.419,0,1,1-2.419,2.419,2.419,2.419,0,0,1,2.419-2.419ZM26,42.1a22.073,22.073,0,0,0,15.66-6.458,4.028,4.028,0,0,0,.694,1.06l-1.781,1.781a20.61,20.61,0,0,1-29.147,0L9.646,36.7a4.027,4.027,0,0,0,.694-1.06A22.073,22.073,0,0,0,26,42.1ZM6.645,31.612a2.419,2.419,0,1,1-2.419,2.419,2.419,2.419,0,0,1,2.419-2.419Zm-.806,6.371a4.032,4.032,0,0,0,1.613,0V48.547H5.839ZM4.226,50.16H9.065v1.613H4.226ZM49.387,55H2.613V53.386H49.387Z" transform="translate(0 -5.612)" fill="#405425"/>
    <path id="Trazado_1014658" data-name="Trazado 1014658" d="M28.244,29.69a.806.806,0,0,0,1.318,0l2.265-3.217a12.9,12.9,0,1,0-5.848,0ZM17.613,13.9A11.29,11.29,0,1,1,31.187,24.963a.806.806,0,0,0-.5.323L28.9,27.825l-1.786-2.537a.806.806,0,0,0-.5-.323A11.325,11.325,0,0,1,17.613,13.9Z" transform="translate(-2.903 0)" fill="#405425"/>
    <path id="Trazado_1014659" data-name="Trazado 1014659" d="M33.855,21.415a.806.806,0,0,0,1.186-.835l-.7-4.267L37.287,13.3a.806.806,0,0,0-.456-1.36L32.8,11.322,30.988,7.464a.806.806,0,0,0-1.46,0l-1.811,3.858-4.032.616a.806.806,0,0,0-.456,1.36l2.942,3.015-.7,4.267a.806.806,0,0,0,1.186.835l3.6-1.988ZM27.334,19.2l.494-3.029a.806.806,0,0,0-.219-.693L25.48,13.3l2.9-.444a.806.806,0,0,0,.608-.455L30.258,9.7,31.522,12.4a.806.806,0,0,0,.608.455l2.9.444L32.9,15.478a.806.806,0,0,0-.219.693l.494,3.029-2.534-1.4a.806.806,0,0,0-.781,0Z" transform="translate(-4.258 -1.161)" fill="#405425"/>
  </g>
</svg>
