<svg xmlns="http://www.w3.org/2000/svg" width="169.706" height="169.706" viewBox="0 0 169.706 169.706">
  <g id="Grupo_1181055" data-name="Grupo 1181055" transform="translate(-364.436 -3369.146)">
    <rect id="Rect치ngulo_402033" data-name="Rect치ngulo 402033" width="120" height="120" rx="30" transform="translate(364.436 3453.999) rotate(-45)" fill="#ffd600"/>
    <rect id="Rect치ngulo_454167" data-name="Rect치ngulo 454167" width="100" height="100" rx="50" transform="translate(398.833 3403.999)" fill="#c8bf57"/>
    <g id="Grupo_1181685" data-name="Grupo 1181685" transform="translate(408.723 3414.351)">
      <path id="Trazado_1014450" data-name="Trazado 1014450" d="M171.811,41.906A17.906,17.906,0,1,1,153.906,24,17.906,17.906,0,0,1,171.811,41.906Zm0,0" transform="translate(-114.257 -20.163)" fill="#e6e9ed"/>
      <path id="Trazado_1014451" data-name="Trazado 1014451" d="M299.811,265.906A17.906,17.906,0,1,1,281.906,248,17.906,17.906,0,0,1,299.811,265.906Zm0,0" transform="translate(-221.794 -208.352)" fill="#e6e9ed"/>
      <path id="Trazado_1014452" data-name="Trazado 1014452" d="M43.811,265.906A17.906,17.906,0,1,1,25.906,248,17.906,17.906,0,0,1,43.811,265.906Zm0,0" transform="translate(-6.721 -208.352)" fill="#e6e9ed"/>
      <g id="Grupo_1181684" data-name="Grupo 1181684" transform="translate(1.279 1.279)">
        <path id="Trazado_1014453" data-name="Trazado 1014453" d="M74.558,8a2.565,2.565,0,0,1,2.558,2.558,1.943,1.943,0,0,1-.038.383A2.5,2.5,0,0,1,75.5,12.924a2.365,2.365,0,0,1-.947.192,2.524,2.524,0,0,1-1.5-.486A2.556,2.556,0,0,1,74.558,8Zm0,0" transform="translate(-61.768 -8)" fill="#fcd770"/>
        <path id="Trazado_1014454" data-name="Trazado 1014454" d="M12.054,96.486a2.568,2.568,0,0,1,1.062,2.072,2.511,2.511,0,0,1-.1.7,2.561,2.561,0,0,1-1.8,1.765,2.177,2.177,0,0,1-.652.089,2.558,2.558,0,1,1,0-5.116,2.524,2.524,0,0,1,1.5.486Zm0,0" transform="translate(-8 -81.931)" fill="#fcd770"/>
        <path id="Trazado_1014455" data-name="Trazado 1014455" d="M52.8,249.317a2.554,2.554,0,0,1-4.413,2.571,2.489,2.489,0,0,1-.383-1.33,2.563,2.563,0,0,1,1.906-2.469,2.177,2.177,0,0,1,.652-.089,2.434,2.434,0,0,1,1.317.371,2.518,2.518,0,0,1,.921.946Zm0,0" transform="translate(-41.605 -209.631)" fill="#fcd770"/>
        <path id="Trazado_1014456" data-name="Trazado 1014456" d="M122.621,128a2.556,2.556,0,0,1,.345,5.078,2.112,2.112,0,0,1-.409.038A2.571,2.571,0,0,1,120,130.558a2.564,2.564,0,0,1,1.611-2.366,2.365,2.365,0,0,1,.947-.192Zm0,0" transform="translate(-102.094 -108.815)" fill="#fcd770"/>
        <path id="Trazado_1014457" data-name="Trazado 1014457" d="M180.8,25.317a2.554,2.554,0,0,1-4.413,2.571,2.488,2.488,0,0,1-.383-1.33,1.943,1.943,0,0,1,.038-.383A2.55,2.55,0,0,1,178.558,24a2.587,2.587,0,0,1,2.238,1.317Zm0,0" transform="translate(-149.141 -21.442)" fill="#fcd770"/>
        <path id="Trazado_1014458" data-name="Trazado 1014458" d="M316.08,44.617a2.524,2.524,0,0,1-1.522.5A2.565,2.565,0,0,1,312,42.558a2.524,2.524,0,0,1,.5-1.522,2.561,2.561,0,0,1,4.579,1.074,2.536,2.536,0,0,1,.038.448,2.571,2.571,0,0,1-.2,1,2.693,2.693,0,0,1-.831,1.062Zm0,0" transform="translate(-263.399 -34.884)" fill="#fcd770"/>
        <path id="Trazado_1014459" data-name="Trazado 1014459" d="M456.063,11.121a2.73,2.73,0,0,1-.064-.563,2.558,2.558,0,1,1,2.558,2.558h-.051a2.57,2.57,0,0,1-2.443-2Zm0,0" transform="translate(-384.377 -8)" fill="#fcd770"/>
        <path id="Trazado_1014460" data-name="Trazado 1014460" d="M458.315,96.012a1.5,1.5,0,0,1,.243-.012,2.558,2.558,0,1,1-2.021,4.119A2.483,2.483,0,0,1,456,98.558a2.565,2.565,0,0,1,2.315-2.545Zm0,0" transform="translate(-384.377 -81.931)" fill="#fcd770"/>
        <path id="Trazado_1014461" data-name="Trazado 1014461" d="M388.566,152.985a2.528,2.528,0,0,1,.55,1.573A2.558,2.558,0,1,1,386.558,152a2.519,2.519,0,0,1,2.008.985Zm0,0" transform="translate(-323.889 -128.978)" fill="#fcd770"/>
        <path id="Trazado_1014462" data-name="Trazado 1014462" d="M436.208,260.514A2.56,2.56,0,0,1,432,258.558a2.469,2.469,0,0,1,.32-1.228,2.58,2.58,0,0,1,2.238-1.33,2.559,2.559,0,0,1,1.65,4.514Zm0,0" transform="translate(-364.214 -216.352)" fill="#fcd770"/>
        <path id="Trazado_1014463" data-name="Trazado 1014463" d="M365.116,458.558a2.558,2.558,0,1,1-5.116,0,1.063,1.063,0,0,1,.012-.2,2.553,2.553,0,0,1,5.091,0,1.06,1.06,0,0,1,.013.2Zm0,0" transform="translate(-303.725 -384.377)" fill="#fcd770"/>
        <path id="Trazado_1014464" data-name="Trazado 1014464" d="M233.752,456.141a2.428,2.428,0,0,1,.806-.141,2.6,2.6,0,1,1-.806.141Zm0,0" transform="translate(-196.189 -384.378)" fill="#fcd770"/>
        <path id="Trazado_1014465" data-name="Trazado 1014465" d="M211.377,384.141a2.556,2.556,0,0,1,1.739,2.417,2.584,2.584,0,0,1-1.752,2.43,2.788,2.788,0,0,1-.806.128,2.639,2.639,0,0,1-1.01-.2,2.56,2.56,0,0,1,1.01-4.911,2.508,2.508,0,0,1,.819.141Zm0,0" transform="translate(-176.026 -323.888)" fill="#fcd770"/>
      </g>
      <path id="Trazado_1014466" data-name="Trazado 1014466" d="M327.022,381.448v5.692a17.838,17.838,0,0,1-8.965,4,2.553,2.553,0,0,0-5.091,0,17.838,17.838,0,0,1-8.965-4v-5.692a3.834,3.834,0,0,1,2.788-3.683L312.953,376l2.558,2.558L318.069,376l6.164,1.765A3.834,3.834,0,0,1,327.022,381.448Zm0,0" transform="translate(-255.399 -315.888)" fill="#b4dd7f"/>
      <path id="Trazado_1014467" data-name="Trazado 1014467" d="M365.116,355.68v3.249l-2.558,2.558L360,358.929V355.68a5.082,5.082,0,0,0,5.116,0Zm0,0" transform="translate(-302.446 -298.817)" fill="#f0d0b4"/>
      <path id="Trazado_1014468" data-name="Trazado 1014468" d="M351.674,292.1A5.116,5.116,0,0,1,344,287.674v-2.558a5.116,5.116,0,1,1,10.232,0v2.558A5.09,5.09,0,0,1,351.674,292.1Zm0,0" transform="translate(-289.004 -235.236)" fill="#f0d0b4"/>
      <path id="Trazado_1014469" data-name="Trazado 1014469" d="M71.022,381.448v5.679A17.828,17.828,0,0,1,48,387.14v-5.692a3.834,3.834,0,0,1,2.788-3.683L56.953,376l2.558,2.558L62.069,376l6.164,1.765a3.834,3.834,0,0,1,2.788,3.683Zm0,0" transform="translate(-40.326 -315.888)" fill="#69d6f4"/>
      <path id="Trazado_1014470" data-name="Trazado 1014470" d="M109.116,355.68v3.249l-2.558,2.558L104,358.929V355.68a5.082,5.082,0,0,0,5.116,0Zm0,0" transform="translate(-87.373 -298.817)" fill="#f0d0b4"/>
      <path id="Trazado_1014471" data-name="Trazado 1014471" d="M95.674,292.1A5.116,5.116,0,0,1,88,287.674v-2.558a5.116,5.116,0,1,1,10.232,0v2.558A5.09,5.09,0,0,1,95.674,292.1Zm0,0" transform="translate(-73.931 -235.236)" fill="#f0d0b4"/>
      <path id="Trazado_1014472" data-name="Trazado 1014472" d="M199.022,157.448v5.692a17.869,17.869,0,0,1-23.022.013v-5.7a3.834,3.834,0,0,1,2.788-3.683L184.953,152l2.558,2.558L190.069,152l6.164,1.765A3.834,3.834,0,0,1,199.022,157.448Zm0,0" transform="translate(-147.863 -127.699)" fill="#ff826e"/>
      <path id="Trazado_1014473" data-name="Trazado 1014473" d="M237.116,131.68v3.249l-2.558,2.558L232,134.929V131.68a5.082,5.082,0,0,0,5.116,0Zm0,0" transform="translate(-194.91 -110.628)" fill="#f0d0b4"/>
      <path id="Trazado_1014474" data-name="Trazado 1014474" d="M218.558,68.1A5.09,5.09,0,0,1,216,63.674V61.116a5.116,5.116,0,1,1,10.232,0v2.558a5.109,5.109,0,0,1-7.674,4.425Zm0,0" transform="translate(-181.468 -47.047)" fill="#f0d0b4"/>
      <path id="Trazado_1014475" data-name="Trazado 1014475" d="M75.459,21.743a3.827,3.827,0,0,0,1.06-7.506l.143-6.775a3.826,3.826,0,1,0-5-4.072L55.735,7.022A3.807,3.807,0,0,0,50.261,5.8a18.927,18.927,0,0,0-16.9-2.158,3.8,3.8,0,0,0-6.023.942l-9.5-1.462a3.834,3.834,0,1,0-6.924,2.885L4.92,14.244a3.758,3.758,0,0,0-1.084-.175,3.827,3.827,0,0,0-.322,7.642L8.074,39.037a3.749,3.749,0,0,0-1.538,4.148A19.159,19.159,0,1,0,35.418,67.746c.107.011.211.031.321.032L37.3,72.45a3.824,3.824,0,1,0,5.952,4.288H56.512a3.82,3.82,0,0,0,7.328-.4A19.1,19.1,0,0,0,74.919,45.416a3.793,3.793,0,0,0,.541-1.931,3.842,3.842,0,0,0-3.837-3.837c-.119,0-.23.024-.347.034L66.623,29.6a3.819,3.819,0,0,0,1.163-2.742,3.773,3.773,0,0,0-.211-1.2L73.4,21.13a3.8,3.8,0,0,0,2.063.613ZM74.1,7.414l-.147,6.962a3.826,3.826,0,0,0-1.389,1.034L57,9.356,72.226,5.885A3.839,3.839,0,0,0,74.1,7.414Zm1.355,11.771a1.279,1.279,0,1,1,1.279-1.279A1.281,1.281,0,0,1,75.459,19.185Zm0-16.627A1.279,1.279,0,1,1,74.18,3.837,1.281,1.281,0,0,1,75.459,2.558ZM52.438,7.674a1.279,1.279,0,1,1-1.279,1.279A1.281,1.281,0,0,1,52.438,7.674Zm-3.665.2A3.8,3.8,0,0,0,48.6,8.953a3.842,3.842,0,0,0,3.837,3.837,3.8,3.8,0,0,0,1.075-.172,16.527,16.527,0,0,1-1.075,19.734v-2.6a5.14,5.14,0,0,0-3.71-4.92l-5.243-1.5V21.709a6.369,6.369,0,0,0,2.558-5.083V14.069a6.395,6.395,0,1,0-12.79,0v2.558a6.366,6.366,0,0,0,2.558,5.083v1.627l-5.243,1.5a5.138,5.138,0,0,0-3.71,4.92v2.56a16.5,16.5,0,0,1-3.179-6,3.82,3.82,0,0,0-.463-6.834A16.672,16.672,0,0,1,28.455,9.5a3.823,3.823,0,0,0,6.078-3.1,3.846,3.846,0,0,0-.045-.444A16.426,16.426,0,0,1,48.773,7.877ZM39.648,20.464a3.842,3.842,0,0,1-3.837-3.837V14.069a3.837,3.837,0,1,1,7.674,0v2.558A3.842,3.842,0,0,1,39.648,20.464Zm0,2.558a6.4,6.4,0,0,0,1.279-.129v.879L39.648,25.05l-1.279-1.279v-.879A6.4,6.4,0,0,0,39.648,23.022Zm-2.93,2.715,2.93,2.93,2.93-2.93,5.446,1.556a2.569,2.569,0,0,1,1.856,2.46v5.068a16.5,16.5,0,0,1-20.464-.016V29.753a2.57,2.57,0,0,1,1.855-2.46ZM10.232,40.927a1.279,1.279,0,1,1-1.279,1.279A1.281,1.281,0,0,1,10.232,40.927Zm.322-2.526L5.995,21.075a3.87,3.87,0,0,0,.959-.949L17.93,23.262a3.8,3.8,0,0,0,.864,2.185l-7.8,13a4.261,4.261,0,0,0-.442-.045ZM14.069,7.674c.052,0,.1-.012.151-.016l5,12.5a3.908,3.908,0,0,0-.593.646L7.649,17.664A3.806,3.806,0,0,0,7,15.736L12.986,7.5a3.743,3.743,0,0,0,1.082.175ZM17.43,5.648l9.5,1.462c.016.091.046.175.07.264a19.237,19.237,0,0,0-6.043,10.243L16.592,6.7a3.814,3.814,0,0,0,.837-1.057Zm4.313,16.095a1.279,1.279,0,1,1-1.279,1.279A1.281,1.281,0,0,1,21.743,21.743ZM30.7,5.116a1.279,1.279,0,1,1-1.279,1.279A1.281,1.281,0,0,1,30.7,5.116ZM14.069,2.558A1.279,1.279,0,1,1,12.79,3.837,1.281,1.281,0,0,1,14.069,2.558ZM2.558,17.906a1.279,1.279,0,1,1,1.279,1.279A1.281,1.281,0,0,1,2.558,17.906ZM8.953,70.633V65.564a2.569,2.569,0,0,1,1.855-2.46l5.447-1.556,2.93,2.93,2.93-2.93L27.56,63.1a2.569,2.569,0,0,1,1.856,2.46v5.081a16.551,16.551,0,0,1-20.464-.012ZM19.185,56.275a3.842,3.842,0,0,1-3.837-3.837V49.88a3.837,3.837,0,1,1,7.674,0v2.558A3.842,3.842,0,0,1,19.185,56.275Zm0,2.558a6.4,6.4,0,0,0,1.279-.129v.879l-1.279,1.279-1.279-1.279V58.7A6.4,6.4,0,0,0,19.185,58.833Zm12.79,9.319V65.563a5.14,5.14,0,0,0-3.71-4.92l-5.243-1.5V57.521a6.369,6.369,0,0,0,2.558-5.083V49.88a6.395,6.395,0,1,0-12.79,0v2.558a6.366,6.366,0,0,0,2.558,5.083v1.627l-5.243,1.5a5.138,5.138,0,0,0-3.71,4.92v2.6a16.546,16.546,0,0,1,1.6-22.854,3.823,3.823,0,0,0,6.076-3.1,3.693,3.693,0,0,0-.044-.436,16.45,16.45,0,0,1,5.16-.843A16.646,16.646,0,0,1,35.811,57.554a16.314,16.314,0,0,1-.237,2.582,3.821,3.821,0,0,0-2.482,6.515,16.649,16.649,0,0,1-1.118,1.5Zm3.837-5.482a1.279,1.279,0,1,1-1.279,1.279A1.281,1.281,0,0,1,35.811,62.67Zm3.837,14.069a1.279,1.279,0,1,1,1.279-1.279A1.281,1.281,0,0,1,39.648,76.739ZM60.112,56.275a3.842,3.842,0,0,1-3.837-3.837V49.88a3.837,3.837,0,1,1,7.674,0v2.558A3.842,3.842,0,0,1,60.112,56.275Zm0,2.558a6.4,6.4,0,0,0,1.279-.129v.879l-1.279,1.279-1.279-1.279V58.7A6.4,6.4,0,0,0,60.112,58.833Zm-2.93,2.715,2.93,2.93,2.93-2.93L68.488,63.1a2.569,2.569,0,0,1,1.856,2.46v5.044a16.481,16.481,0,0,1-6.794,3.179,3.812,3.812,0,0,0-6.876,0,16.481,16.481,0,0,1-6.794-3.179V65.564a2.569,2.569,0,0,1,1.855-2.46Zm2.93,15.19a1.279,1.279,0,1,1,1.279-1.279A1.281,1.281,0,0,1,60.112,76.739ZM72.9,68.108V65.563a5.14,5.14,0,0,0-3.71-4.92l-5.243-1.5V57.521a6.369,6.369,0,0,0,2.558-5.083V49.88a6.395,6.395,0,0,0-12.79,0v2.558a6.366,6.366,0,0,0,2.558,5.083v1.627l-5.243,1.5a5.138,5.138,0,0,0-3.71,4.92v2.545A16.583,16.583,0,0,1,67.848,42.863a3.773,3.773,0,0,0,3.774,4.46,3.784,3.784,0,0,0,1.344-.256A16.45,16.45,0,0,1,72.9,68.108Zm0-24.623a1.279,1.279,0,1,1-1.279-1.279A1.281,1.281,0,0,1,72.9,43.485Zm-4.072-3A19.156,19.156,0,0,0,50.616,74.181H43.25a3.828,3.828,0,0,0-3.53-2.55l-1.558-4.672a3.8,3.8,0,0,0-.116-6.116A19.117,19.117,0,0,0,13.5,39.247l7.479-12.465c.061.013.126.009.185.019a19.172,19.172,0,0,0,37.669-5.058A18.958,18.958,0,0,0,55.965,11.7l15.669,6.094c0,.038-.011.076-.011.115a3.773,3.773,0,0,0,.211,1.2l-5.822,4.528a3.8,3.8,0,0,0-2.063-.613,3.837,3.837,0,1,0,0,7.674c.119,0,.23-.024.345-.034Zm-4.88-12.348a1.279,1.279,0,1,1,1.279-1.279A1.281,1.281,0,0,1,63.949,28.138Zm0,0"/>
    </g>
  </g>
</svg>
