<svg xmlns="http://www.w3.org/2000/svg" width="169.706" height="169.705" viewBox="0 0 169.706 169.705">
  <g id="Grupo_1181084" data-name="Grupo 1181084" transform="translate(-1065.98 -3369.146)">
    <rect id="Rect치ngulo_402033" data-name="Rect치ngulo 402033" width="120" height="120" rx="30" transform="translate(1065.98 3453.999) rotate(-45)" fill="#ffd600"/>
    <rect id="Rect치ngulo_454167" data-name="Rect치ngulo 454167" width="100" height="100" rx="50" transform="translate(1100.833 3403.999)" fill="#c8bf57"/>
    <g id="Grupo_1181846" data-name="Grupo 1181846" transform="translate(1112.026 3413.898)">
      <path id="Trazado_1015003" data-name="Trazado 1015003" d="M81.152,431.322H9.1a1.6,1.6,0,0,1-1.138-2.736L18.288,418.2a1.6,1.6,0,0,1,1.139-.473h51.4a1.6,1.6,0,0,1,1.139.473l10.328,10.383a1.6,1.6,0,0,1-1.137,2.736Zm0,0" transform="translate(-6.317 -352.295)" fill="#82e7a5"/>
      <path id="Trazado_1015004" data-name="Trazado 1015004" d="M193.708,417.73c-1.4,1.742-2.788,3.33-4.106,4.7-5.208,5.4-7.475,5.4-8.221,5.4s-3.012,0-8.221-5.4c-1.317-1.366-2.7-2.954-4.105-4.7Zm0,0" transform="translate(-142.573 -352.294)" fill="#19c88d"/>
      <path id="Trazado_1015005" data-name="Trazado 1015005" d="M125.969,35.278c0,15.341-21.787,44.7-27.778,44.7s-27.778-29.362-27.778-44.7a27.778,27.778,0,1,1,55.555,0Zm0,0" transform="translate(-59.384 -6.325)" fill="#fd6096"/>
      <path id="Trazado_1015006" data-name="Trazado 1015006" d="M126.427,86.043A22.534,22.534,0,1,1,148.96,63.509,22.559,22.559,0,0,1,126.427,86.043Zm0,0" transform="translate(-87.619 -34.557)" fill="#d83e81"/>
      <path id="Trazado_1015007" data-name="Trazado 1015007" d="M157.405,73.881A20.607,20.607,0,1,1,136.8,53.273,20.607,20.607,0,0,1,157.405,73.881Zm0,0" transform="translate(-97.99 -44.928)" fill="#fd9e28"/>
      <path id="Trazado_1015008" data-name="Trazado 1015008" d="M147.169,102.932a18.681,18.681,0,1,1,18.681-18.681A18.7,18.7,0,0,1,147.169,102.932Zm0,0" transform="translate(-108.361 -55.299)" fill="#fdc142"/>
      <path id="Trazado_1015009" data-name="Trazado 1015009" d="M195.989,164.749a1.517,1.517,0,0,1,0,2.145L185.8,177.081a1.516,1.516,0,0,1-2.145,0l-10.188-10.188a1.516,1.516,0,0,1,0-2.145,15.925,15.925,0,0,1,22.521,0Zm0,0" transform="translate(-145.92 -135.008)" fill="#618baa"/>
      <path id="Trazado_1015010" data-name="Trazado 1015010" d="M230.479,170.762l-1.006,6.787a.979.979,0,0,0,.277.837l1.883,1.883a.981.981,0,0,0,1.386,0l1.883-1.883a.981.981,0,0,0,.277-.837l-1.006-6.787Zm0,0" transform="translate(-193.518 -144.013)" fill="#fd6096"/>
      <path id="Trazado_1015011" data-name="Trazado 1015011" d="M221.481,104.217a5.99,5.99,0,1,1-5.99-5.99A5.991,5.991,0,0,1,221.481,104.217Zm0,0" transform="translate(-176.682 -82.84)" fill="#fedfc5"/>
      <path id="Trazado_1015012" data-name="Trazado 1015012" d="M76.806,115.375,66.477,104.992a2.8,2.8,0,0,0-1.971-.819H51.173c2.033-2.586,4.027-5.4,5.8-8.158A1.175,1.175,0,0,0,55,94.742a92,92,0,0,1-9.688,12.675c-3.446,3.673-5.658,4.976-6.5,4.976-.286,0-1.922-.215-6.022-4.468a87.2,87.2,0,0,1-9.137-11.609c-7.166-10.708-11.444-20.97-11.444-27.451a26.692,26.692,0,0,1,8.513-19.5,1.175,1.175,0,0,0-1.6-1.723A28.874,28.874,0,0,0,9.856,68.865c0,3.756,1.21,8.442,3.595,13.926A96.8,96.8,0,0,0,21.7,97.623c1.285,1.921,2.948,4.244,4.767,6.55H13.109a2.8,2.8,0,0,0-1.971.819L.81,115.375a2.78,2.78,0,0,0,1.972,4.74H74.835a2.78,2.78,0,0,0,1.971-4.74Zm-12.3-8.852a.43.43,0,0,1,.3.127l2.317,2.328H47.081c.718-.768,1.447-1.59,2.178-2.455Zm-5.821,11.243-6.4-6.438h4.664l6.4,6.438ZM12.8,106.649a.432.432,0,0,1,.3-.127H28.379c.718.849,1.447,1.674,2.175,2.455H10.488ZM2.384,117.5a.41.41,0,0,1,.092-.469l5.68-5.71a1.085,1.085,0,0,0,.11.006H32.7a1.161,1.161,0,0,0,.186-.016c2.231,2.057,4.328,3.432,5.923,3.432,1.539,0,3.614-1.311,5.913-3.416h4.246l6.4,6.438H2.782a.41.41,0,0,1-.4-.265Zm72.848,0a.409.409,0,0,1-.4.265h-8.17l-6.4-6.438h9.2l5.675,5.7A.409.409,0,0,1,75.232,117.5Zm0,0" transform="translate(0 -39.913)"/>
      <path id="Trazado_1015013" data-name="Trazado 1015013" d="M149.18,6.285A26.612,26.612,0,0,1,179.6,8.076a1.175,1.175,0,1,0,1.458-1.843,28.96,28.96,0,0,0-33.108-1.948,1.175,1.175,0,1,0,1.232,2Zm0,0" transform="translate(-124.301)"/>
      <path id="Trazado_1015014" data-name="Trazado 1015014" d="M376.091,81.341c0,5.158-2.681,12.678-7.548,21.175a1.175,1.175,0,0,0,2.039,1.168c2.935-5.124,7.859-14.84,7.859-22.343A28.958,28.958,0,0,0,371.5,62.53a1.175,1.175,0,0,0-1.785,1.528,26.6,26.6,0,0,1,6.38,17.283Zm0,0" transform="translate(-310.681 -52.389)"/>
      <path id="Trazado_1015015" data-name="Trazado 1015015" d="M130.473,45.773a21.782,21.782,0,1,0,21.782,21.782A21.807,21.807,0,0,0,130.473,45.773Zm0,41.214a19.432,19.432,0,1,1,19.433-19.432A19.454,19.454,0,0,1,130.473,86.988Zm0,0" transform="translate(-91.665 -38.603)"/>
      <path id="Trazado_1015016" data-name="Trazado 1015016" d="M184.556,101.56a7.166,7.166,0,1,0-12.3,0,17.158,17.158,0,0,0-5.939,3.865,2.692,2.692,0,0,0,0,3.806L176.5,119.419a2.692,2.692,0,0,0,3.806,0l10.188-10.188a2.692,2.692,0,0,0,0-3.806,17.155,17.155,0,0,0-5.938-3.865ZM178.4,93.076a4.816,4.816,0,1,1-4.816,4.816A4.821,4.821,0,0,1,178.4,93.076Zm1.677,17.049L178.4,111.8l-1.677-1.677.761-5.129a6.892,6.892,0,0,0,1.833,0Zm8.753-2.556-10.188,10.188a.342.342,0,0,1-.483,0l-10.188-10.188a.337.337,0,0,1-.1-.241.333.333,0,0,1,.1-.242,14.77,14.77,0,0,1,5.934-3.62,7.153,7.153,0,0,0,1.307.84l-.826,5.572a2.163,2.163,0,0,0,.608,1.84l1.883,1.884a2.159,2.159,0,0,0,3.048,0l1.883-1.884a2.163,2.163,0,0,0,.608-1.839l-.826-5.573a7.153,7.153,0,0,0,1.307-.84,14.77,14.77,0,0,1,5.934,3.62.341.341,0,0,1,0,.483Zm0,0" transform="translate(-139.595 -76.515)"/>
    </g>
  </g>
</svg>
