<svg xmlns="http://www.w3.org/2000/svg" width="50.5" height="51.294" viewBox="0 0 50.5 51.294">
  <g id="Grupo_1181728" data-name="Grupo 1181728" transform="translate(0.25 0.25)">
    <path id="Trazado_1014670" data-name="Trazado 1014670" d="M22.406,44.935a2.574,2.574,0,0,1-1.325-.357l-10.675-6.1a.791.791,0,0,1,.786-1.373l10.675,6.1a1.088,1.088,0,0,0,1.627-.944V37.793a.794.794,0,0,1,1.587,0v4.468A2.676,2.676,0,0,1,22.406,44.935Z" transform="translate(-2.064 -7.634)" fill="#405425" stroke="#405425" stroke-width="0.5"/>
    <path id="Trazado_1014671" data-name="Trazado 1014671" d="M25.185,31.286H23.6V19.675a1.088,1.088,0,0,0-1.627-.944L11.3,24.833l-.786-1.381,10.675-6.1a2.678,2.678,0,0,1,4,2.325Z" transform="translate(-2.169 -3.508)" fill="#405425" stroke="#405425" stroke-width="0.5"/>
    <path id="Trazado_1014672" data-name="Trazado 1014672" d="M8.73,36.111H5.556A5.556,5.556,0,0,1,5.556,25H8.73a.8.8,0,0,1,.794.794v7.143a.794.794,0,0,1-1.587,0V26.587H5.556a3.968,3.968,0,0,0,0,7.937H8.73a.794.794,0,1,1,0,1.587Z" transform="translate(0 -5.159)" fill="#405425" stroke="#405425" stroke-width="0.5"/>
    <path id="Trazado_1014673" data-name="Trazado 1014673" d="M10.175,44.937H7.794A.8.8,0,0,1,7,44.143V37.794a.794.794,0,1,1,1.587,0v5.556h.794V40.968a.794.794,0,1,1,1.587,0v3.175A.8.8,0,0,1,10.175,44.937Z" transform="translate(-1.444 -7.635)" fill="#405425" stroke="#405425" stroke-width="0.5"/>
    <path id="Trazado_1014674" data-name="Trazado 1014674" d="M36.968,32.587H33.794a.794.794,0,1,1,0-1.587h3.175a.794.794,0,1,1,0,1.587Z" transform="translate(-6.81 -6.397)" fill="#405425" stroke="#405425" stroke-width="0.5"/>
    <path id="Trazado_1014675" data-name="Trazado 1014675" d="M34.176,41.174a.745.745,0,0,1-.437-.135l-2.381-1.587a.8.8,0,0,1,.881-1.325l2.381,1.587a.8.8,0,0,1,.222,1.1.791.791,0,0,1-.659.357Z" transform="translate(-6.398 -7.84)" fill="#405425" stroke="#405425" stroke-width="0.5"/>
    <path id="Trazado_1014676" data-name="Trazado 1014676" d="M31.794,25.173a.8.8,0,0,1-.437-1.46l2.381-1.587a.8.8,0,1,1,.881,1.325l-2.381,1.587a.806.806,0,0,1-.437.135Z" transform="translate(-6.397 -4.538)" fill="#405425" stroke="#405425" stroke-width="0.5"/>
    <path id="Trazado_1014677" data-name="Trazado 1014677" d="M27.794,34.349A.8.8,0,0,1,27,33.556V28.794A.8.8,0,0,1,27.794,28a3.175,3.175,0,0,1,0,6.349Zm.794-4.548v2.746a1.584,1.584,0,0,0,0-2.746Z" transform="translate(-5.571 -5.778)" fill="#405425" stroke="#405425" stroke-width="0.5"/>
    <path id="Trazado_1014678" data-name="Trazado 1014678" d="M38.73,17.46a8.734,8.734,0,0,1-7.563-13.1.795.795,0,0,1,1.373.8A7.149,7.149,0,1,0,35.873,2.19.8.8,0,1,1,35.238.73,8.636,8.636,0,0,1,38.73,0a8.73,8.73,0,0,1,0,17.46Z" transform="translate(-6.19)" fill="#405425" stroke="#405425" stroke-width="0.5"/>
    <path id="Trazado_1014679" data-name="Trazado 1014679" d="M49.73,38.46a8.734,8.734,0,0,1-7.563-13.1.795.795,0,0,1,1.373.8,7.149,7.149,0,1,0,3.333-2.976.8.8,0,0,1-.635-1.46A8.636,8.636,0,0,1,49.73,21a8.73,8.73,0,1,1,0,17.46Z" transform="translate(-8.46 -4.333)" fill="#405425" stroke="#405425" stroke-width="0.5"/>
    <path id="Trazado_1014680" data-name="Trazado 1014680" d="M38.73,59.46a8.734,8.734,0,0,1-7.563-13.1.795.795,0,0,1,1.373.8,7.149,7.149,0,1,0,3.333-2.976.8.8,0,1,1-.635-1.46A8.636,8.636,0,0,1,38.73,42a8.73,8.73,0,0,1,0,17.46Z" transform="translate(-6.19 -8.667)" fill="#405425" stroke="#405425" stroke-width="0.5"/>
    <path id="Trazado_1014681" data-name="Trazado 1014681" d="M45.58,14.121l-2.611-2.611-1.817,1.817a.79.79,0,0,1-1.119,0l-3.4-3.4-4.2,4.2L31.31,13,36.072,8.24a.79.79,0,0,1,1.119,0l3.4,3.4,1.817-1.817a.79.79,0,0,1,1.119,0L46.707,13l-1.119,1.119Z" transform="translate(-6.461 -1.652)" fill="#405425" stroke="#405425" stroke-width="0.5"/>
    <circle id="Elipse_13890" data-name="Elipse 13890" cx="0.794" cy="0.794" r="0.794" transform="translate(33.333 4.762)" fill="#405425" stroke="#405425" stroke-width="0.5"/>
    <path id="Trazado_1014682" data-name="Trazado 1014682" d="M50.794,34.349a.752.752,0,0,1-.389-.1.8.8,0,0,1-.4-.69V28.794a.788.788,0,0,1,.4-.69.8.8,0,0,1,.8.008l3.968,2.381a.8.8,0,0,1,.389.683.786.786,0,0,1-.389.683l-3.968,2.381a.84.84,0,0,1-.4.111Zm.794-4.151v1.96l1.635-.976-1.635-.976Z" transform="translate(-10.317 -5.778)" fill="#405425" stroke="#405425" stroke-width="0.5"/>
    <path id="Trazado_1014683" data-name="Trazado 1014683" d="M37.794,55.349A.8.8,0,0,1,37,54.556V49.794a.794.794,0,0,1,1.587,0v4.762A.8.8,0,0,1,37.794,55.349Z" transform="translate(-7.635 -10.111)" fill="#405425" stroke="#405425" stroke-width="0.5"/>
    <path id="Trazado_1014684" data-name="Trazado 1014684" d="M43.794,55.349A.8.8,0,0,1,43,54.556V49.794a.794.794,0,1,1,1.587,0v4.762A.8.8,0,0,1,43.794,55.349Z" transform="translate(-8.873 -10.111)" fill="#405425" stroke="#405425" stroke-width="0.5"/>
    <path id="Trazado_1014685" data-name="Trazado 1014685" d="M40.794,54.762A.8.8,0,0,1,40,53.968V50.794a.794.794,0,0,1,1.587,0v3.175A.8.8,0,0,1,40.794,54.762Z" transform="translate(-8.254 -10.317)" fill="#405425" stroke="#405425" stroke-width="0.5"/>
    <path id="Trazado_1014686" data-name="Trazado 1014686" d="M34.794,54.175A.8.8,0,0,1,34,53.381V51.794a.794.794,0,0,1,1.587,0v1.587A.8.8,0,0,1,34.794,54.175Z" transform="translate(-7.016 -10.524)" fill="#405425" stroke="#405425" stroke-width="0.5"/>
    <path id="Trazado_1014687" data-name="Trazado 1014687" d="M46.794,54.175A.8.8,0,0,1,46,53.381V51.794a.794.794,0,0,1,1.587,0v1.587A.8.8,0,0,1,46.794,54.175Z" transform="translate(-9.492 -10.524)" fill="#405425" stroke="#405425" stroke-width="0.5"/>
  </g>
</svg>
