<svg xmlns="http://www.w3.org/2000/svg" width="50" height="49.243" viewBox="0 0 50 49.243">
  <g id="layer1" transform="translate(-34.533 -199.422)">
    <path id="path5034" d="M71.8,199.422a12.7,12.7,0,0,0-12.732,12.64c0,.01,0,.02,0,.03.106,3.873,2.065,7.941,4.514,11.847s5.431,7.647,7.732,10.677a1.111,1.111,0,0,0,1.77,0c1.21-1.6,2.528-3.324,3.82-5.126.646-.9,1.283-1.825,1.9-2.761a1.111,1.111,0,1,0-1.814-1.284q-.019.028-.037.056c-.6.907-1.223,1.808-1.857,2.692-.967,1.349-1.935,2.616-2.888,3.877-2.169-2.833-4.655-5.983-6.742-9.311-2.354-3.754-4.084-7.576-4.174-10.712a10.51,10.51,0,0,1,21.02.017c0,3.3-1.49,7.019-3.641,10.7a1.111,1.111,0,0,0,1.864,1.211c.019-.029.036-.058.052-.088,2.251-3.845,3.95-7.862,3.947-11.818A12.7,12.7,0,0,0,71.8,199.424Zm5.53,10.266A6,6,0,0,0,71.843,206h0a5.9,5.9,0,0,0-2.326.45,1.112,1.112,0,0,0,.8,2.076l.056-.023a3.769,3.769,0,1,1-2.029,2.032,1.112,1.112,0,1,0-2.023-.923q-.016.036-.03.073a5.974,5.974,0,1,0,11.076.1M39.545,210a1.111,1.111,0,0,0-1.054.753l-3.883,11.325a1.112,1.112,0,0,0-.043.626,5.521,5.521,0,0,0,5.483,5.22h.009a5.353,5.353,0,0,0,3.825-1.83,4.908,4.908,0,0,0,7.8-.2,4.906,4.906,0,0,0,7.76.237,4.854,4.854,0,0,0,3.606,1.84,1.112,1.112,0,0,0,.012-2.223h0a2.865,2.865,0,0,1-2.6-1.736,1.112,1.112,0,0,0-.514-.469h.618a1.111,1.111,0,1,0,.057-2.222H37.221l3.122-9.1H56.749A1.112,1.112,0,0,0,56.755,210H39.545Zm-2.309,13.548h6.2a1.11,1.11,0,0,0-.527.475,3.269,3.269,0,0,1-2.852,1.678A3.09,3.09,0,0,1,37.236,223.549Zm7.1,0h6.5a1.114,1.114,0,0,0-.168.26,3.265,3.265,0,0,1-5.815.214,1.111,1.111,0,0,0-.521-.475Zm8.176,0h6.5a1.111,1.111,0,0,0-.508.469,3.267,3.267,0,0,1-5.822-.208,1.112,1.112,0,0,0-.175-.26Zm-13.721,4.3a1.111,1.111,0,0,0-1.093,1.128v13.415H35.645a1.111,1.111,0,0,0-1.112,1.111h0v4.051a1.111,1.111,0,0,0,1.112,1.11H53.971a1.111,1.111,0,1,0,.058-2.222H36.755v-1.828H74.481v1.828H58.324a1.111,1.111,0,1,0-.058,2.222H75.593a1.111,1.111,0,0,0,1.11-1.11V243.5a1.111,1.111,0,0,0-1.11-1.112H73.255V237.7a1.111,1.111,0,0,0-1.094-1.129h-.035a1.111,1.111,0,0,0-1.095,1.127h0v4.687H45.187V231.8H49.95v8.463a1.111,1.111,0,1,0,2.222,0v-9.574a1.111,1.111,0,0,0-1.112-1.11H44.075a1.109,1.109,0,0,0-1.11,1.11v11.707h-3.05V228.977a1.111,1.111,0,0,0-1.094-1.128Zm16.383,1.795a1.111,1.111,0,0,0-1.112,1.111h0v8.281a1.111,1.111,0,0,0,1.111,1.112H65.824a1.111,1.111,0,0,0,1.112-1.111h0v-8.281a1.111,1.111,0,0,0-1.111-1.112H59.753a1.111,1.111,0,1,0-.058,2.222h5.017v6.06H56.28v-6.06h.341a1.111,1.111,0,1,0,.058-2.222H55.17Z" fill="#405425" fill-rule="evenodd"/>
  </g>
</svg>
