<svg xmlns="http://www.w3.org/2000/svg" width="50" height="49.469" viewBox="0 0 50 49.469">
  <g id="Paticipatation" transform="translate(-1.766 -2)">
    <path id="Trazado_995515" data-name="Trazado 995515" d="M51.527,40.7,48.02,37.188a.827.827,0,0,0-.585-.243h0a.827.827,0,0,0-.585.248l-.584.584-.423-.423L44.731,32.9a.834.834,0,0,0-.217-.385l-8.648-8.655V13.578a.827.827,0,0,0-.118-.426L33.384,9.214v-.6h.827a.827.827,0,0,0,.827-.827V2.827A.827.827,0,0,0,34.211,2H20.98a.827.827,0,0,0-.827.827V7.789a.827.827,0,0,0,.827.827V9.1l-3.066,3.066a.827.827,0,0,0-.242.585v9.924a2.455,2.455,0,0,0,.208.979L9.024,32.515a.834.834,0,0,0-.217.385L7.7,37.352l-.426.425-.584-.584a.827.827,0,0,0-1.169,0L2.008,40.7a.827.827,0,0,0,0,1.169l9.356,9.356a.827.827,0,0,0,1.169,0l3.508-3.509a.827.827,0,0,0,0-1.167l.342-.342h4.34a.827.827,0,0,0,.585-.242L26.769,40.5l5.458,5.467a.827.827,0,0,0,.585.242H37.15l.343.343h0a.827.827,0,0,0,0,1.165L41,51.225a.827.827,0,0,0,1.169,0l9.353-9.353A.827.827,0,0,0,51.527,40.7ZM21.807,3.654H33.384V6.962H21.807Zm.585,6.373a.827.827,0,0,0,.242-.585V8.616h9.1v.827a.827.827,0,0,0,.118.426l2.363,3.938v8.785a2.585,2.585,0,0,0-1.654.01V21.02H30.9v2.564l-.424-.424a2.47,2.47,0,0,0-1.23-.673V21.02H27.6V22.7a2.349,2.349,0,0,0-1.1,1.148l-.108-.108a2.426,2.426,0,0,0-.444-.346V21.02H24.288v2.028a2.472,2.472,0,0,0-1.412.7,2.433,2.433,0,0,0-.367.484,2.436,2.436,0,0,0-.165-.413,2.424,2.424,0,0,0,.29-1.14V17.712H20.98v4.879a2.488,2.488,0,0,0-1.654,0v-9.5ZM11.949,49.473,3.762,41.286,6.1,38.947l8.187,8.187Zm8.431-4.917H16.043a.827.827,0,0,0-.585.242l-.583.579L8.441,38.947l.587-.587a.832.832,0,0,0,.217-.385l1.111-4.45,9.179-9.192a.836.836,0,0,1,1.165-.02c.013.016.026.031.04.046a.82.82,0,0,1-.026,1.137h0L16.62,29.59l1.169,1.169,4.094-4.094h0a2.494,2.494,0,0,0,.369-.487,2.449,2.449,0,0,0,.619,1.075l.1.1a2.5,2.5,0,0,0-.691.48,2.468,2.468,0,0,0-.7,1.47l-.358.358L18.96,31.931,20.129,33.1,22.1,31.13a2.418,2.418,0,0,0,.184.217l.972.968L21.3,34.272l1.169,1.169,1.957-1.957.109.108a.739.739,0,0,0,.064.071l.992.992L21.3,38.943l1.169,1.169,2.15-2.15a2.46,2.46,0,0,0,.593.983l.383.384Zm12.777,0-6.771-6.781a.827.827,0,0,1,0-1.171.737.737,0,0,1,.383-.21.814.814,0,0,0,.2-.025.814.814,0,0,1,.57.22h0L31.06,40.11l1.169-1.169-8.782-8.774a.8.8,0,0,1-.231-.544.827.827,0,0,1,.791-.863.872.872,0,0,0,.093.007.848.848,0,0,1,.526.237l6.434,6.434,1.169-1.169-8.187-8.187a.827.827,0,0,1,0-1.171.819.819,0,0,1,.59-.237.79.79,0,0,1,.248.041.762.762,0,0,1,.331.2L33.4,33.1l1.169-1.169-6.435-6.442a.794.794,0,0,1-.231-.546.827.827,0,0,1,.238-.612.891.891,0,0,1,.486-.237.436.436,0,0,1,.1-.008.832.832,0,0,1,.59.248l6.434,6.434L36.913,29.6,32.82,25.5a.827.827,0,0,1,0-1.171.845.845,0,0,1,1.171,0l9.191,9.194,1.111,4.448a.832.832,0,0,0,.217.385l.585.585L38.661,45.38l-.579-.579a.827.827,0,0,0-.585-.242Zm8.435,4.917-2.341-2.341,8.187-8.187,2.335,2.342Z" fill="#405425"/>
    <path id="Trazado_995516" data-name="Trazado 995516" d="M18.153,17.3l-1.075-1.257a17.392,17.392,0,0,0-5.884,15.8l1.635-.248a15.869,15.869,0,0,1-.175-2.356,15.7,15.7,0,0,1,5.5-11.941Z" transform="translate(-1.598 -2.429)" fill="#405425"/>
    <path id="Trazado_995517" data-name="Trazado 995517" d="M32.686,52.629,32.6,50.975c-.521.026-1.052.026-1.571,0l-.083,1.654c.287.013.579.021.867.021S32.4,52.642,32.686,52.629Z" transform="translate(-5.049 -8.474)" fill="#405425"/>
    <path id="Trazado_995518" data-name="Trazado 995518" d="M51.421,30.975c.057-.571.083-1.158.083-1.737a17.355,17.355,0,0,0-6.078-13.2L44.35,17.3a15.7,15.7,0,0,1,5.5,11.941c0,.526-.026,1.055-.078,1.571Z" transform="translate(-7.368 -2.429)" fill="#405425"/>
    <path id="Trazado_995519" data-name="Trazado 995519" d="M9.067,32.03A19.053,19.053,0,0,1,19.749,10.771l-.69-1.5A20.709,20.709,0,0,0,7.449,32.374Z" transform="translate(-0.905 -1.258)" fill="#405425"/>
    <path id="Trazado_995520" data-name="Trazado 995520" d="M28.109,54.682l-.275,1.631a20.883,20.883,0,0,0,6.89,0l-.275-1.631a19.335,19.335,0,0,1-6.341,0Z" transform="translate(-4.51 -9.115)" fill="#405425"/>
    <path id="Trazado_995521" data-name="Trazado 995521" d="M53.01,28.253a19.125,19.125,0,0,1-.413,3.963l1.618.344a20.711,20.711,0,0,0-9.888-22.215L43.5,11.777a19.092,19.092,0,0,1,9.51,16.476Z" transform="translate(-7.221 -1.444)" fill="#405425"/>
  </g>
</svg>
